  0
SECTION
  2
HEADER
  9
$ACADVER
  1
AC1032
  9
$ACADMAINTVER
 90
4
  9
$DWGCODEPAGE
  3
ANSI_1252
  9
$LASTSAVEDBY
  1
ezdxf
  9
$REQUIREDVERSIONS
160
0
  9
$INSBASE
 10
0.0
 20
0.0
 30
0.0
  9
$EXTMIN
 10
1e+20
 20
1e+20
 30
1e+20
  9
$EXTMAX
 10
-1e+20
 20
-1e+20
 30
-1e+20
  9
$LIMMIN
 10
0.0
 20
0.0
  9
$LIMMAX
 10
420.0
 20
297.0
  9
$ORTHOMODE
 70
0
  9
$REGENMODE
 70
1
  9
$FILLMODE
 70
1
  9
$QTEXTMODE
 70
0
  9
$MIRRTEXT
 70
1
  9
$LTSCALE
 40
1.0
  9
$ATTMODE
 70
1
  9
$TEXTSIZE
 40
2.5
  9
$TRACEWID
 40
1.0
  9
$TEXTSTYLE
  7
OpenSans
  9
$CLAYER
  8
0
  9
$CELTYPE
  6
ByLayer
  9
$CECOLOR
 62
256
  9
$CELTSCALE
 40
1.0
  9
$DISPSILH
 70
0
  9
$DIMSCALE
 40
1.0
  9
$DIMASZ
 40
0.175
  9
$DIMEXO
 40
0.125
  9
$DIMDLI
 40
3.75
  9
$DIMRND
 40
0.0
  9
$DIMDLE
 40
0.0
  9
$DIMEXE
 40
0.375
  9
$DIMTP
 40
0.0
  9
$DIMTM
 40
0.0
  9
$DIMTXT
 40
0.25
  9
$DIMCEN
 40
2.5
  9
$DIMTSZ
 40
0.0
  9
$DIMTOL
 70
0
  9
$DIMLIM
 70
0
  9
$DIMTIH
 70
0
  9
$DIMTOH
 70
0
  9
$DIMSE1
 70
0
  9
$DIMSE2
 70
0
  9
$DIMTAD
 70
1
  9
$DIMZIN
 70
12
  9
$DIMBLK
  1
ARCHTICK
  9
$DIMASO
 70
1
  9
$DIMSHO
 70
1
  9
$DIMPOST
  1

  9
$DIMAPOST
  1

  9
$DIMALT
 70
0
  9
$DIMALTD
 70
3
  9
$DIMALTF
 40
0.03937007874
  9
$DIMLFAC
 40
100.0
  9
$DIMTOFL
 70
1
  9
$DIMTVP
 40
0.0
  9
$DIMTIX
 70
0
  9
$DIMSOXD
 70
0
  9
$DIMSAH
 70
0
  9
$DIMBLK1
  1

  9
$DIMBLK2
  1

  9
$DIMSTYLE
  2
EZDXF
  9
$DIMCLRD
 70
0
  9
$DIMCLRE
 70
0
  9
$DIMCLRT
 70
0
  9
$DIMTFAC
 40
0.5
  9
$DIMGAP
 40
0.1
  9
$DIMJUST
 70
0
  9
$DIMSD1
 70
0
  9
$DIMSD2
 70
0
  9
$DIMTOLJ
 70
0
  9
$DIMTZIN
 70
8
  9
$DIMALTZ
 70
0
  9
$DIMALTTZ
 70
0
  9
$DIMUPT
 70
1
  9
$DIMDEC
 70
2
  9
$DIMTDEC
 70
2
  9
$DIMALTU
 70
2
  9
$DIMALTTD
 70
3
  9
$DIMTXSTY
  7
OpenSansCondensed-Light
  9
$DIMAUNIT
 70
0
  9
$DIMADEC
 70
2
  9
$DIMALTRND
 40
0.0
  9
$DIMAZIN
 70
3
  9
$DIMDSEP
 70
46
  9
$DIMATFIT
 70
3
  9
$DIMFRAC
 70
0
  9
$DIMLDRBLK
  1

  9
$DIMLUNIT
 70
2
  9
$DIMLWD
 70
-2
  9
$DIMLWE
 70
-2
  9
$DIMTMOVE
 70
2
  9
$DIMFXL
 40
1.0
  9
$DIMFXLON
 70
0
  9
$DIMJOGANG
 40
0.785398163397
  9
$DIMTFILL
 70
0
  9
$DIMTFILLCLR
 70
0
  9
$DIMARCSYM
 70
0
  9
$DIMLTYPE
  6

  9
$DIMLTEX1
  6

  9
$DIMLTEX2
  6

  9
$DIMTXTDIRECTION
 70
0
  9
$LUNITS
 70
2
  9
$LUPREC
 70
4
  9
$SKETCHINC
 40
1.0
  9
$FILLETRAD
 40
10.0
  9
$AUNITS
 70
0
  9
$AUPREC
 70
2
  9
$MENU
  1
.
  9
$ELEVATION
 40
0.0
  9
$PELEVATION
 40
0.0
  9
$THICKNESS
 40
0.0
  9
$LIMCHECK
 70
0
  9
$CHAMFERA
 40
0.0
  9
$CHAMFERB
 40
0.0
  9
$CHAMFERC
 40
0.0
  9
$CHAMFERD
 40
0.0
  9
$SKPOLY
 70
0
  9
$TDCREATE
 40
2461322.734016204
  9
$TDUCREATE
 40
2458532.153996898
  9
$TDUPDATE
 40
2461322.734016204
  9
$TDUUPDATE
 40
2458532.1544311
  9
$TDINDWG
 40
0.0
  9
$TDUSRTIMER
 40
0.0
  9
$USRTIMER
 70
1
  9
$ANGBASE
 50
0.0
  9
$ANGDIR
 70
0
  9
$PDMODE
 70
0
  9
$PDSIZE
 40
0.0
  9
$PLINEWID
 40
0.0
  9
$SPLFRAME
 70
0
  9
$SPLINETYPE
 70
6
  9
$SPLINESEGS
 70
8
  9
$HANDSEED
  5
27C
  9
$SURFTAB1
 70
6
  9
$SURFTAB2
 70
6
  9
$SURFTYPE
 70
6
  9
$SURFU
 70
6
  9
$SURFV
 70
6
  9
$UCSBASE
  2

  9
$UCSNAME
  2

  9
$UCSORG
 10
0.0
 20
0.0
 30
0.0
  9
$UCSXDIR
 10
1.0
 20
0.0
 30
0.0
  9
$UCSYDIR
 10
0.0
 20
1.0
 30
0.0
  9
$UCSORTHOREF
  2

  9
$UCSORTHOVIEW
 70
0
  9
$UCSORGTOP
 10
0.0
 20
0.0
 30
0.0
  9
$UCSORGBOTTOM
 10
0.0
 20
0.0
 30
0.0
  9
$UCSORGLEFT
 10
0.0
 20
0.0
 30
0.0
  9
$UCSORGRIGHT
 10
0.0
 20
0.0
 30
0.0
  9
$UCSORGFRONT
 10
0.0
 20
0.0
 30
0.0
  9
$UCSORGBACK
 10
0.0
 20
0.0
 30
0.0
  9
$PUCSBASE
  2

  9
$PUCSNAME
  2

  9
$PUCSORG
 10
0.0
 20
0.0
 30
0.0
  9
$PUCSXDIR
 10
1.0
 20
0.0
 30
0.0
  9
$PUCSYDIR
 10
0.0
 20
1.0
 30
0.0
  9
$PUCSORTHOREF
  2

  9
$PUCSORTHOVIEW
 70
0
  9
$PUCSORGTOP
 10
0.0
 20
0.0
 30
0.0
  9
$PUCSORGBOTTOM
 10
0.0
 20
0.0
 30
0.0
  9
$PUCSORGLEFT
 10
0.0
 20
0.0
 30
0.0
  9
$PUCSORGRIGHT
 10
0.0
 20
0.0
 30
0.0
  9
$PUCSORGFRONT
 10
0.0
 20
0.0
 30
0.0
  9
$PUCSORGBACK
 10
0.0
 20
0.0
 30
0.0
  9
$USERI1
 70
0
  9
$USERI2
 70
0
  9
$USERI3
 70
0
  9
$USERI4
 70
0
  9
$USERI5
 70
0
  9
$USERR1
 40
0.0
  9
$USERR2
 40
0.0
  9
$USERR3
 40
0.0
  9
$USERR4
 40
0.0
  9
$USERR5
 40
0.0
  9
$WORLDVIEW
 70
1
  9
$SHADEDGE
 70
3
  9
$SHADEDIF
 70
70
  9
$TILEMODE
 70
1
  9
$MAXACTVP
 70
64
  9
$PINSBASE
 10
0.0
 20
0.0
 30
0.0
  9
$PLIMCHECK
 70
0
  9
$PEXTMIN
 10
1e+20
 20
1e+20
 30
1e+20
  9
$PEXTMAX
 10
-1e+20
 20
-1e+20
 30
-1e+20
  9
$PLIMMIN
 10
0.0
 20
0.0
  9
$PLIMMAX
 10
420.0
 20
297.0
  9
$UNITMODE
 70
0
  9
$VISRETAIN
 70
1
  9
$PLINEGEN
 70
0
  9
$PSLTSCALE
 70
1
  9
$TREEDEPTH
 70
3020
  9
$CMLSTYLE
  2
Standard
  9
$CMLJUST
 70
0
  9
$CMLSCALE
 40
20.0
  9
$PROXYGRAPHICS
 70
1
  9
$MEASUREMENT
 70
1
  9
$CELWEIGHT
370
-1
  9
$ENDCAPS
280
0
  9
$JOINSTYLE
280
0
  9
$LWDISPLAY
290
0
  9
$INSUNITS
 70
4
  9
$HYPERLINKBASE
  1

  9
$STYLESHEET
  1

  9
$XEDIT
290
1
  9
$CEPSNTYPE
380
0
  9
$PSTYLEMODE
290
1
  9
$FINGERPRINTGUID
  2
{698EF305-B348-4059-98C2-69B16611BC3D}
  9
$VERSIONGUID
  2
{79B10CD2-CE99-4A2E-ADA5-F4AF5D4DEF22}
  9
$EXTNAMES
290
1
  9
$PSVPSCALE
 40
0.0
  9
$OLESTARTUP
290
0
  9
$SORTENTS
280
127
  9
$INDEXCTL
280
0
  9
$HIDETEXT
280
1
  9
$XCLIPFRAME
280
1
  9
$HALOGAP
280
0
  9
$OBSCOLOR
 70
257
  9
$OBSLTYPE
280
0
  9
$INTERSECTIONDISPLAY
280
0
  9
$INTERSECTIONCOLOR
 70
257
  9
$DIMASSOC
280
2
  9
$PROJECTNAME
  1

  9
$CAMERADISPLAY
290
0
  9
$LENSLENGTH
 40
50.0
  9
$CAMERAHEIGHT
 40
0.0
  9
$STEPSPERSEC
 40
24.0
  9
$STEPSIZE
 40
100.0
  9
$3DDWFPREC
 40
2.0
  9
$PSOLWIDTH
 40
0.005
  9
$PSOLHEIGHT
 40
0.08
  9
$LOFTANG1
 40
1.570796326795
  9
$LOFTANG2
 40
1.570796326795
  9
$LOFTMAG1
 40
0.0
  9
$LOFTMAG2
 40
0.0
  9
$LOFTPARAM
 70
7
  9
$LOFTNORMALS
280
1
  9
$LATITUDE
 40
37.795
  9
$LONGITUDE
 40
-122.394
  9
$NORTHDIRECTION
 40
0.0
  9
$TIMEZONE
 70
-8000
  9
$LIGHTGLYPHDISPLAY
280
1
  9
$TILEMODELIGHTSYNCH
280
1
  9
$CMATERIAL
347
20
  9
$SOLIDHIST
280
0
  9
$SHOWHIST
280
1
  9
$DWFFRAME
280
2
  9
$DGNFRAME
280
2
  9
$REALWORLDSCALE
290
1
  9
$INTERFERECOLOR
 62
256
  9
$CSHADOW
280
0
  9
$SHADOWPLANELOCATION
 40
0.0
  0
ENDSEC
  0
SECTION
  2
CLASSES
  0
CLASS
  1
ACDBDICTIONARYWDFLT
  2
AcDbDictionaryWithDefault
  3
ObjectDBX Classes
 90
0
 91
0
280
0
281
0
  0
CLASS
  1
SUN
  2
AcDbSun
  3
SCENEOE
 90
1153
 91
0
280
0
281
0
  0
CLASS
  1
VISUALSTYLE
  2
AcDbVisualStyle
  3
ObjectDBX Classes
 90
4095
 91
0
280
0
281
0
  0
CLASS
  1
MATERIAL
  2
AcDbMaterial
  3
ObjectDBX Classes
 90
1153
 91
0
280
0
281
0
  0
CLASS
  1
SCALE
  2
AcDbScale
  3
ObjectDBX Classes
 90
1153
 91
0
280
0
281
0
  0
CLASS
  1
TABLESTYLE
  2
AcDbTableStyle
  3
ObjectDBX Classes
 90
4095
 91
0
280
0
281
0
  0
CLASS
  1
MLEADERSTYLE
  2
AcDbMLeaderStyle
  3
ACDB_MLEADERSTYLE_CLASS
 90
4095
 91
0
280
0
281
0
  0
CLASS
  1
DICTIONARYVAR
  2
AcDbDictionaryVar
  3
ObjectDBX Classes
 90
0
 91
0
280
0
281
0
  0
CLASS
  1
CELLSTYLEMAP
  2
AcDbCellStyleMap
  3
ObjectDBX Classes
 90
1152
 91
0
280
0
281
0
  0
CLASS
  1
MENTALRAYRENDERSETTINGS
  2
AcDbMentalRayRenderSettings
  3
SCENEOE
 90
1024
 91
0
280
0
281
0
  0
CLASS
  1
ACDBDETAILVIEWSTYLE
  2
AcDbDetailViewStyle
  3
ObjectDBX Classes
 90
1025
 91
0
280
0
281
0
  0
CLASS
  1
ACDBSECTIONVIEWSTYLE
  2
AcDbSectionViewStyle
  3
ObjectDBX Classes
 90
1025
 91
0
280
0
281
0
  0
CLASS
  1
RASTERVARIABLES
  2
AcDbRasterVariables
  3
ISM
 90
0
 91
0
280
0
281
0
  0
CLASS
  1
ACDBPLACEHOLDER
  2
AcDbPlaceHolder
  3
ObjectDBX Classes
 90
0
 91
0
280
0
281
0
  0
CLASS
  1
LAYOUT
  2
AcDbLayout
  3
ObjectDBX Classes
 90
0
 91
0
280
0
281
0
  0
ENDSEC
  0
SECTION
  2
TABLES
  0
TABLE
  2
VPORT
  5
8
330
0
100
AcDbSymbolTable
 70
1
  0
VPORT
  5
23
330
8
100
AcDbSymbolTableRecord
100
AcDbViewportTableRecord
  2
*Active
 70
0
 10
0.0
 20
0.0
 11
1.0
 21
1.0
 12
0.0
 22
0.0
 13
0.0
 23
0.0
 14
0.5
 24
0.5
 15
0.5
 25
0.5
 16
0.0
 26
0.0
 36
1.0
 17
0.0
 27
0.0
 37
0.0
 40
1000.0
 41
1.34
 42
50.0
 43
0.0
 44
0.0
 50
0.0
 51
0.0
 71
0
 72
1000
 73
1
 74
3
 75
0
 76
0
 77
0
 78
0
281
0
 65
0
146
0.0
  0
ENDTAB
  0
TABLE
  2
LTYPE
  5
2
330
0
100
AcDbSymbolTable
 70
21
  0
LTYPE
  5
24
330
2
100
AcDbSymbolTableRecord
100
AcDbLinetypeTableRecord
  2
ByBlock
 70
0
  3

 72
65
 73
0
 40
0.0
  0
LTYPE
  5
25
330
2
100
AcDbSymbolTableRecord
100
AcDbLinetypeTableRecord
  2
ByLayer
 70
0
  3

 72
65
 73
0
 40
0.0
  0
LTYPE
  5
26
330
2
100
AcDbSymbolTableRecord
100
AcDbLinetypeTableRecord
  2
Continuous
 70
0
  3

 72
65
 73
0
 40
0.0
  0
LTYPE
  5
2F
330
2
100
AcDbSymbolTableRecord
100
AcDbLinetypeTableRecord
  2
CENTER
 70
0
  3
Center ____ _ ____ _ ____ _ ____ _ ____ _ ____
 72
65
 73
4
 40
5.08
 49
3.175
 74
0
 49
-0.635
 74
0
 49
0.635
 74
0
 49
-0.635
 74
0
  0
LTYPE
  5
30
330
2
100
AcDbSymbolTableRecord
100
AcDbLinetypeTableRecord
  2
CENTERX2
 70
0
  3
Center (2x) ________  __  ________  __  ________
 72
65
 73
4
 40
8.89
 49
6.35
 74
0
 49
-0.635
 74
0
 49
1.27
 74
0
 49
-0.635
 74
0
  0
LTYPE
  5
31
330
2
100
AcDbSymbolTableRecord
100
AcDbLinetypeTableRecord
  2
CENTER2
 70
0
  3
Center (.5x) ____ _ ____ _ ____ _ ____ _ ____
 72
65
 73
4
 40
2.54
 49
1.587
 74
0
 49
-0.318
 74
0
 49
0.318
 74
0
 49
-0.318
 74
0
  0
LTYPE
  5
32
330
2
100
AcDbSymbolTableRecord
100
AcDbLinetypeTableRecord
  2
DASHED
 70
0
  3
Dashed __ __ __ __ __ __ __ __ __ __ __ __ __ _
 72
65
 73
2
 40
1.524
 49
1.27
 74
0
 49
-0.254
 74
0
  0
LTYPE
  5
33
330
2
100
AcDbSymbolTableRecord
100
AcDbLinetypeTableRecord
  2
DASHEDX2
 70
0
  3
Dashed (2x) ____  ____  ____  ____  ____  ____
 72
65
 73
2
 40
3.048
 49
2.54
 74
0
 49
-0.508
 74
0
  0
LTYPE
  5
34
330
2
100
AcDbSymbolTableRecord
100
AcDbLinetypeTableRecord
  2
DASHED2
 70
0
  3
Dashed (.5x) _ _ _ _ _ _ _ _ _ _ _ _ _ _
 72
65
 73
2
 40
0.762
 49
0.635
 74
0
 49
-0.127
 74
0
  0
LTYPE
  5
35
330
2
100
AcDbSymbolTableRecord
100
AcDbLinetypeTableRecord
  2
PHANTOM
 70
0
  3
Phantom ______  __  __  ______  __  __  ______
 72
65
 73
6
 40
6.35
 49
3.175
 74
0
 49
-0.635
 74
0
 49
0.635
 74
0
 49
-0.635
 74
0
 49
0.635
 74
0
 49
-0.635
 74
0
  0
LTYPE
  5
36
330
2
100
AcDbSymbolTableRecord
100
AcDbLinetypeTableRecord
  2
PHANTOMX2
 70
0
  3
Phantom (2x)____________    ____    ____    ____________
 72
65
 73
6
 40
10.795
 49
6.35
 74
0
 49
-0.635
 74
0
 49
1.27
 74
0
 49
-0.635
 74
0
 49
1.27
 74
0
 49
-0.635
 74
0
  0
LTYPE
  5
37
330
2
100
AcDbSymbolTableRecord
100
AcDbLinetypeTableRecord
  2
PHANTOM2
 70
0
  3
Phantom (.5x) ___ _ _ ___ _ _ ___ _ _ ___ _ _ ___
 72
65
 73
6
 40
3.175
 49
1.587
 74
0
 49
-0.318
 74
0
 49
0.318
 74
0
 49
-0.318
 74
0
 49
0.318
 74
0
 49
-0.318
 74
0
  0
LTYPE
  5
38
330
2
100
AcDbSymbolTableRecord
100
AcDbLinetypeTableRecord
  2
DASHDOT
 70
0
  3
Dash dot __ . __ . __ . __ . __ . __ . __ . __
 72
65
 73
4
 40
3.556
 49
2.54
 74
0
 49
-0.508
 74
0
 49
0.0
 74
0
 49
-0.508
 74
0
  0
LTYPE
  5
39
330
2
100
AcDbSymbolTableRecord
100
AcDbLinetypeTableRecord
  2
DASHDOTX2
 70
0
  3
Dash dot (2x) ____  .  ____  .  ____  .  ____
 72
65
 73
4
 40
6.096
 49
5.08
 74
0
 49
-0.508
 74
0
 49
0.0
 74
0
 49
-0.508
 74
0
  0
LTYPE
  5
3A
330
2
100
AcDbSymbolTableRecord
100
AcDbLinetypeTableRecord
  2
DASHDOT2
 70
0
  3
Dash dot (.5x) _ . _ . _ . _ . _ . _ . _ . _
 72
65
 73
4
 40
1.778
 49
1.27
 74
0
 49
-0.254
 74
0
 49
0.0
 74
0
 49
-0.254
 74
0
  0
LTYPE
  5
3B
330
2
100
AcDbSymbolTableRecord
100
AcDbLinetypeTableRecord
  2
DOT
 70
0
  3
Dot .  .  .  .  .  .  .  .  .  .  .  .  .  .  .  .
 72
65
 73
2
 40
0.508
 49
0.0
 74
0
 49
-0.508
 74
0
  0
LTYPE
  5
3C
330
2
100
AcDbSymbolTableRecord
100
AcDbLinetypeTableRecord
  2
DOTX2
 70
0
  3
Dot (2x) .    .    .    .    .    .    .    . 
 72
65
 73
2
 40
1.016
 49
0.0
 74
0
 49
-1.016
 74
0
  0
LTYPE
  5
3D
330
2
100
AcDbSymbolTableRecord
100
AcDbLinetypeTableRecord
  2
DOT2
 70
0
  3
Dot (.5) . . . . . . . . . . . . . . . . . . . 
 72
65
 73
2
 40
0.254
 49
0.0
 74
0
 49
-0.254
 74
0
  0
LTYPE
  5
3E
330
2
100
AcDbSymbolTableRecord
100
AcDbLinetypeTableRecord
  2
DIVIDE
 70
0
  3
Divide __ . . __ . . __ . . __ . . __ . . __
 72
65
 73
6
 40
4.064
 49
2.54
 74
0
 49
-0.508
 74
0
 49
0.0
 74
0
 49
-0.508
 74
0
 49
0.0
 74
0
 49
-0.508
 74
0
  0
LTYPE
  5
3F
330
2
100
AcDbSymbolTableRecord
100
AcDbLinetypeTableRecord
  2
DIVIDEX2
 70
0
  3
Divide (2x) ____  . .  ____  . .  ____  . .  ____
 72
65
 73
6
 40
6.604
 49
5.08
 74
0
 49
-0.508
 74
0
 49
0.0
 74
0
 49
-0.508
 74
0
 49
0.0
 74
0
 49
-0.508
 74
0
  0
LTYPE
  5
40
330
2
100
AcDbSymbolTableRecord
100
AcDbLinetypeTableRecord
  2
DIVIDE2
 70
0
  3
Divide(.5x) _ . _ . _ . _ . _ . _ . _ . _
 72
65
 73
6
 40
2.032
 49
1.27
 74
0
 49
-0.254
 74
0
 49
0.0
 74
0
 49
-0.254
 74
0
 49
0.0
 74
0
 49
-0.254
 74
0
  0
ENDTAB
  0
TABLE
  2
LAYER
  5
1
330
0
100
AcDbSymbolTable
 70
16
  0
LAYER
  5
27
330
1
100
AcDbSymbolTableRecord
100
AcDbLayerTableRecord
  2
0
 70
0
 62
7
  6
Continuous
370
-3
390
13
347
21
  0
LAYER
  5
28
330
1
100
AcDbSymbolTableRecord
100
AcDbLayerTableRecord
  2
Defpoints
 70
0
 62
7
  6
Continuous
290
0
370
-3
390
13
347
21
  0
LAYER
  5
8B
330
1
100
AcDbSymbolTableRecord
100
AcDbLayerTableRecord
  2
FRAME
 70
0
 62
7
  6
CONTINUOUS
370
-3
390
13
347
21
  0
LAYER
  5
8C
330
1
100
AcDbSymbolTableRecord
100
AcDbLayerTableRecord
  2
AR-WALLS
 70
0
 62
7
  6
CONTINUOUS
370
-3
390
13
347
21
  0
LAYER
  5
8D
330
1
100
AcDbSymbolTableRecord
100
AcDbLayerTableRecord
  2
AR-NEW
 70
0
 62
5
  6
CONTINUOUS
370
-3
390
13
347
21
  0
LAYER
  5
8E
330
1
100
AcDbSymbolTableRecord
100
AcDbLayerTableRecord
  2
AR-DEMO
 70
0
 62
1
  6
DASHED
370
-3
390
13
347
21
  0
LAYER
  5
8F
330
1
100
AcDbSymbolTableRecord
100
AcDbLayerTableRecord
  2
FURN
 70
0
 62
8
  6
CONTINUOUS
370
-3
390
13
347
21
  0
LAYER
  5
90
330
1
100
AcDbSymbolTableRecord
100
AcDbLayerTableRecord
  2
EL-LIGHT
 70
0
 62
30
  6
CONTINUOUS
370
-3
390
13
347
21
  0
LAYER
  5
91
330
1
100
AcDbSymbolTableRecord
100
AcDbLayerTableRecord
  2
EL-SOCKET
 70
0
 62
6
  6
CONTINUOUS
370
-3
390
13
347
21
  0
LAYER
  5
92
330
1
100
AcDbSymbolTableRecord
100
AcDbLayerTableRecord
  2
EL-LOW
 70
0
 62
3
  6
CONTINUOUS
370
-3
390
13
347
21
  0
LAYER
  5
93
330
1
100
AcDbSymbolTableRecord
100
AcDbLayerTableRecord
  2
VK
 70
0
 62
4
  6
CONTINUOUS
370
-3
390
13
347
21
  0
LAYER
  5
94
330
1
100
AcDbSymbolTableRecord
100
AcDbLayerTableRecord
  2
OV
 70
0
 62
3
  6
CONTINUOUS
370
-3
390
13
347
21
  0
LAYER
  5
95
330
1
100
AcDbSymbolTableRecord
100
AcDbLayerTableRecord
  2
DIM
 70
0
 62
7
  6
CONTINUOUS
370
-3
390
13
347
21
  0
LAYER
  5
96
330
1
100
AcDbSymbolTableRecord
100
AcDbLayerTableRecord
  2
TEXT
 70
0
 62
7
  6
CONTINUOUS
370
-3
390
13
347
21
  0
LAYER
  5
97
330
1
100
AcDbSymbolTableRecord
100
AcDbLayerTableRecord
  2
AR-FIN
 70
0
 62
9
  6
CONTINUOUS
370
-3
390
13
347
21
  0
LAYER
  5
98
330
1
100
AcDbSymbolTableRecord
100
AcDbLayerTableRecord
  2
BASE
 70
0
 62
9
  6
CONTINUOUS
370
-3
390
13
347
21
  0
ENDTAB
  0
TABLE
  2
STYLE
  5
5
330
0
100
AcDbSymbolTable
 70
27
  0
STYLE
  5
29
330
5
100
AcDbSymbolTableRecord
100
AcDbTextStyleTableRecord
  2
Standard
 70
0
 40
0.0
 41
1.0
 50
0.0
 71
0
 42
2.5
  3
DejaVuSans.ttf
  4

  0
STYLE
  5
41
330
5
100
AcDbSymbolTableRecord
100
AcDbTextStyleTableRecord
  2
OpenSans-Light
 70
0
 40
0.0
 41
1.0
 50
0.0
 71
0
 42
2.5
  3
OpenSans-Light.ttf
  4

  0
STYLE
  5
42
330
5
100
AcDbSymbolTableRecord
100
AcDbTextStyleTableRecord
  2
OpenSans-Light-Italic
 70
0
 40
0.0
 41
1.0
 50
0.0
 71
0
 42
2.5
  3
OpenSans-LightItalic.ttf
  4

  0
STYLE
  5
43
330
5
100
AcDbSymbolTableRecord
100
AcDbTextStyleTableRecord
  2
OpenSans
 70
0
 40
0.0
 41
1.0
 50
0.0
 71
0
 42
2.5
  3
OpenSans-Regular.ttf
  4

  0
STYLE
  5
44
330
5
100
AcDbSymbolTableRecord
100
AcDbTextStyleTableRecord
  2
OpenSans-Italic
 70
0
 40
0.0
 41
1.0
 50
0.0
 71
0
 42
2.5
  3
OpenSans-Italic.ttf
  4

  0
STYLE
  5
45
330
5
100
AcDbSymbolTableRecord
100
AcDbTextStyleTableRecord
  2
OpenSans-SemiBold
 70
0
 40
0.0
 41
1.0
 50
0.0
 71
0
 42
2.5
  3
OpenSans-SemiBold.ttf
  4

  0
STYLE
  5
46
330
5
100
AcDbSymbolTableRecord
100
AcDbTextStyleTableRecord
  2
OpenSans-SemiBoldItalic
 70
0
 40
0.0
 41
1.0
 50
0.0
 71
0
 42
2.5
  3
OpenSans-SemiBoldItalic.ttf
  4

  0
STYLE
  5
47
330
5
100
AcDbSymbolTableRecord
100
AcDbTextStyleTableRecord
  2
OpenSans-Bold
 70
0
 40
0.0
 41
1.0
 50
0.0
 71
0
 42
2.5
  3
OpenSans-Bold.ttf
  4

  0
STYLE
  5
48
330
5
100
AcDbSymbolTableRecord
100
AcDbTextStyleTableRecord
  2
OpenSans-BoldItalic
 70
0
 40
0.0
 41
1.0
 50
0.0
 71
0
 42
2.5
  3
OpenSans-BoldItalic.ttf
  4

  0
STYLE
  5
49
330
5
100
AcDbSymbolTableRecord
100
AcDbTextStyleTableRecord
  2
OpenSans-ExtraBold
 70
0
 40
0.0
 41
1.0
 50
0.0
 71
0
 42
2.5
  3
OpenSans-ExtraBold.ttf
  4

  0
STYLE
  5
4A
330
5
100
AcDbSymbolTableRecord
100
AcDbTextStyleTableRecord
  2
OpenSans-ExtraBoldItalic
 70
0
 40
0.0
 41
1.0
 50
0.0
 71
0
 42
2.5
  3
OpenSans-ExtraBoldItalic.ttf
  4

  0
STYLE
  5
4B
330
5
100
AcDbSymbolTableRecord
100
AcDbTextStyleTableRecord
  2
OpenSansCondensed-Bold
 70
0
 40
0.0
 41
1.0
 50
0.0
 71
0
 42
2.5
  3
OpenSansCondensed-Bold.ttf
  4

  0
STYLE
  5
4C
330
5
100
AcDbSymbolTableRecord
100
AcDbTextStyleTableRecord
  2
OpenSansCondensed-Light
 70
0
 40
0.0
 41
1.0
 50
0.0
 71
0
 42
2.5
  3
OpenSansCondensed-Light.ttf
  4

  0
STYLE
  5
4D
330
5
100
AcDbSymbolTableRecord
100
AcDbTextStyleTableRecord
  2
OpenSansCondensed-Italic
 70
0
 40
0.0
 41
1.0
 50
0.0
 71
0
 42
2.5
  3
OpenSansCondensed-LightItalic.ttf
  4

  0
STYLE
  5
4E
330
5
100
AcDbSymbolTableRecord
100
AcDbTextStyleTableRecord
  2
LiberationSans
 70
0
 40
0.0
 41
1.0
 50
0.0
 71
0
 42
2.5
  3
LiberationSans-Regular.ttf
  4

  0
STYLE
  5
4F
330
5
100
AcDbSymbolTableRecord
100
AcDbTextStyleTableRecord
  2
LiberationSans-Bold
 70
0
 40
0.0
 41
1.0
 50
0.0
 71
0
 42
2.5
  3
LiberationSans-Bold.ttf
  4

  0
STYLE
  5
50
330
5
100
AcDbSymbolTableRecord
100
AcDbTextStyleTableRecord
  2
LiberationSans-BoldItalic
 70
0
 40
0.0
 41
1.0
 50
0.0
 71
0
 42
2.5
  3
LiberationSans-BoldItalic.ttf
  4

  0
STYLE
  5
51
330
5
100
AcDbSymbolTableRecord
100
AcDbTextStyleTableRecord
  2
LiberationSans-Italic
 70
0
 40
0.0
 41
1.0
 50
0.0
 71
0
 42
2.5
  3
LiberationSans-Italic.ttf
  4

  0
STYLE
  5
52
330
5
100
AcDbSymbolTableRecord
100
AcDbTextStyleTableRecord
  2
LiberationSerif
 70
0
 40
0.0
 41
1.0
 50
0.0
 71
0
 42
2.5
  3
LiberationSerif-Regular.ttf
  4

  0
STYLE
  5
53
330
5
100
AcDbSymbolTableRecord
100
AcDbTextStyleTableRecord
  2
LiberationSerif-Bold
 70
0
 40
0.0
 41
1.0
 50
0.0
 71
0
 42
2.5
  3
LiberationSerif-Bold.ttf
  4

  0
STYLE
  5
54
330
5
100
AcDbSymbolTableRecord
100
AcDbTextStyleTableRecord
  2
LiberationSerif-BoldItalic
 70
0
 40
0.0
 41
1.0
 50
0.0
 71
0
 42
2.5
  3
LiberationSerif-BoldItalic.ttf
  4

  0
STYLE
  5
55
330
5
100
AcDbSymbolTableRecord
100
AcDbTextStyleTableRecord
  2
LiberationSerif-Italic
 70
0
 40
0.0
 41
1.0
 50
0.0
 71
0
 42
2.5
  3
LiberationSerif-Italic.ttf
  4

  0
STYLE
  5
56
330
5
100
AcDbSymbolTableRecord
100
AcDbTextStyleTableRecord
  2
LiberationMono
 70
0
 40
0.0
 41
1.0
 50
0.0
 71
0
 42
2.5
  3
LiberationMono-Regular.ttf
  4

  0
STYLE
  5
57
330
5
100
AcDbSymbolTableRecord
100
AcDbTextStyleTableRecord
  2
LiberationMono-Bold
 70
0
 40
0.0
 41
1.0
 50
0.0
 71
0
 42
2.5
  3
LiberationMono-Bold.ttf
  4

  0
STYLE
  5
58
330
5
100
AcDbSymbolTableRecord
100
AcDbTextStyleTableRecord
  2
LiberationMono-BoldItalic
 70
0
 40
0.0
 41
1.0
 50
0.0
 71
0
 42
2.5
  3
LiberationMono-BoldItalic.ttf
  4

  0
STYLE
  5
59
330
5
100
AcDbSymbolTableRecord
100
AcDbTextStyleTableRecord
  2
LiberationMono-Italic
 70
0
 40
0.0
 41
1.0
 50
0.0
 71
0
 42
2.5
  3
LiberationMono-Italic.ttf
  4

  0
STYLE
  5
8A
330
5
100
AcDbSymbolTableRecord
100
AcDbTextStyleTableRecord
  2
GOST
 70
0
 40
0.0
 41
1.0
 50
0.0
 71
0
 42
2.5
  3
DejaVuSans.ttf
  4

  0
ENDTAB
  0
TABLE
  2
VIEW
  5
7
330
0
100
AcDbSymbolTable
 70
0
  0
ENDTAB
  0
TABLE
  2
UCS
  5
6
330
0
100
AcDbSymbolTable
 70
0
  0
ENDTAB
  0
TABLE
  2
APPID
  5
3
330
0
100
AcDbSymbolTable
 70
3
  0
APPID
  5
2A
330
3
100
AcDbSymbolTableRecord
100
AcDbRegAppTableRecord
  2
ACAD
 70
0
  0
APPID
  5
279
330
3
100
AcDbSymbolTableRecord
100
AcDbRegAppTableRecord
  2
HATCHBACKGROUNDCOLOR
 70
0
  0
APPID
  5
27A
330
3
100
AcDbSymbolTableRecord
100
AcDbRegAppTableRecord
  2
EZDXF
 70
0
  0
ENDTAB
  0
TABLE
  2
DIMSTYLE
  5
4
330
0
100
AcDbSymbolTable
 70
12
100
AcDbDimStyleTable
  0
DIMSTYLE
105
2B
330
4
100
AcDbSymbolTableRecord
100
AcDbDimStyleTableRecord
  2
Standard
 70
0
 40
1.0
 41
2.5
 42
0.625
 43
3.75
 44
1.25
 45
0.0
 46
0.0
 47
0.0
 48
0.0
 49
2.5
140
2.5
141
2.5
142
0.0
143
0.03937007874
144
1.0
145
0.0
146
1.0
147
0.625
148
0.0
 69
0
 70
0
 71
0
 72
0
 73
0
 74
0
 75
0
 76
0
 77
1
 78
8
 79
3
170
0
171
3
172
1
173
0
174
0
175
0
176
0
177
0
178
0
179
2
271
2
272
2
273
2
274
3
275
0
276
0
277
2
278
44
279
0
280
0
281
0
282
0
283
0
284
8
285
0
286
0
288
0
289
3
290
0
371
-2
372
-2
  0
DIMSTYLE
105
73
330
4
100
AcDbSymbolTableRecord
100
AcDbDimStyleTableRecord
  2
EZDXF
 70
0
 40
1.0
 41
0.175
 42
0.125
 43
3.75
 44
0.375
 45
0.0
 46
0.0
 47
0.0
 48
0.0
 49
2.5
140
0.25
141
2.5
142
0.0
143
0.03937007874
144
100.0
145
0.0
146
0.5
147
0.1
148
0.0
 69
0
 70
0
 71
0
 72
0
 73
0
 74
0
 75
0
 76
0
 77
1
 78
12
 79
3
170
0
171
3
172
1
173
0
174
0
175
0
176
0
177
0
178
0
179
2
271
2
272
2
273
2
274
3
275
0
276
0
277
2
278
46
279
2
280
0
281
0
282
0
283
0
284
8
285
0
286
0
288
1
289
3
290
0
340
4C
342
74
371
-2
372
-2
  0
DIMSTYLE
105
7C
330
4
100
AcDbSymbolTableRecord
100
AcDbDimStyleTableRecord
  2
EZ_M_100_H25_CM
 70
0
 40
1.0
 41
0.25
 42
0.125
 43
3.75
 44
0.375
 45
0.0
 46
0.0
 47
0.0
 48
0.0
 49
2.5
140
0.25
141
2.5
142
0.125
143
0.03937007874
144
100.0
145
0.0
146
0.5
147
0.1
148
0.0
 69
0
 70
0
 71
0
 72
0
 73
0
 74
0
 75
0
 76
0
 77
1
 78
12
 79
3
170
0
171
3
172
1
173
0
174
0
175
0
176
0
177
0
178
0
179
2
271
2
272
2
273
2
274
3
275
0
276
0
277
2
278
46
279
2
280
0
281
0
282
0
283
0
284
8
285
0
286
0
288
1
289
3
290
0
340
4C
371
-2
372
-2
  0
DIMSTYLE
105
7D
330
4
100
AcDbSymbolTableRecord
100
AcDbDimStyleTableRecord
  2
EZ_M_50_H25_CM
 70
0
 40
1.0
 41
0.125
 42
0.0625
 43
3.75
 44
0.1875
 45
0.0
 46
0.0
 47
0.0
 48
0.0
 49
2.5
140
0.125
141
2.5
142
0.0625
143
0.03937007874
144
100.0
145
0.0
146
0.5
147
0.05
148
0.0
 69
0
 70
0
 71
0
 72
0
 73
0
 74
0
 75
0
 76
0
 77
1
 78
12
 79
3
170
0
171
3
172
1
173
0
174
0
175
0
176
0
177
0
178
0
179
2
271
2
272
2
273
2
274
3
275
0
276
0
277
2
278
46
279
2
280
0
281
0
282
0
283
0
284
8
285
0
286
0
288
1
289
3
290
0
340
4C
371
-2
372
-2
  0
DIMSTYLE
105
7E
330
4
100
AcDbSymbolTableRecord
100
AcDbDimStyleTableRecord
  2
EZ_M_25_H25_CM
 70
0
 40
1.0
 41
0.0625
 42
0.03125
 43
3.75
 44
0.09375
 45
0.0
 46
0.0
 47
0.0
 48
0.0
 49
2.5
140
0.0625
141
2.5
142
0.03125
143
0.03937007874
144
100.0
145
0.0
146
0.5
147
0.025
148
0.0
 69
0
 70
0
 71
0
 72
0
 73
0
 74
0
 75
0
 76
0
 77
1
 78
12
 79
3
170
0
171
3
172
1
173
0
174
0
175
0
176
0
177
0
178
0
179
2
271
2
272
2
273
2
274
3
275
0
276
0
277
2
278
46
279
2
280
0
281
0
282
0
283
0
284
8
285
0
286
0
288
1
289
3
290
0
340
4C
371
-2
372
-2
  0
DIMSTYLE
105
7F
330
4
100
AcDbSymbolTableRecord
100
AcDbDimStyleTableRecord
  2
EZ_M_20_H25_CM
 70
0
 40
1.0
 41
0.05
 42
0.025
 43
3.75
 44
0.07500000000000001
 45
0.0
 46
0.0
 47
0.0
 48
0.0
 49
2.5
140
0.05
141
2.5
142
0.025
143
0.03937007874
144
100.0
145
0.0
146
0.5
147
0.020000000000000004
148
0.0
 69
0
 70
0
 71
0
 72
0
 73
0
 74
0
 75
0
 76
0
 77
1
 78
12
 79
3
170
0
171
3
172
1
173
0
174
0
175
0
176
0
177
0
178
0
179
2
271
2
272
2
273
2
274
3
275
0
276
0
277
2
278
46
279
2
280
0
281
0
282
0
283
0
284
8
285
0
286
0
288
1
289
3
290
0
340
4C
371
-2
372
-2
  0
DIMSTYLE
105
80
330
4
100
AcDbSymbolTableRecord
100
AcDbDimStyleTableRecord
  2
EZ_M_10_H25_CM
 70
0
 40
1.0
 41
0.025
 42
0.0125
 43
3.75
 44
0.037500000000000006
 45
0.0
 46
0.0
 47
0.0
 48
0.0
 49
2.5
140
0.025
141
2.5
142
0.0125
143
0.03937007874
144
100.0
145
0.0
146
0.5
147
0.010000000000000002
148
0.0
 69
0
 70
0
 71
0
 72
0
 73
0
 74
0
 75
0
 76
0
 77
1
 78
12
 79
3
170
0
171
3
172
1
173
0
174
0
175
0
176
0
177
0
178
0
179
2
271
2
272
2
273
2
274
3
275
0
276
0
277
2
278
46
279
2
280
0
281
0
282
0
283
0
284
8
285
0
286
0
288
1
289
3
290
0
340
4C
371
-2
372
-2
  0
DIMSTYLE
105
81
330
4
100
AcDbSymbolTableRecord
100
AcDbDimStyleTableRecord
  2
EZ_M_5_H25_CM
 70
0
 40
1.0
 41
0.0125
 42
0.00625
 43
3.75
 44
0.018750000000000003
 45
0.0
 46
0.0
 47
0.0
 48
0.0
 49
2.5
140
0.0125
141
2.5
142
0.00625
143
0.03937007874
144
100.0
145
0.0
146
0.5
147
0.005000000000000001
148
0.0
 69
0
 70
0
 71
0
 72
0
 73
0
 74
0
 75
0
 76
0
 77
1
 78
12
 79
3
170
0
171
3
172
1
173
0
174
0
175
0
176
0
177
0
178
0
179
2
271
2
272
2
273
2
274
3
275
0
276
0
277
2
278
46
279
2
280
0
281
0
282
0
283
0
284
8
285
0
286
0
288
1
289
3
290
0
340
4C
371
-2
372
-2
  0
DIMSTYLE
105
82
330
4
100
AcDbSymbolTableRecord
100
AcDbDimStyleTableRecord
  2
EZ_M_1_H25_CM
 70
0
 40
1.0
 41
0.0025
 42
0.00125
 43
3.75
 44
0.00375
 45
0.0
 46
0.0
 47
0.0
 48
0.0
 49
2.5
140
0.0025
141
2.5
142
0.00125
143
0.03937007874
144
100.0
145
0.0
146
0.5
147
0.001
148
0.0
 69
0
 70
0
 71
0
 72
0
 73
0
 74
0
 75
0
 76
0
 77
1
 78
12
 79
3
170
0
171
3
172
1
173
0
174
0
175
0
176
0
177
0
178
0
179
2
271
2
272
2
273
2
274
3
275
0
276
0
277
2
278
46
279
2
280
0
281
0
282
0
283
0
284
8
285
0
286
0
288
1
289
3
290
0
340
4C
371
-2
372
-2
  0
DIMSTYLE
105
83
330
4
100
AcDbSymbolTableRecord
100
AcDbDimStyleTableRecord
  2
EZ_RADIUS
 70
0
 40
1.0
 41
0.25
 42
0.125
 43
3.75
 44
0.375
 45
0.0
 46
0.0
 47
0.0
 48
0.0
 49
2.5
140
0.25
141
0.0
142
0.0
143
0.03937007874
144
100.0
145
0.0
146
0.5
147
0.1
148
0.0
 69
0
 70
0
 71
0
 72
0
 73
0
 74
0
 75
0
 76
0
 77
1
 78
12
 79
3
170
0
171
3
172
0
173
0
174
0
175
0
176
0
177
0
178
0
179
2
271
2
272
2
273
2
274
3
275
0
276
0
277
2
278
46
279
1
280
0
281
0
282
0
283
0
284
8
285
0
286
0
288
1
289
3
290
0
340
4C
342
84
371
-2
372
-2
  0
DIMSTYLE
105
88
330
4
100
AcDbSymbolTableRecord
100
AcDbDimStyleTableRecord
  2
EZ_RADIUS_INSIDE
 70
0
 40
1.0
 41
0.25
 42
0.125
 43
3.75
 44
0.375
 45
0.0
 46
0.0
 47
0.0
 48
0.0
 49
2.5
140
0.25
141
0.0
142
0.0
143
0.03937007874
144
100.0
145
0.0
146
0.5
147
0.1
148
0.0
 69
0
 70
0
 71
0
 72
0
 73
0
 74
0
 75
0
 76
0
 77
0
 78
12
 79
3
170
0
171
3
172
0
173
0
174
1
175
0
176
0
177
0
178
0
179
2
271
2
272
2
273
2
274
3
275
0
276
0
277
2
278
46
279
0
280
0
281
0
282
0
283
0
284
8
285
0
286
0
288
1
289
0
290
0
340
4C
342
84
371
-2
372
-2
  0
DIMSTYLE
105
89
330
4
100
AcDbSymbolTableRecord
100
AcDbDimStyleTableRecord
  2
EZ_CURVED
 70
0
 40
1.0
 41
0.25
 42
0.125
 43
3.75
 44
0.375
 45
0.0
 46
0.0
 47
0.0
 48
0.0
 49
2.5
140
0.25
141
2.5
142
0.0
143
0.03937007874
144
100.0
145
0.0
146
0.5
147
0.1
148
0.0
 69
0
 70
0
 71
0
 72
0
 73
0
 74
0
 75
0
 76
0
 77
1
 78
12
 79
2
 90
2
170
0
171
3
172
1
173
0
174
0
175
0
176
0
177
0
178
0
179
2
271
2
272
2
273
2
274
3
275
0
276
0
277
2
278
46
279
2
280
0
281
0
282
0
283
0
284
8
285
0
286
0
288
1
289
3
290
0
340
4C
371
-2
372
-2
  0
ENDTAB
  0
TABLE
  2
BLOCK_RECORD
  5
9
330
0
100
AcDbSymbolTable
 70
5
  0
BLOCK_RECORD
  5
17
330
9
100
AcDbSymbolTableRecord
100
AcDbBlockTableRecord
  2
*Model_Space
340
1A
 70
0
280
1
281
0
  0
BLOCK_RECORD
  5
1B
330
9
100
AcDbSymbolTableRecord
100
AcDbBlockTableRecord
  2
*Paper_Space
340
1E
 70
0
280
1
281
0
  0
BLOCK_RECORD
  5
74
330
9
100
AcDbSymbolTableRecord
100
AcDbBlockTableRecord
  2
_ARCHTICK
340
0
 70
0
280
1
281
0
  0
BLOCK_RECORD
  5
78
330
9
100
AcDbSymbolTableRecord
100
AcDbBlockTableRecord
  2
_CLOSEDFILLED
340
0
 70
0
280
1
281
0
  0
BLOCK_RECORD
  5
84
330
9
100
AcDbSymbolTableRecord
100
AcDbBlockTableRecord
  2
_CLOSEDBLANK
340
0
 70
0
280
1
281
0
  0
ENDTAB
  0
ENDSEC
  0
SECTION
  2
BLOCKS
  0
BLOCK
  5
18
330
17
100
AcDbEntity
  8
0
100
AcDbBlockBegin
  2
*Model_Space
 70
0
 10
0.0
 20
0.0
 30
0.0
  3
*Model_Space
  1

  0
ENDBLK
  5
19
330
17
100
AcDbEntity
  8
0
100
AcDbBlockEnd
  0
BLOCK
  5
1C
330
1B
100
AcDbEntity
  8
0
100
AcDbBlockBegin
  2
*Paper_Space
 70
0
 10
0.0
 20
0.0
 30
0.0
  3
*Paper_Space
  1

  0
ENDBLK
  5
1D
330
1B
100
AcDbEntity
  8
0
100
AcDbBlockEnd
  0
BLOCK
  5
75
330
74
100
AcDbEntity
  8
0
100
AcDbBlockBegin
  2
_ARCHTICK
 70
0
 10
0.0
 20
0.0
 30
0.0
  3
_ARCHTICK
  1

  0
LWPOLYLINE
  5
77
330
74
100
AcDbEntity
  8
0
  6
BYBLOCK
 62
0
100
AcDbPolyline
 90
2
 70
0
 43
0.15
 10
-0.5
 20
-0.5
 10
0.5
 20
0.5
  0
ENDBLK
  5
76
330
74
100
AcDbEntity
  8
0
100
AcDbBlockEnd
  0
BLOCK
  5
79
330
78
100
AcDbEntity
  8
0
100
AcDbBlockBegin
  2
_CLOSEDFILLED
 70
0
 10
0.0
 20
0.0
 30
0.0
  3
_CLOSEDFILLED
  1

  0
SOLID
  5
7B
330
78
100
AcDbEntity
  8
0
  6
BYBLOCK
 62
0
100
AcDbTrace
 10
-1.0
 20
0.16439898372402537
 30
0.0
 11
0.0
 21
0.0
 31
0.0
 12
-1.0
 22
-0.16439898372402537
 32
0.0
 13
-1.0
 23
-0.16439898372402537
 33
0.0
  0
ENDBLK
  5
7A
330
78
100
AcDbEntity
  8
0
100
AcDbBlockEnd
  0
BLOCK
  5
85
330
84
100
AcDbEntity
  8
0
100
AcDbBlockBegin
  2
_CLOSEDBLANK
 70
0
 10
0.0
 20
0.0
 30
0.0
  3
_CLOSEDBLANK
  1

  0
LWPOLYLINE
  5
87
330
84
100
AcDbEntity
  8
0
  6
BYBLOCK
 62
0
100
AcDbPolyline
 90
3
 70
1
 10
-1.0
 20
0.16439898372402537
 10
0.0
 20
0.0
 10
-1.0
 20
-0.16439898372402537
  0
ENDBLK
  5
86
330
84
100
AcDbEntity
  8
0
100
AcDbBlockEnd
  0
ENDSEC
  0
SECTION
  2
ENTITIES
  0
TEXT
  5
99
330
17
100
AcDbEntity
  8
TEXT
 62
7
100
AcDbText
 10
240.0
 20
4100.0
 30
0.0
 40
22.0
  1
Узел 7. Трап линейный низкий у облицовки VK-C1 (D18)
  7
GOST
 11
240.0
 21
4100.0
 31
0.0
100
AcDbText
  0
TEXT
  5
9A
330
17
100
AcDbEntity
  8
TEXT
420
5592405
100
AcDbText
 10
240.0
 20
4068.0
 30
0.0
 40
15.0
  1
М 1:10 (схематично, по details.md)
  7
GOST
 11
240.0
 21
4068.0
 31
0.0
100
AcDbText
  0
HATCH
  5
9B
330
17
100
AcDbEntity
  8
AR-FIN
 62
7
420
5592405
100
AcDbHatch
 10
0.0
 20
0.0
 30
0.0
210
0.0
220
0.0
230
1.0
  2
ANSI31
 70
0
 71
0
 91
1
 92
3
 72
0
 73
1
 93
4
 10
260.0
 20
3680.0
 10
1380.0
 20
3680.0
 10
1380.0
 20
3710.0
 10
260.0
 20
3710.0
 97
0
 75
1
 76
1
 52
0.0
 41
2.75
 77
0
 78
1
 53
45.0
 43
0.0
 44
0.0
 45
-6.1739260833
 46
6.1739260833
 79
0
 98
0
  0
HATCH
  5
9C
330
17
100
AcDbEntity
  8
AR-FIN
 62
7
420
14277081
440
33554559
100
AcDbHatch
 10
0.0
 20
0.0
 30
0.0
210
0.0
220
0.0
230
1.0
  2
SOLID
 70
1
 71
0
 91
1
 92
3
 72
0
 73
1
 93
4
 10
260.0
 20
3680.0
 10
1380.0
 20
3680.0
 10
1380.0
 20
3710.0
 10
260.0
 20
3710.0
 97
0
 75
1
 76
1
 98
0
  0
LWPOLYLINE
  5
9D
330
17
100
AcDbEntity
  8
AR-FIN
 62
7
370
20
100
AcDbPolyline
 90
4
 70
1
 10
260.0
 20
3680.0
 10
1380.0
 20
3680.0
 10
1380.0
 20
3710.0
 10
260.0
 20
3710.0
  0
HATCH
  5
9E
330
17
100
AcDbEntity
  8
AR-FIN
 62
7
420
7829367
100
AcDbHatch
 10
0.0
 20
0.0
 30
0.0
210
0.0
220
0.0
230
1.0
  2
DOTS
 70
0
 71
0
 91
1
 92
3
 72
0
 73
1
 93
4
 10
260.0
 20
3710.0
 10
1380.0
 20
3710.0
 10
1380.0
 20
3790.0
 10
260.0
 20
3790.0
 97
0
 75
1
 76
1
 52
0.0
 41
5.5
 77
0
 78
1
 53
0.0
 43
0.0
 44
0.0
 45
4.365625
 46
8.73125
 79
2
 49
0.0
 49
-8.73125
 98
0
  0
HATCH
  5
9F
330
17
100
AcDbEntity
  8
AR-FIN
 62
7
420
15000804
440
33554559
100
AcDbHatch
 10
0.0
 20
0.0
 30
0.0
210
0.0
220
0.0
230
1.0
  2
SOLID
 70
1
 71
0
 91
1
 92
3
 72
0
 73
1
 93
4
 10
260.0
 20
3710.0
 10
1380.0
 20
3710.0
 10
1380.0
 20
3790.0
 10
260.0
 20
3790.0
 97
0
 75
1
 76
1
 98
0
  0
LWPOLYLINE
  5
A0
330
17
100
AcDbEntity
  8
AR-FIN
 62
7
370
20
100
AcDbPolyline
 90
4
 70
1
 10
260.0
 20
3710.0
 10
1380.0
 20
3710.0
 10
1380.0
 20
3790.0
 10
260.0
 20
3790.0
  0
LWPOLYLINE
  5
A1
330
17
100
AcDbEntity
  8
AR-FIN
370
40
420
3049153
100
AcDbPolyline
 90
2
 70
0
 10
260.0
 20
3791.5
 10
1260.0
 20
3791.5
  0
HATCH
  5
A2
330
17
100
AcDbEntity
  8
AR-FIN
 62
7
420
10066329
100
AcDbHatch
 10
0.0
 20
0.0
 30
0.0
210
0.0
220
0.0
230
1.0
  2
DOTS
 70
0
 71
0
 91
1
 92
3
 72
0
 73
1
 93
4
 10
360.0
 20
3791.5
 10
1095.0
 20
3791.5
 10
1095.0
 20
3858.6000000000004
 10
360.0
 20
3870.0
 97
0
 75
1
 76
1
 52
0.0
 41
5.5
 77
0
 78
1
 53
0.0
 43
0.0
 44
0.0
 45
4.365625
 46
8.73125
 79
2
 49
0.0
 49
-8.73125
 98
0
  0
HATCH
  5
A3
330
17
100
AcDbEntity
  8
AR-FIN
 62
7
420
15527148
440
33554559
100
AcDbHatch
 10
0.0
 20
0.0
 30
0.0
210
0.0
220
0.0
230
1.0
  2
SOLID
 70
1
 71
0
 91
1
 92
3
 72
0
 73
1
 93
4
 10
360.0
 20
3791.5
 10
1095.0
 20
3791.5
 10
1095.0
 20
3858.6000000000004
 10
360.0
 20
3870.0
 97
0
 75
1
 76
1
 98
0
  0
LWPOLYLINE
  5
A4
330
17
100
AcDbEntity
  8
AR-FIN
 62
7
370
20
100
AcDbPolyline
 90
4
 70
1
 10
360.0
 20
3791.5
 10
1095.0
 20
3791.5
 10
1095.0
 20
3858.6000000000004
 10
360.0
 20
3870.0
  0
HATCH
  5
A5
330
17
100
AcDbEntity
  8
AR-FIN
 62
7
420
12434877
100
AcDbHatch
 10
0.0
 20
0.0
 30
0.0
210
0.0
220
0.0
230
1.0
  2
SOLID
 70
1
 71
0
 91
1
 92
3
 72
0
 73
1
 93
4
 10
360.0
 20
3870.0
 10
1095.0
 20
3858.6000000000004
 10
1095.0
 20
3868.6000000000004
 10
360.0
 20
3880.0
 97
0
 75
1
 76
1
 98
0
  0
LWPOLYLINE
  5
A6
330
17
100
AcDbEntity
  8
AR-FIN
 62
7
370
20
100
AcDbPolyline
 90
4
 70
1
 10
360.0
 20
3870.0
 10
1095.0
 20
3858.6000000000004
 10
1095.0
 20
3868.6000000000004
 10
360.0
 20
3880.0
  0
HATCH
  5
A7
330
17
100
AcDbEntity
  8
AR-FIN
 62
7
420
13163496
100
AcDbHatch
 10
0.0
 20
0.0
 30
0.0
210
0.0
220
0.0
230
1.0
  2
SOLID
 70
1
 71
0
 91
1
 92
3
 72
0
 73
1
 93
4
 10
360.0
 20
3880.0
 10
1095.0
 20
3868.6000000000004
 10
1095.0
 20
3878.6000000000004
 10
360.0
 20
3890.0
 97
0
 75
1
 76
1
 98
0
  0
LWPOLYLINE
  5
A8
330
17
100
AcDbEntity
  8
AR-FIN
 62
7
370
20
100
AcDbPolyline
 90
4
 70
1
 10
360.0
 20
3880.0
 10
1095.0
 20
3868.6000000000004
 10
1095.0
 20
3878.6000000000004
 10
360.0
 20
3890.0
  0
HATCH
  5
A9
330
17
100
AcDbEntity
  8
AR-FIN
 62
7
420
8359053
100
AcDbHatch
 10
0.0
 20
0.0
 30
0.0
210
0.0
220
0.0
230
1.0
  2
SOLID
 70
1
 71
0
 91
1
 92
3
 72
0
 73
1
 93
4
 10
1095.0
 20
3808.6000000000004
 10
1165.0
 20
3808.6000000000004
 10
1165.0
 20
3878.6000000000004
 10
1095.0
 20
3878.6000000000004
 97
0
 75
1
 76
1
 98
0
  0
LWPOLYLINE
  5
AA
330
17
100
AcDbEntity
  8
AR-FIN
 62
7
370
20
100
AcDbPolyline
 90
4
 70
1
 10
1095.0
 20
3808.6000000000004
 10
1165.0
 20
3808.6000000000004
 10
1165.0
 20
3878.6000000000004
 10
1095.0
 20
3878.6000000000004
  0
CIRCLE
  5
AB
330
17
100
AcDbEntity
  8
AR-FIN
 62
7
370
20
100
AcDbCircle
 10
1210.0
 20
3816.6000000000004
 30
0.0
 40
25.0
  0
HATCH
  5
AC
330
17
100
AcDbEntity
  8
AR-FIN
 62
7
420
11184810
100
AcDbHatch
 10
0.0
 20
0.0
 30
0.0
210
0.0
220
0.0
230
1.0
  2
ANSI31
 70
0
 71
0
 91
1
 92
3
 72
0
 73
1
 93
4
 10
1165.0
 20
3791.5
 10
1260.0
 20
3791.5
 10
1260.0
 20
4030.0
 10
1165.0
 20
4030.0
 97
0
 75
1
 76
1
 52
90.0
 41
2.75
 77
0
 78
1
 53
135.0
 43
0.0
 44
0.0
 45
-6.1739260833
 46
-6.1739260833
 79
0
 98
0
  0
LWPOLYLINE
  5
AD
330
17
100
AcDbEntity
  8
AR-FIN
 62
7
370
20
100
AcDbPolyline
 90
4
 70
1
 10
1165.0
 20
3791.5
 10
1260.0
 20
3791.5
 10
1260.0
 20
4030.0
 10
1165.0
 20
4030.0
  0
HATCH
  5
AE
330
17
100
AcDbEntity
  8
AR-FIN
 62
7
420
10506797
100
AcDbHatch
 10
0.0
 20
0.0
 30
0.0
210
0.0
220
0.0
230
1.0
  2
ANSI31
 70
0
 71
0
 91
1
 92
3
 72
0
 73
1
 93
4
 10
1260.0
 20
3710.0
 10
1380.0
 20
3710.0
 10
1380.0
 20
4030.0
 10
1260.0
 20
4030.0
 97
0
 75
1
 76
1
 52
0.0
 41
1.8333333333333333
 77
0
 78
1
 53
45.0
 43
0.0
 44
0.0
 45
-4.1159507222
 46
4.1159507222
 79
0
 98
0
  0
HATCH
  5
AF
330
17
100
AcDbEntity
  8
AR-FIN
 62
7
420
15717060
440
33554559
100
AcDbHatch
 10
0.0
 20
0.0
 30
0.0
210
0.0
220
0.0
230
1.0
  2
SOLID
 70
1
 71
0
 91
1
 92
3
 72
0
 73
1
 93
4
 10
1260.0
 20
3710.0
 10
1380.0
 20
3710.0
 10
1380.0
 20
4030.0
 10
1260.0
 20
4030.0
 97
0
 75
1
 76
1
 98
0
  0
LWPOLYLINE
  5
B0
330
17
100
AcDbEntity
  8
AR-FIN
 62
7
370
20
100
AcDbPolyline
 90
4
 70
1
 10
1260.0
 20
3710.0
 10
1380.0
 20
3710.0
 10
1380.0
 20
4030.0
 10
1260.0
 20
4030.0
  0
HATCH
  5
B1
330
17
100
AcDbEntity
  8
AR-FIN
 62
7
420
14084856
100
AcDbHatch
 10
0.0
 20
0.0
 30
0.0
210
0.0
220
0.0
230
1.0
  2
SOLID
 70
1
 71
0
 91
1
 92
3
 72
0
 73
1
 93
4
 10
330.0
 20
3890.0
 10
340.0
 20
3890.0
 10
340.0
 20
4030.0
 10
330.0
 20
4030.0
 97
0
 75
1
 76
1
 98
0
  0
LWPOLYLINE
  5
B2
330
17
100
AcDbEntity
  8
AR-FIN
 62
7
370
20
100
AcDbPolyline
 90
4
 70
1
 10
330.0
 20
3890.0
 10
340.0
 20
3890.0
 10
340.0
 20
4030.0
 10
330.0
 20
4030.0
  0
HATCH
  5
B3
330
17
100
AcDbEntity
  8
DIM
 62
7
420
16777215
100
AcDbHatch
 10
0.0
 20
0.0
 30
0.0
210
0.0
220
0.0
230
1.0
  2
SOLID
 70
1
 71
0
 91
1
 92
3
 72
0
 73
1
 93
3
 10
460.0
 20
3890.0
 10
448.0
 20
3906.0
 10
472.0
 20
3906.0
 97
0
 75
1
 76
1
 98
0
  0
LWPOLYLINE
  5
B4
330
17
100
AcDbEntity
  8
DIM
 62
7
370
20
100
AcDbPolyline
 90
3
 70
1
 10
460.0
 20
3890.0
 10
448.0
 20
3906.0
 10
472.0
 20
3906.0
  0
LWPOLYLINE
  5
B5
330
17
100
AcDbEntity
  8
DIM
 62
7
370
20
100
AcDbPolyline
 90
2
 70
0
 10
460.0
 20
3906.0
 10
550.0
 20
3906.0
  0
TEXT
  5
B6
330
17
100
AcDbEntity
  8
DIM
 62
7
100
AcDbText
 10
466.0
 20
3911.0
 30
0.0
 40
15.0
  1
+0,080
  7
GOST
 11
466.0
 21
3911.0
 31
0.0
100
AcDbText
  0
HATCH
  5
B7
330
17
100
AcDbEntity
  8
DIM
 62
7
420
16777215
100
AcDbHatch
 10
0.0
 20
0.0
 30
0.0
210
0.0
220
0.0
230
1.0
  2
SOLID
 70
1
 71
0
 91
1
 92
3
 72
0
 73
1
 93
3
 10
1060.0
 20
3878.6000000000004
 10
1048.0
 20
3894.6000000000004
 10
1072.0
 20
3894.6000000000004
 97
0
 75
1
 76
1
 98
0
  0
LWPOLYLINE
  5
B8
330
17
100
AcDbEntity
  8
DIM
 62
7
370
20
100
AcDbPolyline
 90
3
 70
1
 10
1060.0
 20
3878.6000000000004
 10
1048.0
 20
3894.6000000000004
 10
1072.0
 20
3894.6000000000004
  0
LWPOLYLINE
  5
B9
330
17
100
AcDbEntity
  8
DIM
 62
7
370
20
100
AcDbPolyline
 90
2
 70
0
 10
1060.0
 20
3894.6000000000004
 10
1150.0
 20
3894.6000000000004
  0
TEXT
  5
BA
330
17
100
AcDbEntity
  8
DIM
 62
7
100
AcDbText
 10
1066.0
 20
3899.6000000000004
 30
0.0
 40
15.0
  1
+0,069
  7
GOST
 11
1066.0
 21
3899.6000000000004
 31
0.0
100
AcDbText
  0
LWPOLYLINE
  5
BB
330
17
100
AcDbEntity
  8
AR-FIN
  6
DASHDOT
370
13
 48
30.0
420
10066329
100
AcDbPolyline
 90
4
 70
1
 10
260.0
 20
3680.0
 10
1380.0
 20
3680.0
 10
1380.0
 20
4030.0
 10
260.0
 20
4030.0
  0
TEXT
  5
BC
330
17
100
AcDbEntity
  8
TEXT
420
1710618
100
AcDbText
 10
813.0346579218108
 20
3650.0
 30
0.0
 40
15.0
  1
1
  7
GOST
 11
813.0346579218108
 21
3650.0
 31
0.0
100
AcDbText
  0
TEXT
  5
BD
330
17
100
AcDbEntity
  8
TEXT
420
1710618
100
AcDbText
 10
911.9238815542512
 20
3643.0761184457488
 30
0.0
 40
15.0
  1
2
  7
GOST
 11
911.9238815542512
 21
3643.0761184457488
 31
0.0
100
AcDbText
  0
LWPOLYLINE
  5
BE
330
17
100
AcDbEntity
  8
TEXT
370
15
420
3355443
100
AcDbPolyline
 90
2
 70
0
 10
820.0
 20
3750.0
 10
908.9238815542512
 20
3661.0761184457488
  0
HATCH
  5
BF
330
17
100
AcDbEntity
  8
TEXT
 62
7
420
3355443
100
AcDbHatch
 10
0.0
 20
0.0
 30
0.0
210
0.0
220
0.0
230
1.0
  2
SOLID
 70
1
 71
0
 91
1
 92
1
 93
1
 72
2
 10
820.0
 20
3750.0
 40
2.5
 50
0
 51
360
 73
1
 97
0
 75
1
 76
1
 98
0
  0
CIRCLE
  5
C0
330
17
100
AcDbEntity
  8
TEXT
370
13
420
3355443
100
AcDbCircle
 10
820.0
 20
3750.0
 30
0.0
 40
2.5
  0
TEXT
  5
C1
330
17
100
AcDbEntity
  8
TEXT
420
1710618
100
AcDbText
 10
753.1455761316873
 20
3646.5
 30
0.0
 40
15.0
  1
3
  7
GOST
 11
753.1455761316873
 21
3646.5
 31
0.0
100
AcDbText
  0
LWPOLYLINE
  5
C2
330
17
100
AcDbEntity
  8
TEXT
370
15
420
3355443
100
AcDbPolyline
 90
2
 70
0
 10
760.0
 20
3791.5
 10
760.0
 20
3664.5
  0
HATCH
  5
C3
330
17
100
AcDbEntity
  8
TEXT
 62
7
420
3355443
100
AcDbHatch
 10
0.0
 20
0.0
 30
0.0
210
0.0
220
0.0
230
1.0
  2
SOLID
 70
1
 71
0
 91
1
 92
1
 93
1
 72
2
 10
760.0
 20
3791.5
 40
2.5
 50
0
 51
360
 73
1
 97
0
 75
1
 76
1
 98
0
  0
CIRCLE
  5
C4
330
17
100
AcDbEntity
  8
TEXT
370
13
420
3355443
100
AcDbCircle
 10
760.0
 20
3791.5
 30
0.0
 40
2.5
  0
TEXT
  5
C5
330
17
100
AcDbEntity
  8
TEXT
420
1710618
100
AcDbText
 10
757.5
 20
3857.9
 30
0.0
 40
15.0
  1
4
  7
GOST
 11
757.5
 21
3857.9
 31
0.0
100
AcDbText
  0
LWPOLYLINE
  5
C6
330
17
100
AcDbEntity
  8
TEXT
370
15
420
3355443
100
AcDbPolyline
 90
2
 70
0
 10
727.5
 20
3827.9
 10
757.5
 20
3857.9
  0
TEXT
  5
C7
330
17
100
AcDbEntity
  8
TEXT
420
1710618
100
AcDbText
 10
757.5
 20
3899.3
 30
0.0
 40
15.0
  1
5
  7
GOST
 11
757.5
 21
3899.3
 31
0.0
100
AcDbText
  0
LWPOLYLINE
  5
C8
330
17
100
AcDbEntity
  8
TEXT
370
15
420
3355443
100
AcDbPolyline
 90
2
 70
0
 10
727.5
 20
3869.3
 10
757.5
 20
3899.3
  0
TEXT
  5
C9
330
17
100
AcDbEntity
  8
TEXT
420
1710618
100
AcDbText
 10
757.5
 20
3909.3
 30
0.0
 40
15.0
  1
6
  7
GOST
 11
757.5
 21
3909.3
 31
0.0
100
AcDbText
  0
LWPOLYLINE
  5
CA
330
17
100
AcDbEntity
  8
TEXT
370
15
420
3355443
100
AcDbPolyline
 90
2
 70
0
 10
727.5
 20
3879.3
 10
757.5
 20
3909.3
  0
TEXT
  5
CB
330
17
100
AcDbEntity
  8
TEXT
420
1710618
100
AcDbText
 10
1160.0
 20
3873.6000000000004
 30
0.0
 40
15.0
  1
7
  7
GOST
 11
1160.0
 21
3873.6000000000004
 31
0.0
100
AcDbText
  0
LWPOLYLINE
  5
CC
330
17
100
AcDbEntity
  8
TEXT
370
15
420
3355443
100
AcDbPolyline
 90
2
 70
0
 10
1130.0
 20
3843.6000000000004
 10
1160.0
 20
3873.6000000000004
  0
TEXT
  5
CD
330
17
100
AcDbEntity
  8
TEXT
420
1710618
100
AcDbText
 10
1240.0
 20
3846.6000000000004
 30
0.0
 40
15.0
  1
8
  7
GOST
 11
1240.0
 21
3846.6000000000004
 31
0.0
100
AcDbText
  0
LWPOLYLINE
  5
CE
330
17
100
AcDbEntity
  8
TEXT
370
15
420
3355443
100
AcDbPolyline
 90
2
 70
0
 10
1210.0
 20
3816.6000000000004
 10
1240.0
 20
3846.6000000000004
  0
TEXT
  5
CF
330
17
100
AcDbEntity
  8
TEXT
420
1710618
100
AcDbText
 10
1205.4848251028807
 20
4040.75
 30
0.0
 40
15.0
  1
9
  7
GOST
 11
1205.4848251028807
 21
4040.75
 31
0.0
100
AcDbText
  0
LWPOLYLINE
  5
D0
330
17
100
AcDbEntity
  8
TEXT
370
15
420
3355443
100
AcDbPolyline
 90
2
 70
0
 10
1212.5
 20
3910.75
 10
1212.5
 20
4037.75
  0
HATCH
  5
D1
330
17
100
AcDbEntity
  8
TEXT
 62
7
420
3355443
100
AcDbHatch
 10
0.0
 20
0.0
 30
0.0
210
0.0
220
0.0
230
1.0
  2
SOLID
 70
1
 71
0
 91
1
 92
1
 93
1
 72
2
 10
1212.5
 20
3910.75
 40
2.5
 50
0
 51
360
 73
1
 97
0
 75
1
 76
1
 98
0
  0
CIRCLE
  5
D2
330
17
100
AcDbEntity
  8
TEXT
370
13
420
3355443
100
AcDbCircle
 10
1212.5
 20
3910.75
 30
0.0
 40
2.5
  0
TEXT
  5
D3
330
17
100
AcDbEntity
  8
TEXT
420
1710618
100
AcDbText
 10
1395.0
 20
3862.5
 30
0.0
 40
15.0
  1
10
  7
GOST
 11
1395.0
 21
3862.5
 31
0.0
100
AcDbText
  0
LWPOLYLINE
  5
D4
330
17
100
AcDbEntity
  8
TEXT
370
15
420
3355443
100
AcDbPolyline
 90
2
 70
0
 10
1320.0
 20
3870.0
 10
1392.0
 20
3870.0
  0
HATCH
  5
D5
330
17
100
AcDbEntity
  8
TEXT
 62
7
420
3355443
100
AcDbHatch
 10
0.0
 20
0.0
 30
0.0
210
0.0
220
0.0
230
1.0
  2
SOLID
 70
1
 71
0
 91
1
 92
1
 93
1
 72
2
 10
1320.0
 20
3870.0
 40
2.5
 50
0
 51
360
 73
1
 97
0
 75
1
 76
1
 98
0
  0
CIRCLE
  5
D6
330
17
100
AcDbEntity
  8
TEXT
370
13
420
3355443
100
AcDbCircle
 10
1320.0
 20
3870.0
 30
0.0
 40
2.5
  0
TEXT
  5
D7
330
17
100
AcDbEntity
  8
TEXT
420
1710618
100
AcDbText
 10
320.87641460905354
 20
4060.0
 30
0.0
 40
15.0
  1
11
  7
GOST
 11
320.87641460905354
 21
4060.0
 31
0.0
100
AcDbText
  0
LWPOLYLINE
  5
D8
330
17
100
AcDbEntity
  8
TEXT
370
15
420
3355443
100
AcDbPolyline
 90
2
 70
0
 10
335.0
 20
3960.0
 10
335.0
 20
4057.0
  0
HATCH
  5
D9
330
17
100
AcDbEntity
  8
TEXT
 62
7
420
3355443
100
AcDbHatch
 10
0.0
 20
0.0
 30
0.0
210
0.0
220
0.0
230
1.0
  2
SOLID
 70
1
 71
0
 91
1
 92
1
 93
1
 72
2
 10
335.0
 20
3960.0
 40
2.5
 50
0
 51
360
 73
1
 97
0
 75
1
 76
1
 98
0
  0
CIRCLE
  5
DA
330
17
100
AcDbEntity
  8
TEXT
370
13
420
3355443
100
AcDbCircle
 10
335.0
 20
3960.0
 30
0.0
 40
2.5
  0
TEXT
  5
DB
330
17
100
AcDbEntity
  8
TEXT
 62
7
100
AcDbText
 10
1420.0
 20
4016.5
 30
0.0
 40
13.5
  1
1.
  7
GOST
 11
1420.0
 21
4016.5
 31
0.0
100
AcDbText
  0
TEXT
  5
DC
330
17
100
AcDbEntity
  8
TEXT
 62
7
100
AcDbText
 10
1465.0
 20
4016.5
 30
0.0
 40
13.5
  1
Плита
  7
GOST
 11
1465.0
 21
4016.5
 31
0.0
100
AcDbText
  0
TEXT
  5
DD
330
17
100
AcDbEntity
  8
TEXT
 62
7
100
AcDbText
 10
1420.0
 20
3990.9249999999997
 30
0.0
 40
13.5
  1
2.
  7
GOST
 11
1420.0
 21
3990.9249999999997
 31
0.0
100
AcDbText
  0
TEXT
  5
DE
330
17
100
AcDbEntity
  8
TEXT
 62
7
100
AcDbText
 10
1465.0
 20
3990.9249999999997
 30
0.0
 40
13.5
  1
Стяжка с водяным ТП, верх −20 — не резать (D3/D4)
  7
GOST
 11
1465.0
 21
3990.9249999999997
 31
0.0
100
AcDbText
  0
TEXT
  5
DF
330
17
100
AcDbEntity
  8
TEXT
 62
7
100
AcDbText
 10
1420.0
 20
3965.3499999999995
 30
0.0
 40
13.5
  1
3.
  7
GOST
 11
1420.0
 21
3965.3499999999995
 31
0.0
100
AcDbText
  0
TEXT
  5
E0
330
17
100
AcDbEntity
  8
TEXT
 62
7
100
AcDbText
 10
1465.0
 20
3965.3499999999995
 30
0.0
 40
13.5
  1
Нижняя гидроизоляция
  7
GOST
 11
1465.0
 21
3965.3499999999995
 31
0.0
100
AcDbText
  0
TEXT
  5
E1
330
17
100
AcDbEntity
  8
TEXT
 62
7
100
AcDbText
 10
1420.0
 20
3939.7749999999996
 30
0.0
 40
13.5
  1
4.
  7
GOST
 11
1420.0
 21
3939.7749999999996
 31
0.0
100
AcDbText
  0
TEXT
  5
E2
330
17
100
AcDbEntity
  8
TEXT
 62
7
100
AcDbText
 10
1465.0
 20
3939.7749999999996
 30
0.0
 40
13.5
  1
Подиум ЦПС М300 с уклоном 1,5 % от стекла (x 6641, +80) к
  7
GOST
 11
1465.0
 21
3939.7749999999996
 31
0.0
100
AcDbText
  0
TEXT
  5
E3
330
17
100
AcDbEntity
  8
TEXT
 62
7
100
AcDbText
 10
1465.0
 20
3920.2
 30
0.0
 40
13.5
  1
трапу
  7
GOST
 11
1465.0
 21
3920.2
 31
0.0
100
AcDbText
  0
TEXT
  5
E4
330
17
100
AcDbEntity
  8
TEXT
 62
7
100
AcDbText
 10
1420.0
 20
3894.625
 30
0.0
 40
13.5
  1
5.
  7
GOST
 11
1420.0
 21
3894.625
 31
0.0
100
AcDbText
  0
TEXT
  5
E5
330
17
100
AcDbEntity
  8
TEXT
 62
7
100
AcDbText
 10
1465.0
 20
3894.625
 30
0.0
 40
13.5
  1
Основная ГИ + клей C2TE S1
  7
GOST
 11
1465.0
 21
3894.625
 31
0.0
100
AcDbText
  0
TEXT
  5
E6
330
17
100
AcDbEntity
  8
TEXT
 62
7
100
AcDbText
 10
1420.0
 20
3869.0499999999997
 30
0.0
 40
13.5
  1
6.
  7
GOST
 11
1420.0
 21
3869.0499999999997
 31
0.0
100
AcDbText
  0
TEXT
  5
E7
330
17
100
AcDbEntity
  8
TEXT
 62
7
100
AcDbText
 10
1465.0
 20
3869.0499999999997
 30
0.0
 40
13.5
  1
Плитка 600×1200 R10/B, подрезка у трапа 735
  7
GOST
 11
1465.0
 21
3869.0499999999997
 31
0.0
100
AcDbText
  0
TEXT
  5
E8
330
17
100
AcDbEntity
  8
TEXT
 62
7
100
AcDbText
 10
1420.0
 20
3843.4749999999995
 30
0.0
 40
13.5
  1
7.
  7
GOST
 11
1420.0
 21
3843.4749999999995
 31
0.0
100
AcDbText
  0
TEXT
  5
E9
330
17
100
AcDbEntity
  8
TEXT
 62
7
100
AcDbText
 10
1465.0
 20
3843.4749999999995
 30
0.0
 40
13.5
  1
Трап 800 низкий: низ корпуса −1,4, решётка +68,6; фланец
  7
GOST
 11
1465.0
 21
3843.4749999999995
 31
0.0
100
AcDbText
  0
TEXT
  5
EA
330
17
100
AcDbEntity
  8
TEXT
 62
7
100
AcDbText
 10
1465.0
 20
3823.8999999999996
 30
0.0
 40
13.5
  1
вклеен в ГИ
  7
GOST
 11
1465.0
 21
3823.8999999999996
 31
0.0
100
AcDbText
  0
TEXT
  5
EB
330
17
100
AcDbEntity
  8
TEXT
 62
7
100
AcDbText
 10
1420.0
 20
3798.325
 30
0.0
 40
13.5
  1
8.
  7
GOST
 11
1420.0
 21
3798.325
 31
0.0
100
AcDbText
  0
TEXT
  5
EC
330
17
100
AcDbEntity
  8
TEXT
 62
7
100
AcDbText
 10
1465.0
 20
3798.325
 30
0.0
 40
13.5
  1
Отвод Ø50 к К1 U6 (0,4 м, i = 2 %)
  7
GOST
 11
1465.0
 21
3798.325
 31
0.0
100
AcDbText
  0
TEXT
  5
ED
330
17
100
AcDbEntity
  8
TEXT
 62
7
100
AcDbText
 10
1420.0
 20
3772.75
 30
0.0
 40
13.5
  1
9.
  7
GOST
 11
1420.0
 21
3772.75
 31
0.0
100
AcDbText
  0
TEXT
  5
EE
330
17
100
AcDbEntity
  8
TEXT
 62
7
100
AcDbText
 10
1465.0
 20
3772.75
 30
0.0
 40
13.5
  1
Облицовка VK-C1 ≈ 95: ПП 60/27 + 2×ГВЛВ/ЦСП 12,5 + ГИ +
  7
GOST
 11
1465.0
 21
3772.75
 31
0.0
100
AcDbText
  0
TEXT
  5
EF
330
17
100
AcDbEntity
  8
TEXT
 62
7
100
AcDbText
 10
1465.0
 20
3753.175
 30
0.0
 40
13.5
  1
плитка
  7
GOST
 11
1465.0
 21
3753.175
 31
0.0
100
AcDbText
  0
TEXT
  5
F0
330
17
100
AcDbEntity
  8
TEXT
 62
7
100
AcDbText
 10
1420.0
 20
3727.6
 30
0.0
 40
13.5
  1
10.
  7
GOST
 11
1420.0
 21
3727.6
 31
0.0
100
AcDbText
  0
TEXT
  5
F1
330
17
100
AcDbEntity
  8
TEXT
 62
7
100
AcDbText
 10
1465.0
 20
3727.6
 30
0.0
 40
13.5
  1
Перегородка W14
  7
GOST
 11
1465.0
 21
3727.6
 31
0.0
100
AcDbText
  0
TEXT
  5
F2
330
17
100
AcDbEntity
  8
TEXT
 62
7
100
AcDbText
 10
1420.0
 20
3702.0249999999996
 30
0.0
 40
13.5
  1
11.
  7
GOST
 11
1420.0
 21
3702.0249999999996
 31
0.0
100
AcDbText
  0
TEXT
  5
F3
330
17
100
AcDbEntity
  8
TEXT
 62
7
100
AcDbText
 10
1465.0
 20
3702.0249999999996
 30
0.0
 40
13.5
  1
Стекло душа F68 (профиль на клею)
  7
GOST
 11
1465.0
 21
3702.0249999999996
 31
0.0
100
AcDbText
  0
TEXT
  5
F4
330
17
100
AcDbEntity
  8
TEXT
 62
7
100
AcDbText
 10
2200.0
 20
4100.0
 30
0.0
 40
22.0
  1
Узел 8. Зашивка окна O1 под буазери (горизонтальное сечение)
  7
GOST
 11
2200.0
 21
4100.0
 31
0.0
100
AcDbText
  0
TEXT
  5
F5
330
17
100
AcDbEntity
  8
TEXT
420
5592405
100
AcDbText
 10
2200.0
 20
4068.0
 30
0.0
 40
15.0
  1
М 1:10 (схематично, по details.md)
  7
GOST
 11
2200.0
 21
4068.0
 31
0.0
100
AcDbText
  0
HATCH
  5
F6
330
17
100
AcDbEntity
  8
AR-FIN
 62
7
420
13214247
100
AcDbHatch
 10
0.0
 20
0.0
 30
0.0
210
0.0
220
0.0
230
1.0
  2
LINE
 70
0
 71
0
 91
1
 92
3
 72
0
 73
1
 93
4
 10
2230.0
 20
3150.0
 10
2380.0
 20
3150.0
 10
2380.0
 20
3470.0
 10
2230.0
 20
3470.0
 97
0
 75
1
 76
1
 52
0.0
 41
2.75
 77
0
 78
1
 53
0.0
 43
0.0
 44
0.0
 45
0.0
 46
8.73125
 79
0
 98
0
  0
HATCH
  5
F7
330
17
100
AcDbEntity
  8
AR-FIN
 62
7
420
16774064
440
33554559
100
AcDbHatch
 10
0.0
 20
0.0
 30
0.0
210
0.0
220
0.0
230
1.0
  2
SOLID
 70
1
 71
0
 91
1
 92
3
 72
0
 73
1
 93
4
 10
2230.0
 20
3150.0
 10
2380.0
 20
3150.0
 10
2380.0
 20
3470.0
 10
2230.0
 20
3470.0
 97
0
 75
1
 76
1
 98
0
  0
LWPOLYLINE
  5
F8
330
17
100
AcDbEntity
  8
AR-FIN
 62
7
370
20
100
AcDbPolyline
 90
4
 70
1
 10
2230.0
 20
3150.0
 10
2380.0
 20
3150.0
 10
2380.0
 20
3470.0
 10
2230.0
 20
3470.0
  0
HATCH
  5
F9
330
17
100
AcDbEntity
  8
AR-FIN
 62
7
420
10506797
100
AcDbHatch
 10
0.0
 20
0.0
 30
0.0
210
0.0
220
0.0
230
1.0
  2
ANSI31
 70
0
 71
0
 91
1
 92
3
 72
0
 73
1
 93
4
 10
2380.0
 20
3150.0
 10
2629.0
 20
3150.0
 10
2629.0
 20
3470.0
 10
2380.0
 20
3470.0
 97
0
 75
1
 76
1
 52
0.0
 41
1.8333333333333333
 77
0
 78
1
 53
45.0
 43
0.0
 44
0.0
 45
-4.1159507222
 46
4.1159507222
 79
0
 98
0
  0
HATCH
  5
FA
330
17
100
AcDbEntity
  8
AR-FIN
 62
7
420
15717060
440
33554559
100
AcDbHatch
 10
0.0
 20
0.0
 30
0.0
210
0.0
220
0.0
230
1.0
  2
SOLID
 70
1
 71
0
 91
1
 92
3
 72
0
 73
1
 93
4
 10
2380.0
 20
3150.0
 10
2629.0
 20
3150.0
 10
2629.0
 20
3470.0
 10
2380.0
 20
3470.0
 97
0
 75
1
 76
1
 98
0
  0
LWPOLYLINE
  5
FB
330
17
100
AcDbEntity
  8
AR-FIN
 62
7
370
20
100
AcDbPolyline
 90
4
 70
1
 10
2380.0
 20
3150.0
 10
2629.0
 20
3150.0
 10
2629.0
 20
3470.0
 10
2380.0
 20
3470.0
  0
HATCH
  5
FC
330
17
100
AcDbEntity
  8
AR-FIN
 62
7
420
15986662
100
AcDbHatch
 10
0.0
 20
0.0
 30
0.0
210
0.0
220
0.0
230
1.0
  2
SOLID
 70
1
 71
0
 91
1
 92
3
 72
0
 73
1
 93
4
 10
2629.0
 20
3150.0
 10
2650.0
 20
3150.0
 10
2650.0
 20
3470.0
 10
2629.0
 20
3470.0
 97
0
 75
1
 76
1
 98
0
  0
LWPOLYLINE
  5
FD
330
17
100
AcDbEntity
  8
AR-FIN
 62
7
370
20
100
AcDbPolyline
 90
4
 70
1
 10
2629.0
 20
3150.0
 10
2650.0
 20
3150.0
 10
2650.0
 20
3470.0
 10
2629.0
 20
3470.0
  0
HATCH
  5
FE
330
17
100
AcDbEntity
  8
AR-FIN
 62
7
420
8359053
100
AcDbHatch
 10
0.0
 20
0.0
 30
0.0
210
0.0
220
0.0
230
1.0
  2
SOLID
 70
1
 71
0
 91
1
 92
3
 72
0
 73
1
 93
4
 10
2320.0
 20
3470.0
 10
2390.0
 20
3470.0
 10
2390.0
 20
4030.0
 10
2320.0
 20
4030.0
 97
0
 75
1
 76
1
 98
0
  0
LWPOLYLINE
  5
FF
330
17
100
AcDbEntity
  8
AR-FIN
 62
7
370
20
100
AcDbPolyline
 90
4
 70
1
 10
2320.0
 20
3470.0
 10
2390.0
 20
3470.0
 10
2390.0
 20
4030.0
 10
2320.0
 20
4030.0
  0
HATCH
  5
100
330
17
100
AcDbEntity
  8
AR-FIN
 62
7
420
13214247
100
AcDbHatch
 10
0.0
 20
0.0
 30
0.0
210
0.0
220
0.0
230
1.0
  2
LINE
 70
0
 71
0
 91
1
 92
3
 72
0
 73
1
 93
4
 10
2390.0
 20
3470.0
 10
2612.0
 20
3470.0
 10
2612.0
 20
4030.0
 10
2390.0
 20
4030.0
 97
0
 75
1
 76
1
 52
0.0
 41
2.75
 77
0
 78
1
 53
0.0
 43
0.0
 44
0.0
 45
0.0
 46
8.73125
 79
0
 98
0
  0
HATCH
  5
101
330
17
100
AcDbEntity
  8
AR-FIN
 62
7
420
16774064
440
33554559
100
AcDbHatch
 10
0.0
 20
0.0
 30
0.0
210
0.0
220
0.0
230
1.0
  2
SOLID
 70
1
 71
0
 91
1
 92
3
 72
0
 73
1
 93
4
 10
2390.0
 20
3470.0
 10
2612.0
 20
3470.0
 10
2612.0
 20
4030.0
 10
2390.0
 20
4030.0
 97
0
 75
1
 76
1
 98
0
  0
LWPOLYLINE
  5
102
330
17
100
AcDbEntity
  8
AR-FIN
 62
7
370
20
100
AcDbPolyline
 90
4
 70
1
 10
2390.0
 20
3470.0
 10
2612.0
 20
3470.0
 10
2612.0
 20
4030.0
 10
2390.0
 20
4030.0
  0
HATCH
  5
103
330
17
100
AcDbEntity
  8
AR-FIN
 62
7
420
4473924
100
AcDbHatch
 10
0.0
 20
0.0
 30
0.0
210
0.0
220
0.0
230
1.0
  2
SOLID
 70
1
 71
0
 91
1
 92
3
 72
0
 73
1
 93
4
 10
2612.0
 20
3470.0
 10
2625.0
 20
3470.0
 10
2625.0
 20
4030.0
 10
2612.0
 20
4030.0
 97
0
 75
1
 76
1
 98
0
  0
LWPOLYLINE
  5
104
330
17
100
AcDbEntity
  8
AR-FIN
 62
7
370
20
100
AcDbPolyline
 90
4
 70
1
 10
2612.0
 20
3470.0
 10
2625.0
 20
3470.0
 10
2625.0
 20
4030.0
 10
2612.0
 20
4030.0
  0
HATCH
  5
105
330
17
100
AcDbEntity
  8
AR-FIN
 62
7
420
11569232
100
AcDbHatch
 10
0.0
 20
0.0
 30
0.0
210
0.0
220
0.0
230
1.0
  2
LINE
 70
0
 71
0
 91
1
 92
3
 72
0
 73
1
 93
4
 10
2575.0
 20
3470.0
 10
2612.0
 20
3470.0
 10
2612.0
 20
3520.0
 10
2575.0
 20
3520.0
 97
0
 75
1
 76
1
 52
90.0
 41
2.75
 77
0
 78
1
 53
90.0
 43
0.0
 44
0.0
 45
-8.73125
 46
0.0
 79
0
 98
0
  0
HATCH
  5
106
330
17
100
AcDbEntity
  8
AR-FIN
 62
7
420
14928288
440
33554559
100
AcDbHatch
 10
0.0
 20
0.0
 30
0.0
210
0.0
220
0.0
230
1.0
  2
SOLID
 70
1
 71
0
 91
1
 92
3
 72
0
 73
1
 93
4
 10
2575.0
 20
3470.0
 10
2612.0
 20
3470.0
 10
2612.0
 20
3520.0
 10
2575.0
 20
3520.0
 97
0
 75
1
 76
1
 98
0
  0
LWPOLYLINE
  5
107
330
17
100
AcDbEntity
  8
AR-FIN
 62
7
370
20
100
AcDbPolyline
 90
4
 70
1
 10
2575.0
 20
3470.0
 10
2612.0
 20
3470.0
 10
2612.0
 20
3520.0
 10
2575.0
 20
3520.0
  0
HATCH
  5
108
330
17
100
AcDbEntity
  8
AR-FIN
 62
7
420
11184810
100
AcDbHatch
 10
0.0
 20
0.0
 30
0.0
210
0.0
220
0.0
230
1.0
  2
ANSI31
 70
0
 71
0
 91
1
 92
3
 72
0
 73
1
 93
4
 10
2625.0
 20
3470.0
 10
2650.0
 20
3470.0
 10
2650.0
 20
4030.0
 10
2625.0
 20
4030.0
 97
0
 75
1
 76
1
 52
90.0
 41
2.75
 77
0
 78
1
 53
135.0
 43
0.0
 44
0.0
 45
-6.1739260833
 46
-6.1739260833
 79
0
 98
0
  0
LWPOLYLINE
  5
109
330
17
100
AcDbEntity
  8
AR-FIN
 62
7
370
20
100
AcDbPolyline
 90
4
 70
1
 10
2625.0
 20
3470.0
 10
2650.0
 20
3470.0
 10
2650.0
 20
4030.0
 10
2625.0
 20
4030.0
  0
HATCH
  5
10A
330
17
100
AcDbEntity
  8
AR-FIN
 62
7
420
14274496
100
AcDbHatch
 10
0.0
 20
0.0
 30
0.0
210
0.0
220
0.0
230
1.0
  2
SOLID
 70
1
 71
0
 91
1
 92
3
 72
0
 73
1
 93
4
 10
2650.0
 20
3150.0
 10
2669.0
 20
3150.0
 10
2669.0
 20
4030.0
 10
2650.0
 20
4030.0
 97
0
 75
1
 76
1
 98
0
  0
LWPOLYLINE
  5
10B
330
17
100
AcDbEntity
  8
AR-FIN
 62
7
370
20
100
AcDbPolyline
 90
4
 70
1
 10
2650.0
 20
3150.0
 10
2669.0
 20
3150.0
 10
2669.0
 20
4030.0
 10
2650.0
 20
4030.0
  0
HATCH
  5
10C
330
17
100
AcDbEntity
  8
AR-FIN
 62
7
420
14274496
100
AcDbHatch
 10
0.0
 20
0.0
 30
0.0
210
0.0
220
0.0
230
1.0
  2
SOLID
 70
1
 71
0
 91
1
 92
3
 72
0
 73
1
 93
4
 10
2669.0
 20
3570.0
 10
2699.0
 20
3570.0
 10
2699.0
 20
3600.0
 10
2669.0
 20
3600.0
 97
0
 75
1
 76
1
 98
0
  0
LWPOLYLINE
  5
10D
330
17
100
AcDbEntity
  8
AR-FIN
 62
7
370
20
100
AcDbPolyline
 90
4
 70
1
 10
2669.0
 20
3570.0
 10
2699.0
 20
3570.0
 10
2699.0
 20
3600.0
 10
2669.0
 20
3600.0
  0
LWPOLYLINE
  5
10E
330
17
100
AcDbEntity
  8
AR-FIN
  6
DASHDOT
370
13
 48
30.0
420
10066329
100
AcDbPolyline
 90
4
 70
1
 10
2220.0
 20
3150.0
 10
2730.0
 20
3150.0
 10
2730.0
 20
4030.0
 10
2220.0
 20
4030.0
  0
TEXT
  5
10F
330
17
100
AcDbEntity
  8
TEXT
420
1710618
100
AcDbText
 10
2191.0693158436216
 20
3302.5
 30
0.0
 40
15.0
  1
1
  7
GOST
 11
2191.0693158436216
 21
3302.5
 31
0.0
100
AcDbText
  0
LWPOLYLINE
  5
110
330
17
100
AcDbEntity
  8
TEXT
370
15
420
3355443
100
AcDbPolyline
 90
2
 70
0
 10
2305.0
 20
3310.0
 10
2208.0
 20
3310.0
  0
HATCH
  5
111
330
17
100
AcDbEntity
  8
TEXT
 62
7
420
3355443
100
AcDbHatch
 10
0.0
 20
0.0
 30
0.0
210
0.0
220
0.0
230
1.0
  2
SOLID
 70
1
 71
0
 91
1
 92
1
 93
1
 72
2
 10
2305.0
 20
3310.0
 40
2.5
 50
0
 51
360
 73
1
 97
0
 75
1
 76
1
 98
0
  0
CIRCLE
  5
112
330
17
100
AcDbEntity
  8
TEXT
370
13
420
3355443
100
AcDbCircle
 10
2305.0
 20
3310.0
 30
0.0
 40
2.5
  0
TEXT
  5
113
330
17
100
AcDbEntity
  8
TEXT
420
1710618
100
AcDbText
 10
2534.5
 20
3340.0
 30
0.0
 40
15.0
  1
2
  7
GOST
 11
2534.5
 21
3340.0
 31
0.0
100
AcDbText
  0
LWPOLYLINE
  5
114
330
17
100
AcDbEntity
  8
TEXT
370
15
420
3355443
100
AcDbPolyline
 90
2
 70
0
 10
2504.5
 20
3310.0
 10
2534.5
 20
3340.0
  0
TEXT
  5
115
330
17
100
AcDbEntity
  8
TEXT
420
1710618
100
AcDbText
 10
2385.0
 20
3780.0
 30
0.0
 40
15.0
  1
3
  7
GOST
 11
2385.0
 21
3780.0
 31
0.0
100
AcDbText
  0
LWPOLYLINE
  5
116
330
17
100
AcDbEntity
  8
TEXT
370
15
420
3355443
100
AcDbPolyline
 90
2
 70
0
 10
2355.0
 20
3750.0
 10
2385.0
 20
3780.0
  0
TEXT
  5
117
330
17
100
AcDbEntity
  8
TEXT
420
1710618
100
AcDbText
 10
2531.0
 20
3780.0
 30
0.0
 40
15.0
  1
4
  7
GOST
 11
2531.0
 21
3780.0
 31
0.0
100
AcDbText
  0
LWPOLYLINE
  5
118
330
17
100
AcDbEntity
  8
TEXT
370
15
420
3355443
100
AcDbPolyline
 90
2
 70
0
 10
2501.0
 20
3750.0
 10
2531.0
 20
3780.0
  0
TEXT
  5
119
330
17
100
AcDbEntity
  8
TEXT
420
1710618
100
AcDbText
 10
2748.5
 20
3742.5
 30
0.0
 40
15.0
  1
5
  7
GOST
 11
2748.5
 21
3742.5
 31
0.0
100
AcDbText
  0
LWPOLYLINE
  5
11A
330
17
100
AcDbEntity
  8
TEXT
370
15
420
3355443
100
AcDbPolyline
 90
2
 70
0
 10
2618.5
 20
3750.0
 10
2745.5
 20
3750.0
  0
HATCH
  5
11B
330
17
100
AcDbEntity
  8
TEXT
 62
7
420
3355443
100
AcDbHatch
 10
0.0
 20
0.0
 30
0.0
210
0.0
220
0.0
230
1.0
  2
SOLID
 70
1
 71
0
 91
1
 92
1
 93
1
 72
2
 10
2618.5
 20
3750.0
 40
2.5
 50
0
 51
360
 73
1
 97
0
 75
1
 76
1
 98
0
  0
CIRCLE
  5
11C
330
17
100
AcDbEntity
  8
TEXT
370
13
420
3355443
100
AcDbCircle
 10
2618.5
 20
3750.0
 30
0.0
 40
2.5
  0
TEXT
  5
11D
330
17
100
AcDbEntity
  8
TEXT
420
1710618
100
AcDbText
 10
2623.5
 20
3525.0
 30
0.0
 40
15.0
  1
6
  7
GOST
 11
2623.5
 21
3525.0
 31
0.0
100
AcDbText
  0
LWPOLYLINE
  5
11E
330
17
100
AcDbEntity
  8
TEXT
370
15
420
3355443
100
AcDbPolyline
 90
2
 70
0
 10
2593.5
 20
3495.0
 10
2623.5
 20
3525.0
  0
TEXT
  5
11F
330
17
100
AcDbEntity
  8
TEXT
420
1710618
100
AcDbText
 10
2667.5
 20
3780.0
 30
0.0
 40
15.0
  1
7
  7
GOST
 11
2667.5
 21
3780.0
 31
0.0
100
AcDbText
  0
LWPOLYLINE
  5
120
330
17
100
AcDbEntity
  8
TEXT
370
15
420
3355443
100
AcDbPolyline
 90
2
 70
0
 10
2637.5
 20
3750.0
 10
2667.5
 20
3780.0
  0
TEXT
  5
121
330
17
100
AcDbEntity
  8
TEXT
420
1710618
100
AcDbText
 10
2759.5
 20
3582.5
 30
0.0
 40
15.0
  1
8
  7
GOST
 11
2759.5
 21
3582.5
 31
0.0
100
AcDbText
  0
LWPOLYLINE
  5
122
330
17
100
AcDbEntity
  8
TEXT
370
15
420
3355443
100
AcDbPolyline
 90
2
 70
0
 10
2659.5
 20
3590.0
 10
2756.5
 20
3590.0
  0
HATCH
  5
123
330
17
100
AcDbEntity
  8
TEXT
 62
7
420
3355443
100
AcDbHatch
 10
0.0
 20
0.0
 30
0.0
210
0.0
220
0.0
230
1.0
  2
SOLID
 70
1
 71
0
 91
1
 92
1
 93
1
 72
2
 10
2659.5
 20
3590.0
 40
2.5
 50
0
 51
360
 73
1
 97
0
 75
1
 76
1
 98
0
  0
CIRCLE
  5
124
330
17
100
AcDbEntity
  8
TEXT
370
13
420
3355443
100
AcDbCircle
 10
2659.5
 20
3590.0
 30
0.0
 40
2.5
  0
TEXT
  5
125
330
17
100
AcDbEntity
  8
TEXT
420
1710618
100
AcDbText
 10
2737.033008588991
 20
3638.033008588991
 30
0.0
 40
15.0
  1
9
  7
GOST
 11
2737.033008588991
 21
3638.033008588991
 31
0.0
100
AcDbText
  0
LWPOLYLINE
  5
126
330
17
100
AcDbEntity
  8
TEXT
370
15
420
3355443
100
AcDbPolyline
 90
2
 70
0
 10
2684.0
 20
3585.0
 10
2734.0330085889905
 20
3635.033008588991
  0
HATCH
  5
127
330
17
100
AcDbEntity
  8
TEXT
 62
7
420
3355443
100
AcDbHatch
 10
0.0
 20
0.0
 30
0.0
210
0.0
220
0.0
230
1.0
  2
SOLID
 70
1
 71
0
 91
1
 92
1
 93
1
 72
2
 10
2684.0
 20
3585.0
 40
2.5
 50
0
 51
360
 73
1
 97
0
 75
1
 76
1
 98
0
  0
CIRCLE
  5
128
330
17
100
AcDbEntity
  8
TEXT
370
13
420
3355443
100
AcDbCircle
 10
2684.0
 20
3585.0
 30
0.0
 40
2.5
  0
TEXT
  5
129
330
17
100
AcDbEntity
  8
TEXT
 62
7
100
AcDbText
 10
2770.0
 20
4016.5
 30
0.0
 40
13.5
  1
1.
  7
GOST
 11
2770.0
 21
4016.5
 31
0.0
100
AcDbText
  0
TEXT
  5
12A
330
17
100
AcDbEntity
  8
TEXT
 62
7
100
AcDbText
 10
2815.0
 20
4016.5
 30
0.0
 40
13.5
  1
Наружный слой/утеплитель стены W2
  7
GOST
 11
2815.0
 21
4016.5
 31
0.0
100
AcDbText
  0
TEXT
  5
12B
330
17
100
AcDbEntity
  8
TEXT
 62
7
100
AcDbText
 10
2770.0
 20
3990.9249999999997
 30
0.0
 40
13.5
  1
2.
  7
GOST
 11
2770.0
 21
3990.9249999999997
 31
0.0
100
AcDbText
  0
TEXT
  5
12C
330
17
100
AcDbEntity
  8
TEXT
 62
7
100
AcDbText
 10
2815.0
 20
3990.9249999999997
 30
0.0
 40
13.5
  1
Кладка 250
  7
GOST
 11
2815.0
 21
3990.9249999999997
 31
0.0
100
AcDbText
  0
TEXT
  5
12D
330
17
100
AcDbEntity
  8
TEXT
 62
7
100
AcDbText
 10
2770.0
 20
3965.3499999999995
 30
0.0
 40
13.5
  1
3.
  7
GOST
 11
2770.0
 21
3965.3499999999995
 31
0.0
100
AcDbText
  0
TEXT
  5
12E
330
17
100
AcDbEntity
  8
TEXT
 62
7
100
AcDbText
 10
2815.0
 20
3965.3499999999995
 30
0.0
 40
13.5
  1
Оконный блок сохраняется, закрыт; на внутреннем стекле —
  7
GOST
 11
2815.0
 21
3965.3499999999995
 31
0.0
100
AcDbText
  0
TEXT
  5
12F
330
17
100
AcDbEntity
  8
TEXT
 62
7
100
AcDbText
 10
2815.0
 20
3945.7749999999996
 30
0.0
 40
13.5
  1
светлая плёнка
  7
GOST
 11
2815.0
 21
3945.7749999999996
 31
0.0
100
AcDbText
  0
TEXT
  5
130
330
17
100
AcDbEntity
  8
TEXT
 62
7
100
AcDbText
 10
2770.0
 20
3920.2
 30
0.0
 40
13.5
  1
4.
  7
GOST
 11
2770.0
 21
3920.2
 31
0.0
100
AcDbText
  0
TEXT
  5
131
330
17
100
AcDbEntity
  8
TEXT
 62
7
100
AcDbText
 10
2815.0
 20
3920.2
 30
0.0
 40
13.5
  1
Минвата 50–100 на всю глубину откоса (λ ≤ 0,04)
  7
GOST
 11
2815.0
 21
3920.2
 31
0.0
100
AcDbText
  0
TEXT
  5
132
330
17
100
AcDbEntity
  8
TEXT
 62
7
100
AcDbText
 10
2770.0
 20
3894.625
 30
0.0
 40
13.5
  1
5.
  7
GOST
 11
2770.0
 21
3894.625
 31
0.0
100
AcDbText
  0
TEXT
  5
133
330
17
100
AcDbEntity
  8
TEXT
 62
7
100
AcDbText
 10
2815.0
 20
3894.625
 30
0.0
 40
13.5
  1
Пароизоляция Sd ≥ 50 м, бутиловая лента по контуру откосов
  7
GOST
 11
2815.0
 21
3894.625
 31
0.0
100
AcDbText
  0
TEXT
  5
134
330
17
100
AcDbEntity
  8
TEXT
 62
7
100
AcDbText
 10
2770.0
 20
3869.0499999999997
 30
0.0
 40
13.5
  1
6.
  7
GOST
 11
2770.0
 21
3869.0499999999997
 31
0.0
100
AcDbText
  0
TEXT
  5
135
330
17
100
AcDbEntity
  8
TEXT
 62
7
100
AcDbText
 10
2815.0
 20
3869.0499999999997
 30
0.0
 40
13.5
  1
Каркас ПП 60/27 / брус 50×50 в откосе — к откосам, не к блоку
  7
GOST
 11
2815.0
 21
3869.0499999999997
 31
0.0
100
AcDbText
  0
TEXT
  5
136
330
17
100
AcDbEntity
  8
TEXT
 62
7
100
AcDbText
 10
2770.0
 20
3843.4749999999995
 30
0.0
 40
13.5
  1
7.
  7
GOST
 11
2770.0
 21
3843.4749999999995
 31
0.0
100
AcDbText
  0
TEXT
  5
137
330
17
100
AcDbEntity
  8
TEXT
 62
7
100
AcDbText
 10
2815.0
 20
3843.4749999999995
 30
0.0
 40
13.5
  1
2×ГКЛ 12,5 заподлицо с плоскостью стены
  7
GOST
 11
2815.0
 21
3843.4749999999995
 31
0.0
100
AcDbText
  0
TEXT
  5
138
330
17
100
AcDbEntity
  8
TEXT
 62
7
100
AcDbText
 10
2770.0
 20
3817.8999999999996
 30
0.0
 40
13.5
  1
8.
  7
GOST
 11
2770.0
 21
3817.8999999999996
 31
0.0
100
AcDbText
  0
TEXT
  5
139
330
17
100
AcDbEntity
  8
TEXT
 62
7
100
AcDbText
 10
2815.0
 20
3817.8999999999996
 30
0.0
 40
13.5
  1
Буазери M06: МДФ 19, эмаль C3; центральная филёнка
  7
GOST
 11
2815.0
 21
3817.8999999999996
 31
0.0
100
AcDbText
  0
TEXT
  5
13A
330
17
100
AcDbEntity
  8
TEXT
 62
7
100
AcDbText
 10
2815.0
 20
3798.325
 30
0.0
 40
13.5
  1
1860×1600 — съёмная
  7
GOST
 11
2815.0
 21
3798.325
 31
0.0
100
AcDbText
  0
TEXT
  5
13B
330
17
100
AcDbEntity
  8
TEXT
 62
7
100
AcDbText
 10
2770.0
 20
3772.75
 30
0.0
 40
13.5
  1
9.
  7
GOST
 11
2770.0
 21
3772.75
 31
0.0
100
AcDbText
  0
TEXT
  5
13C
330
17
100
AcDbEntity
  8
TEXT
 62
7
100
AcDbText
 10
2815.0
 20
3772.75
 30
0.0
 40
13.5
  1
Молдинг 30
  7
GOST
 11
2815.0
 21
3772.75
 31
0.0
100
AcDbText
  0
TEXT
  5
13D
330
17
100
AcDbEntity
  8
TEXT
 62
7
100
AcDbText
 10
3550.0
 20
4100.0
 30
0.0
 40
22.0
  1
Узел 9. Ниша экрана 80″ в коробе-ламбрекене CB-3 (разрез поперёк W2)
  7
GOST
 11
3550.0
 21
4100.0
 31
0.0
100
AcDbText
  0
TEXT
  5
13E
330
17
100
AcDbEntity
  8
TEXT
420
5592405
100
AcDbText
 10
3550.0
 20
4068.0
 30
0.0
 40
15.0
  1
М 1:10 (схематично, по details.md)
  7
GOST
 11
3550.0
 21
4068.0
 31
0.0
100
AcDbText
  0
HATCH
  5
13F
330
17
100
AcDbEntity
  8
AR-FIN
 62
7
420
10506797
100
AcDbHatch
 10
0.0
 20
0.0
 30
0.0
210
0.0
220
0.0
230
1.0
  2
ANSI31
 70
0
 71
0
 91
1
 92
3
 72
0
 73
1
 93
4
 10
3570.0
 20
3550.0
 10
3770.0
 20
3550.0
 10
3770.0
 20
3920.0
 10
3570.0
 20
3920.0
 97
0
 75
1
 76
1
 52
0.0
 41
1.8333333333333333
 77
0
 78
1
 53
45.0
 43
0.0
 44
0.0
 45
-4.1159507222
 46
4.1159507222
 79
0
 98
0
  0
HATCH
  5
140
330
17
100
AcDbEntity
  8
AR-FIN
 62
7
420
15717060
440
33554559
100
AcDbHatch
 10
0.0
 20
0.0
 30
0.0
210
0.0
220
0.0
230
1.0
  2
SOLID
 70
1
 71
0
 91
1
 92
3
 72
0
 73
1
 93
4
 10
3570.0
 20
3550.0
 10
3770.0
 20
3550.0
 10
3770.0
 20
3920.0
 10
3570.0
 20
3920.0
 97
0
 75
1
 76
1
 98
0
  0
LWPOLYLINE
  5
141
330
17
100
AcDbEntity
  8
AR-FIN
 62
7
370
20
100
AcDbPolyline
 90
4
 70
1
 10
3570.0
 20
3550.0
 10
3770.0
 20
3550.0
 10
3770.0
 20
3920.0
 10
3570.0
 20
3920.0
  0
HATCH
  5
142
330
17
100
AcDbEntity
  8
AR-FIN
 62
7
420
5592405
100
AcDbHatch
 10
0.0
 20
0.0
 30
0.0
210
0.0
220
0.0
230
1.0
  2
ANSI31
 70
0
 71
0
 91
1
 92
3
 72
0
 73
1
 93
4
 10
3570.0
 20
3920.0
 10
4370.0
 20
3920.0
 10
4370.0
 20
4030.0
 10
3570.0
 20
4030.0
 97
0
 75
1
 76
1
 52
0.0
 41
2.75
 77
0
 78
1
 53
45.0
 43
0.0
 44
0.0
 45
-6.1739260833
 46
6.1739260833
 79
0
 98
0
  0
HATCH
  5
143
330
17
100
AcDbEntity
  8
AR-FIN
 62
7
420
14277081
440
33554559
100
AcDbHatch
 10
0.0
 20
0.0
 30
0.0
210
0.0
220
0.0
230
1.0
  2
SOLID
 70
1
 71
0
 91
1
 92
3
 72
0
 73
1
 93
4
 10
3570.0
 20
3920.0
 10
4370.0
 20
3920.0
 10
4370.0
 20
4030.0
 10
3570.0
 20
4030.0
 97
0
 75
1
 76
1
 98
0
  0
LWPOLYLINE
  5
144
330
17
100
AcDbEntity
  8
AR-FIN
 62
7
370
20
100
AcDbPolyline
 90
4
 70
1
 10
3570.0
 20
3920.0
 10
4370.0
 20
3920.0
 10
4370.0
 20
4030.0
 10
3570.0
 20
4030.0
  0
HATCH
  5
145
330
17
100
AcDbEntity
  8
AR-FIN
 62
7
420
11184810
100
AcDbHatch
 10
0.0
 20
0.0
 30
0.0
210
0.0
220
0.0
230
1.0
  2
ANSI31
 70
0
 71
0
 91
1
 92
3
 72
0
 73
1
 93
4
 10
3770.0
 20
3720.0
 10
3830.0
 20
3720.0
 10
3830.0
 20
3745.0
 10
3770.0
 20
3745.0
 97
0
 75
1
 76
1
 52
90.0
 41
2.75
 77
0
 78
1
 53
135.0
 43
0.0
 44
0.0
 45
-6.1739260833
 46
-6.1739260833
 79
0
 98
0
  0
LWPOLYLINE
  5
146
330
17
100
AcDbEntity
  8
AR-FIN
 62
7
370
20
100
AcDbPolyline
 90
4
 70
1
 10
3770.0
 20
3720.0
 10
3830.0
 20
3720.0
 10
3830.0
 20
3745.0
 10
3770.0
 20
3745.0
  0
HATCH
  5
147
330
17
100
AcDbEntity
  8
AR-FIN
 62
7
420
11184810
100
AcDbHatch
 10
0.0
 20
0.0
 30
0.0
210
0.0
220
0.0
230
1.0
  2
ANSI31
 70
0
 71
0
 91
1
 92
3
 72
0
 73
1
 93
4
 10
4010.0
 20
3720.0
 10
4070.0
 20
3720.0
 10
4070.0
 20
3745.0
 10
4010.0
 20
3745.0
 97
0
 75
1
 76
1
 52
90.0
 41
2.75
 77
0
 78
1
 53
135.0
 43
0.0
 44
0.0
 45
-6.1739260833
 46
-6.1739260833
 79
0
 98
0
  0
LWPOLYLINE
  5
148
330
17
100
AcDbEntity
  8
AR-FIN
 62
7
370
20
100
AcDbPolyline
 90
4
 70
1
 10
4010.0
 20
3720.0
 10
4070.0
 20
3720.0
 10
4070.0
 20
3745.0
 10
4010.0
 20
3745.0
  0
HATCH
  5
149
330
17
100
AcDbEntity
  8
AR-FIN
 62
7
420
11184810
100
AcDbHatch
 10
0.0
 20
0.0
 30
0.0
210
0.0
220
0.0
230
1.0
  2
ANSI31
 70
0
 71
0
 91
1
 92
3
 72
0
 73
1
 93
4
 10
4045.0
 20
3745.0
 10
4070.0
 20
3745.0
 10
4070.0
 20
3820.0
 10
4045.0
 20
3820.0
 97
0
 75
1
 76
1
 52
90.0
 41
2.75
 77
0
 78
1
 53
135.0
 43
0.0
 44
0.0
 45
-6.1739260833
 46
-6.1739260833
 79
0
 98
0
  0
LWPOLYLINE
  5
14A
330
17
100
AcDbEntity
  8
AR-FIN
 62
7
370
20
100
AcDbPolyline
 90
4
 70
1
 10
4045.0
 20
3745.0
 10
4070.0
 20
3745.0
 10
4070.0
 20
3820.0
 10
4045.0
 20
3820.0
  0
LWPOLYLINE
  5
14B
330
17
100
AcDbEntity
  8
AR-FIN
  6
DASHED
370
20
 48
30.0
420
7829367
100
AcDbPolyline
 90
4
 70
1
 10
3830.0
 20
3720.0
 10
4010.0
 20
3720.0
 10
4010.0
 20
3870.0
 10
3830.0
 20
3870.0
  0
HATCH
  5
14C
330
17
100
AcDbEntity
  8
AR-FIN
 62
7
420
8359053
100
AcDbHatch
 10
0.0
 20
0.0
 30
0.0
210
0.0
220
0.0
230
1.0
  2
SOLID
 70
1
 71
0
 91
1
 92
3
 72
0
 73
1
 93
4
 10
3840.0
 20
3730.0
 10
4000.0
 20
3730.0
 10
4000.0
 20
3860.0
 10
3840.0
 20
3860.0
 97
0
 75
1
 76
1
 98
0
  0
LWPOLYLINE
  5
14D
330
17
100
AcDbEntity
  8
AR-FIN
 62
7
370
20
100
AcDbPolyline
 90
4
 70
1
 10
3840.0
 20
3730.0
 10
4000.0
 20
3730.0
 10
4000.0
 20
3860.0
 10
3840.0
 20
3860.0
  0
LWPOLYLINE
  5
14E
330
17
100
AcDbEntity
  8
AR-FIN
  6
DASHED
370
20
 48
30.0
420
7829367
100
AcDbPolyline
 90
4
 70
1
 10
3910.0
 20
3720.0
 10
3930.0
 20
3720.0
 10
3930.0
 20
3730.0
 10
3910.0
 20
3730.0
  0
HATCH
  5
14F
330
17
100
AcDbEntity
  8
AR-FIN
 62
7
420
11184810
100
AcDbHatch
 10
0.0
 20
0.0
 30
0.0
210
0.0
220
0.0
230
1.0
  2
ANSI31
 70
0
 71
0
 91
1
 92
3
 72
0
 73
1
 93
4
 10
4070.0
 20
3820.0
 10
4370.0
 20
3820.0
 10
4370.0
 20
3832.5
 10
4070.0
 20
3832.5
 97
0
 75
1
 76
1
 52
90.0
 41
2.75
 77
0
 78
1
 53
135.0
 43
0.0
 44
0.0
 45
-6.1739260833
 46
-6.1739260833
 79
0
 98
0
  0
LWPOLYLINE
  5
150
330
17
100
AcDbEntity
  8
AR-FIN
 62
7
370
20
100
AcDbPolyline
 90
4
 70
1
 10
4070.0
 20
3820.0
 10
4370.0
 20
3820.0
 10
4370.0
 20
3832.5
 10
4070.0
 20
3832.5
  0
HATCH
  5
151
330
17
100
AcDbEntity
  8
AR-FIN
 62
7
420
16249315
100
AcDbHatch
 10
0.0
 20
0.0
 30
0.0
210
0.0
220
0.0
230
1.0
  2
SOLID
 70
1
 71
0
 91
1
 92
3
 72
0
 73
1
 93
4
 10
4010.0
 20
3660.0
 10
4070.0
 20
3660.0
 10
4070.0
 20
3720.0
 10
4010.0
 20
3720.0
 97
0
 75
1
 76
1
 98
0
  0
LWPOLYLINE
  5
152
330
17
100
AcDbEntity
  8
AR-FIN
 62
7
370
20
100
AcDbPolyline
 90
4
 70
1
 10
4010.0
 20
3660.0
 10
4070.0
 20
3660.0
 10
4070.0
 20
3720.0
 10
4010.0
 20
3720.0
  0
HATCH
  5
153
330
17
100
AcDbEntity
  8
DIM
 62
7
420
16777215
100
AcDbHatch
 10
0.0
 20
0.0
 30
0.0
210
0.0
220
0.0
230
1.0
  2
SOLID
 70
1
 71
0
 91
1
 92
3
 72
0
 73
1
 93
3
 10
4220.0
 20
3820.0
 10
4208.0
 20
3836.0
 10
4232.0
 20
3836.0
 97
0
 75
1
 76
1
 98
0
  0
LWPOLYLINE
  5
154
330
17
100
AcDbEntity
  8
DIM
 62
7
370
20
100
AcDbPolyline
 90
3
 70
1
 10
4220.0
 20
3820.0
 10
4208.0
 20
3836.0
 10
4232.0
 20
3836.0
  0
LWPOLYLINE
  5
155
330
17
100
AcDbEntity
  8
DIM
 62
7
370
20
100
AcDbPolyline
 90
2
 70
0
 10
4220.0
 20
3836.0
 10
4310.0
 20
3836.0
  0
TEXT
  5
156
330
17
100
AcDbEntity
  8
DIM
 62
7
100
AcDbText
 10
4226.0
 20
3841.0
 30
0.0
 40
15.0
  1
+2,650
  7
GOST
 11
4226.0
 21
3841.0
 31
0.0
100
AcDbText
  0
HATCH
  5
157
330
17
100
AcDbEntity
  8
DIM
 62
7
420
16777215
100
AcDbHatch
 10
0.0
 20
0.0
 30
0.0
210
0.0
220
0.0
230
1.0
  2
SOLID
 70
1
 71
0
 91
1
 92
3
 72
0
 73
1
 93
3
 10
3620.0
 20
3620.0
 10
3608.0
 20
3636.0
 10
3632.0
 20
3636.0
 97
0
 75
1
 76
1
 98
0
  0
LWPOLYLINE
  5
158
330
17
100
AcDbEntity
  8
DIM
 62
7
370
20
100
AcDbPolyline
 90
3
 70
1
 10
3620.0
 20
3620.0
 10
3608.0
 20
3636.0
 10
3632.0
 20
3636.0
  0
LWPOLYLINE
  5
159
330
17
100
AcDbEntity
  8
DIM
 62
7
370
20
100
AcDbPolyline
 90
2
 70
0
 10
3620.0
 20
3636.0
 10
3710.0
 20
3636.0
  0
TEXT
  5
15A
330
17
100
AcDbEntity
  8
DIM
 62
7
100
AcDbText
 10
3626.0
 20
3641.0
 30
0.0
 40
15.0
  1
+2,450
  7
GOST
 11
3626.0
 21
3641.0
 31
0.0
100
AcDbText
  0
LWPOLYLINE
  5
15B
330
17
100
AcDbEntity
  8
AR-FIN
  6
DASHDOT
370
13
 48
30.0
420
10066329
100
AcDbPolyline
 90
4
 70
1
 10
3570.0
 20
3550.0
 10
4370.0
 20
3550.0
 10
4370.0
 20
4030.0
 10
3570.0
 20
4030.0
  0
TEXT
  5
15C
330
17
100
AcDbEntity
  8
TEXT
420
1710618
100
AcDbText
 10
3526.0693158436216
 20
3727.5
 30
0.0
 40
15.0
  1
1
  7
GOST
 11
3526.0693158436216
 21
3727.5
 31
0.0
100
AcDbText
  0
LWPOLYLINE
  5
15D
330
17
100
AcDbEntity
  8
TEXT
370
15
420
3355443
100
AcDbPolyline
 90
2
 70
0
 10
3670.0
 20
3735.0
 10
3543.0
 20
3735.0
  0
HATCH
  5
15E
330
17
100
AcDbEntity
  8
TEXT
 62
7
420
3355443
100
AcDbHatch
 10
0.0
 20
0.0
 30
0.0
210
0.0
220
0.0
230
1.0
  2
SOLID
 70
1
 71
0
 91
1
 92
1
 93
1
 72
2
 10
3670.0
 20
3735.0
 40
2.5
 50
0
 51
360
 73
1
 97
0
 75
1
 76
1
 98
0
  0
CIRCLE
  5
15F
330
17
100
AcDbEntity
  8
TEXT
370
13
420
3355443
100
AcDbCircle
 10
3670.0
 20
3735.0
 30
0.0
 40
2.5
  0
TEXT
  5
160
330
17
100
AcDbEntity
  8
TEXT
420
1710618
100
AcDbText
 10
3963.2211291152266
 20
4050.0
 30
0.0
 40
15.0
  1
2
  7
GOST
 11
3963.2211291152266
 21
4050.0
 31
0.0
100
AcDbText
  0
LWPOLYLINE
  5
161
330
17
100
AcDbEntity
  8
TEXT
370
15
420
3355443
100
AcDbPolyline
 90
2
 70
0
 10
3970.0
 20
3975.0
 10
3970.0
 20
4047.0
  0
HATCH
  5
162
330
17
100
AcDbEntity
  8
TEXT
 62
7
420
3355443
100
AcDbHatch
 10
0.0
 20
0.0
 30
0.0
210
0.0
220
0.0
230
1.0
  2
SOLID
 70
1
 71
0
 91
1
 92
1
 93
1
 72
2
 10
3970.0
 20
3975.0
 40
2.5
 50
0
 51
360
 73
1
 97
0
 75
1
 76
1
 98
0
  0
CIRCLE
  5
163
330
17
100
AcDbEntity
  8
TEXT
370
13
420
3355443
100
AcDbCircle
 10
3970.0
 20
3975.0
 30
0.0
 40
2.5
  0
TEXT
  5
164
330
17
100
AcDbEntity
  8
TEXT
420
1710618
100
AcDbText
 10
3830.0
 20
3762.5
 30
0.0
 40
15.0
  1
3
  7
GOST
 11
3830.0
 21
3762.5
 31
0.0
100
AcDbText
  0
LWPOLYLINE
  5
165
330
17
100
AcDbEntity
  8
TEXT
370
15
420
3355443
100
AcDbPolyline
 90
2
 70
0
 10
3800.0
 20
3732.5
 10
3830.0
 20
3762.5
  0
TEXT
  5
166
330
17
100
AcDbEntity
  8
TEXT
420
1710618
100
AcDbText
 10
3950.0
 20
3825.0
 30
0.0
 40
15.0
  1
4
  7
GOST
 11
3950.0
 21
3825.0
 31
0.0
100
AcDbText
  0
LWPOLYLINE
  5
167
330
17
100
AcDbEntity
  8
TEXT
370
15
420
3355443
100
AcDbPolyline
 90
2
 70
0
 10
3920.0
 20
3795.0
 10
3950.0
 20
3825.0
  0
TEXT
  5
168
330
17
100
AcDbEntity
  8
TEXT
420
1710618
100
AcDbText
 10
3950.0
 20
3825.0
 30
0.0
 40
15.0
  1
5
  7
GOST
 11
3950.0
 21
3825.0
 31
0.0
100
AcDbText
  0
LWPOLYLINE
  5
169
330
17
100
AcDbEntity
  8
TEXT
370
15
420
3355443
100
AcDbPolyline
 90
2
 70
0
 10
3920.0
 20
3795.0
 10
3950.0
 20
3825.0
  0
TEXT
  5
16A
330
17
100
AcDbEntity
  8
TEXT
420
1710618
100
AcDbText
 10
3950.0
 20
3755.0
 30
0.0
 40
15.0
  1
6
  7
GOST
 11
3950.0
 21
3755.0
 31
0.0
100
AcDbText
  0
LWPOLYLINE
  5
16B
330
17
100
AcDbEntity
  8
TEXT
370
15
420
3355443
100
AcDbPolyline
 90
2
 70
0
 10
3920.0
 20
3725.0
 10
3950.0
 20
3755.0
  0
TEXT
  5
16C
330
17
100
AcDbEntity
  8
TEXT
420
1710618
100
AcDbText
 10
4250.0
 20
3856.25
 30
0.0
 40
15.0
  1
7
  7
GOST
 11
4250.0
 21
3856.25
 31
0.0
100
AcDbText
  0
LWPOLYLINE
  5
16D
330
17
100
AcDbEntity
  8
TEXT
370
15
420
3355443
100
AcDbPolyline
 90
2
 70
0
 10
4220.0
 20
3826.25
 10
4250.0
 20
3856.25
  0
TEXT
  5
16E
330
17
100
AcDbEntity
  8
TEXT
420
1710618
100
AcDbText
 10
4070.0
 20
3720.0
 30
0.0
 40
15.0
  1
8
  7
GOST
 11
4070.0
 21
3720.0
 31
0.0
100
AcDbText
  0
LWPOLYLINE
  5
16F
330
17
100
AcDbEntity
  8
TEXT
370
15
420
3355443
100
AcDbPolyline
 90
2
 70
0
 10
4040.0
 20
3690.0
 10
4070.0
 20
3720.0
  0
TEXT
  5
170
330
17
100
AcDbEntity
  8
TEXT
 62
7
100
AcDbText
 10
4410.0
 20
4016.5
 30
0.0
 40
13.5
  1
1.
  7
GOST
 11
4410.0
 21
4016.5
 31
0.0
100
AcDbText
  0
TEXT
  5
171
330
17
100
AcDbEntity
  8
TEXT
 62
7
100
AcDbText
 10
4455.0
 20
4016.5
 30
0.0
 40
13.5
  1
Стена W2 (портал O4: перемычка до +2450, полоса стены C1 до
  7
GOST
 11
4455.0
 21
4016.5
 31
0.0
100
AcDbText
  0
TEXT
  5
172
330
17
100
AcDbEntity
  8
TEXT
 62
7
100
AcDbText
 10
4455.0
 20
3996.925
 30
0.0
 40
13.5
  1
+2550)
  7
GOST
 11
4455.0
 21
3996.925
 31
0.0
100
AcDbText
  0
TEXT
  5
173
330
17
100
AcDbEntity
  8
TEXT
 62
7
100
AcDbText
 10
4410.0
 20
3971.35
 30
0.0
 40
13.5
  1
2.
  7
GOST
 11
4410.0
 21
3971.35
 31
0.0
100
AcDbText
  0
TEXT
  5
174
330
17
100
AcDbEntity
  8
TEXT
 62
7
100
AcDbText
 10
4455.0
 20
3971.35
 30
0.0
 40
13.5
  1
Плита перекрытия
  7
GOST
 11
4455.0
 21
3971.35
 31
0.0
100
AcDbText
  0
TEXT
  5
175
330
17
100
AcDbEntity
  8
TEXT
 62
7
100
AcDbText
 10
4410.0
 20
3945.7749999999996
 30
0.0
 40
13.5
  1
3.
  7
GOST
 11
4410.0
 21
3945.7749999999996
 31
0.0
100
AcDbText
  0
TEXT
  5
176
330
17
100
AcDbEntity
  8
TEXT
 62
7
100
AcDbText
 10
4455.0
 20
3945.7749999999996
 30
0.0
 40
13.5
  1
Короб CB-3: 2×ГКЛ 12,5 по каркасу к W2 и плите, низ +2550
  7
GOST
 11
4455.0
 21
3945.7749999999996
 31
0.0
100
AcDbText
  0
TEXT
  5
177
330
17
100
AcDbEntity
  8
TEXT
 62
7
100
AcDbText
 10
4410.0
 20
3920.2
 30
0.0
 40
13.5
  1
4.
  7
GOST
 11
4410.0
 21
3920.2
 31
0.0
100
AcDbText
  0
TEXT
  5
178
330
17
100
AcDbEntity
  8
TEXT
 62
7
100
AcDbText
 10
4455.0
 20
3920.2
 30
0.0
 40
13.5
  1
Ниша 180×150 (+2550..+2700), окраска C6
  7
GOST
 11
4455.0
 21
3920.2
 31
0.0
100
AcDbText
  0
TEXT
  5
179
330
17
100
AcDbEntity
  8
TEXT
 62
7
100
AcDbText
 10
4410.0
 20
3894.625
 30
0.0
 40
13.5
  1
5.
  7
GOST
 11
4410.0
 21
3894.625
 31
0.0
100
AcDbText
  0
TEXT
  5
17A
330
17
100
AcDbEntity
  8
TEXT
 62
7
100
AcDbText
 10
4455.0
 20
3894.625
 30
0.0
 40
13.5
  1
Корпус экрана F32 ≈ 180×150 на 2 кронштейнах к плите (анкер
  7
GOST
 11
4455.0
 21
3894.625
 31
0.0
100
AcDbText
  0
TEXT
  5
17B
330
17
100
AcDbEntity
  8
TEXT
 62
7
100
AcDbText
 10
4455.0
 20
3875.05
 30
0.0
 40
13.5
  1
в плиту)
  7
GOST
 11
4455.0
 21
3875.05
 31
0.0
100
AcDbText
  0
TEXT
  5
17C
330
17
100
AcDbEntity
  8
TEXT
 62
7
100
AcDbText
 10
4410.0
 20
3849.475
 30
0.0
 40
13.5
  1
6.
  7
GOST
 11
4410.0
 21
3849.475
 31
0.0
100
AcDbText
  0
TEXT
  5
17D
330
17
100
AcDbEntity
  8
TEXT
 62
7
100
AcDbText
 10
4455.0
 20
3849.475
 30
0.0
 40
13.5
  1
Щель полотна 20 по оси x=150, кромки — алюминиевый уголок
  7
GOST
 11
4455.0
 21
3849.475
 31
0.0
100
AcDbText
  0
TEXT
  5
17E
330
17
100
AcDbEntity
  8
TEXT
 62
7
100
AcDbText
 10
4410.0
 20
3823.8999999999996
 30
0.0
 40
13.5
  1
7.
  7
GOST
 11
4410.0
 21
3823.8999999999996
 31
0.0
100
AcDbText
  0
TEXT
  5
17F
330
17
100
AcDbEntity
  8
TEXT
 62
7
100
AcDbText
 10
4455.0
 20
3823.8999999999996
 30
0.0
 40
13.5
  1
Потолок кухни ГКЛ +2650
  7
GOST
 11
4455.0
 21
3823.8999999999996
 31
0.0
100
AcDbText
  0
TEXT
  5
180
330
17
100
AcDbEntity
  8
TEXT
 62
7
100
AcDbText
 10
4410.0
 20
3798.325
 30
0.0
 40
13.5
  1
8.
  7
GOST
 11
4410.0
 21
3798.325
 31
0.0
100
AcDbText
  0
TEXT
  5
181
330
17
100
AcDbEntity
  8
TEXT
 62
7
100
AcDbText
 10
4455.0
 20
3798.325
 30
0.0
 40
13.5
  1
Профиль-карниз 60 по нижней кромке
  7
GOST
 11
4455.0
 21
3798.325
 31
0.0
100
AcDbText
  0
TEXT
  5
182
330
17
100
AcDbEntity
  8
TEXT
 62
7
100
AcDbText
 10
240.0
 20
3040.0
 30
0.0
 40
22.0
  1
Узел 10. Пол кухня / балкон через портал O4 (J1, D22)
  7
GOST
 11
240.0
 21
3040.0
 31
0.0
100
AcDbText
  0
TEXT
  5
183
330
17
100
AcDbEntity
  8
TEXT
420
5592405
100
AcDbText
 10
240.0
 20
3008.0
 30
0.0
 40
15.0
  1
М 1:10 (схематично, по details.md)
  7
GOST
 11
240.0
 21
3008.0
 31
0.0
100
AcDbText
  0
HATCH
  5
184
330
17
100
AcDbEntity
  8
AR-FIN
 62
7
420
5592405
100
AcDbHatch
 10
0.0
 20
0.0
 30
0.0
210
0.0
220
0.0
230
1.0
  2
ANSI31
 70
0
 71
0
 91
1
 92
3
 72
0
 73
1
 93
4
 10
260.0
 20
2690.0
 10
840.0
 20
2690.0
 10
840.0
 20
2790.0
 10
260.0
 20
2790.0
 97
0
 75
1
 76
1
 52
0.0
 41
2.75
 77
0
 78
1
 53
45.0
 43
0.0
 44
0.0
 45
-6.1739260833
 46
6.1739260833
 79
0
 98
0
  0
HATCH
  5
185
330
17
100
AcDbEntity
  8
AR-FIN
 62
7
420
14277081
440
33554559
100
AcDbHatch
 10
0.0
 20
0.0
 30
0.0
210
0.0
220
0.0
230
1.0
  2
SOLID
 70
1
 71
0
 91
1
 92
3
 72
0
 73
1
 93
4
 10
260.0
 20
2690.0
 10
840.0
 20
2690.0
 10
840.0
 20
2790.0
 10
260.0
 20
2790.0
 97
0
 75
1
 76
1
 98
0
  0
LWPOLYLINE
  5
186
330
17
100
AcDbEntity
  8
AR-FIN
 62
7
370
20
100
AcDbPolyline
 90
4
 70
1
 10
260.0
 20
2690.0
 10
840.0
 20
2690.0
 10
840.0
 20
2790.0
 10
260.0
 20
2790.0
  0
LWPOLYLINE
  5
187
330
17
100
AcDbEntity
  8
AR-FIN
  6
DASHED
370
35
 48
30.0
420
5592405
100
AcDbPolyline
 90
2
 70
0
 10
260.0
 20
2790.0
 10
840.0
 20
2790.0
  0
HATCH
  5
188
330
17
100
AcDbEntity
  8
AR-FIN
 62
7
420
4889162
100
AcDbHatch
 10
0.0
 20
0.0
 30
0.0
210
0.0
220
0.0
230
1.0
  2
LINE
 70
0
 71
0
 91
1
 92
3
 72
0
 73
1
 93
4
 10
260.0
 20
2790.0
 10
840.0
 20
2790.0
 10
840.0
 20
2840.0
 10
260.0
 20
2840.0
 97
0
 75
1
 76
1
 52
0.0
 41
2.75
 77
0
 78
1
 53
0.0
 43
0.0
 44
0.0
 45
0.0
 46
8.73125
 79
0
 98
0
  0
HATCH
  5
189
330
17
100
AcDbEntity
  8
AR-FIN
 62
7
420
13495501
440
33554559
100
AcDbHatch
 10
0.0
 20
0.0
 30
0.0
210
0.0
220
0.0
230
1.0
  2
SOLID
 70
1
 71
0
 91
1
 92
3
 72
0
 73
1
 93
4
 10
260.0
 20
2790.0
 10
840.0
 20
2790.0
 10
840.0
 20
2840.0
 10
260.0
 20
2840.0
 97
0
 75
1
 76
1
 98
0
  0
LWPOLYLINE
  5
18A
330
17
100
AcDbEntity
  8
AR-FIN
 62
7
370
20
100
AcDbPolyline
 90
4
 70
1
 10
260.0
 20
2790.0
 10
840.0
 20
2790.0
 10
840.0
 20
2840.0
 10
260.0
 20
2840.0
  0
LWPOLYLINE
  5
18B
330
17
100
AcDbEntity
  8
AR-FIN
  6
DASHED
370
35
 48
30.0
420
3049153
100
AcDbPolyline
 90
2
 70
0
 10
260.0
 20
2840.0
 10
840.0
 20
2840.0
  0
HATCH
  5
18C
330
17
100
AcDbEntity
  8
AR-FIN
 62
7
420
10066329
100
AcDbHatch
 10
0.0
 20
0.0
 30
0.0
210
0.0
220
0.0
230
1.0
  2
DOTS
 70
0
 71
0
 91
1
 92
3
 72
0
 73
1
 93
4
 10
260.0
 20
2840.0
 10
840.0
 20
2840.0
 10
840.0
 20
2895.0
 10
260.0
 20
2895.0
 97
0
 75
1
 76
1
 52
0.0
 41
5.5
 77
0
 78
1
 53
0.0
 43
0.0
 44
0.0
 45
4.365625
 46
8.73125
 79
2
 49
0.0
 49
-8.73125
 98
0
  0
HATCH
  5
18D
330
17
100
AcDbEntity
  8
AR-FIN
 62
7
420
15527148
440
33554559
100
AcDbHatch
 10
0.0
 20
0.0
 30
0.0
210
0.0
220
0.0
230
1.0
  2
SOLID
 70
1
 71
0
 91
1
 92
3
 72
0
 73
1
 93
4
 10
260.0
 20
2840.0
 10
840.0
 20
2840.0
 10
840.0
 20
2895.0
 10
260.0
 20
2895.0
 97
0
 75
1
 76
1
 98
0
  0
LWPOLYLINE
  5
18E
330
17
100
AcDbEntity
  8
AR-FIN
 62
7
370
20
100
AcDbPolyline
 90
4
 70
1
 10
260.0
 20
2840.0
 10
840.0
 20
2840.0
 10
840.0
 20
2895.0
 10
260.0
 20
2895.0
  0
HATCH
  5
18F
330
17
100
AcDbEntity
  8
AR-FIN
 62
7
420
15105570
100
AcDbHatch
 10
0.0
 20
0.0
 30
0.0
210
0.0
220
0.0
230
1.0
  2
SOLID
 70
1
 71
0
 91
1
 92
3
 72
0
 73
1
 93
4
 10
260.0
 20
2895.0
 10
840.0
 20
2895.0
 10
840.0
 20
2905.0
 10
260.0
 20
2905.0
 97
0
 75
1
 76
1
 98
0
  0
LWPOLYLINE
  5
190
330
17
100
AcDbEntity
  8
AR-FIN
 62
7
370
20
100
AcDbPolyline
 90
4
 70
1
 10
260.0
 20
2895.0
 10
840.0
 20
2895.0
 10
840.0
 20
2905.0
 10
260.0
 20
2905.0
  0
HATCH
  5
191
330
17
100
AcDbEntity
  8
AR-FIN
 62
7
420
12434877
100
AcDbHatch
 10
0.0
 20
0.0
 30
0.0
210
0.0
220
0.0
230
1.0
  2
SOLID
 70
1
 71
0
 91
1
 92
3
 72
0
 73
1
 93
4
 10
260.0
 20
2905.0
 10
840.0
 20
2905.0
 10
840.0
 20
2905.5
 10
260.0
 20
2905.5
 97
0
 75
1
 76
1
 98
0
  0
LWPOLYLINE
  5
192
330
17
100
AcDbEntity
  8
AR-FIN
 62
7
370
20
100
AcDbPolyline
 90
4
 70
1
 10
260.0
 20
2905.0
 10
840.0
 20
2905.0
 10
840.0
 20
2905.5
 10
260.0
 20
2905.5
  0
HATCH
  5
193
330
17
100
AcDbEntity
  8
AR-FIN
 62
7
420
13084541
100
AcDbHatch
 10
0.0
 20
0.0
 30
0.0
210
0.0
220
0.0
230
1.0
  2
SOLID
 70
1
 71
0
 91
1
 92
3
 72
0
 73
1
 93
4
 10
260.0
 20
2905.5
 10
840.0
 20
2905.5
 10
840.0
 20
2910.0
 10
260.0
 20
2910.0
 97
0
 75
1
 76
1
 98
0
  0
LWPOLYLINE
  5
194
330
17
100
AcDbEntity
  8
AR-FIN
 62
7
370
20
100
AcDbPolyline
 90
4
 70
1
 10
260.0
 20
2905.5
 10
840.0
 20
2905.5
 10
840.0
 20
2910.0
 10
260.0
 20
2910.0
  0
HATCH
  5
195
330
17
100
AcDbEntity
  8
AR-FIN
 62
7
420
10506797
100
AcDbHatch
 10
0.0
 20
0.0
 30
0.0
210
0.0
220
0.0
230
1.0
  2
ANSI31
 70
0
 71
0
 91
1
 92
3
 72
0
 73
1
 93
4
 10
840.0
 20
2650.0
 10
1260.0
 20
2650.0
 10
1260.0
 20
2810.0
 10
840.0
 20
2810.0
 97
0
 75
1
 76
1
 52
0.0
 41
1.8333333333333333
 77
0
 78
1
 53
45.0
 43
0.0
 44
0.0
 45
-4.1159507222
 46
4.1159507222
 79
0
 98
0
  0
HATCH
  5
196
330
17
100
AcDbEntity
  8
AR-FIN
 62
7
420
15717060
440
33554559
100
AcDbHatch
 10
0.0
 20
0.0
 30
0.0
210
0.0
220
0.0
230
1.0
  2
SOLID
 70
1
 71
0
 91
1
 92
3
 72
0
 73
1
 93
4
 10
840.0
 20
2650.0
 10
1260.0
 20
2650.0
 10
1260.0
 20
2810.0
 10
840.0
 20
2810.0
 97
0
 75
1
 76
1
 98
0
  0
LWPOLYLINE
  5
197
330
17
100
AcDbEntity
  8
AR-FIN
 62
7
370
20
100
AcDbPolyline
 90
4
 70
1
 10
840.0
 20
2650.0
 10
1260.0
 20
2650.0
 10
1260.0
 20
2810.0
 10
840.0
 20
2810.0
  0
HATCH
  5
198
330
17
100
AcDbEntity
  8
AR-FIN
 62
7
420
10066329
100
AcDbHatch
 10
0.0
 20
0.0
 30
0.0
210
0.0
220
0.0
230
1.0
  2
DOTS
 70
0
 71
0
 91
1
 92
3
 72
0
 73
1
 93
4
 10
840.0
 20
2810.0
 10
1050.0
 20
2810.0
 10
1050.0
 20
2905.0
 10
840.0
 20
2905.0
 97
0
 75
1
 76
1
 52
0.0
 41
5.5
 77
0
 78
1
 53
0.0
 43
0.0
 44
0.0
 45
4.365625
 46
8.73125
 79
2
 49
0.0
 49
-8.73125
 98
0
  0
HATCH
  5
199
330
17
100
AcDbEntity
  8
AR-FIN
 62
7
420
15527148
440
33554559
100
AcDbHatch
 10
0.0
 20
0.0
 30
0.0
210
0.0
220
0.0
230
1.0
  2
SOLID
 70
1
 71
0
 91
1
 92
3
 72
0
 73
1
 93
4
 10
840.0
 20
2810.0
 10
1050.0
 20
2810.0
 10
1050.0
 20
2905.0
 10
840.0
 20
2905.0
 97
0
 75
1
 76
1
 98
0
  0
LWPOLYLINE
  5
19A
330
17
100
AcDbEntity
  8
AR-FIN
 62
7
370
20
100
AcDbPolyline
 90
4
 70
1
 10
840.0
 20
2810.0
 10
1050.0
 20
2810.0
 10
1050.0
 20
2905.0
 10
840.0
 20
2905.0
  0
HATCH
  5
19B
330
17
100
AcDbEntity
  8
AR-FIN
 62
7
420
13084541
100
AcDbHatch
 10
0.0
 20
0.0
 30
0.0
210
0.0
220
0.0
230
1.0
  2
SOLID
 70
1
 71
0
 91
1
 92
3
 72
0
 73
1
 93
4
 10
840.0
 20
2905.0
 10
1050.0
 20
2905.0
 10
1050.0
 20
2910.0
 10
840.0
 20
2910.0
 97
0
 75
1
 76
1
 98
0
  0
LWPOLYLINE
  5
19C
330
17
100
AcDbEntity
  8
AR-FIN
 62
7
370
20
100
AcDbPolyline
 90
4
 70
1
 10
840.0
 20
2905.0
 10
1050.0
 20
2905.0
 10
1050.0
 20
2910.0
 10
840.0
 20
2910.0
  0
HATCH
  5
19D
330
17
100
AcDbEntity
  8
AR-FIN
 62
7
420
10066329
100
AcDbHatch
 10
0.0
 20
0.0
 30
0.0
210
0.0
220
0.0
230
1.0
  2
DOTS
 70
0
 71
0
 91
1
 92
3
 72
0
 73
1
 93
4
 10
1050.0
 20
2810.0
 10
1260.0
 20
2810.0
 10
1260.0
 20
2893.0
 10
1050.0
 20
2893.0
 97
0
 75
1
 76
1
 52
0.0
 41
5.5
 77
0
 78
1
 53
0.0
 43
0.0
 44
0.0
 45
4.365625
 46
8.73125
 79
2
 49
0.0
 49
-8.73125
 98
0
  0
HATCH
  5
19E
330
17
100
AcDbEntity
  8
AR-FIN
 62
7
420
15527148
440
33554559
100
AcDbHatch
 10
0.0
 20
0.0
 30
0.0
210
0.0
220
0.0
230
1.0
  2
SOLID
 70
1
 71
0
 91
1
 92
3
 72
0
 73
1
 93
4
 10
1050.0
 20
2810.0
 10
1260.0
 20
2810.0
 10
1260.0
 20
2893.0
 10
1050.0
 20
2893.0
 97
0
 75
1
 76
1
 98
0
  0
LWPOLYLINE
  5
19F
330
17
100
AcDbEntity
  8
AR-FIN
 62
7
370
20
100
AcDbPolyline
 90
4
 70
1
 10
1050.0
 20
2810.0
 10
1260.0
 20
2810.0
 10
1260.0
 20
2893.0
 10
1050.0
 20
2893.0
  0
HATCH
  5
1A0
330
17
100
AcDbEntity
  8
AR-FIN
 62
7
420
11569232
100
AcDbHatch
 10
0.0
 20
0.0
 30
0.0
210
0.0
220
0.0
230
1.0
  2
LINE
 70
0
 71
0
 91
1
 92
3
 72
0
 73
1
 93
4
 10
1050.0
 20
2893.0
 10
1260.0
 20
2893.0
 10
1260.0
 20
2910.0
 10
1050.0
 20
2910.0
 97
0
 75
1
 76
1
 52
90.0
 41
2.75
 77
0
 78
1
 53
90.0
 43
0.0
 44
0.0
 45
-8.73125
 46
0.0
 79
0
 98
0
  0
HATCH
  5
1A1
330
17
100
AcDbEntity
  8
AR-FIN
 62
7
420
14928288
440
33554559
100
AcDbHatch
 10
0.0
 20
0.0
 30
0.0
210
0.0
220
0.0
230
1.0
  2
SOLID
 70
1
 71
0
 91
1
 92
3
 72
0
 73
1
 93
4
 10
1050.0
 20
2893.0
 10
1260.0
 20
2893.0
 10
1260.0
 20
2910.0
 10
1050.0
 20
2910.0
 97
0
 75
1
 76
1
 98
0
  0
LWPOLYLINE
  5
1A2
330
17
100
AcDbEntity
  8
AR-FIN
 62
7
370
20
100
AcDbPolyline
 90
4
 70
1
 10
1050.0
 20
2893.0
 10
1260.0
 20
2893.0
 10
1260.0
 20
2910.0
 10
1050.0
 20
2910.0
  0
HATCH
  5
1A3
330
17
100
AcDbEntity
  8
AR-FIN
 62
7
420
5592405
100
AcDbHatch
 10
0.0
 20
0.0
 30
0.0
210
0.0
220
0.0
230
1.0
  2
ANSI31
 70
0
 71
0
 91
1
 92
3
 72
0
 73
1
 93
4
 10
1260.0
 20
2710.0
 10
1780.0
 20
2710.0
 10
1780.0
 20
2810.0
 10
1260.0
 20
2810.0
 97
0
 75
1
 76
1
 52
0.0
 41
2.75
 77
0
 78
1
 53
45.0
 43
0.0
 44
0.0
 45
-6.1739260833
 46
6.1739260833
 79
0
 98
0
  0
HATCH
  5
1A4
330
17
100
AcDbEntity
  8
AR-FIN
 62
7
420
14277081
440
33554559
100
AcDbHatch
 10
0.0
 20
0.0
 30
0.0
210
0.0
220
0.0
230
1.0
  2
SOLID
 70
1
 71
0
 91
1
 92
3
 72
0
 73
1
 93
4
 10
1260.0
 20
2710.0
 10
1780.0
 20
2710.0
 10
1780.0
 20
2810.0
 10
1260.0
 20
2810.0
 97
0
 75
1
 76
1
 98
0
  0
LWPOLYLINE
  5
1A5
330
17
100
AcDbEntity
  8
AR-FIN
 62
7
370
20
100
AcDbPolyline
 90
4
 70
1
 10
1260.0
 20
2710.0
 10
1780.0
 20
2710.0
 10
1780.0
 20
2810.0
 10
1260.0
 20
2810.0
  0
HATCH
  5
1A6
330
17
100
AcDbEntity
  8
AR-FIN
 62
7
420
7829367
100
AcDbHatch
 10
0.0
 20
0.0
 30
0.0
210
0.0
220
0.0
230
1.0
  2
DOTS
 70
0
 71
0
 91
1
 92
3
 72
0
 73
1
 93
4
 10
1260.0
 20
2810.0
 10
1780.0
 20
2810.0
 10
1780.0
 20
2890.0
 10
1260.0
 20
2890.0
 97
0
 75
1
 76
1
 52
0.0
 41
5.5
 77
0
 78
1
 53
0.0
 43
0.0
 44
0.0
 45
4.365625
 46
8.73125
 79
2
 49
0.0
 49
-8.73125
 98
0
  0
HATCH
  5
1A7
330
17
100
AcDbEntity
  8
AR-FIN
 62
7
420
15000804
440
33554559
100
AcDbHatch
 10
0.0
 20
0.0
 30
0.0
210
0.0
220
0.0
230
1.0
  2
SOLID
 70
1
 71
0
 91
1
 92
3
 72
0
 73
1
 93
4
 10
1260.0
 20
2810.0
 10
1780.0
 20
2810.0
 10
1780.0
 20
2890.0
 10
1260.0
 20
2890.0
 97
0
 75
1
 76
1
 98
0
  0
LWPOLYLINE
  5
1A8
330
17
100
AcDbEntity
  8
AR-FIN
 62
7
370
20
100
AcDbPolyline
 90
4
 70
1
 10
1260.0
 20
2810.0
 10
1780.0
 20
2810.0
 10
1780.0
 20
2890.0
 10
1260.0
 20
2890.0
  0
HATCH
  5
1A9
330
17
100
AcDbEntity
  8
AR-FIN
 62
7
420
12434877
100
AcDbHatch
 10
0.0
 20
0.0
 30
0.0
210
0.0
220
0.0
230
1.0
  2
SOLID
 70
1
 71
0
 91
1
 92
3
 72
0
 73
1
 93
4
 10
1260.0
 20
2890.0
 10
1780.0
 20
2890.0
 10
1780.0
 20
2893.0
 10
1260.0
 20
2893.0
 97
0
 75
1
 76
1
 98
0
  0
LWPOLYLINE
  5
1AA
330
17
100
AcDbEntity
  8
AR-FIN
 62
7
370
20
100
AcDbPolyline
 90
4
 70
1
 10
1260.0
 20
2890.0
 10
1780.0
 20
2890.0
 10
1780.0
 20
2893.0
 10
1260.0
 20
2893.0
  0
HATCH
  5
1AB
330
17
100
AcDbEntity
  8
AR-FIN
 62
7
420
12434877
100
AcDbHatch
 10
0.0
 20
0.0
 30
0.0
210
0.0
220
0.0
230
1.0
  2
SOLID
 70
1
 71
0
 91
1
 92
3
 72
0
 73
1
 93
4
 10
1260.0
 20
2893.0
 10
1780.0
 20
2893.0
 10
1780.0
 20
2895.0
 10
1260.0
 20
2895.0
 97
0
 75
1
 76
1
 98
0
  0
LWPOLYLINE
  5
1AC
330
17
100
AcDbEntity
  8
AR-FIN
 62
7
370
20
100
AcDbPolyline
 90
4
 70
1
 10
1260.0
 20
2893.0
 10
1780.0
 20
2893.0
 10
1780.0
 20
2895.0
 10
1260.0
 20
2895.0
  0
HATCH
  5
1AD
330
17
100
AcDbEntity
  8
AR-FIN
 62
7
420
11569232
100
AcDbHatch
 10
0.0
 20
0.0
 30
0.0
210
0.0
220
0.0
230
1.0
  2
LINE
 70
0
 71
0
 91
1
 92
3
 72
0
 73
1
 93
4
 10
1260.0
 20
2895.0
 10
1780.0
 20
2895.0
 10
1780.0
 20
2910.0
 10
1260.0
 20
2910.0
 97
0
 75
1
 76
1
 52
90.0
 41
2.75
 77
0
 78
1
 53
90.0
 43
0.0
 44
0.0
 45
-8.73125
 46
0.0
 79
0
 98
0
  0
HATCH
  5
1AE
330
17
100
AcDbEntity
  8
AR-FIN
 62
7
420
14928288
440
33554559
100
AcDbHatch
 10
0.0
 20
0.0
 30
0.0
210
0.0
220
0.0
230
1.0
  2
SOLID
 70
1
 71
0
 91
1
 92
3
 72
0
 73
1
 93
4
 10
1260.0
 20
2895.0
 10
1780.0
 20
2895.0
 10
1780.0
 20
2910.0
 10
1260.0
 20
2910.0
 97
0
 75
1
 76
1
 98
0
  0
LWPOLYLINE
  5
1AF
330
17
100
AcDbEntity
  8
AR-FIN
 62
7
370
20
100
AcDbPolyline
 90
4
 70
1
 10
1260.0
 20
2895.0
 10
1780.0
 20
2895.0
 10
1780.0
 20
2910.0
 10
1260.0
 20
2910.0
  0
HATCH
  5
1B0
330
17
100
AcDbEntity
  8
AR-FIN
 62
7
420
11770731
100
AcDbHatch
 10
0.0
 20
0.0
 30
0.0
210
0.0
220
0.0
230
1.0
  2
SOLID
 70
1
 71
0
 91
1
 92
3
 72
0
 73
1
 93
4
 10
1047.0
 20
2893.0
 10
1053.0
 20
2893.0
 10
1053.0
 20
2910.0
 10
1047.0
 20
2910.0
 97
0
 75
1
 76
1
 98
0
  0
LWPOLYLINE
  5
1B1
330
17
100
AcDbEntity
  8
AR-FIN
 62
7
370
20
100
AcDbPolyline
 90
4
 70
1
 10
1047.0
 20
2893.0
 10
1053.0
 20
2893.0
 10
1053.0
 20
2910.0
 10
1047.0
 20
2910.0
  0
HATCH
  5
1B2
330
17
100
AcDbEntity
  8
DIM
 62
7
420
16777215
100
AcDbHatch
 10
0.0
 20
0.0
 30
0.0
210
0.0
220
0.0
230
1.0
  2
SOLID
 70
1
 71
0
 91
1
 92
3
 72
0
 73
1
 93
3
 10
1510.0
 20
2910.0
 10
1498.0
 20
2926.0
 10
1522.0
 20
2926.0
 97
0
 75
1
 76
1
 98
0
  0
LWPOLYLINE
  5
1B3
330
17
100
AcDbEntity
  8
DIM
 62
7
370
20
100
AcDbPolyline
 90
3
 70
1
 10
1510.0
 20
2910.0
 10
1498.0
 20
2926.0
 10
1522.0
 20
2926.0
  0
LWPOLYLINE
  5
1B4
330
17
100
AcDbEntity
  8
DIM
 62
7
370
20
100
AcDbPolyline
 90
2
 70
0
 10
1510.0
 20
2926.0
 10
1600.0
 20
2926.0
  0
TEXT
  5
1B5
330
17
100
AcDbEntity
  8
DIM
 62
7
100
AcDbText
 10
1516.0
 20
2931.0
 30
0.0
 40
15.0
  1
±0,000
  7
GOST
 11
1516.0
 21
2931.0
 31
0.0
100
AcDbText
  0
HATCH
  5
1B6
330
17
100
AcDbEntity
  8
DIM
 62
7
420
16777215
100
AcDbHatch
 10
0.0
 20
0.0
 30
0.0
210
0.0
220
0.0
230
1.0
  2
SOLID
 70
1
 71
0
 91
1
 92
3
 72
0
 73
1
 93
3
 10
460.0
 20
2790.0
 10
448.0
 20
2806.0
 10
472.0
 20
2806.0
 97
0
 75
1
 76
1
 98
0
  0
LWPOLYLINE
  5
1B7
330
17
100
AcDbEntity
  8
DIM
 62
7
370
20
100
AcDbPolyline
 90
3
 70
1
 10
460.0
 20
2790.0
 10
448.0
 20
2806.0
 10
472.0
 20
2806.0
  0
LWPOLYLINE
  5
1B8
330
17
100
AcDbEntity
  8
DIM
 62
7
370
20
100
AcDbPolyline
 90
2
 70
0
 10
460.0
 20
2806.0
 10
550.0
 20
2806.0
  0
TEXT
  5
1B9
330
17
100
AcDbEntity
  8
DIM
 62
7
100
AcDbText
 10
466.0
 20
2811.0
 30
0.0
 40
15.0
  1
−0,120 плита
  7
GOST
 11
466.0
 21
2811.0
 31
0.0
100
AcDbText
  0
LWPOLYLINE
  5
1BA
330
17
100
AcDbEntity
  8
AR-FIN
  6
DASHDOT
370
13
 48
30.0
420
10066329
100
AcDbPolyline
 90
4
 70
1
 10
260.0
 20
2650.0
 10
1780.0
 20
2650.0
 10
1780.0
 20
2970.0
 10
260.0
 20
2970.0
  0
TEXT
  5
1BB
330
17
100
AcDbEntity
  8
TEXT
420
1710618
100
AcDbText
 10
543.0346579218108
 20
2625.0
 30
0.0
 40
15.0
  1
1
  7
GOST
 11
543.0346579218108
 21
2625.0
 31
0.0
100
AcDbText
  0
LWPOLYLINE
  5
1BC
330
17
100
AcDbEntity
  8
TEXT
370
15
420
3355443
100
AcDbPolyline
 90
2
 70
0
 10
550.0
 20
2740.0
 10
550.0
 20
2643.0
  0
HATCH
  5
1BD
330
17
100
AcDbEntity
  8
TEXT
 62
7
420
3355443
100
AcDbHatch
 10
0.0
 20
0.0
 30
0.0
210
0.0
220
0.0
230
1.0
  2
SOLID
 70
1
 71
0
 91
1
 92
1
 93
1
 72
2
 10
550.0
 20
2740.0
 40
2.5
 50
0
 51
360
 73
1
 97
0
 75
1
 76
1
 98
0
  0
CIRCLE
  5
1BE
330
17
100
AcDbEntity
  8
TEXT
370
13
420
3355443
100
AcDbCircle
 10
550.0
 20
2740.0
 30
0.0
 40
2.5
  0
TEXT
  5
1BF
330
17
100
AcDbEntity
  8
TEXT
420
1710618
100
AcDbText
 10
580.0
 20
2820.0
 30
0.0
 40
15.0
  1
2
  7
GOST
 11
580.0
 21
2820.0
 31
0.0
100
AcDbText
  0
LWPOLYLINE
  5
1C0
330
17
100
AcDbEntity
  8
TEXT
370
15
420
3355443
100
AcDbPolyline
 90
2
 70
0
 10
550.0
 20
2790.0
 10
580.0
 20
2820.0
  0
TEXT
  5
1C1
330
17
100
AcDbEntity
  8
TEXT
420
1710618
100
AcDbText
 10
580.0
 20
2845.0
 30
0.0
 40
15.0
  1
3
  7
GOST
 11
580.0
 21
2845.0
 31
0.0
100
AcDbText
  0
LWPOLYLINE
  5
1C2
330
17
100
AcDbEntity
  8
TEXT
370
15
420
3355443
100
AcDbPolyline
 90
2
 70
0
 10
550.0
 20
2815.0
 10
580.0
 20
2845.0
  0
TEXT
  5
1C3
330
17
100
AcDbEntity
  8
TEXT
420
1710618
100
AcDbText
 10
580.0
 20
2870.0
 30
0.0
 40
15.0
  1
4
  7
GOST
 11
580.0
 21
2870.0
 31
0.0
100
AcDbText
  0
LWPOLYLINE
  5
1C4
330
17
100
AcDbEntity
  8
TEXT
370
15
420
3355443
100
AcDbPolyline
 90
2
 70
0
 10
550.0
 20
2840.0
 10
580.0
 20
2870.0
  0
TEXT
  5
1C5
330
17
100
AcDbEntity
  8
TEXT
420
1710618
100
AcDbText
 10
543.0459104938271
 20
2997.5
 30
0.0
 40
15.0
  1
5
  7
GOST
 11
543.0459104938271
 21
2997.5
 31
0.0
100
AcDbText
  0
LWPOLYLINE
  5
1C6
330
17
100
AcDbEntity
  8
TEXT
370
15
420
3355443
100
AcDbPolyline
 90
2
 70
0
 10
550.0
 20
2867.5
 10
550.0
 20
2994.5
  0
HATCH
  5
1C7
330
17
100
AcDbEntity
  8
TEXT
 62
7
420
3355443
100
AcDbHatch
 10
0.0
 20
0.0
 30
0.0
210
0.0
220
0.0
230
1.0
  2
SOLID
 70
1
 71
0
 91
1
 92
1
 93
1
 72
2
 10
550.0
 20
2867.5
 40
2.5
 50
0
 51
360
 73
1
 97
0
 75
1
 76
1
 98
0
  0
CIRCLE
  5
1C8
330
17
100
AcDbEntity
  8
TEXT
370
13
420
3355443
100
AcDbCircle
 10
550.0
 20
2867.5
 30
0.0
 40
2.5
  0
TEXT
  5
1C9
330
17
100
AcDbEntity
  8
TEXT
420
1710618
100
AcDbText
 10
641.9238815542512
 20
2991.9238815542512
 30
0.0
 40
15.0
  1
6
  7
GOST
 11
641.9238815542512
 21
2991.9238815542512
 31
0.0
100
AcDbText
  0
LWPOLYLINE
  5
1CA
330
17
100
AcDbEntity
  8
TEXT
370
15
420
3355443
100
AcDbPolyline
 90
2
 70
0
 10
550.0
 20
2900.0
 10
638.9238815542512
 20
2988.9238815542512
  0
HATCH
  5
1CB
330
17
100
AcDbEntity
  8
TEXT
 62
7
420
3355443
100
AcDbHatch
 10
0.0
 20
0.0
 30
0.0
210
0.0
220
0.0
230
1.0
  2
SOLID
 70
1
 71
0
 91
1
 92
1
 93
1
 72
2
 10
550.0
 20
2900.0
 40
2.5
 50
0
 51
360
 73
1
 97
0
 75
1
 76
1
 98
0
  0
CIRCLE
  5
1CC
330
17
100
AcDbEntity
  8
TEXT
370
13
420
3355443
100
AcDbCircle
 10
550.0
 20
2900.0
 30
0.0
 40
2.5
  0
TEXT
  5
1CD
330
17
100
AcDbEntity
  8
TEXT
420
1710618
100
AcDbText
 10
444.36727070912326
 20
2997.1738815542512
 30
0.0
 40
15.0
  1
7
  7
GOST
 11
444.36727070912326
 21
2997.1738815542512
 31
0.0
100
AcDbText
  0
LWPOLYLINE
  5
1CE
330
17
100
AcDbEntity
  8
TEXT
370
15
420
3355443
100
AcDbPolyline
 90
2
 70
0
 10
550.0
 20
2905.25
 10
461.07611844574876
 20
2994.1738815542512
  0
HATCH
  5
1CF
330
17
100
AcDbEntity
  8
TEXT
 62
7
420
3355443
100
AcDbHatch
 10
0.0
 20
0.0
 30
0.0
210
0.0
220
0.0
230
1.0
  2
SOLID
 70
1
 71
0
 91
1
 92
1
 93
1
 72
2
 10
550.0
 20
2905.25
 40
2.5
 50
0
 51
360
 73
1
 97
0
 75
1
 76
1
 98
0
  0
CIRCLE
  5
1D0
330
17
100
AcDbEntity
  8
TEXT
370
13
420
3355443
100
AcDbCircle
 10
550.0
 20
2905.25
 30
0.0
 40
2.5
  0
TEXT
  5
1D1
330
17
100
AcDbEntity
  8
TEXT
420
1710618
100
AcDbText
 10
542.9655349794239
 20
3037.75
 30
0.0
 40
15.0
  1
8
  7
GOST
 11
542.9655349794239
 21
3037.75
 31
0.0
100
AcDbText
  0
LWPOLYLINE
  5
1D2
330
17
100
AcDbEntity
  8
TEXT
370
15
420
3355443
100
AcDbPolyline
 90
2
 70
0
 10
550.0
 20
2907.75
 10
550.0
 20
3034.7499999999995
  0
HATCH
  5
1D3
330
17
100
AcDbEntity
  8
TEXT
 62
7
420
3355443
100
AcDbHatch
 10
0.0
 20
0.0
 30
0.0
210
0.0
220
0.0
230
1.0
  2
SOLID
 70
1
 71
0
 91
1
 92
1
 93
1
 72
2
 10
550.0
 20
2907.75
 40
2.5
 50
0
 51
360
 73
1
 97
0
 75
1
 76
1
 98
0
  0
CIRCLE
  5
1D4
330
17
100
AcDbEntity
  8
TEXT
370
13
420
3355443
100
AcDbCircle
 10
550.0
 20
2907.75
 30
0.0
 40
2.5
  0
TEXT
  5
1D5
330
17
100
AcDbEntity
  8
TEXT
420
1710618
100
AcDbText
 10
1042.9848251028807
 20
2615.0
 30
0.0
 40
15.0
  1
9
  7
GOST
 11
1042.9848251028807
 21
2615.0
 31
0.0
100
AcDbText
  0
LWPOLYLINE
  5
1D6
330
17
100
AcDbEntity
  8
TEXT
370
15
420
3355443
100
AcDbPolyline
 90
2
 70
0
 10
1050.0
 20
2730.0
 10
1050.0
 20
2633.0
  0
HATCH
  5
1D7
330
17
100
AcDbEntity
  8
TEXT
 62
7
420
3355443
100
AcDbHatch
 10
0.0
 20
0.0
 30
0.0
210
0.0
220
0.0
230
1.0
  2
SOLID
 70
1
 71
0
 91
1
 92
1
 93
1
 72
2
 10
1050.0
 20
2730.0
 40
2.5
 50
0
 51
360
 73
1
 97
0
 75
1
 76
1
 98
0
  0
CIRCLE
  5
1D8
330
17
100
AcDbEntity
  8
TEXT
370
13
420
3355443
100
AcDbCircle
 10
1050.0
 20
2730.0
 30
0.0
 40
2.5
  0
TEXT
  5
1D9
330
17
100
AcDbEntity
  8
TEXT
420
1710618
100
AcDbText
 10
930.6610082304526
 20
2987.5
 30
0.0
 40
15.0
  1
10
  7
GOST
 11
930.6610082304526
 21
2987.5
 31
0.0
100
AcDbText
  0
LWPOLYLINE
  5
1DA
330
17
100
AcDbEntity
  8
TEXT
370
15
420
3355443
100
AcDbPolyline
 90
2
 70
0
 10
945.0
 20
2857.5
 10
945.0
 20
2984.5
  0
HATCH
  5
1DB
330
17
100
AcDbEntity
  8
TEXT
 62
7
420
3355443
100
AcDbHatch
 10
0.0
 20
0.0
 30
0.0
210
0.0
220
0.0
230
1.0
  2
SOLID
 70
1
 71
0
 91
1
 92
1
 93
1
 72
2
 10
945.0
 20
2857.5
 40
2.5
 50
0
 51
360
 73
1
 97
0
 75
1
 76
1
 98
0
  0
CIRCLE
  5
1DC
330
17
100
AcDbEntity
  8
TEXT
370
13
420
3355443
100
AcDbCircle
 10
945.0
 20
2857.5
 30
0.0
 40
2.5
  0
TEXT
  5
1DD
330
17
100
AcDbEntity
  8
TEXT
420
1710618
100
AcDbText
 10
1545.8764146090537
 20
3000.0
 30
0.0
 40
15.0
  1
11
  7
GOST
 11
1545.8764146090537
 21
3000.0
 31
0.0
100
AcDbText
  0
LWPOLYLINE
  5
1DE
330
17
100
AcDbEntity
  8
TEXT
370
15
420
3355443
100
AcDbPolyline
 90
2
 70
0
 10
1560.0
 20
2900.0
 10
1560.0
 20
2997.0
  0
HATCH
  5
1DF
330
17
100
AcDbEntity
  8
TEXT
 62
7
420
3355443
100
AcDbHatch
 10
0.0
 20
0.0
 30
0.0
210
0.0
220
0.0
230
1.0
  2
SOLID
 70
1
 71
0
 91
1
 92
1
 93
1
 72
2
 10
1560.0
 20
2900.0
 40
2.5
 50
0
 51
360
 73
1
 97
0
 75
1
 76
1
 98
0
  0
CIRCLE
  5
1E0
330
17
100
AcDbEntity
  8
TEXT
370
13
420
3355443
100
AcDbCircle
 10
1560.0
 20
2900.0
 30
0.0
 40
2.5
  0
TEXT
  5
1E1
330
17
100
AcDbEntity
  8
TEXT
420
1710618
100
AcDbText
 10
1036.062885802469
 20
3001.5
 30
0.0
 40
15.0
  1
12
  7
GOST
 11
1036.062885802469
 21
3001.5
 31
0.0
100
AcDbText
  0
LWPOLYLINE
  5
1E2
330
17
100
AcDbEntity
  8
TEXT
370
15
420
3355443
100
AcDbPolyline
 90
2
 70
0
 10
1050.0
 20
2901.5
 10
1050.0
 20
2998.4999999999995
  0
HATCH
  5
1E3
330
17
100
AcDbEntity
  8
TEXT
 62
7
420
3355443
100
AcDbHatch
 10
0.0
 20
0.0
 30
0.0
210
0.0
220
0.0
230
1.0
  2
SOLID
 70
1
 71
0
 91
1
 92
1
 93
1
 72
2
 10
1050.0
 20
2901.5
 40
2.5
 50
0
 51
360
 73
1
 97
0
 75
1
 76
1
 98
0
  0
CIRCLE
  5
1E4
330
17
100
AcDbEntity
  8
TEXT
370
13
420
3355443
100
AcDbCircle
 10
1050.0
 20
2901.5
 30
0.0
 40
2.5
  0
TEXT
  5
1E5
330
17
100
AcDbEntity
  8
TEXT
 62
7
100
AcDbText
 10
1820.0
 20
2956.5
 30
0.0
 40
13.5
  1
1.
  7
GOST
 11
1820.0
 21
2956.5
 31
0.0
100
AcDbText
  0
TEXT
  5
1E6
330
17
100
AcDbEntity
  8
TEXT
 62
7
100
AcDbText
 10
1865.0
 20
2956.5
 30
0.0
 40
13.5
  1
плита балкона [ДОПУЩЕНИЕ №46], верх -120
  7
GOST
 11
1865.0
 21
2956.5
 31
0.0
100
AcDbText
  0
TEXT
  5
1E7
330
17
100
AcDbEntity
  8
TEXT
 62
7
100
AcDbText
 10
1820.0
 20
2930.9249999999997
 30
0.0
 40
13.5
  1
2.
  7
GOST
 11
1820.0
 21
2930.9249999999997
 31
0.0
100
AcDbText
  0
TEXT
  5
1E8
330
17
100
AcDbEntity
  8
TEXT
 62
7
100
AcDbText
 10
1865.0
 20
2930.9249999999997
 30
0.0
 40
13.5
  1
грунт, ремонт плиты, выравнивание перепадов > 5
  7
GOST
 11
1865.0
 21
2930.9249999999997
 31
0.0
100
AcDbText
  0
TEXT
  5
1E9
330
17
100
AcDbEntity
  8
TEXT
 62
7
100
AcDbText
 10
1820.0
 20
2905.3499999999995
 30
0.0
 40
13.5
  1
3.
  7
GOST
 11
1820.0
 21
2905.3499999999995
 31
0.0
100
AcDbText
  0
TEXT
  5
1EA
330
17
100
AcDbEntity
  8
TEXT
 62
7
100
AcDbText
 10
1865.0
 20
2905.3499999999995
 30
0.0
 40
13.5
  1
XPS 300 кПа 50 (швы проклеены), по периметру — XPS 20 на
  7
GOST
 11
1865.0
 21
2905.3499999999995
 31
0.0
100
AcDbText
  0
TEXT
  5
1EB
330
17
100
AcDbEntity
  8
TEXT
 62
7
100
AcDbText
 10
1865.0
 20
2885.7749999999996
 30
0.0
 40
13.5
  1
парапет — 50
  7
GOST
 11
1865.0
 21
2885.7749999999996
 31
0.0
100
AcDbText
  0
TEXT
  5
1EC
330
17
100
AcDbEntity
  8
TEXT
 62
7
100
AcDbText
 10
1820.0
 20
2860.2
 30
0.0
 40
13.5
  1
4.
  7
GOST
 11
1820.0
 21
2860.2
 31
0.0
100
AcDbText
  0
TEXT
  5
1ED
330
17
100
AcDbEntity
  8
TEXT
 62
7
100
AcDbText
 10
1865.0
 20
2860.2
 30
0.0
 40
13.5
  1
плёнка ПЭ 200 мкм (пароизоляция, нахлёст 100, завод на стены
  7
GOST
 11
1865.0
 21
2860.2
 31
0.0
100
AcDbText
  0
TEXT
  5
1EE
330
17
100
AcDbEntity
  8
TEXT
 62
7
100
AcDbText
 10
1865.0
 20
2840.625
 30
0.0
 40
13.5
  1
100) + демпферная лента 10
  7
GOST
 11
1865.0
 21
2840.625
 31
0.0
100
AcDbText
  0
TEXT
  5
1EF
330
17
100
AcDbEntity
  8
TEXT
 62
7
100
AcDbText
 10
1820.0
 20
2815.05
 30
0.0
 40
13.5
  1
5.
  7
GOST
 11
1820.0
 21
2815.05
 31
0.0
100
AcDbText
  0
TEXT
  5
1F0
330
17
100
AcDbEntity
  8
TEXT
 62
7
100
AcDbText
 10
1865.0
 20
2815.05
 30
0.0
 40
13.5
  1
стяжка ЦПС М300 фибра + сетка Вр4 50×50 (плавающая) — 55
  7
GOST
 11
1865.0
 21
2815.05
 31
0.0
100
AcDbText
  0
TEXT
  5
1F1
330
17
100
AcDbEntity
  8
TEXT
 62
7
100
AcDbText
 10
1820.0
 20
2789.475
 30
0.0
 40
13.5
  1
6.
  7
GOST
 11
1820.0
 21
2789.475
 31
0.0
100
AcDbText
  0
TEXT
  5
1F2
330
17
100
AcDbEntity
  8
TEXT
 62
7
100
AcDbText
 10
1865.0
 20
2789.475
 30
0.0
 40
13.5
  1
нагревательный мат TP3 (только свободный пол) в
  7
GOST
 11
1865.0
 21
2789.475
 31
0.0
100
AcDbText
  0
TEXT
  5
1F3
330
17
100
AcDbEntity
  8
TEXT
 62
7
100
AcDbText
 10
1865.0
 20
2769.9
 30
0.0
 40
13.5
  1
самовыравнивающей смеси, ≥ 5 над матом — 10
  7
GOST
 11
1865.0
 21
2769.9
 31
0.0
100
AcDbText
  0
TEXT
  5
1F4
330
17
100
AcDbEntity
  8
TEXT
 62
7
100
AcDbText
 10
1820.0
 20
2744.325
 30
0.0
 40
13.5
  1
7.
  7
GOST
 11
1820.0
 21
2744.325
 31
0.0
100
AcDbText
  0
TEXT
  5
1F5
330
17
100
AcDbEntity
  8
TEXT
 62
7
100
AcDbText
 10
1865.0
 20
2744.325
 30
0.0
 40
13.5
  1
грунт + клей для LVT (дисперсионный, допуск ТП) — 0.5
  7
GOST
 11
1865.0
 21
2744.325
 31
0.0
100
AcDbText
  0
TEXT
  5
1F6
330
17
100
AcDbEntity
  8
TEXT
 62
7
100
AcDbText
 10
1820.0
 20
2718.75
 30
0.0
 40
13.5
  1
8.
  7
GOST
 11
1820.0
 21
2718.75
 31
0.0
100
AcDbText
  0
TEXT
  5
1F7
330
17
100
AcDbEntity
  8
TEXT
 62
7
100
AcDbText
 10
1865.0
 20
2718.75
 30
0.0
 40
13.5
  1
LVT клеевой ёлочка 4,5 (слой износа ≥ 0,55) — 4.5
  7
GOST
 11
1865.0
 21
2718.75
 31
0.0
100
AcDbText
  0
TEXT
  5
1F8
330
17
100
AcDbEntity
  8
TEXT
 62
7
100
AcDbText
 10
1820.0
 20
2693.175
 30
0.0
 40
13.5
  1
9.
  7
GOST
 11
1820.0
 21
2693.175
 31
0.0
100
AcDbText
  0
TEXT
  5
1F9
330
17
100
AcDbEntity
  8
TEXT
 62
7
100
AcDbText
 10
1865.0
 20
2693.175
 30
0.0
 40
13.5
  1
Кладка W2 под бывшим балконным блоком
  7
GOST
 11
1865.0
 21
2693.175
 31
0.0
100
AcDbText
  0
TEXT
  5
1FA
330
17
100
AcDbEntity
  8
TEXT
 62
7
100
AcDbText
 10
1820.0
 20
2667.6
 30
0.0
 40
13.5
  1
10.
  7
GOST
 11
1820.0
 21
2667.6
 31
0.0
100
AcDbText
  0
TEXT
  5
1FB
330
17
100
AcDbEntity
  8
TEXT
 62
7
100
AcDbText
 10
1865.0
 20
2667.6
 30
0.0
 40
13.5
  1
Выравнивание ЦПС/ремсоставом до основания покрытий (без
  7
GOST
 11
1865.0
 21
2667.6
 31
0.0
100
AcDbText
  0
TEXT
  5
1FC
330
17
100
AcDbEntity
  8
TEXT
 62
7
100
AcDbText
 10
1865.0
 20
2648.025
 30
0.0
 40
13.5
  1
подогрева)
  7
GOST
 11
1865.0
 21
2648.025
 31
0.0
100
AcDbText
  0
TEXT
  5
1FD
330
17
100
AcDbEntity
  8
TEXT
 62
7
100
AcDbText
 10
1820.0
 20
2622.45
 30
0.0
 40
13.5
  1
11.
  7
GOST
 11
1820.0
 21
2622.45
 31
0.0
100
AcDbText
  0
TEXT
  5
1FE
330
17
100
AcDbEntity
  8
TEXT
 62
7
100
AcDbText
 10
1865.0
 20
2622.45
 30
0.0
 40
13.5
  1
Кухня: P-OAK — стяжка с ТП −20 → клей 2 → доска 15 → ±0.000
  7
GOST
 11
1865.0
 21
2622.45
 31
0.0
100
AcDbText
  0
TEXT
  5
1FF
330
17
100
AcDbEntity
  8
TEXT
 62
7
100
AcDbText
 10
1820.0
 20
2596.875
 30
0.0
 40
13.5
  1
12.
  7
GOST
 11
1820.0
 21
2596.875
 31
0.0
100
AcDbText
  0
TEXT
  5
200
330
17
100
AcDbEntity
  8
TEXT
 62
7
100
AcDbText
 10
1865.0
 20
2596.875
 30
0.0
 40
13.5
  1
Стык J1 на оси стены x = −210: пробка 5 + латунный Т-профиль
  7
GOST
 11
1865.0
 21
2596.875
 31
0.0
100
AcDbText
  0
TEXT
  5
201
330
17
100
AcDbEntity
  8
TEXT
 62
7
100
AcDbText
 10
1865.0
 20
2577.3
 30
0.0
 40
13.5
  1
8 на клею
  7
GOST
 11
1865.0
 21
2577.3
 31
0.0
100
AcDbText
  0
TEXT
  5
202
330
17
100
AcDbEntity
  8
TEXT
 62
7
100
AcDbText
 10
2600.0
 20
3040.0
 30
0.0
 40
22.0
  1
Узел 11. Облицовка W14 в душе VK-C1 с нишами (сечение в плане)
  7
GOST
 11
2600.0
 21
3040.0
 31
0.0
100
AcDbText
  0
TEXT
  5
203
330
17
100
AcDbEntity
  8
TEXT
420
5592405
100
AcDbText
 10
2600.0
 20
3008.0
 30
0.0
 40
15.0
  1
М 1:10 (схематично, по details.md)
  7
GOST
 11
2600.0
 21
3008.0
 31
0.0
100
AcDbText
  0
HATCH
  5
204
330
17
100
AcDbEntity
  8
AR-FIN
 62
7
420
10506797
100
AcDbHatch
 10
0.0
 20
0.0
 30
0.0
210
0.0
220
0.0
230
1.0
  2
ANSI31
 70
0
 71
0
 91
1
 92
3
 72
0
 73
1
 93
4
 10
2780.0
 20
1970.0
 10
2860.0
 20
1970.0
 10
2860.0
 20
2970.0
 10
2780.0
 20
2970.0
 97
0
 75
1
 76
1
 52
0.0
 41
1.8333333333333333
 77
0
 78
1
 53
45.0
 43
0.0
 44
0.0
 45
-4.1159507222
 46
4.1159507222
 79
0
 98
0
  0
HATCH
  5
205
330
17
100
AcDbEntity
  8
AR-FIN
 62
7
420
15717060
440
33554559
100
AcDbHatch
 10
0.0
 20
0.0
 30
0.0
210
0.0
220
0.0
230
1.0
  2
SOLID
 70
1
 71
0
 91
1
 92
3
 72
0
 73
1
 93
4
 10
2780.0
 20
1970.0
 10
2860.0
 20
1970.0
 10
2860.0
 20
2970.0
 10
2780.0
 20
2970.0
 97
0
 75
1
 76
1
 98
0
  0
LWPOLYLINE
  5
206
330
17
100
AcDbEntity
  8
AR-FIN
 62
7
370
20
100
AcDbPolyline
 90
4
 70
1
 10
2780.0
 20
1970.0
 10
2860.0
 20
1970.0
 10
2860.0
 20
2970.0
 10
2780.0
 20
2970.0
  0
LWPOLYLINE
  5
207
330
17
100
AcDbEntity
  8
AR-FIN
  6
DASHED
370
20
 48
30.0
420
7829367
100
AcDbPolyline
 90
4
 70
1
 10
2720.0
 20
1970.0
 10
2780.0
 20
1970.0
 10
2780.0
 20
2970.0
 10
2720.0
 20
2970.0
  0
HATCH
  5
208
330
17
100
AcDbEntity
  8
AR-FIN
 62
7
420
11184810
100
AcDbHatch
 10
0.0
 20
0.0
 30
0.0
210
0.0
220
0.0
230
1.0
  2
ANSI31
 70
0
 71
0
 91
1
 92
3
 72
0
 73
1
 93
4
 10
2695.0
 20
1970.0
 10
2720.0
 20
1970.0
 10
2720.0
 20
2570.0
 10
2695.0
 20
2570.0
 97
0
 75
1
 76
1
 52
90.0
 41
2.75
 77
0
 78
1
 53
135.0
 43
0.0
 44
0.0
 45
-6.1739260833
 46
-6.1739260833
 79
0
 98
0
  0
LWPOLYLINE
  5
209
330
17
100
AcDbEntity
  8
AR-FIN
 62
7
370
20
100
AcDbPolyline
 90
4
 70
1
 10
2695.0
 20
1970.0
 10
2720.0
 20
1970.0
 10
2720.0
 20
2570.0
 10
2695.0
 20
2570.0
  0
HATCH
  5
20A
330
17
100
AcDbEntity
  8
AR-FIN
 62
7
420
3049153
100
AcDbHatch
 10
0.0
 20
0.0
 30
0.0
210
0.0
220
0.0
230
1.0
  2
SOLID
 70
1
 71
0
 91
1
 92
3
 72
0
 73
1
 93
4
 10
2694.0
 20
1970.0
 10
2695.0
 20
1970.0
 10
2695.0
 20
2970.0
 10
2694.0
 20
2970.0
 97
0
 75
1
 76
1
 98
0
  0
LWPOLYLINE
  5
20B
330
17
100
AcDbEntity
  8
AR-FIN
 62
7
370
20
100
AcDbPolyline
 90
4
 70
1
 10
2694.0
 20
1970.0
 10
2695.0
 20
1970.0
 10
2695.0
 20
2970.0
 10
2694.0
 20
2970.0
  0
HATCH
  5
20C
330
17
100
AcDbEntity
  8
AR-FIN
 62
7
420
13163496
100
AcDbHatch
 10
0.0
 20
0.0
 30
0.0
210
0.0
220
0.0
230
1.0
  2
SOLID
 70
1
 71
0
 91
1
 92
3
 72
0
 73
1
 93
4
 10
2685.0
 20
1970.0
 10
2694.0
 20
1970.0
 10
2694.0
 20
2570.0
 10
2685.0
 20
2570.0
 97
0
 75
1
 76
1
 98
0
  0
LWPOLYLINE
  5
20D
330
17
100
AcDbEntity
  8
AR-FIN
 62
7
370
20
100
AcDbPolyline
 90
4
 70
1
 10
2685.0
 20
1970.0
 10
2694.0
 20
1970.0
 10
2694.0
 20
2570.0
 10
2685.0
 20
2570.0
  0
LWPOLYLINE
  5
20E
330
17
100
AcDbEntity
  8
AR-FIN
  6
DASHED
370
20
 48
30.0
420
7829367
100
AcDbPolyline
 90
4
 70
1
 10
2685.0
 20
2570.0
 10
2755.0
 20
2570.0
 10
2755.0
 20
2970.0
 10
2685.0
 20
2970.0
  0
LWPOLYLINE
  5
20F
330
17
100
AcDbEntity
  8
AR-FIN
  6
DASHED
370
20
 48
30.0
420
7829367
100
AcDbPolyline
 90
4
 70
1
 10
2685.0
 20
2320.0
 10
2755.0
 20
2320.0
 10
2755.0
 20
2570.0
 10
2685.0
 20
2570.0
  0
HATCH
  5
210
330
17
100
AcDbEntity
  8
AR-FIN
 62
7
420
3049153
100
AcDbHatch
 10
0.0
 20
0.0
 30
0.0
210
0.0
220
0.0
230
1.0
  2
SOLID
 70
1
 71
0
 91
1
 92
3
 72
0
 73
1
 93
4
 10
2755.0
 20
2320.0
 10
2765.0
 20
2320.0
 10
2765.0
 20
2820.0
 10
2755.0
 20
2820.0
 97
0
 75
1
 76
1
 98
0
  0
LWPOLYLINE
  5
211
330
17
100
AcDbEntity
  8
AR-FIN
 62
7
370
20
100
AcDbPolyline
 90
4
 70
1
 10
2755.0
 20
2320.0
 10
2765.0
 20
2320.0
 10
2765.0
 20
2820.0
 10
2755.0
 20
2820.0
  0
CIRCLE
  5
212
330
17
100
AcDbEntity
  8
AR-FIN
 62
7
370
20
100
AcDbCircle
 10
2745.0
 20
2120.0
 30
0.0
 40
25.0
  0
HATCH
  5
213
330
17
100
AcDbEntity
  8
AR-FIN
 62
7
420
8359053
100
AcDbHatch
 10
0.0
 20
0.0
 30
0.0
210
0.0
220
0.0
230
1.0
  2
SOLID
 70
1
 71
0
 91
1
 92
3
 72
0
 73
1
 93
4
 10
2720.0
 20
2620.0
 10
2760.0
 20
2620.0
 10
2760.0
 20
2730.0
 10
2720.0
 20
2730.0
 97
0
 75
1
 76
1
 98
0
  0
LWPOLYLINE
  5
214
330
17
100
AcDbEntity
  8
AR-FIN
 62
7
370
20
100
AcDbPolyline
 90
4
 70
1
 10
2720.0
 20
2620.0
 10
2760.0
 20
2620.0
 10
2760.0
 20
2730.0
 10
2720.0
 20
2730.0
  0
LWPOLYLINE
  5
215
330
17
100
AcDbEntity
  8
AR-FIN
  6
DASHDOT
370
13
 48
30.0
420
10066329
100
AcDbPolyline
 90
4
 70
1
 10
2620.0
 20
1970.0
 10
2900.0
 20
1970.0
 10
2900.0
 20
2970.0
 10
2620.0
 20
2970.0
  0
TEXT
  5
216
330
17
100
AcDbEntity
  8
TEXT
420
1710618
100
AcDbText
 10
2920.0
 20
2462.5
 30
0.0
 40
15.0
  1
1
  7
GOST
 11
2920.0
 21
2462.5
 31
0.0
100
AcDbText
  0
LWPOLYLINE
  5
217
330
17
100
AcDbEntity
  8
TEXT
370
15
420
3355443
100
AcDbPolyline
 90
2
 70
0
 10
2820.0
 20
2470.0
 10
2917.0
 20
2470.0
  0
HATCH
  5
218
330
17
100
AcDbEntity
  8
TEXT
 62
7
420
3355443
100
AcDbHatch
 10
0.0
 20
0.0
 30
0.0
210
0.0
220
0.0
230
1.0
  2
SOLID
 70
1
 71
0
 91
1
 92
1
 93
1
 72
2
 10
2820.0
 20
2470.0
 40
2.5
 50
0
 51
360
 73
1
 97
0
 75
1
 76
1
 98
0
  0
CIRCLE
  5
219
330
17
100
AcDbEntity
  8
TEXT
370
13
420
3355443
100
AcDbCircle
 10
2820.0
 20
2470.0
 30
0.0
 40
2.5
  0
TEXT
  5
21A
330
17
100
AcDbEntity
  8
TEXT
420
1710618
100
AcDbText
 10
2780.0
 20
2500.0
 30
0.0
 40
15.0
  1
2
  7
GOST
 11
2780.0
 21
2500.0
 31
0.0
100
AcDbText
  0
LWPOLYLINE
  5
21B
330
17
100
AcDbEntity
  8
TEXT
370
15
420
3355443
100
AcDbPolyline
 90
2
 70
0
 10
2750.0
 20
2470.0
 10
2780.0
 20
2500.0
  0
TEXT
  5
21C
330
17
100
AcDbEntity
  8
TEXT
420
1710618
100
AcDbText
 10
2593.7911522633744
 20
2262.5
 30
0.0
 40
15.0
  1
3
  7
GOST
 11
2593.7911522633744
 21
2262.5
 31
0.0
100
AcDbText
  0
LWPOLYLINE
  5
21D
330
17
100
AcDbEntity
  8
TEXT
370
15
420
3355443
100
AcDbPolyline
 90
2
 70
0
 10
2707.5
 20
2270.0
 10
2610.5
 20
2270.0
  0
HATCH
  5
21E
330
17
100
AcDbEntity
  8
TEXT
 62
7
420
3355443
100
AcDbHatch
 10
0.0
 20
0.0
 30
0.0
210
0.0
220
0.0
230
1.0
  2
SOLID
 70
1
 71
0
 91
1
 92
1
 93
1
 72
2
 10
2707.5
 20
2270.0
 40
2.5
 50
0
 51
360
 73
1
 97
0
 75
1
 76
1
 98
0
  0
CIRCLE
  5
21F
330
17
100
AcDbEntity
  8
TEXT
370
13
420
3355443
100
AcDbCircle
 10
2707.5
 20
2270.0
 30
0.0
 40
2.5
  0
TEXT
  5
220
330
17
100
AcDbEntity
  8
TEXT
420
1710618
100
AcDbText
 10
2580.0999228395062
 20
2462.5
 30
0.0
 40
15.0
  1
4
  7
GOST
 11
2580.0999228395062
 21
2462.5
 31
0.0
100
AcDbText
  0
LWPOLYLINE
  5
221
330
17
100
AcDbEntity
  8
TEXT
370
15
420
3355443
100
AcDbPolyline
 90
2
 70
0
 10
2694.5
 20
2470.0
 10
2597.5
 20
2470.0
  0
HATCH
  5
222
330
17
100
AcDbEntity
  8
TEXT
 62
7
420
3355443
100
AcDbHatch
 10
0.0
 20
0.0
 30
0.0
210
0.0
220
0.0
230
1.0
  2
SOLID
 70
1
 71
0
 91
1
 92
1
 93
1
 72
2
 10
2694.5
 20
2470.0
 40
2.5
 50
0
 51
360
 73
1
 97
0
 75
1
 76
1
 98
0
  0
CIRCLE
  5
223
330
17
100
AcDbEntity
  8
TEXT
370
13
420
3355443
100
AcDbCircle
 10
2694.5
 20
2470.0
 30
0.0
 40
2.5
  0
TEXT
  5
224
330
17
100
AcDbEntity
  8
TEXT
420
1710618
100
AcDbText
 10
2583.667939433403
 20
2361.9238815542512
 30
0.0
 40
15.0
  1
5
  7
GOST
 11
2583.667939433403
 21
2361.9238815542512
 31
0.0
100
AcDbText
  0
LWPOLYLINE
  5
225
330
17
100
AcDbEntity
  8
TEXT
370
15
420
3355443
100
AcDbPolyline
 90
2
 70
0
 10
2689.5
 20
2270.0
 10
2600.5761184457488
 20
2358.923881554251
  0
HATCH
  5
226
330
17
100
AcDbEntity
  8
TEXT
 62
7
420
3355443
100
AcDbHatch
 10
0.0
 20
0.0
 30
0.0
210
0.0
220
0.0
230
1.0
  2
SOLID
 70
1
 71
0
 91
1
 92
1
 93
1
 72
2
 10
2689.5
 20
2270.0
 40
2.5
 50
0
 51
360
 73
1
 97
0
 75
1
 76
1
 98
0
  0
CIRCLE
  5
227
330
17
100
AcDbEntity
  8
TEXT
370
13
420
3355443
100
AcDbCircle
 10
2689.5
 20
2270.0
 30
0.0
 40
2.5
  0
TEXT
  5
228
330
17
100
AcDbEntity
  8
TEXT
420
1710618
100
AcDbText
 10
2790.0
 20
2600.0
 30
0.0
 40
15.0
  1
6
  7
GOST
 11
2790.0
 21
2600.0
 31
0.0
100
AcDbText
  0
LWPOLYLINE
  5
229
330
17
100
AcDbEntity
  8
TEXT
370
15
420
3355443
100
AcDbPolyline
 90
2
 70
0
 10
2760.0
 20
2570.0
 10
2790.0
 20
2600.0
  0
TEXT
  5
22A
330
17
100
AcDbEntity
  8
TEXT
420
1710618
100
AcDbText
 10
2775.0
 20
2150.0
 30
0.0
 40
15.0
  1
7
  7
GOST
 11
2775.0
 21
2150.0
 31
0.0
100
AcDbText
  0
LWPOLYLINE
  5
22B
330
17
100
AcDbEntity
  8
TEXT
370
15
420
3355443
100
AcDbPolyline
 90
2
 70
0
 10
2745.0
 20
2120.0
 10
2775.0
 20
2150.0
  0
TEXT
  5
22C
330
17
100
AcDbEntity
  8
TEXT
420
1710618
100
AcDbText
 10
2595.9310699588477
 20
2667.5
 30
0.0
 40
15.0
  1
8
  7
GOST
 11
2595.9310699588477
 21
2667.5
 31
0.0
100
AcDbText
  0
LWPOLYLINE
  5
22D
330
17
100
AcDbEntity
  8
TEXT
370
15
420
3355443
100
AcDbPolyline
 90
2
 70
0
 10
2740.0
 20
2675.0
 10
2613.0
 20
2675.0
  0
HATCH
  5
22E
330
17
100
AcDbEntity
  8
TEXT
 62
7
420
3355443
100
AcDbHatch
 10
0.0
 20
0.0
 30
0.0
210
0.0
220
0.0
230
1.0
  2
SOLID
 70
1
 71
0
 91
1
 92
1
 93
1
 72
2
 10
2740.0
 20
2675.0
 40
2.5
 50
0
 51
360
 73
1
 97
0
 75
1
 76
1
 98
0
  0
CIRCLE
  5
22F
330
17
100
AcDbEntity
  8
TEXT
370
13
420
3355443
100
AcDbCircle
 10
2740.0
 20
2675.0
 30
0.0
 40
2.5
  0
TEXT
  5
230
330
17
100
AcDbEntity
  8
TEXT
 62
7
100
AcDbText
 10
2940.0
 20
2956.5
 30
0.0
 40
13.5
  1
1.
  7
GOST
 11
2940.0
 21
2956.5
 31
0.0
100
AcDbText
  0
TEXT
  5
231
330
17
100
AcDbEntity
  8
TEXT
 62
7
100
AcDbText
 10
2985.0
 20
2956.5
 30
0.0
 40
13.5
  1
Перегородка W14 80
  7
GOST
 11
2985.0
 21
2956.5
 31
0.0
100
AcDbText
  0
TEXT
  5
232
330
17
100
AcDbEntity
  8
TEXT
 62
7
100
AcDbText
 10
2940.0
 20
2930.9249999999997
 30
0.0
 40
13.5
  1
2.
  7
GOST
 11
2940.0
 21
2930.9249999999997
 31
0.0
100
AcDbText
  0
TEXT
  5
233
330
17
100
AcDbEntity
  8
TEXT
 62
7
100
AcDbText
 10
2985.0
 20
2930.9249999999997
 30
0.0
 40
13.5
  1
Каркас ПП 60/27 с отступом (к W14 и потолку); в полости Ø50
  7
GOST
 11
2985.0
 21
2930.9249999999997
 31
0.0
100
AcDbText
  0
TEXT
  5
234
330
17
100
AcDbEntity
  8
TEXT
 62
7
100
AcDbText
 10
2985.0
 20
2911.35
 30
0.0
 40
13.5
  1
ванны, ХВС/ГВС, термостат
  7
GOST
 11
2985.0
 21
2911.35
 31
0.0
100
AcDbText
  0
TEXT
  5
235
330
17
100
AcDbEntity
  8
TEXT
 62
7
100
AcDbText
 10
2940.0
 20
2885.7749999999996
 30
0.0
 40
13.5
  1
3.
  7
GOST
 11
2940.0
 21
2885.7749999999996
 31
0.0
100
AcDbText
  0
TEXT
  5
236
330
17
100
AcDbEntity
  8
TEXT
 62
7
100
AcDbText
 10
2985.0
 20
2885.7749999999996
 30
0.0
 40
13.5
  1
Обшивка 2×ГВЛВ/ЦСП 12,5
  7
GOST
 11
2985.0
 21
2885.7749999999996
 31
0.0
100
AcDbText
  0
TEXT
  5
237
330
17
100
AcDbEntity
  8
TEXT
 62
7
100
AcDbText
 10
2940.0
 20
2860.2
 30
0.0
 40
13.5
  1
4.
  7
GOST
 11
2940.0
 21
2860.2
 31
0.0
100
AcDbText
  0
TEXT
  5
238
330
17
100
AcDbEntity
  8
TEXT
 62
7
100
AcDbText
 10
2985.0
 20
2860.2
 30
0.0
 40
13.5
  1
Гидроизоляция на всю высоту
  7
GOST
 11
2985.0
 21
2860.2
 31
0.0
100
AcDbText
  0
TEXT
  5
239
330
17
100
AcDbEntity
  8
TEXT
 62
7
100
AcDbText
 10
2940.0
 20
2834.625
 30
0.0
 40
13.5
  1
5.
  7
GOST
 11
2940.0
 21
2834.625
 31
0.0
100
AcDbText
  0
TEXT
  5
23A
330
17
100
AcDbEntity
  8
TEXT
 62
7
100
AcDbText
 10
2985.0
 20
2834.625
 30
0.0
 40
13.5
  1
Плитка 1200×600 горизонтально; итого ≈ 95, душ в свету 805
  7
GOST
 11
2985.0
 21
2834.625
 31
0.0
100
AcDbText
  0
TEXT
  5
23B
330
17
100
AcDbEntity
  8
TEXT
 62
7
100
AcDbText
 10
2940.0
 20
2809.0499999999997
 30
0.0
 40
13.5
  1
6.
  7
GOST
 11
2940.0
 21
2809.0499999999997
 31
0.0
100
AcDbText
  0
TEXT
  5
23C
330
17
100
AcDbEntity
  8
TEXT
 62
7
100
AcDbText
 10
2985.0
 20
2809.0499999999997
 30
0.0
 40
13.5
  1
Ниша 500, глубина 70, ось y = 5150; внутри ГИ сплошная,
  7
GOST
 11
2985.0
 21
2809.0499999999997
 31
0.0
100
AcDbText
  0
TEXT
  5
23D
330
17
100
AcDbEntity
  8
TEXT
 62
7
100
AcDbText
 10
2985.0
 20
2789.475
 30
0.0
 40
13.5
  1
кромки — латунный уголок C8
  7
GOST
 11
2985.0
 21
2789.475
 31
0.0
100
AcDbText
  0
TEXT
  5
23E
330
17
100
AcDbEntity
  8
TEXT
 62
7
100
AcDbText
 10
2940.0
 20
2763.8999999999996
 30
0.0
 40
13.5
  1
7.
  7
GOST
 11
2940.0
 21
2763.8999999999996
 31
0.0
100
AcDbText
  0
TEXT
  5
23F
330
17
100
AcDbEntity
  8
TEXT
 62
7
100
AcDbText
 10
2985.0
 20
2763.8999999999996
 30
0.0
 40
13.5
  1
Отвод ванны Ø50 у основания (S2)
  7
GOST
 11
2985.0
 21
2763.8999999999996
 31
0.0
100
AcDbText
  0
TEXT
  5
240
330
17
100
AcDbEntity
  8
TEXT
 62
7
100
AcDbText
 10
2940.0
 20
2738.325
 30
0.0
 40
13.5
  1
8.
  7
GOST
 11
2940.0
 21
2738.325
 31
0.0
100
AcDbText
  0
TEXT
  5
241
330
17
100
AcDbEntity
  8
TEXT
 62
7
100
AcDbText
 10
2985.0
 20
2738.325
 30
0.0
 40
13.5
  1
Корпус термостата, ось y 4750, +1180
  7
GOST
 11
2985.0
 21
2738.325
 31
0.0
100
AcDbText
  0
LWPOLYLINE
  5
242
330
17
100
AcDbEntity
  8
FRAME
 62
7
370
50
100
AcDbPolyline
 90
4
 70
1
 10
200.0
 20
50.0
 10
5890.0
 20
50.0
 10
5890.0
 20
4150.0
 10
200.0
 20
4150.0
  0
TEXT
  5
243
330
17
100
AcDbEntity
  8
FRAME
 62
7
100
AcDbText
 10
5890.0
 20
16.0
 30
0.0
 40
20.0
  1
Формат A2
  7
GOST
 72
2
 11
5890.0
 21
16.0
 31
0.0
100
AcDbText
  0
HATCH
  5
244
330
17
100
AcDbEntity
  8
FRAME
 62
7
420
16777215
100
AcDbHatch
 10
0.0
 20
0.0
 30
0.0
210
0.0
220
0.0
230
1.0
  2
SOLID
 70
1
 71
0
 91
1
 92
3
 72
0
 73
1
 93
4
 10
4040.0
 20
50.0
 10
5890.0
 20
50.0
 10
5890.0
 20
600.0
 10
4040.0
 20
600.0
 97
0
 75
1
 76
1
 98
0
  0
LWPOLYLINE
  5
245
330
17
100
AcDbEntity
  8
FRAME
 62
7
370
50
100
AcDbPolyline
 90
4
 70
1
 10
4040.0
 20
50.0
 10
5890.0
 20
50.0
 10
5890.0
 20
600.0
 10
4040.0
 20
600.0
  0
LWPOLYLINE
  5
246
330
17
100
AcDbEntity
  8
FRAME
 62
7
370
50
100
AcDbPolyline
 90
2
 70
0
 10
4690.0
 20
450.0
 10
5890.0
 20
450.0
  0
LWPOLYLINE
  5
247
330
17
100
AcDbEntity
  8
FRAME
 62
7
370
50
100
AcDbPolyline
 90
2
 70
0
 10
4690.0
 20
350.0
 10
5890.0
 20
350.0
  0
LWPOLYLINE
  5
248
330
17
100
AcDbEntity
  8
FRAME
 62
7
370
50
100
AcDbPolyline
 90
2
 70
0
 10
4690.0
 20
200.0
 10
5890.0
 20
200.0
  0
LWPOLYLINE
  5
249
330
17
100
AcDbEntity
  8
FRAME
 62
7
370
50
100
AcDbPolyline
 90
2
 70
0
 10
4690.0
 20
50.0
 10
4690.0
 20
600.0
  0
LWPOLYLINE
  5
24A
330
17
100
AcDbEntity
  8
FRAME
 62
7
370
50
100
AcDbPolyline
 90
2
 70
0
 10
5390.0
 20
50.0
 10
5390.0
 20
350.0
  0
LWPOLYLINE
  5
24B
330
17
100
AcDbEntity
  8
FRAME
 62
7
370
20
100
AcDbPolyline
 90
2
 70
0
 10
5390.0
 20
300.0
 10
5890.0
 20
300.0
  0
LWPOLYLINE
  5
24C
330
17
100
AcDbEntity
  8
FRAME
 62
7
370
20
100
AcDbPolyline
 90
2
 70
0
 10
5540.0
 20
200.0
 10
5540.0
 20
350.0
  0
LWPOLYLINE
  5
24D
330
17
100
AcDbEntity
  8
FRAME
 62
7
370
20
100
AcDbPolyline
 90
2
 70
0
 10
5690.0
 20
200.0
 10
5690.0
 20
350.0
  0
TEXT
  5
24E
330
17
100
AcDbEntity
  8
FRAME
 62
7
100
AcDbText
 10
5465.0
 20
312.0
 30
0.0
 40
20.0
  1
Стадия
  7
GOST
 72
1
 11
5465.0
 21
312.0
 31
0.0
100
AcDbText
  0
TEXT
  5
24F
330
17
100
AcDbEntity
  8
FRAME
 62
7
100
AcDbText
 10
5615.0
 20
312.0
 30
0.0
 40
20.0
  1
Лист
  7
GOST
 72
1
 11
5615.0
 21
312.0
 31
0.0
100
AcDbText
  0
TEXT
  5
250
330
17
100
AcDbEntity
  8
FRAME
 62
7
100
AcDbText
 10
5790.0
 20
312.0
 30
0.0
 40
20.0
  1
Листов
  7
GOST
 72
1
 11
5790.0
 21
312.0
 31
0.0
100
AcDbText
  0
TEXT
  5
251
330
17
100
AcDbEntity
  8
FRAME
 62
7
100
AcDbText
 10
5465.0
 20
234.0
 30
0.0
 40
35.0
  1
Р
  7
GOST
 72
1
 11
5465.0
 21
234.0
 31
0.0
100
AcDbText
  0
TEXT
  5
252
330
17
100
AcDbEntity
  8
FRAME
 62
7
100
AcDbText
 10
5615.0
 20
234.0
 30
0.0
 40
35.0
  1
22
  7
GOST
 72
1
 11
5615.0
 21
234.0
 31
0.0
100
AcDbText
  0
TEXT
  5
253
330
17
100
AcDbEntity
  8
FRAME
 62
7
100
AcDbText
 10
5790.0
 20
234.0
 30
0.0
 40
35.0
  1
51
  7
GOST
 72
1
 11
5790.0
 21
234.0
 31
0.0
100
AcDbText
  0
LWPOLYLINE
  5
254
330
17
100
AcDbEntity
  8
FRAME
 62
7
370
20
100
AcDbPolyline
 90
2
 70
0
 10
4040.0
 20
100.0
 10
4690.0
 20
100.0
  0
LWPOLYLINE
  5
255
330
17
100
AcDbEntity
  8
FRAME
 62
7
370
20
100
AcDbPolyline
 90
2
 70
0
 10
4040.0
 20
150.0
 10
4690.0
 20
150.0
  0
LWPOLYLINE
  5
256
330
17
100
AcDbEntity
  8
FRAME
 62
7
370
20
100
AcDbPolyline
 90
2
 70
0
 10
4040.0
 20
200.0
 10
4690.0
 20
200.0
  0
LWPOLYLINE
  5
257
330
17
100
AcDbEntity
  8
FRAME
 62
7
370
20
100
AcDbPolyline
 90
2
 70
0
 10
4040.0
 20
250.0
 10
4690.0
 20
250.0
  0
LWPOLYLINE
  5
258
330
17
100
AcDbEntity
  8
FRAME
 62
7
370
50
100
AcDbPolyline
 90
2
 70
0
 10
4040.0
 20
300.0
 10
4690.0
 20
300.0
  0
LWPOLYLINE
  5
259
330
17
100
AcDbEntity
  8
FRAME
 62
7
370
50
100
AcDbPolyline
 90
2
 70
0
 10
4040.0
 20
350.0
 10
4690.0
 20
350.0
  0
LWPOLYLINE
  5
25A
330
17
100
AcDbEntity
  8
FRAME
 62
7
370
20
100
AcDbPolyline
 90
2
 70
0
 10
4040.0
 20
400.0
 10
4690.0
 20
400.0
  0
LWPOLYLINE
  5
25B
330
17
100
AcDbEntity
  8
FRAME
 62
7
370
20
100
AcDbPolyline
 90
2
 70
0
 10
4040.0
 20
450.0
 10
4690.0
 20
450.0
  0
LWPOLYLINE
  5
25C
330
17
100
AcDbEntity
  8
FRAME
 62
7
370
20
100
AcDbPolyline
 90
2
 70
0
 10
4040.0
 20
500.0
 10
4690.0
 20
500.0
  0
LWPOLYLINE
  5
25D
330
17
100
AcDbEntity
  8
FRAME
 62
7
370
20
100
AcDbPolyline
 90
2
 70
0
 10
4040.0
 20
550.0
 10
4690.0
 20
550.0
  0
LWPOLYLINE
  5
25E
330
17
100
AcDbEntity
  8
FRAME
 62
7
370
50
100
AcDbPolyline
 90
2
 70
0
 10
4140.0
 20
300.0
 10
4140.0
 20
600.0
  0
LWPOLYLINE
  5
25F
330
17
100
AcDbEntity
  8
FRAME
 62
7
370
50
100
AcDbPolyline
 90
2
 70
0
 10
4240.0
 20
50.0
 10
4240.0
 20
600.0
  0
LWPOLYLINE
  5
260
330
17
100
AcDbEntity
  8
FRAME
 62
7
370
50
100
AcDbPolyline
 90
2
 70
0
 10
4340.0
 20
300.0
 10
4340.0
 20
600.0
  0
LWPOLYLINE
  5
261
330
17
100
AcDbEntity
  8
FRAME
 62
7
370
50
100
AcDbPolyline
 90
2
 70
0
 10
4440.0
 20
50.0
 10
4440.0
 20
600.0
  0
LWPOLYLINE
  5
262
330
17
100
AcDbEntity
  8
FRAME
 62
7
370
50
100
AcDbPolyline
 90
2
 70
0
 10
4590.0
 20
50.0
 10
4590.0
 20
600.0
  0
TEXT
  5
263
330
17
100
AcDbEntity
  8
FRAME
 62
7
100
AcDbText
 10
4090.0
 20
313.0
 30
0.0
 40
18.0
  1
Изм.
  7
GOST
 72
1
 11
4090.0
 21
313.0
 31
0.0
100
AcDbText
  0
TEXT
  5
264
330
17
100
AcDbEntity
  8
FRAME
 62
7
100
AcDbText
 10
4190.0
 20
313.0
 30
0.0
 40
18.0
  1
Кол.уч
  7
GOST
 72
1
 11
4190.0
 21
313.0
 31
0.0
100
AcDbText
  0
TEXT
  5
265
330
17
100
AcDbEntity
  8
FRAME
 62
7
100
AcDbText
 10
4290.0
 20
313.0
 30
0.0
 40
18.0
  1
Лист
  7
GOST
 72
1
 11
4290.0
 21
313.0
 31
0.0
100
AcDbText
  0
TEXT
  5
266
330
17
100
AcDbEntity
  8
FRAME
 62
7
100
AcDbText
 10
4390.0
 20
313.0
 30
0.0
 40
18.0
  1
№док.
  7
GOST
 72
1
 11
4390.0
 21
313.0
 31
0.0
100
AcDbText
  0
TEXT
  5
267
330
17
100
AcDbEntity
  8
FRAME
 62
7
100
AcDbText
 10
4515.0
 20
313.0
 30
0.0
 40
18.0
  1
Подп.
  7
GOST
 72
1
 11
4515.0
 21
313.0
 31
0.0
100
AcDbText
  0
TEXT
  5
268
330
17
100
AcDbEntity
  8
FRAME
 62
7
100
AcDbText
 10
4640.0
 20
313.0
 30
0.0
 40
18.0
  1
Дата
  7
GOST
 72
1
 11
4640.0
 21
313.0
 31
0.0
100
AcDbText
  0
TEXT
  5
269
330
17
100
AcDbEntity
  8
FRAME
 62
7
100
AcDbText
 10
4050.0
 20
263.0
 30
0.0
 40
20.0
  1
Разраб.
  7
GOST
 11
4050.0
 21
263.0
 31
0.0
100
AcDbText
  0
TEXT
  5
26A
330
17
100
AcDbEntity
  8
FRAME
 62
7
100
AcDbText
 10
4050.0
 20
213.0
 30
0.0
 40
20.0
  1
Пров.
  7
GOST
 11
4050.0
 21
213.0
 31
0.0
100
AcDbText
  0
TEXT
  5
26B
330
17
100
AcDbEntity
  8
FRAME
 62
7
100
AcDbText
 10
4050.0
 20
163.0
 30
0.0
 40
20.0
  1
ГИП
  7
GOST
 11
4050.0
 21
163.0
 31
0.0
100
AcDbText
  0
TEXT
  5
26C
330
17
100
AcDbEntity
  8
FRAME
 62
7
100
AcDbText
 10
4050.0
 20
113.0
 30
0.0
 40
20.0
  1
Н.контр.
  7
GOST
 11
4050.0
 21
113.0
 31
0.0
100
AcDbText
  0
TEXT
  5
26D
330
17
100
AcDbEntity
  8
FRAME
 62
7
100
AcDbText
 10
4050.0
 20
63.0
 30
0.0
 40
20.0
  1
Утв.
  7
GOST
 11
4050.0
 21
63.0
 31
0.0
100
AcDbText
  0
TEXT
  5
26E
330
17
100
AcDbEntity
  8
FRAME
 62
7
100
AcDbText
 10
4248.0
 20
263.0
 30
0.0
 40
20.0
  1
pib-агенты
  7
GOST
 11
4248.0
 21
263.0
 31
0.0
100
AcDbText
  0
TEXT
  5
26F
330
17
100
AcDbEntity
  8
FRAME
 62
7
100
AcDbText
 10
4640.0
 20
263.0
 30
0.0
 40
18.0
  1
10.2026
  7
GOST
 72
1
 11
4640.0
 21
263.0
 31
0.0
100
AcDbText
  0
TEXT
  5
270
330
17
100
AcDbEntity
  8
FRAME
 62
7
100
AcDbText
 10
5290.0
 20
500.0
 30
0.0
 40
50.0
  1
КВ108-ДП-АР-18
  7
GOST
 72
1
 11
5290.0
 21
500.0
 31
0.0
100
AcDbText
  0
TEXT
  5
271
330
17
100
AcDbEntity
  8
FRAME
 62
7
100
AcDbText
 10
5290.0
 20
382.5
 30
0.0
 40
35.0
  1
Квартира №108, СПб, дизайн-проект
  7
GOST
 72
1
 11
5290.0
 21
382.5
 31
0.0
100
AcDbText
  0
TEXT
  5
272
330
17
100
AcDbEntity
  8
FRAME
 62
7
100
AcDbText
 10
5040.0
 20
260.0
 30
0.0
 40
30.0
  1
Архитектурные решения
  7
GOST
 72
1
 11
5040.0
 21
260.0
 31
0.0
100
AcDbText
  0
TEXT
  5
273
330
17
100
AcDbEntity
  8
FRAME
 62
7
100
AcDbText
 10
5040.0
 20
166.875
 30
0.0
 40
25.0
  1
Узлы 7–11: трап, зашивка окна O1,
  7
GOST
 72
1
 11
5040.0
 21
166.875
 31
0.0
100
AcDbText
  0
TEXT
  5
274
330
17
100
AcDbEntity
  8
FRAME
 62
7
100
AcDbText
 10
5040.0
 20
130.625
 30
0.0
 40
25.0
  1
ниша экрана, порог кухня–балкон,
  7
GOST
 72
1
 11
5040.0
 21
130.625
 31
0.0
100
AcDbText
  0
TEXT
  5
275
330
17
100
AcDbEntity
  8
FRAME
 62
7
100
AcDbText
 10
5040.0
 20
94.375
 30
0.0
 40
25.0
  1
облицовка душа
  7
GOST
 72
1
 11
5040.0
 21
94.375
 31
0.0
100
AcDbText
  0
TEXT
  5
276
330
17
100
AcDbEntity
  8
FRAME
 62
7
100
AcDbText
 10
5040.0
 20
58.125
 30
0.0
 40
25.0
  1
Масштаб 1:10
  7
GOST
 72
1
 11
5040.0
 21
58.125
 31
0.0
100
AcDbText
  0
TEXT
  5
277
330
17
100
AcDbEntity
  8
FRAME
 62
7
100
AcDbText
 10
5640.0
 20
131.75
 30
0.0
 40
30.0
  1
ПИБ
  7
GOST
 72
1
 11
5640.0
 21
131.75
 31
0.0
100
AcDbText
  0
TEXT
  5
278
330
17
100
AcDbEntity
  8
FRAME
 62
7
100
AcDbText
 10
5640.0
 20
88.25000000000001
 30
0.0
 40
30.0
  1
агенты pib-*
  7
GOST
 72
1
 11
5640.0
 21
88.25000000000001
 31
0.0
100
AcDbText
  0
ENDSEC
  0
SECTION
  2
OBJECTS
  0
DICTIONARY
  5
A
330
0
100
AcDbDictionary
281
1
  3
ACAD_COLOR
350
B
  3
ACAD_GROUP
350
C
  3
ACAD_LAYOUT
350
D
  3
ACAD_MATERIAL
350
E
  3
ACAD_MLEADERSTYLE
350
F
  3
ACAD_MLINESTYLE
350
10
  3
ACAD_PLOTSETTINGS
350
11
  3
ACAD_PLOTSTYLENAME
350
12
  3
ACAD_SCALELIST
350
14
  3
ACAD_TABLESTYLE
350
15
  3
ACAD_VISUALSTYLE
350
16
  3
EZDXF_META
350
2D
  0
DICTIONARY
  5
B
330
A
100
AcDbDictionary
281
1
  0
DICTIONARY
  5
C
330
A
100
AcDbDictionary
281
1
  0
DICTIONARY
  5
D
330
A
100
AcDbDictionary
281
1
  3
Model
350
1A
  3
Layout1
350
1E
  0
DICTIONARY
  5
E
330
A
100
AcDbDictionary
281
1
  3
ByBlock
350
1F
  3
ByLayer
350
20
  3
Global
350
21
  0
DICTIONARY
  5
F
330
A
100
AcDbDictionary
281
1
  3
Standard
350
2C
  0
DICTIONARY
  5
10
330
A
100
AcDbDictionary
281
1
  3
Standard
350
22
  0
DICTIONARY
  5
11
330
A
100
AcDbDictionary
281
1
  0
ACDBDICTIONARYWDFLT
  5
12
330
A
100
AcDbDictionary
281
1
  3
Normal
350
13
100
AcDbDictionaryWithDefault
340
13
  0
ACDBPLACEHOLDER
  5
13
330
12
  0
DICTIONARY
  5
14
330
A
100
AcDbDictionary
281
1
  0
DICTIONARY
  5
15
330
A
100
AcDbDictionary
281
1
  0
DICTIONARY
  5
16
330
A
100
AcDbDictionary
281
1
  3
2dWireframe
350
5A
  3
Basic
350
5B
  3
Brighten
350
5C
  3
ColorChange
350
5D
  3
Conceptual
350
5E
  3
Dim
350
5F
  3
EdgeColorOff
350
60
  3
Facepattern
350
61
  3
Flat
350
62
  3
FlatWithEdges
350
63
  3
Gouraud
350
64
  3
GouraudWithEdges
350
65
  3
Hidden
350
66
  3
JitterOff
350
67
  3
Linepattern
350
68
  3
Modeling
350
69
  3
OverhangOff
350
6A
  3
Realistic
350
6B
  3
Shaded
350
6C
  3
Shaded with edges
350
6D
  3
Shades of Gray
350
6E
  3
Sketchy
350
6F
  3
Thicken
350
70
  3
Wireframe
350
71
  3
X-Ray
350
72
  0
LAYOUT
  5
1A
330
D
100
AcDbPlotSettings
  1

  4
A3
  6

 40
7.5
 41
20.0
 42
7.5
 43
20.0
 44
420.0
 45
297.0
 46
0.0
 47
0.0
 48
0.0
 49
0.0
140
0.0
141
0.0
142
1.0
143
1.0
 70
1024
 72
1
 73
0
 74
5
  7

 75
16
 76
0
 77
2
 78
300
147
1.0
148
0.0
149
0.0
100
AcDbLayout
  1
Model
 70
1
 71
0
 10
0.0
 20
0.0
 11
420.0
 21
297.0
 12
0.0
 22
0.0
 32
0.0
 14
1e+20
 24
1e+20
 34
1e+20
 15
-1e+20
 25
-1e+20
 35
-1e+20
146
0.0
 13
0.0
 23
0.0
 33
0.0
 16
1.0
 26
0.0
 36
0.0
 17
0.0
 27
1.0
 37
0.0
 76
1
330
17
  0
LAYOUT
  5
1E
330
D
100
AcDbPlotSettings
  1

  4
A3
  6

 40
7.5
 41
20.0
 42
7.5
 43
20.0
 44
420.0
 45
297.0
 46
0.0
 47
0.0
 48
0.0
 49
0.0
140
0.0
141
0.0
142
1.0
143
1.0
 70
0
 72
1
 73
0
 74
5
  7

 75
16
 76
0
 77
2
 78
300
147
1.0
148
0.0
149
0.0
100
AcDbLayout
  1
Layout1
 70
1
 71
1
 10
0.0
 20
0.0
 11
420.0
 21
297.0
 12
0.0
 22
0.0
 32
0.0
 14
1e+20
 24
1e+20
 34
1e+20
 15
-1e+20
 25
-1e+20
 35
-1e+20
146
0.0
 13
0.0
 23
0.0
 33
0.0
 16
1.0
 26
0.0
 36
0.0
 17
0.0
 27
1.0
 37
0.0
 76
1
330
1B
  0
MATERIAL
  5
1F
102
{ACAD_REACTORS
330
E
102
}
330
E
100
AcDbMaterial
  1
ByBlock
  2

 70
0
 40
1.0
 71
1
 41
1.0
 91
-1023410177
 42
1.0
 72
1
  3

 73
1
 74
1
 75
1
 44
0.5
 73
0
 45
1.0
 46
1.0
 77
1
  4

 78
1
 79
1
170
1
 48
1.0
171
1
  6

172
1
173
1
174
1
140
1.0
141
1.0
175
1
  7

176
1
177
1
178
1
143
1.0
179
1
  8

270
1
271
1
272
1
145
1.0
146
1.0
273
1
  9

274
1
275
1
276
1
 42
1.0
 72
1
  3

 73
1
 74
1
 75
1
 94
63
  0
MATERIAL
  5
20
102
{ACAD_REACTORS
330
E
102
}
330
E
100
AcDbMaterial
  1
ByLayer
  2

 70
0
 40
1.0
 71
1
 41
1.0
 91
-1023410177
 42
1.0
 72
1
  3

 73
1
 74
1
 75
1
 44
0.5
 73
0
 45
1.0
 46
1.0
 77
1
  4

 78
1
 79
1
170
1
 48
1.0
171
1
  6

172
1
173
1
174
1
140
1.0
141
1.0
175
1
  7

176
1
177
1
178
1
143
1.0
179
1
  8

270
1
271
1
272
1
145
1.0
146
1.0
273
1
  9

274
1
275
1
276
1
 42
1.0
 72
1
  3

 73
1
 74
1
 75
1
 94
63
  0
MATERIAL
  5
21
102
{ACAD_REACTORS
330
E
102
}
330
E
100
AcDbMaterial
  1
Global
  2

 70
0
 40
1.0
 71
1
 41
1.0
 91
-1023410177
 42
1.0
 72
1
  3

 73
1
 74
1
 75
1
 44
0.5
 73
0
 45
1.0
 46
1.0
 77
1
  4

 78
1
 79
1
170
1
 48
1.0
171
1
  6

172
1
173
1
174
1
140
1.0
141
1.0
175
1
  7

176
1
177
1
178
1
143
1.0
179
1
  8

270
1
271
1
272
1
145
1.0
146
1.0
273
1
  9

274
1
275
1
276
1
 42
1.0
 72
1
  3

 73
1
 74
1
 75
1
 94
63
  0
MLINESTYLE
  5
22
102
{ACAD_REACTORS
330
10
102
}
330
10
100
AcDbMlineStyle
  2
Standard
 70
0
  3

 62
256
 51
90.0
 52
90.0
 71
2
 49
0.5
 62
256
  6
BYLAYER
 49
-0.5
 62
256
  6
BYLAYER
  0
MLEADERSTYLE
  5
2C
102
{ACAD_REACTORS
330
F
102
}
330
F
100
AcDbMLeaderStyle
179
2
170
2
171
1
172
0
 90
2
 40
0.0
 41
0.0
173
1
 91
-1056964608
 92
-2
290
1
 42
2.0
291
1
 43
8.0
  3
Standard
 44
4.0
300

342
29
174
1
175
1
176
0
178
1
 93
-1056964608
 45
4.0
292
0
297
0
 46
4.0
 94
-1056964608
 47
1.0
 49
1.0
140
1.0
294
1
141
0.0
177
0
142
1.0
295
0
296
0
143
3.75
271
0
272
9
273
9
  0
DICTIONARY
  5
2D
330
A
100
AcDbDictionary
280
1
281
1
  3
CREATED_BY_EZDXF
350
2E
  3
WRITTEN_BY_EZDXF
350
27B
  0
DICTIONARYVAR
  5
2E
330
2D
100
DictionaryVariables
280
0
  1
1.4.4 @ 2026-10-08T17:36:59.374418+00:00
  0
VISUALSTYLE
  5
5A
102
{ACAD_REACTORS
330
16
102
}
330
16
100
AcDbVisualStyle
  2
2dWireframe
 70
4
177
3
291
0
 70
58
 90
2
176
1
 90
2
176
1
 90
0
176
1
 90
0
176
1
 40
0.6
176
1
 40
30.0
176
1
 62
7
420
16777215
176
1
 90
1
176
1
 90
4
176
1
 62
7
176
1
 62
257
176
1
 90
1
176
1
 90
1
176
1
 40
1.0
176
1
 90
8
176
1
 62
7
176
1
 40
1.0
176
1
 90
1
176
1
 90
6
176
1
 90
2
176
1
 62
7
176
1
 90
5
176
1
 90
0
176
1
 90
0
176
1
290
0
176
1
 90
1
176
1
 40
0.0
176
1
 90
0
176
1
290
1
176
1
290
1
176
1
290
0
176
1
290
0
176
1
290
0
176
1
290
0
176
1
290
0
176
1
290
0
176
1
290
0
176
1
 90
50
176
1
 40
0.0
176
1
 40
1.0
176
1
 90
0
176
1
 62
18
420
0
176
1
 90
50
176
1
 90
3
176
1
 62
5
420
255
176
1
290
0
176
1
 90
50
176
1
 90
50
176
1
 90
50
176
1
290
0
176
1
 90
50
176
1
 62
256
176
0
 40
1.0
176
0
 90
2
176
1
  1
strokes_ogs.tif
176
1
290
0
176
1
 40
1.0
176
1
 40
1.0
176
1
  0
VISUALSTYLE
  5
5B
102
{ACAD_REACTORS
330
16
102
}
330
16
100
AcDbVisualStyle
  2
Basic
 70
7
177
3
291
1
 70
58
 90
2
176
1
 90
2
176
1
 90
0
176
1
 90
1
176
1
 40
0.6
176
1
 40
30.0
176
1
 62
7
420
16777215
176
1
 90
1
176
1
 90
4
176
1
 62
7
176
1
 62
257
176
1
 90
1
176
1
 90
1
176
1
 40
1.0
176
1
 90
8
176
1
 62
7
176
1
 40
1.0
176
1
 90
1
176
1
 90
6
176
1
 90
2
176
1
 62
7
176
1
 90
5
176
1
 90
0
176
1
 90
0
176
1
290
0
176
1
 90
1
176
1
 40
0.0
176
1
 90
0
176
1
290
0
176
1
290
1
176
1
290
1
176
1
290
0
176
1
290
0
176
1
290
0
176
1
290
0
176
1
290
0
176
1
290
0
176
1
 90
50
176
1
 40
0.0
176
1
 40
1.0
176
1
 90
0
176
1
 62
18
420
0
176
1
 90
50
176
1
 90
3
176
1
 62
5
420
255
176
1
290
0
176
1
 90
50
176
1
 90
50
176
1
 90
50
176
1
290
0
176
1
 90
50
176
1
 62
256
176
0
 40
1.0
176
0
 90
2
176
1
  1
strokes_ogs.tif
176
1
290
0
176
1
 40
1.0
176
1
 40
1.0
176
1
  0
VISUALSTYLE
  5
5C
102
{ACAD_REACTORS
330
16
102
}
330
16
100
AcDbVisualStyle
  2
Brighten
 70
12
177
3
291
1
 70
58
 90
2
176
1
 90
2
176
1
 90
0
176
1
 90
2
176
1
 40
0.6
176
1
 40
30.0
176
1
 62
7
420
16777215
176
1
 90
1
176
1
 90
4
176
1
 62
7
176
1
 62
257
176
1
 90
1
176
1
 90
1
176
1
 40
1.0
176
1
 90
8
176
1
 62
7
176
1
 40
1.0
176
1
 90
1
176
1
 90
6
176
1
 90
2
176
1
 62
7
176
1
 90
5
176
1
 90
0
176
1
 90
0
176
1
290
0
176
1
 90
1
176
1
 40
0.0
176
1
 90
0
176
1
290
0
176
1
290
1
176
1
290
1
176
1
290
0
176
1
290
0
176
1
290
0
176
1
290
0
176
1
290
0
176
1
290
0
176
1
 90
50
176
1
 40
0.0
176
1
 40
1.0
176
1
 90
0
176
1
 62
18
420
0
176
1
 90
50
176
1
 90
3
176
1
 62
5
420
255
176
1
290
0
176
1
 90
50
176
1
 90
50
176
1
 90
50
176
1
290
0
176
1
 90
50
176
1
 62
256
176
0
 40
1.0
176
0
 90
2
176
1
  1
strokes_ogs.tif
176
1
290
0
176
1
 40
1.0
176
1
 40
1.0
176
1
  0
VISUALSTYLE
  5
5D
102
{ACAD_REACTORS
330
16
102
}
330
16
100
AcDbVisualStyle
  2
ColorChange
 70
16
177
3
291
1
 70
58
 90
2
176
1
 90
2
176
1
 90
0
176
1
 90
2
176
1
 40
0.6
176
1
 40
30.0
176
1
 62
7
420
16777215
176
1
 90
1
176
1
 90
4
176
1
 62
7
176
1
 62
257
176
1
 90
1
176
1
 90
1
176
1
 40
1.0
176
1
 90
8
176
1
 62
7
176
1
 40
1.0
176
1
 90
1
176
1
 90
6
176
1
 90
2
176
1
 62
7
176
1
 90
5
176
1
 90
0
176
1
 90
0
176
1
290
0
176
1
 90
1
176
1
 40
0.0
176
1
 90
0
176
1
290
0
176
1
290
1
176
1
290
1
176
1
290
0
176
1
290
0
176
1
290
0
176
1
290
0
176
1
290
0
176
1
290
0
176
1
 90
50
176
1
 40
0.0
176
1
 40
1.0
176
1
 90
0
176
1
 62
18
420
0
176
1
 90
50
176
1
 90
3
176
1
 62
5
420
255
176
1
290
0
176
1
 90
50
176
1
 90
50
176
1
 90
50
176
1
290
0
176
1
 90
50
176
1
 62
256
176
0
 40
1.0
176
0
 90
2
176
1
  1
strokes_ogs.tif
176
1
290
0
176
1
 40
1.0
176
1
 40
1.0
176
1
  0
VISUALSTYLE
  5
5E
102
{ACAD_REACTORS
330
16
102
}
330
16
100
AcDbVisualStyle
  2
Conceptual
 70
9
177
3
291
0
 70
58
 90
2
176
1
 90
2
176
1
 90
0
176
1
 90
3
176
1
 40
0.6
176
1
 40
30.0
176
1
 62
7
420
16777215
176
1
 90
1
176
1
 90
4
176
1
 62
7
176
1
 62
257
176
1
 90
1
176
1
 90
1
176
1
 40
1.0
176
1
 90
8
176
1
 62
7
176
1
 40
1.0
176
1
 90
1
176
1
 90
6
176
1
 90
2
176
1
 62
7
176
1
 90
5
176
1
 90
0
176
1
 90
0
176
1
290
0
176
1
 90
1
176
1
 40
0.0
176
1
 90
0
176
1
290
0
176
1
290
1
176
1
290
1
176
1
290
0
176
1
290
0
176
1
290
0
176
1
290
0
176
1
290
0
176
1
290
0
176
1
 90
50
176
1
 40
0.0
176
1
 40
1.0
176
1
 90
0
176
1
 62
18
420
0
176
1
 90
50
176
1
 90
3
176
1
 62
5
420
255
176
1
290
0
176
1
 90
50
176
1
 90
50
176
1
 90
50
176
1
290
0
176
1
 90
50
176
1
 62
256
176
0
 40
1.0
176
0
 90
2
176
1
  1
strokes_ogs.tif
176
1
290
0
176
1
 40
1.0
176
1
 40
1.0
176
1
  0
VISUALSTYLE
  5
5F
102
{ACAD_REACTORS
330
16
102
}
330
16
100
AcDbVisualStyle
  2
Dim
 70
11
177
3
291
1
 70
58
 90
2
176
1
 90
2
176
1
 90
0
176
1
 90
2
176
1
 40
0.6
176
1
 40
30.0
176
1
 62
7
420
16777215
176
1
 90
1
176
1
 90
4
176
1
 62
7
176
1
 62
257
176
1
 90
1
176
1
 90
1
176
1
 40
1.0
176
1
 90
8
176
1
 62
7
176
1
 40
1.0
176
1
 90
1
176
1
 90
6
176
1
 90
2
176
1
 62
7
176
1
 90
5
176
1
 90
0
176
1
 90
0
176
1
290
0
176
1
 90
1
176
1
 40
0.0
176
1
 90
0
176
1
290
0
176
1
290
1
176
1
290
1
176
1
290
0
176
1
290
0
176
1
290
0
176
1
290
0
176
1
290
0
176
1
290
0
176
1
 90
50
176
1
 40
0.0
176
1
 40
1.0
176
1
 90
0
176
1
 62
18
420
0
176
1
 90
50
176
1
 90
3
176
1
 62
5
420
255
176
1
290
0
176
1
 90
50
176
1
 90
50
176
1
 90
50
176
1
290
0
176
1
 90
50
176
1
 62
256
176
0
 40
1.0
176
0
 90
2
176
1
  1
strokes_ogs.tif
176
1
290
0
176
1
 40
1.0
176
1
 40
1.0
176
1
  0
VISUALSTYLE
  5
60
102
{ACAD_REACTORS
330
16
102
}
330
16
100
AcDbVisualStyle
  2
EdgeColorOff
 70
22
177
3
291
1
 70
58
 90
2
176
1
 90
2
176
1
 90
0
176
1
 90
2
176
1
 40
0.6
176
1
 40
30.0
176
1
 62
7
420
16777215
176
1
 90
1
176
1
 90
4
176
1
 62
7
176
1
 62
257
176
1
 90
1
176
1
 90
1
176
1
 40
1.0
176
1
 90
8
176
1
 62
7
176
1
 40
1.0
176
1
 90
1
176
1
 90
6
176
1
 90
2
176
1
 62
7
176
1
 90
5
176
1
 90
0
176
1
 90
0
176
1
290
0
176
1
 90
1
176
1
 40
0.0
176
1
 90
0
176
1
290
0
176
1
290
1
176
1
290
1
176
1
290
0
176
1
290
0
176
1
290
0
176
1
290
0
176
1
290
0
176
1
290
0
176
1
 90
50
176
1
 40
0.0
176
1
 40
1.0
176
1
 90
0
176
1
 62
18
420
0
176
1
 90
50
176
1
 90
3
176
1
 62
5
420
255
176
1
290
0
176
1
 90
50
176
1
 90
50
176
1
 90
50
176
1
290
0
176
1
 90
50
176
1
 62
256
176
0
 40
1.0
176
0
 90
2
176
1
  1
strokes_ogs.tif
176
1
290
0
176
1
 40
1.0
176
1
 40
1.0
176
1
  0
VISUALSTYLE
  5
61
102
{ACAD_REACTORS
330
16
102
}
330
16
100
AcDbVisualStyle
  2
Facepattern
 70
15
177
3
291
1
 70
58
 90
2
176
1
 90
2
176
1
 90
0
176
1
 90
2
176
1
 40
0.6
176
1
 40
30.0
176
1
 62
7
420
16777215
176
1
 90
1
176
1
 90
4
176
1
 62
7
176
1
 62
257
176
1
 90
1
176
1
 90
1
176
1
 40
1.0
176
1
 90
8
176
1
 62
7
176
1
 40
1.0
176
1
 90
1
176
1
 90
6
176
1
 90
2
176
1
 62
7
176
1
 90
5
176
1
 90
0
176
1
 90
0
176
1
290
0
176
1
 90
1
176
1
 40
0.0
176
1
 90
0
176
1
290
0
176
1
290
1
176
1
290
1
176
1
290
0
176
1
290
0
176
1
290
0
176
1
290
0
176
1
290
0
176
1
290
0
176
1
 90
50
176
1
 40
0.0
176
1
 40
1.0
176
1
 90
0
176
1
 62
18
420
0
176
1
 90
50
176
1
 90
3
176
1
 62
5
420
255
176
1
290
0
176
1
 90
50
176
1
 90
50
176
1
 90
50
176
1
290
0
176
1
 90
50
176
1
 62
256
176
0
 40
1.0
176
0
 90
2
176
1
  1
strokes_ogs.tif
176
1
290
0
176
1
 40
1.0
176
1
 40
1.0
176
1
  0
VISUALSTYLE
  5
62
102
{ACAD_REACTORS
330
16
102
}
330
16
100
AcDbVisualStyle
  2
Flat
 70
0
177
3
291
1
 70
58
 90
2
176
1
 90
2
176
1
 90
0
176
1
 90
2
176
1
 40
0.6
176
1
 40
30.0
176
1
 62
7
420
16777215
176
1
 90
1
176
1
 90
4
176
1
 62
7
176
1
 62
257
176
1
 90
1
176
1
 90
1
176
1
 40
1.0
176
1
 90
8
176
1
 62
7
176
1
 40
1.0
176
1
 90
1
176
1
 90
6
176
1
 90
2
176
1
 62
7
176
1
 90
5
176
1
 90
0
176
1
 90
0
176
1
290
0
176
1
 90
1
176
1
 40
0.0
176
1
 90
0
176
1
290
0
176
1
290
1
176
1
290
1
176
1
290
0
176
1
290
0
176
1
290
0
176
1
290
0
176
1
290
0
176
1
290
0
176
1
 90
50
176
1
 40
0.0
176
1
 40
1.0
176
1
 90
0
176
1
 62
18
420
0
176
1
 90
50
176
1
 90
3
176
1
 62
5
420
255
176
1
290
0
176
1
 90
50
176
1
 90
50
176
1
 90
50
176
1
290
0
176
1
 90
50
176
1
 62
256
176
0
 40
1.0
176
0
 90
2
176
1
  1
strokes_ogs.tif
176
1
290
0
176
1
 40
1.0
176
1
 40
1.0
176
1
  0
VISUALSTYLE
  5
63
102
{ACAD_REACTORS
330
16
102
}
330
16
100
AcDbVisualStyle
  2
FlatWithEdges
 70
1
177
3
291
1
 70
58
 90
2
176
1
 90
2
176
1
 90
0
176
1
 90
2
176
1
 40
0.6
176
1
 40
30.0
176
1
 62
7
420
16777215
176
1
 90
1
176
1
 90
4
176
1
 62
7
176
1
 62
257
176
1
 90
1
176
1
 90
1
176
1
 40
1.0
176
1
 90
8
176
1
 62
7
176
1
 40
1.0
176
1
 90
1
176
1
 90
6
176
1
 90
2
176
1
 62
7
176
1
 90
5
176
1
 90
0
176
1
 90
0
176
1
290
0
176
1
 90
1
176
1
 40
0.0
176
1
 90
0
176
1
290
0
176
1
290
1
176
1
290
1
176
1
290
0
176
1
290
0
176
1
290
0
176
1
290
0
176
1
290
0
176
1
290
0
176
1
 90
50
176
1
 40
0.0
176
1
 40
1.0
176
1
 90
0
176
1
 62
18
420
0
176
1
 90
50
176
1
 90
3
176
1
 62
5
420
255
176
1
290
0
176
1
 90
50
176
1
 90
50
176
1
 90
50
176
1
290
0
176
1
 90
50
176
1
 62
256
176
0
 40
1.0
176
0
 90
2
176
1
  1
strokes_ogs.tif
176
1
290
0
176
1
 40
1.0
176
1
 40
1.0
176
1
  0
VISUALSTYLE
  5
64
102
{ACAD_REACTORS
330
16
102
}
330
16
100
AcDbVisualStyle
  2
Gouraud
 70
2
177
3
291
1
 70
58
 90
2
176
1
 90
2
176
1
 90
0
176
1
 90
2
176
1
 40
0.6
176
1
 40
30.0
176
1
 62
7
420
16777215
176
1
 90
1
176
1
 90
4
176
1
 62
7
176
1
 62
257
176
1
 90
1
176
1
 90
1
176
1
 40
1.0
176
1
 90
8
176
1
 62
7
176
1
 40
1.0
176
1
 90
1
176
1
 90
6
176
1
 90
2
176
1
 62
7
176
1
 90
5
176
1
 90
0
176
1
 90
0
176
1
290
0
176
1
 90
1
176
1
 40
0.0
176
1
 90
0
176
1
290
0
176
1
290
1
176
1
290
1
176
1
290
0
176
1
290
0
176
1
290
0
176
1
290
0
176
1
290
0
176
1
290
0
176
1
 90
50
176
1
 40
0.0
176
1
 40
1.0
176
1
 90
0
176
1
 62
18
420
0
176
1
 90
50
176
1
 90
3
176
1
 62
5
420
255
176
1
290
0
176
1
 90
50
176
1
 90
50
176
1
 90
50
176
1
290
0
176
1
 90
50
176
1
 62
256
176
0
 40
1.0
176
0
 90
2
176
1
  1
strokes_ogs.tif
176
1
290
0
176
1
 40
1.0
176
1
 40
1.0
176
1
  0
VISUALSTYLE
  5
65
102
{ACAD_REACTORS
330
16
102
}
330
16
100
AcDbVisualStyle
  2
GouraudWithEdges
 70
3
177
3
291
1
 70
58
 90
2
176
1
 90
2
176
1
 90
0
176
1
 90
2
176
1
 40
0.6
176
1
 40
30.0
176
1
 62
7
420
16777215
176
1
 90
1
176
1
 90
4
176
1
 62
7
176
1
 62
257
176
1
 90
1
176
1
 90
1
176
1
 40
1.0
176
1
 90
8
176
1
 62
7
176
1
 40
1.0
176
1
 90
1
176
1
 90
6
176
1
 90
2
176
1
 62
7
176
1
 90
5
176
1
 90
0
176
1
 90
0
176
1
290
0
176
1
 90
1
176
1
 40
0.0
176
1
 90
0
176
1
290
0
176
1
290
1
176
1
290
1
176
1
290
0
176
1
290
0
176
1
290
0
176
1
290
0
176
1
290
0
176
1
290
0
176
1
 90
50
176
1
 40
0.0
176
1
 40
1.0
176
1
 90
0
176
1
 62
18
420
0
176
1
 90
50
176
1
 90
3
176
1
 62
5
420
255
176
1
290
0
176
1
 90
50
176
1
 90
50
176
1
 90
50
176
1
290
0
176
1
 90
50
176
1
 62
256
176
0
 40
1.0
176
0
 90
2
176
1
  1
strokes_ogs.tif
176
1
290
0
176
1
 40
1.0
176
1
 40
1.0
176
1
  0
VISUALSTYLE
  5
66
102
{ACAD_REACTORS
330
16
102
}
330
16
100
AcDbVisualStyle
  2
Hidden
 70
6
177
3
291
0
 70
58
 90
2
176
1
 90
2
176
1
 90
0
176
1
 90
1
176
1
 40
0.6
176
1
 40
30.0
176
1
 62
7
420
16777215
176
1
 90
1
176
1
 90
4
176
1
 62
7
176
1
 62
257
176
1
 90
1
176
1
 90
1
176
1
 40
1.0
176
1
 90
8
176
1
 62
7
176
1
 40
1.0
176
1
 90
1
176
1
 90
6
176
1
 90
2
176
1
 62
7
176
1
 90
5
176
1
 90
0
176
1
 90
0
176
1
290
0
176
1
 90
1
176
1
 40
0.0
176
1
 90
0
176
1
290
0
176
1
290
1
176
1
290
1
176
1
290
0
176
1
290
0
176
1
290
0
176
1
290
0
176
1
290
0
176
1
290
0
176
1
 90
50
176
1
 40
0.0
176
1
 40
1.0
176
1
 90
0
176
1
 62
18
420
0
176
1
 90
50
176
1
 90
3
176
1
 62
5
420
255
176
1
290
0
176
1
 90
50
176
1
 90
50
176
1
 90
50
176
1
290
0
176
1
 90
50
176
1
 62
256
176
0
 40
1.0
176
0
 90
2
176
1
  1
strokes_ogs.tif
176
1
290
0
176
1
 40
1.0
176
1
 40
1.0
176
1
  0
VISUALSTYLE
  5
67
102
{ACAD_REACTORS
330
16
102
}
330
16
100
AcDbVisualStyle
  2
JitterOff
 70
20
177
3
291
1
 70
58
 90
2
176
1
 90
2
176
1
 90
0
176
1
 90
2
176
1
 40
0.6
176
1
 40
30.0
176
1
 62
7
420
16777215
176
1
 90
1
176
1
 90
4
176
1
 62
7
176
1
 62
257
176
1
 90
1
176
1
 90
1
176
1
 40
1.0
176
1
 90
8
176
1
 62
7
176
1
 40
1.0
176
1
 90
1
176
1
 90
6
176
1
 90
2
176
1
 62
7
176
1
 90
5
176
1
 90
0
176
1
 90
0
176
1
290
0
176
1
 90
1
176
1
 40
0.0
176
1
 90
0
176
1
290
0
176
1
290
1
176
1
290
1
176
1
290
0
176
1
290
0
176
1
290
0
176
1
290
0
176
1
290
0
176
1
290
0
176
1
 90
50
176
1
 40
0.0
176
1
 40
1.0
176
1
 90
0
176
1
 62
18
420
0
176
1
 90
50
176
1
 90
3
176
1
 62
5
420
255
176
1
290
0
176
1
 90
50
176
1
 90
50
176
1
 90
50
176
1
290
0
176
1
 90
50
176
1
 62
256
176
0
 40
1.0
176
0
 90
2
176
1
  1
strokes_ogs.tif
176
1
290
0
176
1
 40
1.0
176
1
 40
1.0
176
1
  0
VISUALSTYLE
  5
68
102
{ACAD_REACTORS
330
16
102
}
330
16
100
AcDbVisualStyle
  2
Linepattern
 70
14
177
3
291
1
 70
58
 90
2
176
1
 90
2
176
1
 90
0
176
1
 90
2
176
1
 40
0.6
176
1
 40
30.0
176
1
 62
7
420
16777215
176
1
 90
1
176
1
 90
4
176
1
 62
7
176
1
 62
257
176
1
 90
1
176
1
 90
1
176
1
 40
1.0
176
1
 90
8
176
1
 62
7
176
1
 40
1.0
176
1
 90
1
176
1
 90
6
176
1
 90
2
176
1
 62
7
176
1
 90
5
176
1
 90
0
176
1
 90
0
176
1
290
0
176
1
 90
1
176
1
 40
0.0
176
1
 90
0
176
1
290
0
176
1
290
1
176
1
290
1
176
1
290
0
176
1
290
0
176
1
290
0
176
1
290
0
176
1
290
0
176
1
290
0
176
1
 90
50
176
1
 40
0.0
176
1
 40
1.0
176
1
 90
0
176
1
 62
18
420
0
176
1
 90
50
176
1
 90
3
176
1
 62
5
420
255
176
1
290
0
176
1
 90
50
176
1
 90
50
176
1
 90
50
176
1
290
0
176
1
 90
50
176
1
 62
256
176
0
 40
1.0
176
0
 90
2
176
1
  1
strokes_ogs.tif
176
1
290
0
176
1
 40
1.0
176
1
 40
1.0
176
1
  0
VISUALSTYLE
  5
69
102
{ACAD_REACTORS
330
16
102
}
330
16
100
AcDbVisualStyle
  2
Modeling
 70
10
177
3
291
0
 70
58
 90
2
176
1
 90
2
176
1
 90
0
176
1
 90
2
176
1
 40
0.6
176
1
 40
30.0
176
1
 62
7
420
16777215
176
1
 90
1
176
1
 90
4
176
1
 62
7
176
1
 62
257
176
1
 90
1
176
1
 90
1
176
1
 40
1.0
176
1
 90
8
176
1
 62
7
176
1
 40
1.0
176
1
 90
1
176
1
 90
6
176
1
 90
2
176
1
 62
7
176
1
 90
5
176
1
 90
0
176
1
 90
0
176
1
290
0
176
1
 90
1
176
1
 40
0.0
176
1
 90
0
176
1
290
0
176
1
290
1
176
1
290
1
176
1
290
0
176
1
290
0
176
1
290
0
176
1
290
0
176
1
290
0
176
1
290
0
176
1
 90
50
176
1
 40
0.0
176
1
 40
1.0
176
1
 90
0
176
1
 62
18
420
0
176
1
 90
50
176
1
 90
3
176
1
 62
5
420
255
176
1
290
0
176
1
 90
50
176
1
 90
50
176
1
 90
50
176
1
290
0
176
1
 90
50
176
1
 62
256
176
0
 40
1.0
176
0
 90
2
176
1
  1
strokes_ogs.tif
176
1
290
0
176
1
 40
1.0
176
1
 40
1.0
176
1
  0
VISUALSTYLE
  5
6A
102
{ACAD_REACTORS
330
16
102
}
330
16
100
AcDbVisualStyle
  2
OverhangOff
 70
21
177
3
291
1
 70
58
 90
2
176
1
 90
2
176
1
 90
0
176
1
 90
2
176
1
 40
0.6
176
1
 40
30.0
176
1
 62
7
420
16777215
176
1
 90
1
176
1
 90
4
176
1
 62
7
176
1
 62
257
176
1
 90
1
176
1
 90
1
176
1
 40
1.0
176
1
 90
8
176
1
 62
7
176
1
 40
1.0
176
1
 90
1
176
1
 90
6
176
1
 90
2
176
1
 62
7
176
1
 90
5
176
1
 90
0
176
1
 90
0
176
1
290
0
176
1
 90
1
176
1
 40
0.0
176
1
 90
0
176
1
290
0
176
1
290
1
176
1
290
1
176
1
290
0
176
1
290
0
176
1
290
0
176
1
290
0
176
1
290
0
176
1
290
0
176
1
 90
50
176
1
 40
0.0
176
1
 40
1.0
176
1
 90
0
176
1
 62
18
420
0
176
1
 90
50
176
1
 90
3
176
1
 62
5
420
255
176
1
290
0
176
1
 90
50
176
1
 90
50
176
1
 90
50
176
1
290
0
176
1
 90
50
176
1
 62
256
176
0
 40
1.0
176
0
 90
2
176
1
  1
strokes_ogs.tif
176
1
290
0
176
1
 40
1.0
176
1
 40
1.0
176
1
  0
VISUALSTYLE
  5
6B
102
{ACAD_REACTORS
330
16
102
}
330
16
100
AcDbVisualStyle
  2
Realistic
 70
8
177
3
291
0
 70
58
 90
2
176
1
 90
2
176
1
 90
0
176
1
 90
2
176
1
 40
0.6
176
1
 40
30.0
176
1
 62
7
420
16777215
176
1
 90
1
176
1
 90
4
176
1
 62
7
176
1
 62
257
176
1
 90
1
176
1
 90
1
176
1
 40
1.0
176
1
 90
8
176
1
 62
7
176
1
 40
1.0
176
1
 90
1
176
1
 90
6
176
1
 90
2
176
1
 62
7
176
1
 90
5
176
1
 90
0
176
1
 90
0
176
1
290
0
176
1
 90
1
176
1
 40
0.0
176
1
 90
0
176
1
290
0
176
1
290
1
176
1
290
1
176
1
290
0
176
1
290
0
176
1
290
0
176
1
290
0
176
1
290
0
176
1
290
0
176
1
 90
50
176
1
 40
0.0
176
1
 40
1.0
176
1
 90
0
176
1
 62
18
420
0
176
1
 90
50
176
1
 90
3
176
1
 62
5
420
255
176
1
290
0
176
1
 90
50
176
1
 90
50
176
1
 90
50
176
1
290
0
176
1
 90
50
176
1
 62
256
176
0
 40
1.0
176
0
 90
2
176
1
  1
strokes_ogs.tif
176
1
290
0
176
1
 40
1.0
176
1
 40
1.0
176
1
  0
VISUALSTYLE
  5
6C
102
{ACAD_REACTORS
330
16
102
}
330
16
100
AcDbVisualStyle
  2
Shaded
 70
27
177
3
291
0
 70
58
 90
2
176
1
 90
2
176
1
 90
0
176
1
 90
2
176
1
 40
0.6
176
1
 40
30.0
176
1
 62
7
420
16777215
176
1
 90
1
176
1
 90
4
176
1
 62
7
176
1
 62
257
176
1
 90
1
176
1
 90
1
176
1
 40
1.0
176
1
 90
8
176
1
 62
7
176
1
 40
1.0
176
1
 90
1
176
1
 90
6
176
1
 90
2
176
1
 62
7
176
1
 90
5
176
1
 90
0
176
1
 90
0
176
1
290
0
176
1
 90
1
176
1
 40
0.0
176
1
 90
0
176
1
290
0
176
1
290
1
176
1
290
1
176
1
290
0
176
1
290
0
176
1
290
0
176
1
290
0
176
1
290
0
176
1
290
0
176
1
 90
50
176
1
 40
0.0
176
1
 40
1.0
176
1
 90
0
176
1
 62
18
420
0
176
1
 90
50
176
1
 90
3
176
1
 62
5
420
255
176
1
290
0
176
1
 90
50
176
1
 90
50
176
1
 90
50
176
1
290
0
176
1
 90
50
176
1
 62
256
176
0
 40
1.0
176
0
 90
2
176
1
  1
strokes_ogs.tif
176
1
290
0
176
1
 40
1.0
176
1
 40
1.0
176
1
  0
VISUALSTYLE
  5
6D
102
{ACAD_REACTORS
330
16
102
}
330
16
100
AcDbVisualStyle
  2
Shaded with edges
 70
26
177
3
291
0
 70
58
 90
2
176
1
 90
2
176
1
 90
0
176
1
 90
2
176
1
 40
0.6
176
1
 40
30.0
176
1
 62
7
420
16777215
176
1
 90
1
176
1
 90
4
176
1
 62
7
176
1
 62
257
176
1
 90
1
176
1
 90
1
176
1
 40
1.0
176
1
 90
8
176
1
 62
7
176
1
 40
1.0
176
1
 90
1
176
1
 90
6
176
1
 90
2
176
1
 62
7
176
1
 90
5
176
1
 90
0
176
1
 90
0
176
1
290
0
176
1
 90
1
176
1
 40
0.0
176
1
 90
0
176
1
290
0
176
1
290
1
176
1
290
1
176
1
290
0
176
1
290
0
176
1
290
0
176
1
290
0
176
1
290
0
176
1
290
0
176
1
 90
50
176
1
 40
0.0
176
1
 40
1.0
176
1
 90
0
176
1
 62
18
420
0
176
1
 90
50
176
1
 90
3
176
1
 62
5
420
255
176
1
290
0
176
1
 90
50
176
1
 90
50
176
1
 90
50
176
1
290
0
176
1
 90
50
176
1
 62
256
176
0
 40
1.0
176
0
 90
2
176
1
  1
strokes_ogs.tif
176
1
290
0
176
1
 40
1.0
176
1
 40
1.0
176
1
  0
VISUALSTYLE
  5
6E
102
{ACAD_REACTORS
330
16
102
}
330
16
100
AcDbVisualStyle
  2
Shades of Gray
 70
23
177
3
291
0
 70
58
 90
2
176
1
 90
2
176
1
 90
0
176
1
 90
2
176
1
 40
0.6
176
1
 40
30.0
176
1
 62
7
420
16777215
176
1
 90
1
176
1
 90
4
176
1
 62
7
176
1
 62
257
176
1
 90
1
176
1
 90
1
176
1
 40
1.0
176
1
 90
8
176
1
 62
7
176
1
 40
1.0
176
1
 90
1
176
1
 90
6
176
1
 90
2
176
1
 62
7
176
1
 90
5
176
1
 90
0
176
1
 90
0
176
1
290
0
176
1
 90
1
176
1
 40
0.0
176
1
 90
0
176
1
290
0
176
1
290
1
176
1
290
1
176
1
290
0
176
1
290
0
176
1
290
0
176
1
290
0
176
1
290
0
176
1
290
0
176
1
 90
50
176
1
 40
0.0
176
1
 40
1.0
176
1
 90
0
176
1
 62
18
420
0
176
1
 90
50
176
1
 90
3
176
1
 62
5
420
255
176
1
290
0
176
1
 90
50
176
1
 90
50
176
1
 90
50
176
1
290
0
176
1
 90
50
176
1
 62
256
176
0
 40
1.0
176
0
 90
2
176
1
  1
strokes_ogs.tif
176
1
290
0
176
1
 40
1.0
176
1
 40
1.0
176
1
  0
VISUALSTYLE
  5
6F
102
{ACAD_REACTORS
330
16
102
}
330
16
100
AcDbVisualStyle
  2
Sketchy
 70
24
177
3
291
0
 70
58
 90
2
176
1
 90
2
176
1
 90
0
176
1
 90
1
176
1
 40
0.6
176
1
 40
30.0
176
1
 62
7
420
16777215
176
1
 90
1
176
1
 90
4
176
1
 62
7
176
1
 62
257
176
1
 90
1
176
1
 90
1
176
1
 40
1.0
176
1
 90
8
176
1
 62
7
176
1
 40
1.0
176
1
 90
1
176
1
 90
6
176
1
 90
2
176
1
 62
7
176
1
 90
5
176
1
 90
0
176
1
 90
0
176
1
290
0
176
1
 90
1
176
1
 40
0.0
176
1
 90
0
176
1
290
0
176
1
290
1
176
1
290
1
176
1
290
0
176
1
290
0
176
1
290
0
176
1
290
0
176
1
290
0
176
1
290
0
176
1
 90
50
176
1
 40
0.0
176
1
 40
1.0
176
1
 90
0
176
1
 62
18
420
0
176
1
 90
50
176
1
 90
3
176
1
 62
5
420
255
176
1
290
0
176
1
 90
50
176
1
 90
50
176
1
 90
50
176
1
290
0
176
1
 90
50
176
1
 62
256
176
0
 40
1.0
176
0
 90
2
176
1
  1
strokes_ogs.tif
176
1
290
0
176
1
 40
1.0
176
1
 40
1.0
176
1
  0
VISUALSTYLE
  5
70
102
{ACAD_REACTORS
330
16
102
}
330
16
100
AcDbVisualStyle
  2
Thicken
 70
13
177
3
291
1
 70
58
 90
2
176
1
 90
2
176
1
 90
0
176
1
 90
2
176
1
 40
0.6
176
1
 40
30.0
176
1
 62
7
420
16777215
176
1
 90
1
176
1
 90
4
176
1
 62
7
176
1
 62
257
176
1
 90
1
176
1
 90
1
176
1
 40
1.0
176
1
 90
8
176
1
 62
7
176
1
 40
1.0
176
1
 90
1
176
1
 90
6
176
1
 90
2
176
1
 62
7
176
1
 90
5
176
1
 90
0
176
1
 90
0
176
1
290
0
176
1
 90
1
176
1
 40
0.0
176
1
 90
0
176
1
290
0
176
1
290
1
176
1
290
1
176
1
290
0
176
1
290
0
176
1
290
0
176
1
290
0
176
1
290
0
176
1
290
0
176
1
 90
50
176
1
 40
0.0
176
1
 40
1.0
176
1
 90
0
176
1
 62
18
420
0
176
1
 90
50
176
1
 90
3
176
1
 62
5
420
255
176
1
290
0
176
1
 90
50
176
1
 90
50
176
1
 90
50
176
1
290
0
176
1
 90
50
176
1
 62
256
176
0
 40
1.0
176
0
 90
2
176
1
  1
strokes_ogs.tif
176
1
290
0
176
1
 40
1.0
176
1
 40
1.0
176
1
  0
VISUALSTYLE
  5
71
102
{ACAD_REACTORS
330
16
102
}
330
16
100
AcDbVisualStyle
  2
Wireframe
 70
5
177
3
291
0
 70
58
 90
2
176
1
 90
2
176
1
 90
0
176
1
 90
0
176
1
 40
0.6
176
1
 40
30.0
176
1
 62
7
420
16777215
176
1
 90
1
176
1
 90
4
176
1
 62
7
176
1
 62
257
176
1
 90
1
176
1
 90
1
176
1
 40
1.0
176
1
 90
8
176
1
 62
7
176
1
 40
1.0
176
1
 90
1
176
1
 90
6
176
1
 90
2
176
1
 62
7
176
1
 90
5
176
1
 90
0
176
1
 90
0
176
1
290
0
176
1
 90
1
176
1
 40
0.0
176
1
 90
0
176
1
290
0
176
1
290
1
176
1
290
1
176
1
290
0
176
1
290
0
176
1
290
0
176
1
290
0
176
1
290
0
176
1
290
0
176
1
 90
50
176
1
 40
0.0
176
1
 40
1.0
176
1
 90
0
176
1
 62
18
420
0
176
1
 90
50
176
1
 90
3
176
1
 62
5
420
255
176
1
290
0
176
1
 90
50
176
1
 90
50
176
1
 90
50
176
1
290
0
176
1
 90
50
176
1
 62
256
176
0
 40
1.0
176
0
 90
2
176
1
  1
strokes_ogs.tif
176
1
290
0
176
1
 40
1.0
176
1
 40
1.0
176
1
  0
VISUALSTYLE
  5
72
102
{ACAD_REACTORS
330
16
102
}
330
16
100
AcDbVisualStyle
  2
X-Ray
 70
25
177
3
291
0
 70
58
 90
2
176
1
 90
2
176
1
 90
0
176
1
 90
2
176
1
 40
0.5
176
1
 40
30.0
176
1
 62
7
420
16777215
176
1
 90
1
176
1
 90
4
176
1
 62
7
176
1
 62
257
176
1
 90
1
176
1
 90
1
176
1
 40
1.0
176
1
 90
8
176
1
 62
7
176
1
 40
1.0
176
1
 90
1
176
1
 90
6
176
1
 90
2
176
1
 62
7
176
1
 90
5
176
1
 90
0
176
1
 90
0
176
1
290
0
176
1
 90
1
176
1
 40
0.0
176
1
 90
0
176
1
290
0
176
1
290
1
176
1
290
1
176
1
290
0
176
1
290
0
176
1
290
0
176
1
290
0
176
1
290
0
176
1
290
0
176
1
 90
50
176
1
 40
0.0
176
1
 40
1.0
176
1
 90
0
176
1
 62
18
420
0
176
1
 90
50
176
1
 90
3
176
1
 62
5
420
255
176
1
290
0
176
1
 90
50
176
1
 90
50
176
1
 90
50
176
1
290
0
176
1
 90
50
176
1
 62
256
176
0
 40
1.0
176
0
 90
2
176
1
  1
strokes_ogs.tif
176
1
290
0
176
1
 40
1.0
176
1
 40
1.0
176
1
  0
DICTIONARYVAR
  5
27B
330
2D
100
DictionaryVariables
280
0
  1
1.4.4 @ 2026-10-08T17:36:59.414164+00:00
  0
ENDSEC
  0
EOF
