  0
SECTION
  2
HEADER
  9
$ACADVER
  1
AC1032
  9
$ACADMAINTVER
 90
4
  9
$DWGCODEPAGE
  3
ANSI_1252
  9
$LASTSAVEDBY
  1
ezdxf
  9
$REQUIREDVERSIONS
160
0
  9
$INSBASE
 10
0.0
 20
0.0
 30
0.0
  9
$EXTMIN
 10
1e+20
 20
1e+20
 30
1e+20
  9
$EXTMAX
 10
-1e+20
 20
-1e+20
 30
-1e+20
  9
$LIMMIN
 10
0.0
 20
0.0
  9
$LIMMAX
 10
420.0
 20
297.0
  9
$ORTHOMODE
 70
0
  9
$REGENMODE
 70
1
  9
$FILLMODE
 70
1
  9
$QTEXTMODE
 70
0
  9
$MIRRTEXT
 70
1
  9
$LTSCALE
 40
1.0
  9
$ATTMODE
 70
1
  9
$TEXTSIZE
 40
2.5
  9
$TRACEWID
 40
1.0
  9
$TEXTSTYLE
  7
OpenSans
  9
$CLAYER
  8
0
  9
$CELTYPE
  6
ByLayer
  9
$CECOLOR
 62
256
  9
$CELTSCALE
 40
1.0
  9
$DISPSILH
 70
0
  9
$DIMSCALE
 40
1.0
  9
$DIMASZ
 40
0.175
  9
$DIMEXO
 40
0.125
  9
$DIMDLI
 40
3.75
  9
$DIMRND
 40
0.0
  9
$DIMDLE
 40
0.0
  9
$DIMEXE
 40
0.375
  9
$DIMTP
 40
0.0
  9
$DIMTM
 40
0.0
  9
$DIMTXT
 40
0.25
  9
$DIMCEN
 40
2.5
  9
$DIMTSZ
 40
0.0
  9
$DIMTOL
 70
0
  9
$DIMLIM
 70
0
  9
$DIMTIH
 70
0
  9
$DIMTOH
 70
0
  9
$DIMSE1
 70
0
  9
$DIMSE2
 70
0
  9
$DIMTAD
 70
1
  9
$DIMZIN
 70
12
  9
$DIMBLK
  1
ARCHTICK
  9
$DIMASO
 70
1
  9
$DIMSHO
 70
1
  9
$DIMPOST
  1

  9
$DIMAPOST
  1

  9
$DIMALT
 70
0
  9
$DIMALTD
 70
3
  9
$DIMALTF
 40
0.03937007874
  9
$DIMLFAC
 40
100.0
  9
$DIMTOFL
 70
1
  9
$DIMTVP
 40
0.0
  9
$DIMTIX
 70
0
  9
$DIMSOXD
 70
0
  9
$DIMSAH
 70
0
  9
$DIMBLK1
  1

  9
$DIMBLK2
  1

  9
$DIMSTYLE
  2
EZDXF
  9
$DIMCLRD
 70
0
  9
$DIMCLRE
 70
0
  9
$DIMCLRT
 70
0
  9
$DIMTFAC
 40
0.5
  9
$DIMGAP
 40
0.1
  9
$DIMJUST
 70
0
  9
$DIMSD1
 70
0
  9
$DIMSD2
 70
0
  9
$DIMTOLJ
 70
0
  9
$DIMTZIN
 70
8
  9
$DIMALTZ
 70
0
  9
$DIMALTTZ
 70
0
  9
$DIMUPT
 70
1
  9
$DIMDEC
 70
2
  9
$DIMTDEC
 70
2
  9
$DIMALTU
 70
2
  9
$DIMALTTD
 70
3
  9
$DIMTXSTY
  7
OpenSansCondensed-Light
  9
$DIMAUNIT
 70
0
  9
$DIMADEC
 70
2
  9
$DIMALTRND
 40
0.0
  9
$DIMAZIN
 70
3
  9
$DIMDSEP
 70
46
  9
$DIMATFIT
 70
3
  9
$DIMFRAC
 70
0
  9
$DIMLDRBLK
  1

  9
$DIMLUNIT
 70
2
  9
$DIMLWD
 70
-2
  9
$DIMLWE
 70
-2
  9
$DIMTMOVE
 70
2
  9
$DIMFXL
 40
1.0
  9
$DIMFXLON
 70
0
  9
$DIMJOGANG
 40
0.785398163397
  9
$DIMTFILL
 70
0
  9
$DIMTFILLCLR
 70
0
  9
$DIMARCSYM
 70
0
  9
$DIMLTYPE
  6

  9
$DIMLTEX1
  6

  9
$DIMLTEX2
  6

  9
$DIMTXTDIRECTION
 70
0
  9
$LUNITS
 70
2
  9
$LUPREC
 70
4
  9
$SKETCHINC
 40
1.0
  9
$FILLETRAD
 40
10.0
  9
$AUNITS
 70
0
  9
$AUPREC
 70
2
  9
$MENU
  1
.
  9
$ELEVATION
 40
0.0
  9
$PELEVATION
 40
0.0
  9
$THICKNESS
 40
0.0
  9
$LIMCHECK
 70
0
  9
$CHAMFERA
 40
0.0
  9
$CHAMFERB
 40
0.0
  9
$CHAMFERC
 40
0.0
  9
$CHAMFERD
 40
0.0
  9
$SKPOLY
 70
0
  9
$TDCREATE
 40
2461322.73375
  9
$TDUCREATE
 40
2458532.153996898
  9
$TDUPDATE
 40
2461322.73375
  9
$TDUUPDATE
 40
2458532.1544311
  9
$TDINDWG
 40
0.0
  9
$TDUSRTIMER
 40
0.0
  9
$USRTIMER
 70
1
  9
$ANGBASE
 50
0.0
  9
$ANGDIR
 70
0
  9
$PDMODE
 70
0
  9
$PDSIZE
 40
0.0
  9
$PLINEWID
 40
0.0
  9
$SPLFRAME
 70
0
  9
$SPLINETYPE
 70
6
  9
$SPLINESEGS
 70
8
  9
$HANDSEED
  5
24F
  9
$SURFTAB1
 70
6
  9
$SURFTAB2
 70
6
  9
$SURFTYPE
 70
6
  9
$SURFU
 70
6
  9
$SURFV
 70
6
  9
$UCSBASE
  2

  9
$UCSNAME
  2

  9
$UCSORG
 10
0.0
 20
0.0
 30
0.0
  9
$UCSXDIR
 10
1.0
 20
0.0
 30
0.0
  9
$UCSYDIR
 10
0.0
 20
1.0
 30
0.0
  9
$UCSORTHOREF
  2

  9
$UCSORTHOVIEW
 70
0
  9
$UCSORGTOP
 10
0.0
 20
0.0
 30
0.0
  9
$UCSORGBOTTOM
 10
0.0
 20
0.0
 30
0.0
  9
$UCSORGLEFT
 10
0.0
 20
0.0
 30
0.0
  9
$UCSORGRIGHT
 10
0.0
 20
0.0
 30
0.0
  9
$UCSORGFRONT
 10
0.0
 20
0.0
 30
0.0
  9
$UCSORGBACK
 10
0.0
 20
0.0
 30
0.0
  9
$PUCSBASE
  2

  9
$PUCSNAME
  2

  9
$PUCSORG
 10
0.0
 20
0.0
 30
0.0
  9
$PUCSXDIR
 10
1.0
 20
0.0
 30
0.0
  9
$PUCSYDIR
 10
0.0
 20
1.0
 30
0.0
  9
$PUCSORTHOREF
  2

  9
$PUCSORTHOVIEW
 70
0
  9
$PUCSORGTOP
 10
0.0
 20
0.0
 30
0.0
  9
$PUCSORGBOTTOM
 10
0.0
 20
0.0
 30
0.0
  9
$PUCSORGLEFT
 10
0.0
 20
0.0
 30
0.0
  9
$PUCSORGRIGHT
 10
0.0
 20
0.0
 30
0.0
  9
$PUCSORGFRONT
 10
0.0
 20
0.0
 30
0.0
  9
$PUCSORGBACK
 10
0.0
 20
0.0
 30
0.0
  9
$USERI1
 70
0
  9
$USERI2
 70
0
  9
$USERI3
 70
0
  9
$USERI4
 70
0
  9
$USERI5
 70
0
  9
$USERR1
 40
0.0
  9
$USERR2
 40
0.0
  9
$USERR3
 40
0.0
  9
$USERR4
 40
0.0
  9
$USERR5
 40
0.0
  9
$WORLDVIEW
 70
1
  9
$SHADEDGE
 70
3
  9
$SHADEDIF
 70
70
  9
$TILEMODE
 70
1
  9
$MAXACTVP
 70
64
  9
$PINSBASE
 10
0.0
 20
0.0
 30
0.0
  9
$PLIMCHECK
 70
0
  9
$PEXTMIN
 10
1e+20
 20
1e+20
 30
1e+20
  9
$PEXTMAX
 10
-1e+20
 20
-1e+20
 30
-1e+20
  9
$PLIMMIN
 10
0.0
 20
0.0
  9
$PLIMMAX
 10
420.0
 20
297.0
  9
$UNITMODE
 70
0
  9
$VISRETAIN
 70
1
  9
$PLINEGEN
 70
0
  9
$PSLTSCALE
 70
1
  9
$TREEDEPTH
 70
3020
  9
$CMLSTYLE
  2
Standard
  9
$CMLJUST
 70
0
  9
$CMLSCALE
 40
20.0
  9
$PROXYGRAPHICS
 70
1
  9
$MEASUREMENT
 70
1
  9
$CELWEIGHT
370
-1
  9
$ENDCAPS
280
0
  9
$JOINSTYLE
280
0
  9
$LWDISPLAY
290
0
  9
$INSUNITS
 70
4
  9
$HYPERLINKBASE
  1

  9
$STYLESHEET
  1

  9
$XEDIT
290
1
  9
$CEPSNTYPE
380
0
  9
$PSTYLEMODE
290
1
  9
$FINGERPRINTGUID
  2
{69E260F6-0FDA-46E9-847C-961353D23D83}
  9
$VERSIONGUID
  2
{D4A89400-D296-43CD-B1DF-13C20610026B}
  9
$EXTNAMES
290
1
  9
$PSVPSCALE
 40
0.0
  9
$OLESTARTUP
290
0
  9
$SORTENTS
280
127
  9
$INDEXCTL
280
0
  9
$HIDETEXT
280
1
  9
$XCLIPFRAME
280
1
  9
$HALOGAP
280
0
  9
$OBSCOLOR
 70
257
  9
$OBSLTYPE
280
0
  9
$INTERSECTIONDISPLAY
280
0
  9
$INTERSECTIONCOLOR
 70
257
  9
$DIMASSOC
280
2
  9
$PROJECTNAME
  1

  9
$CAMERADISPLAY
290
0
  9
$LENSLENGTH
 40
50.0
  9
$CAMERAHEIGHT
 40
0.0
  9
$STEPSPERSEC
 40
24.0
  9
$STEPSIZE
 40
100.0
  9
$3DDWFPREC
 40
2.0
  9
$PSOLWIDTH
 40
0.005
  9
$PSOLHEIGHT
 40
0.08
  9
$LOFTANG1
 40
1.570796326795
  9
$LOFTANG2
 40
1.570796326795
  9
$LOFTMAG1
 40
0.0
  9
$LOFTMAG2
 40
0.0
  9
$LOFTPARAM
 70
7
  9
$LOFTNORMALS
280
1
  9
$LATITUDE
 40
37.795
  9
$LONGITUDE
 40
-122.394
  9
$NORTHDIRECTION
 40
0.0
  9
$TIMEZONE
 70
-8000
  9
$LIGHTGLYPHDISPLAY
280
1
  9
$TILEMODELIGHTSYNCH
280
1
  9
$CMATERIAL
347
20
  9
$SOLIDHIST
280
0
  9
$SHOWHIST
280
1
  9
$DWFFRAME
280
2
  9
$DGNFRAME
280
2
  9
$REALWORLDSCALE
290
1
  9
$INTERFERECOLOR
 62
256
  9
$CSHADOW
280
0
  9
$SHADOWPLANELOCATION
 40
0.0
  0
ENDSEC
  0
SECTION
  2
CLASSES
  0
CLASS
  1
ACDBDICTIONARYWDFLT
  2
AcDbDictionaryWithDefault
  3
ObjectDBX Classes
 90
0
 91
0
280
0
281
0
  0
CLASS
  1
SUN
  2
AcDbSun
  3
SCENEOE
 90
1153
 91
0
280
0
281
0
  0
CLASS
  1
VISUALSTYLE
  2
AcDbVisualStyle
  3
ObjectDBX Classes
 90
4095
 91
0
280
0
281
0
  0
CLASS
  1
MATERIAL
  2
AcDbMaterial
  3
ObjectDBX Classes
 90
1153
 91
0
280
0
281
0
  0
CLASS
  1
SCALE
  2
AcDbScale
  3
ObjectDBX Classes
 90
1153
 91
0
280
0
281
0
  0
CLASS
  1
TABLESTYLE
  2
AcDbTableStyle
  3
ObjectDBX Classes
 90
4095
 91
0
280
0
281
0
  0
CLASS
  1
MLEADERSTYLE
  2
AcDbMLeaderStyle
  3
ACDB_MLEADERSTYLE_CLASS
 90
4095
 91
0
280
0
281
0
  0
CLASS
  1
DICTIONARYVAR
  2
AcDbDictionaryVar
  3
ObjectDBX Classes
 90
0
 91
0
280
0
281
0
  0
CLASS
  1
CELLSTYLEMAP
  2
AcDbCellStyleMap
  3
ObjectDBX Classes
 90
1152
 91
0
280
0
281
0
  0
CLASS
  1
MENTALRAYRENDERSETTINGS
  2
AcDbMentalRayRenderSettings
  3
SCENEOE
 90
1024
 91
0
280
0
281
0
  0
CLASS
  1
ACDBDETAILVIEWSTYLE
  2
AcDbDetailViewStyle
  3
ObjectDBX Classes
 90
1025
 91
0
280
0
281
0
  0
CLASS
  1
ACDBSECTIONVIEWSTYLE
  2
AcDbSectionViewStyle
  3
ObjectDBX Classes
 90
1025
 91
0
280
0
281
0
  0
CLASS
  1
RASTERVARIABLES
  2
AcDbRasterVariables
  3
ISM
 90
0
 91
0
280
0
281
0
  0
CLASS
  1
ACDBPLACEHOLDER
  2
AcDbPlaceHolder
  3
ObjectDBX Classes
 90
0
 91
0
280
0
281
0
  0
CLASS
  1
LAYOUT
  2
AcDbLayout
  3
ObjectDBX Classes
 90
0
 91
0
280
0
281
0
  0
ENDSEC
  0
SECTION
  2
TABLES
  0
TABLE
  2
VPORT
  5
8
330
0
100
AcDbSymbolTable
 70
1
  0
VPORT
  5
23
330
8
100
AcDbSymbolTableRecord
100
AcDbViewportTableRecord
  2
*Active
 70
0
 10
0.0
 20
0.0
 11
1.0
 21
1.0
 12
0.0
 22
0.0
 13
0.0
 23
0.0
 14
0.5
 24
0.5
 15
0.5
 25
0.5
 16
0.0
 26
0.0
 36
1.0
 17
0.0
 27
0.0
 37
0.0
 40
1000.0
 41
1.34
 42
50.0
 43
0.0
 44
0.0
 50
0.0
 51
0.0
 71
0
 72
1000
 73
1
 74
3
 75
0
 76
0
 77
0
 78
0
281
0
 65
0
146
0.0
  0
ENDTAB
  0
TABLE
  2
LTYPE
  5
2
330
0
100
AcDbSymbolTable
 70
21
  0
LTYPE
  5
24
330
2
100
AcDbSymbolTableRecord
100
AcDbLinetypeTableRecord
  2
ByBlock
 70
0
  3

 72
65
 73
0
 40
0.0
  0
LTYPE
  5
25
330
2
100
AcDbSymbolTableRecord
100
AcDbLinetypeTableRecord
  2
ByLayer
 70
0
  3

 72
65
 73
0
 40
0.0
  0
LTYPE
  5
26
330
2
100
AcDbSymbolTableRecord
100
AcDbLinetypeTableRecord
  2
Continuous
 70
0
  3

 72
65
 73
0
 40
0.0
  0
LTYPE
  5
2F
330
2
100
AcDbSymbolTableRecord
100
AcDbLinetypeTableRecord
  2
CENTER
 70
0
  3
Center ____ _ ____ _ ____ _ ____ _ ____ _ ____
 72
65
 73
4
 40
5.08
 49
3.175
 74
0
 49
-0.635
 74
0
 49
0.635
 74
0
 49
-0.635
 74
0
  0
LTYPE
  5
30
330
2
100
AcDbSymbolTableRecord
100
AcDbLinetypeTableRecord
  2
CENTERX2
 70
0
  3
Center (2x) ________  __  ________  __  ________
 72
65
 73
4
 40
8.89
 49
6.35
 74
0
 49
-0.635
 74
0
 49
1.27
 74
0
 49
-0.635
 74
0
  0
LTYPE
  5
31
330
2
100
AcDbSymbolTableRecord
100
AcDbLinetypeTableRecord
  2
CENTER2
 70
0
  3
Center (.5x) ____ _ ____ _ ____ _ ____ _ ____
 72
65
 73
4
 40
2.54
 49
1.587
 74
0
 49
-0.318
 74
0
 49
0.318
 74
0
 49
-0.318
 74
0
  0
LTYPE
  5
32
330
2
100
AcDbSymbolTableRecord
100
AcDbLinetypeTableRecord
  2
DASHED
 70
0
  3
Dashed __ __ __ __ __ __ __ __ __ __ __ __ __ _
 72
65
 73
2
 40
1.524
 49
1.27
 74
0
 49
-0.254
 74
0
  0
LTYPE
  5
33
330
2
100
AcDbSymbolTableRecord
100
AcDbLinetypeTableRecord
  2
DASHEDX2
 70
0
  3
Dashed (2x) ____  ____  ____  ____  ____  ____
 72
65
 73
2
 40
3.048
 49
2.54
 74
0
 49
-0.508
 74
0
  0
LTYPE
  5
34
330
2
100
AcDbSymbolTableRecord
100
AcDbLinetypeTableRecord
  2
DASHED2
 70
0
  3
Dashed (.5x) _ _ _ _ _ _ _ _ _ _ _ _ _ _
 72
65
 73
2
 40
0.762
 49
0.635
 74
0
 49
-0.127
 74
0
  0
LTYPE
  5
35
330
2
100
AcDbSymbolTableRecord
100
AcDbLinetypeTableRecord
  2
PHANTOM
 70
0
  3
Phantom ______  __  __  ______  __  __  ______
 72
65
 73
6
 40
6.35
 49
3.175
 74
0
 49
-0.635
 74
0
 49
0.635
 74
0
 49
-0.635
 74
0
 49
0.635
 74
0
 49
-0.635
 74
0
  0
LTYPE
  5
36
330
2
100
AcDbSymbolTableRecord
100
AcDbLinetypeTableRecord
  2
PHANTOMX2
 70
0
  3
Phantom (2x)____________    ____    ____    ____________
 72
65
 73
6
 40
10.795
 49
6.35
 74
0
 49
-0.635
 74
0
 49
1.27
 74
0
 49
-0.635
 74
0
 49
1.27
 74
0
 49
-0.635
 74
0
  0
LTYPE
  5
37
330
2
100
AcDbSymbolTableRecord
100
AcDbLinetypeTableRecord
  2
PHANTOM2
 70
0
  3
Phantom (.5x) ___ _ _ ___ _ _ ___ _ _ ___ _ _ ___
 72
65
 73
6
 40
3.175
 49
1.587
 74
0
 49
-0.318
 74
0
 49
0.318
 74
0
 49
-0.318
 74
0
 49
0.318
 74
0
 49
-0.318
 74
0
  0
LTYPE
  5
38
330
2
100
AcDbSymbolTableRecord
100
AcDbLinetypeTableRecord
  2
DASHDOT
 70
0
  3
Dash dot __ . __ . __ . __ . __ . __ . __ . __
 72
65
 73
4
 40
3.556
 49
2.54
 74
0
 49
-0.508
 74
0
 49
0.0
 74
0
 49
-0.508
 74
0
  0
LTYPE
  5
39
330
2
100
AcDbSymbolTableRecord
100
AcDbLinetypeTableRecord
  2
DASHDOTX2
 70
0
  3
Dash dot (2x) ____  .  ____  .  ____  .  ____
 72
65
 73
4
 40
6.096
 49
5.08
 74
0
 49
-0.508
 74
0
 49
0.0
 74
0
 49
-0.508
 74
0
  0
LTYPE
  5
3A
330
2
100
AcDbSymbolTableRecord
100
AcDbLinetypeTableRecord
  2
DASHDOT2
 70
0
  3
Dash dot (.5x) _ . _ . _ . _ . _ . _ . _ . _
 72
65
 73
4
 40
1.778
 49
1.27
 74
0
 49
-0.254
 74
0
 49
0.0
 74
0
 49
-0.254
 74
0
  0
LTYPE
  5
3B
330
2
100
AcDbSymbolTableRecord
100
AcDbLinetypeTableRecord
  2
DOT
 70
0
  3
Dot .  .  .  .  .  .  .  .  .  .  .  .  .  .  .  .
 72
65
 73
2
 40
0.508
 49
0.0
 74
0
 49
-0.508
 74
0
  0
LTYPE
  5
3C
330
2
100
AcDbSymbolTableRecord
100
AcDbLinetypeTableRecord
  2
DOTX2
 70
0
  3
Dot (2x) .    .    .    .    .    .    .    . 
 72
65
 73
2
 40
1.016
 49
0.0
 74
0
 49
-1.016
 74
0
  0
LTYPE
  5
3D
330
2
100
AcDbSymbolTableRecord
100
AcDbLinetypeTableRecord
  2
DOT2
 70
0
  3
Dot (.5) . . . . . . . . . . . . . . . . . . . 
 72
65
 73
2
 40
0.254
 49
0.0
 74
0
 49
-0.254
 74
0
  0
LTYPE
  5
3E
330
2
100
AcDbSymbolTableRecord
100
AcDbLinetypeTableRecord
  2
DIVIDE
 70
0
  3
Divide __ . . __ . . __ . . __ . . __ . . __
 72
65
 73
6
 40
4.064
 49
2.54
 74
0
 49
-0.508
 74
0
 49
0.0
 74
0
 49
-0.508
 74
0
 49
0.0
 74
0
 49
-0.508
 74
0
  0
LTYPE
  5
3F
330
2
100
AcDbSymbolTableRecord
100
AcDbLinetypeTableRecord
  2
DIVIDEX2
 70
0
  3
Divide (2x) ____  . .  ____  . .  ____  . .  ____
 72
65
 73
6
 40
6.604
 49
5.08
 74
0
 49
-0.508
 74
0
 49
0.0
 74
0
 49
-0.508
 74
0
 49
0.0
 74
0
 49
-0.508
 74
0
  0
LTYPE
  5
40
330
2
100
AcDbSymbolTableRecord
100
AcDbLinetypeTableRecord
  2
DIVIDE2
 70
0
  3
Divide(.5x) _ . _ . _ . _ . _ . _ . _ . _
 72
65
 73
6
 40
2.032
 49
1.27
 74
0
 49
-0.254
 74
0
 49
0.0
 74
0
 49
-0.254
 74
0
 49
0.0
 74
0
 49
-0.254
 74
0
  0
ENDTAB
  0
TABLE
  2
LAYER
  5
1
330
0
100
AcDbSymbolTable
 70
16
  0
LAYER
  5
27
330
1
100
AcDbSymbolTableRecord
100
AcDbLayerTableRecord
  2
0
 70
0
 62
7
  6
Continuous
370
-3
390
13
347
21
  0
LAYER
  5
28
330
1
100
AcDbSymbolTableRecord
100
AcDbLayerTableRecord
  2
Defpoints
 70
0
 62
7
  6
Continuous
290
0
370
-3
390
13
347
21
  0
LAYER
  5
8B
330
1
100
AcDbSymbolTableRecord
100
AcDbLayerTableRecord
  2
FRAME
 70
0
 62
7
  6
CONTINUOUS
370
-3
390
13
347
21
  0
LAYER
  5
8C
330
1
100
AcDbSymbolTableRecord
100
AcDbLayerTableRecord
  2
AR-WALLS
 70
0
 62
7
  6
CONTINUOUS
370
-3
390
13
347
21
  0
LAYER
  5
8D
330
1
100
AcDbSymbolTableRecord
100
AcDbLayerTableRecord
  2
AR-NEW
 70
0
 62
5
  6
CONTINUOUS
370
-3
390
13
347
21
  0
LAYER
  5
8E
330
1
100
AcDbSymbolTableRecord
100
AcDbLayerTableRecord
  2
AR-DEMO
 70
0
 62
1
  6
DASHED
370
-3
390
13
347
21
  0
LAYER
  5
8F
330
1
100
AcDbSymbolTableRecord
100
AcDbLayerTableRecord
  2
FURN
 70
0
 62
8
  6
CONTINUOUS
370
-3
390
13
347
21
  0
LAYER
  5
90
330
1
100
AcDbSymbolTableRecord
100
AcDbLayerTableRecord
  2
EL-LIGHT
 70
0
 62
30
  6
CONTINUOUS
370
-3
390
13
347
21
  0
LAYER
  5
91
330
1
100
AcDbSymbolTableRecord
100
AcDbLayerTableRecord
  2
EL-SOCKET
 70
0
 62
6
  6
CONTINUOUS
370
-3
390
13
347
21
  0
LAYER
  5
92
330
1
100
AcDbSymbolTableRecord
100
AcDbLayerTableRecord
  2
EL-LOW
 70
0
 62
3
  6
CONTINUOUS
370
-3
390
13
347
21
  0
LAYER
  5
93
330
1
100
AcDbSymbolTableRecord
100
AcDbLayerTableRecord
  2
VK
 70
0
 62
4
  6
CONTINUOUS
370
-3
390
13
347
21
  0
LAYER
  5
94
330
1
100
AcDbSymbolTableRecord
100
AcDbLayerTableRecord
  2
OV
 70
0
 62
3
  6
CONTINUOUS
370
-3
390
13
347
21
  0
LAYER
  5
95
330
1
100
AcDbSymbolTableRecord
100
AcDbLayerTableRecord
  2
DIM
 70
0
 62
7
  6
CONTINUOUS
370
-3
390
13
347
21
  0
LAYER
  5
96
330
1
100
AcDbSymbolTableRecord
100
AcDbLayerTableRecord
  2
TEXT
 70
0
 62
7
  6
CONTINUOUS
370
-3
390
13
347
21
  0
LAYER
  5
97
330
1
100
AcDbSymbolTableRecord
100
AcDbLayerTableRecord
  2
AR-FIN
 70
0
 62
9
  6
CONTINUOUS
370
-3
390
13
347
21
  0
LAYER
  5
98
330
1
100
AcDbSymbolTableRecord
100
AcDbLayerTableRecord
  2
BASE
 70
0
 62
9
  6
CONTINUOUS
370
-3
390
13
347
21
  0
ENDTAB
  0
TABLE
  2
STYLE
  5
5
330
0
100
AcDbSymbolTable
 70
27
  0
STYLE
  5
29
330
5
100
AcDbSymbolTableRecord
100
AcDbTextStyleTableRecord
  2
Standard
 70
0
 40
0.0
 41
1.0
 50
0.0
 71
0
 42
2.5
  3
DejaVuSans.ttf
  4

  0
STYLE
  5
41
330
5
100
AcDbSymbolTableRecord
100
AcDbTextStyleTableRecord
  2
OpenSans-Light
 70
0
 40
0.0
 41
1.0
 50
0.0
 71
0
 42
2.5
  3
OpenSans-Light.ttf
  4

  0
STYLE
  5
42
330
5
100
AcDbSymbolTableRecord
100
AcDbTextStyleTableRecord
  2
OpenSans-Light-Italic
 70
0
 40
0.0
 41
1.0
 50
0.0
 71
0
 42
2.5
  3
OpenSans-LightItalic.ttf
  4

  0
STYLE
  5
43
330
5
100
AcDbSymbolTableRecord
100
AcDbTextStyleTableRecord
  2
OpenSans
 70
0
 40
0.0
 41
1.0
 50
0.0
 71
0
 42
2.5
  3
OpenSans-Regular.ttf
  4

  0
STYLE
  5
44
330
5
100
AcDbSymbolTableRecord
100
AcDbTextStyleTableRecord
  2
OpenSans-Italic
 70
0
 40
0.0
 41
1.0
 50
0.0
 71
0
 42
2.5
  3
OpenSans-Italic.ttf
  4

  0
STYLE
  5
45
330
5
100
AcDbSymbolTableRecord
100
AcDbTextStyleTableRecord
  2
OpenSans-SemiBold
 70
0
 40
0.0
 41
1.0
 50
0.0
 71
0
 42
2.5
  3
OpenSans-SemiBold.ttf
  4

  0
STYLE
  5
46
330
5
100
AcDbSymbolTableRecord
100
AcDbTextStyleTableRecord
  2
OpenSans-SemiBoldItalic
 70
0
 40
0.0
 41
1.0
 50
0.0
 71
0
 42
2.5
  3
OpenSans-SemiBoldItalic.ttf
  4

  0
STYLE
  5
47
330
5
100
AcDbSymbolTableRecord
100
AcDbTextStyleTableRecord
  2
OpenSans-Bold
 70
0
 40
0.0
 41
1.0
 50
0.0
 71
0
 42
2.5
  3
OpenSans-Bold.ttf
  4

  0
STYLE
  5
48
330
5
100
AcDbSymbolTableRecord
100
AcDbTextStyleTableRecord
  2
OpenSans-BoldItalic
 70
0
 40
0.0
 41
1.0
 50
0.0
 71
0
 42
2.5
  3
OpenSans-BoldItalic.ttf
  4

  0
STYLE
  5
49
330
5
100
AcDbSymbolTableRecord
100
AcDbTextStyleTableRecord
  2
OpenSans-ExtraBold
 70
0
 40
0.0
 41
1.0
 50
0.0
 71
0
 42
2.5
  3
OpenSans-ExtraBold.ttf
  4

  0
STYLE
  5
4A
330
5
100
AcDbSymbolTableRecord
100
AcDbTextStyleTableRecord
  2
OpenSans-ExtraBoldItalic
 70
0
 40
0.0
 41
1.0
 50
0.0
 71
0
 42
2.5
  3
OpenSans-ExtraBoldItalic.ttf
  4

  0
STYLE
  5
4B
330
5
100
AcDbSymbolTableRecord
100
AcDbTextStyleTableRecord
  2
OpenSansCondensed-Bold
 70
0
 40
0.0
 41
1.0
 50
0.0
 71
0
 42
2.5
  3
OpenSansCondensed-Bold.ttf
  4

  0
STYLE
  5
4C
330
5
100
AcDbSymbolTableRecord
100
AcDbTextStyleTableRecord
  2
OpenSansCondensed-Light
 70
0
 40
0.0
 41
1.0
 50
0.0
 71
0
 42
2.5
  3
OpenSansCondensed-Light.ttf
  4

  0
STYLE
  5
4D
330
5
100
AcDbSymbolTableRecord
100
AcDbTextStyleTableRecord
  2
OpenSansCondensed-Italic
 70
0
 40
0.0
 41
1.0
 50
0.0
 71
0
 42
2.5
  3
OpenSansCondensed-LightItalic.ttf
  4

  0
STYLE
  5
4E
330
5
100
AcDbSymbolTableRecord
100
AcDbTextStyleTableRecord
  2
LiberationSans
 70
0
 40
0.0
 41
1.0
 50
0.0
 71
0
 42
2.5
  3
LiberationSans-Regular.ttf
  4

  0
STYLE
  5
4F
330
5
100
AcDbSymbolTableRecord
100
AcDbTextStyleTableRecord
  2
LiberationSans-Bold
 70
0
 40
0.0
 41
1.0
 50
0.0
 71
0
 42
2.5
  3
LiberationSans-Bold.ttf
  4

  0
STYLE
  5
50
330
5
100
AcDbSymbolTableRecord
100
AcDbTextStyleTableRecord
  2
LiberationSans-BoldItalic
 70
0
 40
0.0
 41
1.0
 50
0.0
 71
0
 42
2.5
  3
LiberationSans-BoldItalic.ttf
  4

  0
STYLE
  5
51
330
5
100
AcDbSymbolTableRecord
100
AcDbTextStyleTableRecord
  2
LiberationSans-Italic
 70
0
 40
0.0
 41
1.0
 50
0.0
 71
0
 42
2.5
  3
LiberationSans-Italic.ttf
  4

  0
STYLE
  5
52
330
5
100
AcDbSymbolTableRecord
100
AcDbTextStyleTableRecord
  2
LiberationSerif
 70
0
 40
0.0
 41
1.0
 50
0.0
 71
0
 42
2.5
  3
LiberationSerif-Regular.ttf
  4

  0
STYLE
  5
53
330
5
100
AcDbSymbolTableRecord
100
AcDbTextStyleTableRecord
  2
LiberationSerif-Bold
 70
0
 40
0.0
 41
1.0
 50
0.0
 71
0
 42
2.5
  3
LiberationSerif-Bold.ttf
  4

  0
STYLE
  5
54
330
5
100
AcDbSymbolTableRecord
100
AcDbTextStyleTableRecord
  2
LiberationSerif-BoldItalic
 70
0
 40
0.0
 41
1.0
 50
0.0
 71
0
 42
2.5
  3
LiberationSerif-BoldItalic.ttf
  4

  0
STYLE
  5
55
330
5
100
AcDbSymbolTableRecord
100
AcDbTextStyleTableRecord
  2
LiberationSerif-Italic
 70
0
 40
0.0
 41
1.0
 50
0.0
 71
0
 42
2.5
  3
LiberationSerif-Italic.ttf
  4

  0
STYLE
  5
56
330
5
100
AcDbSymbolTableRecord
100
AcDbTextStyleTableRecord
  2
LiberationMono
 70
0
 40
0.0
 41
1.0
 50
0.0
 71
0
 42
2.5
  3
LiberationMono-Regular.ttf
  4

  0
STYLE
  5
57
330
5
100
AcDbSymbolTableRecord
100
AcDbTextStyleTableRecord
  2
LiberationMono-Bold
 70
0
 40
0.0
 41
1.0
 50
0.0
 71
0
 42
2.5
  3
LiberationMono-Bold.ttf
  4

  0
STYLE
  5
58
330
5
100
AcDbSymbolTableRecord
100
AcDbTextStyleTableRecord
  2
LiberationMono-BoldItalic
 70
0
 40
0.0
 41
1.0
 50
0.0
 71
0
 42
2.5
  3
LiberationMono-BoldItalic.ttf
  4

  0
STYLE
  5
59
330
5
100
AcDbSymbolTableRecord
100
AcDbTextStyleTableRecord
  2
LiberationMono-Italic
 70
0
 40
0.0
 41
1.0
 50
0.0
 71
0
 42
2.5
  3
LiberationMono-Italic.ttf
  4

  0
STYLE
  5
8A
330
5
100
AcDbSymbolTableRecord
100
AcDbTextStyleTableRecord
  2
GOST
 70
0
 40
0.0
 41
1.0
 50
0.0
 71
0
 42
2.5
  3
DejaVuSans.ttf
  4

  0
ENDTAB
  0
TABLE
  2
VIEW
  5
7
330
0
100
AcDbSymbolTable
 70
0
  0
ENDTAB
  0
TABLE
  2
UCS
  5
6
330
0
100
AcDbSymbolTable
 70
0
  0
ENDTAB
  0
TABLE
  2
APPID
  5
3
330
0
100
AcDbSymbolTable
 70
3
  0
APPID
  5
2A
330
3
100
AcDbSymbolTableRecord
100
AcDbRegAppTableRecord
  2
ACAD
 70
0
  0
APPID
  5
24C
330
3
100
AcDbSymbolTableRecord
100
AcDbRegAppTableRecord
  2
HATCHBACKGROUNDCOLOR
 70
0
  0
APPID
  5
24D
330
3
100
AcDbSymbolTableRecord
100
AcDbRegAppTableRecord
  2
EZDXF
 70
0
  0
ENDTAB
  0
TABLE
  2
DIMSTYLE
  5
4
330
0
100
AcDbSymbolTable
 70
12
100
AcDbDimStyleTable
  0
DIMSTYLE
105
2B
330
4
100
AcDbSymbolTableRecord
100
AcDbDimStyleTableRecord
  2
Standard
 70
0
 40
1.0
 41
2.5
 42
0.625
 43
3.75
 44
1.25
 45
0.0
 46
0.0
 47
0.0
 48
0.0
 49
2.5
140
2.5
141
2.5
142
0.0
143
0.03937007874
144
1.0
145
0.0
146
1.0
147
0.625
148
0.0
 69
0
 70
0
 71
0
 72
0
 73
0
 74
0
 75
0
 76
0
 77
1
 78
8
 79
3
170
0
171
3
172
1
173
0
174
0
175
0
176
0
177
0
178
0
179
2
271
2
272
2
273
2
274
3
275
0
276
0
277
2
278
44
279
0
280
0
281
0
282
0
283
0
284
8
285
0
286
0
288
0
289
3
290
0
371
-2
372
-2
  0
DIMSTYLE
105
73
330
4
100
AcDbSymbolTableRecord
100
AcDbDimStyleTableRecord
  2
EZDXF
 70
0
 40
1.0
 41
0.175
 42
0.125
 43
3.75
 44
0.375
 45
0.0
 46
0.0
 47
0.0
 48
0.0
 49
2.5
140
0.25
141
2.5
142
0.0
143
0.03937007874
144
100.0
145
0.0
146
0.5
147
0.1
148
0.0
 69
0
 70
0
 71
0
 72
0
 73
0
 74
0
 75
0
 76
0
 77
1
 78
12
 79
3
170
0
171
3
172
1
173
0
174
0
175
0
176
0
177
0
178
0
179
2
271
2
272
2
273
2
274
3
275
0
276
0
277
2
278
46
279
2
280
0
281
0
282
0
283
0
284
8
285
0
286
0
288
1
289
3
290
0
340
4C
342
74
371
-2
372
-2
  0
DIMSTYLE
105
7C
330
4
100
AcDbSymbolTableRecord
100
AcDbDimStyleTableRecord
  2
EZ_M_100_H25_CM
 70
0
 40
1.0
 41
0.25
 42
0.125
 43
3.75
 44
0.375
 45
0.0
 46
0.0
 47
0.0
 48
0.0
 49
2.5
140
0.25
141
2.5
142
0.125
143
0.03937007874
144
100.0
145
0.0
146
0.5
147
0.1
148
0.0
 69
0
 70
0
 71
0
 72
0
 73
0
 74
0
 75
0
 76
0
 77
1
 78
12
 79
3
170
0
171
3
172
1
173
0
174
0
175
0
176
0
177
0
178
0
179
2
271
2
272
2
273
2
274
3
275
0
276
0
277
2
278
46
279
2
280
0
281
0
282
0
283
0
284
8
285
0
286
0
288
1
289
3
290
0
340
4C
371
-2
372
-2
  0
DIMSTYLE
105
7D
330
4
100
AcDbSymbolTableRecord
100
AcDbDimStyleTableRecord
  2
EZ_M_50_H25_CM
 70
0
 40
1.0
 41
0.125
 42
0.0625
 43
3.75
 44
0.1875
 45
0.0
 46
0.0
 47
0.0
 48
0.0
 49
2.5
140
0.125
141
2.5
142
0.0625
143
0.03937007874
144
100.0
145
0.0
146
0.5
147
0.05
148
0.0
 69
0
 70
0
 71
0
 72
0
 73
0
 74
0
 75
0
 76
0
 77
1
 78
12
 79
3
170
0
171
3
172
1
173
0
174
0
175
0
176
0
177
0
178
0
179
2
271
2
272
2
273
2
274
3
275
0
276
0
277
2
278
46
279
2
280
0
281
0
282
0
283
0
284
8
285
0
286
0
288
1
289
3
290
0
340
4C
371
-2
372
-2
  0
DIMSTYLE
105
7E
330
4
100
AcDbSymbolTableRecord
100
AcDbDimStyleTableRecord
  2
EZ_M_25_H25_CM
 70
0
 40
1.0
 41
0.0625
 42
0.03125
 43
3.75
 44
0.09375
 45
0.0
 46
0.0
 47
0.0
 48
0.0
 49
2.5
140
0.0625
141
2.5
142
0.03125
143
0.03937007874
144
100.0
145
0.0
146
0.5
147
0.025
148
0.0
 69
0
 70
0
 71
0
 72
0
 73
0
 74
0
 75
0
 76
0
 77
1
 78
12
 79
3
170
0
171
3
172
1
173
0
174
0
175
0
176
0
177
0
178
0
179
2
271
2
272
2
273
2
274
3
275
0
276
0
277
2
278
46
279
2
280
0
281
0
282
0
283
0
284
8
285
0
286
0
288
1
289
3
290
0
340
4C
371
-2
372
-2
  0
DIMSTYLE
105
7F
330
4
100
AcDbSymbolTableRecord
100
AcDbDimStyleTableRecord
  2
EZ_M_20_H25_CM
 70
0
 40
1.0
 41
0.05
 42
0.025
 43
3.75
 44
0.07500000000000001
 45
0.0
 46
0.0
 47
0.0
 48
0.0
 49
2.5
140
0.05
141
2.5
142
0.025
143
0.03937007874
144
100.0
145
0.0
146
0.5
147
0.020000000000000004
148
0.0
 69
0
 70
0
 71
0
 72
0
 73
0
 74
0
 75
0
 76
0
 77
1
 78
12
 79
3
170
0
171
3
172
1
173
0
174
0
175
0
176
0
177
0
178
0
179
2
271
2
272
2
273
2
274
3
275
0
276
0
277
2
278
46
279
2
280
0
281
0
282
0
283
0
284
8
285
0
286
0
288
1
289
3
290
0
340
4C
371
-2
372
-2
  0
DIMSTYLE
105
80
330
4
100
AcDbSymbolTableRecord
100
AcDbDimStyleTableRecord
  2
EZ_M_10_H25_CM
 70
0
 40
1.0
 41
0.025
 42
0.0125
 43
3.75
 44
0.037500000000000006
 45
0.0
 46
0.0
 47
0.0
 48
0.0
 49
2.5
140
0.025
141
2.5
142
0.0125
143
0.03937007874
144
100.0
145
0.0
146
0.5
147
0.010000000000000002
148
0.0
 69
0
 70
0
 71
0
 72
0
 73
0
 74
0
 75
0
 76
0
 77
1
 78
12
 79
3
170
0
171
3
172
1
173
0
174
0
175
0
176
0
177
0
178
0
179
2
271
2
272
2
273
2
274
3
275
0
276
0
277
2
278
46
279
2
280
0
281
0
282
0
283
0
284
8
285
0
286
0
288
1
289
3
290
0
340
4C
371
-2
372
-2
  0
DIMSTYLE
105
81
330
4
100
AcDbSymbolTableRecord
100
AcDbDimStyleTableRecord
  2
EZ_M_5_H25_CM
 70
0
 40
1.0
 41
0.0125
 42
0.00625
 43
3.75
 44
0.018750000000000003
 45
0.0
 46
0.0
 47
0.0
 48
0.0
 49
2.5
140
0.0125
141
2.5
142
0.00625
143
0.03937007874
144
100.0
145
0.0
146
0.5
147
0.005000000000000001
148
0.0
 69
0
 70
0
 71
0
 72
0
 73
0
 74
0
 75
0
 76
0
 77
1
 78
12
 79
3
170
0
171
3
172
1
173
0
174
0
175
0
176
0
177
0
178
0
179
2
271
2
272
2
273
2
274
3
275
0
276
0
277
2
278
46
279
2
280
0
281
0
282
0
283
0
284
8
285
0
286
0
288
1
289
3
290
0
340
4C
371
-2
372
-2
  0
DIMSTYLE
105
82
330
4
100
AcDbSymbolTableRecord
100
AcDbDimStyleTableRecord
  2
EZ_M_1_H25_CM
 70
0
 40
1.0
 41
0.0025
 42
0.00125
 43
3.75
 44
0.00375
 45
0.0
 46
0.0
 47
0.0
 48
0.0
 49
2.5
140
0.0025
141
2.5
142
0.00125
143
0.03937007874
144
100.0
145
0.0
146
0.5
147
0.001
148
0.0
 69
0
 70
0
 71
0
 72
0
 73
0
 74
0
 75
0
 76
0
 77
1
 78
12
 79
3
170
0
171
3
172
1
173
0
174
0
175
0
176
0
177
0
178
0
179
2
271
2
272
2
273
2
274
3
275
0
276
0
277
2
278
46
279
2
280
0
281
0
282
0
283
0
284
8
285
0
286
0
288
1
289
3
290
0
340
4C
371
-2
372
-2
  0
DIMSTYLE
105
83
330
4
100
AcDbSymbolTableRecord
100
AcDbDimStyleTableRecord
  2
EZ_RADIUS
 70
0
 40
1.0
 41
0.25
 42
0.125
 43
3.75
 44
0.375
 45
0.0
 46
0.0
 47
0.0
 48
0.0
 49
2.5
140
0.25
141
0.0
142
0.0
143
0.03937007874
144
100.0
145
0.0
146
0.5
147
0.1
148
0.0
 69
0
 70
0
 71
0
 72
0
 73
0
 74
0
 75
0
 76
0
 77
1
 78
12
 79
3
170
0
171
3
172
0
173
0
174
0
175
0
176
0
177
0
178
0
179
2
271
2
272
2
273
2
274
3
275
0
276
0
277
2
278
46
279
1
280
0
281
0
282
0
283
0
284
8
285
0
286
0
288
1
289
3
290
0
340
4C
342
84
371
-2
372
-2
  0
DIMSTYLE
105
88
330
4
100
AcDbSymbolTableRecord
100
AcDbDimStyleTableRecord
  2
EZ_RADIUS_INSIDE
 70
0
 40
1.0
 41
0.25
 42
0.125
 43
3.75
 44
0.375
 45
0.0
 46
0.0
 47
0.0
 48
0.0
 49
2.5
140
0.25
141
0.0
142
0.0
143
0.03937007874
144
100.0
145
0.0
146
0.5
147
0.1
148
0.0
 69
0
 70
0
 71
0
 72
0
 73
0
 74
0
 75
0
 76
0
 77
0
 78
12
 79
3
170
0
171
3
172
0
173
0
174
1
175
0
176
0
177
0
178
0
179
2
271
2
272
2
273
2
274
3
275
0
276
0
277
2
278
46
279
0
280
0
281
0
282
0
283
0
284
8
285
0
286
0
288
1
289
0
290
0
340
4C
342
84
371
-2
372
-2
  0
DIMSTYLE
105
89
330
4
100
AcDbSymbolTableRecord
100
AcDbDimStyleTableRecord
  2
EZ_CURVED
 70
0
 40
1.0
 41
0.25
 42
0.125
 43
3.75
 44
0.375
 45
0.0
 46
0.0
 47
0.0
 48
0.0
 49
2.5
140
0.25
141
2.5
142
0.0
143
0.03937007874
144
100.0
145
0.0
146
0.5
147
0.1
148
0.0
 69
0
 70
0
 71
0
 72
0
 73
0
 74
0
 75
0
 76
0
 77
1
 78
12
 79
2
 90
2
170
0
171
3
172
1
173
0
174
0
175
0
176
0
177
0
178
0
179
2
271
2
272
2
273
2
274
3
275
0
276
0
277
2
278
46
279
2
280
0
281
0
282
0
283
0
284
8
285
0
286
0
288
1
289
3
290
0
340
4C
371
-2
372
-2
  0
ENDTAB
  0
TABLE
  2
BLOCK_RECORD
  5
9
330
0
100
AcDbSymbolTable
 70
5
  0
BLOCK_RECORD
  5
17
330
9
100
AcDbSymbolTableRecord
100
AcDbBlockTableRecord
  2
*Model_Space
340
1A
 70
0
280
1
281
0
  0
BLOCK_RECORD
  5
1B
330
9
100
AcDbSymbolTableRecord
100
AcDbBlockTableRecord
  2
*Paper_Space
340
1E
 70
0
280
1
281
0
  0
BLOCK_RECORD
  5
74
330
9
100
AcDbSymbolTableRecord
100
AcDbBlockTableRecord
  2
_ARCHTICK
340
0
 70
0
280
1
281
0
  0
BLOCK_RECORD
  5
78
330
9
100
AcDbSymbolTableRecord
100
AcDbBlockTableRecord
  2
_CLOSEDFILLED
340
0
 70
0
280
1
281
0
  0
BLOCK_RECORD
  5
84
330
9
100
AcDbSymbolTableRecord
100
AcDbBlockTableRecord
  2
_CLOSEDBLANK
340
0
 70
0
280
1
281
0
  0
ENDTAB
  0
ENDSEC
  0
SECTION
  2
BLOCKS
  0
BLOCK
  5
18
330
17
100
AcDbEntity
  8
0
100
AcDbBlockBegin
  2
*Model_Space
 70
0
 10
0.0
 20
0.0
 30
0.0
  3
*Model_Space
  1

  0
ENDBLK
  5
19
330
17
100
AcDbEntity
  8
0
100
AcDbBlockEnd
  0
BLOCK
  5
1C
330
1B
100
AcDbEntity
  8
0
100
AcDbBlockBegin
  2
*Paper_Space
 70
0
 10
0.0
 20
0.0
 30
0.0
  3
*Paper_Space
  1

  0
ENDBLK
  5
1D
330
1B
100
AcDbEntity
  8
0
100
AcDbBlockEnd
  0
BLOCK
  5
75
330
74
100
AcDbEntity
  8
0
100
AcDbBlockBegin
  2
_ARCHTICK
 70
0
 10
0.0
 20
0.0
 30
0.0
  3
_ARCHTICK
  1

  0
LWPOLYLINE
  5
77
330
74
100
AcDbEntity
  8
0
  6
BYBLOCK
 62
0
100
AcDbPolyline
 90
2
 70
0
 43
0.15
 10
-0.5
 20
-0.5
 10
0.5
 20
0.5
  0
ENDBLK
  5
76
330
74
100
AcDbEntity
  8
0
100
AcDbBlockEnd
  0
BLOCK
  5
79
330
78
100
AcDbEntity
  8
0
100
AcDbBlockBegin
  2
_CLOSEDFILLED
 70
0
 10
0.0
 20
0.0
 30
0.0
  3
_CLOSEDFILLED
  1

  0
SOLID
  5
7B
330
78
100
AcDbEntity
  8
0
  6
BYBLOCK
 62
0
100
AcDbTrace
 10
-1.0
 20
0.16439898372402537
 30
0.0
 11
0.0
 21
0.0
 31
0.0
 12
-1.0
 22
-0.16439898372402537
 32
0.0
 13
-1.0
 23
-0.16439898372402537
 33
0.0
  0
ENDBLK
  5
7A
330
78
100
AcDbEntity
  8
0
100
AcDbBlockEnd
  0
BLOCK
  5
85
330
84
100
AcDbEntity
  8
0
100
AcDbBlockBegin
  2
_CLOSEDBLANK
 70
0
 10
0.0
 20
0.0
 30
0.0
  3
_CLOSEDBLANK
  1

  0
LWPOLYLINE
  5
87
330
84
100
AcDbEntity
  8
0
  6
BYBLOCK
 62
0
100
AcDbPolyline
 90
3
 70
1
 10
-1.0
 20
0.16439898372402537
 10
0.0
 20
0.0
 10
-1.0
 20
-0.16439898372402537
  0
ENDBLK
  5
86
330
84
100
AcDbEntity
  8
0
100
AcDbBlockEnd
  0
ENDSEC
  0
SECTION
  2
ENTITIES
  0
HATCH
  5
99
330
17
100
AcDbEntity
  8
AR-WALLS
 62
7
420
2500134
100
AcDbHatch
 10
0.0
 20
0.0
 30
0.0
210
0.0
220
0.0
230
1.0
  2
SOLID
 70
1
 71
0
 91
1
 92
3
 72
0
 73
1
 93
5
 10
12290.0
 20
13271.0
 10
10921.0
 20
13271.0
 10
10921.0
 20
13691.000000000002
 10
12290.0
 20
13691.000000000002
 10
12290.0
 20
13271.0
 97
0
 75
1
 76
1
 98
0
  0
LWPOLYLINE
  5
9A
330
17
100
AcDbEntity
  8
AR-WALLS
 62
7
370
35
100
AcDbPolyline
 90
5
 70
1
 10
12290.0
 20
13271.0
 10
10921.0
 20
13271.0
 10
10921.0
 20
13691.000000000002
 10
12290.0
 20
13691.000000000002
 10
12290.0
 20
13271.0
  0
HATCH
  5
9B
330
17
100
AcDbEntity
  8
AR-WALLS
 62
7
420
2500134
100
AcDbHatch
 10
0.0
 20
0.0
 30
0.0
210
0.0
220
0.0
230
1.0
  2
SOLID
 70
1
 71
0
 91
1
 92
3
 72
0
 73
1
 93
5
 10
7280.000000000001
 20
13271.0
 10
7280.000000000001
 20
13691.000000000002
 10
9060.0
 20
13691.000000000002
 10
9060.0
 20
13271.0
 10
7280.000000000001
 20
13271.0
 97
0
 75
1
 76
1
 98
0
  0
LWPOLYLINE
  5
9C
330
17
100
AcDbEntity
  8
AR-WALLS
 62
7
370
35
100
AcDbPolyline
 90
5
 70
1
 10
7280.000000000001
 20
13271.0
 10
7280.000000000001
 20
13691.000000000002
 10
9060.0
 20
13691.000000000002
 10
9060.0
 20
13271.0
 10
7280.000000000001
 20
13271.0
  0
HATCH
  5
9D
330
17
100
AcDbEntity
  8
AR-WALLS
 62
7
420
2500134
100
AcDbHatch
 10
0.0
 20
0.0
 30
0.0
210
0.0
220
0.0
230
1.0
  2
SOLID
 70
1
 71
0
 91
1
 92
3
 72
0
 73
1
 93
5
 10
4330.0
 20
13691.000000000002
 10
5420.0
 20
13691.000000000002
 10
5420.0
 20
13271.0
 10
4330.0
 20
13271.0
 10
4330.0
 20
13691.000000000002
 97
0
 75
1
 76
1
 98
0
  0
LWPOLYLINE
  5
9E
330
17
100
AcDbEntity
  8
AR-WALLS
 62
7
370
35
100
AcDbPolyline
 90
5
 70
1
 10
4330.0
 20
13691.000000000002
 10
5420.0
 20
13691.000000000002
 10
5420.0
 20
13271.0
 10
4330.0
 20
13271.0
 10
4330.0
 20
13691.000000000002
  0
HATCH
  5
9F
330
17
100
AcDbEntity
  8
AR-WALLS
 62
7
420
2500134
100
AcDbHatch
 10
0.0
 20
0.0
 30
0.0
210
0.0
220
0.0
230
1.0
  2
SOLID
 70
1
 71
0
 91
1
 92
3
 72
0
 73
1
 93
5
 10
4120.0
 20
4280.0
 10
4120.0
 20
4950.0
 10
4540.0
 20
4950.0
 10
4540.0
 20
4280.0
 10
4120.0
 20
4280.0
 97
0
 75
1
 76
1
 98
0
  0
LWPOLYLINE
  5
A0
330
17
100
AcDbEntity
  8
AR-WALLS
 62
7
370
35
100
AcDbPolyline
 90
5
 70
1
 10
4120.0
 20
4280.0
 10
4120.0
 20
4950.0
 10
4540.0
 20
4950.0
 10
4540.0
 20
4280.0
 10
4120.0
 20
4280.0
  0
HATCH
  5
A1
330
17
100
AcDbEntity
  8
AR-WALLS
 62
7
420
2500134
100
AcDbHatch
 10
0.0
 20
0.0
 30
0.0
210
0.0
220
0.0
230
1.0
  2
SOLID
 70
1
 71
0
 91
1
 92
3
 72
0
 73
1
 93
5
 10
4120.0
 20
10046.0
 10
4540.0
 20
10046.0
 10
4540.0
 20
6809.999999999999
 10
4120.0
 20
6809.999999999999
 10
4120.0
 20
10046.0
 97
0
 75
1
 76
1
 98
0
  0
LWPOLYLINE
  5
A2
330
17
100
AcDbEntity
  8
AR-WALLS
 62
7
370
35
100
AcDbPolyline
 90
5
 70
1
 10
4120.0
 20
10046.0
 10
4540.0
 20
10046.0
 10
4540.0
 20
6809.999999999999
 10
4120.0
 20
6809.999999999999
 10
4120.0
 20
10046.0
  0
HATCH
  5
A3
330
17
100
AcDbEntity
  8
AR-WALLS
 62
7
420
2500134
100
AcDbHatch
 10
0.0
 20
0.0
 30
0.0
210
0.0
220
0.0
230
1.0
  2
SOLID
 70
1
 71
0
 91
1
 92
3
 72
0
 73
1
 93
5
 10
4540.0
 20
13481.0
 10
4540.0
 20
11906.0
 10
4120.0
 20
11906.0
 10
4120.0
 20
13481.0
 10
4540.0
 20
13481.0
 97
0
 75
1
 76
1
 98
0
  0
LWPOLYLINE
  5
A4
330
17
100
AcDbEntity
  8
AR-WALLS
 62
7
370
35
100
AcDbPolyline
 90
5
 70
1
 10
4540.0
 20
13481.0
 10
4540.0
 20
11906.0
 10
4120.0
 20
11906.0
 10
4120.0
 20
13481.0
 10
4540.0
 20
13481.0
  0
HATCH
  5
A5
330
17
100
AcDbEntity
  8
AR-WALLS
 62
7
420
2500134
100
AcDbHatch
 10
0.0
 20
0.0
 30
0.0
210
0.0
220
0.0
230
1.0
  2
SOLID
 70
1
 71
0
 91
1
 92
3
 72
0
 73
1
 93
5
 10
10530.0
 20
4200.0
 10
10530.0
 20
4360.0
 10
4330.0
 20
4360.0
 10
4330.0
 20
4200.0
 10
10530.0
 20
4200.0
 97
0
 75
1
 76
1
 98
0
  0
LWPOLYLINE
  5
A6
330
17
100
AcDbEntity
  8
AR-WALLS
 62
7
370
35
100
AcDbPolyline
 90
5
 70
1
 10
10530.0
 20
4200.0
 10
10530.0
 20
4360.0
 10
4330.0
 20
4360.0
 10
4330.0
 20
4200.0
 10
10530.0
 20
4200.0
  0
HATCH
  5
A7
330
17
100
AcDbEntity
  8
AR-WALLS
 62
7
420
2500134
100
AcDbHatch
 10
0.0
 20
0.0
 30
0.0
210
0.0
220
0.0
230
1.0
  2
SOLID
 70
1
 71
0
 91
1
 92
3
 72
0
 73
1
 93
5
 10
10610.0
 20
4280.0
 10
10610.0
 20
6290.000000000001
 10
10450.0
 20
6290.000000000001
 10
10450.0
 20
4280.0
 10
10610.0
 20
4280.0
 97
0
 75
1
 76
1
 98
0
  0
LWPOLYLINE
  5
A8
330
17
100
AcDbEntity
  8
AR-WALLS
 62
7
370
35
100
AcDbPolyline
 90
5
 70
1
 10
10610.0
 20
4280.0
 10
10610.0
 20
6290.000000000001
 10
10450.0
 20
6290.000000000001
 10
10450.0
 20
4280.0
 10
10610.0
 20
4280.0
  0
HATCH
  5
A9
330
17
100
AcDbEntity
  8
AR-WALLS
 62
7
420
2500134
100
AcDbHatch
 10
0.0
 20
0.0
 30
0.0
210
0.0
220
0.0
230
1.0
  2
SOLID
 70
1
 71
0
 91
1
 92
3
 72
0
 73
1
 93
5
 10
12290.0
 20
6370.0
 10
12290.0
 20
6210.000000000001
 10
11900.0
 20
6210.000000000001
 10
11900.0
 20
6370.0
 10
12290.0
 20
6370.0
 97
0
 75
1
 76
1
 98
0
  0
LWPOLYLINE
  5
AA
330
17
100
AcDbEntity
  8
AR-WALLS
 62
7
370
35
100
AcDbPolyline
 90
5
 70
1
 10
12290.0
 20
6370.0
 10
12290.0
 20
6210.000000000001
 10
11900.0
 20
6210.000000000001
 10
11900.0
 20
6370.0
 10
12290.0
 20
6370.0
  0
HATCH
  5
AB
330
17
100
AcDbEntity
  8
AR-WALLS
 62
7
420
2500134
100
AcDbHatch
 10
0.0
 20
0.0
 30
0.0
210
0.0
220
0.0
230
1.0
  2
SOLID
 70
1
 71
0
 91
1
 92
3
 72
0
 73
1
 93
5
 10
10530.0
 20
6210.000000000001
 10
10530.0
 20
6370.0
 10
10760.0
 20
6370.0
 10
10760.0
 20
6210.000000000001
 10
10530.0
 20
6210.000000000001
 97
0
 75
1
 76
1
 98
0
  0
LWPOLYLINE
  5
AC
330
17
100
AcDbEntity
  8
AR-WALLS
 62
7
370
35
100
AcDbPolyline
 90
5
 70
1
 10
10530.0
 20
6210.000000000001
 10
10530.0
 20
6370.0
 10
10760.0
 20
6370.0
 10
10760.0
 20
6210.000000000001
 10
10530.0
 20
6210.000000000001
  0
HATCH
  5
AD
330
17
100
AcDbEntity
  8
AR-WALLS
 62
7
420
2500134
100
AcDbHatch
 10
0.0
 20
0.0
 30
0.0
210
0.0
220
0.0
230
1.0
  2
SOLID
 70
1
 71
0
 91
1
 92
3
 72
0
 73
1
 93
5
 10
12370.0
 20
6290.000000000001
 10
12370.0
 20
13481.0
 10
12210.0
 20
13481.0
 10
12210.0
 20
6290.000000000001
 10
12370.0
 20
6290.000000000001
 97
0
 75
1
 76
1
 98
0
  0
LWPOLYLINE
  5
AE
330
17
100
AcDbEntity
  8
AR-WALLS
 62
7
370
35
100
AcDbPolyline
 90
5
 70
1
 10
12370.0
 20
6290.000000000001
 10
12370.0
 20
13481.0
 10
12210.0
 20
13481.0
 10
12210.0
 20
6290.000000000001
 10
12370.0
 20
6290.000000000001
  0
HATCH
  5
AF
330
17
100
AcDbEntity
  8
AR-WALLS
 62
7
420
2500134
100
AcDbHatch
 10
0.0
 20
0.0
 30
0.0
210
0.0
220
0.0
230
1.0
  2
SOLID
 70
1
 71
0
 91
1
 92
3
 72
0
 73
1
 93
5
 10
7920.0
 20
13271.0
 10
8060.000000000001
 20
13271.0
 10
8060.000000000001
 20
9180.000000000002
 10
7920.0
 20
9180.000000000002
 10
7920.0
 20
13271.0
 97
0
 75
1
 76
1
 98
0
  0
LWPOLYLINE
  5
B0
330
17
100
AcDbEntity
  8
AR-WALLS
 62
7
370
35
100
AcDbPolyline
 90
5
 70
1
 10
7920.0
 20
13271.0
 10
8060.000000000001
 20
13271.0
 10
8060.000000000001
 20
9180.000000000002
 10
7920.0
 20
9180.000000000002
 10
7920.0
 20
13271.0
  0
HATCH
  5
B1
330
17
100
AcDbEntity
  8
AR-WALLS
 62
7
420
2500134
100
AcDbHatch
 10
0.0
 20
0.0
 30
0.0
210
0.0
220
0.0
230
1.0
  2
SOLID
 70
1
 71
0
 91
1
 92
3
 72
0
 73
1
 93
5
 10
8070.0
 20
8080.000000000001
 10
8070.0
 20
7940.000000000001
 10
7070.0
 20
7940.000000000001
 10
7070.0
 20
8080.000000000001
 10
8070.0
 20
8080.000000000001
 97
0
 75
1
 76
1
 98
0
  0
LWPOLYLINE
  5
B2
330
17
100
AcDbEntity
  8
AR-WALLS
 62
7
370
35
100
AcDbPolyline
 90
5
 70
1
 10
8070.0
 20
8080.000000000001
 10
8070.0
 20
7940.000000000001
 10
7070.0
 20
7940.000000000001
 10
7070.0
 20
8080.000000000001
 10
8070.0
 20
8080.000000000001
  0
HATCH
  5
B3
330
17
100
AcDbEntity
  8
AR-WALLS
 62
7
420
2500134
100
AcDbHatch
 10
0.0
 20
0.0
 30
0.0
210
0.0
220
0.0
230
1.0
  2
SOLID
 70
1
 71
0
 91
1
 92
3
 72
0
 73
1
 93
5
 10
4540.0
 20
7940.000000000001
 10
4540.0
 20
8080.000000000001
 10
5300.0
 20
8080.000000000001
 10
5300.0
 20
7940.000000000001
 10
4540.0
 20
7940.000000000001
 97
0
 75
1
 76
1
 98
0
  0
LWPOLYLINE
  5
B4
330
17
100
AcDbEntity
  8
AR-WALLS
 62
7
370
35
100
AcDbPolyline
 90
5
 70
1
 10
4540.0
 20
7940.000000000001
 10
4540.0
 20
8080.000000000001
 10
5300.0
 20
8080.000000000001
 10
5300.0
 20
7940.000000000001
 10
4540.0
 20
7940.000000000001
  0
HATCH
  5
B5
330
17
100
AcDbEntity
  8
AR-WALLS
 62
7
420
7237230
100
AcDbHatch
 10
0.0
 20
0.0
 30
0.0
210
0.0
220
0.0
230
1.0
  2
SOLID
 70
1
 71
0
 91
1
 92
3
 72
0
 73
1
 93
5
 10
8710.0
 20
4360.0
 10
8710.0
 20
6371.000000000001
 10
8630.0
 20
6371.000000000001
 10
8630.0
 20
4360.0
 10
8710.0
 20
4360.0
 97
0
 75
1
 76
1
 98
0
  0
LWPOLYLINE
  5
B6
330
17
100
AcDbEntity
  8
AR-WALLS
 62
7
370
35
100
AcDbPolyline
 90
5
 70
1
 10
8710.0
 20
4360.0
 10
8710.0
 20
6371.000000000001
 10
8630.0
 20
6371.000000000001
 10
8630.0
 20
4360.0
 10
8710.0
 20
4360.0
  0
HATCH
  5
B7
330
17
100
AcDbEntity
  8
AR-WALLS
 62
7
420
7237230
100
AcDbHatch
 10
0.0
 20
0.0
 30
0.0
210
0.0
220
0.0
230
1.0
  2
SOLID
 70
1
 71
0
 91
1
 92
3
 72
0
 73
1
 93
5
 10
8630.0
 20
6291.0
 10
8630.0
 20
6371.000000000001
 10
9450.0
 20
6371.000000000001
 10
9450.0
 20
6291.0
 10
8630.0
 20
6291.0
 97
0
 75
1
 76
1
 98
0
  0
LWPOLYLINE
  5
B8
330
17
100
AcDbEntity
  8
AR-WALLS
 62
7
370
35
100
AcDbPolyline
 90
5
 70
1
 10
8630.0
 20
6291.0
 10
8630.0
 20
6371.000000000001
 10
9450.0
 20
6371.000000000001
 10
9450.0
 20
6291.0
 10
8630.0
 20
6291.0
  0
HATCH
  5
B9
330
17
100
AcDbEntity
  8
AR-WALLS
 62
7
420
7237230
100
AcDbHatch
 10
0.0
 20
0.0
 30
0.0
210
0.0
220
0.0
230
1.0
  2
SOLID
 70
1
 71
0
 91
1
 92
3
 72
0
 73
1
 93
5
 10
9440.0
 20
8081.0
 10
9360.0
 20
8081.0
 10
9360.0
 20
8891.0
 10
9440.0
 20
8891.0
 10
9440.0
 20
8081.0
 97
0
 75
1
 76
1
 98
0
  0
LWPOLYLINE
  5
BA
330
17
100
AcDbEntity
  8
AR-WALLS
 62
7
370
35
100
AcDbPolyline
 90
5
 70
1
 10
9440.0
 20
8081.0
 10
9360.0
 20
8081.0
 10
9360.0
 20
8891.0
 10
9440.0
 20
8891.0
 10
9440.0
 20
8081.0
  0
HATCH
  5
BB
330
17
100
AcDbEntity
  8
AR-WALLS
 62
7
420
7237230
100
AcDbHatch
 10
0.0
 20
0.0
 30
0.0
210
0.0
220
0.0
230
1.0
  2
SOLID
 70
1
 71
0
 91
1
 92
3
 72
0
 73
1
 93
5
 10
9360.0
 20
10330.000000000002
 10
9440.0
 20
10330.000000000002
 10
9440.0
 20
9891.000000000002
 10
9360.0
 20
9891.000000000002
 10
9360.0
 20
10330.000000000002
 97
0
 75
1
 76
1
 98
0
  0
LWPOLYLINE
  5
BC
330
17
100
AcDbEntity
  8
AR-WALLS
 62
7
370
35
100
AcDbPolyline
 90
5
 70
1
 10
9360.0
 20
10330.000000000002
 10
9440.0
 20
10330.000000000002
 10
9440.0
 20
9891.000000000002
 10
9360.0
 20
9891.000000000002
 10
9360.0
 20
10330.000000000002
  0
HATCH
  5
BD
330
17
100
AcDbEntity
  8
AR-WALLS
 62
7
420
7237230
100
AcDbHatch
 10
0.0
 20
0.0
 30
0.0
210
0.0
220
0.0
230
1.0
  2
SOLID
 70
1
 71
0
 91
1
 92
3
 72
0
 73
1
 93
5
 10
12161.0
 20
8081.0
 10
12161.0
 20
8161.000000000002
 10
9360.0
 20
8161.000000000002
 10
9360.0
 20
8081.0
 10
12161.0
 20
8081.0
 97
0
 75
1
 76
1
 98
0
  0
LWPOLYLINE
  5
BE
330
17
100
AcDbEntity
  8
AR-WALLS
 62
7
370
35
100
AcDbPolyline
 90
5
 70
1
 10
12161.0
 20
8081.0
 10
12161.0
 20
8161.000000000002
 10
9360.0
 20
8161.000000000002
 10
9360.0
 20
8081.0
 10
12161.0
 20
8081.0
  0
HATCH
  5
BF
330
17
100
AcDbEntity
  8
AR-WALLS
 62
7
420
7237230
100
AcDbHatch
 10
0.0
 20
0.0
 30
0.0
210
0.0
220
0.0
230
1.0
  2
SOLID
 70
1
 71
0
 91
1
 92
3
 72
0
 73
1
 93
5
 10
12161.0
 20
6371.000000000001
 10
12161.0
 20
10330.000000000002
 10
12081.0
 20
10330.000000000002
 10
12081.0
 20
6371.000000000001
 10
12161.0
 20
6371.000000000001
 97
0
 75
1
 76
1
 98
0
  0
LWPOLYLINE
  5
C0
330
17
100
AcDbEntity
  8
AR-WALLS
 62
7
370
35
100
AcDbPolyline
 90
5
 70
1
 10
12161.0
 20
6371.000000000001
 10
12161.0
 20
10330.000000000002
 10
12081.0
 20
10330.000000000002
 10
12081.0
 20
6371.000000000001
 10
12161.0
 20
6371.000000000001
  0
HATCH
  5
C1
330
17
100
AcDbEntity
  8
AR-WALLS
 62
7
420
7237230
100
AcDbHatch
 10
0.0
 20
0.0
 30
0.0
210
0.0
220
0.0
230
1.0
  2
SOLID
 70
1
 71
0
 91
1
 92
3
 72
0
 73
1
 93
5
 10
12161.0
 20
10201.0
 10
12161.0
 20
10281.0
 10
9360.0
 20
10281.0
 10
9360.0
 20
10201.0
 10
12161.0
 20
10201.0
 97
0
 75
1
 76
1
 98
0
  0
LWPOLYLINE
  5
C2
330
17
100
AcDbEntity
  8
AR-WALLS
 62
7
370
35
100
AcDbPolyline
 90
5
 70
1
 10
12161.0
 20
10201.0
 10
12161.0
 20
10281.0
 10
9360.0
 20
10281.0
 10
9360.0
 20
10201.0
 10
12161.0
 20
10201.0
  0
HATCH
  5
C3
330
17
100
AcDbEntity
  8
AR-WALLS
 62
7
420
7237230
100
AcDbHatch
 10
0.0
 20
0.0
 30
0.0
210
0.0
220
0.0
230
1.0
  2
SOLID
 70
1
 71
0
 91
1
 92
3
 72
0
 73
1
 93
5
 10
12210.0
 20
10330.000000000002
 10
12210.0
 20
10410.0
 10
9360.0
 20
10410.0
 10
9360.0
 20
10330.000000000002
 10
12210.0
 20
10330.000000000002
 97
0
 75
1
 76
1
 98
0
  0
LWPOLYLINE
  5
C4
330
17
100
AcDbEntity
  8
AR-WALLS
 62
7
370
35
100
AcDbPolyline
 90
5
 70
1
 10
12210.0
 20
10330.000000000002
 10
12210.0
 20
10410.0
 10
9360.0
 20
10410.0
 10
9360.0
 20
10330.000000000002
 10
12210.0
 20
10330.000000000002
  0
HATCH
  5
C5
330
17
100
AcDbEntity
  8
AR-WALLS
 62
7
420
3355443
100
AcDbHatch
 10
0.0
 20
0.0
 30
0.0
210
0.0
220
0.0
230
1.0
  2
ANSI37
 70
0
 71
0
 91
1
 92
3
 72
0
 73
1
 93
5
 10
4519.0
 20
12341.000000000002
 10
4519.0
 20
13511.000000000002
 10
4300.0
 20
13511.000000000002
 10
4300.0
 20
12341.000000000002
 10
4519.0
 20
12341.000000000002
 97
0
 75
1
 76
1
 52
0.0
 41
13.750000000000002
 77
0
 78
2
 53
45.0
 43
0.0
 44
0.0
 45
-30.8696304166
 46
30.8696304166
 79
0
 53
135.0
 43
0.0
 44
0.0
 45
-30.8696304166
 46
-30.8696304166
 79
0
 98
0
  0
HATCH
  5
C6
330
17
100
AcDbEntity
  8
AR-WALLS
 62
7
420
14277081
440
33554559
100
AcDbHatch
 10
0.0
 20
0.0
 30
0.0
210
0.0
220
0.0
230
1.0
  2
SOLID
 70
1
 71
0
 91
1
 92
3
 72
0
 73
1
 93
5
 10
4519.0
 20
12341.000000000002
 10
4519.0
 20
13511.000000000002
 10
4300.0
 20
13511.000000000002
 10
4300.0
 20
12341.000000000002
 10
4519.0
 20
12341.000000000002
 97
0
 75
1
 76
1
 98
0
  0
LWPOLYLINE
  5
C7
330
17
100
AcDbEntity
  8
AR-WALLS
 62
7
370
35
100
AcDbPolyline
 90
5
 70
1
 10
4519.0
 20
12341.000000000002
 10
4519.0
 20
13511.000000000002
 10
4300.0
 20
13511.000000000002
 10
4300.0
 20
12341.000000000002
 10
4519.0
 20
12341.000000000002
  0
HATCH
  5
C8
330
17
100
AcDbEntity
  8
AR-WALLS
 62
7
420
16777215
100
AcDbHatch
 10
0.0
 20
0.0
 30
0.0
210
0.0
220
0.0
230
1.0
  2
SOLID
 70
1
 71
0
 91
1
 92
3
 72
0
 73
1
 93
4
 10
1909.0
 20
4230.0
 10
2009.0
 20
4230.0
 10
2009.0
 20
7578.0
 10
1909.0
 20
7578.0
 97
0
 75
1
 76
1
 98
0
  0
LWPOLYLINE
  5
C9
330
17
100
AcDbEntity
  8
AR-WALLS
 62
7
370
20
100
AcDbPolyline
 90
4
 70
1
 10
1909.0
 20
4230.0
 10
2009.0
 20
4230.0
 10
2009.0
 20
7578.0
 10
1909.0
 20
7578.0
  0
LWPOLYLINE
  5
CA
330
17
100
AcDbEntity
  8
AR-WALLS
 62
7
370
15
100
AcDbPolyline
 90
2
 70
0
 10
1959.0
 20
4230.0
 10
1959.0
 20
7578.0
  0
HATCH
  5
CB
330
17
100
AcDbEntity
  8
AR-WALLS
 62
7
420
16777215
100
AcDbHatch
 10
0.0
 20
0.0
 30
0.0
210
0.0
220
0.0
230
1.0
  2
SOLID
 70
1
 71
0
 91
1
 92
3
 72
0
 73
1
 93
4
 10
1959.0
 20
7528.0
 10
4120.0
 20
7528.0
 10
4120.0
 20
7628.0
 10
1959.0
 20
7628.0
 97
0
 75
1
 76
1
 98
0
  0
LWPOLYLINE
  5
CC
330
17
100
AcDbEntity
  8
AR-WALLS
 62
7
370
20
100
AcDbPolyline
 90
4
 70
1
 10
1959.0
 20
7528.0
 10
4120.0
 20
7528.0
 10
4120.0
 20
7628.0
 10
1959.0
 20
7628.0
  0
LWPOLYLINE
  5
CD
330
17
100
AcDbEntity
  8
AR-WALLS
 62
7
370
15
100
AcDbPolyline
 90
2
 70
0
 10
1959.0
 20
7578.0
 10
4120.0
 20
7578.0
  0
HATCH
  5
CE
330
17
100
AcDbEntity
  8
AR-WALLS
 62
7
420
16777215
100
AcDbHatch
 10
0.0
 20
0.0
 30
0.0
210
0.0
220
0.0
230
1.0
  2
SOLID
 70
1
 71
0
 91
1
 92
3
 72
0
 73
1
 93
4
 10
1959.0
 20
4180.0
 10
4120.0
 20
4180.0
 10
4120.0
 20
4280.0
 10
1959.0
 20
4280.0
 97
0
 75
1
 76
1
 98
0
  0
LWPOLYLINE
  5
CF
330
17
100
AcDbEntity
  8
AR-WALLS
 62
7
370
20
100
AcDbPolyline
 90
4
 70
1
 10
1959.0
 20
4180.0
 10
4120.0
 20
4180.0
 10
4120.0
 20
4280.0
 10
1959.0
 20
4280.0
  0
LWPOLYLINE
  5
D0
330
17
100
AcDbEntity
  8
AR-WALLS
 62
7
370
15
100
AcDbPolyline
 90
2
 70
0
 10
1959.0
 20
4230.0
 10
4120.0
 20
4230.0
  0
HATCH
  5
D1
330
17
100
AcDbEntity
  8
AR-WALLS
 62
7
420
16777215
100
AcDbHatch
 10
0.0
 20
0.0
 30
0.0
210
0.0
220
0.0
230
1.0
  2
SOLID
 70
1
 71
0
 91
1
 92
3
 72
0
 73
1
 93
4
 10
4120.0
 20
10046.0
 10
4540.0
 20
10046.0
 10
4540.0
 20
11906.0
 10
4120.0
 20
11906.0
 97
0
 75
1
 76
1
 98
0
  0
LWPOLYLINE
  5
D2
330
17
100
AcDbEntity
  8
AR-WALLS
 62
7
370
20
100
AcDbPolyline
 90
4
 70
1
 10
4120.0
 20
10046.0
 10
4540.0
 20
10046.0
 10
4540.0
 20
11906.0
 10
4120.0
 20
11906.0
  0
LWPOLYLINE
  5
D3
330
17
100
AcDbEntity
  8
AR-WALLS
 62
7
370
15
100
AcDbPolyline
 90
2
 70
0
 10
4296.4
 20
10046.0
 10
4296.4
 20
11906.0
  0
LWPOLYLINE
  5
D4
330
17
100
AcDbEntity
  8
AR-WALLS
 62
7
370
15
100
AcDbPolyline
 90
2
 70
0
 10
4363.6
 20
10046.0
 10
4363.6
 20
11906.0
  0
HATCH
  5
D5
330
17
100
AcDbEntity
  8
AR-WALLS
 62
7
420
16777215
100
AcDbHatch
 10
0.0
 20
0.0
 30
0.0
210
0.0
220
0.0
230
1.0
  2
SOLID
 70
1
 71
0
 91
1
 92
3
 72
0
 73
1
 93
4
 10
5420.0
 20
13271.0
 10
7280.000000000001
 20
13271.0
 10
7280.000000000001
 20
13691.000000000002
 10
5420.0
 20
13691.000000000002
 97
0
 75
1
 76
1
 98
0
  0
LWPOLYLINE
  5
D6
330
17
100
AcDbEntity
  8
AR-WALLS
 62
7
370
20
100
AcDbPolyline
 90
4
 70
1
 10
5420.0
 20
13271.0
 10
7280.000000000001
 20
13271.0
 10
7280.000000000001
 20
13691.000000000002
 10
5420.0
 20
13691.000000000002
  0
LWPOLYLINE
  5
D7
330
17
100
AcDbEntity
  8
AR-WALLS
 62
7
370
15
100
AcDbPolyline
 90
2
 70
0
 10
5420.0
 20
13447.4
 10
7280.000000000001
 20
13447.4
  0
LWPOLYLINE
  5
D8
330
17
100
AcDbEntity
  8
AR-WALLS
 62
7
370
15
100
AcDbPolyline
 90
2
 70
0
 10
5420.0
 20
13514.600000000002
 10
7280.000000000001
 20
13514.600000000002
  0
HATCH
  5
D9
330
17
100
AcDbEntity
  8
AR-WALLS
 62
7
420
16777215
100
AcDbHatch
 10
0.0
 20
0.0
 30
0.0
210
0.0
220
0.0
230
1.0
  2
SOLID
 70
1
 71
0
 91
1
 92
3
 72
0
 73
1
 93
4
 10
9060.0
 20
13271.0
 10
10921.0
 20
13271.0
 10
10921.0
 20
13691.000000000002
 10
9060.0
 20
13691.000000000002
 97
0
 75
1
 76
1
 98
0
  0
LWPOLYLINE
  5
DA
330
17
100
AcDbEntity
  8
AR-WALLS
 62
7
370
20
100
AcDbPolyline
 90
4
 70
1
 10
9060.0
 20
13271.0
 10
10921.0
 20
13271.0
 10
10921.0
 20
13691.000000000002
 10
9060.0
 20
13691.000000000002
  0
LWPOLYLINE
  5
DB
330
17
100
AcDbEntity
  8
AR-WALLS
 62
7
370
15
100
AcDbPolyline
 90
2
 70
0
 10
9060.0
 20
13447.4
 10
10921.0
 20
13447.4
  0
LWPOLYLINE
  5
DC
330
17
100
AcDbEntity
  8
AR-WALLS
 62
7
370
15
100
AcDbPolyline
 90
2
 70
0
 10
9060.0
 20
13514.600000000002
 10
10921.0
 20
13514.600000000002
  0
LWPOLYLINE
  5
DD
330
17
100
AcDbEntity
  8
AR-WALLS
 62
7
370
35
100
AcDbPolyline
 90
2
 70
0
 10
10760.0
 20
6210.000000000001
 10
10760.0
 20
5170.0
  0
ARC
  5
DE
330
17
100
AcDbEntity
  8
AR-WALLS
 62
7
370
15
100
AcDbCircle
 10
10760.0
 20
6210.000000000001
 30
0.0
 40
1040.0
100
AcDbArc
 50
270.0
 51
360.0
  0
LWPOLYLINE
  5
DF
330
17
100
AcDbEntity
  8
AR-WALLS
  6
DASHED
370
35
 48
150.0
420
7829367
100
AcDbPolyline
 90
2
 70
0
 10
10450.0
 20
6371.000000000001
 10
10450.0
 20
7271.000000000001
  0
ARC
  5
E0
330
17
100
AcDbEntity
  8
AR-WALLS
  6
DASHED
370
15
 48
150.0
420
7829367
100
AcDbCircle
 10
10450.0
 20
6371.000000000001
 30
0.0
 40
900.0
100
AcDbArc
 50
90.0
 51
180.0
  0
LWPOLYLINE
  5
E1
330
17
100
AcDbEntity
  8
AR-WALLS
  6
DASHED
370
35
 48
150.0
420
7829367
100
AcDbPolyline
 90
2
 70
0
 10
9360.0
 20
8891.0
 10
8460.0
 20
8891.0
  0
ARC
  5
E2
330
17
100
AcDbEntity
  8
AR-WALLS
  6
DASHED
370
15
 48
150.0
420
7829367
100
AcDbCircle
 10
9360.0
 20
8891.0
 30
0.0
 40
900.0
100
AcDbArc
 50
90.0
 51
180.0
  0
HATCH
  5
E3
330
17
100
AcDbEntity
  8
VK
 62
7
420
16777215
100
AcDbHatch
 10
0.0
 20
0.0
 30
0.0
210
0.0
220
0.0
230
1.0
  2
SOLID
 70
1
 71
0
 91
1
 92
1
 93
1
 72
2
 10
8811.0
 20
4461.0
 40
50.0
 50
0
 51
360
 73
1
 97
0
 75
1
 76
1
 98
0
  0
CIRCLE
  5
E4
330
17
100
AcDbEntity
  8
VK
370
30
420
9079434
100
AcDbCircle
 10
8811.0
 20
4461.0
 30
0.0
 40
50.0
  0
HATCH
  5
E5
330
17
100
AcDbEntity
  8
VK
 62
7
420
9079434
100
AcDbHatch
 10
0.0
 20
0.0
 30
0.0
210
0.0
220
0.0
230
1.0
  2
SOLID
 70
1
 71
0
 91
1
 92
1
 93
1
 72
2
 10
8811.0
 20
4461.0
 40
22.5
 50
0
 51
360
 73
1
 97
0
 75
1
 76
1
 98
0
  0
CIRCLE
  5
E6
330
17
100
AcDbEntity
  8
VK
370
13
420
9079434
100
AcDbCircle
 10
8811.0
 20
4461.0
 30
0.0
 40
22.5
  0
HATCH
  5
E7
330
17
100
AcDbEntity
  8
VK
 62
7
420
16777215
100
AcDbHatch
 10
0.0
 20
0.0
 30
0.0
210
0.0
220
0.0
230
1.0
  2
SOLID
 70
1
 71
0
 91
1
 92
1
 93
1
 72
2
 10
8741.0
 20
4740.000000000001
 40
30.0
 50
0
 51
360
 73
1
 97
0
 75
1
 76
1
 98
0
  0
CIRCLE
  5
E8
330
17
100
AcDbEntity
  8
VK
370
30
420
9079434
100
AcDbCircle
 10
8741.0
 20
4740.000000000001
 30
0.0
 40
30.0
  0
HATCH
  5
E9
330
17
100
AcDbEntity
  8
VK
 62
7
420
16777215
100
AcDbHatch
 10
0.0
 20
0.0
 30
0.0
210
0.0
220
0.0
230
1.0
  2
SOLID
 70
1
 71
0
 91
1
 92
1
 93
1
 72
2
 10
8741.0
 20
4839.0
 40
30.0
 50
0
 51
360
 73
1
 97
0
 75
1
 76
1
 98
0
  0
CIRCLE
  5
EA
330
17
100
AcDbEntity
  8
VK
370
30
420
9079434
100
AcDbCircle
 10
8741.0
 20
4839.0
 30
0.0
 40
30.0
  0
HATCH
  5
EB
330
17
100
AcDbEntity
  8
VK
 62
7
420
16777215
100
AcDbHatch
 10
0.0
 20
0.0
 30
0.0
210
0.0
220
0.0
230
1.0
  2
SOLID
 70
1
 71
0
 91
1
 92
1
 93
1
 72
2
 10
8741.0
 20
4939.0
 40
30.0
 50
0
 51
360
 73
1
 97
0
 75
1
 76
1
 98
0
  0
CIRCLE
  5
EC
330
17
100
AcDbEntity
  8
VK
370
30
420
9079434
100
AcDbCircle
 10
8741.0
 20
4939.0
 30
0.0
 40
30.0
  0
LWPOLYLINE
  5
ED
330
17
100
AcDbEntity
  8
VK
  6
DASHED
370
25
 48
150.0
420
9079434
100
AcDbPolyline
 90
4
 70
1
 10
8710.0
 20
4360.0
 10
9015.0
 20
4360.0
 10
9015.0
 20
5041.0
 10
8710.0
 20
5041.0
  0
HATCH
  5
EE
330
17
100
AcDbEntity
  8
VK
 62
7
420
16777215
100
AcDbHatch
 10
0.0
 20
0.0
 30
0.0
210
0.0
220
0.0
230
1.0
  2
SOLID
 70
1
 71
0
 91
1
 92
1
 93
1
 72
2
 10
11978.0
 20
10081.0
 40
50.0
 50
0
 51
360
 73
1
 97
0
 75
1
 76
1
 98
0
  0
CIRCLE
  5
EF
330
17
100
AcDbEntity
  8
VK
370
30
420
9079434
100
AcDbCircle
 10
11978.0
 20
10081.0
 30
0.0
 40
50.0
  0
HATCH
  5
F0
330
17
100
AcDbEntity
  8
VK
 62
7
420
9079434
100
AcDbHatch
 10
0.0
 20
0.0
 30
0.0
210
0.0
220
0.0
230
1.0
  2
SOLID
 70
1
 71
0
 91
1
 92
1
 93
1
 72
2
 10
11978.0
 20
10081.0
 40
22.5
 50
0
 51
360
 73
1
 97
0
 75
1
 76
1
 98
0
  0
CIRCLE
  5
F1
330
17
100
AcDbEntity
  8
VK
370
13
420
9079434
100
AcDbCircle
 10
11978.0
 20
10081.0
 30
0.0
 40
22.5
  0
HATCH
  5
F2
330
17
100
AcDbEntity
  8
VK
 62
7
420
16777215
100
AcDbHatch
 10
0.0
 20
0.0
 30
0.0
210
0.0
220
0.0
230
1.0
  2
SOLID
 70
1
 71
0
 91
1
 92
1
 93
1
 72
2
 10
11502.0
 20
10151.0
 40
30.0
 50
0
 51
360
 73
1
 97
0
 75
1
 76
1
 98
0
  0
CIRCLE
  5
F3
330
17
100
AcDbEntity
  8
VK
370
30
420
9079434
100
AcDbCircle
 10
11502.0
 20
10151.0
 30
0.0
 40
30.0
  0
HATCH
  5
F4
330
17
100
AcDbEntity
  8
VK
 62
7
420
16777215
100
AcDbHatch
 10
0.0
 20
0.0
 30
0.0
210
0.0
220
0.0
230
1.0
  2
SOLID
 70
1
 71
0
 91
1
 92
1
 93
1
 72
2
 10
11602.0
 20
10151.0
 40
30.0
 50
0
 51
360
 73
1
 97
0
 75
1
 76
1
 98
0
  0
CIRCLE
  5
F5
330
17
100
AcDbEntity
  8
VK
370
30
420
9079434
100
AcDbCircle
 10
11602.0
 20
10151.0
 30
0.0
 40
30.0
  0
HATCH
  5
F6
330
17
100
AcDbEntity
  8
VK
 62
7
420
16777215
100
AcDbHatch
 10
0.0
 20
0.0
 30
0.0
210
0.0
220
0.0
230
1.0
  2
SOLID
 70
1
 71
0
 91
1
 92
1
 93
1
 72
2
 10
11702.0
 20
10151.0
 40
30.0
 50
0
 51
360
 73
1
 97
0
 75
1
 76
1
 98
0
  0
CIRCLE
  5
F7
330
17
100
AcDbEntity
  8
VK
370
30
420
9079434
100
AcDbCircle
 10
11702.0
 20
10151.0
 30
0.0
 40
30.0
  0
LWPOLYLINE
  5
F8
330
17
100
AcDbEntity
  8
VK
  6
DASHED
370
25
 48
150.0
420
9079434
100
AcDbPolyline
 90
4
 70
1
 10
11403.0
 20
9876.0
 10
12081.0
 20
9876.0
 10
12081.0
 20
10201.0
 10
11403.0
 20
10201.0
  0
HATCH
  5
F9
330
17
100
AcDbEntity
  8
VK
 62
7
420
9079434
100
AcDbHatch
 10
0.0
 20
0.0
 30
0.0
210
0.0
220
0.0
230
1.0
  2
ANSI31
 70
0
 71
0
 91
1
 92
3
 72
0
 73
1
 93
4
 10
8760.0
 20
6141.0
 10
9060.0
 20
6141.0
 10
9060.0
 20
6240.000000000001
 10
8760.0
 20
6240.000000000001
 97
0
 75
1
 76
1
 52
0.0
 41
9.166666666666668
 77
0
 78
1
 53
45.0
 43
0.0
 44
0.0
 45
-20.5797536111
 46
20.5797536111
 79
0
 98
0
  0
LWPOLYLINE
  5
FA
330
17
100
AcDbEntity
  8
VK
370
25
420
9079434
100
AcDbPolyline
 90
4
 70
1
 10
8760.0
 20
6141.0
 10
9060.0
 20
6141.0
 10
9060.0
 20
6240.000000000001
 10
8760.0
 20
6240.000000000001
  0
HATCH
  5
FB
330
17
100
AcDbEntity
  8
OV
 62
7
420
9079434
100
AcDbHatch
 10
0.0
 20
0.0
 30
0.0
210
0.0
220
0.0
230
1.0
  2
ANSI37
 70
0
 71
0
 91
1
 92
3
 72
0
 73
1
 93
4
 10
8760.0
 20
5541.0
 10
9060.0
 20
5541.0
 10
9060.0
 20
5640.000000000001
 10
8760.0
 20
5640.000000000001
 97
0
 75
1
 76
1
 52
0.0
 41
13.750000000000002
 77
0
 78
2
 53
45.0
 43
0.0
 44
0.0
 45
-30.8696304166
 46
30.8696304166
 79
0
 53
135.0
 43
0.0
 44
0.0
 45
-30.8696304166
 46
-30.8696304166
 79
0
 98
0
  0
LWPOLYLINE
  5
FC
330
17
100
AcDbEntity
  8
OV
370
25
420
9079434
100
AcDbPolyline
 90
4
 70
1
 10
8760.0
 20
5541.0
 10
9060.0
 20
5541.0
 10
9060.0
 20
5640.000000000001
 10
8760.0
 20
5640.000000000001
  0
HATCH
  5
FD
330
17
100
AcDbEntity
  8
OV
 62
7
420
9079434
100
AcDbHatch
 10
0.0
 20
0.0
 30
0.0
210
0.0
220
0.0
230
1.0
  2
ANSI31
 70
0
 71
0
 91
1
 92
3
 72
0
 73
1
 93
4
 10
8547.0
 20
5541.0
 10
8632.0
 20
5541.0
 10
8632.0
 20
5640.000000000001
 10
8547.0
 20
5640.000000000001
 97
0
 75
1
 76
1
 52
0.0
 41
9.166666666666668
 77
0
 78
1
 53
45.0
 43
0.0
 44
0.0
 45
-20.5797536111
 46
20.5797536111
 79
0
 98
0
  0
LWPOLYLINE
  5
FE
330
17
100
AcDbEntity
  8
OV
370
25
420
9079434
100
AcDbPolyline
 90
4
 70
1
 10
8547.0
 20
5541.0
 10
8632.0
 20
5541.0
 10
8632.0
 20
5640.000000000001
 10
8547.0
 20
5640.000000000001
  0
HATCH
  5
FF
330
17
100
AcDbEntity
  8
VK
 62
7
420
9079434
100
AcDbHatch
 10
0.0
 20
0.0
 30
0.0
210
0.0
220
0.0
230
1.0
  2
ANSI31
 70
0
 71
0
 91
1
 92
3
 72
0
 73
1
 93
4
 10
10091.0
 20
9901.0
 10
10190.0
 20
9901.0
 10
10190.0
 20
10201.0
 10
10091.0
 20
10201.0
 97
0
 75
1
 76
1
 52
0.0
 41
9.166666666666668
 77
0
 78
1
 53
45.0
 43
0.0
 44
0.0
 45
-20.5797536111
 46
20.5797536111
 79
0
 98
0
  0
LWPOLYLINE
  5
100
330
17
100
AcDbEntity
  8
VK
370
25
420
9079434
100
AcDbPolyline
 90
4
 70
1
 10
10091.0
 20
9901.0
 10
10190.0
 20
9901.0
 10
10190.0
 20
10201.0
 10
10091.0
 20
10201.0
  0
HATCH
  5
101
330
17
100
AcDbEntity
  8
EL-SOCKET
 62
7
420
9079434
100
AcDbHatch
 10
0.0
 20
0.0
 30
0.0
210
0.0
220
0.0
230
1.0
  2
SOLID
 70
1
 71
0
 91
1
 92
3
 72
0
 73
1
 93
4
 10
11971.0
 20
6605.000000000001
 10
12081.0
 20
6605.000000000001
 10
12081.0
 20
6915.000000000001
 10
11971.0
 20
6915.000000000001
 97
0
 75
1
 76
1
 98
0
  0
LWPOLYLINE
  5
102
330
17
100
AcDbEntity
  8
EL-SOCKET
370
30
420
9079434
100
AcDbPolyline
 90
4
 70
1
 10
11971.0
 20
6605.000000000001
 10
12081.0
 20
6605.000000000001
 10
12081.0
 20
6915.000000000001
 10
11971.0
 20
6915.000000000001
  0
HATCH
  5
103
330
17
100
AcDbEntity
  8
EL-LOW
 62
7
420
16777215
100
AcDbHatch
 10
0.0
 20
0.0
 30
0.0
210
0.0
220
0.0
230
1.0
  2
SOLID
 70
1
 71
0
 91
1
 92
3
 72
0
 73
1
 93
4
 10
11971.0
 20
7009.999999999999
 10
12081.0
 20
7009.999999999999
 10
12081.0
 20
7409.999999999999
 10
11971.0
 20
7409.999999999999
 97
0
 75
1
 76
1
 98
0
  0
LWPOLYLINE
  5
104
330
17
100
AcDbEntity
  8
EL-LOW
370
30
420
9079434
100
AcDbPolyline
 90
4
 70
1
 10
11971.0
 20
7009.999999999999
 10
12081.0
 20
7009.999999999999
 10
12081.0
 20
7409.999999999999
 10
11971.0
 20
7409.999999999999
  0
CIRCLE
  5
105
330
17
100
AcDbEntity
  8
AR-WALLS
  6
DASHED
370
20
 48
150.0
420
9079434
100
AcDbCircle
 10
2138.0000000000005
 20
7398.0
 30
0.0
 40
100.0
  0
CIRCLE
  5
106
330
17
100
AcDbEntity
  8
AR-WALLS
  6
DASHED
370
20
 48
150.0
420
9079434
100
AcDbCircle
 10
2140.0
 20
4280.0
 30
0.0
 40
100.0
  0
HATCH
  5
107
330
17
100
AcDbEntity
  8
AR-DEMO
 62
7
420
12597547
100
AcDbHatch
 10
0.0
 20
0.0
 30
0.0
210
0.0
220
0.0
230
1.0
  2
ANSI37
 70
0
 71
0
 91
1
 92
3
 72
0
 73
1
 93
5
 10
9440.0
 20
8610.0
 10
9440.0
 20
8891.0
 10
9360.0
 20
8891.0
 10
9360.0
 20
8610.0
 10
9440.0
 20
8610.0
 97
0
 75
1
 76
1
 52
0.0
 41
6.875000000000001
 77
0
 78
2
 53
45.0
 43
0.0
 44
0.0
 45
-15.4348152083
 46
15.4348152083
 79
0
 53
135.0
 43
0.0
 44
0.0
 45
-15.4348152083
 46
-15.4348152083
 79
0
 98
0
  0
LWPOLYLINE
  5
108
330
17
100
AcDbEntity
  8
AR-DEMO
  6
DASHED
370
35
 48
150.0
420
12597547
100
AcDbPolyline
 90
5
 70
1
 10
9440.0
 20
8610.0
 10
9440.0
 20
8891.0
 10
9360.0
 20
8891.0
 10
9360.0
 20
8610.0
 10
9440.0
 20
8610.0
  0
HATCH
  5
109
330
17
100
AcDbEntity
  8
AR-DEMO
 62
7
420
12597547
100
AcDbHatch
 10
0.0
 20
0.0
 30
0.0
210
0.0
220
0.0
230
1.0
  2
ANSI37
 70
0
 71
0
 91
1
 92
3
 72
0
 73
1
 93
5
 10
9450.0
 20
6291.0
 10
9450.0
 20
6371.000000000001
 10
9110.0
 20
6371.000000000001
 10
9110.0
 20
6291.0
 10
9450.0
 20
6291.0
 97
0
 75
1
 76
1
 52
0.0
 41
6.875000000000001
 77
0
 78
2
 53
45.0
 43
0.0
 44
0.0
 45
-15.4348152083
 46
15.4348152083
 79
0
 53
135.0
 43
0.0
 44
0.0
 45
-15.4348152083
 46
-15.4348152083
 79
0
 98
0
  0
LWPOLYLINE
  5
10A
330
17
100
AcDbEntity
  8
AR-DEMO
  6
DASHED
370
35
 48
150.0
420
12597547
100
AcDbPolyline
 90
5
 70
1
 10
9450.0
 20
6291.0
 10
9450.0
 20
6371.000000000001
 10
9110.0
 20
6371.000000000001
 10
9110.0
 20
6291.0
 10
9450.0
 20
6291.0
  0
LWPOLYLINE
  5
10B
330
17
100
AcDbEntity
  8
AR-DEMO
  6
DASHED
370
35
 48
150.0
420
12597547
100
AcDbPolyline
 90
2
 70
0
 10
4540.0
 20
4950.0
 10
5470.0
 20
4950.0
  0
ARC
  5
10C
330
17
100
AcDbEntity
  8
AR-DEMO
  6
DASHED
370
15
 48
150.0
420
12597547
100
AcDbCircle
 10
4540.0
 20
4950.0
 30
0.0
 40
930.0000000000001
100
AcDbArc
 50
0.0
 51
90.0
  0
LWPOLYLINE
  5
10D
330
17
100
AcDbEntity
  8
AR-DEMO
  6
DASHED
370
35
 48
150.0
420
12597547
100
AcDbPolyline
 90
2
 70
0
 10
4540.0
 20
6809.999999999999
 10
5470.0
 20
6809.999999999999
  0
ARC
  5
10E
330
17
100
AcDbEntity
  8
AR-DEMO
  6
DASHED
370
15
 48
150.0
420
12597547
100
AcDbCircle
 10
4540.0
 20
6809.999999999999
 30
0.0
 40
930.0000000000001
100
AcDbArc
 50
270.0
 51
360.0
  0
HATCH
  5
10F
330
17
100
AcDbEntity
  8
AR-DEMO
 62
7
420
12597547
100
AcDbHatch
 10
0.0
 20
0.0
 30
0.0
210
0.0
220
0.0
230
1.0
  2
ANSI37
 70
0
 71
0
 91
1
 92
3
 72
0
 73
1
 93
4
 10
4120.0
 20
4950.0
 10
4540.0
 20
4950.0
 10
4540.0
 20
6809.999999999999
 10
4120.0
 20
6809.999999999999
 97
0
 75
1
 76
1
 52
0.0
 41
13.750000000000002
 77
0
 78
2
 53
45.0
 43
0.0
 44
0.0
 45
-30.8696304166
 46
30.8696304166
 79
0
 53
135.0
 43
0.0
 44
0.0
 45
-30.8696304166
 46
-30.8696304166
 79
0
 98
0
  0
LWPOLYLINE
  5
110
330
17
100
AcDbEntity
  8
AR-DEMO
  6
DASHED
370
30
 48
150.0
420
12597547
100
AcDbPolyline
 90
4
 70
1
 10
4120.0
 20
4950.0
 10
4540.0
 20
4950.0
 10
4540.0
 20
6809.999999999999
 10
4120.0
 20
6809.999999999999
  0
LWPOLYLINE
  5
111
330
17
100
AcDbEntity
  8
AR-DEMO
  6
DASHED
370
20
 48
150.0
420
12597547
100
AcDbPolyline
 90
4
 70
1
 10
9418.0
 20
4360.0
 10
9819.0
 20
4360.0
 10
9819.0
 20
4971.0
 10
9418.0
 20
4971.0
  0
LWPOLYLINE
  5
112
330
17
100
AcDbEntity
  8
AR-DEMO
  6
DASHED
370
15
 48
150.0
420
12597547
100
AcDbPolyline
 90
2
 70
0
 10
9418.0
 20
4360.0
 10
9819.0
 20
4971.0
  0
LWPOLYLINE
  5
113
330
17
100
AcDbEntity
  8
AR-DEMO
  6
DASHED
370
15
 48
150.0
420
12597547
100
AcDbPolyline
 90
2
 70
0
 10
9418.0
 20
4971.0
 10
9819.0
 20
4360.0
  0
LWPOLYLINE
  5
114
330
17
100
AcDbEntity
  8
AR-DEMO
  6
DASHED
370
20
 48
150.0
420
12597547
100
AcDbPolyline
 90
4
 70
1
 10
10120.0
 20
5087.0
 10
10450.0
 20
5087.0
 10
10450.0
 20
5587.0
 10
10120.0
 20
5587.0
  0
LWPOLYLINE
  5
115
330
17
100
AcDbEntity
  8
AR-DEMO
  6
DASHED
370
15
 48
150.0
420
12597547
100
AcDbPolyline
 90
2
 70
0
 10
10120.0
 20
5087.0
 10
10450.0
 20
5587.0
  0
LWPOLYLINE
  5
116
330
17
100
AcDbEntity
  8
AR-DEMO
  6
DASHED
370
15
 48
150.0
420
12597547
100
AcDbPolyline
 90
2
 70
0
 10
10120.0
 20
5587.0
 10
10450.0
 20
5087.0
  0
LWPOLYLINE
  5
117
330
17
100
AcDbEntity
  8
AR-DEMO
  6
DASHED
370
20
 48
150.0
420
12597547
100
AcDbPolyline
 90
4
 70
1
 10
10296.0
 20
9870.0
 10
10796.0
 20
9870.0
 10
10796.0
 20
10201.0
 10
10296.0
 20
10201.0
  0
LWPOLYLINE
  5
118
330
17
100
AcDbEntity
  8
AR-DEMO
  6
DASHED
370
15
 48
150.0
420
12597547
100
AcDbPolyline
 90
2
 70
0
 10
10296.0
 20
9870.0
 10
10796.0
 20
10201.0
  0
LWPOLYLINE
  5
119
330
17
100
AcDbEntity
  8
AR-DEMO
  6
DASHED
370
15
 48
150.0
420
12597547
100
AcDbPolyline
 90
2
 70
0
 10
10296.0
 20
10201.0
 10
10796.0
 20
9870.0
  0
LWPOLYLINE
  5
11A
330
17
100
AcDbEntity
  8
AR-DEMO
  6
DASHED
370
20
 48
150.0
420
12597547
100
AcDbPolyline
 90
4
 70
1
 10
11471.0
 20
9412.0
 10
12081.0
 20
9412.0
 10
12081.0
 20
9812.0
 10
11471.0
 20
9812.0
  0
LWPOLYLINE
  5
11B
330
17
100
AcDbEntity
  8
AR-DEMO
  6
DASHED
370
15
 48
150.0
420
12597547
100
AcDbPolyline
 90
2
 70
0
 10
11471.0
 20
9412.0
 10
12081.0
 20
9812.0
  0
LWPOLYLINE
  5
11C
330
17
100
AcDbEntity
  8
AR-DEMO
  6
DASHED
370
15
 48
150.0
420
12597547
100
AcDbPolyline
 90
2
 70
0
 10
11471.0
 20
9812.0
 10
12081.0
 20
9412.0
  0
LWPOLYLINE
  5
11D
330
17
100
AcDbEntity
  8
AR-DEMO
  6
DASHED
370
20
 48
150.0
420
12597547
100
AcDbPolyline
 90
4
 70
1
 10
10356.0
 20
8186.000000000002
 10
12056.0
 20
8186.000000000002
 10
12056.0
 20
8886.000000000002
 10
10356.0
 20
8886.000000000002
  0
LWPOLYLINE
  5
11E
330
17
100
AcDbEntity
  8
AR-DEMO
  6
DASHED
370
15
 48
150.0
420
12597547
100
AcDbPolyline
 90
2
 70
0
 10
10356.0
 20
8186.000000000002
 10
12056.0
 20
8886.000000000002
  0
LWPOLYLINE
  5
11F
330
17
100
AcDbEntity
  8
AR-DEMO
  6
DASHED
370
15
 48
150.0
420
12597547
100
AcDbPolyline
 90
2
 70
0
 10
10356.0
 20
8886.000000000002
 10
12056.0
 20
8186.000000000002
  0
LWPOLYLINE
  5
120
330
17
100
AcDbEntity
  8
AR-DEMO
  6
DASHED
370
20
 48
150.0
420
12597547
100
AcDbPolyline
 90
4
 70
1
 10
9440.0
 20
8161.000000000002
 10
10040.0
 20
8161.000000000002
 10
10040.0
 20
8761.000000000002
 10
9440.0
 20
8761.000000000002
  0
LWPOLYLINE
  5
121
330
17
100
AcDbEntity
  8
AR-DEMO
  6
DASHED
370
15
 48
150.0
420
12597547
100
AcDbPolyline
 90
2
 70
0
 10
9440.0
 20
8161.000000000002
 10
10040.0
 20
8761.000000000002
  0
LWPOLYLINE
  5
122
330
17
100
AcDbEntity
  8
AR-DEMO
  6
DASHED
370
15
 48
150.0
420
12597547
100
AcDbPolyline
 90
2
 70
0
 10
9440.0
 20
8761.000000000002
 10
10040.0
 20
8161.000000000002
  0
LWPOLYLINE
  5
123
330
17
100
AcDbEntity
  8
AR-DEMO
  6
DASHED
370
20
 48
150.0
420
12597547
100
AcDbPolyline
 90
4
 70
1
 10
8031.0
 20
5161.0
 10
8630.0
 20
5161.0
 10
8630.0
 20
5761.0
 10
8031.0
 20
5761.0
  0
LWPOLYLINE
  5
124
330
17
100
AcDbEntity
  8
AR-DEMO
  6
DASHED
370
15
 48
150.0
420
12597547
100
AcDbPolyline
 90
2
 70
0
 10
8031.0
 20
5161.0
 10
8630.0
 20
5761.0
  0
LWPOLYLINE
  5
125
330
17
100
AcDbEntity
  8
AR-DEMO
  6
DASHED
370
15
 48
150.0
420
12597547
100
AcDbPolyline
 90
2
 70
0
 10
8031.0
 20
5761.0
 10
8630.0
 20
5161.0
  0
LWPOLYLINE
  5
126
330
17
100
AcDbEntity
  8
AR-DEMO
  6
DASHED
370
20
 48
150.0
420
12597547
100
AcDbPolyline
 90
4
 70
1
 10
5630.0
 20
4360.0
 10
8630.0
 20
4360.0
 10
8630.0
 20
4960.0
 10
5630.0
 20
4960.0
  0
LWPOLYLINE
  5
127
330
17
100
AcDbEntity
  8
AR-DEMO
  6
DASHED
370
15
 48
150.0
420
12597547
100
AcDbPolyline
 90
2
 70
0
 10
5630.0
 20
4360.0
 10
8630.0
 20
4960.0
  0
LWPOLYLINE
  5
128
330
17
100
AcDbEntity
  8
AR-DEMO
  6
DASHED
370
15
 48
150.0
420
12597547
100
AcDbPolyline
 90
2
 70
0
 10
5630.0
 20
4960.0
 10
8630.0
 20
4360.0
  0
TEXT
  5
129
330
17
100
AcDbEntity
  8
TEXT
420
12597547
100
AcDbText
 10
4471.421356237309
 20
6021.42135623731
 30
0.0
 40
110.00000000000001
  1
1
  7
GOST
 11
4471.421356237309
 21
6021.42135623731
 31
0.0
100
AcDbText
  0
LWPOLYLINE
  5
12A
330
17
100
AcDbEntity
  8
TEXT
370
15
420
12597547
100
AcDbPolyline
 90
2
 70
0
 10
4330.0
 20
5880.0
 10
4456.421356237309
 20
6006.42135623731
  0
HATCH
  5
12B
330
17
100
AcDbEntity
  8
TEXT
 62
7
420
12597547
100
AcDbHatch
 10
0.0
 20
0.0
 30
0.0
210
0.0
220
0.0
230
1.0
  2
SOLID
 70
1
 71
0
 91
1
 92
1
 93
1
 72
2
 10
4330.0
 20
5880.0
 40
12.5
 50
0
 51
360
 73
1
 97
0
 75
1
 76
1
 98
0
  0
CIRCLE
  5
12C
330
17
100
AcDbEntity
  8
TEXT
370
13
420
12597547
100
AcDbCircle
 10
4330.0
 20
5880.0
 30
0.0
 40
12.5
  0
TEXT
  5
12D
330
17
100
AcDbEntity
  8
TEXT
420
12597547
100
AcDbText
 10
9541.42135623731
 20
8891.921356237308
 30
0.0
 40
110.00000000000001
  1
2
  7
GOST
 11
9541.42135623731
 21
8891.921356237308
 31
0.0
100
AcDbText
  0
LWPOLYLINE
  5
12E
330
17
100
AcDbEntity
  8
TEXT
370
15
420
12597547
100
AcDbPolyline
 90
2
 70
0
 10
9400.0
 20
8750.5
 10
9526.421356237308
 20
8876.921356237308
  0
HATCH
  5
12F
330
17
100
AcDbEntity
  8
TEXT
 62
7
420
12597547
100
AcDbHatch
 10
0.0
 20
0.0
 30
0.0
210
0.0
220
0.0
230
1.0
  2
SOLID
 70
1
 71
0
 91
1
 92
1
 93
1
 72
2
 10
9400.0
 20
8750.5
 40
12.5
 50
0
 51
360
 73
1
 97
0
 75
1
 76
1
 98
0
  0
CIRCLE
  5
130
330
17
100
AcDbEntity
  8
TEXT
370
13
420
12597547
100
AcDbCircle
 10
9400.0
 20
8750.5
 30
0.0
 40
12.5
  0
TEXT
  5
131
330
17
100
AcDbEntity
  8
TEXT
420
12597547
100
AcDbText
 10
9541.42135623731
 20
9791.42135623731
 30
0.0
 40
110.00000000000001
  1
3
  7
GOST
 11
9541.42135623731
 21
9791.42135623731
 31
0.0
100
AcDbText
  0
LWPOLYLINE
  5
132
330
17
100
AcDbEntity
  8
TEXT
370
15
420
12597547
100
AcDbPolyline
 90
2
 70
0
 10
9400.0
 20
9650.0
 10
9526.421356237308
 20
9776.421356237308
  0
HATCH
  5
133
330
17
100
AcDbEntity
  8
TEXT
 62
7
420
12597547
100
AcDbHatch
 10
0.0
 20
0.0
 30
0.0
210
0.0
220
0.0
230
1.0
  2
SOLID
 70
1
 71
0
 91
1
 92
1
 93
1
 72
2
 10
9400.0
 20
9650.0
 40
12.5
 50
0
 51
360
 73
1
 97
0
 75
1
 76
1
 98
0
  0
CIRCLE
  5
134
330
17
100
AcDbEntity
  8
TEXT
370
13
420
12597547
100
AcDbCircle
 10
9400.0
 20
9650.0
 30
0.0
 40
12.5
  0
TEXT
  5
135
330
17
100
AcDbEntity
  8
TEXT
420
12597547
100
AcDbText
 10
9421.42135623731
 20
6472.42135623731
 30
0.0
 40
110.00000000000001
  1
4
  7
GOST
 11
9421.42135623731
 21
6472.42135623731
 31
0.0
100
AcDbText
  0
LWPOLYLINE
  5
136
330
17
100
AcDbEntity
  8
TEXT
370
15
420
12597547
100
AcDbPolyline
 90
2
 70
0
 10
9280.0
 20
6331.0
 10
9406.421356237308
 20
6457.421356237309
  0
HATCH
  5
137
330
17
100
AcDbEntity
  8
TEXT
 62
7
420
12597547
100
AcDbHatch
 10
0.0
 20
0.0
 30
0.0
210
0.0
220
0.0
230
1.0
  2
SOLID
 70
1
 71
0
 91
1
 92
1
 93
1
 72
2
 10
9280.0
 20
6331.0
 40
12.5
 50
0
 51
360
 73
1
 97
0
 75
1
 76
1
 98
0
  0
CIRCLE
  5
138
330
17
100
AcDbEntity
  8
TEXT
370
13
420
12597547
100
AcDbCircle
 10
9280.0
 20
6331.0
 30
0.0
 40
12.5
  0
TEXT
  5
139
330
17
100
AcDbEntity
  8
TEXT
420
12597547
100
AcDbText
 10
10321.42135623731
 20
6472.42135623731
 30
0.0
 40
110.00000000000001
  1
5
  7
GOST
 11
10321.42135623731
 21
6472.42135623731
 31
0.0
100
AcDbText
  0
LWPOLYLINE
  5
13A
330
17
100
AcDbEntity
  8
TEXT
370
15
420
12597547
100
AcDbPolyline
 90
2
 70
0
 10
10180.0
 20
6331.0
 10
10306.421356237308
 20
6457.421356237309
  0
HATCH
  5
13B
330
17
100
AcDbEntity
  8
TEXT
 62
7
420
12597547
100
AcDbHatch
 10
0.0
 20
0.0
 30
0.0
210
0.0
220
0.0
230
1.0
  2
SOLID
 70
1
 71
0
 91
1
 92
1
 93
1
 72
2
 10
10180.0
 20
6331.0
 40
12.5
 50
0
 51
360
 73
1
 97
0
 75
1
 76
1
 98
0
  0
CIRCLE
  5
13C
330
17
100
AcDbEntity
  8
TEXT
370
13
420
12597547
100
AcDbCircle
 10
10180.0
 20
6331.0
 30
0.0
 40
12.5
  0
TEXT
  5
13D
330
17
100
AcDbEntity
  8
TEXT
420
12597547
100
AcDbText
 10
9759.92135623731
 20
4806.92135623731
 30
0.0
 40
110.00000000000001
  1
6
  7
GOST
 11
9759.92135623731
 21
4806.92135623731
 31
0.0
100
AcDbText
  0
LWPOLYLINE
  5
13E
330
17
100
AcDbEntity
  8
TEXT
370
15
420
12597547
100
AcDbPolyline
 90
2
 70
0
 10
9618.5
 20
4665.5
 10
9744.92135623731
 20
4791.92135623731
  0
HATCH
  5
13F
330
17
100
AcDbEntity
  8
TEXT
 62
7
420
12597547
100
AcDbHatch
 10
0.0
 20
0.0
 30
0.0
210
0.0
220
0.0
230
1.0
  2
SOLID
 70
1
 71
0
 91
1
 92
1
 93
1
 72
2
 10
9618.5
 20
4665.5
 40
12.5
 50
0
 51
360
 73
1
 97
0
 75
1
 76
1
 98
0
  0
CIRCLE
  5
140
330
17
100
AcDbEntity
  8
TEXT
370
13
420
12597547
100
AcDbCircle
 10
9618.5
 20
4665.5
 30
0.0
 40
12.5
  0
TEXT
  5
141
330
17
100
AcDbEntity
  8
TEXT
420
12597547
100
AcDbText
 10
7271.421356237311
 20
4801.42135623731
 30
0.0
 40
110.00000000000001
  1
7
  7
GOST
 11
7271.421356237311
 21
4801.42135623731
 31
0.0
100
AcDbText
  0
LWPOLYLINE
  5
142
330
17
100
AcDbEntity
  8
TEXT
370
15
420
12597547
100
AcDbPolyline
 90
2
 70
0
 10
7130.000000000001
 20
4660.0
 10
7256.42135623731
 20
4786.42135623731
  0
HATCH
  5
143
330
17
100
AcDbEntity
  8
TEXT
 62
7
420
12597547
100
AcDbHatch
 10
0.0
 20
0.0
 30
0.0
210
0.0
220
0.0
230
1.0
  2
SOLID
 70
1
 71
0
 91
1
 92
1
 93
1
 72
2
 10
7130.000000000001
 20
4660.0
 40
12.5
 50
0
 51
360
 73
1
 97
0
 75
1
 76
1
 98
0
  0
CIRCLE
  5
144
330
17
100
AcDbEntity
  8
TEXT
370
13
420
12597547
100
AcDbCircle
 10
7130.000000000001
 20
4660.0
 30
0.0
 40
12.5
  0
TEXT
  5
145
330
17
100
AcDbEntity
  8
TEXT
420
12597547
100
AcDbText
 10
4581.421356237309
 20
11117.42135623731
 30
0.0
 40
110.00000000000001
  1
8
  7
GOST
 11
4581.421356237309
 21
11117.42135623731
 31
0.0
100
AcDbText
  0
LWPOLYLINE
  5
146
330
17
100
AcDbEntity
  8
TEXT
370
15
420
12597547
100
AcDbPolyline
 90
2
 70
0
 10
4440.0
 20
10976.0
 10
4566.421356237309
 20
11102.42135623731
  0
HATCH
  5
147
330
17
100
AcDbEntity
  8
TEXT
 62
7
420
12597547
100
AcDbHatch
 10
0.0
 20
0.0
 30
0.0
210
0.0
220
0.0
230
1.0
  2
SOLID
 70
1
 71
0
 91
1
 92
1
 93
1
 72
2
 10
4440.0
 20
10976.0
 40
12.5
 50
0
 51
360
 73
1
 97
0
 75
1
 76
1
 98
0
  0
CIRCLE
  5
148
330
17
100
AcDbEntity
  8
TEXT
370
13
420
12597547
100
AcDbCircle
 10
4440.0
 20
10976.0
 30
0.0
 40
12.5
  0
TEXT
  5
149
330
17
100
AcDbEntity
  8
TEXT
 62
7
100
AcDbText
 10
6540.000000000001
 20
6895.0
 30
0.0
 40
100.0
  1
3. Кухня-столовая
  7
GOST
 72
1
 11
6540.000000000001
 21
6895.0
 31
0.0
100
AcDbText
  0
TEXT
  5
14A
330
17
100
AcDbEntity
  8
TEXT
 62
7
100
AcDbText
 10
6540.000000000001
 20
6745.0
 30
0.0
 40
100.0
  1
14,20 м²
  7
GOST
 72
1
 11
6540.000000000001
 21
6745.0
 31
0.0
100
AcDbText
  0
LWPOLYLINE
  5
14B
330
17
100
AcDbEntity
  8
TEXT
 62
7
370
15
100
AcDbPolyline
 90
2
 70
0
 10
5821.067815500686
 20
6845.0
 10
7258.932184499314
 20
6845.0
  0
TEXT
  5
14C
330
17
100
AcDbEntity
  8
TEXT
 62
7
100
AcDbText
 10
3060.0
 20
6095.000000000001
 30
0.0
 40
100.0
  1
7. Балкон (тёплый)
  7
GOST
 72
1
 11
3060.0
 21
6095.000000000001
 31
0.0
100
AcDbText
  0
TEXT
  5
14D
330
17
100
AcDbEntity
  8
TEXT
 62
7
100
AcDbText
 10
3060.0
 20
5945.000000000001
 30
0.0
 40
100.0
  1
6,80 м²
  7
GOST
 72
1
 11
3060.0
 21
5945.000000000001
 31
0.0
100
AcDbText
  0
LWPOLYLINE
  5
14E
330
17
100
AcDbEntity
  8
TEXT
 62
7
370
15
100
AcDbPolyline
 90
2
 70
0
 10
2294.3964334705074
 20
6045.000000000001
 10
3825.6035665294926
 20
6045.000000000001
  0
TEXT
  5
14F
330
17
100
AcDbEntity
  8
TEXT
 62
7
100
AcDbText
 10
6230.0
 20
10195.000000000002
 30
0.0
 40
100.0
  1
1. Спальня
  7
GOST
 72
1
 11
6230.0
 21
10195.000000000002
 31
0.0
100
AcDbText
  0
TEXT
  5
150
330
17
100
AcDbEntity
  8
TEXT
 62
7
100
AcDbText
 10
6230.0
 20
10045.000000000002
 30
0.0
 40
100.0
  1
17,54 м²
  7
GOST
 72
1
 11
6230.0
 21
10045.000000000002
 31
0.0
100
AcDbText
  0
LWPOLYLINE
  5
151
330
17
100
AcDbEntity
  8
TEXT
 62
7
370
15
100
AcDbPolyline
 90
2
 70
0
 10
5805.531550068587
 20
10145.000000000002
 10
6654.468449931413
 20
10145.000000000002
  0
TEXT
  5
152
330
17
100
AcDbEntity
  8
TEXT
 62
7
100
AcDbText
 10
10140.0
 20
12095.000000000002
 30
0.0
 40
100.0
  1
2. Детская
  7
GOST
 72
1
 11
10140.0
 21
12095.000000000002
 31
0.0
100
AcDbText
  0
TEXT
  5
153
330
17
100
AcDbEntity
  8
TEXT
 62
7
100
AcDbText
 10
10140.0
 20
11945.000000000002
 30
0.0
 40
100.0
  1
11,87 м²
  7
GOST
 72
1
 11
10140.0
 21
11945.000000000002
 31
0.0
100
AcDbText
  0
LWPOLYLINE
  5
154
330
17
100
AcDbEntity
  8
TEXT
 62
7
370
15
100
AcDbPolyline
 90
2
 70
0
 10
9719.689643347052
 20
12045.000000000002
 10
10560.310356652948
 20
12045.000000000002
  0
TEXT
  5
155
330
17
100
AcDbEntity
  8
TEXT
 62
7
100
AcDbText
 10
10640.0
 20
7095.0
 30
0.0
 40
100.0
  1
4. Прихожая-коридор
  7
GOST
 72
1
 11
10640.0
 21
7095.0
 31
0.0
100
AcDbText
  0
TEXT
  5
156
330
17
100
AcDbEntity
  8
TEXT
 62
7
100
AcDbText
 10
10640.0
 20
6945.0
 30
0.0
 40
100.0
  1
9,34 м²
  7
GOST
 72
1
 11
10640.0
 21
6945.0
 31
0.0
100
AcDbText
  0
LWPOLYLINE
  5
157
330
17
100
AcDbEntity
  8
TEXT
 62
7
370
15
100
AcDbPolyline
 90
2
 70
0
 10
9766.61822702332
 20
7045.0
 10
11513.38177297668
 20
7045.0
  0
TEXT
  5
158
330
17
100
AcDbEntity
  8
TEXT
 62
7
100
AcDbText
 10
10590.0
 20
9545.0
 30
0.0
 40
100.0
  1
5. Ванная
  7
GOST
 72
1
 11
10590.0
 21
9545.0
 31
0.0
100
AcDbText
  0
TEXT
  5
159
330
17
100
AcDbEntity
  8
TEXT
 62
7
100
AcDbText
 10
10590.0
 20
9395.0
 30
0.0
 40
100.0
  1
5,39 м²
  7
GOST
 72
1
 11
10590.0
 21
9395.0
 31
0.0
100
AcDbText
  0
LWPOLYLINE
  5
15A
330
17
100
AcDbEntity
  8
TEXT
 62
7
370
15
100
AcDbPolyline
 90
2
 70
0
 10
10210.916923868313
 20
9495.0
 10
10969.083076131687
 20
9495.0
  0
TEXT
  5
15B
330
17
100
AcDbEntity
  8
TEXT
 62
7
100
AcDbText
 10
9540.0
 20
5345.000000000001
 30
0.0
 40
100.0
  1
6. Постирочная
  7
GOST
 72
1
 11
9540.0
 21
5345.000000000001
 31
0.0
100
AcDbText
  0
TEXT
  5
15C
330
17
100
AcDbEntity
  8
TEXT
 62
7
100
AcDbText
 10
9540.0
 20
5195.000000000001
 30
0.0
 40
100.0
  1
3,36 м²
  7
GOST
 72
1
 11
9540.0
 21
5195.000000000001
 31
0.0
100
AcDbText
  0
LWPOLYLINE
  5
15D
330
17
100
AcDbEntity
  8
TEXT
 62
7
370
15
100
AcDbPolyline
 90
2
 70
0
 10
8930.582133058986
 20
5295.000000000001
 10
10149.417866941016
 20
5295.000000000001
  0
LWPOLYLINE
  5
15E
330
17
100
AcDbEntity
  8
DIM
 62
7
370
15
100
AcDbPolyline
 90
2
 70
0
 10
4465.0
 20
14142.000000000002
 10
12285.0
 20
14142.000000000002
  0
LWPOLYLINE
  5
15F
330
17
100
AcDbEntity
  8
DIM
 62
7
370
15
100
AcDbPolyline
 90
2
 70
0
 10
4540.0
 20
13742.000000000002
 10
4540.0
 20
14217.000000000002
  0
LWPOLYLINE
  5
160
330
17
100
AcDbEntity
  8
DIM
 62
7
370
35
100
AcDbPolyline
 90
2
 70
0
 10
4500.0
 20
14102.000000000002
 10
4580.0
 20
14182.000000000002
  0
LWPOLYLINE
  5
161
330
17
100
AcDbEntity
  8
DIM
 62
7
370
15
100
AcDbPolyline
 90
2
 70
0
 10
7920.0
 20
13742.000000000002
 10
7920.0
 20
14217.000000000002
  0
LWPOLYLINE
  5
162
330
17
100
AcDbEntity
  8
DIM
 62
7
370
35
100
AcDbPolyline
 90
2
 70
0
 10
7880.0
 20
14102.000000000002
 10
7960.000000000001
 20
14182.000000000002
  0
LWPOLYLINE
  5
163
330
17
100
AcDbEntity
  8
DIM
 62
7
370
15
100
AcDbPolyline
 90
2
 70
0
 10
8060.000000000001
 20
13742.000000000002
 10
8060.000000000001
 20
14217.000000000002
  0
LWPOLYLINE
  5
164
330
17
100
AcDbEntity
  8
DIM
 62
7
370
35
100
AcDbPolyline
 90
2
 70
0
 10
8020.0
 20
14102.000000000002
 10
8100.000000000002
 20
14182.000000000002
  0
LWPOLYLINE
  5
165
330
17
100
AcDbEntity
  8
DIM
 62
7
370
15
100
AcDbPolyline
 90
2
 70
0
 10
12210.0
 20
13742.000000000002
 10
12210.0
 20
14217.000000000002
  0
LWPOLYLINE
  5
166
330
17
100
AcDbEntity
  8
DIM
 62
7
370
35
100
AcDbPolyline
 90
2
 70
0
 10
12170.0
 20
14102.000000000002
 10
12250.000000000002
 20
14182.000000000002
  0
TEXT
  5
167
330
17
100
AcDbEntity
  8
DIM
 62
7
100
AcDbText
 10
6230.0
 20
14172.000000000004
 30
0.0
 40
90.0
  1
3380
  7
GOST
 72
1
 11
6230.0
 21
14172.000000000004
 31
0.0
100
AcDbText
  0
TEXT
  5
168
330
17
100
AcDbEntity
  8
DIM
 62
7
100
AcDbText
 10
7990.000000000001
 20
14307.000000000002
 30
0.0
 40
90.0
  1
140
  7
GOST
 72
1
 11
7990.000000000001
 21
14307.000000000002
 31
0.0
100
AcDbText
  0
LWPOLYLINE
  5
169
330
17
100
AcDbEntity
  8
DIM
 62
7
370
13
100
AcDbPolyline
 90
2
 70
0
 10
7990.000000000001
 20
14142.000000000002
 10
7990.000000000001
 20
14292.000000000002
  0
TEXT
  5
16A
330
17
100
AcDbEntity
  8
DIM
 62
7
100
AcDbText
 10
10135.0
 20
14172.000000000004
 30
0.0
 40
90.0
  1
4150
  7
GOST
 72
1
 11
10135.0
 21
14172.000000000004
 31
0.0
100
AcDbText
  0
LWPOLYLINE
  5
16B
330
17
100
AcDbEntity
  8
DIM
 62
7
370
15
100
AcDbPolyline
 90
2
 70
0
 10
1459.0
 20
4285.0
 10
1459.0
 20
13346.0
  0
LWPOLYLINE
  5
16C
330
17
100
AcDbEntity
  8
DIM
 62
7
370
15
100
AcDbPolyline
 90
2
 70
0
 10
1859.0
 20
4360.0
 10
1384.0
 20
4360.0
  0
LWPOLYLINE
  5
16D
330
17
100
AcDbEntity
  8
DIM
 62
7
370
35
100
AcDbPolyline
 90
2
 70
0
 10
1419.0
 20
4320.0
 10
1499.0
 20
4400.0
  0
LWPOLYLINE
  5
16E
330
17
100
AcDbEntity
  8
DIM
 62
7
370
15
100
AcDbPolyline
 90
2
 70
0
 10
1859.0
 20
7940.000000000001
 10
1384.0
 20
7940.000000000001
  0
LWPOLYLINE
  5
16F
330
17
100
AcDbEntity
  8
DIM
 62
7
370
35
100
AcDbPolyline
 90
2
 70
0
 10
1419.0
 20
7900.0
 10
1499.0
 20
7980.000000000001
  0
LWPOLYLINE
  5
170
330
17
100
AcDbEntity
  8
DIM
 62
7
370
15
100
AcDbPolyline
 90
2
 70
0
 10
1859.0
 20
8081.0
 10
1384.0
 20
8081.0
  0
LWPOLYLINE
  5
171
330
17
100
AcDbEntity
  8
DIM
 62
7
370
35
100
AcDbPolyline
 90
2
 70
0
 10
1419.0
 20
8041.0
 10
1499.0
 20
8121.000000000001
  0
LWPOLYLINE
  5
172
330
17
100
AcDbEntity
  8
DIM
 62
7
370
15
100
AcDbPolyline
 90
2
 70
0
 10
1859.0
 20
13271.0
 10
1384.0
 20
13271.0
  0
LWPOLYLINE
  5
173
330
17
100
AcDbEntity
  8
DIM
 62
7
370
35
100
AcDbPolyline
 90
2
 70
0
 10
1419.0
 20
13231.0
 10
1499.0
 20
13311.000000000002
  0
TEXT
  5
174
330
17
100
AcDbEntity
  8
DIM
 62
7
100
AcDbText
 10
1429.0
 20
6150.0
 30
0.0
 40
90.0
  1
3580
 50
90.0
  7
GOST
 72
1
 11
1429.0
 21
6150.0
 31
0.0
100
AcDbText
  0
TEXT
  5
175
330
17
100
AcDbEntity
  8
DIM
 62
7
100
AcDbText
 10
1294.0
 20
8010.5
 30
0.0
 40
90.0
  1
141
 50
90.0
  7
GOST
 72
1
 11
1294.0
 21
8010.5
 31
0.0
100
AcDbText
  0
LWPOLYLINE
  5
176
330
17
100
AcDbEntity
  8
DIM
 62
7
370
13
100
AcDbPolyline
 90
2
 70
0
 10
1459.0
 20
8010.5
 10
1309.0
 20
8010.5
  0
TEXT
  5
177
330
17
100
AcDbEntity
  8
DIM
 62
7
100
AcDbText
 10
1429.0
 20
10676.0
 30
0.0
 40
90.0
  1
5190
 50
90.0
  7
GOST
 72
1
 11
1429.0
 21
10676.0
 31
0.0
100
AcDbText
  0
LWPOLYLINE
  5
178
330
17
100
AcDbEntity
  8
DIM
 62
7
370
15
100
AcDbPolyline
 90
2
 70
0
 10
12819.999999999998
 20
4285.0
 10
12819.999999999998
 20
13346.0
  0
LWPOLYLINE
  5
179
330
17
100
AcDbEntity
  8
DIM
 62
7
370
15
100
AcDbPolyline
 90
2
 70
0
 10
12420.0
 20
4360.0
 10
12894.999999999998
 20
4360.0
  0
LWPOLYLINE
  5
17A
330
17
100
AcDbEntity
  8
DIM
 62
7
370
35
100
AcDbPolyline
 90
2
 70
0
 10
12779.999999999998
 20
4320.0
 10
12860.0
 20
4400.0
  0
LWPOLYLINE
  5
17B
330
17
100
AcDbEntity
  8
DIM
 62
7
370
15
100
AcDbPolyline
 90
2
 70
0
 10
12420.0
 20
6291.0
 10
12894.999999999998
 20
6291.0
  0
LWPOLYLINE
  5
17C
330
17
100
AcDbEntity
  8
DIM
 62
7
370
35
100
AcDbPolyline
 90
2
 70
0
 10
12779.999999999998
 20
6251.000000000001
 10
12860.0
 20
6331.0
  0
LWPOLYLINE
  5
17D
330
17
100
AcDbEntity
  8
DIM
 62
7
370
15
100
AcDbPolyline
 90
2
 70
0
 10
12420.0
 20
6371.000000000001
 10
12894.999999999998
 20
6371.000000000001
  0
LWPOLYLINE
  5
17E
330
17
100
AcDbEntity
  8
DIM
 62
7
370
35
100
AcDbPolyline
 90
2
 70
0
 10
12779.999999999998
 20
6331.000000000001
 10
12860.0
 20
6411.000000000002
  0
LWPOLYLINE
  5
17F
330
17
100
AcDbEntity
  8
DIM
 62
7
370
15
100
AcDbPolyline
 90
2
 70
0
 10
12420.0
 20
8081.0
 10
12894.999999999998
 20
8081.0
  0
LWPOLYLINE
  5
180
330
17
100
AcDbEntity
  8
DIM
 62
7
370
35
100
AcDbPolyline
 90
2
 70
0
 10
12779.999999999998
 20
8041.0
 10
12860.0
 20
8121.000000000001
  0
LWPOLYLINE
  5
181
330
17
100
AcDbEntity
  8
DIM
 62
7
370
15
100
AcDbPolyline
 90
2
 70
0
 10
12420.0
 20
8159.999999999999
 10
12894.999999999998
 20
8159.999999999999
  0
LWPOLYLINE
  5
182
330
17
100
AcDbEntity
  8
DIM
 62
7
370
35
100
AcDbPolyline
 90
2
 70
0
 10
12779.999999999998
 20
8119.999999999999
 10
12860.0
 20
8200.0
  0
LWPOLYLINE
  5
183
330
17
100
AcDbEntity
  8
DIM
 62
7
370
15
100
AcDbPolyline
 90
2
 70
0
 10
12420.0
 20
10201.0
 10
12894.999999999998
 20
10201.0
  0
LWPOLYLINE
  5
184
330
17
100
AcDbEntity
  8
DIM
 62
7
370
35
100
AcDbPolyline
 90
2
 70
0
 10
12779.999999999998
 20
10161.0
 10
12860.0
 20
10241.000000000002
  0
LWPOLYLINE
  5
185
330
17
100
AcDbEntity
  8
DIM
 62
7
370
15
100
AcDbPolyline
 90
2
 70
0
 10
12420.0
 20
10411.0
 10
12894.999999999998
 20
10411.0
  0
LWPOLYLINE
  5
186
330
17
100
AcDbEntity
  8
DIM
 62
7
370
35
100
AcDbPolyline
 90
2
 70
0
 10
12779.999999999998
 20
10371.0
 10
12860.0
 20
10451.0
  0
LWPOLYLINE
  5
187
330
17
100
AcDbEntity
  8
DIM
 62
7
370
15
100
AcDbPolyline
 90
2
 70
0
 10
12420.0
 20
13271.0
 10
12894.999999999998
 20
13271.0
  0
LWPOLYLINE
  5
188
330
17
100
AcDbEntity
  8
DIM
 62
7
370
35
100
AcDbPolyline
 90
2
 70
0
 10
12779.999999999998
 20
13231.0
 10
12860.0
 20
13311.000000000002
  0
TEXT
  5
189
330
17
100
AcDbEntity
  8
DIM
 62
7
100
AcDbText
 10
12790.0
 20
5325.5
 30
0.0
 40
90.0
  1
1931
 50
90.0
  7
GOST
 72
1
 11
12790.0
 21
5325.5
 31
0.0
100
AcDbText
  0
TEXT
  5
18A
330
17
100
AcDbEntity
  8
DIM
 62
7
100
AcDbText
 10
12655.0
 20
6331.0
 30
0.0
 40
90.0
  1
80
 50
90.0
  7
GOST
 72
1
 11
12655.0
 21
6331.0
 31
0.0
100
AcDbText
  0
LWPOLYLINE
  5
18B
330
17
100
AcDbEntity
  8
DIM
 62
7
370
13
100
AcDbPolyline
 90
2
 70
0
 10
12819.999999999998
 20
6331.0
 10
12670.0
 20
6331.0
  0
TEXT
  5
18C
330
17
100
AcDbEntity
  8
DIM
 62
7
100
AcDbText
 10
12790.0
 20
7226.000000000001
 30
0.0
 40
90.0
  1
1710
 50
90.0
  7
GOST
 72
1
 11
12790.0
 21
7226.000000000001
 31
0.0
100
AcDbText
  0
TEXT
  5
18D
330
17
100
AcDbEntity
  8
DIM
 62
7
100
AcDbText
 10
12655.0
 20
8120.5
 30
0.0
 40
90.0
  1
79
 50
90.0
  7
GOST
 72
1
 11
12655.0
 21
8120.5
 31
0.0
100
AcDbText
  0
LWPOLYLINE
  5
18E
330
17
100
AcDbEntity
  8
DIM
 62
7
370
13
100
AcDbPolyline
 90
2
 70
0
 10
12819.999999999998
 20
8120.5
 10
12670.0
 20
8120.5
  0
TEXT
  5
18F
330
17
100
AcDbEntity
  8
DIM
 62
7
100
AcDbText
 10
12790.0
 20
9180.5
 30
0.0
 40
90.0
  1
2041
 50
90.0
  7
GOST
 72
1
 11
12790.0
 21
9180.5
 31
0.0
100
AcDbText
  0
TEXT
  5
190
330
17
100
AcDbEntity
  8
DIM
 62
7
100
AcDbText
 10
12655.0
 20
10306.0
 30
0.0
 40
90.0
  1
210
 50
90.0
  7
GOST
 72
1
 11
12655.0
 21
10306.0
 31
0.0
100
AcDbText
  0
LWPOLYLINE
  5
191
330
17
100
AcDbEntity
  8
DIM
 62
7
370
13
100
AcDbPolyline
 90
2
 70
0
 10
12819.999999999998
 20
10306.0
 10
12670.0
 20
10306.0
  0
TEXT
  5
192
330
17
100
AcDbEntity
  8
DIM
 62
7
100
AcDbText
 10
12790.0
 20
11841.0
 30
0.0
 40
90.0
  1
2860
 50
90.0
  7
GOST
 72
1
 11
12790.0
 21
11841.0
 31
0.0
100
AcDbText
  0
LWPOLYLINE
  5
193
330
17
100
AcDbEntity
  8
DIM
 62
7
370
15
100
AcDbPolyline
 90
2
 70
0
 10
1934.0
 20
3760.0
 10
10685.0
 20
3760.0
  0
LWPOLYLINE
  5
194
330
17
100
AcDbEntity
  8
DIM
 62
7
370
15
100
AcDbPolyline
 90
2
 70
0
 10
2009.0
 20
4130.0
 10
2009.0
 20
3685.0
  0
LWPOLYLINE
  5
195
330
17
100
AcDbEntity
  8
DIM
 62
7
370
35
100
AcDbPolyline
 90
2
 70
0
 10
1969.0000000000002
 20
3720.0000000000005
 10
2049.0
 20
3800.0
  0
LWPOLYLINE
  5
196
330
17
100
AcDbEntity
  8
DIM
 62
7
370
15
100
AcDbPolyline
 90
2
 70
0
 10
4120.0
 20
4130.0
 10
4120.0
 20
3685.0
  0
LWPOLYLINE
  5
197
330
17
100
AcDbEntity
  8
DIM
 62
7
370
35
100
AcDbPolyline
 90
2
 70
0
 10
4080.0000000000005
 20
3720.0000000000005
 10
4160.0
 20
3800.0
  0
LWPOLYLINE
  5
198
330
17
100
AcDbEntity
  8
DIM
 62
7
370
15
100
AcDbPolyline
 90
2
 70
0
 10
4540.0
 20
4130.0
 10
4540.0
 20
3685.0
  0
LWPOLYLINE
  5
199
330
17
100
AcDbEntity
  8
DIM
 62
7
370
35
100
AcDbPolyline
 90
2
 70
0
 10
4500.0
 20
3720.0000000000005
 10
4580.0
 20
3800.0
  0
LWPOLYLINE
  5
19A
330
17
100
AcDbEntity
  8
DIM
 62
7
370
15
100
AcDbPolyline
 90
2
 70
0
 10
8630.0
 20
4130.0
 10
8630.0
 20
3685.0
  0
LWPOLYLINE
  5
19B
330
17
100
AcDbEntity
  8
DIM
 62
7
370
35
100
AcDbPolyline
 90
2
 70
0
 10
8590.0
 20
3720.0000000000005
 10
8670.0
 20
3800.0
  0
LWPOLYLINE
  5
19C
330
17
100
AcDbEntity
  8
DIM
 62
7
370
15
100
AcDbPolyline
 90
2
 70
0
 10
8710.0
 20
4130.0
 10
8710.0
 20
3685.0
  0
LWPOLYLINE
  5
19D
330
17
100
AcDbEntity
  8
DIM
 62
7
370
35
100
AcDbPolyline
 90
2
 70
0
 10
8670.0
 20
3720.0000000000005
 10
8750.000000000002
 20
3800.0
  0
LWPOLYLINE
  5
19E
330
17
100
AcDbEntity
  8
DIM
 62
7
370
15
100
AcDbPolyline
 90
2
 70
0
 10
10450.0
 20
4130.0
 10
10450.0
 20
3685.0
  0
LWPOLYLINE
  5
19F
330
17
100
AcDbEntity
  8
DIM
 62
7
370
35
100
AcDbPolyline
 90
2
 70
0
 10
10410.0
 20
3720.0000000000005
 10
10490.0
 20
3800.0
  0
LWPOLYLINE
  5
1A0
330
17
100
AcDbEntity
  8
DIM
 62
7
370
15
100
AcDbPolyline
 90
2
 70
0
 10
10610.0
 20
4130.0
 10
10610.0
 20
3685.0
  0
LWPOLYLINE
  5
1A1
330
17
100
AcDbEntity
  8
DIM
 62
7
370
35
100
AcDbPolyline
 90
2
 70
0
 10
10570.0
 20
3720.0000000000005
 10
10650.000000000002
 20
3800.0
  0
TEXT
  5
1A2
330
17
100
AcDbEntity
  8
DIM
 62
7
100
AcDbText
 10
3064.5000000000005
 20
3790.0
 30
0.0
 40
90.0
  1
2111
  7
GOST
 72
1
 11
3064.5000000000005
 21
3790.0
 31
0.0
100
AcDbText
  0
TEXT
  5
1A3
330
17
100
AcDbEntity
  8
DIM
 62
7
100
AcDbText
 10
4330.0
 20
3790.0
 30
0.0
 40
90.0
  1
420
  7
GOST
 72
1
 11
4330.0
 21
3790.0
 31
0.0
100
AcDbText
  0
TEXT
  5
1A4
330
17
100
AcDbEntity
  8
DIM
 62
7
100
AcDbText
 10
6584.999999999999
 20
3790.0
 30
0.0
 40
90.0
  1
4090
  7
GOST
 72
1
 11
6584.999999999999
 21
3790.0
 31
0.0
100
AcDbText
  0
TEXT
  5
1A5
330
17
100
AcDbEntity
  8
DIM
 62
7
100
AcDbText
 10
8670.0
 20
3925.0
 30
0.0
 40
90.0
  1
80
  7
GOST
 72
1
 11
8670.0
 21
3925.0
 31
0.0
100
AcDbText
  0
LWPOLYLINE
  5
1A6
330
17
100
AcDbEntity
  8
DIM
 62
7
370
13
100
AcDbPolyline
 90
2
 70
0
 10
8670.0
 20
3760.0
 10
8670.0
 20
3910.0
  0
TEXT
  5
1A7
330
17
100
AcDbEntity
  8
DIM
 62
7
100
AcDbText
 10
9580.000000000002
 20
3790.0
 30
0.0
 40
90.0
  1
1740
  7
GOST
 72
1
 11
9580.000000000002
 21
3790.0
 31
0.0
100
AcDbText
  0
TEXT
  5
1A8
330
17
100
AcDbEntity
  8
DIM
 62
7
100
AcDbText
 10
10530.000000000002
 20
3925.0
 30
0.0
 40
90.0
  1
160
  7
GOST
 72
1
 11
10530.000000000002
 21
3925.0
 31
0.0
100
AcDbText
  0
LWPOLYLINE
  5
1A9
330
17
100
AcDbEntity
  8
DIM
 62
7
370
13
100
AcDbPolyline
 90
2
 70
0
 10
10530.000000000002
 20
3760.0
 10
10530.000000000002
 20
3910.0
  0
TEXT
  5
1AA
330
17
100
AcDbEntity
  8
TEXT
 62
7
100
AcDbText
 10
13325.0
 20
14394.999999999998
 30
0.0
 40
125.0
  1
Ведомость демонтажа
  7
GOST
 11
13325.0
 21
14394.999999999998
 31
0.0
100
AcDbText
  0
HATCH
  5
1AB
330
17
100
AcDbEntity
  8
TEXT
 62
7
420
15132390
100
AcDbHatch
 10
0.0
 20
0.0
 30
0.0
210
0.0
220
0.0
230
1.0
  2
SOLID
 70
1
 71
0
 91
1
 92
3
 72
0
 73
1
 93
4
 10
13325.0
 20
14100.0
 10
19325.0
 20
14100.0
 10
19325.0
 20
14315.0
 10
13325.0
 20
14315.0
 97
0
 75
1
 76
1
 98
0
  0
LWPOLYLINE
  5
1AC
330
17
100
AcDbEntity
  8
TEXT
 62
7
370
25
100
AcDbPolyline
 90
4
 70
1
 10
13325.0
 20
14100.0
 10
19325.0
 20
14100.0
 10
19325.0
 20
14315.0
 10
13325.0
 20
14315.0
  0
LWPOLYLINE
  5
1AD
330
17
100
AcDbEntity
  8
TEXT
 62
7
370
15
100
AcDbPolyline
 90
2
 70
0
 10
13325.0
 20
14315.0
 10
13325.0
 20
14100.0
  0
TEXT
  5
1AE
330
17
100
AcDbEntity
  8
TEXT
 62
7
100
AcDbText
 10
13365.0
 20
14190.0
 30
0.0
 40
75.0
  1
Поз.
  7
GOST
 11
13365.0
 21
14190.0
 31
0.0
100
AcDbText
  0
LWPOLYLINE
  5
1AF
330
17
100
AcDbEntity
  8
TEXT
 62
7
370
15
100
AcDbPolyline
 90
2
 70
0
 10
13675.0
 20
14315.0
 10
13675.0
 20
14100.0
  0
TEXT
  5
1B0
330
17
100
AcDbEntity
  8
TEXT
 62
7
100
AcDbText
 10
13715.0
 20
14190.0
 30
0.0
 40
75.0
  1
Элемент
  7
GOST
 11
13715.0
 21
14190.0
 31
0.0
100
AcDbText
  0
LWPOLYLINE
  5
1B1
330
17
100
AcDbEntity
  8
TEXT
 62
7
370
15
100
AcDbPolyline
 90
2
 70
0
 10
14475.0
 20
14315.0
 10
14475.0
 20
14100.0
  0
TEXT
  5
1B2
330
17
100
AcDbEntity
  8
TEXT
 62
7
100
AcDbText
 10
14515.0
 20
14190.0
 30
0.0
 40
75.0
  1
Состав работ (planning.json)
  7
GOST
 11
14515.0
 21
14190.0
 31
0.0
100
AcDbText
  0
LWPOLYLINE
  5
1B3
330
17
100
AcDbEntity
  8
TEXT
 62
7
370
15
100
AcDbPolyline
 90
2
 70
0
 10
19325.0
 20
14315.0
 10
19325.0
 20
14100.0
  0
LWPOLYLINE
  5
1B4
330
17
100
AcDbEntity
  8
TEXT
 62
7
370
15
100
AcDbPolyline
 90
4
 70
1
 10
13325.0
 20
13816.25
 10
19325.0
 20
13816.25
 10
19325.0
 20
14100.0
 10
13325.0
 20
14100.0
  0
LWPOLYLINE
  5
1B5
330
17
100
AcDbEntity
  8
TEXT
 62
7
370
15
100
AcDbPolyline
 90
2
 70
0
 10
13325.0
 20
14100.0
 10
13325.0
 20
13816.25
  0
TEXT
  5
1B6
330
17
100
AcDbEntity
  8
TEXT
 62
7
100
AcDbText
 10
13365.0
 20
13975.0
 30
0.0
 40
75.0
  1
1
  7
GOST
 11
13365.0
 21
13975.0
 31
0.0
100
AcDbText
  0
LWPOLYLINE
  5
1B7
330
17
100
AcDbEntity
  8
TEXT
 62
7
370
15
100
AcDbPolyline
 90
2
 70
0
 10
13675.0
 20
14100.0
 10
13675.0
 20
13816.25
  0
TEXT
  5
1B8
330
17
100
AcDbEntity
  8
TEXT
 62
7
100
AcDbText
 10
13715.0
 20
13975.0
 30
0.0
 40
75.0
  1
O4-fill
  7
GOST
 11
13715.0
 21
13975.0
 31
0.0
100
AcDbText
  0
LWPOLYLINE
  5
1B9
330
17
100
AcDbEntity
  8
TEXT
 62
7
370
15
100
AcDbPolyline
 90
2
 70
0
 10
14475.0
 20
14100.0
 10
14475.0
 20
13816.25
  0
TEXT
  5
1BA
330
17
100
AcDbEntity
  8
TEXT
 62
7
100
AcDbText
 10
14515.0
 20
13975.0
 30
0.0
 40
75.0
  1
Демонтаж заполнения балконного проёма O4 (двустворчатый блок, порог) в границах
  7
GOST
 11
14515.0
 21
13975.0
 31
0.0
100
AcDbText
  0
TEXT
  5
1BB
330
17
100
AcDbEntity
  8
TEXT
 62
7
100
AcDbText
 10
14515.0
 20
13866.25
 30
0.0
 40
75.0
  1
проёма 1860; простенки, перемычка — сохраняются, проём не расширяется (D2)
  7
GOST
 11
14515.0
 21
13866.25
 31
0.0
100
AcDbText
  0
LWPOLYLINE
  5
1BC
330
17
100
AcDbEntity
  8
TEXT
 62
7
370
15
100
AcDbPolyline
 90
2
 70
0
 10
19325.0
 20
14100.0
 10
19325.0
 20
13816.25
  0
LWPOLYLINE
  5
1BD
330
17
100
AcDbEntity
  8
TEXT
 62
7
370
15
100
AcDbPolyline
 90
4
 70
1
 10
13325.0
 20
13532.499999999998
 10
19325.0
 20
13532.499999999998
 10
19325.0
 20
13816.25
 10
13325.0
 20
13816.25
  0
LWPOLYLINE
  5
1BE
330
17
100
AcDbEntity
  8
TEXT
 62
7
370
15
100
AcDbPolyline
 90
2
 70
0
 10
13325.0
 20
13816.25
 10
13325.0
 20
13532.499999999998
  0
TEXT
  5
1BF
330
17
100
AcDbEntity
  8
TEXT
 62
7
100
AcDbText
 10
13365.0
 20
13691.25
 30
0.0
 40
75.0
  1
2
  7
GOST
 11
13365.0
 21
13691.25
 31
0.0
100
AcDbText
  0
LWPOLYLINE
  5
1C0
330
17
100
AcDbEntity
  8
TEXT
 62
7
370
15
100
AcDbPolyline
 90
2
 70
0
 10
13675.0
 20
13816.25
 10
13675.0
 20
13532.499999999998
  0
TEXT
  5
1C1
330
17
100
AcDbEntity
  8
TEXT
 62
7
100
AcDbText
 10
13715.0
 20
13691.25
 30
0.0
 40
75.0
  1
W12-cut
  7
GOST
 11
13715.0
 21
13691.25
 31
0.0
100
AcDbText
  0
LWPOLYLINE
  5
1C2
330
17
100
AcDbEntity
  8
TEXT
 62
7
370
15
100
AcDbPolyline
 90
2
 70
0
 10
14475.0
 20
13816.25
 10
14475.0
 20
13532.499999999998
  0
TEXT
  5
1C3
330
17
100
AcDbEntity
  8
TEXT
 62
7
100
AcDbText
 10
14515.0
 20
13691.25
 30
0.0
 40
75.0
  1
W12 (перегородка 80, ненесущая): пробивка участка y 4250..4531 под новую дверь
  7
GOST
 11
14515.0
 21
13691.25
 31
0.0
100
AcDbText
  0
TEXT
  5
1C4
330
17
100
AcDbEntity
  8
TEXT
 62
7
100
AcDbText
 10
14515.0
 20
13582.499999999998
 30
0.0
 40
75.0
  1
ванной D3; разборка вручную, без ударного инструмента по стяжке
  7
GOST
 11
14515.0
 21
13582.499999999998
 31
0.0
100
AcDbText
  0
LWPOLYLINE
  5
1C5
330
17
100
AcDbEntity
  8
TEXT
 62
7
370
15
100
AcDbPolyline
 90
2
 70
0
 10
19325.0
 20
13816.25
 10
19325.0
 20
13532.499999999998
  0
LWPOLYLINE
  5
1C6
330
17
100
AcDbEntity
  8
TEXT
 62
7
370
15
100
AcDbPolyline
 90
4
 70
1
 10
13325.0
 20
13357.499999999998
 10
19325.0
 20
13357.499999999998
 10
19325.0
 20
13532.499999999998
 10
13325.0
 20
13532.499999999998
  0
LWPOLYLINE
  5
1C7
330
17
100
AcDbEntity
  8
TEXT
 62
7
370
15
100
AcDbPolyline
 90
2
 70
0
 10
13325.0
 20
13532.499999999998
 10
13325.0
 20
13357.499999999998
  0
TEXT
  5
1C8
330
17
100
AcDbEntity
  8
TEXT
 62
7
100
AcDbText
 10
13365.0
 20
13407.499999999998
 30
0.0
 40
75.0
  1
3
  7
GOST
 11
13365.0
 21
13407.499999999998
 31
0.0
100
AcDbText
  0
LWPOLYLINE
  5
1C9
330
17
100
AcDbEntity
  8
TEXT
 62
7
370
15
100
AcDbPolyline
 90
2
 70
0
 10
13675.0
 20
13532.499999999998
 10
13675.0
 20
13357.499999999998
  0
TEXT
  5
1CA
330
17
100
AcDbEntity
  8
TEXT
 62
7
100
AcDbText
 10
13715.0
 20
13407.499999999998
 30
0.0
 40
75.0
  1
O7-part
  7
GOST
 11
13715.0
 21
13407.499999999998
 31
0.0
100
AcDbText
  0
LWPOLYLINE
  5
1CB
330
17
100
AcDbEntity
  8
TEXT
 62
7
370
15
100
AcDbPolyline
 90
2
 70
0
 10
14475.0
 20
13532.499999999998
 10
14475.0
 20
13357.499999999998
  0
TEXT
  5
1CC
330
17
100
AcDbEntity
  8
TEXT
 62
7
100
AcDbText
 10
14515.0
 20
13407.499999999998
 30
0.0
 40
75.0
  1
W12: закладка верхней части проёма O7 y 5050..5531 (NW8)
  7
GOST
 11
14515.0
 21
13407.499999999998
 31
0.0
100
AcDbText
  0
LWPOLYLINE
  5
1CD
330
17
100
AcDbEntity
  8
TEXT
 62
7
370
15
100
AcDbPolyline
 90
2
 70
0
 10
19325.0
 20
13532.499999999998
 10
19325.0
 20
13357.499999999998
  0
LWPOLYLINE
  5
1CE
330
17
100
AcDbEntity
  8
TEXT
 62
7
370
15
100
AcDbPolyline
 90
4
 70
1
 10
13325.0
 20
13073.749999999998
 10
19325.0
 20
13073.749999999998
 10
19325.0
 20
13357.499999999998
 10
13325.0
 20
13357.499999999998
  0
LWPOLYLINE
  5
1CF
330
17
100
AcDbEntity
  8
TEXT
 62
7
370
15
100
AcDbPolyline
 90
2
 70
0
 10
13325.0
 20
13357.499999999998
 10
13325.0
 20
13073.749999999998
  0
TEXT
  5
1D0
330
17
100
AcDbEntity
  8
TEXT
 62
7
100
AcDbText
 10
13365.0
 20
13232.499999999998
 30
0.0
 40
75.0
  1
4
  7
GOST
 11
13365.0
 21
13232.499999999998
 31
0.0
100
AcDbText
  0
LWPOLYLINE
  5
1D1
330
17
100
AcDbEntity
  8
TEXT
 62
7
370
15
100
AcDbPolyline
 90
2
 70
0
 10
13675.0
 20
13357.499999999998
 10
13675.0
 20
13073.749999999998
  0
TEXT
  5
1D2
330
17
100
AcDbEntity
  8
TEXT
 62
7
100
AcDbText
 10
13715.0
 20
13232.499999999998
 30
0.0
 40
75.0
  1
W11-cut
  7
GOST
 11
13715.0
 21
13232.499999999998
 31
0.0
100
AcDbText
  0
LWPOLYLINE
  5
1D3
330
17
100
AcDbEntity
  8
TEXT
 62
7
370
15
100
AcDbPolyline
 90
2
 70
0
 10
14475.0
 20
13357.499999999998
 10
14475.0
 20
13073.749999999998
  0
TEXT
  5
1D4
330
17
100
AcDbEntity
  8
TEXT
 62
7
100
AcDbText
 10
14515.0
 20
13232.499999999998
 30
0.0
 40
75.0
  1
W11 (перегородка 80): пробивка участка x 4570..4910 под новую дверь постирочной
  7
GOST
 11
14515.0
 21
13232.499999999998
 31
0.0
100
AcDbText
  0
TEXT
  5
1D5
330
17
100
AcDbEntity
  8
TEXT
 62
7
100
AcDbText
 10
14515.0
 20
13123.749999999998
 30
0.0
 40
75.0
  1
D4
  7
GOST
 11
14515.0
 21
13123.749999999998
 31
0.0
100
AcDbText
  0
LWPOLYLINE
  5
1D6
330
17
100
AcDbEntity
  8
TEXT
 62
7
370
15
100
AcDbPolyline
 90
2
 70
0
 10
19325.0
 20
13357.499999999998
 10
19325.0
 20
13073.749999999998
  0
LWPOLYLINE
  5
1D7
330
17
100
AcDbEntity
  8
TEXT
 62
7
370
15
100
AcDbPolyline
 90
4
 70
1
 10
13325.0
 20
12898.749999999998
 10
19325.0
 20
12898.749999999998
 10
19325.0
 20
13073.749999999998
 10
13325.0
 20
13073.749999999998
  0
LWPOLYLINE
  5
1D8
330
17
100
AcDbEntity
  8
TEXT
 62
7
370
15
100
AcDbPolyline
 90
2
 70
0
 10
13325.0
 20
13073.749999999998
 10
13325.0
 20
12898.749999999998
  0
TEXT
  5
1D9
330
17
100
AcDbEntity
  8
TEXT
 62
7
100
AcDbText
 10
13365.0
 20
12948.749999999998
 30
0.0
 40
75.0
  1
5
  7
GOST
 11
13365.0
 21
12948.749999999998
 31
0.0
100
AcDbText
  0
LWPOLYLINE
  5
1DA
330
17
100
AcDbEntity
  8
TEXT
 62
7
370
15
100
AcDbPolyline
 90
2
 70
0
 10
13675.0
 20
13073.749999999998
 10
13675.0
 20
12898.749999999998
  0
TEXT
  5
1DB
330
17
100
AcDbEntity
  8
TEXT
 62
7
100
AcDbText
 10
13715.0
 20
12948.749999999998
 30
0.0
 40
75.0
  1
O6-part
  7
GOST
 11
13715.0
 21
12948.749999999998
 31
0.0
100
AcDbText
  0
LWPOLYLINE
  5
1DC
330
17
100
AcDbEntity
  8
TEXT
 62
7
370
15
100
AcDbPolyline
 90
2
 70
0
 10
14475.0
 20
13073.749999999998
 10
14475.0
 20
12898.749999999998
  0
TEXT
  5
1DD
330
17
100
AcDbEntity
  8
TEXT
 62
7
100
AcDbText
 10
14515.0
 20
12948.749999999998
 30
0.0
 40
75.0
  1
W11: закладка части проёма O6 x 5370..5910 (NW9) — место пенала постирочной
  7
GOST
 11
14515.0
 21
12948.749999999998
 31
0.0
100
AcDbText
  0
LWPOLYLINE
  5
1DE
330
17
100
AcDbEntity
  8
TEXT
 62
7
370
15
100
AcDbPolyline
 90
2
 70
0
 10
19325.0
 20
13073.749999999998
 10
19325.0
 20
12898.749999999998
  0
LWPOLYLINE
  5
1DF
330
17
100
AcDbEntity
  8
TEXT
 62
7
370
15
100
AcDbPolyline
 90
4
 70
1
 10
13325.0
 20
12397.499999999998
 10
19325.0
 20
12397.499999999998
 10
19325.0
 20
12898.749999999998
 10
13325.0
 20
12898.749999999998
  0
LWPOLYLINE
  5
1E0
330
17
100
AcDbEntity
  8
TEXT
 62
7
370
15
100
AcDbPolyline
 90
2
 70
0
 10
13325.0
 20
12898.749999999998
 10
13325.0
 20
12397.499999999998
  0
TEXT
  5
1E1
330
17
100
AcDbEntity
  8
TEXT
 62
7
100
AcDbText
 10
13365.0
 20
12773.749999999998
 30
0.0
 40
75.0
  1
6
  7
GOST
 11
13365.0
 21
12773.749999999998
 31
0.0
100
AcDbText
  0
LWPOLYLINE
  5
1E2
330
17
100
AcDbEntity
  8
TEXT
 62
7
370
15
100
AcDbPolyline
 90
2
 70
0
 10
13675.0
 20
12898.749999999998
 10
13675.0
 20
12397.499999999998
  0
TEXT
  5
1E3
330
17
100
AcDbEntity
  8
TEXT
 62
7
100
AcDbText
 10
13715.0
 20
12773.749999999998
 30
0.0
 40
75.0
  1
F1
  7
GOST
 11
13715.0
 21
12773.749999999998
 31
0.0
100
AcDbText
  0
LWPOLYLINE
  5
1E4
330
17
100
AcDbEntity
  8
TEXT
 62
7
370
15
100
AcDbPolyline
 90
2
 70
0
 10
14475.0
 20
12898.749999999998
 10
14475.0
 20
12397.499999999998
  0
TEXT
  5
1E5
330
17
100
AcDbEntity
  8
TEXT
 62
7
100
AcDbText
 10
14515.0
 20
12773.749999999998
 30
0.0
 40
75.0
  1
Унитаз постирочной F1 (если установлен) — демонтаж; выпуск Ø110 используется
  7
GOST
 11
14515.0
 21
12773.749999999998
 31
0.0
100
AcDbText
  0
TEXT
  5
1E6
330
17
100
AcDbEntity
  8
TEXT
 62
7
100
AcDbText
 10
14515.0
 20
12664.999999999998
 30
0.0
 40
75.0
  1
через переход 110/50 для отвода СМА+хозмойки или заглушается с доступом
  7
GOST
 11
14515.0
 21
12664.999999999998
 31
0.0
100
AcDbText
  0
TEXT
  5
1E7
330
17
100
AcDbEntity
  8
TEXT
 62
7
100
AcDbText
 10
14515.0
 20
12556.249999999996
 30
0.0
 40
75.0
  1
(ревизия у U5); подводка ХВС к WC — заглушка у тройника с шаровым краном в зоне
  7
GOST
 11
14515.0
 21
12556.249999999996
 31
0.0
100
AcDbText
  0
TEXT
  5
1E8
330
17
100
AcDbEntity
  8
TEXT
 62
7
100
AcDbText
 10
14515.0
 20
12447.499999999996
 30
0.0
 40
75.0
  1
люка
  7
GOST
 11
14515.0
 21
12447.499999999996
 31
0.0
100
AcDbText
  0
LWPOLYLINE
  5
1E9
330
17
100
AcDbEntity
  8
TEXT
 62
7
370
15
100
AcDbPolyline
 90
2
 70
0
 10
19325.0
 20
12898.749999999998
 10
19325.0
 20
12397.499999999998
  0
LWPOLYLINE
  5
1EA
330
17
100
AcDbEntity
  8
TEXT
 62
7
370
15
100
AcDbPolyline
 90
4
 70
1
 10
13325.0
 20
12113.749999999998
 10
19325.0
 20
12113.749999999998
 10
19325.0
 20
12397.499999999998
 10
13325.0
 20
12397.499999999998
  0
LWPOLYLINE
  5
1EB
330
17
100
AcDbEntity
  8
TEXT
 62
7
370
15
100
AcDbPolyline
 90
2
 70
0
 10
13325.0
 20
12397.499999999998
 10
13325.0
 20
12113.749999999998
  0
TEXT
  5
1EC
330
17
100
AcDbEntity
  8
TEXT
 62
7
100
AcDbText
 10
13365.0
 20
12272.499999999998
 30
0.0
 40
75.0
  1
7
  7
GOST
 11
13365.0
 21
12272.499999999998
 31
0.0
100
AcDbText
  0
LWPOLYLINE
  5
1ED
330
17
100
AcDbEntity
  8
TEXT
 62
7
370
15
100
AcDbPolyline
 90
2
 70
0
 10
13675.0
 20
12397.499999999998
 10
13675.0
 20
12113.749999999998
  0
TEXT
  5
1EE
330
17
100
AcDbEntity
  8
TEXT
 62
7
100
AcDbText
 10
13715.0
 20
12272.499999999998
 30
0.0
 40
75.0
  1
F-all
  7
GOST
 11
13715.0
 21
12272.499999999998
 31
0.0
100
AcDbText
  0
LWPOLYLINE
  5
1EF
330
17
100
AcDbEntity
  8
TEXT
 62
7
370
15
100
AcDbPolyline
 90
2
 70
0
 10
14475.0
 20
12397.499999999998
 10
14475.0
 20
12113.749999999998
  0
TEXT
  5
1F0
330
17
100
AcDbEntity
  8
TEXT
 62
7
100
AcDbText
 10
14515.0
 20
12272.499999999998
 30
0.0
 40
75.0
  1
Прочие сантехприборы и кухня застройщика (F2–F8), если установлены — демонтаж с
  7
GOST
 11
14515.0
 21
12272.499999999998
 31
0.0
100
AcDbText
  0
TEXT
  5
1F1
330
17
100
AcDbEntity
  8
TEXT
 62
7
100
AcDbText
 10
14515.0
 20
12163.749999999998
 30
0.0
 40
75.0
  1
повторной установкой по проекту
  7
GOST
 11
14515.0
 21
12163.749999999998
 31
0.0
100
AcDbText
  0
LWPOLYLINE
  5
1F2
330
17
100
AcDbEntity
  8
TEXT
 62
7
370
15
100
AcDbPolyline
 90
2
 70
0
 10
19325.0
 20
12397.499999999998
 10
19325.0
 20
12113.749999999998
  0
LWPOLYLINE
  5
1F3
330
17
100
AcDbEntity
  8
TEXT
 62
7
370
15
100
AcDbPolyline
 90
4
 70
1
 10
13325.0
 20
11829.999999999996
 10
19325.0
 20
11829.999999999996
 10
19325.0
 20
12113.749999999998
 10
13325.0
 20
12113.749999999998
  0
LWPOLYLINE
  5
1F4
330
17
100
AcDbEntity
  8
TEXT
 62
7
370
15
100
AcDbPolyline
 90
2
 70
0
 10
13325.0
 20
12113.749999999998
 10
13325.0
 20
11829.999999999996
  0
TEXT
  5
1F5
330
17
100
AcDbEntity
  8
TEXT
 62
7
100
AcDbText
 10
13365.0
 20
11988.749999999998
 30
0.0
 40
75.0
  1
8
  7
GOST
 11
13365.0
 21
11988.749999999998
 31
0.0
100
AcDbText
  0
LWPOLYLINE
  5
1F6
330
17
100
AcDbEntity
  8
TEXT
 62
7
370
15
100
AcDbPolyline
 90
2
 70
0
 10
13675.0
 20
12113.749999999998
 10
13675.0
 20
11829.999999999996
  0
TEXT
  5
1F7
330
17
100
AcDbEntity
  8
TEXT
 62
7
100
AcDbText
 10
13715.0
 20
11988.749999999998
 30
0.0
 40
75.0
  1
O1-infill
  7
GOST
 11
13715.0
 21
11988.749999999998
 31
0.0
100
AcDbText
  0
LWPOLYLINE
  5
1F8
330
17
100
AcDbEntity
  8
TEXT
 62
7
370
15
100
AcDbPolyline
 90
2
 70
0
 10
14475.0
 20
12113.749999999998
 10
14475.0
 20
11829.999999999996
  0
TEXT
  5
1F9
330
17
100
AcDbEntity
  8
TEXT
 62
7
100
AcDbText
 10
14515.0
 20
11988.749999999998
 30
0.0
 40
75.0
  1
Окно O1: демонтаж только подоконной доски и внутренних откосов (если есть);
  7
GOST
 11
14515.0
 21
11988.749999999998
 31
0.0
100
AcDbText
  0
TEXT
  5
1FA
330
17
100
AcDbEntity
  8
TEXT
 62
7
100
AcDbText
 10
14515.0
 20
11879.999999999996
 30
0.0
 40
75.0
  1
оконный блок и наружный слой стены НЕ трогаются
  7
GOST
 11
14515.0
 21
11879.999999999996
 31
0.0
100
AcDbText
  0
LWPOLYLINE
  5
1FB
330
17
100
AcDbEntity
  8
TEXT
 62
7
370
15
100
AcDbPolyline
 90
2
 70
0
 10
19325.0
 20
12113.749999999998
 10
19325.0
 20
11829.999999999996
  0
LWPOLYLINE
  5
1FC
330
17
100
AcDbEntity
  8
TEXT
 62
7
370
15
100
AcDbPolyline
 90
4
 70
1
 10
13325.0
 20
11219.999999999998
 10
19325.0
 20
11219.999999999998
 10
19325.0
 20
11829.999999999996
 10
13325.0
 20
11829.999999999996
  0
LWPOLYLINE
  5
1FD
330
17
100
AcDbEntity
  8
TEXT
 62
7
370
15
100
AcDbPolyline
 90
2
 70
0
 10
13325.0
 20
11829.999999999996
 10
13325.0
 20
11219.999999999998
  0
TEXT
  5
1FE
330
17
100
AcDbEntity
  8
TEXT
 62
7
100
AcDbText
 10
13365.0
 20
11704.999999999996
 30
0.0
 40
75.0
  1
9
  7
GOST
 11
13365.0
 21
11704.999999999996
 31
0.0
100
AcDbText
  0
LWPOLYLINE
  5
1FF
330
17
100
AcDbEntity
  8
TEXT
 62
7
370
15
100
AcDbPolyline
 90
2
 70
0
 10
13675.0
 20
11829.999999999996
 10
13675.0
 20
11219.999999999998
  0
TEXT
  5
200
330
17
100
AcDbEntity
  8
TEXT
 62
7
100
AcDbText
 10
13715.0
 20
11704.999999999996
 30
0.0
 40
75.0
  1
keep
  7
GOST
 11
13715.0
 21
11704.999999999996
 31
0.0
100
AcDbText
  0
LWPOLYLINE
  5
201
330
17
100
AcDbEntity
  8
TEXT
 62
7
370
15
100
AcDbPolyline
 90
2
 70
0
 10
14475.0
 20
11829.999999999996
 10
14475.0
 20
11219.999999999998
  0
TEXT
  5
202
330
17
100
AcDbEntity
  8
TEXT
 62
7
100
AcDbText
 10
14515.0
 20
11704.999999999996
 30
0.0
 40
75.0
  1
НЕ демонтируются: наружные стены W1, W2 (в т.ч. простенки 590/1130 и перемычка
  7
GOST
 11
14515.0
 21
11704.999999999996
 31
0.0
100
AcDbText
  0
TEXT
  5
203
330
17
100
AcDbEntity
  8
TEXT
 62
7
100
AcDbText
 10
14515.0
 20
11596.249999999996
 30
0.0
 40
75.0
  1
O4, оконные блоки O1/O2 — зашиваемое окно остаётся на месте),
  7
GOST
 11
14515.0
 21
11596.249999999996
 31
0.0
100
AcDbText
  0
TEXT
  5
204
330
17
100
AcDbEntity
  8
TEXT
 62
7
100
AcDbText
 10
14515.0
 20
11487.499999999996
 30
0.0
 40
75.0
  1
межквартирные/МОП W3–W6, W7, W8, колонна C1, W12 (кроме участка под дверь),
  7
GOST
 11
14515.0
 21
11487.499999999996
 31
0.0
100
AcDbText
  0
TEXT
  5
205
330
17
100
AcDbEntity
  8
TEXT
 62
7
100
AcDbText
 10
14515.0
 20
11378.749999999995
 30
0.0
 40
75.0
  1
W13–W16, короба стояков U5/U10, вентканал U12 (сечение не уменьшать),
  7
GOST
 11
14515.0
 21
11378.749999999995
 31
0.0
100
AcDbText
  0
TEXT
  5
206
330
17
100
AcDbEntity
  8
TEXT
 62
7
100
AcDbText
 10
14515.0
 20
11269.999999999995
 30
0.0
 40
75.0
  1
коллекторы ТП U11/U14.
  7
GOST
 11
14515.0
 21
11269.999999999995
 31
0.0
100
AcDbText
  0
LWPOLYLINE
  5
207
330
17
100
AcDbEntity
  8
TEXT
 62
7
370
15
100
AcDbPolyline
 90
2
 70
0
 10
19325.0
 20
11829.999999999996
 10
19325.0
 20
11219.999999999998
  0
LWPOLYLINE
  5
208
330
17
100
AcDbEntity
  8
TEXT
 62
7
370
35
100
AcDbPolyline
 90
4
 70
1
 10
13325.0
 20
11219.999999999998
 10
19325.0
 20
11219.999999999998
 10
19325.0
 20
14315.0
 10
13325.0
 20
14315.0
  0
TEXT
  5
209
330
17
100
AcDbEntity
  8
TEXT
 62
7
100
AcDbText
 10
13325.0
 20
10894.999999999998
 30
0.0
 40
125.0
  1
Условные обозначения
  7
GOST
 11
13325.0
 21
10894.999999999998
 31
0.0
100
AcDbText
  0
HATCH
  5
20A
330
17
100
AcDbEntity
  8
TEXT
 62
7
420
2500134
100
AcDbHatch
 10
0.0
 20
0.0
 30
0.0
210
0.0
220
0.0
230
1.0
  2
SOLID
 70
1
 71
0
 91
1
 92
3
 72
0
 73
1
 93
4
 10
13375.0
 20
10610.0
 10
13875.0
 20
10610.0
 10
13875.0
 20
10769.999999999998
 10
13375.0
 20
10769.999999999998
 97
0
 75
1
 76
1
 98
0
  0
LWPOLYLINE
  5
20B
330
17
100
AcDbEntity
  8
TEXT
 62
7
370
30
100
AcDbPolyline
 90
4
 70
1
 10
13375.0
 20
10610.0
 10
13875.0
 20
10610.0
 10
13875.0
 20
10769.999999999998
 10
13375.0
 20
10769.999999999998
  0
TEXT
  5
20C
330
17
100
AcDbEntity
  8
TEXT
 62
7
100
AcDbText
 10
14000.0
 20
10649.999999999998
 30
0.0
 40
80.0
  1
Сохраняемые несущие/наружные стены
  7
GOST
 11
14000.0
 21
10649.999999999998
 31
0.0
100
AcDbText
  0
HATCH
  5
20D
330
17
100
AcDbEntity
  8
TEXT
 62
7
420
7237230
100
AcDbHatch
 10
0.0
 20
0.0
 30
0.0
210
0.0
220
0.0
230
1.0
  2
SOLID
 70
1
 71
0
 91
1
 92
3
 72
0
 73
1
 93
4
 10
13375.0
 20
10400.0
 10
13875.0
 20
10400.0
 10
13875.0
 20
10560.0
 10
13375.0
 20
10560.0
 97
0
 75
1
 76
1
 98
0
  0
LWPOLYLINE
  5
20E
330
17
100
AcDbEntity
  8
TEXT
 62
7
370
30
100
AcDbPolyline
 90
4
 70
1
 10
13375.0
 20
10400.0
 10
13875.0
 20
10400.0
 10
13875.0
 20
10560.0
 10
13375.0
 20
10560.0
  0
TEXT
  5
20F
330
17
100
AcDbEntity
  8
TEXT
 62
7
100
AcDbText
 10
14000.0
 20
10440.0
 30
0.0
 40
80.0
  1
Сохраняемые перегородки
  7
GOST
 11
14000.0
 21
10440.0
 31
0.0
100
AcDbText
  0
HATCH
  5
210
330
17
100
AcDbEntity
  8
TEXT
 62
7
420
12597547
100
AcDbHatch
 10
0.0
 20
0.0
 30
0.0
210
0.0
220
0.0
230
1.0
  2
ANSI37
 70
0
 71
0
 91
1
 92
3
 72
0
 73
1
 93
4
 10
13375.0
 20
10190.0
 10
13875.0
 20
10190.0
 10
13875.0
 20
10350.0
 10
13375.0
 20
10350.0
 97
0
 75
1
 76
1
 52
0.0
 41
6.875000000000001
 77
0
 78
2
 53
45.0
 43
0.0
 44
0.0
 45
-15.4348152083
 46
15.4348152083
 79
0
 53
135.0
 43
0.0
 44
0.0
 45
-15.4348152083
 46
-15.4348152083
 79
0
 98
0
  0
LWPOLYLINE
  5
211
330
17
100
AcDbEntity
  8
TEXT
  6
DASHED
370
30
 48
150.0
420
12597547
100
AcDbPolyline
 90
4
 70
1
 10
13375.0
 20
10190.0
 10
13875.0
 20
10190.0
 10
13875.0
 20
10350.0
 10
13375.0
 20
10350.0
  0
TEXT
  5
212
330
17
100
AcDbEntity
  8
TEXT
 62
7
100
AcDbText
 10
14000.0
 20
10230.0
 30
0.0
 40
80.0
  1
Демонтируемые участки стен / заполнения проёмов
  7
GOST
 11
14000.0
 21
10230.0
 31
0.0
100
AcDbText
  0
LWPOLYLINE
  5
213
330
17
100
AcDbEntity
  8
TEXT
  6
DASHED
370
30
 48
150.0
420
12597547
100
AcDbPolyline
 90
2
 70
0
 10
13375.0
 20
10060.0
 10
13875.0
 20
10060.0
  0
TEXT
  5
214
330
17
100
AcDbEntity
  8
TEXT
 62
7
100
AcDbText
 10
14000.0
 20
10020.0
 30
0.0
 40
80.0
  1
Демонтируемые приборы и блоки (если установлены)
  7
GOST
 11
14000.0
 21
10020.0
 31
0.0
100
AcDbText
  0
LWPOLYLINE
  5
215
330
17
100
AcDbEntity
  8
TEXT
  6
DASHED
370
30
 48
150.0
420
7829367
100
AcDbPolyline
 90
2
 70
0
 10
13375.0
 20
9850.000000000002
 10
13875.0
 20
9850.000000000002
  0
TEXT
  5
216
330
17
100
AcDbEntity
  8
TEXT
 62
7
100
AcDbText
 10
14000.0
 20
9810.0
 30
0.0
 40
80.0
  1
Существующие дверные блоки O6/O7 (проёмы изменяются, см. АР-06)
  7
GOST
 11
14000.0
 21
9810.0
 31
0.0
100
AcDbText
  0
LWPOLYLINE
  5
217
330
17
100
AcDbEntity
  8
FRAME
 62
7
370
50
100
AcDbPolyline
 90
4
 70
1
 10
1000.0
 20
250.0
 10
20750.0
 20
250.0
 10
20750.0
 20
14600.0
 10
1000.0
 20
14600.0
  0
TEXT
  5
218
330
17
100
AcDbEntity
  8
FRAME
 62
7
100
AcDbText
 10
20750.0
 20
80.0
 30
0.0
 40
100.0
  1
Формат A3
  7
GOST
 72
2
 11
20750.0
 21
80.0
 31
0.0
100
AcDbText
  0
HATCH
  5
219
330
17
100
AcDbEntity
  8
FRAME
 62
7
420
16777215
100
AcDbHatch
 10
0.0
 20
0.0
 30
0.0
210
0.0
220
0.0
230
1.0
  2
SOLID
 70
1
 71
0
 91
1
 92
3
 72
0
 73
1
 93
4
 10
11500.0
 20
250.0
 10
20750.0
 20
250.0
 10
20750.0
 20
3000.0
 10
11500.0
 20
3000.0
 97
0
 75
1
 76
1
 98
0
  0
LWPOLYLINE
  5
21A
330
17
100
AcDbEntity
  8
FRAME
 62
7
370
50
100
AcDbPolyline
 90
4
 70
1
 10
11500.0
 20
250.0
 10
20750.0
 20
250.0
 10
20750.0
 20
3000.0
 10
11500.0
 20
3000.0
  0
LWPOLYLINE
  5
21B
330
17
100
AcDbEntity
  8
FRAME
 62
7
370
50
100
AcDbPolyline
 90
2
 70
0
 10
14750.0
 20
2250.0
 10
20750.0
 20
2250.0
  0
LWPOLYLINE
  5
21C
330
17
100
AcDbEntity
  8
FRAME
 62
7
370
50
100
AcDbPolyline
 90
2
 70
0
 10
14750.0
 20
1750.0
 10
20750.0
 20
1750.0
  0
LWPOLYLINE
  5
21D
330
17
100
AcDbEntity
  8
FRAME
 62
7
370
50
100
AcDbPolyline
 90
2
 70
0
 10
14750.0
 20
1000.0
 10
20750.0
 20
1000.0
  0
LWPOLYLINE
  5
21E
330
17
100
AcDbEntity
  8
FRAME
 62
7
370
50
100
AcDbPolyline
 90
2
 70
0
 10
14750.0
 20
250.0
 10
14750.0
 20
3000.0
  0
LWPOLYLINE
  5
21F
330
17
100
AcDbEntity
  8
FRAME
 62
7
370
50
100
AcDbPolyline
 90
2
 70
0
 10
18250.0
 20
250.0
 10
18250.0
 20
1750.0
  0
LWPOLYLINE
  5
220
330
17
100
AcDbEntity
  8
FRAME
 62
7
370
20
100
AcDbPolyline
 90
2
 70
0
 10
18250.0
 20
1500.0
 10
20750.0
 20
1500.0
  0
LWPOLYLINE
  5
221
330
17
100
AcDbEntity
  8
FRAME
 62
7
370
20
100
AcDbPolyline
 90
2
 70
0
 10
19000.0
 20
1000.0
 10
19000.0
 20
1750.0
  0
LWPOLYLINE
  5
222
330
17
100
AcDbEntity
  8
FRAME
 62
7
370
20
100
AcDbPolyline
 90
2
 70
0
 10
19750.0
 20
1000.0
 10
19750.0
 20
1750.0
  0
TEXT
  5
223
330
17
100
AcDbEntity
  8
FRAME
 62
7
100
AcDbText
 10
18625.0
 20
1560.0
 30
0.0
 40
100.0
  1
Стадия
  7
GOST
 72
1
 11
18625.0
 21
1560.0
 31
0.0
100
AcDbText
  0
TEXT
  5
224
330
17
100
AcDbEntity
  8
FRAME
 62
7
100
AcDbText
 10
19375.0
 20
1560.0
 30
0.0
 40
100.0
  1
Лист
  7
GOST
 72
1
 11
19375.0
 21
1560.0
 31
0.0
100
AcDbText
  0
TEXT
  5
225
330
17
100
AcDbEntity
  8
FRAME
 62
7
100
AcDbText
 10
20250.0
 20
1560.0
 30
0.0
 40
100.0
  1
Листов
  7
GOST
 72
1
 11
20250.0
 21
1560.0
 31
0.0
100
AcDbText
  0
TEXT
  5
226
330
17
100
AcDbEntity
  8
FRAME
 62
7
100
AcDbText
 10
18625.0
 20
1170.0
 30
0.0
 40
175.0
  1
Р
  7
GOST
 72
1
 11
18625.0
 21
1170.0
 31
0.0
100
AcDbText
  0
TEXT
  5
227
330
17
100
AcDbEntity
  8
FRAME
 62
7
100
AcDbText
 10
19375.0
 20
1170.0
 30
0.0
 40
175.0
  1
9
  7
GOST
 72
1
 11
19375.0
 21
1170.0
 31
0.0
100
AcDbText
  0
TEXT
  5
228
330
17
100
AcDbEntity
  8
FRAME
 62
7
100
AcDbText
 10
20250.0
 20
1170.0
 30
0.0
 40
175.0
  1
51
  7
GOST
 72
1
 11
20250.0
 21
1170.0
 31
0.0
100
AcDbText
  0
LWPOLYLINE
  5
229
330
17
100
AcDbEntity
  8
FRAME
 62
7
370
20
100
AcDbPolyline
 90
2
 70
0
 10
11500.0
 20
500.0
 10
14750.0
 20
500.0
  0
LWPOLYLINE
  5
22A
330
17
100
AcDbEntity
  8
FRAME
 62
7
370
20
100
AcDbPolyline
 90
2
 70
0
 10
11500.0
 20
750.0
 10
14750.0
 20
750.0
  0
LWPOLYLINE
  5
22B
330
17
100
AcDbEntity
  8
FRAME
 62
7
370
20
100
AcDbPolyline
 90
2
 70
0
 10
11500.0
 20
1000.0
 10
14750.0
 20
1000.0
  0
LWPOLYLINE
  5
22C
330
17
100
AcDbEntity
  8
FRAME
 62
7
370
20
100
AcDbPolyline
 90
2
 70
0
 10
11500.0
 20
1250.0
 10
14750.0
 20
1250.0
  0
LWPOLYLINE
  5
22D
330
17
100
AcDbEntity
  8
FRAME
 62
7
370
50
100
AcDbPolyline
 90
2
 70
0
 10
11500.0
 20
1500.0
 10
14750.0
 20
1500.0
  0
LWPOLYLINE
  5
22E
330
17
100
AcDbEntity
  8
FRAME
 62
7
370
50
100
AcDbPolyline
 90
2
 70
0
 10
11500.0
 20
1750.0
 10
14750.0
 20
1750.0
  0
LWPOLYLINE
  5
22F
330
17
100
AcDbEntity
  8
FRAME
 62
7
370
20
100
AcDbPolyline
 90
2
 70
0
 10
11500.0
 20
2000.0
 10
14750.0
 20
2000.0
  0
LWPOLYLINE
  5
230
330
17
100
AcDbEntity
  8
FRAME
 62
7
370
20
100
AcDbPolyline
 90
2
 70
0
 10
11500.0
 20
2250.0
 10
14750.0
 20
2250.0
  0
LWPOLYLINE
  5
231
330
17
100
AcDbEntity
  8
FRAME
 62
7
370
20
100
AcDbPolyline
 90
2
 70
0
 10
11500.0
 20
2500.0
 10
14750.0
 20
2500.0
  0
LWPOLYLINE
  5
232
330
17
100
AcDbEntity
  8
FRAME
 62
7
370
20
100
AcDbPolyline
 90
2
 70
0
 10
11500.0
 20
2750.0
 10
14750.0
 20
2750.0
  0
LWPOLYLINE
  5
233
330
17
100
AcDbEntity
  8
FRAME
 62
7
370
50
100
AcDbPolyline
 90
2
 70
0
 10
12000.0
 20
1500.0
 10
12000.0
 20
3000.0
  0
LWPOLYLINE
  5
234
330
17
100
AcDbEntity
  8
FRAME
 62
7
370
50
100
AcDbPolyline
 90
2
 70
0
 10
12500.0
 20
250.0
 10
12500.0
 20
3000.0
  0
LWPOLYLINE
  5
235
330
17
100
AcDbEntity
  8
FRAME
 62
7
370
50
100
AcDbPolyline
 90
2
 70
0
 10
13000.0
 20
1500.0
 10
13000.0
 20
3000.0
  0
LWPOLYLINE
  5
236
330
17
100
AcDbEntity
  8
FRAME
 62
7
370
50
100
AcDbPolyline
 90
2
 70
0
 10
13500.0
 20
250.0
 10
13500.0
 20
3000.0
  0
LWPOLYLINE
  5
237
330
17
100
AcDbEntity
  8
FRAME
 62
7
370
50
100
AcDbPolyline
 90
2
 70
0
 10
14250.0
 20
250.0
 10
14250.0
 20
3000.0
  0
TEXT
  5
238
330
17
100
AcDbEntity
  8
FRAME
 62
7
100
AcDbText
 10
11750.0
 20
1565.0
 30
0.0
 40
90.0
  1
Изм.
  7
GOST
 72
1
 11
11750.0
 21
1565.0
 31
0.0
100
AcDbText
  0
TEXT
  5
239
330
17
100
AcDbEntity
  8
FRAME
 62
7
100
AcDbText
 10
12250.0
 20
1565.0
 30
0.0
 40
90.0
  1
Кол.уч
  7
GOST
 72
1
 11
12250.0
 21
1565.0
 31
0.0
100
AcDbText
  0
TEXT
  5
23A
330
17
100
AcDbEntity
  8
FRAME
 62
7
100
AcDbText
 10
12750.0
 20
1565.0
 30
0.0
 40
90.0
  1
Лист
  7
GOST
 72
1
 11
12750.0
 21
1565.0
 31
0.0
100
AcDbText
  0
TEXT
  5
23B
330
17
100
AcDbEntity
  8
FRAME
 62
7
100
AcDbText
 10
13250.0
 20
1565.0
 30
0.0
 40
90.0
  1
№док.
  7
GOST
 72
1
 11
13250.0
 21
1565.0
 31
0.0
100
AcDbText
  0
TEXT
  5
23C
330
17
100
AcDbEntity
  8
FRAME
 62
7
100
AcDbText
 10
13875.0
 20
1565.0
 30
0.0
 40
90.0
  1
Подп.
  7
GOST
 72
1
 11
13875.0
 21
1565.0
 31
0.0
100
AcDbText
  0
TEXT
  5
23D
330
17
100
AcDbEntity
  8
FRAME
 62
7
100
AcDbText
 10
14500.0
 20
1565.0
 30
0.0
 40
90.0
  1
Дата
  7
GOST
 72
1
 11
14500.0
 21
1565.0
 31
0.0
100
AcDbText
  0
TEXT
  5
23E
330
17
100
AcDbEntity
  8
FRAME
 62
7
100
AcDbText
 10
11550.0
 20
1315.0
 30
0.0
 40
100.0
  1
Разраб.
  7
GOST
 11
11550.0
 21
1315.0
 31
0.0
100
AcDbText
  0
TEXT
  5
23F
330
17
100
AcDbEntity
  8
FRAME
 62
7
100
AcDbText
 10
11550.0
 20
1065.0
 30
0.0
 40
100.0
  1
Пров.
  7
GOST
 11
11550.0
 21
1065.0
 31
0.0
100
AcDbText
  0
TEXT
  5
240
330
17
100
AcDbEntity
  8
FRAME
 62
7
100
AcDbText
 10
11550.0
 20
815.0
 30
0.0
 40
100.0
  1
ГИП
  7
GOST
 11
11550.0
 21
815.0
 31
0.0
100
AcDbText
  0
TEXT
  5
241
330
17
100
AcDbEntity
  8
FRAME
 62
7
100
AcDbText
 10
11550.0
 20
565.0
 30
0.0
 40
100.0
  1
Н.контр.
  7
GOST
 11
11550.0
 21
565.0
 31
0.0
100
AcDbText
  0
TEXT
  5
242
330
17
100
AcDbEntity
  8
FRAME
 62
7
100
AcDbText
 10
11550.0
 20
315.0
 30
0.0
 40
100.0
  1
Утв.
  7
GOST
 11
11550.0
 21
315.0
 31
0.0
100
AcDbText
  0
TEXT
  5
243
330
17
100
AcDbEntity
  8
FRAME
 62
7
100
AcDbText
 10
12540.0
 20
1315.0
 30
0.0
 40
100.0
  1
pib-агенты
  7
GOST
 11
12540.0
 21
1315.0
 31
0.0
100
AcDbText
  0
TEXT
  5
244
330
17
100
AcDbEntity
  8
FRAME
 62
7
100
AcDbText
 10
14500.0
 20
1315.0
 30
0.0
 40
90.0
  1
10.2026
  7
GOST
 72
1
 11
14500.0
 21
1315.0
 31
0.0
100
AcDbText
  0
TEXT
  5
245
330
17
100
AcDbEntity
  8
FRAME
 62
7
100
AcDbText
 10
17750.0
 20
2500.0
 30
0.0
 40
250.0
  1
КВ108-ДП-АР-05
  7
GOST
 72
1
 11
17750.0
 21
2500.0
 31
0.0
100
AcDbText
  0
TEXT
  5
246
330
17
100
AcDbEntity
  8
FRAME
 62
7
100
AcDbText
 10
17750.0
 20
1912.5
 30
0.0
 40
175.0
  1
Квартира №108, СПб, дизайн-проект
  7
GOST
 72
1
 11
17750.0
 21
1912.5
 31
0.0
100
AcDbText
  0
TEXT
  5
247
330
17
100
AcDbEntity
  8
FRAME
 62
7
100
AcDbText
 10
16500.0
 20
1300.0
 30
0.0
 40
150.0
  1
Архитектурные решения
  7
GOST
 72
1
 11
16500.0
 21
1300.0
 31
0.0
100
AcDbText
  0
TEXT
  5
248
330
17
100
AcDbEntity
  8
FRAME
 62
7
100
AcDbText
 10
16500.0
 20
653.125
 30
0.0
 40
125.0
  1
План демонтажа
  7
GOST
 72
1
 11
16500.0
 21
653.125
 31
0.0
100
AcDbText
  0
TEXT
  5
249
330
17
100
AcDbEntity
  8
FRAME
 62
7
100
AcDbText
 10
16500.0
 20
471.875
 30
0.0
 40
125.0
  1
Масштаб 1:50
  7
GOST
 72
1
 11
16500.0
 21
471.875
 31
0.0
100
AcDbText
  0
TEXT
  5
24A
330
17
100
AcDbEntity
  8
FRAME
 62
7
100
AcDbText
 10
19500.0
 20
658.75
 30
0.0
 40
150.0
  1
ПИБ
  7
GOST
 72
1
 11
19500.0
 21
658.75
 31
0.0
100
AcDbText
  0
TEXT
  5
24B
330
17
100
AcDbEntity
  8
FRAME
 62
7
100
AcDbText
 10
19500.0
 20
441.25000000000006
 30
0.0
 40
150.0
  1
агенты pib-*
  7
GOST
 72
1
 11
19500.0
 21
441.25000000000006
 31
0.0
100
AcDbText
  0
ENDSEC
  0
SECTION
  2
OBJECTS
  0
DICTIONARY
  5
A
330
0
100
AcDbDictionary
281
1
  3
ACAD_COLOR
350
B
  3
ACAD_GROUP
350
C
  3
ACAD_LAYOUT
350
D
  3
ACAD_MATERIAL
350
E
  3
ACAD_MLEADERSTYLE
350
F
  3
ACAD_MLINESTYLE
350
10
  3
ACAD_PLOTSETTINGS
350
11
  3
ACAD_PLOTSTYLENAME
350
12
  3
ACAD_SCALELIST
350
14
  3
ACAD_TABLESTYLE
350
15
  3
ACAD_VISUALSTYLE
350
16
  3
EZDXF_META
350
2D
  0
DICTIONARY
  5
B
330
A
100
AcDbDictionary
281
1
  0
DICTIONARY
  5
C
330
A
100
AcDbDictionary
281
1
  0
DICTIONARY
  5
D
330
A
100
AcDbDictionary
281
1
  3
Model
350
1A
  3
Layout1
350
1E
  0
DICTIONARY
  5
E
330
A
100
AcDbDictionary
281
1
  3
ByBlock
350
1F
  3
ByLayer
350
20
  3
Global
350
21
  0
DICTIONARY
  5
F
330
A
100
AcDbDictionary
281
1
  3
Standard
350
2C
  0
DICTIONARY
  5
10
330
A
100
AcDbDictionary
281
1
  3
Standard
350
22
  0
DICTIONARY
  5
11
330
A
100
AcDbDictionary
281
1
  0
ACDBDICTIONARYWDFLT
  5
12
330
A
100
AcDbDictionary
281
1
  3
Normal
350
13
100
AcDbDictionaryWithDefault
340
13
  0
ACDBPLACEHOLDER
  5
13
330
12
  0
DICTIONARY
  5
14
330
A
100
AcDbDictionary
281
1
  0
DICTIONARY
  5
15
330
A
100
AcDbDictionary
281
1
  0
DICTIONARY
  5
16
330
A
100
AcDbDictionary
281
1
  3
2dWireframe
350
5A
  3
Basic
350
5B
  3
Brighten
350
5C
  3
ColorChange
350
5D
  3
Conceptual
350
5E
  3
Dim
350
5F
  3
EdgeColorOff
350
60
  3
Facepattern
350
61
  3
Flat
350
62
  3
FlatWithEdges
350
63
  3
Gouraud
350
64
  3
GouraudWithEdges
350
65
  3
Hidden
350
66
  3
JitterOff
350
67
  3
Linepattern
350
68
  3
Modeling
350
69
  3
OverhangOff
350
6A
  3
Realistic
350
6B
  3
Shaded
350
6C
  3
Shaded with edges
350
6D
  3
Shades of Gray
350
6E
  3
Sketchy
350
6F
  3
Thicken
350
70
  3
Wireframe
350
71
  3
X-Ray
350
72
  0
LAYOUT
  5
1A
330
D
100
AcDbPlotSettings
  1

  4
A3
  6

 40
7.5
 41
20.0
 42
7.5
 43
20.0
 44
420.0
 45
297.0
 46
0.0
 47
0.0
 48
0.0
 49
0.0
140
0.0
141
0.0
142
1.0
143
1.0
 70
1024
 72
1
 73
0
 74
5
  7

 75
16
 76
0
 77
2
 78
300
147
1.0
148
0.0
149
0.0
100
AcDbLayout
  1
Model
 70
1
 71
0
 10
0.0
 20
0.0
 11
420.0
 21
297.0
 12
0.0
 22
0.0
 32
0.0
 14
1e+20
 24
1e+20
 34
1e+20
 15
-1e+20
 25
-1e+20
 35
-1e+20
146
0.0
 13
0.0
 23
0.0
 33
0.0
 16
1.0
 26
0.0
 36
0.0
 17
0.0
 27
1.0
 37
0.0
 76
1
330
17
  0
LAYOUT
  5
1E
330
D
100
AcDbPlotSettings
  1

  4
A3
  6

 40
7.5
 41
20.0
 42
7.5
 43
20.0
 44
420.0
 45
297.0
 46
0.0
 47
0.0
 48
0.0
 49
0.0
140
0.0
141
0.0
142
1.0
143
1.0
 70
0
 72
1
 73
0
 74
5
  7

 75
16
 76
0
 77
2
 78
300
147
1.0
148
0.0
149
0.0
100
AcDbLayout
  1
Layout1
 70
1
 71
1
 10
0.0
 20
0.0
 11
420.0
 21
297.0
 12
0.0
 22
0.0
 32
0.0
 14
1e+20
 24
1e+20
 34
1e+20
 15
-1e+20
 25
-1e+20
 35
-1e+20
146
0.0
 13
0.0
 23
0.0
 33
0.0
 16
1.0
 26
0.0
 36
0.0
 17
0.0
 27
1.0
 37
0.0
 76
1
330
1B
  0
MATERIAL
  5
1F
102
{ACAD_REACTORS
330
E
102
}
330
E
100
AcDbMaterial
  1
ByBlock
  2

 70
0
 40
1.0
 71
1
 41
1.0
 91
-1023410177
 42
1.0
 72
1
  3

 73
1
 74
1
 75
1
 44
0.5
 73
0
 45
1.0
 46
1.0
 77
1
  4

 78
1
 79
1
170
1
 48
1.0
171
1
  6

172
1
173
1
174
1
140
1.0
141
1.0
175
1
  7

176
1
177
1
178
1
143
1.0
179
1
  8

270
1
271
1
272
1
145
1.0
146
1.0
273
1
  9

274
1
275
1
276
1
 42
1.0
 72
1
  3

 73
1
 74
1
 75
1
 94
63
  0
MATERIAL
  5
20
102
{ACAD_REACTORS
330
E
102
}
330
E
100
AcDbMaterial
  1
ByLayer
  2

 70
0
 40
1.0
 71
1
 41
1.0
 91
-1023410177
 42
1.0
 72
1
  3

 73
1
 74
1
 75
1
 44
0.5
 73
0
 45
1.0
 46
1.0
 77
1
  4

 78
1
 79
1
170
1
 48
1.0
171
1
  6

172
1
173
1
174
1
140
1.0
141
1.0
175
1
  7

176
1
177
1
178
1
143
1.0
179
1
  8

270
1
271
1
272
1
145
1.0
146
1.0
273
1
  9

274
1
275
1
276
1
 42
1.0
 72
1
  3

 73
1
 74
1
 75
1
 94
63
  0
MATERIAL
  5
21
102
{ACAD_REACTORS
330
E
102
}
330
E
100
AcDbMaterial
  1
Global
  2

 70
0
 40
1.0
 71
1
 41
1.0
 91
-1023410177
 42
1.0
 72
1
  3

 73
1
 74
1
 75
1
 44
0.5
 73
0
 45
1.0
 46
1.0
 77
1
  4

 78
1
 79
1
170
1
 48
1.0
171
1
  6

172
1
173
1
174
1
140
1.0
141
1.0
175
1
  7

176
1
177
1
178
1
143
1.0
179
1
  8

270
1
271
1
272
1
145
1.0
146
1.0
273
1
  9

274
1
275
1
276
1
 42
1.0
 72
1
  3

 73
1
 74
1
 75
1
 94
63
  0
MLINESTYLE
  5
22
102
{ACAD_REACTORS
330
10
102
}
330
10
100
AcDbMlineStyle
  2
Standard
 70
0
  3

 62
256
 51
90.0
 52
90.0
 71
2
 49
0.5
 62
256
  6
BYLAYER
 49
-0.5
 62
256
  6
BYLAYER
  0
MLEADERSTYLE
  5
2C
102
{ACAD_REACTORS
330
F
102
}
330
F
100
AcDbMLeaderStyle
179
2
170
2
171
1
172
0
 90
2
 40
0.0
 41
0.0
173
1
 91
-1056964608
 92
-2
290
1
 42
2.0
291
1
 43
8.0
  3
Standard
 44
4.0
300

342
29
174
1
175
1
176
0
178
1
 93
-1056964608
 45
4.0
292
0
297
0
 46
4.0
 94
-1056964608
 47
1.0
 49
1.0
140
1.0
294
1
141
0.0
177
0
142
1.0
295
0
296
0
143
3.75
271
0
272
9
273
9
  0
DICTIONARY
  5
2D
330
A
100
AcDbDictionary
280
1
281
1
  3
CREATED_BY_EZDXF
350
2E
  3
WRITTEN_BY_EZDXF
350
24E
  0
DICTIONARYVAR
  5
2E
330
2D
100
DictionaryVariables
280
0
  1
1.4.4 @ 2026-10-08T17:36:36.881368+00:00
  0
VISUALSTYLE
  5
5A
102
{ACAD_REACTORS
330
16
102
}
330
16
100
AcDbVisualStyle
  2
2dWireframe
 70
4
177
3
291
0
 70
58
 90
2
176
1
 90
2
176
1
 90
0
176
1
 90
0
176
1
 40
0.6
176
1
 40
30.0
176
1
 62
7
420
16777215
176
1
 90
1
176
1
 90
4
176
1
 62
7
176
1
 62
257
176
1
 90
1
176
1
 90
1
176
1
 40
1.0
176
1
 90
8
176
1
 62
7
176
1
 40
1.0
176
1
 90
1
176
1
 90
6
176
1
 90
2
176
1
 62
7
176
1
 90
5
176
1
 90
0
176
1
 90
0
176
1
290
0
176
1
 90
1
176
1
 40
0.0
176
1
 90
0
176
1
290
1
176
1
290
1
176
1
290
0
176
1
290
0
176
1
290
0
176
1
290
0
176
1
290
0
176
1
290
0
176
1
290
0
176
1
 90
50
176
1
 40
0.0
176
1
 40
1.0
176
1
 90
0
176
1
 62
18
420
0
176
1
 90
50
176
1
 90
3
176
1
 62
5
420
255
176
1
290
0
176
1
 90
50
176
1
 90
50
176
1
 90
50
176
1
290
0
176
1
 90
50
176
1
 62
256
176
0
 40
1.0
176
0
 90
2
176
1
  1
strokes_ogs.tif
176
1
290
0
176
1
 40
1.0
176
1
 40
1.0
176
1
  0
VISUALSTYLE
  5
5B
102
{ACAD_REACTORS
330
16
102
}
330
16
100
AcDbVisualStyle
  2
Basic
 70
7
177
3
291
1
 70
58
 90
2
176
1
 90
2
176
1
 90
0
176
1
 90
1
176
1
 40
0.6
176
1
 40
30.0
176
1
 62
7
420
16777215
176
1
 90
1
176
1
 90
4
176
1
 62
7
176
1
 62
257
176
1
 90
1
176
1
 90
1
176
1
 40
1.0
176
1
 90
8
176
1
 62
7
176
1
 40
1.0
176
1
 90
1
176
1
 90
6
176
1
 90
2
176
1
 62
7
176
1
 90
5
176
1
 90
0
176
1
 90
0
176
1
290
0
176
1
 90
1
176
1
 40
0.0
176
1
 90
0
176
1
290
0
176
1
290
1
176
1
290
1
176
1
290
0
176
1
290
0
176
1
290
0
176
1
290
0
176
1
290
0
176
1
290
0
176
1
 90
50
176
1
 40
0.0
176
1
 40
1.0
176
1
 90
0
176
1
 62
18
420
0
176
1
 90
50
176
1
 90
3
176
1
 62
5
420
255
176
1
290
0
176
1
 90
50
176
1
 90
50
176
1
 90
50
176
1
290
0
176
1
 90
50
176
1
 62
256
176
0
 40
1.0
176
0
 90
2
176
1
  1
strokes_ogs.tif
176
1
290
0
176
1
 40
1.0
176
1
 40
1.0
176
1
  0
VISUALSTYLE
  5
5C
102
{ACAD_REACTORS
330
16
102
}
330
16
100
AcDbVisualStyle
  2
Brighten
 70
12
177
3
291
1
 70
58
 90
2
176
1
 90
2
176
1
 90
0
176
1
 90
2
176
1
 40
0.6
176
1
 40
30.0
176
1
 62
7
420
16777215
176
1
 90
1
176
1
 90
4
176
1
 62
7
176
1
 62
257
176
1
 90
1
176
1
 90
1
176
1
 40
1.0
176
1
 90
8
176
1
 62
7
176
1
 40
1.0
176
1
 90
1
176
1
 90
6
176
1
 90
2
176
1
 62
7
176
1
 90
5
176
1
 90
0
176
1
 90
0
176
1
290
0
176
1
 90
1
176
1
 40
0.0
176
1
 90
0
176
1
290
0
176
1
290
1
176
1
290
1
176
1
290
0
176
1
290
0
176
1
290
0
176
1
290
0
176
1
290
0
176
1
290
0
176
1
 90
50
176
1
 40
0.0
176
1
 40
1.0
176
1
 90
0
176
1
 62
18
420
0
176
1
 90
50
176
1
 90
3
176
1
 62
5
420
255
176
1
290
0
176
1
 90
50
176
1
 90
50
176
1
 90
50
176
1
290
0
176
1
 90
50
176
1
 62
256
176
0
 40
1.0
176
0
 90
2
176
1
  1
strokes_ogs.tif
176
1
290
0
176
1
 40
1.0
176
1
 40
1.0
176
1
  0
VISUALSTYLE
  5
5D
102
{ACAD_REACTORS
330
16
102
}
330
16
100
AcDbVisualStyle
  2
ColorChange
 70
16
177
3
291
1
 70
58
 90
2
176
1
 90
2
176
1
 90
0
176
1
 90
2
176
1
 40
0.6
176
1
 40
30.0
176
1
 62
7
420
16777215
176
1
 90
1
176
1
 90
4
176
1
 62
7
176
1
 62
257
176
1
 90
1
176
1
 90
1
176
1
 40
1.0
176
1
 90
8
176
1
 62
7
176
1
 40
1.0
176
1
 90
1
176
1
 90
6
176
1
 90
2
176
1
 62
7
176
1
 90
5
176
1
 90
0
176
1
 90
0
176
1
290
0
176
1
 90
1
176
1
 40
0.0
176
1
 90
0
176
1
290
0
176
1
290
1
176
1
290
1
176
1
290
0
176
1
290
0
176
1
290
0
176
1
290
0
176
1
290
0
176
1
290
0
176
1
 90
50
176
1
 40
0.0
176
1
 40
1.0
176
1
 90
0
176
1
 62
18
420
0
176
1
 90
50
176
1
 90
3
176
1
 62
5
420
255
176
1
290
0
176
1
 90
50
176
1
 90
50
176
1
 90
50
176
1
290
0
176
1
 90
50
176
1
 62
256
176
0
 40
1.0
176
0
 90
2
176
1
  1
strokes_ogs.tif
176
1
290
0
176
1
 40
1.0
176
1
 40
1.0
176
1
  0
VISUALSTYLE
  5
5E
102
{ACAD_REACTORS
330
16
102
}
330
16
100
AcDbVisualStyle
  2
Conceptual
 70
9
177
3
291
0
 70
58
 90
2
176
1
 90
2
176
1
 90
0
176
1
 90
3
176
1
 40
0.6
176
1
 40
30.0
176
1
 62
7
420
16777215
176
1
 90
1
176
1
 90
4
176
1
 62
7
176
1
 62
257
176
1
 90
1
176
1
 90
1
176
1
 40
1.0
176
1
 90
8
176
1
 62
7
176
1
 40
1.0
176
1
 90
1
176
1
 90
6
176
1
 90
2
176
1
 62
7
176
1
 90
5
176
1
 90
0
176
1
 90
0
176
1
290
0
176
1
 90
1
176
1
 40
0.0
176
1
 90
0
176
1
290
0
176
1
290
1
176
1
290
1
176
1
290
0
176
1
290
0
176
1
290
0
176
1
290
0
176
1
290
0
176
1
290
0
176
1
 90
50
176
1
 40
0.0
176
1
 40
1.0
176
1
 90
0
176
1
 62
18
420
0
176
1
 90
50
176
1
 90
3
176
1
 62
5
420
255
176
1
290
0
176
1
 90
50
176
1
 90
50
176
1
 90
50
176
1
290
0
176
1
 90
50
176
1
 62
256
176
0
 40
1.0
176
0
 90
2
176
1
  1
strokes_ogs.tif
176
1
290
0
176
1
 40
1.0
176
1
 40
1.0
176
1
  0
VISUALSTYLE
  5
5F
102
{ACAD_REACTORS
330
16
102
}
330
16
100
AcDbVisualStyle
  2
Dim
 70
11
177
3
291
1
 70
58
 90
2
176
1
 90
2
176
1
 90
0
176
1
 90
2
176
1
 40
0.6
176
1
 40
30.0
176
1
 62
7
420
16777215
176
1
 90
1
176
1
 90
4
176
1
 62
7
176
1
 62
257
176
1
 90
1
176
1
 90
1
176
1
 40
1.0
176
1
 90
8
176
1
 62
7
176
1
 40
1.0
176
1
 90
1
176
1
 90
6
176
1
 90
2
176
1
 62
7
176
1
 90
5
176
1
 90
0
176
1
 90
0
176
1
290
0
176
1
 90
1
176
1
 40
0.0
176
1
 90
0
176
1
290
0
176
1
290
1
176
1
290
1
176
1
290
0
176
1
290
0
176
1
290
0
176
1
290
0
176
1
290
0
176
1
290
0
176
1
 90
50
176
1
 40
0.0
176
1
 40
1.0
176
1
 90
0
176
1
 62
18
420
0
176
1
 90
50
176
1
 90
3
176
1
 62
5
420
255
176
1
290
0
176
1
 90
50
176
1
 90
50
176
1
 90
50
176
1
290
0
176
1
 90
50
176
1
 62
256
176
0
 40
1.0
176
0
 90
2
176
1
  1
strokes_ogs.tif
176
1
290
0
176
1
 40
1.0
176
1
 40
1.0
176
1
  0
VISUALSTYLE
  5
60
102
{ACAD_REACTORS
330
16
102
}
330
16
100
AcDbVisualStyle
  2
EdgeColorOff
 70
22
177
3
291
1
 70
58
 90
2
176
1
 90
2
176
1
 90
0
176
1
 90
2
176
1
 40
0.6
176
1
 40
30.0
176
1
 62
7
420
16777215
176
1
 90
1
176
1
 90
4
176
1
 62
7
176
1
 62
257
176
1
 90
1
176
1
 90
1
176
1
 40
1.0
176
1
 90
8
176
1
 62
7
176
1
 40
1.0
176
1
 90
1
176
1
 90
6
176
1
 90
2
176
1
 62
7
176
1
 90
5
176
1
 90
0
176
1
 90
0
176
1
290
0
176
1
 90
1
176
1
 40
0.0
176
1
 90
0
176
1
290
0
176
1
290
1
176
1
290
1
176
1
290
0
176
1
290
0
176
1
290
0
176
1
290
0
176
1
290
0
176
1
290
0
176
1
 90
50
176
1
 40
0.0
176
1
 40
1.0
176
1
 90
0
176
1
 62
18
420
0
176
1
 90
50
176
1
 90
3
176
1
 62
5
420
255
176
1
290
0
176
1
 90
50
176
1
 90
50
176
1
 90
50
176
1
290
0
176
1
 90
50
176
1
 62
256
176
0
 40
1.0
176
0
 90
2
176
1
  1
strokes_ogs.tif
176
1
290
0
176
1
 40
1.0
176
1
 40
1.0
176
1
  0
VISUALSTYLE
  5
61
102
{ACAD_REACTORS
330
16
102
}
330
16
100
AcDbVisualStyle
  2
Facepattern
 70
15
177
3
291
1
 70
58
 90
2
176
1
 90
2
176
1
 90
0
176
1
 90
2
176
1
 40
0.6
176
1
 40
30.0
176
1
 62
7
420
16777215
176
1
 90
1
176
1
 90
4
176
1
 62
7
176
1
 62
257
176
1
 90
1
176
1
 90
1
176
1
 40
1.0
176
1
 90
8
176
1
 62
7
176
1
 40
1.0
176
1
 90
1
176
1
 90
6
176
1
 90
2
176
1
 62
7
176
1
 90
5
176
1
 90
0
176
1
 90
0
176
1
290
0
176
1
 90
1
176
1
 40
0.0
176
1
 90
0
176
1
290
0
176
1
290
1
176
1
290
1
176
1
290
0
176
1
290
0
176
1
290
0
176
1
290
0
176
1
290
0
176
1
290
0
176
1
 90
50
176
1
 40
0.0
176
1
 40
1.0
176
1
 90
0
176
1
 62
18
420
0
176
1
 90
50
176
1
 90
3
176
1
 62
5
420
255
176
1
290
0
176
1
 90
50
176
1
 90
50
176
1
 90
50
176
1
290
0
176
1
 90
50
176
1
 62
256
176
0
 40
1.0
176
0
 90
2
176
1
  1
strokes_ogs.tif
176
1
290
0
176
1
 40
1.0
176
1
 40
1.0
176
1
  0
VISUALSTYLE
  5
62
102
{ACAD_REACTORS
330
16
102
}
330
16
100
AcDbVisualStyle
  2
Flat
 70
0
177
3
291
1
 70
58
 90
2
176
1
 90
2
176
1
 90
0
176
1
 90
2
176
1
 40
0.6
176
1
 40
30.0
176
1
 62
7
420
16777215
176
1
 90
1
176
1
 90
4
176
1
 62
7
176
1
 62
257
176
1
 90
1
176
1
 90
1
176
1
 40
1.0
176
1
 90
8
176
1
 62
7
176
1
 40
1.0
176
1
 90
1
176
1
 90
6
176
1
 90
2
176
1
 62
7
176
1
 90
5
176
1
 90
0
176
1
 90
0
176
1
290
0
176
1
 90
1
176
1
 40
0.0
176
1
 90
0
176
1
290
0
176
1
290
1
176
1
290
1
176
1
290
0
176
1
290
0
176
1
290
0
176
1
290
0
176
1
290
0
176
1
290
0
176
1
 90
50
176
1
 40
0.0
176
1
 40
1.0
176
1
 90
0
176
1
 62
18
420
0
176
1
 90
50
176
1
 90
3
176
1
 62
5
420
255
176
1
290
0
176
1
 90
50
176
1
 90
50
176
1
 90
50
176
1
290
0
176
1
 90
50
176
1
 62
256
176
0
 40
1.0
176
0
 90
2
176
1
  1
strokes_ogs.tif
176
1
290
0
176
1
 40
1.0
176
1
 40
1.0
176
1
  0
VISUALSTYLE
  5
63
102
{ACAD_REACTORS
330
16
102
}
330
16
100
AcDbVisualStyle
  2
FlatWithEdges
 70
1
177
3
291
1
 70
58
 90
2
176
1
 90
2
176
1
 90
0
176
1
 90
2
176
1
 40
0.6
176
1
 40
30.0
176
1
 62
7
420
16777215
176
1
 90
1
176
1
 90
4
176
1
 62
7
176
1
 62
257
176
1
 90
1
176
1
 90
1
176
1
 40
1.0
176
1
 90
8
176
1
 62
7
176
1
 40
1.0
176
1
 90
1
176
1
 90
6
176
1
 90
2
176
1
 62
7
176
1
 90
5
176
1
 90
0
176
1
 90
0
176
1
290
0
176
1
 90
1
176
1
 40
0.0
176
1
 90
0
176
1
290
0
176
1
290
1
176
1
290
1
176
1
290
0
176
1
290
0
176
1
290
0
176
1
290
0
176
1
290
0
176
1
290
0
176
1
 90
50
176
1
 40
0.0
176
1
 40
1.0
176
1
 90
0
176
1
 62
18
420
0
176
1
 90
50
176
1
 90
3
176
1
 62
5
420
255
176
1
290
0
176
1
 90
50
176
1
 90
50
176
1
 90
50
176
1
290
0
176
1
 90
50
176
1
 62
256
176
0
 40
1.0
176
0
 90
2
176
1
  1
strokes_ogs.tif
176
1
290
0
176
1
 40
1.0
176
1
 40
1.0
176
1
  0
VISUALSTYLE
  5
64
102
{ACAD_REACTORS
330
16
102
}
330
16
100
AcDbVisualStyle
  2
Gouraud
 70
2
177
3
291
1
 70
58
 90
2
176
1
 90
2
176
1
 90
0
176
1
 90
2
176
1
 40
0.6
176
1
 40
30.0
176
1
 62
7
420
16777215
176
1
 90
1
176
1
 90
4
176
1
 62
7
176
1
 62
257
176
1
 90
1
176
1
 90
1
176
1
 40
1.0
176
1
 90
8
176
1
 62
7
176
1
 40
1.0
176
1
 90
1
176
1
 90
6
176
1
 90
2
176
1
 62
7
176
1
 90
5
176
1
 90
0
176
1
 90
0
176
1
290
0
176
1
 90
1
176
1
 40
0.0
176
1
 90
0
176
1
290
0
176
1
290
1
176
1
290
1
176
1
290
0
176
1
290
0
176
1
290
0
176
1
290
0
176
1
290
0
176
1
290
0
176
1
 90
50
176
1
 40
0.0
176
1
 40
1.0
176
1
 90
0
176
1
 62
18
420
0
176
1
 90
50
176
1
 90
3
176
1
 62
5
420
255
176
1
290
0
176
1
 90
50
176
1
 90
50
176
1
 90
50
176
1
290
0
176
1
 90
50
176
1
 62
256
176
0
 40
1.0
176
0
 90
2
176
1
  1
strokes_ogs.tif
176
1
290
0
176
1
 40
1.0
176
1
 40
1.0
176
1
  0
VISUALSTYLE
  5
65
102
{ACAD_REACTORS
330
16
102
}
330
16
100
AcDbVisualStyle
  2
GouraudWithEdges
 70
3
177
3
291
1
 70
58
 90
2
176
1
 90
2
176
1
 90
0
176
1
 90
2
176
1
 40
0.6
176
1
 40
30.0
176
1
 62
7
420
16777215
176
1
 90
1
176
1
 90
4
176
1
 62
7
176
1
 62
257
176
1
 90
1
176
1
 90
1
176
1
 40
1.0
176
1
 90
8
176
1
 62
7
176
1
 40
1.0
176
1
 90
1
176
1
 90
6
176
1
 90
2
176
1
 62
7
176
1
 90
5
176
1
 90
0
176
1
 90
0
176
1
290
0
176
1
 90
1
176
1
 40
0.0
176
1
 90
0
176
1
290
0
176
1
290
1
176
1
290
1
176
1
290
0
176
1
290
0
176
1
290
0
176
1
290
0
176
1
290
0
176
1
290
0
176
1
 90
50
176
1
 40
0.0
176
1
 40
1.0
176
1
 90
0
176
1
 62
18
420
0
176
1
 90
50
176
1
 90
3
176
1
 62
5
420
255
176
1
290
0
176
1
 90
50
176
1
 90
50
176
1
 90
50
176
1
290
0
176
1
 90
50
176
1
 62
256
176
0
 40
1.0
176
0
 90
2
176
1
  1
strokes_ogs.tif
176
1
290
0
176
1
 40
1.0
176
1
 40
1.0
176
1
  0
VISUALSTYLE
  5
66
102
{ACAD_REACTORS
330
16
102
}
330
16
100
AcDbVisualStyle
  2
Hidden
 70
6
177
3
291
0
 70
58
 90
2
176
1
 90
2
176
1
 90
0
176
1
 90
1
176
1
 40
0.6
176
1
 40
30.0
176
1
 62
7
420
16777215
176
1
 90
1
176
1
 90
4
176
1
 62
7
176
1
 62
257
176
1
 90
1
176
1
 90
1
176
1
 40
1.0
176
1
 90
8
176
1
 62
7
176
1
 40
1.0
176
1
 90
1
176
1
 90
6
176
1
 90
2
176
1
 62
7
176
1
 90
5
176
1
 90
0
176
1
 90
0
176
1
290
0
176
1
 90
1
176
1
 40
0.0
176
1
 90
0
176
1
290
0
176
1
290
1
176
1
290
1
176
1
290
0
176
1
290
0
176
1
290
0
176
1
290
0
176
1
290
0
176
1
290
0
176
1
 90
50
176
1
 40
0.0
176
1
 40
1.0
176
1
 90
0
176
1
 62
18
420
0
176
1
 90
50
176
1
 90
3
176
1
 62
5
420
255
176
1
290
0
176
1
 90
50
176
1
 90
50
176
1
 90
50
176
1
290
0
176
1
 90
50
176
1
 62
256
176
0
 40
1.0
176
0
 90
2
176
1
  1
strokes_ogs.tif
176
1
290
0
176
1
 40
1.0
176
1
 40
1.0
176
1
  0
VISUALSTYLE
  5
67
102
{ACAD_REACTORS
330
16
102
}
330
16
100
AcDbVisualStyle
  2
JitterOff
 70
20
177
3
291
1
 70
58
 90
2
176
1
 90
2
176
1
 90
0
176
1
 90
2
176
1
 40
0.6
176
1
 40
30.0
176
1
 62
7
420
16777215
176
1
 90
1
176
1
 90
4
176
1
 62
7
176
1
 62
257
176
1
 90
1
176
1
 90
1
176
1
 40
1.0
176
1
 90
8
176
1
 62
7
176
1
 40
1.0
176
1
 90
1
176
1
 90
6
176
1
 90
2
176
1
 62
7
176
1
 90
5
176
1
 90
0
176
1
 90
0
176
1
290
0
176
1
 90
1
176
1
 40
0.0
176
1
 90
0
176
1
290
0
176
1
290
1
176
1
290
1
176
1
290
0
176
1
290
0
176
1
290
0
176
1
290
0
176
1
290
0
176
1
290
0
176
1
 90
50
176
1
 40
0.0
176
1
 40
1.0
176
1
 90
0
176
1
 62
18
420
0
176
1
 90
50
176
1
 90
3
176
1
 62
5
420
255
176
1
290
0
176
1
 90
50
176
1
 90
50
176
1
 90
50
176
1
290
0
176
1
 90
50
176
1
 62
256
176
0
 40
1.0
176
0
 90
2
176
1
  1
strokes_ogs.tif
176
1
290
0
176
1
 40
1.0
176
1
 40
1.0
176
1
  0
VISUALSTYLE
  5
68
102
{ACAD_REACTORS
330
16
102
}
330
16
100
AcDbVisualStyle
  2
Linepattern
 70
14
177
3
291
1
 70
58
 90
2
176
1
 90
2
176
1
 90
0
176
1
 90
2
176
1
 40
0.6
176
1
 40
30.0
176
1
 62
7
420
16777215
176
1
 90
1
176
1
 90
4
176
1
 62
7
176
1
 62
257
176
1
 90
1
176
1
 90
1
176
1
 40
1.0
176
1
 90
8
176
1
 62
7
176
1
 40
1.0
176
1
 90
1
176
1
 90
6
176
1
 90
2
176
1
 62
7
176
1
 90
5
176
1
 90
0
176
1
 90
0
176
1
290
0
176
1
 90
1
176
1
 40
0.0
176
1
 90
0
176
1
290
0
176
1
290
1
176
1
290
1
176
1
290
0
176
1
290
0
176
1
290
0
176
1
290
0
176
1
290
0
176
1
290
0
176
1
 90
50
176
1
 40
0.0
176
1
 40
1.0
176
1
 90
0
176
1
 62
18
420
0
176
1
 90
50
176
1
 90
3
176
1
 62
5
420
255
176
1
290
0
176
1
 90
50
176
1
 90
50
176
1
 90
50
176
1
290
0
176
1
 90
50
176
1
 62
256
176
0
 40
1.0
176
0
 90
2
176
1
  1
strokes_ogs.tif
176
1
290
0
176
1
 40
1.0
176
1
 40
1.0
176
1
  0
VISUALSTYLE
  5
69
102
{ACAD_REACTORS
330
16
102
}
330
16
100
AcDbVisualStyle
  2
Modeling
 70
10
177
3
291
0
 70
58
 90
2
176
1
 90
2
176
1
 90
0
176
1
 90
2
176
1
 40
0.6
176
1
 40
30.0
176
1
 62
7
420
16777215
176
1
 90
1
176
1
 90
4
176
1
 62
7
176
1
 62
257
176
1
 90
1
176
1
 90
1
176
1
 40
1.0
176
1
 90
8
176
1
 62
7
176
1
 40
1.0
176
1
 90
1
176
1
 90
6
176
1
 90
2
176
1
 62
7
176
1
 90
5
176
1
 90
0
176
1
 90
0
176
1
290
0
176
1
 90
1
176
1
 40
0.0
176
1
 90
0
176
1
290
0
176
1
290
1
176
1
290
1
176
1
290
0
176
1
290
0
176
1
290
0
176
1
290
0
176
1
290
0
176
1
290
0
176
1
 90
50
176
1
 40
0.0
176
1
 40
1.0
176
1
 90
0
176
1
 62
18
420
0
176
1
 90
50
176
1
 90
3
176
1
 62
5
420
255
176
1
290
0
176
1
 90
50
176
1
 90
50
176
1
 90
50
176
1
290
0
176
1
 90
50
176
1
 62
256
176
0
 40
1.0
176
0
 90
2
176
1
  1
strokes_ogs.tif
176
1
290
0
176
1
 40
1.0
176
1
 40
1.0
176
1
  0
VISUALSTYLE
  5
6A
102
{ACAD_REACTORS
330
16
102
}
330
16
100
AcDbVisualStyle
  2
OverhangOff
 70
21
177
3
291
1
 70
58
 90
2
176
1
 90
2
176
1
 90
0
176
1
 90
2
176
1
 40
0.6
176
1
 40
30.0
176
1
 62
7
420
16777215
176
1
 90
1
176
1
 90
4
176
1
 62
7
176
1
 62
257
176
1
 90
1
176
1
 90
1
176
1
 40
1.0
176
1
 90
8
176
1
 62
7
176
1
 40
1.0
176
1
 90
1
176
1
 90
6
176
1
 90
2
176
1
 62
7
176
1
 90
5
176
1
 90
0
176
1
 90
0
176
1
290
0
176
1
 90
1
176
1
 40
0.0
176
1
 90
0
176
1
290
0
176
1
290
1
176
1
290
1
176
1
290
0
176
1
290
0
176
1
290
0
176
1
290
0
176
1
290
0
176
1
290
0
176
1
 90
50
176
1
 40
0.0
176
1
 40
1.0
176
1
 90
0
176
1
 62
18
420
0
176
1
 90
50
176
1
 90
3
176
1
 62
5
420
255
176
1
290
0
176
1
 90
50
176
1
 90
50
176
1
 90
50
176
1
290
0
176
1
 90
50
176
1
 62
256
176
0
 40
1.0
176
0
 90
2
176
1
  1
strokes_ogs.tif
176
1
290
0
176
1
 40
1.0
176
1
 40
1.0
176
1
  0
VISUALSTYLE
  5
6B
102
{ACAD_REACTORS
330
16
102
}
330
16
100
AcDbVisualStyle
  2
Realistic
 70
8
177
3
291
0
 70
58
 90
2
176
1
 90
2
176
1
 90
0
176
1
 90
2
176
1
 40
0.6
176
1
 40
30.0
176
1
 62
7
420
16777215
176
1
 90
1
176
1
 90
4
176
1
 62
7
176
1
 62
257
176
1
 90
1
176
1
 90
1
176
1
 40
1.0
176
1
 90
8
176
1
 62
7
176
1
 40
1.0
176
1
 90
1
176
1
 90
6
176
1
 90
2
176
1
 62
7
176
1
 90
5
176
1
 90
0
176
1
 90
0
176
1
290
0
176
1
 90
1
176
1
 40
0.0
176
1
 90
0
176
1
290
0
176
1
290
1
176
1
290
1
176
1
290
0
176
1
290
0
176
1
290
0
176
1
290
0
176
1
290
0
176
1
290
0
176
1
 90
50
176
1
 40
0.0
176
1
 40
1.0
176
1
 90
0
176
1
 62
18
420
0
176
1
 90
50
176
1
 90
3
176
1
 62
5
420
255
176
1
290
0
176
1
 90
50
176
1
 90
50
176
1
 90
50
176
1
290
0
176
1
 90
50
176
1
 62
256
176
0
 40
1.0
176
0
 90
2
176
1
  1
strokes_ogs.tif
176
1
290
0
176
1
 40
1.0
176
1
 40
1.0
176
1
  0
VISUALSTYLE
  5
6C
102
{ACAD_REACTORS
330
16
102
}
330
16
100
AcDbVisualStyle
  2
Shaded
 70
27
177
3
291
0
 70
58
 90
2
176
1
 90
2
176
1
 90
0
176
1
 90
2
176
1
 40
0.6
176
1
 40
30.0
176
1
 62
7
420
16777215
176
1
 90
1
176
1
 90
4
176
1
 62
7
176
1
 62
257
176
1
 90
1
176
1
 90
1
176
1
 40
1.0
176
1
 90
8
176
1
 62
7
176
1
 40
1.0
176
1
 90
1
176
1
 90
6
176
1
 90
2
176
1
 62
7
176
1
 90
5
176
1
 90
0
176
1
 90
0
176
1
290
0
176
1
 90
1
176
1
 40
0.0
176
1
 90
0
176
1
290
0
176
1
290
1
176
1
290
1
176
1
290
0
176
1
290
0
176
1
290
0
176
1
290
0
176
1
290
0
176
1
290
0
176
1
 90
50
176
1
 40
0.0
176
1
 40
1.0
176
1
 90
0
176
1
 62
18
420
0
176
1
 90
50
176
1
 90
3
176
1
 62
5
420
255
176
1
290
0
176
1
 90
50
176
1
 90
50
176
1
 90
50
176
1
290
0
176
1
 90
50
176
1
 62
256
176
0
 40
1.0
176
0
 90
2
176
1
  1
strokes_ogs.tif
176
1
290
0
176
1
 40
1.0
176
1
 40
1.0
176
1
  0
VISUALSTYLE
  5
6D
102
{ACAD_REACTORS
330
16
102
}
330
16
100
AcDbVisualStyle
  2
Shaded with edges
 70
26
177
3
291
0
 70
58
 90
2
176
1
 90
2
176
1
 90
0
176
1
 90
2
176
1
 40
0.6
176
1
 40
30.0
176
1
 62
7
420
16777215
176
1
 90
1
176
1
 90
4
176
1
 62
7
176
1
 62
257
176
1
 90
1
176
1
 90
1
176
1
 40
1.0
176
1
 90
8
176
1
 62
7
176
1
 40
1.0
176
1
 90
1
176
1
 90
6
176
1
 90
2
176
1
 62
7
176
1
 90
5
176
1
 90
0
176
1
 90
0
176
1
290
0
176
1
 90
1
176
1
 40
0.0
176
1
 90
0
176
1
290
0
176
1
290
1
176
1
290
1
176
1
290
0
176
1
290
0
176
1
290
0
176
1
290
0
176
1
290
0
176
1
290
0
176
1
 90
50
176
1
 40
0.0
176
1
 40
1.0
176
1
 90
0
176
1
 62
18
420
0
176
1
 90
50
176
1
 90
3
176
1
 62
5
420
255
176
1
290
0
176
1
 90
50
176
1
 90
50
176
1
 90
50
176
1
290
0
176
1
 90
50
176
1
 62
256
176
0
 40
1.0
176
0
 90
2
176
1
  1
strokes_ogs.tif
176
1
290
0
176
1
 40
1.0
176
1
 40
1.0
176
1
  0
VISUALSTYLE
  5
6E
102
{ACAD_REACTORS
330
16
102
}
330
16
100
AcDbVisualStyle
  2
Shades of Gray
 70
23
177
3
291
0
 70
58
 90
2
176
1
 90
2
176
1
 90
0
176
1
 90
2
176
1
 40
0.6
176
1
 40
30.0
176
1
 62
7
420
16777215
176
1
 90
1
176
1
 90
4
176
1
 62
7
176
1
 62
257
176
1
 90
1
176
1
 90
1
176
1
 40
1.0
176
1
 90
8
176
1
 62
7
176
1
 40
1.0
176
1
 90
1
176
1
 90
6
176
1
 90
2
176
1
 62
7
176
1
 90
5
176
1
 90
0
176
1
 90
0
176
1
290
0
176
1
 90
1
176
1
 40
0.0
176
1
 90
0
176
1
290
0
176
1
290
1
176
1
290
1
176
1
290
0
176
1
290
0
176
1
290
0
176
1
290
0
176
1
290
0
176
1
290
0
176
1
 90
50
176
1
 40
0.0
176
1
 40
1.0
176
1
 90
0
176
1
 62
18
420
0
176
1
 90
50
176
1
 90
3
176
1
 62
5
420
255
176
1
290
0
176
1
 90
50
176
1
 90
50
176
1
 90
50
176
1
290
0
176
1
 90
50
176
1
 62
256
176
0
 40
1.0
176
0
 90
2
176
1
  1
strokes_ogs.tif
176
1
290
0
176
1
 40
1.0
176
1
 40
1.0
176
1
  0
VISUALSTYLE
  5
6F
102
{ACAD_REACTORS
330
16
102
}
330
16
100
AcDbVisualStyle
  2
Sketchy
 70
24
177
3
291
0
 70
58
 90
2
176
1
 90
2
176
1
 90
0
176
1
 90
1
176
1
 40
0.6
176
1
 40
30.0
176
1
 62
7
420
16777215
176
1
 90
1
176
1
 90
4
176
1
 62
7
176
1
 62
257
176
1
 90
1
176
1
 90
1
176
1
 40
1.0
176
1
 90
8
176
1
 62
7
176
1
 40
1.0
176
1
 90
1
176
1
 90
6
176
1
 90
2
176
1
 62
7
176
1
 90
5
176
1
 90
0
176
1
 90
0
176
1
290
0
176
1
 90
1
176
1
 40
0.0
176
1
 90
0
176
1
290
0
176
1
290
1
176
1
290
1
176
1
290
0
176
1
290
0
176
1
290
0
176
1
290
0
176
1
290
0
176
1
290
0
176
1
 90
50
176
1
 40
0.0
176
1
 40
1.0
176
1
 90
0
176
1
 62
18
420
0
176
1
 90
50
176
1
 90
3
176
1
 62
5
420
255
176
1
290
0
176
1
 90
50
176
1
 90
50
176
1
 90
50
176
1
290
0
176
1
 90
50
176
1
 62
256
176
0
 40
1.0
176
0
 90
2
176
1
  1
strokes_ogs.tif
176
1
290
0
176
1
 40
1.0
176
1
 40
1.0
176
1
  0
VISUALSTYLE
  5
70
102
{ACAD_REACTORS
330
16
102
}
330
16
100
AcDbVisualStyle
  2
Thicken
 70
13
177
3
291
1
 70
58
 90
2
176
1
 90
2
176
1
 90
0
176
1
 90
2
176
1
 40
0.6
176
1
 40
30.0
176
1
 62
7
420
16777215
176
1
 90
1
176
1
 90
4
176
1
 62
7
176
1
 62
257
176
1
 90
1
176
1
 90
1
176
1
 40
1.0
176
1
 90
8
176
1
 62
7
176
1
 40
1.0
176
1
 90
1
176
1
 90
6
176
1
 90
2
176
1
 62
7
176
1
 90
5
176
1
 90
0
176
1
 90
0
176
1
290
0
176
1
 90
1
176
1
 40
0.0
176
1
 90
0
176
1
290
0
176
1
290
1
176
1
290
1
176
1
290
0
176
1
290
0
176
1
290
0
176
1
290
0
176
1
290
0
176
1
290
0
176
1
 90
50
176
1
 40
0.0
176
1
 40
1.0
176
1
 90
0
176
1
 62
18
420
0
176
1
 90
50
176
1
 90
3
176
1
 62
5
420
255
176
1
290
0
176
1
 90
50
176
1
 90
50
176
1
 90
50
176
1
290
0
176
1
 90
50
176
1
 62
256
176
0
 40
1.0
176
0
 90
2
176
1
  1
strokes_ogs.tif
176
1
290
0
176
1
 40
1.0
176
1
 40
1.0
176
1
  0
VISUALSTYLE
  5
71
102
{ACAD_REACTORS
330
16
102
}
330
16
100
AcDbVisualStyle
  2
Wireframe
 70
5
177
3
291
0
 70
58
 90
2
176
1
 90
2
176
1
 90
0
176
1
 90
0
176
1
 40
0.6
176
1
 40
30.0
176
1
 62
7
420
16777215
176
1
 90
1
176
1
 90
4
176
1
 62
7
176
1
 62
257
176
1
 90
1
176
1
 90
1
176
1
 40
1.0
176
1
 90
8
176
1
 62
7
176
1
 40
1.0
176
1
 90
1
176
1
 90
6
176
1
 90
2
176
1
 62
7
176
1
 90
5
176
1
 90
0
176
1
 90
0
176
1
290
0
176
1
 90
1
176
1
 40
0.0
176
1
 90
0
176
1
290
0
176
1
290
1
176
1
290
1
176
1
290
0
176
1
290
0
176
1
290
0
176
1
290
0
176
1
290
0
176
1
290
0
176
1
 90
50
176
1
 40
0.0
176
1
 40
1.0
176
1
 90
0
176
1
 62
18
420
0
176
1
 90
50
176
1
 90
3
176
1
 62
5
420
255
176
1
290
0
176
1
 90
50
176
1
 90
50
176
1
 90
50
176
1
290
0
176
1
 90
50
176
1
 62
256
176
0
 40
1.0
176
0
 90
2
176
1
  1
strokes_ogs.tif
176
1
290
0
176
1
 40
1.0
176
1
 40
1.0
176
1
  0
VISUALSTYLE
  5
72
102
{ACAD_REACTORS
330
16
102
}
330
16
100
AcDbVisualStyle
  2
X-Ray
 70
25
177
3
291
0
 70
58
 90
2
176
1
 90
2
176
1
 90
0
176
1
 90
2
176
1
 40
0.5
176
1
 40
30.0
176
1
 62
7
420
16777215
176
1
 90
1
176
1
 90
4
176
1
 62
7
176
1
 62
257
176
1
 90
1
176
1
 90
1
176
1
 40
1.0
176
1
 90
8
176
1
 62
7
176
1
 40
1.0
176
1
 90
1
176
1
 90
6
176
1
 90
2
176
1
 62
7
176
1
 90
5
176
1
 90
0
176
1
 90
0
176
1
290
0
176
1
 90
1
176
1
 40
0.0
176
1
 90
0
176
1
290
0
176
1
290
1
176
1
290
1
176
1
290
0
176
1
290
0
176
1
290
0
176
1
290
0
176
1
290
0
176
1
290
0
176
1
 90
50
176
1
 40
0.0
176
1
 40
1.0
176
1
 90
0
176
1
 62
18
420
0
176
1
 90
50
176
1
 90
3
176
1
 62
5
420
255
176
1
290
0
176
1
 90
50
176
1
 90
50
176
1
 90
50
176
1
290
0
176
1
 90
50
176
1
 62
256
176
0
 40
1.0
176
0
 90
2
176
1
  1
strokes_ogs.tif
176
1
290
0
176
1
 40
1.0
176
1
 40
1.0
176
1
  0
DICTIONARYVAR
  5
24E
330
2D
100
DictionaryVariables
280
0
  1
1.4.4 @ 2026-10-08T17:36:36.902124+00:00
  0
ENDSEC
  0
EOF
