  0
SECTION
  2
HEADER
  9
$ACADVER
  1
AC1032
  9
$ACADMAINTVER
 90
4
  9
$DWGCODEPAGE
  3
ANSI_1252
  9
$LASTSAVEDBY
  1
ezdxf
  9
$REQUIREDVERSIONS
160
0
  9
$INSBASE
 10
0.0
 20
0.0
 30
0.0
  9
$EXTMIN
 10
1e+20
 20
1e+20
 30
1e+20
  9
$EXTMAX
 10
-1e+20
 20
-1e+20
 30
-1e+20
  9
$LIMMIN
 10
0.0
 20
0.0
  9
$LIMMAX
 10
420.0
 20
297.0
  9
$ORTHOMODE
 70
0
  9
$REGENMODE
 70
1
  9
$FILLMODE
 70
1
  9
$QTEXTMODE
 70
0
  9
$MIRRTEXT
 70
1
  9
$LTSCALE
 40
1.0
  9
$ATTMODE
 70
1
  9
$TEXTSIZE
 40
2.5
  9
$TRACEWID
 40
1.0
  9
$TEXTSTYLE
  7
OpenSans
  9
$CLAYER
  8
0
  9
$CELTYPE
  6
ByLayer
  9
$CECOLOR
 62
256
  9
$CELTSCALE
 40
1.0
  9
$DISPSILH
 70
0
  9
$DIMSCALE
 40
1.0
  9
$DIMASZ
 40
0.175
  9
$DIMEXO
 40
0.125
  9
$DIMDLI
 40
3.75
  9
$DIMRND
 40
0.0
  9
$DIMDLE
 40
0.0
  9
$DIMEXE
 40
0.375
  9
$DIMTP
 40
0.0
  9
$DIMTM
 40
0.0
  9
$DIMTXT
 40
0.25
  9
$DIMCEN
 40
2.5
  9
$DIMTSZ
 40
0.0
  9
$DIMTOL
 70
0
  9
$DIMLIM
 70
0
  9
$DIMTIH
 70
0
  9
$DIMTOH
 70
0
  9
$DIMSE1
 70
0
  9
$DIMSE2
 70
0
  9
$DIMTAD
 70
1
  9
$DIMZIN
 70
12
  9
$DIMBLK
  1
ARCHTICK
  9
$DIMASO
 70
1
  9
$DIMSHO
 70
1
  9
$DIMPOST
  1

  9
$DIMAPOST
  1

  9
$DIMALT
 70
0
  9
$DIMALTD
 70
3
  9
$DIMALTF
 40
0.03937007874
  9
$DIMLFAC
 40
100.0
  9
$DIMTOFL
 70
1
  9
$DIMTVP
 40
0.0
  9
$DIMTIX
 70
0
  9
$DIMSOXD
 70
0
  9
$DIMSAH
 70
0
  9
$DIMBLK1
  1

  9
$DIMBLK2
  1

  9
$DIMSTYLE
  2
EZDXF
  9
$DIMCLRD
 70
0
  9
$DIMCLRE
 70
0
  9
$DIMCLRT
 70
0
  9
$DIMTFAC
 40
0.5
  9
$DIMGAP
 40
0.1
  9
$DIMJUST
 70
0
  9
$DIMSD1
 70
0
  9
$DIMSD2
 70
0
  9
$DIMTOLJ
 70
0
  9
$DIMTZIN
 70
8
  9
$DIMALTZ
 70
0
  9
$DIMALTTZ
 70
0
  9
$DIMUPT
 70
1
  9
$DIMDEC
 70
2
  9
$DIMTDEC
 70
2
  9
$DIMALTU
 70
2
  9
$DIMALTTD
 70
3
  9
$DIMTXSTY
  7
OpenSansCondensed-Light
  9
$DIMAUNIT
 70
0
  9
$DIMADEC
 70
2
  9
$DIMALTRND
 40
0.0
  9
$DIMAZIN
 70
3
  9
$DIMDSEP
 70
46
  9
$DIMATFIT
 70
3
  9
$DIMFRAC
 70
0
  9
$DIMLDRBLK
  1

  9
$DIMLUNIT
 70
2
  9
$DIMLWD
 70
-2
  9
$DIMLWE
 70
-2
  9
$DIMTMOVE
 70
2
  9
$DIMFXL
 40
1.0
  9
$DIMFXLON
 70
0
  9
$DIMJOGANG
 40
0.785398163397
  9
$DIMTFILL
 70
0
  9
$DIMTFILLCLR
 70
0
  9
$DIMARCSYM
 70
0
  9
$DIMLTYPE
  6

  9
$DIMLTEX1
  6

  9
$DIMLTEX2
  6

  9
$DIMTXTDIRECTION
 70
0
  9
$LUNITS
 70
2
  9
$LUPREC
 70
4
  9
$SKETCHINC
 40
1.0
  9
$FILLETRAD
 40
10.0
  9
$AUNITS
 70
0
  9
$AUPREC
 70
2
  9
$MENU
  1
.
  9
$ELEVATION
 40
0.0
  9
$PELEVATION
 40
0.0
  9
$THICKNESS
 40
0.0
  9
$LIMCHECK
 70
0
  9
$CHAMFERA
 40
0.0
  9
$CHAMFERB
 40
0.0
  9
$CHAMFERC
 40
0.0
  9
$CHAMFERD
 40
0.0
  9
$SKPOLY
 70
0
  9
$TDCREATE
 40
2461322.7339699073
  9
$TDUCREATE
 40
2458532.153996898
  9
$TDUPDATE
 40
2461322.7339699073
  9
$TDUUPDATE
 40
2458532.1544311
  9
$TDINDWG
 40
0.0
  9
$TDUSRTIMER
 40
0.0
  9
$USRTIMER
 70
1
  9
$ANGBASE
 50
0.0
  9
$ANGDIR
 70
0
  9
$PDMODE
 70
0
  9
$PDSIZE
 40
0.0
  9
$PLINEWID
 40
0.0
  9
$SPLFRAME
 70
0
  9
$SPLINETYPE
 70
6
  9
$SPLINESEGS
 70
8
  9
$HANDSEED
  5
36B
  9
$SURFTAB1
 70
6
  9
$SURFTAB2
 70
6
  9
$SURFTYPE
 70
6
  9
$SURFU
 70
6
  9
$SURFV
 70
6
  9
$UCSBASE
  2

  9
$UCSNAME
  2

  9
$UCSORG
 10
0.0
 20
0.0
 30
0.0
  9
$UCSXDIR
 10
1.0
 20
0.0
 30
0.0
  9
$UCSYDIR
 10
0.0
 20
1.0
 30
0.0
  9
$UCSORTHOREF
  2

  9
$UCSORTHOVIEW
 70
0
  9
$UCSORGTOP
 10
0.0
 20
0.0
 30
0.0
  9
$UCSORGBOTTOM
 10
0.0
 20
0.0
 30
0.0
  9
$UCSORGLEFT
 10
0.0
 20
0.0
 30
0.0
  9
$UCSORGRIGHT
 10
0.0
 20
0.0
 30
0.0
  9
$UCSORGFRONT
 10
0.0
 20
0.0
 30
0.0
  9
$UCSORGBACK
 10
0.0
 20
0.0
 30
0.0
  9
$PUCSBASE
  2

  9
$PUCSNAME
  2

  9
$PUCSORG
 10
0.0
 20
0.0
 30
0.0
  9
$PUCSXDIR
 10
1.0
 20
0.0
 30
0.0
  9
$PUCSYDIR
 10
0.0
 20
1.0
 30
0.0
  9
$PUCSORTHOREF
  2

  9
$PUCSORTHOVIEW
 70
0
  9
$PUCSORGTOP
 10
0.0
 20
0.0
 30
0.0
  9
$PUCSORGBOTTOM
 10
0.0
 20
0.0
 30
0.0
  9
$PUCSORGLEFT
 10
0.0
 20
0.0
 30
0.0
  9
$PUCSORGRIGHT
 10
0.0
 20
0.0
 30
0.0
  9
$PUCSORGFRONT
 10
0.0
 20
0.0
 30
0.0
  9
$PUCSORGBACK
 10
0.0
 20
0.0
 30
0.0
  9
$USERI1
 70
0
  9
$USERI2
 70
0
  9
$USERI3
 70
0
  9
$USERI4
 70
0
  9
$USERI5
 70
0
  9
$USERR1
 40
0.0
  9
$USERR2
 40
0.0
  9
$USERR3
 40
0.0
  9
$USERR4
 40
0.0
  9
$USERR5
 40
0.0
  9
$WORLDVIEW
 70
1
  9
$SHADEDGE
 70
3
  9
$SHADEDIF
 70
70
  9
$TILEMODE
 70
1
  9
$MAXACTVP
 70
64
  9
$PINSBASE
 10
0.0
 20
0.0
 30
0.0
  9
$PLIMCHECK
 70
0
  9
$PEXTMIN
 10
1e+20
 20
1e+20
 30
1e+20
  9
$PEXTMAX
 10
-1e+20
 20
-1e+20
 30
-1e+20
  9
$PLIMMIN
 10
0.0
 20
0.0
  9
$PLIMMAX
 10
420.0
 20
297.0
  9
$UNITMODE
 70
0
  9
$VISRETAIN
 70
1
  9
$PLINEGEN
 70
0
  9
$PSLTSCALE
 70
1
  9
$TREEDEPTH
 70
3020
  9
$CMLSTYLE
  2
Standard
  9
$CMLJUST
 70
0
  9
$CMLSCALE
 40
20.0
  9
$PROXYGRAPHICS
 70
1
  9
$MEASUREMENT
 70
1
  9
$CELWEIGHT
370
-1
  9
$ENDCAPS
280
0
  9
$JOINSTYLE
280
0
  9
$LWDISPLAY
290
0
  9
$INSUNITS
 70
4
  9
$HYPERLINKBASE
  1

  9
$STYLESHEET
  1

  9
$XEDIT
290
1
  9
$CEPSNTYPE
380
0
  9
$PSTYLEMODE
290
1
  9
$FINGERPRINTGUID
  2
{2FCC3F62-7059-47CA-B057-D4B39B4E01E6}
  9
$VERSIONGUID
  2
{9BD0DC60-6580-434F-A245-F88FAA4FC23F}
  9
$EXTNAMES
290
1
  9
$PSVPSCALE
 40
0.0
  9
$OLESTARTUP
290
0
  9
$SORTENTS
280
127
  9
$INDEXCTL
280
0
  9
$HIDETEXT
280
1
  9
$XCLIPFRAME
280
1
  9
$HALOGAP
280
0
  9
$OBSCOLOR
 70
257
  9
$OBSLTYPE
280
0
  9
$INTERSECTIONDISPLAY
280
0
  9
$INTERSECTIONCOLOR
 70
257
  9
$DIMASSOC
280
2
  9
$PROJECTNAME
  1

  9
$CAMERADISPLAY
290
0
  9
$LENSLENGTH
 40
50.0
  9
$CAMERAHEIGHT
 40
0.0
  9
$STEPSPERSEC
 40
24.0
  9
$STEPSIZE
 40
100.0
  9
$3DDWFPREC
 40
2.0
  9
$PSOLWIDTH
 40
0.005
  9
$PSOLHEIGHT
 40
0.08
  9
$LOFTANG1
 40
1.570796326795
  9
$LOFTANG2
 40
1.570796326795
  9
$LOFTMAG1
 40
0.0
  9
$LOFTMAG2
 40
0.0
  9
$LOFTPARAM
 70
7
  9
$LOFTNORMALS
280
1
  9
$LATITUDE
 40
37.795
  9
$LONGITUDE
 40
-122.394
  9
$NORTHDIRECTION
 40
0.0
  9
$TIMEZONE
 70
-8000
  9
$LIGHTGLYPHDISPLAY
280
1
  9
$TILEMODELIGHTSYNCH
280
1
  9
$CMATERIAL
347
20
  9
$SOLIDHIST
280
0
  9
$SHOWHIST
280
1
  9
$DWFFRAME
280
2
  9
$DGNFRAME
280
2
  9
$REALWORLDSCALE
290
1
  9
$INTERFERECOLOR
 62
256
  9
$CSHADOW
280
0
  9
$SHADOWPLANELOCATION
 40
0.0
  0
ENDSEC
  0
SECTION
  2
CLASSES
  0
CLASS
  1
ACDBDICTIONARYWDFLT
  2
AcDbDictionaryWithDefault
  3
ObjectDBX Classes
 90
0
 91
0
280
0
281
0
  0
CLASS
  1
SUN
  2
AcDbSun
  3
SCENEOE
 90
1153
 91
0
280
0
281
0
  0
CLASS
  1
VISUALSTYLE
  2
AcDbVisualStyle
  3
ObjectDBX Classes
 90
4095
 91
0
280
0
281
0
  0
CLASS
  1
MATERIAL
  2
AcDbMaterial
  3
ObjectDBX Classes
 90
1153
 91
0
280
0
281
0
  0
CLASS
  1
SCALE
  2
AcDbScale
  3
ObjectDBX Classes
 90
1153
 91
0
280
0
281
0
  0
CLASS
  1
TABLESTYLE
  2
AcDbTableStyle
  3
ObjectDBX Classes
 90
4095
 91
0
280
0
281
0
  0
CLASS
  1
MLEADERSTYLE
  2
AcDbMLeaderStyle
  3
ACDB_MLEADERSTYLE_CLASS
 90
4095
 91
0
280
0
281
0
  0
CLASS
  1
DICTIONARYVAR
  2
AcDbDictionaryVar
  3
ObjectDBX Classes
 90
0
 91
0
280
0
281
0
  0
CLASS
  1
CELLSTYLEMAP
  2
AcDbCellStyleMap
  3
ObjectDBX Classes
 90
1152
 91
0
280
0
281
0
  0
CLASS
  1
MENTALRAYRENDERSETTINGS
  2
AcDbMentalRayRenderSettings
  3
SCENEOE
 90
1024
 91
0
280
0
281
0
  0
CLASS
  1
ACDBDETAILVIEWSTYLE
  2
AcDbDetailViewStyle
  3
ObjectDBX Classes
 90
1025
 91
0
280
0
281
0
  0
CLASS
  1
ACDBSECTIONVIEWSTYLE
  2
AcDbSectionViewStyle
  3
ObjectDBX Classes
 90
1025
 91
0
280
0
281
0
  0
CLASS
  1
RASTERVARIABLES
  2
AcDbRasterVariables
  3
ISM
 90
0
 91
0
280
0
281
0
  0
CLASS
  1
ACDBPLACEHOLDER
  2
AcDbPlaceHolder
  3
ObjectDBX Classes
 90
0
 91
0
280
0
281
0
  0
CLASS
  1
LAYOUT
  2
AcDbLayout
  3
ObjectDBX Classes
 90
0
 91
0
280
0
281
0
  0
ENDSEC
  0
SECTION
  2
TABLES
  0
TABLE
  2
VPORT
  5
8
330
0
100
AcDbSymbolTable
 70
1
  0
VPORT
  5
23
330
8
100
AcDbSymbolTableRecord
100
AcDbViewportTableRecord
  2
*Active
 70
0
 10
0.0
 20
0.0
 11
1.0
 21
1.0
 12
0.0
 22
0.0
 13
0.0
 23
0.0
 14
0.5
 24
0.5
 15
0.5
 25
0.5
 16
0.0
 26
0.0
 36
1.0
 17
0.0
 27
0.0
 37
0.0
 40
1000.0
 41
1.34
 42
50.0
 43
0.0
 44
0.0
 50
0.0
 51
0.0
 71
0
 72
1000
 73
1
 74
3
 75
0
 76
0
 77
0
 78
0
281
0
 65
0
146
0.0
  0
ENDTAB
  0
TABLE
  2
LTYPE
  5
2
330
0
100
AcDbSymbolTable
 70
21
  0
LTYPE
  5
24
330
2
100
AcDbSymbolTableRecord
100
AcDbLinetypeTableRecord
  2
ByBlock
 70
0
  3

 72
65
 73
0
 40
0.0
  0
LTYPE
  5
25
330
2
100
AcDbSymbolTableRecord
100
AcDbLinetypeTableRecord
  2
ByLayer
 70
0
  3

 72
65
 73
0
 40
0.0
  0
LTYPE
  5
26
330
2
100
AcDbSymbolTableRecord
100
AcDbLinetypeTableRecord
  2
Continuous
 70
0
  3

 72
65
 73
0
 40
0.0
  0
LTYPE
  5
2F
330
2
100
AcDbSymbolTableRecord
100
AcDbLinetypeTableRecord
  2
CENTER
 70
0
  3
Center ____ _ ____ _ ____ _ ____ _ ____ _ ____
 72
65
 73
4
 40
5.08
 49
3.175
 74
0
 49
-0.635
 74
0
 49
0.635
 74
0
 49
-0.635
 74
0
  0
LTYPE
  5
30
330
2
100
AcDbSymbolTableRecord
100
AcDbLinetypeTableRecord
  2
CENTERX2
 70
0
  3
Center (2x) ________  __  ________  __  ________
 72
65
 73
4
 40
8.89
 49
6.35
 74
0
 49
-0.635
 74
0
 49
1.27
 74
0
 49
-0.635
 74
0
  0
LTYPE
  5
31
330
2
100
AcDbSymbolTableRecord
100
AcDbLinetypeTableRecord
  2
CENTER2
 70
0
  3
Center (.5x) ____ _ ____ _ ____ _ ____ _ ____
 72
65
 73
4
 40
2.54
 49
1.587
 74
0
 49
-0.318
 74
0
 49
0.318
 74
0
 49
-0.318
 74
0
  0
LTYPE
  5
32
330
2
100
AcDbSymbolTableRecord
100
AcDbLinetypeTableRecord
  2
DASHED
 70
0
  3
Dashed __ __ __ __ __ __ __ __ __ __ __ __ __ _
 72
65
 73
2
 40
1.524
 49
1.27
 74
0
 49
-0.254
 74
0
  0
LTYPE
  5
33
330
2
100
AcDbSymbolTableRecord
100
AcDbLinetypeTableRecord
  2
DASHEDX2
 70
0
  3
Dashed (2x) ____  ____  ____  ____  ____  ____
 72
65
 73
2
 40
3.048
 49
2.54
 74
0
 49
-0.508
 74
0
  0
LTYPE
  5
34
330
2
100
AcDbSymbolTableRecord
100
AcDbLinetypeTableRecord
  2
DASHED2
 70
0
  3
Dashed (.5x) _ _ _ _ _ _ _ _ _ _ _ _ _ _
 72
65
 73
2
 40
0.762
 49
0.635
 74
0
 49
-0.127
 74
0
  0
LTYPE
  5
35
330
2
100
AcDbSymbolTableRecord
100
AcDbLinetypeTableRecord
  2
PHANTOM
 70
0
  3
Phantom ______  __  __  ______  __  __  ______
 72
65
 73
6
 40
6.35
 49
3.175
 74
0
 49
-0.635
 74
0
 49
0.635
 74
0
 49
-0.635
 74
0
 49
0.635
 74
0
 49
-0.635
 74
0
  0
LTYPE
  5
36
330
2
100
AcDbSymbolTableRecord
100
AcDbLinetypeTableRecord
  2
PHANTOMX2
 70
0
  3
Phantom (2x)____________    ____    ____    ____________
 72
65
 73
6
 40
10.795
 49
6.35
 74
0
 49
-0.635
 74
0
 49
1.27
 74
0
 49
-0.635
 74
0
 49
1.27
 74
0
 49
-0.635
 74
0
  0
LTYPE
  5
37
330
2
100
AcDbSymbolTableRecord
100
AcDbLinetypeTableRecord
  2
PHANTOM2
 70
0
  3
Phantom (.5x) ___ _ _ ___ _ _ ___ _ _ ___ _ _ ___
 72
65
 73
6
 40
3.175
 49
1.587
 74
0
 49
-0.318
 74
0
 49
0.318
 74
0
 49
-0.318
 74
0
 49
0.318
 74
0
 49
-0.318
 74
0
  0
LTYPE
  5
38
330
2
100
AcDbSymbolTableRecord
100
AcDbLinetypeTableRecord
  2
DASHDOT
 70
0
  3
Dash dot __ . __ . __ . __ . __ . __ . __ . __
 72
65
 73
4
 40
3.556
 49
2.54
 74
0
 49
-0.508
 74
0
 49
0.0
 74
0
 49
-0.508
 74
0
  0
LTYPE
  5
39
330
2
100
AcDbSymbolTableRecord
100
AcDbLinetypeTableRecord
  2
DASHDOTX2
 70
0
  3
Dash dot (2x) ____  .  ____  .  ____  .  ____
 72
65
 73
4
 40
6.096
 49
5.08
 74
0
 49
-0.508
 74
0
 49
0.0
 74
0
 49
-0.508
 74
0
  0
LTYPE
  5
3A
330
2
100
AcDbSymbolTableRecord
100
AcDbLinetypeTableRecord
  2
DASHDOT2
 70
0
  3
Dash dot (.5x) _ . _ . _ . _ . _ . _ . _ . _
 72
65
 73
4
 40
1.778
 49
1.27
 74
0
 49
-0.254
 74
0
 49
0.0
 74
0
 49
-0.254
 74
0
  0
LTYPE
  5
3B
330
2
100
AcDbSymbolTableRecord
100
AcDbLinetypeTableRecord
  2
DOT
 70
0
  3
Dot .  .  .  .  .  .  .  .  .  .  .  .  .  .  .  .
 72
65
 73
2
 40
0.508
 49
0.0
 74
0
 49
-0.508
 74
0
  0
LTYPE
  5
3C
330
2
100
AcDbSymbolTableRecord
100
AcDbLinetypeTableRecord
  2
DOTX2
 70
0
  3
Dot (2x) .    .    .    .    .    .    .    . 
 72
65
 73
2
 40
1.016
 49
0.0
 74
0
 49
-1.016
 74
0
  0
LTYPE
  5
3D
330
2
100
AcDbSymbolTableRecord
100
AcDbLinetypeTableRecord
  2
DOT2
 70
0
  3
Dot (.5) . . . . . . . . . . . . . . . . . . . 
 72
65
 73
2
 40
0.254
 49
0.0
 74
0
 49
-0.254
 74
0
  0
LTYPE
  5
3E
330
2
100
AcDbSymbolTableRecord
100
AcDbLinetypeTableRecord
  2
DIVIDE
 70
0
  3
Divide __ . . __ . . __ . . __ . . __ . . __
 72
65
 73
6
 40
4.064
 49
2.54
 74
0
 49
-0.508
 74
0
 49
0.0
 74
0
 49
-0.508
 74
0
 49
0.0
 74
0
 49
-0.508
 74
0
  0
LTYPE
  5
3F
330
2
100
AcDbSymbolTableRecord
100
AcDbLinetypeTableRecord
  2
DIVIDEX2
 70
0
  3
Divide (2x) ____  . .  ____  . .  ____  . .  ____
 72
65
 73
6
 40
6.604
 49
5.08
 74
0
 49
-0.508
 74
0
 49
0.0
 74
0
 49
-0.508
 74
0
 49
0.0
 74
0
 49
-0.508
 74
0
  0
LTYPE
  5
40
330
2
100
AcDbSymbolTableRecord
100
AcDbLinetypeTableRecord
  2
DIVIDE2
 70
0
  3
Divide(.5x) _ . _ . _ . _ . _ . _ . _ . _
 72
65
 73
6
 40
2.032
 49
1.27
 74
0
 49
-0.254
 74
0
 49
0.0
 74
0
 49
-0.254
 74
0
 49
0.0
 74
0
 49
-0.254
 74
0
  0
ENDTAB
  0
TABLE
  2
LAYER
  5
1
330
0
100
AcDbSymbolTable
 70
16
  0
LAYER
  5
27
330
1
100
AcDbSymbolTableRecord
100
AcDbLayerTableRecord
  2
0
 70
0
 62
7
  6
Continuous
370
-3
390
13
347
21
  0
LAYER
  5
28
330
1
100
AcDbSymbolTableRecord
100
AcDbLayerTableRecord
  2
Defpoints
 70
0
 62
7
  6
Continuous
290
0
370
-3
390
13
347
21
  0
LAYER
  5
8B
330
1
100
AcDbSymbolTableRecord
100
AcDbLayerTableRecord
  2
FRAME
 70
0
 62
7
  6
CONTINUOUS
370
-3
390
13
347
21
  0
LAYER
  5
8C
330
1
100
AcDbSymbolTableRecord
100
AcDbLayerTableRecord
  2
AR-WALLS
 70
0
 62
7
  6
CONTINUOUS
370
-3
390
13
347
21
  0
LAYER
  5
8D
330
1
100
AcDbSymbolTableRecord
100
AcDbLayerTableRecord
  2
AR-NEW
 70
0
 62
5
  6
CONTINUOUS
370
-3
390
13
347
21
  0
LAYER
  5
8E
330
1
100
AcDbSymbolTableRecord
100
AcDbLayerTableRecord
  2
AR-DEMO
 70
0
 62
1
  6
DASHED
370
-3
390
13
347
21
  0
LAYER
  5
8F
330
1
100
AcDbSymbolTableRecord
100
AcDbLayerTableRecord
  2
FURN
 70
0
 62
8
  6
CONTINUOUS
370
-3
390
13
347
21
  0
LAYER
  5
90
330
1
100
AcDbSymbolTableRecord
100
AcDbLayerTableRecord
  2
EL-LIGHT
 70
0
 62
30
  6
CONTINUOUS
370
-3
390
13
347
21
  0
LAYER
  5
91
330
1
100
AcDbSymbolTableRecord
100
AcDbLayerTableRecord
  2
EL-SOCKET
 70
0
 62
6
  6
CONTINUOUS
370
-3
390
13
347
21
  0
LAYER
  5
92
330
1
100
AcDbSymbolTableRecord
100
AcDbLayerTableRecord
  2
EL-LOW
 70
0
 62
3
  6
CONTINUOUS
370
-3
390
13
347
21
  0
LAYER
  5
93
330
1
100
AcDbSymbolTableRecord
100
AcDbLayerTableRecord
  2
VK
 70
0
 62
4
  6
CONTINUOUS
370
-3
390
13
347
21
  0
LAYER
  5
94
330
1
100
AcDbSymbolTableRecord
100
AcDbLayerTableRecord
  2
OV
 70
0
 62
3
  6
CONTINUOUS
370
-3
390
13
347
21
  0
LAYER
  5
95
330
1
100
AcDbSymbolTableRecord
100
AcDbLayerTableRecord
  2
DIM
 70
0
 62
7
  6
CONTINUOUS
370
-3
390
13
347
21
  0
LAYER
  5
96
330
1
100
AcDbSymbolTableRecord
100
AcDbLayerTableRecord
  2
TEXT
 70
0
 62
7
  6
CONTINUOUS
370
-3
390
13
347
21
  0
LAYER
  5
97
330
1
100
AcDbSymbolTableRecord
100
AcDbLayerTableRecord
  2
AR-FIN
 70
0
 62
9
  6
CONTINUOUS
370
-3
390
13
347
21
  0
LAYER
  5
98
330
1
100
AcDbSymbolTableRecord
100
AcDbLayerTableRecord
  2
BASE
 70
0
 62
9
  6
CONTINUOUS
370
-3
390
13
347
21
  0
ENDTAB
  0
TABLE
  2
STYLE
  5
5
330
0
100
AcDbSymbolTable
 70
27
  0
STYLE
  5
29
330
5
100
AcDbSymbolTableRecord
100
AcDbTextStyleTableRecord
  2
Standard
 70
0
 40
0.0
 41
1.0
 50
0.0
 71
0
 42
2.5
  3
DejaVuSans.ttf
  4

  0
STYLE
  5
41
330
5
100
AcDbSymbolTableRecord
100
AcDbTextStyleTableRecord
  2
OpenSans-Light
 70
0
 40
0.0
 41
1.0
 50
0.0
 71
0
 42
2.5
  3
OpenSans-Light.ttf
  4

  0
STYLE
  5
42
330
5
100
AcDbSymbolTableRecord
100
AcDbTextStyleTableRecord
  2
OpenSans-Light-Italic
 70
0
 40
0.0
 41
1.0
 50
0.0
 71
0
 42
2.5
  3
OpenSans-LightItalic.ttf
  4

  0
STYLE
  5
43
330
5
100
AcDbSymbolTableRecord
100
AcDbTextStyleTableRecord
  2
OpenSans
 70
0
 40
0.0
 41
1.0
 50
0.0
 71
0
 42
2.5
  3
OpenSans-Regular.ttf
  4

  0
STYLE
  5
44
330
5
100
AcDbSymbolTableRecord
100
AcDbTextStyleTableRecord
  2
OpenSans-Italic
 70
0
 40
0.0
 41
1.0
 50
0.0
 71
0
 42
2.5
  3
OpenSans-Italic.ttf
  4

  0
STYLE
  5
45
330
5
100
AcDbSymbolTableRecord
100
AcDbTextStyleTableRecord
  2
OpenSans-SemiBold
 70
0
 40
0.0
 41
1.0
 50
0.0
 71
0
 42
2.5
  3
OpenSans-SemiBold.ttf
  4

  0
STYLE
  5
46
330
5
100
AcDbSymbolTableRecord
100
AcDbTextStyleTableRecord
  2
OpenSans-SemiBoldItalic
 70
0
 40
0.0
 41
1.0
 50
0.0
 71
0
 42
2.5
  3
OpenSans-SemiBoldItalic.ttf
  4

  0
STYLE
  5
47
330
5
100
AcDbSymbolTableRecord
100
AcDbTextStyleTableRecord
  2
OpenSans-Bold
 70
0
 40
0.0
 41
1.0
 50
0.0
 71
0
 42
2.5
  3
OpenSans-Bold.ttf
  4

  0
STYLE
  5
48
330
5
100
AcDbSymbolTableRecord
100
AcDbTextStyleTableRecord
  2
OpenSans-BoldItalic
 70
0
 40
0.0
 41
1.0
 50
0.0
 71
0
 42
2.5
  3
OpenSans-BoldItalic.ttf
  4

  0
STYLE
  5
49
330
5
100
AcDbSymbolTableRecord
100
AcDbTextStyleTableRecord
  2
OpenSans-ExtraBold
 70
0
 40
0.0
 41
1.0
 50
0.0
 71
0
 42
2.5
  3
OpenSans-ExtraBold.ttf
  4

  0
STYLE
  5
4A
330
5
100
AcDbSymbolTableRecord
100
AcDbTextStyleTableRecord
  2
OpenSans-ExtraBoldItalic
 70
0
 40
0.0
 41
1.0
 50
0.0
 71
0
 42
2.5
  3
OpenSans-ExtraBoldItalic.ttf
  4

  0
STYLE
  5
4B
330
5
100
AcDbSymbolTableRecord
100
AcDbTextStyleTableRecord
  2
OpenSansCondensed-Bold
 70
0
 40
0.0
 41
1.0
 50
0.0
 71
0
 42
2.5
  3
OpenSansCondensed-Bold.ttf
  4

  0
STYLE
  5
4C
330
5
100
AcDbSymbolTableRecord
100
AcDbTextStyleTableRecord
  2
OpenSansCondensed-Light
 70
0
 40
0.0
 41
1.0
 50
0.0
 71
0
 42
2.5
  3
OpenSansCondensed-Light.ttf
  4

  0
STYLE
  5
4D
330
5
100
AcDbSymbolTableRecord
100
AcDbTextStyleTableRecord
  2
OpenSansCondensed-Italic
 70
0
 40
0.0
 41
1.0
 50
0.0
 71
0
 42
2.5
  3
OpenSansCondensed-LightItalic.ttf
  4

  0
STYLE
  5
4E
330
5
100
AcDbSymbolTableRecord
100
AcDbTextStyleTableRecord
  2
LiberationSans
 70
0
 40
0.0
 41
1.0
 50
0.0
 71
0
 42
2.5
  3
LiberationSans-Regular.ttf
  4

  0
STYLE
  5
4F
330
5
100
AcDbSymbolTableRecord
100
AcDbTextStyleTableRecord
  2
LiberationSans-Bold
 70
0
 40
0.0
 41
1.0
 50
0.0
 71
0
 42
2.5
  3
LiberationSans-Bold.ttf
  4

  0
STYLE
  5
50
330
5
100
AcDbSymbolTableRecord
100
AcDbTextStyleTableRecord
  2
LiberationSans-BoldItalic
 70
0
 40
0.0
 41
1.0
 50
0.0
 71
0
 42
2.5
  3
LiberationSans-BoldItalic.ttf
  4

  0
STYLE
  5
51
330
5
100
AcDbSymbolTableRecord
100
AcDbTextStyleTableRecord
  2
LiberationSans-Italic
 70
0
 40
0.0
 41
1.0
 50
0.0
 71
0
 42
2.5
  3
LiberationSans-Italic.ttf
  4

  0
STYLE
  5
52
330
5
100
AcDbSymbolTableRecord
100
AcDbTextStyleTableRecord
  2
LiberationSerif
 70
0
 40
0.0
 41
1.0
 50
0.0
 71
0
 42
2.5
  3
LiberationSerif-Regular.ttf
  4

  0
STYLE
  5
53
330
5
100
AcDbSymbolTableRecord
100
AcDbTextStyleTableRecord
  2
LiberationSerif-Bold
 70
0
 40
0.0
 41
1.0
 50
0.0
 71
0
 42
2.5
  3
LiberationSerif-Bold.ttf
  4

  0
STYLE
  5
54
330
5
100
AcDbSymbolTableRecord
100
AcDbTextStyleTableRecord
  2
LiberationSerif-BoldItalic
 70
0
 40
0.0
 41
1.0
 50
0.0
 71
0
 42
2.5
  3
LiberationSerif-BoldItalic.ttf
  4

  0
STYLE
  5
55
330
5
100
AcDbSymbolTableRecord
100
AcDbTextStyleTableRecord
  2
LiberationSerif-Italic
 70
0
 40
0.0
 41
1.0
 50
0.0
 71
0
 42
2.5
  3
LiberationSerif-Italic.ttf
  4

  0
STYLE
  5
56
330
5
100
AcDbSymbolTableRecord
100
AcDbTextStyleTableRecord
  2
LiberationMono
 70
0
 40
0.0
 41
1.0
 50
0.0
 71
0
 42
2.5
  3
LiberationMono-Regular.ttf
  4

  0
STYLE
  5
57
330
5
100
AcDbSymbolTableRecord
100
AcDbTextStyleTableRecord
  2
LiberationMono-Bold
 70
0
 40
0.0
 41
1.0
 50
0.0
 71
0
 42
2.5
  3
LiberationMono-Bold.ttf
  4

  0
STYLE
  5
58
330
5
100
AcDbSymbolTableRecord
100
AcDbTextStyleTableRecord
  2
LiberationMono-BoldItalic
 70
0
 40
0.0
 41
1.0
 50
0.0
 71
0
 42
2.5
  3
LiberationMono-BoldItalic.ttf
  4

  0
STYLE
  5
59
330
5
100
AcDbSymbolTableRecord
100
AcDbTextStyleTableRecord
  2
LiberationMono-Italic
 70
0
 40
0.0
 41
1.0
 50
0.0
 71
0
 42
2.5
  3
LiberationMono-Italic.ttf
  4

  0
STYLE
  5
8A
330
5
100
AcDbSymbolTableRecord
100
AcDbTextStyleTableRecord
  2
GOST
 70
0
 40
0.0
 41
1.0
 50
0.0
 71
0
 42
2.5
  3
DejaVuSans.ttf
  4

  0
ENDTAB
  0
TABLE
  2
VIEW
  5
7
330
0
100
AcDbSymbolTable
 70
0
  0
ENDTAB
  0
TABLE
  2
UCS
  5
6
330
0
100
AcDbSymbolTable
 70
0
  0
ENDTAB
  0
TABLE
  2
APPID
  5
3
330
0
100
AcDbSymbolTable
 70
3
  0
APPID
  5
2A
330
3
100
AcDbSymbolTableRecord
100
AcDbRegAppTableRecord
  2
ACAD
 70
0
  0
APPID
  5
368
330
3
100
AcDbSymbolTableRecord
100
AcDbRegAppTableRecord
  2
HATCHBACKGROUNDCOLOR
 70
0
  0
APPID
  5
369
330
3
100
AcDbSymbolTableRecord
100
AcDbRegAppTableRecord
  2
EZDXF
 70
0
  0
ENDTAB
  0
TABLE
  2
DIMSTYLE
  5
4
330
0
100
AcDbSymbolTable
 70
12
100
AcDbDimStyleTable
  0
DIMSTYLE
105
2B
330
4
100
AcDbSymbolTableRecord
100
AcDbDimStyleTableRecord
  2
Standard
 70
0
 40
1.0
 41
2.5
 42
0.625
 43
3.75
 44
1.25
 45
0.0
 46
0.0
 47
0.0
 48
0.0
 49
2.5
140
2.5
141
2.5
142
0.0
143
0.03937007874
144
1.0
145
0.0
146
1.0
147
0.625
148
0.0
 69
0
 70
0
 71
0
 72
0
 73
0
 74
0
 75
0
 76
0
 77
1
 78
8
 79
3
170
0
171
3
172
1
173
0
174
0
175
0
176
0
177
0
178
0
179
2
271
2
272
2
273
2
274
3
275
0
276
0
277
2
278
44
279
0
280
0
281
0
282
0
283
0
284
8
285
0
286
0
288
0
289
3
290
0
371
-2
372
-2
  0
DIMSTYLE
105
73
330
4
100
AcDbSymbolTableRecord
100
AcDbDimStyleTableRecord
  2
EZDXF
 70
0
 40
1.0
 41
0.175
 42
0.125
 43
3.75
 44
0.375
 45
0.0
 46
0.0
 47
0.0
 48
0.0
 49
2.5
140
0.25
141
2.5
142
0.0
143
0.03937007874
144
100.0
145
0.0
146
0.5
147
0.1
148
0.0
 69
0
 70
0
 71
0
 72
0
 73
0
 74
0
 75
0
 76
0
 77
1
 78
12
 79
3
170
0
171
3
172
1
173
0
174
0
175
0
176
0
177
0
178
0
179
2
271
2
272
2
273
2
274
3
275
0
276
0
277
2
278
46
279
2
280
0
281
0
282
0
283
0
284
8
285
0
286
0
288
1
289
3
290
0
340
4C
342
74
371
-2
372
-2
  0
DIMSTYLE
105
7C
330
4
100
AcDbSymbolTableRecord
100
AcDbDimStyleTableRecord
  2
EZ_M_100_H25_CM
 70
0
 40
1.0
 41
0.25
 42
0.125
 43
3.75
 44
0.375
 45
0.0
 46
0.0
 47
0.0
 48
0.0
 49
2.5
140
0.25
141
2.5
142
0.125
143
0.03937007874
144
100.0
145
0.0
146
0.5
147
0.1
148
0.0
 69
0
 70
0
 71
0
 72
0
 73
0
 74
0
 75
0
 76
0
 77
1
 78
12
 79
3
170
0
171
3
172
1
173
0
174
0
175
0
176
0
177
0
178
0
179
2
271
2
272
2
273
2
274
3
275
0
276
0
277
2
278
46
279
2
280
0
281
0
282
0
283
0
284
8
285
0
286
0
288
1
289
3
290
0
340
4C
371
-2
372
-2
  0
DIMSTYLE
105
7D
330
4
100
AcDbSymbolTableRecord
100
AcDbDimStyleTableRecord
  2
EZ_M_50_H25_CM
 70
0
 40
1.0
 41
0.125
 42
0.0625
 43
3.75
 44
0.1875
 45
0.0
 46
0.0
 47
0.0
 48
0.0
 49
2.5
140
0.125
141
2.5
142
0.0625
143
0.03937007874
144
100.0
145
0.0
146
0.5
147
0.05
148
0.0
 69
0
 70
0
 71
0
 72
0
 73
0
 74
0
 75
0
 76
0
 77
1
 78
12
 79
3
170
0
171
3
172
1
173
0
174
0
175
0
176
0
177
0
178
0
179
2
271
2
272
2
273
2
274
3
275
0
276
0
277
2
278
46
279
2
280
0
281
0
282
0
283
0
284
8
285
0
286
0
288
1
289
3
290
0
340
4C
371
-2
372
-2
  0
DIMSTYLE
105
7E
330
4
100
AcDbSymbolTableRecord
100
AcDbDimStyleTableRecord
  2
EZ_M_25_H25_CM
 70
0
 40
1.0
 41
0.0625
 42
0.03125
 43
3.75
 44
0.09375
 45
0.0
 46
0.0
 47
0.0
 48
0.0
 49
2.5
140
0.0625
141
2.5
142
0.03125
143
0.03937007874
144
100.0
145
0.0
146
0.5
147
0.025
148
0.0
 69
0
 70
0
 71
0
 72
0
 73
0
 74
0
 75
0
 76
0
 77
1
 78
12
 79
3
170
0
171
3
172
1
173
0
174
0
175
0
176
0
177
0
178
0
179
2
271
2
272
2
273
2
274
3
275
0
276
0
277
2
278
46
279
2
280
0
281
0
282
0
283
0
284
8
285
0
286
0
288
1
289
3
290
0
340
4C
371
-2
372
-2
  0
DIMSTYLE
105
7F
330
4
100
AcDbSymbolTableRecord
100
AcDbDimStyleTableRecord
  2
EZ_M_20_H25_CM
 70
0
 40
1.0
 41
0.05
 42
0.025
 43
3.75
 44
0.07500000000000001
 45
0.0
 46
0.0
 47
0.0
 48
0.0
 49
2.5
140
0.05
141
2.5
142
0.025
143
0.03937007874
144
100.0
145
0.0
146
0.5
147
0.020000000000000004
148
0.0
 69
0
 70
0
 71
0
 72
0
 73
0
 74
0
 75
0
 76
0
 77
1
 78
12
 79
3
170
0
171
3
172
1
173
0
174
0
175
0
176
0
177
0
178
0
179
2
271
2
272
2
273
2
274
3
275
0
276
0
277
2
278
46
279
2
280
0
281
0
282
0
283
0
284
8
285
0
286
0
288
1
289
3
290
0
340
4C
371
-2
372
-2
  0
DIMSTYLE
105
80
330
4
100
AcDbSymbolTableRecord
100
AcDbDimStyleTableRecord
  2
EZ_M_10_H25_CM
 70
0
 40
1.0
 41
0.025
 42
0.0125
 43
3.75
 44
0.037500000000000006
 45
0.0
 46
0.0
 47
0.0
 48
0.0
 49
2.5
140
0.025
141
2.5
142
0.0125
143
0.03937007874
144
100.0
145
0.0
146
0.5
147
0.010000000000000002
148
0.0
 69
0
 70
0
 71
0
 72
0
 73
0
 74
0
 75
0
 76
0
 77
1
 78
12
 79
3
170
0
171
3
172
1
173
0
174
0
175
0
176
0
177
0
178
0
179
2
271
2
272
2
273
2
274
3
275
0
276
0
277
2
278
46
279
2
280
0
281
0
282
0
283
0
284
8
285
0
286
0
288
1
289
3
290
0
340
4C
371
-2
372
-2
  0
DIMSTYLE
105
81
330
4
100
AcDbSymbolTableRecord
100
AcDbDimStyleTableRecord
  2
EZ_M_5_H25_CM
 70
0
 40
1.0
 41
0.0125
 42
0.00625
 43
3.75
 44
0.018750000000000003
 45
0.0
 46
0.0
 47
0.0
 48
0.0
 49
2.5
140
0.0125
141
2.5
142
0.00625
143
0.03937007874
144
100.0
145
0.0
146
0.5
147
0.005000000000000001
148
0.0
 69
0
 70
0
 71
0
 72
0
 73
0
 74
0
 75
0
 76
0
 77
1
 78
12
 79
3
170
0
171
3
172
1
173
0
174
0
175
0
176
0
177
0
178
0
179
2
271
2
272
2
273
2
274
3
275
0
276
0
277
2
278
46
279
2
280
0
281
0
282
0
283
0
284
8
285
0
286
0
288
1
289
3
290
0
340
4C
371
-2
372
-2
  0
DIMSTYLE
105
82
330
4
100
AcDbSymbolTableRecord
100
AcDbDimStyleTableRecord
  2
EZ_M_1_H25_CM
 70
0
 40
1.0
 41
0.0025
 42
0.00125
 43
3.75
 44
0.00375
 45
0.0
 46
0.0
 47
0.0
 48
0.0
 49
2.5
140
0.0025
141
2.5
142
0.00125
143
0.03937007874
144
100.0
145
0.0
146
0.5
147
0.001
148
0.0
 69
0
 70
0
 71
0
 72
0
 73
0
 74
0
 75
0
 76
0
 77
1
 78
12
 79
3
170
0
171
3
172
1
173
0
174
0
175
0
176
0
177
0
178
0
179
2
271
2
272
2
273
2
274
3
275
0
276
0
277
2
278
46
279
2
280
0
281
0
282
0
283
0
284
8
285
0
286
0
288
1
289
3
290
0
340
4C
371
-2
372
-2
  0
DIMSTYLE
105
83
330
4
100
AcDbSymbolTableRecord
100
AcDbDimStyleTableRecord
  2
EZ_RADIUS
 70
0
 40
1.0
 41
0.25
 42
0.125
 43
3.75
 44
0.375
 45
0.0
 46
0.0
 47
0.0
 48
0.0
 49
2.5
140
0.25
141
0.0
142
0.0
143
0.03937007874
144
100.0
145
0.0
146
0.5
147
0.1
148
0.0
 69
0
 70
0
 71
0
 72
0
 73
0
 74
0
 75
0
 76
0
 77
1
 78
12
 79
3
170
0
171
3
172
0
173
0
174
0
175
0
176
0
177
0
178
0
179
2
271
2
272
2
273
2
274
3
275
0
276
0
277
2
278
46
279
1
280
0
281
0
282
0
283
0
284
8
285
0
286
0
288
1
289
3
290
0
340
4C
342
84
371
-2
372
-2
  0
DIMSTYLE
105
88
330
4
100
AcDbSymbolTableRecord
100
AcDbDimStyleTableRecord
  2
EZ_RADIUS_INSIDE
 70
0
 40
1.0
 41
0.25
 42
0.125
 43
3.75
 44
0.375
 45
0.0
 46
0.0
 47
0.0
 48
0.0
 49
2.5
140
0.25
141
0.0
142
0.0
143
0.03937007874
144
100.0
145
0.0
146
0.5
147
0.1
148
0.0
 69
0
 70
0
 71
0
 72
0
 73
0
 74
0
 75
0
 76
0
 77
0
 78
12
 79
3
170
0
171
3
172
0
173
0
174
1
175
0
176
0
177
0
178
0
179
2
271
2
272
2
273
2
274
3
275
0
276
0
277
2
278
46
279
0
280
0
281
0
282
0
283
0
284
8
285
0
286
0
288
1
289
0
290
0
340
4C
342
84
371
-2
372
-2
  0
DIMSTYLE
105
89
330
4
100
AcDbSymbolTableRecord
100
AcDbDimStyleTableRecord
  2
EZ_CURVED
 70
0
 40
1.0
 41
0.25
 42
0.125
 43
3.75
 44
0.375
 45
0.0
 46
0.0
 47
0.0
 48
0.0
 49
2.5
140
0.25
141
2.5
142
0.0
143
0.03937007874
144
100.0
145
0.0
146
0.5
147
0.1
148
0.0
 69
0
 70
0
 71
0
 72
0
 73
0
 74
0
 75
0
 76
0
 77
1
 78
12
 79
2
 90
2
170
0
171
3
172
1
173
0
174
0
175
0
176
0
177
0
178
0
179
2
271
2
272
2
273
2
274
3
275
0
276
0
277
2
278
46
279
2
280
0
281
0
282
0
283
0
284
8
285
0
286
0
288
1
289
3
290
0
340
4C
371
-2
372
-2
  0
ENDTAB
  0
TABLE
  2
BLOCK_RECORD
  5
9
330
0
100
AcDbSymbolTable
 70
5
  0
BLOCK_RECORD
  5
17
330
9
100
AcDbSymbolTableRecord
100
AcDbBlockTableRecord
  2
*Model_Space
340
1A
 70
0
280
1
281
0
  0
BLOCK_RECORD
  5
1B
330
9
100
AcDbSymbolTableRecord
100
AcDbBlockTableRecord
  2
*Paper_Space
340
1E
 70
0
280
1
281
0
  0
BLOCK_RECORD
  5
74
330
9
100
AcDbSymbolTableRecord
100
AcDbBlockTableRecord
  2
_ARCHTICK
340
0
 70
0
280
1
281
0
  0
BLOCK_RECORD
  5
78
330
9
100
AcDbSymbolTableRecord
100
AcDbBlockTableRecord
  2
_CLOSEDFILLED
340
0
 70
0
280
1
281
0
  0
BLOCK_RECORD
  5
84
330
9
100
AcDbSymbolTableRecord
100
AcDbBlockTableRecord
  2
_CLOSEDBLANK
340
0
 70
0
280
1
281
0
  0
ENDTAB
  0
ENDSEC
  0
SECTION
  2
BLOCKS
  0
BLOCK
  5
18
330
17
100
AcDbEntity
  8
0
100
AcDbBlockBegin
  2
*Model_Space
 70
0
 10
0.0
 20
0.0
 30
0.0
  3
*Model_Space
  1

  0
ENDBLK
  5
19
330
17
100
AcDbEntity
  8
0
100
AcDbBlockEnd
  0
BLOCK
  5
1C
330
1B
100
AcDbEntity
  8
0
100
AcDbBlockBegin
  2
*Paper_Space
 70
0
 10
0.0
 20
0.0
 30
0.0
  3
*Paper_Space
  1

  0
ENDBLK
  5
1D
330
1B
100
AcDbEntity
  8
0
100
AcDbBlockEnd
  0
BLOCK
  5
75
330
74
100
AcDbEntity
  8
0
100
AcDbBlockBegin
  2
_ARCHTICK
 70
0
 10
0.0
 20
0.0
 30
0.0
  3
_ARCHTICK
  1

  0
LWPOLYLINE
  5
77
330
74
100
AcDbEntity
  8
0
  6
BYBLOCK
 62
0
100
AcDbPolyline
 90
2
 70
0
 43
0.15
 10
-0.5
 20
-0.5
 10
0.5
 20
0.5
  0
ENDBLK
  5
76
330
74
100
AcDbEntity
  8
0
100
AcDbBlockEnd
  0
BLOCK
  5
79
330
78
100
AcDbEntity
  8
0
100
AcDbBlockBegin
  2
_CLOSEDFILLED
 70
0
 10
0.0
 20
0.0
 30
0.0
  3
_CLOSEDFILLED
  1

  0
SOLID
  5
7B
330
78
100
AcDbEntity
  8
0
  6
BYBLOCK
 62
0
100
AcDbTrace
 10
-1.0
 20
0.16439898372402537
 30
0.0
 11
0.0
 21
0.0
 31
0.0
 12
-1.0
 22
-0.16439898372402537
 32
0.0
 13
-1.0
 23
-0.16439898372402537
 33
0.0
  0
ENDBLK
  5
7A
330
78
100
AcDbEntity
  8
0
100
AcDbBlockEnd
  0
BLOCK
  5
85
330
84
100
AcDbEntity
  8
0
100
AcDbBlockBegin
  2
_CLOSEDBLANK
 70
0
 10
0.0
 20
0.0
 30
0.0
  3
_CLOSEDBLANK
  1

  0
LWPOLYLINE
  5
87
330
84
100
AcDbEntity
  8
0
  6
BYBLOCK
 62
0
100
AcDbPolyline
 90
3
 70
1
 10
-1.0
 20
0.16439898372402537
 10
0.0
 20
0.0
 10
-1.0
 20
-0.16439898372402537
  0
ENDBLK
  5
86
330
84
100
AcDbEntity
  8
0
100
AcDbBlockEnd
  0
ENDSEC
  0
SECTION
  2
ENTITIES
  0
TEXT
  5
99
330
17
100
AcDbEntity
  8
TEXT
 62
7
100
AcDbText
 10
800.0
 20
10250.0
 30
0.0
 40
50.0
  1
Спальня — W2: буазери на месте зашитого O1
  7
GOST
 11
800.0
 21
10250.0
 31
0.0
100
AcDbText
  0
TEXT
  5
9A
330
17
100
AcDbEntity
  8
TEXT
 62
7
100
AcDbText
 10
800.0
 20
10175.0
 30
0.0
 40
37.5
  1
из спальни на запад: слева y=8911, справа y=3721 М 1:25
  7
GOST
 11
800.0
 21
10175.0
 31
0.0
100
AcDbText
  0
HATCH
  5
9B
330
17
100
AcDbEntity
  8
AR-WALLS
 62
7
420
16513783
100
AcDbHatch
 10
0.0
 20
0.0
 30
0.0
210
0.0
220
0.0
230
1.0
  2
SOLID
 70
1
 71
0
 91
1
 92
3
 72
0
 73
1
 93
4
 10
800.0
 20
7275.0
 10
5990.0
 20
7275.0
 10
5990.0
 20
9975.0
 10
800.0
 20
9975.0
 97
0
 75
1
 76
1
 98
0
  0
LWPOLYLINE
  5
9C
330
17
100
AcDbEntity
  8
AR-WALLS
 62
7
370
50
100
AcDbPolyline
 90
4
 70
1
 10
800.0
 20
7275.0
 10
5990.0
 20
7275.0
 10
5990.0
 20
9975.0
 10
800.0
 20
9975.0
  0
HATCH
  5
9D
330
17
100
AcDbEntity
  8
AR-FIN
 62
7
420
16184300
100
AcDbHatch
 10
0.0
 20
0.0
 30
0.0
210
0.0
220
0.0
230
1.0
  2
SOLID
 70
1
 71
0
 91
1
 92
3
 72
0
 73
1
 93
4
 10
800.0
 20
7275.0
 10
1645.0
 20
7275.0
 10
1645.0
 20
9975.0
 10
800.0
 20
9975.0
 97
0
 75
1
 76
1
 98
0
  0
LWPOLYLINE
  5
9E
330
17
100
AcDbEntity
  8
AR-FIN
370
20
420
4473924
100
AcDbPolyline
 90
4
 70
1
 10
800.0
 20
7275.0
 10
1645.0
 20
7275.0
 10
1645.0
 20
9975.0
 10
800.0
 20
9975.0
  0
HATCH
  5
9F
330
17
100
AcDbEntity
  8
AR-FIN
 62
7
420
16184300
100
AcDbHatch
 10
0.0
 20
0.0
 30
0.0
210
0.0
220
0.0
230
1.0
  2
SOLID
 70
1
 71
0
 91
1
 92
3
 72
0
 73
1
 93
4
 10
4545.0
 20
7275.0
 10
4645.0
 20
7275.0
 10
4645.0
 20
9975.0
 10
4545.0
 20
9975.0
 97
0
 75
1
 76
1
 98
0
  0
LWPOLYLINE
  5
A0
330
17
100
AcDbEntity
  8
AR-FIN
370
20
420
4473924
100
AcDbPolyline
 90
4
 70
1
 10
4545.0
 20
7275.0
 10
4645.0
 20
7275.0
 10
4645.0
 20
9975.0
 10
4545.0
 20
9975.0
  0
HATCH
  5
A1
330
17
100
AcDbEntity
  8
AR-FIN
 62
7
420
14274496
100
AcDbHatch
 10
0.0
 20
0.0
 30
0.0
210
0.0
220
0.0
230
1.0
  2
SOLID
 70
1
 71
0
 91
1
 92
3
 72
0
 73
1
 93
4
 10
1645.0
 20
7275.0
 10
4545.0
 20
7275.0
 10
4545.0
 20
9975.0
 10
1645.0
 20
9975.0
 97
0
 75
1
 76
1
 98
0
  0
LWPOLYLINE
  5
A2
330
17
100
AcDbEntity
  8
AR-FIN
370
20
420
4473924
100
AcDbPolyline
 90
4
 70
1
 10
1645.0
 20
7275.0
 10
4545.0
 20
7275.0
 10
4545.0
 20
9975.0
 10
1645.0
 20
9975.0
  0
HATCH
  5
A3
330
17
100
AcDbEntity
  8
AR-FIN
 62
7
420
10066329
100
AcDbHatch
 10
0.0
 20
0.0
 30
0.0
210
0.0
220
0.0
230
1.0
  2
LINE
 70
0
 71
0
 91
1
 92
3
 72
0
 73
1
 93
4
 10
2165.0
 20
8125.0
 10
4025.0
 20
8125.0
 10
4025.0
 20
9725.0
 10
2165.0
 20
9725.0
 97
0
 75
1
 76
1
 52
0.0
 41
6.875000000000001
 77
0
 78
1
 53
0.0
 43
0.0
 44
0.0
 45
0.0
 46
21.828125
 79
0
 98
0
  0
HATCH
  5
A4
330
17
100
AcDbEntity
  8
AR-FIN
 62
7
420
15985368
440
33554559
100
AcDbHatch
 10
0.0
 20
0.0
 30
0.0
210
0.0
220
0.0
230
1.0
  2
SOLID
 70
1
 71
0
 91
1
 92
3
 72
0
 73
1
 93
4
 10
2165.0
 20
8125.0
 10
4025.0
 20
8125.0
 10
4025.0
 20
9725.0
 10
2165.0
 20
9725.0
 97
0
 75
1
 76
1
 98
0
  0
LWPOLYLINE
  5
A5
330
17
100
AcDbEntity
  8
AR-FIN
  6
DASHED
370
20
 48
75.0
420
4473924
100
AcDbPolyline
 90
4
 70
1
 10
2165.0
 20
8125.0
 10
4025.0
 20
8125.0
 10
4025.0
 20
9725.0
 10
2165.0
 20
9725.0
  0
HATCH
  5
A6
330
17
100
AcDbEntity
  8
AR-FIN
 62
7
420
13616307
100
AcDbHatch
 10
0.0
 20
0.0
 30
0.0
210
0.0
220
0.0
230
1.0
  2
SOLID
 70
1
 71
0
 91
1
 92
3
 72
0
 73
1
 93
4
 10
2165.0
 20
8125.0
 10
4025.0
 20
8125.0
 10
4025.0
 20
9725.0
 10
2165.0
 20
9725.0
 97
0
 75
1
 76
1
 98
0
  0
LWPOLYLINE
  5
A7
330
17
100
AcDbEntity
  8
AR-FIN
370
20
420
4473924
100
AcDbPolyline
 90
4
 70
1
 10
2165.0
 20
8125.0
 10
4025.0
 20
8125.0
 10
4025.0
 20
9725.0
 10
2165.0
 20
9725.0
  0
HATCH
  5
A8
330
17
100
AcDbEntity
  8
AR-FIN
 62
7
420
13616307
100
AcDbHatch
 10
0.0
 20
0.0
 30
0.0
210
0.0
220
0.0
230
1.0
  2
SOLID
 70
1
 71
0
 91
1
 92
3
 72
0
 73
1
 93
4
 10
2165.0
 20
7445.0
 10
4025.0
 20
7445.0
 10
4025.0
 20
8075.0
 10
2165.0
 20
8075.0
 97
0
 75
1
 76
1
 98
0
  0
LWPOLYLINE
  5
A9
330
17
100
AcDbEntity
  8
AR-FIN
370
20
420
4473924
100
AcDbPolyline
 90
4
 70
1
 10
2165.0
 20
7445.0
 10
4025.0
 20
7445.0
 10
4025.0
 20
8075.0
 10
2165.0
 20
8075.0
  0
HATCH
  5
AA
330
17
100
AcDbEntity
  8
AR-FIN
 62
7
420
13616307
100
AcDbHatch
 10
0.0
 20
0.0
 30
0.0
210
0.0
220
0.0
230
1.0
  2
SOLID
 70
1
 71
0
 91
1
 92
3
 72
0
 73
1
 93
4
 10
4075.0
 20
7445.0
 10
4545.0
 20
7445.0
 10
4545.0
 20
9675.0
 10
4075.0
 20
9675.0
 97
0
 75
1
 76
1
 98
0
  0
LWPOLYLINE
  5
AB
330
17
100
AcDbEntity
  8
AR-FIN
370
20
420
4473924
100
AcDbPolyline
 90
4
 70
1
 10
4075.0
 20
7445.0
 10
4545.0
 20
7445.0
 10
4545.0
 20
9675.0
 10
4075.0
 20
9675.0
  0
HATCH
  5
AC
330
17
100
AcDbEntity
  8
AR-FIN
 62
7
420
13616307
100
AcDbHatch
 10
0.0
 20
0.0
 30
0.0
210
0.0
220
0.0
230
1.0
  2
SOLID
 70
1
 71
0
 91
1
 92
3
 72
0
 73
1
 93
4
 10
1645.0
 20
7445.0
 10
2115.0
 20
7445.0
 10
2115.0
 20
9675.0
 10
1645.0
 20
9675.0
 97
0
 75
1
 76
1
 98
0
  0
LWPOLYLINE
  5
AD
330
17
100
AcDbEntity
  8
AR-FIN
370
20
420
4473924
100
AcDbPolyline
 90
4
 70
1
 10
1645.0
 20
7445.0
 10
2115.0
 20
7445.0
 10
2115.0
 20
9675.0
 10
1645.0
 20
9675.0
  0
HATCH
  5
AE
330
17
100
AcDbEntity
  8
AR-FIN
 62
7
420
14274496
100
AcDbHatch
 10
0.0
 20
0.0
 30
0.0
210
0.0
220
0.0
230
1.0
  2
SOLID
 70
1
 71
0
 91
1
 92
3
 72
0
 73
1
 93
4
 10
1645.0
 20
8095.0
 10
4545.0
 20
8095.0
 10
4545.0
 20
8155.0
 10
1645.0
 20
8155.0
 97
0
 75
1
 76
1
 98
0
  0
LWPOLYLINE
  5
AF
330
17
100
AcDbEntity
  8
AR-FIN
370
20
420
4473924
100
AcDbPolyline
 90
4
 70
1
 10
1645.0
 20
8095.0
 10
4545.0
 20
8095.0
 10
4545.0
 20
8155.0
 10
1645.0
 20
8155.0
  0
HATCH
  5
B0
330
17
100
AcDbEntity
  8
AR-FIN
 62
7
420
15525592
100
AcDbHatch
 10
0.0
 20
0.0
 30
0.0
210
0.0
220
0.0
230
1.0
  2
SOLID
 70
1
 71
0
 91
1
 92
3
 72
0
 73
1
 93
4
 10
1645.0
 20
9895.0
 10
4545.0
 20
9895.0
 10
4545.0
 20
9975.0
 10
1645.0
 20
9975.0
 97
0
 75
1
 76
1
 98
0
  0
LWPOLYLINE
  5
B1
330
17
100
AcDbEntity
  8
AR-FIN
370
20
420
4473924
100
AcDbPolyline
 90
4
 70
1
 10
1645.0
 20
9895.0
 10
4545.0
 20
9895.0
 10
4545.0
 20
9975.0
 10
1645.0
 20
9975.0
  0
HATCH
  5
B2
330
17
100
AcDbEntity
  8
FURN
 62
7
420
14930872
100
AcDbHatch
 10
0.0
 20
0.0
 30
0.0
210
0.0
220
0.0
230
1.0
  2
SOLID
 70
1
 71
0
 91
1
 92
3
 72
0
 73
1
 93
4
 10
2145.0
 20
7275.0
 10
4045.0000000000005
 20
7275.0
 10
4045.0000000000005
 20
8575.0
 10
2145.0
 20
8575.0
 97
0
 75
1
 76
1
 98
0
  0
LWPOLYLINE
  5
B3
330
17
100
AcDbEntity
  8
FURN
370
20
420
4473924
100
AcDbPolyline
 90
4
 70
1
 10
2145.0
 20
7275.0
 10
4045.0000000000005
 20
7275.0
 10
4045.0000000000005
 20
8575.0
 10
2145.0
 20
8575.0
  0
HATCH
  5
B4
330
17
100
AcDbEntity
  8
FURN
 62
7
420
14930872
100
AcDbHatch
 10
0.0
 20
0.0
 30
0.0
210
0.0
220
0.0
230
1.0
  2
SOLID
 70
1
 71
0
 91
1
 92
3
 72
0
 73
1
 93
4
 10
4045.0000000000005
 20
7575.0
 10
4545.0
 20
7575.0
 10
4545.0
 20
7925.0
 10
4045.0000000000005
 20
7925.0
 97
0
 75
1
 76
1
 98
0
  0
LWPOLYLINE
  5
B5
330
17
100
AcDbEntity
  8
FURN
370
20
420
4473924
100
AcDbPolyline
 90
4
 70
1
 10
4045.0000000000005
 20
7575.0
 10
4545.0
 20
7575.0
 10
4545.0
 20
7925.0
 10
4045.0000000000005
 20
7925.0
  0
HATCH
  5
B6
330
17
100
AcDbEntity
  8
FURN
 62
7
420
14930872
100
AcDbHatch
 10
0.0
 20
0.0
 30
0.0
210
0.0
220
0.0
230
1.0
  2
SOLID
 70
1
 71
0
 91
1
 92
3
 72
0
 73
1
 93
4
 10
1645.0
 20
7575.0
 10
2145.0
 20
7575.0
 10
2145.0
 20
7925.0
 10
1645.0
 20
7925.0
 97
0
 75
1
 76
1
 98
0
  0
LWPOLYLINE
  5
B7
330
17
100
AcDbEntity
  8
FURN
370
20
420
4473924
100
AcDbPolyline
 90
4
 70
1
 10
1645.0
 20
7575.0
 10
2145.0
 20
7575.0
 10
2145.0
 20
7925.0
 10
1645.0
 20
7925.0
  0
HATCH
  5
B8
330
17
100
AcDbEntity
  8
FURN
 62
7
420
14930872
100
AcDbHatch
 10
0.0
 20
0.0
 30
0.0
210
0.0
220
0.0
230
1.0
  2
SOLID
 70
1
 71
0
 91
1
 92
3
 72
0
 73
1
 93
4
 10
4645.0
 20
7275.0
 10
5390.0
 20
7275.0
 10
5390.0
 20
9975.0
 10
4645.0
 20
9975.0
 97
0
 75
1
 76
1
 98
0
  0
LWPOLYLINE
  5
B9
330
17
100
AcDbEntity
  8
FURN
370
20
420
4473924
100
AcDbPolyline
 90
4
 70
1
 10
4645.0
 20
7275.0
 10
5390.0
 20
7275.0
 10
5390.0
 20
9975.0
 10
4645.0
 20
9975.0
  0
HATCH
  5
BA
330
17
100
AcDbEntity
  8
FURN
 62
7
420
14930872
100
AcDbHatch
 10
0.0
 20
0.0
 30
0.0
210
0.0
220
0.0
230
1.0
  2
SOLID
 70
1
 71
0
 91
1
 92
3
 72
0
 73
1
 93
4
 10
5390.0
 20
7275.0
 10
5990.0
 20
7275.0
 10
5990.0
 20
9975.0
 10
5390.0
 20
9975.0
 97
0
 75
1
 76
1
 98
0
  0
LWPOLYLINE
  5
BB
330
17
100
AcDbEntity
  8
FURN
370
20
420
4473924
100
AcDbPolyline
 90
4
 70
1
 10
5390.0
 20
7275.0
 10
5990.0
 20
7275.0
 10
5990.0
 20
9975.0
 10
5390.0
 20
9975.0
  0
HATCH
  5
BC
330
17
100
AcDbEntity
  8
VK
 62
7
420
12092939
100
AcDbHatch
 10
0.0
 20
0.0
 30
0.0
210
0.0
220
0.0
230
1.0
  2
SOLID
 70
1
 71
0
 91
1
 92
1
 93
1
 72
2
 10
4295.0
 20
8425.0
 40
20.0
 50
0
 51
360
 73
1
 97
0
 75
1
 76
1
 98
0
  0
CIRCLE
  5
BD
330
17
100
AcDbEntity
  8
VK
370
13
420
12092939
100
AcDbCircle
 10
4295.0
 20
8425.0
 30
0.0
 40
20.0
  0
HATCH
  5
BE
330
17
100
AcDbEntity
  8
VK
 62
7
420
12092939
100
AcDbHatch
 10
0.0
 20
0.0
 30
0.0
210
0.0
220
0.0
230
1.0
  2
SOLID
 70
1
 71
0
 91
1
 92
1
 93
1
 72
2
 10
1895.0
 20
8425.0
 40
20.0
 50
0
 51
360
 73
1
 97
0
 75
1
 76
1
 98
0
  0
CIRCLE
  5
BF
330
17
100
AcDbEntity
  8
VK
370
13
420
12092939
100
AcDbCircle
 10
1895.0
 20
8425.0
 30
0.0
 40
20.0
  0
HATCH
  5
C0
330
17
100
AcDbEntity
  8
VK
 62
7
420
12092939
100
AcDbHatch
 10
0.0
 20
0.0
 30
0.0
210
0.0
220
0.0
230
1.0
  2
SOLID
 70
1
 71
0
 91
1
 92
1
 93
1
 72
2
 10
4401.0
 20
8025.0
 40
20.0
 50
0
 51
360
 73
1
 97
0
 75
1
 76
1
 98
0
  0
CIRCLE
  5
C1
330
17
100
AcDbEntity
  8
VK
370
13
420
12092939
100
AcDbCircle
 10
4401.0
 20
8025.0
 30
0.0
 40
20.0
  0
HATCH
  5
C2
330
17
100
AcDbEntity
  8
VK
 62
7
420
12092939
100
AcDbHatch
 10
0.0
 20
0.0
 30
0.0
210
0.0
220
0.0
230
1.0
  2
SOLID
 70
1
 71
0
 91
1
 92
1
 93
1
 72
2
 10
1700.9999999999998
 20
8025.0
 40
20.0
 50
0
 51
360
 73
1
 97
0
 75
1
 76
1
 98
0
  0
CIRCLE
  5
C3
330
17
100
AcDbEntity
  8
VK
370
13
420
12092939
100
AcDbCircle
 10
1700.9999999999998
 20
8025.0
 30
0.0
 40
20.0
  0
HATCH
  5
C4
330
17
100
AcDbEntity
  8
EL-SOCKET
 62
7
420
9323693
100
AcDbHatch
 10
0.0
 20
0.0
 30
0.0
210
0.0
220
0.0
230
1.0
  2
SOLID
 70
1
 71
0
 91
1
 92
1
 93
1
 72
2
 10
4161.0
 20
8025.0
 40
20.0
 50
0
 51
360
 73
1
 97
0
 75
1
 76
1
 98
0
  0
CIRCLE
  5
C5
330
17
100
AcDbEntity
  8
EL-SOCKET
370
13
420
9323693
100
AcDbCircle
 10
4161.0
 20
8025.0
 30
0.0
 40
20.0
  0
HATCH
  5
C6
330
17
100
AcDbEntity
  8
EL-SOCKET
 62
7
420
9323693
100
AcDbHatch
 10
0.0
 20
0.0
 30
0.0
210
0.0
220
0.0
230
1.0
  2
SOLID
 70
1
 71
0
 91
1
 92
1
 93
1
 72
2
 10
2011.0
 20
8025.0
 40
20.0
 50
0
 51
360
 73
1
 97
0
 75
1
 76
1
 98
0
  0
CIRCLE
  5
C7
330
17
100
AcDbEntity
  8
EL-SOCKET
370
13
420
9323693
100
AcDbCircle
 10
2011.0
 20
8025.0
 30
0.0
 40
20.0
  0
HATCH
  5
C8
330
17
100
AcDbEntity
  8
EL-SOCKET
 62
7
420
9323693
100
AcDbHatch
 10
0.0
 20
0.0
 30
0.0
210
0.0
220
0.0
230
1.0
  2
SOLID
 70
1
 71
0
 91
1
 92
1
 93
1
 72
2
 10
3095.0
 20
9875.0
 40
20.0
 50
0
 51
360
 73
1
 97
0
 75
1
 76
1
 98
0
  0
CIRCLE
  5
C9
330
17
100
AcDbEntity
  8
EL-SOCKET
370
13
420
9323693
100
AcDbCircle
 10
3095.0
 20
9875.0
 30
0.0
 40
20.0
  0
TEXT
  5
CA
330
17
100
AcDbEntity
  8
TEXT
420
12092939
100
AcDbText
 10
4370.0
 20
8500.0
 30
0.0
 40
37.5
  1
16
  7
GOST
 11
4370.0
 21
8500.0
 31
0.0
100
AcDbText
  0
LWPOLYLINE
  5
CB
330
17
100
AcDbEntity
  8
TEXT
370
15
420
12092939
100
AcDbPolyline
 90
2
 70
0
 10
4295.0
 20
8425.0
 10
4370.0
 20
8500.0
  0
TEXT
  5
CC
330
17
100
AcDbEntity
  8
TEXT
420
12092939
100
AcDbText
 10
1970.0
 20
8500.0
 30
0.0
 40
37.5
  1
17
  7
GOST
 11
1970.0
 21
8500.0
 31
0.0
100
AcDbText
  0
LWPOLYLINE
  5
CD
330
17
100
AcDbEntity
  8
TEXT
370
15
420
12092939
100
AcDbPolyline
 90
2
 70
0
 10
1895.0
 20
8425.0
 10
1970.0
 20
8500.0
  0
TEXT
  5
CE
330
17
100
AcDbEntity
  8
TEXT
420
12092939
100
AcDbText
 10
4476.0
 20
8100.0
 30
0.0
 40
37.5
  1
18
  7
GOST
 11
4476.0
 21
8100.0
 31
0.0
100
AcDbText
  0
LWPOLYLINE
  5
CF
330
17
100
AcDbEntity
  8
TEXT
370
15
420
12092939
100
AcDbPolyline
 90
2
 70
0
 10
4401.0
 20
8025.0
 10
4476.0
 20
8100.0
  0
TEXT
  5
D0
330
17
100
AcDbEntity
  8
TEXT
420
12092939
100
AcDbText
 10
1775.9999999999998
 20
8100.0
 30
0.0
 40
37.5
  1
19
  7
GOST
 11
1775.9999999999998
 21
8100.0
 31
0.0
100
AcDbText
  0
LWPOLYLINE
  5
D1
330
17
100
AcDbEntity
  8
TEXT
370
15
420
12092939
100
AcDbPolyline
 90
2
 70
0
 10
1700.9999999999998
 20
8025.0
 10
1775.9999999999998
 20
8100.0
  0
TEXT
  5
D2
330
17
100
AcDbEntity
  8
TEXT
420
9323693
100
AcDbText
 10
4236.0
 20
8100.0
 30
0.0
 40
37.5
  1
20
  7
GOST
 11
4236.0
 21
8100.0
 31
0.0
100
AcDbText
  0
LWPOLYLINE
  5
D3
330
17
100
AcDbEntity
  8
TEXT
370
15
420
9323693
100
AcDbPolyline
 90
2
 70
0
 10
4161.0
 20
8025.0
 10
4236.0
 20
8100.0
  0
TEXT
  5
D4
330
17
100
AcDbEntity
  8
TEXT
420
9323693
100
AcDbText
 10
2086.0
 20
8100.0
 30
0.0
 40
37.5
  1
21
  7
GOST
 11
2086.0
 21
8100.0
 31
0.0
100
AcDbText
  0
LWPOLYLINE
  5
D5
330
17
100
AcDbEntity
  8
TEXT
370
15
420
9323693
100
AcDbPolyline
 90
2
 70
0
 10
2011.0
 20
8025.0
 10
2086.0
 20
8100.0
  0
TEXT
  5
D6
330
17
100
AcDbEntity
  8
TEXT
420
9323693
100
AcDbText
 10
3063.5611175411523
 20
10012.5
 30
0.0
 40
37.5
  1
22
  7
GOST
 11
3063.5611175411523
 21
10012.5
 31
0.0
100
AcDbText
  0
LWPOLYLINE
  5
D7
330
17
100
AcDbEntity
  8
TEXT
370
15
420
9323693
100
AcDbPolyline
 90
2
 70
0
 10
3095.0
 20
9875.0
 10
3095.0
 20
10005.0
  0
HATCH
  5
D8
330
17
100
AcDbEntity
  8
TEXT
 62
7
420
9323693
100
AcDbHatch
 10
0.0
 20
0.0
 30
0.0
210
0.0
220
0.0
230
1.0
  2
SOLID
 70
1
 71
0
 91
1
 92
1
 93
1
 72
2
 10
3095.0
 20
9875.0
 40
6.25
 50
0
 51
360
 73
1
 97
0
 75
1
 76
1
 98
0
  0
CIRCLE
  5
D9
330
17
100
AcDbEntity
  8
TEXT
370
13
420
9323693
100
AcDbCircle
 10
3095.0
 20
9875.0
 30
0.0
 40
6.25
  0
TEXT
  5
DA
330
17
100
AcDbEntity
  8
TEXT
420
3355443
100
AcDbText
 10
1297.5
 20
8700.0
 30
0.0
 40
37.5
  1
1
  7
GOST
 11
1297.5
 21
8700.0
 31
0.0
100
AcDbText
  0
LWPOLYLINE
  5
DB
330
17
100
AcDbEntity
  8
TEXT
370
15
420
7829367
100
AcDbPolyline
 90
2
 70
0
 10
1222.5
 20
8625.0
 10
1297.5
 20
8700.0
  0
TEXT
  5
DC
330
17
100
AcDbEntity
  8
TEXT
420
3355443
100
AcDbText
 10
4670.0
 20
8700.0
 30
0.0
 40
37.5
  1
2
  7
GOST
 11
4670.0
 21
8700.0
 31
0.0
100
AcDbText
  0
LWPOLYLINE
  5
DD
330
17
100
AcDbEntity
  8
TEXT
370
15
420
7829367
100
AcDbPolyline
 90
2
 70
0
 10
4595.0
 20
8625.0
 10
4670.0
 20
8700.0
  0
TEXT
  5
DE
330
17
100
AcDbEntity
  8
TEXT
420
3355443
100
AcDbText
 10
3170.0000000000005
 20
8700.0
 30
0.0
 40
37.5
  1
3
  7
GOST
 11
3170.0000000000005
 21
8700.0
 31
0.0
100
AcDbText
  0
LWPOLYLINE
  5
DF
330
17
100
AcDbEntity
  8
TEXT
370
15
420
7829367
100
AcDbPolyline
 90
2
 70
0
 10
3095.0000000000005
 20
8625.0
 10
3170.0000000000005
 20
8700.0
  0
TEXT
  5
E0
330
17
100
AcDbEntity
  8
TEXT
420
3355443
100
AcDbText
 10
3170.0
 20
9000.0
 30
0.0
 40
37.5
  1
4
  7
GOST
 11
3170.0
 21
9000.0
 31
0.0
100
AcDbText
  0
LWPOLYLINE
  5
E1
330
17
100
AcDbEntity
  8
TEXT
370
15
420
7829367
100
AcDbPolyline
 90
2
 70
0
 10
3095.0
 20
8925.0
 10
3170.0
 20
9000.0
  0
TEXT
  5
E2
330
17
100
AcDbEntity
  8
TEXT
420
3355443
100
AcDbText
 10
3170.0
 20
9000.0
 30
0.0
 40
37.5
  1
5
  7
GOST
 11
3170.0
 21
9000.0
 31
0.0
100
AcDbText
  0
LWPOLYLINE
  5
E3
330
17
100
AcDbEntity
  8
TEXT
370
15
420
7829367
100
AcDbPolyline
 90
2
 70
0
 10
3095.0
 20
8925.0
 10
3170.0
 20
9000.0
  0
TEXT
  5
E4
330
17
100
AcDbEntity
  8
TEXT
420
3355443
100
AcDbText
 10
3170.0
 20
7834.999999999999
 30
0.0
 40
37.5
  1
6
  7
GOST
 11
3170.0
 21
7834.999999999999
 31
0.0
100
AcDbText
  0
LWPOLYLINE
  5
E5
330
17
100
AcDbEntity
  8
TEXT
370
15
420
7829367
100
AcDbPolyline
 90
2
 70
0
 10
3095.0
 20
7759.999999999999
 10
3170.0
 20
7834.999999999999
  0
TEXT
  5
E6
330
17
100
AcDbEntity
  8
TEXT
420
3355443
100
AcDbText
 10
4385.0
 20
8635.0
 30
0.0
 40
37.5
  1
7
  7
GOST
 11
4385.0
 21
8635.0
 31
0.0
100
AcDbText
  0
LWPOLYLINE
  5
E7
330
17
100
AcDbEntity
  8
TEXT
370
15
420
7829367
100
AcDbPolyline
 90
2
 70
0
 10
4310.0
 20
8560.0
 10
4385.0
 20
8635.0
  0
TEXT
  5
E8
330
17
100
AcDbEntity
  8
TEXT
420
3355443
100
AcDbText
 10
1954.9999999999998
 20
8635.0
 30
0.0
 40
37.5
  1
8
  7
GOST
 11
1954.9999999999998
 21
8635.0
 31
0.0
100
AcDbText
  0
LWPOLYLINE
  5
E9
330
17
100
AcDbEntity
  8
TEXT
370
15
420
7829367
100
AcDbPolyline
 90
2
 70
0
 10
1879.9999999999998
 20
8560.0
 10
1954.9999999999998
 20
8635.0
  0
TEXT
  5
EA
330
17
100
AcDbEntity
  8
TEXT
420
3355443
100
AcDbText
 10
3170.0000000000005
 20
8200.0
 30
0.0
 40
37.5
  1
9
  7
GOST
 11
3170.0000000000005
 21
8200.0
 31
0.0
100
AcDbText
  0
LWPOLYLINE
  5
EB
330
17
100
AcDbEntity
  8
TEXT
370
15
420
7829367
100
AcDbPolyline
 90
2
 70
0
 10
3095.0000000000005
 20
8125.0
 10
3170.0000000000005
 20
8200.0
  0
TEXT
  5
EC
330
17
100
AcDbEntity
  8
TEXT
420
3355443
100
AcDbText
 10
3174.549512883487
 20
10014.549512883486
 30
0.0
 40
37.5
  1
10
  7
GOST
 11
3174.549512883487
 21
10014.549512883486
 31
0.0
100
AcDbText
  0
LWPOLYLINE
  5
ED
330
17
100
AcDbEntity
  8
TEXT
370
15
420
7829367
100
AcDbPolyline
 90
2
 70
0
 10
3095.0000000000005
 20
9935.0
 10
3167.049512883487
 20
10007.049512883486
  0
HATCH
  5
EE
330
17
100
AcDbEntity
  8
TEXT
 62
7
420
7829367
100
AcDbHatch
 10
0.0
 20
0.0
 30
0.0
210
0.0
220
0.0
230
1.0
  2
SOLID
 70
1
 71
0
 91
1
 92
1
 93
1
 72
2
 10
3095.0000000000005
 20
9935.0
 40
6.25
 50
0
 51
360
 73
1
 97
0
 75
1
 76
1
 98
0
  0
CIRCLE
  5
EF
330
17
100
AcDbEntity
  8
TEXT
370
13
420
7829367
100
AcDbCircle
 10
3095.0000000000005
 20
9935.0
 30
0.0
 40
6.25
  0
TEXT
  5
F0
330
17
100
AcDbEntity
  8
TEXT
420
3355443
100
AcDbText
 10
3170.0000000000005
 20
8000.0
 30
0.0
 40
37.5
  1
11
  7
GOST
 11
3170.0000000000005
 21
8000.0
 31
0.0
100
AcDbText
  0
LWPOLYLINE
  5
F1
330
17
100
AcDbEntity
  8
TEXT
370
15
420
7829367
100
AcDbPolyline
 90
2
 70
0
 10
3095.0000000000005
 20
7925.0
 10
3170.0000000000005
 20
8000.0
  0
TEXT
  5
F2
330
17
100
AcDbEntity
  8
TEXT
420
3355443
100
AcDbText
 10
4370.0
 20
7825.0
 30
0.0
 40
37.5
  1
12
  7
GOST
 11
4370.0
 21
7825.0
 31
0.0
100
AcDbText
  0
LWPOLYLINE
  5
F3
330
17
100
AcDbEntity
  8
TEXT
370
15
420
7829367
100
AcDbPolyline
 90
2
 70
0
 10
4295.0
 20
7750.0
 10
4370.0
 20
7825.0
  0
TEXT
  5
F4
330
17
100
AcDbEntity
  8
TEXT
420
3355443
100
AcDbText
 10
1970.0
 20
7825.0
 30
0.0
 40
37.5
  1
13
  7
GOST
 11
1970.0
 21
7825.0
 31
0.0
100
AcDbText
  0
LWPOLYLINE
  5
F5
330
17
100
AcDbEntity
  8
TEXT
370
15
420
7829367
100
AcDbPolyline
 90
2
 70
0
 10
1895.0
 20
7750.0
 10
1970.0
 20
7825.0
  0
TEXT
  5
F6
330
17
100
AcDbEntity
  8
TEXT
420
3355443
100
AcDbText
 10
5092.5
 20
8700.0
 30
0.0
 40
37.5
  1
14
  7
GOST
 11
5092.5
 21
8700.0
 31
0.0
100
AcDbText
  0
LWPOLYLINE
  5
F7
330
17
100
AcDbEntity
  8
TEXT
370
15
420
7829367
100
AcDbPolyline
 90
2
 70
0
 10
5017.5
 20
8625.0
 10
5092.5
 20
8700.0
  0
TEXT
  5
F8
330
17
100
AcDbEntity
  8
TEXT
420
3355443
100
AcDbText
 10
5765.0
 20
8700.0
 30
0.0
 40
37.5
  1
15
  7
GOST
 11
5765.0
 21
8700.0
 31
0.0
100
AcDbText
  0
LWPOLYLINE
  5
F9
330
17
100
AcDbEntity
  8
TEXT
370
15
420
7829367
100
AcDbPolyline
 90
2
 70
0
 10
5690.0
 20
8625.0
 10
5765.0
 20
8700.0
  0
LWPOLYLINE
  5
FA
330
17
100
AcDbEntity
  8
DIM
 62
7
370
15
100
AcDbPolyline
 90
2
 70
0
 10
775.0
 20
7175.0
 10
6015.0
 20
7175.0
  0
LWPOLYLINE
  5
FB
330
17
100
AcDbEntity
  8
DIM
 62
7
370
30
100
AcDbPolyline
 90
2
 70
0
 10
782.5
 20
7157.5
 10
817.5000000000001
 20
7192.5
  0
LWPOLYLINE
  5
FC
330
17
100
AcDbEntity
  8
DIM
 62
7
370
13
100
AcDbPolyline
 90
2
 70
0
 10
800.0
 20
7175.0
 10
800.0
 20
7237.5
  0
LWPOLYLINE
  5
FD
330
17
100
AcDbEntity
  8
DIM
 62
7
370
30
100
AcDbPolyline
 90
2
 70
0
 10
1683.4999999999998
 20
7157.5
 10
1718.4999999999998
 20
7192.5
  0
LWPOLYLINE
  5
FE
330
17
100
AcDbEntity
  8
DIM
 62
7
370
13
100
AcDbPolyline
 90
2
 70
0
 10
1700.9999999999998
 20
7175.0
 10
1700.9999999999998
 20
7237.5
  0
LWPOLYLINE
  5
FF
330
17
100
AcDbEntity
  8
DIM
 62
7
370
30
100
AcDbPolyline
 90
2
 70
0
 10
1877.4999999999998
 20
7157.5
 10
1912.5
 20
7192.5
  0
LWPOLYLINE
  5
100
330
17
100
AcDbEntity
  8
DIM
 62
7
370
13
100
AcDbPolyline
 90
2
 70
0
 10
1895.0
 20
7175.0
 10
1895.0
 20
7237.5
  0
LWPOLYLINE
  5
101
330
17
100
AcDbEntity
  8
DIM
 62
7
370
30
100
AcDbPolyline
 90
2
 70
0
 10
1993.4999999999998
 20
7157.5
 10
2028.5
 20
7192.5
  0
LWPOLYLINE
  5
102
330
17
100
AcDbEntity
  8
DIM
 62
7
370
13
100
AcDbPolyline
 90
2
 70
0
 10
2011.0
 20
7175.0
 10
2011.0
 20
7237.5
  0
LWPOLYLINE
  5
103
330
17
100
AcDbEntity
  8
DIM
 62
7
370
30
100
AcDbPolyline
 90
2
 70
0
 10
3077.5
 20
7157.5
 10
3112.5
 20
7192.5
  0
LWPOLYLINE
  5
104
330
17
100
AcDbEntity
  8
DIM
 62
7
370
13
100
AcDbPolyline
 90
2
 70
0
 10
3095.0
 20
7175.0
 10
3095.0
 20
7237.5
  0
LWPOLYLINE
  5
105
330
17
100
AcDbEntity
  8
DIM
 62
7
370
30
100
AcDbPolyline
 90
2
 70
0
 10
4143.5
 20
7157.5
 10
4178.5
 20
7192.5
  0
LWPOLYLINE
  5
106
330
17
100
AcDbEntity
  8
DIM
 62
7
370
13
100
AcDbPolyline
 90
2
 70
0
 10
4161.0
 20
7175.0
 10
4161.0
 20
7237.5
  0
LWPOLYLINE
  5
107
330
17
100
AcDbEntity
  8
DIM
 62
7
370
30
100
AcDbPolyline
 90
2
 70
0
 10
4277.500000000001
 20
7157.5
 10
4312.5
 20
7192.5
  0
LWPOLYLINE
  5
108
330
17
100
AcDbEntity
  8
DIM
 62
7
370
13
100
AcDbPolyline
 90
2
 70
0
 10
4295.0
 20
7175.0
 10
4295.0
 20
7237.5
  0
LWPOLYLINE
  5
109
330
17
100
AcDbEntity
  8
DIM
 62
7
370
30
100
AcDbPolyline
 90
2
 70
0
 10
4383.5
 20
7157.5
 10
4418.499999999999
 20
7192.5
  0
LWPOLYLINE
  5
10A
330
17
100
AcDbEntity
  8
DIM
 62
7
370
13
100
AcDbPolyline
 90
2
 70
0
 10
4401.0
 20
7175.0
 10
4401.0
 20
7237.5
  0
LWPOLYLINE
  5
10B
330
17
100
AcDbEntity
  8
DIM
 62
7
370
30
100
AcDbPolyline
 90
2
 70
0
 10
5972.5
 20
7157.5
 10
6007.5
 20
7192.5
  0
LWPOLYLINE
  5
10C
330
17
100
AcDbEntity
  8
DIM
 62
7
370
13
100
AcDbPolyline
 90
2
 70
0
 10
5990.0
 20
7175.0
 10
5990.0
 20
7237.5
  0
TEXT
  5
10D
330
17
100
AcDbEntity
  8
DIM
 62
7
100
AcDbText
 10
1250.5
 20
7187.5
 30
0.0
 40
35.0
  1
901
  7
GOST
 72
1
 11
1250.5
 21
7187.5
 31
0.0
100
AcDbText
  0
TEXT
  5
10E
330
17
100
AcDbEntity
  8
DIM
 62
7
100
AcDbText
 10
1797.9999999999998
 20
7187.5
 30
0.0
 40
35.0
  1
194
  7
GOST
 72
1
 11
1797.9999999999998
 21
7187.5
 31
0.0
100
AcDbText
  0
TEXT
  5
10F
330
17
100
AcDbEntity
  8
DIM
 62
7
100
AcDbText
 10
1953.0
 20
7187.5
 30
0.0
 40
35.0
  1
116
  7
GOST
 72
1
 11
1953.0
 21
7187.5
 31
0.0
100
AcDbText
  0
TEXT
  5
110
330
17
100
AcDbEntity
  8
DIM
 62
7
100
AcDbText
 10
2553.0
 20
7187.5
 30
0.0
 40
35.0
  1
1084
  7
GOST
 72
1
 11
2553.0
 21
7187.5
 31
0.0
100
AcDbText
  0
TEXT
  5
111
330
17
100
AcDbEntity
  8
DIM
 62
7
100
AcDbText
 10
3628.0
 20
7187.5
 30
0.0
 40
35.0
  1
1066
  7
GOST
 72
1
 11
3628.0
 21
7187.5
 31
0.0
100
AcDbText
  0
TEXT
  5
112
330
17
100
AcDbEntity
  8
DIM
 62
7
100
AcDbText
 10
4228.0
 20
7187.5
 30
0.0
 40
35.0
  1
134
  7
GOST
 72
1
 11
4228.0
 21
7187.5
 31
0.0
100
AcDbText
  0
TEXT
  5
113
330
17
100
AcDbEntity
  8
DIM
 62
7
100
AcDbText
 10
4348.0
 20
7115.000000000001
 30
0.0
 40
35.0
  1
106
  7
GOST
 72
1
 11
4348.0
 21
7115.000000000001
 31
0.0
100
AcDbText
  0
TEXT
  5
114
330
17
100
AcDbEntity
  8
DIM
 62
7
100
AcDbText
 10
5195.5
 20
7187.5
 30
0.0
 40
35.0
  1
1589
  7
GOST
 72
1
 11
5195.5
 21
7187.5
 31
0.0
100
AcDbText
  0
LWPOLYLINE
  5
115
330
17
100
AcDbEntity
  8
DIM
 62
7
370
15
100
AcDbPolyline
 90
2
 70
0
 10
775.0
 20
7062.5
 10
6015.0
 20
7062.5
  0
LWPOLYLINE
  5
116
330
17
100
AcDbEntity
  8
DIM
 62
7
370
30
100
AcDbPolyline
 90
2
 70
0
 10
782.5
 20
7045.0
 10
817.5000000000001
 20
7080.0
  0
LWPOLYLINE
  5
117
330
17
100
AcDbEntity
  8
DIM
 62
7
370
13
100
AcDbPolyline
 90
2
 70
0
 10
800.0
 20
7062.5
 10
800.0
 20
7125.0
  0
LWPOLYLINE
  5
118
330
17
100
AcDbEntity
  8
DIM
 62
7
370
30
100
AcDbPolyline
 90
2
 70
0
 10
5972.5
 20
7045.0
 10
6007.5
 20
7080.0
  0
LWPOLYLINE
  5
119
330
17
100
AcDbEntity
  8
DIM
 62
7
370
13
100
AcDbPolyline
 90
2
 70
0
 10
5990.0
 20
7062.5
 10
5990.0
 20
7125.0
  0
TEXT
  5
11A
330
17
100
AcDbEntity
  8
DIM
 62
7
100
AcDbText
 10
3395.0000000000005
 20
7075.0
 30
0.0
 40
40.0
  1
5190
  7
GOST
 72
1
 11
3395.0000000000005
 21
7075.0
 31
0.0
100
AcDbText
  0
LWPOLYLINE
  5
11B
330
17
100
AcDbEntity
  8
DIM
 62
7
370
15
100
AcDbPolyline
 90
2
 70
0
 10
700.0
 20
7250.0
 10
700.0
 20
10000.0
  0
LWPOLYLINE
  5
11C
330
17
100
AcDbEntity
  8
DIM
 62
7
370
30
100
AcDbPolyline
 90
2
 70
0
 10
682.5
 20
7257.5
 10
717.5
 20
7292.5
  0
LWPOLYLINE
  5
11D
330
17
100
AcDbEntity
  8
DIM
 62
7
370
13
100
AcDbPolyline
 90
2
 70
0
 10
700.0
 20
7275.0
 10
762.5
 20
7275.0
  0
LWPOLYLINE
  5
11E
330
17
100
AcDbEntity
  8
DIM
 62
7
370
30
100
AcDbPolyline
 90
2
 70
0
 10
682.5
 20
8007.5
 10
717.5
 20
8042.5
  0
LWPOLYLINE
  5
11F
330
17
100
AcDbEntity
  8
DIM
 62
7
370
13
100
AcDbPolyline
 90
2
 70
0
 10
700.0
 20
8025.0
 10
762.5
 20
8025.0
  0
LWPOLYLINE
  5
120
330
17
100
AcDbEntity
  8
DIM
 62
7
370
30
100
AcDbPolyline
 90
2
 70
0
 10
682.5
 20
8407.5
 10
717.5
 20
8442.5
  0
LWPOLYLINE
  5
121
330
17
100
AcDbEntity
  8
DIM
 62
7
370
13
100
AcDbPolyline
 90
2
 70
0
 10
700.0
 20
8425.0
 10
762.5
 20
8425.0
  0
LWPOLYLINE
  5
122
330
17
100
AcDbEntity
  8
DIM
 62
7
370
30
100
AcDbPolyline
 90
2
 70
0
 10
682.5
 20
9857.5
 10
717.5
 20
9892.5
  0
LWPOLYLINE
  5
123
330
17
100
AcDbEntity
  8
DIM
 62
7
370
13
100
AcDbPolyline
 90
2
 70
0
 10
700.0
 20
9875.0
 10
762.5
 20
9875.0
  0
LWPOLYLINE
  5
124
330
17
100
AcDbEntity
  8
DIM
 62
7
370
30
100
AcDbPolyline
 90
2
 70
0
 10
682.5
 20
9957.5
 10
717.5
 20
9992.5
  0
LWPOLYLINE
  5
125
330
17
100
AcDbEntity
  8
DIM
 62
7
370
13
100
AcDbPolyline
 90
2
 70
0
 10
700.0
 20
9975.0
 10
762.5
 20
9975.0
  0
TEXT
  5
126
330
17
100
AcDbEntity
  8
DIM
 62
7
100
AcDbText
 10
687.5
 20
7650.0
 30
0.0
 40
35.0
  1
750
 50
90.0
  7
GOST
 72
1
 11
687.5
 21
7650.0
 31
0.0
100
AcDbText
  0
TEXT
  5
127
330
17
100
AcDbEntity
  8
DIM
 62
7
100
AcDbText
 10
687.5
 20
8225.0
 30
0.0
 40
35.0
  1
400
 50
90.0
  7
GOST
 72
1
 11
687.5
 21
8225.0
 31
0.0
100
AcDbText
  0
TEXT
  5
128
330
17
100
AcDbEntity
  8
DIM
 62
7
100
AcDbText
 10
687.5
 20
9150.0
 30
0.0
 40
35.0
  1
1450
 50
90.0
  7
GOST
 72
1
 11
687.5
 21
9150.0
 31
0.0
100
AcDbText
  0
TEXT
  5
129
330
17
100
AcDbEntity
  8
DIM
 62
7
100
AcDbText
 10
627.5
 20
9925.0
 30
0.0
 40
35.0
  1
100
 50
90.0
  7
GOST
 72
1
 11
627.5
 21
9925.0
 31
0.0
100
AcDbText
  0
TEXT
  5
12A
330
17
100
AcDbEntity
  8
TEXT
 62
7
100
AcDbText
 10
6015.0
 20
7257.5
 30
0.0
 40
37.5
  1
±0.000
  7
GOST
 11
6015.0
 21
7257.5
 31
0.0
100
AcDbText
  0
TEXT
  5
12B
330
17
100
AcDbEntity
  8
TEXT
 62
7
100
AcDbText
 10
6015.0
 20
9957.5
 30
0.0
 40
37.5
  1
+2.700
  7
GOST
 11
6015.0
 21
9957.5
 31
0.0
100
AcDbText
  0
HATCH
  5
12C
330
17
100
AcDbEntity
  8
TEXT
 62
7
420
15132390
100
AcDbHatch
 10
0.0
 20
0.0
 30
0.0
210
0.0
220
0.0
230
1.0
  2
SOLID
 70
1
 71
0
 91
1
 92
3
 72
0
 73
1
 93
4
 10
6090.0
 20
10196.25
 10
8490.0
 20
10196.25
 10
8490.0
 20
10300.0
 10
6090.0
 20
10300.0
 97
0
 75
1
 76
1
 98
0
  0
LWPOLYLINE
  5
12D
330
17
100
AcDbEntity
  8
TEXT
 62
7
370
25
100
AcDbPolyline
 90
4
 70
1
 10
6090.0
 20
10196.25
 10
8490.0
 20
10196.25
 10
8490.0
 20
10300.0
 10
6090.0
 20
10300.0
  0
LWPOLYLINE
  5
12E
330
17
100
AcDbEntity
  8
TEXT
 62
7
370
15
100
AcDbPolyline
 90
2
 70
0
 10
6090.0
 20
10300.0
 10
6090.0
 20
10196.25
  0
TEXT
  5
12F
330
17
100
AcDbEntity
  8
TEXT
 62
7
100
AcDbText
 10
6110.0
 20
10241.25
 30
0.0
 40
33.75
  1
№
  7
GOST
 11
6110.0
 21
10241.25
 31
0.0
100
AcDbText
  0
LWPOLYLINE
  5
130
330
17
100
AcDbEntity
  8
TEXT
 62
7
370
15
100
AcDbPolyline
 90
2
 70
0
 10
6240.0
 20
10300.0
 10
6240.0
 20
10196.25
  0
TEXT
  5
131
330
17
100
AcDbEntity
  8
TEXT
 62
7
100
AcDbText
 10
6260.0
 20
10241.25
 30
0.0
 40
33.75
  1
Элемент
  7
GOST
 11
6260.0
 21
10241.25
 31
0.0
100
AcDbText
  0
LWPOLYLINE
  5
132
330
17
100
AcDbEntity
  8
TEXT
 62
7
370
15
100
AcDbPolyline
 90
2
 70
0
 10
7640.000000000001
 20
10300.0
 10
7640.000000000001
 20
10196.25
  0
TEXT
  5
133
330
17
100
AcDbEntity
  8
TEXT
 62
7
100
AcDbText
 10
7660.000000000001
 20
10241.25
 30
0.0
 40
33.75
  1
s, мм
  7
GOST
 11
7660.000000000001
 21
10241.25
 31
0.0
100
AcDbText
  0
LWPOLYLINE
  5
134
330
17
100
AcDbEntity
  8
TEXT
 62
7
370
15
100
AcDbPolyline
 90
2
 70
0
 10
8065.000000000001
 20
10300.0
 10
8065.000000000001
 20
10196.25
  0
TEXT
  5
135
330
17
100
AcDbEntity
  8
TEXT
 62
7
100
AcDbText
 10
8085.000000000001
 20
10241.25
 30
0.0
 40
33.75
  1
z, мм
  7
GOST
 11
8085.000000000001
 21
10241.25
 31
0.0
100
AcDbText
  0
LWPOLYLINE
  5
136
330
17
100
AcDbEntity
  8
TEXT
 62
7
370
15
100
AcDbPolyline
 90
2
 70
0
 10
8490.0
 20
10300.0
 10
8490.0
 20
10196.25
  0
LWPOLYLINE
  5
137
330
17
100
AcDbEntity
  8
TEXT
 62
7
370
15
100
AcDbPolyline
 90
4
 70
1
 10
6090.0
 20
10112.5
 10
8490.0
 20
10112.5
 10
8490.0
 20
10196.25
 10
6090.0
 20
10196.25
  0
LWPOLYLINE
  5
138
330
17
100
AcDbEntity
  8
TEXT
 62
7
370
15
100
AcDbPolyline
 90
2
 70
0
 10
6090.0
 20
10196.25
 10
6090.0
 20
10112.5
  0
TEXT
  5
139
330
17
100
AcDbEntity
  8
TEXT
 62
7
100
AcDbText
 10
6110.0
 20
10137.5
 30
0.0
 40
33.75
  1
1
  7
GOST
 11
6110.0
 21
10137.5
 31
0.0
100
AcDbText
  0
LWPOLYLINE
  5
13A
330
17
100
AcDbEntity
  8
TEXT
 62
7
370
15
100
AcDbPolyline
 90
2
 70
0
 10
6240.0
 20
10196.25
 10
6240.0
 20
10112.5
  0
TEXT
  5
13B
330
17
100
AcDbEntity
  8
TEXT
 62
7
100
AcDbText
 10
6260.0
 20
10137.5
 30
0.0
 40
33.75
  1
краска C2 класс 2
  7
GOST
 11
6260.0
 21
10137.5
 31
0.0
100
AcDbText
  0
LWPOLYLINE
  5
13C
330
17
100
AcDbEntity
  8
TEXT
 62
7
370
15
100
AcDbPolyline
 90
2
 70
0
 10
7640.000000000001
 20
10196.25
 10
7640.000000000001
 20
10112.5
  0
TEXT
  5
13D
330
17
100
AcDbEntity
  8
TEXT
 62
7
100
AcDbText
 10
7660.000000000001
 20
10137.5
 30
0.0
 40
33.75
  1
8066..8911
  7
GOST
 11
7660.000000000001
 21
10137.5
 31
0.0
100
AcDbText
  0
LWPOLYLINE
  5
13E
330
17
100
AcDbEntity
  8
TEXT
 62
7
370
15
100
AcDbPolyline
 90
2
 70
0
 10
8065.000000000001
 20
10196.25
 10
8065.000000000001
 20
10112.5
  0
TEXT
  5
13F
330
17
100
AcDbEntity
  8
TEXT
 62
7
100
AcDbText
 10
8085.000000000001
 20
10137.5
 30
0.0
 40
33.75
  1
0..2700
  7
GOST
 11
8085.000000000001
 21
10137.5
 31
0.0
100
AcDbText
  0
LWPOLYLINE
  5
140
330
17
100
AcDbEntity
  8
TEXT
 62
7
370
15
100
AcDbPolyline
 90
2
 70
0
 10
8490.0
 20
10196.25
 10
8490.0
 20
10112.5
  0
LWPOLYLINE
  5
141
330
17
100
AcDbEntity
  8
TEXT
 62
7
370
15
100
AcDbPolyline
 90
4
 70
1
 10
6090.0
 20
10028.75
 10
8490.0
 20
10028.75
 10
8490.0
 20
10112.5
 10
6090.0
 20
10112.5
  0
LWPOLYLINE
  5
142
330
17
100
AcDbEntity
  8
TEXT
 62
7
370
15
100
AcDbPolyline
 90
2
 70
0
 10
6090.0
 20
10112.5
 10
6090.0
 20
10028.75
  0
TEXT
  5
143
330
17
100
AcDbEntity
  8
TEXT
 62
7
100
AcDbText
 10
6110.0
 20
10053.75
 30
0.0
 40
33.75
  1
2
  7
GOST
 11
6110.0
 21
10053.75
 31
0.0
100
AcDbText
  0
LWPOLYLINE
  5
144
330
17
100
AcDbEntity
  8
TEXT
 62
7
370
15
100
AcDbPolyline
 90
2
 70
0
 10
6240.0
 20
10112.5
 10
6240.0
 20
10028.75
  0
TEXT
  5
145
330
17
100
AcDbEntity
  8
TEXT
 62
7
100
AcDbText
 10
6260.0
 20
10053.75
 30
0.0
 40
33.75
  1
краска C2 (простенок 5066..5166)
  7
GOST
 11
6260.0
 21
10053.75
 31
0.0
100
AcDbText
  0
LWPOLYLINE
  5
146
330
17
100
AcDbEntity
  8
TEXT
 62
7
370
15
100
AcDbPolyline
 90
2
 70
0
 10
7640.000000000001
 20
10112.5
 10
7640.000000000001
 20
10028.75
  0
TEXT
  5
147
330
17
100
AcDbEntity
  8
TEXT
 62
7
100
AcDbText
 10
7660.000000000001
 20
10053.75
 30
0.0
 40
33.75
  1
5066..5166
  7
GOST
 11
7660.000000000001
 21
10053.75
 31
0.0
100
AcDbText
  0
LWPOLYLINE
  5
148
330
17
100
AcDbEntity
  8
TEXT
 62
7
370
15
100
AcDbPolyline
 90
2
 70
0
 10
8065.000000000001
 20
10112.5
 10
8065.000000000001
 20
10028.75
  0
TEXT
  5
149
330
17
100
AcDbEntity
  8
TEXT
 62
7
100
AcDbText
 10
8085.000000000001
 20
10053.75
 30
0.0
 40
33.75
  1
0..2700
  7
GOST
 11
8085.000000000001
 21
10053.75
 31
0.0
100
AcDbText
  0
LWPOLYLINE
  5
14A
330
17
100
AcDbEntity
  8
TEXT
 62
7
370
15
100
AcDbPolyline
 90
2
 70
0
 10
8490.0
 20
10112.5
 10
8490.0
 20
10028.75
  0
LWPOLYLINE
  5
14B
330
17
100
AcDbEntity
  8
TEXT
 62
7
370
15
100
AcDbPolyline
 90
4
 70
1
 10
6090.0
 20
9896.0625
 10
8490.0
 20
9896.0625
 10
8490.0
 20
10028.75
 10
6090.0
 20
10028.75
  0
LWPOLYLINE
  5
14C
330
17
100
AcDbEntity
  8
TEXT
 62
7
370
15
100
AcDbPolyline
 90
2
 70
0
 10
6090.0
 20
10028.75
 10
6090.0
 20
9896.0625
  0
TEXT
  5
14D
330
17
100
AcDbEntity
  8
TEXT
 62
7
100
AcDbText
 10
6110.0
 20
9969.999999999998
 30
0.0
 40
33.75
  1
3
  7
GOST
 11
6110.0
 21
9969.999999999998
 31
0.0
100
AcDbText
  0
LWPOLYLINE
  5
14E
330
17
100
AcDbEntity
  8
TEXT
 62
7
370
15
100
AcDbPolyline
 90
2
 70
0
 10
6240.0
 20
10028.75
 10
6240.0
 20
9896.0625
  0
TEXT
  5
14F
330
17
100
AcDbEntity
  8
TEXT
 62
7
100
AcDbText
 10
6260.0
 20
9969.999999999998
 30
0.0
 40
33.75
  1
буазери M06: МДФ 16–19 на стене и каркасе зашивки
  7
GOST
 11
6260.0
 21
9969.999999999998
 31
0.0
100
AcDbText
  0
TEXT
  5
150
330
17
100
AcDbEntity
  8
TEXT
 62
7
100
AcDbText
 10
6260.0
 20
9921.0625
 30
0.0
 40
33.75
  1
O1, эмаль C3, рамки-молдинги 30
  7
GOST
 11
6260.0
 21
9921.0625
 31
0.0
100
AcDbText
  0
LWPOLYLINE
  5
151
330
17
100
AcDbEntity
  8
TEXT
 62
7
370
15
100
AcDbPolyline
 90
2
 70
0
 10
7640.000000000001
 20
10028.75
 10
7640.000000000001
 20
9896.0625
  0
TEXT
  5
152
330
17
100
AcDbEntity
  8
TEXT
 62
7
100
AcDbText
 10
7660.000000000001
 20
9969.999999999998
 30
0.0
 40
33.75
  1
5166..8066
  7
GOST
 11
7660.000000000001
 21
9969.999999999998
 31
0.0
100
AcDbText
  0
LWPOLYLINE
  5
153
330
17
100
AcDbEntity
  8
TEXT
 62
7
370
15
100
AcDbPolyline
 90
2
 70
0
 10
8065.000000000001
 20
10028.75
 10
8065.000000000001
 20
9896.0625
  0
TEXT
  5
154
330
17
100
AcDbEntity
  8
TEXT
 62
7
100
AcDbText
 10
8085.000000000001
 20
9969.999999999998
 30
0.0
 40
33.75
  1
0..2700
  7
GOST
 11
8085.000000000001
 21
9969.999999999998
 31
0.0
100
AcDbText
  0
LWPOLYLINE
  5
155
330
17
100
AcDbEntity
  8
TEXT
 62
7
370
15
100
AcDbPolyline
 90
2
 70
0
 10
8490.0
 20
10028.75
 10
8490.0
 20
9896.0625
  0
LWPOLYLINE
  5
156
330
17
100
AcDbEntity
  8
TEXT
 62
7
370
15
100
AcDbPolyline
 90
4
 70
1
 10
6090.0
 20
9714.4375
 10
8490.0
 20
9714.4375
 10
8490.0
 20
9896.0625
 10
6090.0
 20
9896.0625
  0
LWPOLYLINE
  5
157
330
17
100
AcDbEntity
  8
TEXT
 62
7
370
15
100
AcDbPolyline
 90
2
 70
0
 10
6090.0
 20
9896.0625
 10
6090.0
 20
9714.4375
  0
TEXT
  5
158
330
17
100
AcDbEntity
  8
TEXT
 62
7
100
AcDbText
 10
6110.0
 20
9837.312499999998
 30
0.0
 40
33.75
  1
4
  7
GOST
 11
6110.0
 21
9837.312499999998
 31
0.0
100
AcDbText
  0
LWPOLYLINE
  5
159
330
17
100
AcDbEntity
  8
TEXT
 62
7
370
15
100
AcDbPolyline
 90
2
 70
0
 10
6240.0
 20
9896.0625
 10
6240.0
 20
9714.4375
  0
TEXT
  5
15A
330
17
100
AcDbEntity
  8
TEXT
 62
7
100
AcDbText
 10
6260.0
 20
9837.312499999998
 30
0.0
 40
33.75
  1
зашивка O1 (каркас в откосе, минвата 100,
  7
GOST
 11
6260.0
 21
9837.312499999998
 31
0.0
100
AcDbText
  0
TEXT
  5
15B
330
17
100
AcDbEntity
  8
TEXT
 62
7
100
AcDbText
 10
6260.0
 20
9788.375
 30
0.0
 40
33.75
  1
пароизоляция, 2×ГКЛ — заподлицо со стеной) — узел
  7
GOST
 11
6260.0
 21
9788.375
 31
0.0
100
AcDbText
  0
TEXT
  5
15C
330
17
100
AcDbEntity
  8
TEXT
 62
7
100
AcDbText
 10
6260.0
 20
9739.4375
 30
0.0
 40
33.75
  1
8
  7
GOST
 11
6260.0
 21
9739.4375
 31
0.0
100
AcDbText
  0
LWPOLYLINE
  5
15D
330
17
100
AcDbEntity
  8
TEXT
 62
7
370
15
100
AcDbPolyline
 90
2
 70
0
 10
7640.000000000001
 20
9896.0625
 10
7640.000000000001
 20
9714.4375
  0
TEXT
  5
15E
330
17
100
AcDbEntity
  8
TEXT
 62
7
100
AcDbText
 10
7660.000000000001
 20
9837.312499999998
 30
0.0
 40
33.75
  1
5686..7546
  7
GOST
 11
7660.000000000001
 21
9837.312499999998
 31
0.0
100
AcDbText
  0
LWPOLYLINE
  5
15F
330
17
100
AcDbEntity
  8
TEXT
 62
7
370
15
100
AcDbPolyline
 90
2
 70
0
 10
8065.000000000001
 20
9896.0625
 10
8065.000000000001
 20
9714.4375
  0
TEXT
  5
160
330
17
100
AcDbEntity
  8
TEXT
 62
7
100
AcDbText
 10
8085.000000000001
 20
9837.312499999998
 30
0.0
 40
33.75
  1
850..2450
  7
GOST
 11
8085.000000000001
 21
9837.312499999998
 31
0.0
100
AcDbText
  0
LWPOLYLINE
  5
161
330
17
100
AcDbEntity
  8
TEXT
 62
7
370
15
100
AcDbPolyline
 90
2
 70
0
 10
8490.0
 20
9896.0625
 10
8490.0
 20
9714.4375
  0
LWPOLYLINE
  5
162
330
17
100
AcDbEntity
  8
TEXT
 62
7
370
15
100
AcDbPolyline
 90
4
 70
1
 10
6090.0
 20
9581.75
 10
8490.0
 20
9581.75
 10
8490.0
 20
9714.4375
 10
6090.0
 20
9714.4375
  0
LWPOLYLINE
  5
163
330
17
100
AcDbEntity
  8
TEXT
 62
7
370
15
100
AcDbPolyline
 90
2
 70
0
 10
6090.0
 20
9714.4375
 10
6090.0
 20
9581.75
  0
TEXT
  5
164
330
17
100
AcDbEntity
  8
TEXT
 62
7
100
AcDbText
 10
6110.0
 20
9655.6875
 30
0.0
 40
33.75
  1
5
  7
GOST
 11
6110.0
 21
9655.6875
 31
0.0
100
AcDbText
  0
LWPOLYLINE
  5
165
330
17
100
AcDbEntity
  8
TEXT
 62
7
370
15
100
AcDbPolyline
 90
2
 70
0
 10
6240.0
 20
9714.4375
 10
6240.0
 20
9581.75
  0
TEXT
  5
166
330
17
100
AcDbEntity
  8
TEXT
 62
7
100
AcDbText
 10
6260.0
 20
9655.6875
 30
0.0
 40
33.75
  1
центральная верхняя филёнка 1860×1600 —
  7
GOST
 11
6260.0
 21
9655.6875
 31
0.0
100
AcDbText
  0
TEXT
  5
167
330
17
100
AcDbEntity
  8
TEXT
 62
7
100
AcDbText
 10
6260.0
 20
9606.75
 30
0.0
 40
33.75
  1
СЪЁМНАЯ на кляммерах (= проём O1)
  7
GOST
 11
6260.0
 21
9606.75
 31
0.0
100
AcDbText
  0
LWPOLYLINE
  5
168
330
17
100
AcDbEntity
  8
TEXT
 62
7
370
15
100
AcDbPolyline
 90
2
 70
0
 10
7640.000000000001
 20
9714.4375
 10
7640.000000000001
 20
9581.75
  0
TEXT
  5
169
330
17
100
AcDbEntity
  8
TEXT
 62
7
100
AcDbText
 10
7660.000000000001
 20
9655.6875
 30
0.0
 40
33.75
  1
5686..7546
  7
GOST
 11
7660.000000000001
 21
9655.6875
 31
0.0
100
AcDbText
  0
LWPOLYLINE
  5
16A
330
17
100
AcDbEntity
  8
TEXT
 62
7
370
15
100
AcDbPolyline
 90
2
 70
0
 10
8065.000000000001
 20
9714.4375
 10
8065.000000000001
 20
9581.75
  0
TEXT
  5
16B
330
17
100
AcDbEntity
  8
TEXT
 62
7
100
AcDbText
 10
8085.000000000001
 20
9655.6875
 30
0.0
 40
33.75
  1
850..2450
  7
GOST
 11
8085.000000000001
 21
9655.6875
 31
0.0
100
AcDbText
  0
LWPOLYLINE
  5
16C
330
17
100
AcDbEntity
  8
TEXT
 62
7
370
15
100
AcDbPolyline
 90
2
 70
0
 10
8490.0
 20
9714.4375
 10
8490.0
 20
9581.75
  0
LWPOLYLINE
  5
16D
330
17
100
AcDbEntity
  8
TEXT
 62
7
370
15
100
AcDbPolyline
 90
4
 70
1
 10
6090.0
 20
9497.999999999998
 10
8490.0
 20
9497.999999999998
 10
8490.0
 20
9581.75
 10
6090.0
 20
9581.75
  0
LWPOLYLINE
  5
16E
330
17
100
AcDbEntity
  8
TEXT
 62
7
370
15
100
AcDbPolyline
 90
2
 70
0
 10
6090.0
 20
9581.75
 10
6090.0
 20
9497.999999999998
  0
TEXT
  5
16F
330
17
100
AcDbEntity
  8
TEXT
 62
7
100
AcDbText
 10
6110.0
 20
9522.999999999998
 30
0.0
 40
33.75
  1
6
  7
GOST
 11
6110.0
 21
9522.999999999998
 31
0.0
100
AcDbText
  0
LWPOLYLINE
  5
170
330
17
100
AcDbEntity
  8
TEXT
 62
7
370
15
100
AcDbPolyline
 90
2
 70
0
 10
6240.0
 20
9581.75
 10
6240.0
 20
9497.999999999998
  0
TEXT
  5
171
330
17
100
AcDbEntity
  8
TEXT
 62
7
100
AcDbText
 10
6260.0
 20
9522.999999999998
 30
0.0
 40
33.75
  1
центральная нижняя филёнка 1860, +170..+800
  7
GOST
 11
6260.0
 21
9522.999999999998
 31
0.0
100
AcDbText
  0
LWPOLYLINE
  5
172
330
17
100
AcDbEntity
  8
TEXT
 62
7
370
15
100
AcDbPolyline
 90
2
 70
0
 10
7640.000000000001
 20
9581.75
 10
7640.000000000001
 20
9497.999999999998
  0
TEXT
  5
173
330
17
100
AcDbEntity
  8
TEXT
 62
7
100
AcDbText
 10
7660.000000000001
 20
9522.999999999998
 30
0.0
 40
33.75
  1
5686..7546
  7
GOST
 11
7660.000000000001
 21
9522.999999999998
 31
0.0
100
AcDbText
  0
LWPOLYLINE
  5
174
330
17
100
AcDbEntity
  8
TEXT
 62
7
370
15
100
AcDbPolyline
 90
2
 70
0
 10
8065.000000000001
 20
9581.75
 10
8065.000000000001
 20
9497.999999999998
  0
TEXT
  5
175
330
17
100
AcDbEntity
  8
TEXT
 62
7
100
AcDbText
 10
8085.000000000001
 20
9522.999999999998
 30
0.0
 40
33.75
  1
170..800
  7
GOST
 11
8085.000000000001
 21
9522.999999999998
 31
0.0
100
AcDbText
  0
LWPOLYLINE
  5
176
330
17
100
AcDbEntity
  8
TEXT
 62
7
370
15
100
AcDbPolyline
 90
2
 70
0
 10
8490.0
 20
9581.75
 10
8490.0
 20
9497.999999999998
  0
LWPOLYLINE
  5
177
330
17
100
AcDbEntity
  8
TEXT
 62
7
370
15
100
AcDbPolyline
 90
4
 70
1
 10
6090.0
 20
9365.312499999998
 10
8490.0
 20
9365.312499999998
 10
8490.0
 20
9497.999999999998
 10
6090.0
 20
9497.999999999998
  0
LWPOLYLINE
  5
178
330
17
100
AcDbEntity
  8
TEXT
 62
7
370
15
100
AcDbPolyline
 90
2
 70
0
 10
6090.0
 20
9497.999999999998
 10
6090.0
 20
9365.312499999998
  0
TEXT
  5
179
330
17
100
AcDbEntity
  8
TEXT
 62
7
100
AcDbText
 10
6110.0
 20
9439.249999999998
 30
0.0
 40
33.75
  1
7
  7
GOST
 11
6110.0
 21
9439.249999999998
 31
0.0
100
AcDbText
  0
LWPOLYLINE
  5
17A
330
17
100
AcDbEntity
  8
TEXT
 62
7
370
15
100
AcDbPolyline
 90
2
 70
0
 10
6240.0
 20
9497.999999999998
 10
6240.0
 20
9365.312499999998
  0
TEXT
  5
17B
330
17
100
AcDbEntity
  8
TEXT
 62
7
100
AcDbText
 10
6260.0
 20
9439.249999999998
 30
0.0
 40
33.75
  1
боковые филёнки 470 (верх +900..+2400, низ
  7
GOST
 11
6260.0
 21
9439.249999999998
 31
0.0
100
AcDbText
  0
TEXT
  5
17C
330
17
100
AcDbEntity
  8
TEXT
 62
7
100
AcDbText
 10
6260.0
 20
9390.312499999998
 30
0.0
 40
33.75
  1
+170..+800)
  7
GOST
 11
6260.0
 21
9390.312499999998
 31
0.0
100
AcDbText
  0
LWPOLYLINE
  5
17D
330
17
100
AcDbEntity
  8
TEXT
 62
7
370
15
100
AcDbPolyline
 90
2
 70
0
 10
7640.000000000001
 20
9497.999999999998
 10
7640.000000000001
 20
9365.312499999998
  0
TEXT
  5
17E
330
17
100
AcDbEntity
  8
TEXT
 62
7
100
AcDbText
 10
7660.000000000001
 20
9439.249999999998
 30
0.0
 40
33.75
  1
5166..5636
  7
GOST
 11
7660.000000000001
 21
9439.249999999998
 31
0.0
100
AcDbText
  0
LWPOLYLINE
  5
17F
330
17
100
AcDbEntity
  8
TEXT
 62
7
370
15
100
AcDbPolyline
 90
2
 70
0
 10
8065.000000000001
 20
9497.999999999998
 10
8065.000000000001
 20
9365.312499999998
  0
TEXT
  5
180
330
17
100
AcDbEntity
  8
TEXT
 62
7
100
AcDbText
 10
8085.000000000001
 20
9439.249999999998
 30
0.0
 40
33.75
  1
170..2400
  7
GOST
 11
8085.000000000001
 21
9439.249999999998
 31
0.0
100
AcDbText
  0
LWPOLYLINE
  5
181
330
17
100
AcDbEntity
  8
TEXT
 62
7
370
15
100
AcDbPolyline
 90
2
 70
0
 10
8490.0
 20
9497.999999999998
 10
8490.0
 20
9365.312499999998
  0
LWPOLYLINE
  5
182
330
17
100
AcDbEntity
  8
TEXT
 62
7
370
15
100
AcDbPolyline
 90
4
 70
1
 10
6090.0
 20
9281.562499999998
 10
8490.0
 20
9281.562499999998
 10
8490.0
 20
9365.312499999998
 10
6090.0
 20
9365.312499999998
  0
LWPOLYLINE
  5
183
330
17
100
AcDbEntity
  8
TEXT
 62
7
370
15
100
AcDbPolyline
 90
2
 70
0
 10
6090.0
 20
9365.312499999998
 10
6090.0
 20
9281.562499999998
  0
TEXT
  5
184
330
17
100
AcDbEntity
  8
TEXT
 62
7
100
AcDbText
 10
6110.0
 20
9306.562499999998
 30
0.0
 40
33.75
  1
8
  7
GOST
 11
6110.0
 21
9306.562499999998
 31
0.0
100
AcDbText
  0
LWPOLYLINE
  5
185
330
17
100
AcDbEntity
  8
TEXT
 62
7
370
15
100
AcDbPolyline
 90
2
 70
0
 10
6240.0
 20
9365.312499999998
 10
6240.0
 20
9281.562499999998
  0
TEXT
  5
186
330
17
100
AcDbEntity
  8
TEXT
 62
7
100
AcDbText
 10
6260.0
 20
9306.562499999998
 30
0.0
 40
33.75
  1
боковые филёнки 470
  7
GOST
 11
6260.0
 21
9306.562499999998
 31
0.0
100
AcDbText
  0
LWPOLYLINE
  5
187
330
17
100
AcDbEntity
  8
TEXT
 62
7
370
15
100
AcDbPolyline
 90
2
 70
0
 10
7640.000000000001
 20
9365.312499999998
 10
7640.000000000001
 20
9281.562499999998
  0
TEXT
  5
188
330
17
100
AcDbEntity
  8
TEXT
 62
7
100
AcDbText
 10
7660.000000000001
 20
9306.562499999998
 30
0.0
 40
33.75
  1
7596..8066
  7
GOST
 11
7660.000000000001
 21
9306.562499999998
 31
0.0
100
AcDbText
  0
LWPOLYLINE
  5
189
330
17
100
AcDbEntity
  8
TEXT
 62
7
370
15
100
AcDbPolyline
 90
2
 70
0
 10
8065.000000000001
 20
9365.312499999998
 10
8065.000000000001
 20
9281.562499999998
  0
TEXT
  5
18A
330
17
100
AcDbEntity
  8
TEXT
 62
7
100
AcDbText
 10
8085.000000000001
 20
9306.562499999998
 30
0.0
 40
33.75
  1
170..2400
  7
GOST
 11
8085.000000000001
 21
9306.562499999998
 31
0.0
100
AcDbText
  0
LWPOLYLINE
  5
18B
330
17
100
AcDbEntity
  8
TEXT
 62
7
370
15
100
AcDbPolyline
 90
2
 70
0
 10
8490.0
 20
9365.312499999998
 10
8490.0
 20
9281.562499999998
  0
LWPOLYLINE
  5
18C
330
17
100
AcDbEntity
  8
TEXT
 62
7
370
15
100
AcDbPolyline
 90
4
 70
1
 10
6090.0
 20
9148.874999999998
 10
8490.0
 20
9148.874999999998
 10
8490.0
 20
9281.562499999998
 10
6090.0
 20
9281.562499999998
  0
LWPOLYLINE
  5
18D
330
17
100
AcDbEntity
  8
TEXT
 62
7
370
15
100
AcDbPolyline
 90
2
 70
0
 10
6090.0
 20
9281.562499999998
 10
6090.0
 20
9148.874999999998
  0
TEXT
  5
18E
330
17
100
AcDbEntity
  8
TEXT
 62
7
100
AcDbText
 10
6110.0
 20
9222.812499999998
 30
0.0
 40
33.75
  1
9
  7
GOST
 11
6110.0
 21
9222.812499999998
 31
0.0
100
AcDbText
  0
LWPOLYLINE
  5
18F
330
17
100
AcDbEntity
  8
TEXT
 62
7
370
15
100
AcDbPolyline
 90
2
 70
0
 10
6240.0
 20
9281.562499999998
 10
6240.0
 20
9148.874999999998
  0
TEXT
  5
190
330
17
100
AcDbEntity
  8
TEXT
 62
7
100
AcDbText
 10
6260.0
 20
9222.812499999998
 30
0.0
 40
33.75
  1
пояс-рейка на +850 (линия подоконника O1), цоколь
  7
GOST
 11
6260.0
 21
9222.812499999998
 31
0.0
100
AcDbText
  0
TEXT
  5
191
330
17
100
AcDbEntity
  8
TEXT
 62
7
100
AcDbText
 10
6260.0
 20
9173.874999999998
 30
0.0
 40
33.75
  1
0..120, фриз +2450..+2600
  7
GOST
 11
6260.0
 21
9173.874999999998
 31
0.0
100
AcDbText
  0
LWPOLYLINE
  5
192
330
17
100
AcDbEntity
  8
TEXT
 62
7
370
15
100
AcDbPolyline
 90
2
 70
0
 10
7640.000000000001
 20
9281.562499999998
 10
7640.000000000001
 20
9148.874999999998
  0
TEXT
  5
193
330
17
100
AcDbEntity
  8
TEXT
 62
7
100
AcDbText
 10
7660.000000000001
 20
9222.812499999998
 30
0.0
 40
33.75
  1
5166..8066
  7
GOST
 11
7660.000000000001
 21
9222.812499999998
 31
0.0
100
AcDbText
  0
LWPOLYLINE
  5
194
330
17
100
AcDbEntity
  8
TEXT
 62
7
370
15
100
AcDbPolyline
 90
2
 70
0
 10
8065.000000000001
 20
9281.562499999998
 10
8065.000000000001
 20
9148.874999999998
  0
TEXT
  5
195
330
17
100
AcDbEntity
  8
TEXT
 62
7
100
AcDbText
 10
8085.000000000001
 20
9222.812499999998
 30
0.0
 40
33.75
  1
820..880
  7
GOST
 11
8085.000000000001
 21
9222.812499999998
 31
0.0
100
AcDbText
  0
LWPOLYLINE
  5
196
330
17
100
AcDbEntity
  8
TEXT
 62
7
370
15
100
AcDbPolyline
 90
2
 70
0
 10
8490.0
 20
9281.562499999998
 10
8490.0
 20
9148.874999999998
  0
LWPOLYLINE
  5
197
330
17
100
AcDbEntity
  8
TEXT
 62
7
370
15
100
AcDbPolyline
 90
4
 70
1
 10
6090.0
 20
9016.187499999998
 10
8490.0
 20
9016.187499999998
 10
8490.0
 20
9148.874999999998
 10
6090.0
 20
9148.874999999998
  0
LWPOLYLINE
  5
198
330
17
100
AcDbEntity
  8
TEXT
 62
7
370
15
100
AcDbPolyline
 90
2
 70
0
 10
6090.0
 20
9148.874999999998
 10
6090.0
 20
9016.187499999998
  0
TEXT
  5
199
330
17
100
AcDbEntity
  8
TEXT
 62
7
100
AcDbText
 10
6110.0
 20
9090.124999999998
 30
0.0
 40
33.75
  1
10
  7
GOST
 11
6110.0
 21
9090.124999999998
 31
0.0
100
AcDbText
  0
LWPOLYLINE
  5
19A
330
17
100
AcDbEntity
  8
TEXT
 62
7
370
15
100
AcDbPolyline
 90
2
 70
0
 10
6240.0
 20
9148.874999999998
 10
6240.0
 20
9016.187499999998
  0
TEXT
  5
19B
330
17
100
AcDbEntity
  8
TEXT
 62
7
100
AcDbText
 10
6260.0
 20
9090.124999999998
 30
0.0
 40
33.75
  1
карниз буазери с теневым пазом LED L9 (2700 K),
  7
GOST
 11
6260.0
 21
9090.124999999998
 31
0.0
100
AcDbText
  0
TEXT
  5
19C
330
17
100
AcDbEntity
  8
TEXT
 62
7
100
AcDbText
 10
6260.0
 20
9041.187499999998
 30
0.0
 40
33.75
  1
+2620..+2700
  7
GOST
 11
6260.0
 21
9041.187499999998
 31
0.0
100
AcDbText
  0
LWPOLYLINE
  5
19D
330
17
100
AcDbEntity
  8
TEXT
 62
7
370
15
100
AcDbPolyline
 90
2
 70
0
 10
7640.000000000001
 20
9148.874999999998
 10
7640.000000000001
 20
9016.187499999998
  0
TEXT
  5
19E
330
17
100
AcDbEntity
  8
TEXT
 62
7
100
AcDbText
 10
7660.000000000001
 20
9090.124999999998
 30
0.0
 40
33.75
  1
5166..8066
  7
GOST
 11
7660.000000000001
 21
9090.124999999998
 31
0.0
100
AcDbText
  0
LWPOLYLINE
  5
19F
330
17
100
AcDbEntity
  8
TEXT
 62
7
370
15
100
AcDbPolyline
 90
2
 70
0
 10
8065.000000000001
 20
9148.874999999998
 10
8065.000000000001
 20
9016.187499999998
  0
TEXT
  5
1A0
330
17
100
AcDbEntity
  8
TEXT
 62
7
100
AcDbText
 10
8085.000000000001
 20
9090.124999999998
 30
0.0
 40
33.75
  1
2620..2700
  7
GOST
 11
8085.000000000001
 21
9090.124999999998
 31
0.0
100
AcDbText
  0
LWPOLYLINE
  5
1A1
330
17
100
AcDbEntity
  8
TEXT
 62
7
370
15
100
AcDbPolyline
 90
2
 70
0
 10
8490.0
 20
9148.874999999998
 10
8490.0
 20
9016.187499999998
  0
LWPOLYLINE
  5
1A2
330
17
100
AcDbEntity
  8
TEXT
 62
7
370
15
100
AcDbPolyline
 90
4
 70
1
 10
6090.0
 20
8883.499999999998
 10
8490.0
 20
8883.499999999998
 10
8490.0
 20
9016.187499999998
 10
6090.0
 20
9016.187499999998
  0
LWPOLYLINE
  5
1A3
330
17
100
AcDbEntity
  8
TEXT
 62
7
370
15
100
AcDbPolyline
 90
2
 70
0
 10
6090.0
 20
9016.187499999998
 10
6090.0
 20
8883.499999999998
  0
TEXT
  5
1A4
330
17
100
AcDbEntity
  8
TEXT
 62
7
100
AcDbText
 10
6110.0
 20
8957.437499999998
 30
0.0
 40
33.75
  1
11
  7
GOST
 11
6110.0
 21
8957.437499999998
 31
0.0
100
AcDbText
  0
LWPOLYLINE
  5
1A5
330
17
100
AcDbEntity
  8
TEXT
 62
7
370
15
100
AcDbPolyline
 90
2
 70
0
 10
6240.0
 20
9016.187499999998
 10
6240.0
 20
8883.499999999998
  0
TEXT
  5
1A6
330
17
100
AcDbEntity
  8
TEXT
 62
7
100
AcDbText
 10
6260.0
 20
8957.437499999998
 30
0.0
 40
33.75
  1
кровать F42, мягкое изголовье h 1150..1300 (y
  7
GOST
 11
6260.0
 21
8957.437499999998
 31
0.0
100
AcDbText
  0
TEXT
  5
1A7
330
17
100
AcDbEntity
  8
TEXT
 62
7
100
AcDbText
 10
6260.0
 20
8908.499999999998
 30
0.0
 40
33.75
  1
5666..7566)
  7
GOST
 11
6260.0
 21
8908.499999999998
 31
0.0
100
AcDbText
  0
LWPOLYLINE
  5
1A8
330
17
100
AcDbEntity
  8
TEXT
 62
7
370
15
100
AcDbPolyline
 90
2
 70
0
 10
7640.000000000001
 20
9016.187499999998
 10
7640.000000000001
 20
8883.499999999998
  0
TEXT
  5
1A9
330
17
100
AcDbEntity
  8
TEXT
 62
7
100
AcDbText
 10
7660.000000000001
 20
8957.437499999998
 30
0.0
 40
33.75
  1
5666..7566
  7
GOST
 11
7660.000000000001
 21
8957.437499999998
 31
0.0
100
AcDbText
  0
LWPOLYLINE
  5
1AA
330
17
100
AcDbEntity
  8
TEXT
 62
7
370
15
100
AcDbPolyline
 90
2
 70
0
 10
8065.000000000001
 20
9016.187499999998
 10
8065.000000000001
 20
8883.499999999998
  0
TEXT
  5
1AB
330
17
100
AcDbEntity
  8
TEXT
 62
7
100
AcDbText
 10
8085.000000000001
 20
8957.437499999998
 30
0.0
 40
33.75
  1
0..1300
  7
GOST
 11
8085.000000000001
 21
8957.437499999998
 31
0.0
100
AcDbText
  0
LWPOLYLINE
  5
1AC
330
17
100
AcDbEntity
  8
TEXT
 62
7
370
15
100
AcDbPolyline
 90
2
 70
0
 10
8490.0
 20
9016.187499999998
 10
8490.0
 20
8883.499999999998
  0
LWPOLYLINE
  5
1AD
330
17
100
AcDbEntity
  8
TEXT
 62
7
370
15
100
AcDbPolyline
 90
4
 70
1
 10
6090.0
 20
8799.749999999998
 10
8490.0
 20
8799.749999999998
 10
8490.0
 20
8883.499999999998
 10
6090.0
 20
8883.499999999998
  0
LWPOLYLINE
  5
1AE
330
17
100
AcDbEntity
  8
TEXT
 62
7
370
15
100
AcDbPolyline
 90
2
 70
0
 10
6090.0
 20
8883.499999999998
 10
6090.0
 20
8799.749999999998
  0
TEXT
  5
1AF
330
17
100
AcDbEntity
  8
TEXT
 62
7
100
AcDbText
 10
6110.0
 20
8824.749999999998
 30
0.0
 40
33.75
  1
12
  7
GOST
 11
6110.0
 21
8824.749999999998
 31
0.0
100
AcDbText
  0
LWPOLYLINE
  5
1B0
330
17
100
AcDbEntity
  8
TEXT
 62
7
370
15
100
AcDbPolyline
 90
2
 70
0
 10
6240.0
 20
8883.499999999998
 10
6240.0
 20
8799.749999999998
  0
TEXT
  5
1B1
330
17
100
AcDbEntity
  8
TEXT
 62
7
100
AcDbText
 10
6260.0
 20
8824.749999999998
 30
0.0
 40
33.75
  1
тумба F43 подвесная +300..+650
  7
GOST
 11
6260.0
 21
8824.749999999998
 31
0.0
100
AcDbText
  0
LWPOLYLINE
  5
1B2
330
17
100
AcDbEntity
  8
TEXT
 62
7
370
15
100
AcDbPolyline
 90
2
 70
0
 10
7640.000000000001
 20
8883.499999999998
 10
7640.000000000001
 20
8799.749999999998
  0
TEXT
  5
1B3
330
17
100
AcDbEntity
  8
TEXT
 62
7
100
AcDbText
 10
7660.000000000001
 20
8824.749999999998
 30
0.0
 40
33.75
  1
5166..5666
  7
GOST
 11
7660.000000000001
 21
8824.749999999998
 31
0.0
100
AcDbText
  0
LWPOLYLINE
  5
1B4
330
17
100
AcDbEntity
  8
TEXT
 62
7
370
15
100
AcDbPolyline
 90
2
 70
0
 10
8065.000000000001
 20
8883.499999999998
 10
8065.000000000001
 20
8799.749999999998
  0
TEXT
  5
1B5
330
17
100
AcDbEntity
  8
TEXT
 62
7
100
AcDbText
 10
8085.000000000001
 20
8824.749999999998
 30
0.0
 40
33.75
  1
300..650
  7
GOST
 11
8085.000000000001
 21
8824.749999999998
 31
0.0
100
AcDbText
  0
LWPOLYLINE
  5
1B6
330
17
100
AcDbEntity
  8
TEXT
 62
7
370
15
100
AcDbPolyline
 90
2
 70
0
 10
8490.0
 20
8883.499999999998
 10
8490.0
 20
8799.749999999998
  0
LWPOLYLINE
  5
1B7
330
17
100
AcDbEntity
  8
TEXT
 62
7
370
15
100
AcDbPolyline
 90
4
 70
1
 10
6090.0
 20
8715.999999999996
 10
8490.0
 20
8715.999999999996
 10
8490.0
 20
8799.749999999998
 10
6090.0
 20
8799.749999999998
  0
LWPOLYLINE
  5
1B8
330
17
100
AcDbEntity
  8
TEXT
 62
7
370
15
100
AcDbPolyline
 90
2
 70
0
 10
6090.0
 20
8799.749999999998
 10
6090.0
 20
8715.999999999996
  0
TEXT
  5
1B9
330
17
100
AcDbEntity
  8
TEXT
 62
7
100
AcDbText
 10
6110.0
 20
8740.999999999996
 30
0.0
 40
33.75
  1
13
  7
GOST
 11
6110.0
 21
8740.999999999996
 31
0.0
100
AcDbText
  0
LWPOLYLINE
  5
1BA
330
17
100
AcDbEntity
  8
TEXT
 62
7
370
15
100
AcDbPolyline
 90
2
 70
0
 10
6240.0
 20
8799.749999999998
 10
6240.0
 20
8715.999999999996
  0
TEXT
  5
1BB
330
17
100
AcDbEntity
  8
TEXT
 62
7
100
AcDbText
 10
6260.0
 20
8740.999999999996
 30
0.0
 40
33.75
  1
тумба F44
  7
GOST
 11
6260.0
 21
8740.999999999996
 31
0.0
100
AcDbText
  0
LWPOLYLINE
  5
1BC
330
17
100
AcDbEntity
  8
TEXT
 62
7
370
15
100
AcDbPolyline
 90
2
 70
0
 10
7640.000000000001
 20
8799.749999999998
 10
7640.000000000001
 20
8715.999999999996
  0
TEXT
  5
1BD
330
17
100
AcDbEntity
  8
TEXT
 62
7
100
AcDbText
 10
7660.000000000001
 20
8740.999999999996
 30
0.0
 40
33.75
  1
7566..8066
  7
GOST
 11
7660.000000000001
 21
8740.999999999996
 31
0.0
100
AcDbText
  0
LWPOLYLINE
  5
1BE
330
17
100
AcDbEntity
  8
TEXT
 62
7
370
15
100
AcDbPolyline
 90
2
 70
0
 10
8065.000000000001
 20
8799.749999999998
 10
8065.000000000001
 20
8715.999999999996
  0
TEXT
  5
1BF
330
17
100
AcDbEntity
  8
TEXT
 62
7
100
AcDbText
 10
8085.000000000001
 20
8740.999999999996
 30
0.0
 40
33.75
  1
300..650
  7
GOST
 11
8085.000000000001
 21
8740.999999999996
 31
0.0
100
AcDbText
  0
LWPOLYLINE
  5
1C0
330
17
100
AcDbEntity
  8
TEXT
 62
7
370
15
100
AcDbPolyline
 90
2
 70
0
 10
8490.0
 20
8799.749999999998
 10
8490.0
 20
8715.999999999996
  0
LWPOLYLINE
  5
1C1
330
17
100
AcDbEntity
  8
TEXT
 62
7
370
15
100
AcDbPolyline
 90
4
 70
1
 10
6090.0
 20
8632.249999999996
 10
8490.0
 20
8632.249999999996
 10
8490.0
 20
8715.999999999996
 10
6090.0
 20
8715.999999999996
  0
LWPOLYLINE
  5
1C2
330
17
100
AcDbEntity
  8
TEXT
 62
7
370
15
100
AcDbPolyline
 90
2
 70
0
 10
6090.0
 20
8715.999999999996
 10
6090.0
 20
8632.249999999996
  0
TEXT
  5
1C3
330
17
100
AcDbEntity
  8
TEXT
 62
7
100
AcDbText
 10
6110.0
 20
8657.249999999996
 30
0.0
 40
33.75
  1
14
  7
GOST
 11
6110.0
 21
8657.249999999996
 31
0.0
100
AcDbText
  0
LWPOLYLINE
  5
1C4
330
17
100
AcDbEntity
  8
TEXT
 62
7
370
15
100
AcDbPolyline
 90
2
 70
0
 10
6240.0
 20
8715.999999999996
 10
6240.0
 20
8632.249999999996
  0
TEXT
  5
1C5
330
17
100
AcDbEntity
  8
TEXT
 62
7
100
AcDbText
 10
6260.0
 20
8657.249999999996
 30
0.0
 40
33.75
  1
шкаф F46 (торец, до +2700)
  7
GOST
 11
6260.0
 21
8657.249999999996
 31
0.0
100
AcDbText
  0
LWPOLYLINE
  5
1C6
330
17
100
AcDbEntity
  8
TEXT
 62
7
370
15
100
AcDbPolyline
 90
2
 70
0
 10
7640.000000000001
 20
8715.999999999996
 10
7640.000000000001
 20
8632.249999999996
  0
TEXT
  5
1C7
330
17
100
AcDbEntity
  8
TEXT
 62
7
100
AcDbText
 10
7660.000000000001
 20
8657.249999999996
 30
0.0
 40
33.75
  1
4321..5066
  7
GOST
 11
7660.000000000001
 21
8657.249999999996
 31
0.0
100
AcDbText
  0
LWPOLYLINE
  5
1C8
330
17
100
AcDbEntity
  8
TEXT
 62
7
370
15
100
AcDbPolyline
 90
2
 70
0
 10
8065.000000000001
 20
8715.999999999996
 10
8065.000000000001
 20
8632.249999999996
  0
TEXT
  5
1C9
330
17
100
AcDbEntity
  8
TEXT
 62
7
100
AcDbText
 10
8085.000000000001
 20
8657.249999999996
 30
0.0
 40
33.75
  1
0..2700
  7
GOST
 11
8085.000000000001
 21
8657.249999999996
 31
0.0
100
AcDbText
  0
LWPOLYLINE
  5
1CA
330
17
100
AcDbEntity
  8
TEXT
 62
7
370
15
100
AcDbPolyline
 90
2
 70
0
 10
8490.0
 20
8715.999999999996
 10
8490.0
 20
8632.249999999996
  0
LWPOLYLINE
  5
1CB
330
17
100
AcDbEntity
  8
TEXT
 62
7
370
15
100
AcDbPolyline
 90
4
 70
1
 10
6090.0
 20
8548.499999999996
 10
8490.0
 20
8548.499999999996
 10
8490.0
 20
8632.249999999996
 10
6090.0
 20
8632.249999999996
  0
LWPOLYLINE
  5
1CC
330
17
100
AcDbEntity
  8
TEXT
 62
7
370
15
100
AcDbPolyline
 90
2
 70
0
 10
6090.0
 20
8632.249999999996
 10
6090.0
 20
8548.499999999996
  0
TEXT
  5
1CD
330
17
100
AcDbEntity
  8
TEXT
 62
7
100
AcDbText
 10
6110.0
 20
8573.499999999996
 30
0.0
 40
33.75
  1
15
  7
GOST
 11
6110.0
 21
8573.499999999996
 31
0.0
100
AcDbText
  0
LWPOLYLINE
  5
1CE
330
17
100
AcDbEntity
  8
TEXT
 62
7
370
15
100
AcDbPolyline
 90
2
 70
0
 10
6240.0
 20
8632.249999999996
 10
6240.0
 20
8548.499999999996
  0
TEXT
  5
1CF
330
17
100
AcDbEntity
  8
TEXT
 62
7
100
AcDbText
 10
6260.0
 20
8573.499999999996
 30
0.0
 40
33.75
  1
шкаф F45 (угол)
  7
GOST
 11
6260.0
 21
8573.499999999996
 31
0.0
100
AcDbText
  0
LWPOLYLINE
  5
1D0
330
17
100
AcDbEntity
  8
TEXT
 62
7
370
15
100
AcDbPolyline
 90
2
 70
0
 10
7640.000000000001
 20
8632.249999999996
 10
7640.000000000001
 20
8548.499999999996
  0
TEXT
  5
1D1
330
17
100
AcDbEntity
  8
TEXT
 62
7
100
AcDbText
 10
7660.000000000001
 20
8573.499999999996
 30
0.0
 40
33.75
  1
3721..4321
  7
GOST
 11
7660.000000000001
 21
8573.499999999996
 31
0.0
100
AcDbText
  0
LWPOLYLINE
  5
1D2
330
17
100
AcDbEntity
  8
TEXT
 62
7
370
15
100
AcDbPolyline
 90
2
 70
0
 10
8065.000000000001
 20
8632.249999999996
 10
8065.000000000001
 20
8548.499999999996
  0
TEXT
  5
1D3
330
17
100
AcDbEntity
  8
TEXT
 62
7
100
AcDbText
 10
8085.000000000001
 20
8573.499999999996
 30
0.0
 40
33.75
  1
0..2700
  7
GOST
 11
8085.000000000001
 21
8573.499999999996
 31
0.0
100
AcDbText
  0
LWPOLYLINE
  5
1D4
330
17
100
AcDbEntity
  8
TEXT
 62
7
370
15
100
AcDbPolyline
 90
2
 70
0
 10
8490.0
 20
8632.249999999996
 10
8490.0
 20
8548.499999999996
  0
LWPOLYLINE
  5
1D5
330
17
100
AcDbEntity
  8
TEXT
 62
7
370
15
100
AcDbPolyline
 90
4
 70
1
 10
6090.0
 20
8464.749999999995
 10
8490.0
 20
8464.749999999995
 10
8490.0
 20
8548.499999999996
 10
6090.0
 20
8548.499999999996
  0
LWPOLYLINE
  5
1D6
330
17
100
AcDbEntity
  8
TEXT
 62
7
370
15
100
AcDbPolyline
 90
2
 70
0
 10
6090.0
 20
8548.499999999996
 10
6090.0
 20
8464.749999999995
  0
TEXT
  5
1D7
330
17
100
AcDbEntity
  8
TEXT
 62
7
100
AcDbText
 10
6110.0
 20
8489.749999999995
 30
0.0
 40
33.75
  1
16
  7
GOST
 11
6110.0
 21
8489.749999999995
 31
0.0
100
AcDbText
  0
LWPOLYLINE
  5
1D8
330
17
100
AcDbEntity
  8
TEXT
 62
7
370
15
100
AcDbPolyline
 90
2
 70
0
 10
6240.0
 20
8548.499999999996
 10
6240.0
 20
8464.749999999995
  0
TEXT
  5
1D9
330
17
100
AcDbEntity
  8
TEXT
 62
7
100
AcDbText
 10
6260.0
 20
8489.749999999995
 30
0.0
 40
33.75
  1
бра L11-1 (P-R14)
  7
GOST
 11
6260.0
 21
8489.749999999995
 31
0.0
100
AcDbText
  0
LWPOLYLINE
  5
1DA
330
17
100
AcDbEntity
  8
TEXT
 62
7
370
15
100
AcDbPolyline
 90
2
 70
0
 10
7640.000000000001
 20
8548.499999999996
 10
7640.000000000001
 20
8464.749999999995
  0
TEXT
  5
1DB
330
17
100
AcDbEntity
  8
TEXT
 62
7
100
AcDbText
 10
7660.000000000001
 20
8489.749999999995
 30
0.0
 40
33.75
  1
5416
  7
GOST
 11
7660.000000000001
 21
8489.749999999995
 31
0.0
100
AcDbText
  0
LWPOLYLINE
  5
1DC
330
17
100
AcDbEntity
  8
TEXT
 62
7
370
15
100
AcDbPolyline
 90
2
 70
0
 10
8065.000000000001
 20
8548.499999999996
 10
8065.000000000001
 20
8464.749999999995
  0
TEXT
  5
1DD
330
17
100
AcDbEntity
  8
TEXT
 62
7
100
AcDbText
 10
8085.000000000001
 20
8489.749999999995
 30
0.0
 40
33.75
  1
1150
  7
GOST
 11
8085.000000000001
 21
8489.749999999995
 31
0.0
100
AcDbText
  0
LWPOLYLINE
  5
1DE
330
17
100
AcDbEntity
  8
TEXT
 62
7
370
15
100
AcDbPolyline
 90
2
 70
0
 10
8490.0
 20
8548.499999999996
 10
8490.0
 20
8464.749999999995
  0
LWPOLYLINE
  5
1DF
330
17
100
AcDbEntity
  8
TEXT
 62
7
370
15
100
AcDbPolyline
 90
4
 70
1
 10
6090.0
 20
8380.999999999995
 10
8490.0
 20
8380.999999999995
 10
8490.0
 20
8464.749999999995
 10
6090.0
 20
8464.749999999995
  0
LWPOLYLINE
  5
1E0
330
17
100
AcDbEntity
  8
TEXT
 62
7
370
15
100
AcDbPolyline
 90
2
 70
0
 10
6090.0
 20
8464.749999999995
 10
6090.0
 20
8380.999999999995
  0
TEXT
  5
1E1
330
17
100
AcDbEntity
  8
TEXT
 62
7
100
AcDbText
 10
6110.0
 20
8405.999999999995
 30
0.0
 40
33.75
  1
17
  7
GOST
 11
6110.0
 21
8405.999999999995
 31
0.0
100
AcDbText
  0
LWPOLYLINE
  5
1E2
330
17
100
AcDbEntity
  8
TEXT
 62
7
370
15
100
AcDbPolyline
 90
2
 70
0
 10
6240.0
 20
8464.749999999995
 10
6240.0
 20
8380.999999999995
  0
TEXT
  5
1E3
330
17
100
AcDbEntity
  8
TEXT
 62
7
100
AcDbText
 10
6260.0
 20
8405.999999999995
 30
0.0
 40
33.75
  1
бра L11-2 (P-R15)
  7
GOST
 11
6260.0
 21
8405.999999999995
 31
0.0
100
AcDbText
  0
LWPOLYLINE
  5
1E4
330
17
100
AcDbEntity
  8
TEXT
 62
7
370
15
100
AcDbPolyline
 90
2
 70
0
 10
7640.000000000001
 20
8464.749999999995
 10
7640.000000000001
 20
8380.999999999995
  0
TEXT
  5
1E5
330
17
100
AcDbEntity
  8
TEXT
 62
7
100
AcDbText
 10
7660.000000000001
 20
8405.999999999995
 30
0.0
 40
33.75
  1
7816
  7
GOST
 11
7660.000000000001
 21
8405.999999999995
 31
0.0
100
AcDbText
  0
LWPOLYLINE
  5
1E6
330
17
100
AcDbEntity
  8
TEXT
 62
7
370
15
100
AcDbPolyline
 90
2
 70
0
 10
8065.000000000001
 20
8464.749999999995
 10
8065.000000000001
 20
8380.999999999995
  0
TEXT
  5
1E7
330
17
100
AcDbEntity
  8
TEXT
 62
7
100
AcDbText
 10
8085.000000000001
 20
8405.999999999995
 30
0.0
 40
33.75
  1
1150
  7
GOST
 11
8085.000000000001
 21
8405.999999999995
 31
0.0
100
AcDbText
  0
LWPOLYLINE
  5
1E8
330
17
100
AcDbEntity
  8
TEXT
 62
7
370
15
100
AcDbPolyline
 90
2
 70
0
 10
8490.0
 20
8464.749999999995
 10
8490.0
 20
8380.999999999995
  0
LWPOLYLINE
  5
1E9
330
17
100
AcDbEntity
  8
TEXT
 62
7
370
15
100
AcDbPolyline
 90
4
 70
1
 10
6090.0
 20
8297.249999999995
 10
8490.0
 20
8297.249999999995
 10
8490.0
 20
8380.999999999995
 10
6090.0
 20
8380.999999999995
  0
LWPOLYLINE
  5
1EA
330
17
100
AcDbEntity
  8
TEXT
 62
7
370
15
100
AcDbPolyline
 90
2
 70
0
 10
6090.0
 20
8380.999999999995
 10
6090.0
 20
8297.249999999995
  0
TEXT
  5
1EB
330
17
100
AcDbEntity
  8
TEXT
 62
7
100
AcDbText
 10
6110.0
 20
8322.249999999995
 30
0.0
 40
33.75
  1
18
  7
GOST
 11
6110.0
 21
8322.249999999995
 31
0.0
100
AcDbText
  0
LWPOLYLINE
  5
1EC
330
17
100
AcDbEntity
  8
TEXT
 62
7
370
15
100
AcDbPolyline
 90
2
 70
0
 10
6240.0
 20
8380.999999999995
 10
6240.0
 20
8297.249999999995
  0
TEXT
  5
1ED
330
17
100
AcDbEntity
  8
TEXT
 62
7
100
AcDbText
 10
6260.0
 20
8322.249999999995
 30
0.0
 40
33.75
  1
S6/S7/S9 рамка у тумбы
  7
GOST
 11
6260.0
 21
8322.249999999995
 31
0.0
100
AcDbText
  0
LWPOLYLINE
  5
1EE
330
17
100
AcDbEntity
  8
TEXT
 62
7
370
15
100
AcDbPolyline
 90
2
 70
0
 10
7640.000000000001
 20
8380.999999999995
 10
7640.000000000001
 20
8297.249999999995
  0
TEXT
  5
1EF
330
17
100
AcDbEntity
  8
TEXT
 62
7
100
AcDbText
 10
7660.000000000001
 20
8322.249999999995
 30
0.0
 40
33.75
  1
5310
  7
GOST
 11
7660.000000000001
 21
8322.249999999995
 31
0.0
100
AcDbText
  0
LWPOLYLINE
  5
1F0
330
17
100
AcDbEntity
  8
TEXT
 62
7
370
15
100
AcDbPolyline
 90
2
 70
0
 10
8065.000000000001
 20
8380.999999999995
 10
8065.000000000001
 20
8297.249999999995
  0
TEXT
  5
1F1
330
17
100
AcDbEntity
  8
TEXT
 62
7
100
AcDbText
 10
8085.000000000001
 20
8322.249999999995
 30
0.0
 40
33.75
  1
750
  7
GOST
 11
8085.000000000001
 21
8322.249999999995
 31
0.0
100
AcDbText
  0
LWPOLYLINE
  5
1F2
330
17
100
AcDbEntity
  8
TEXT
 62
7
370
15
100
AcDbPolyline
 90
2
 70
0
 10
8490.0
 20
8380.999999999995
 10
8490.0
 20
8297.249999999995
  0
LWPOLYLINE
  5
1F3
330
17
100
AcDbEntity
  8
TEXT
 62
7
370
15
100
AcDbPolyline
 90
4
 70
1
 10
6090.0
 20
8213.499999999993
 10
8490.0
 20
8213.499999999993
 10
8490.0
 20
8297.249999999995
 10
6090.0
 20
8297.249999999995
  0
LWPOLYLINE
  5
1F4
330
17
100
AcDbEntity
  8
TEXT
 62
7
370
15
100
AcDbPolyline
 90
2
 70
0
 10
6090.0
 20
8297.249999999995
 10
6090.0
 20
8213.499999999993
  0
TEXT
  5
1F5
330
17
100
AcDbEntity
  8
TEXT
 62
7
100
AcDbText
 10
6110.0
 20
8238.499999999993
 30
0.0
 40
33.75
  1
19
  7
GOST
 11
6110.0
 21
8238.499999999993
 31
0.0
100
AcDbText
  0
LWPOLYLINE
  5
1F6
330
17
100
AcDbEntity
  8
TEXT
 62
7
370
15
100
AcDbPolyline
 90
2
 70
0
 10
6240.0
 20
8297.249999999995
 10
6240.0
 20
8213.499999999993
  0
TEXT
  5
1F7
330
17
100
AcDbEntity
  8
TEXT
 62
7
100
AcDbText
 10
6260.0
 20
8238.499999999993
 30
0.0
 40
33.75
  1
S8/S10 рамка
  7
GOST
 11
6260.0
 21
8238.499999999993
 31
0.0
100
AcDbText
  0
LWPOLYLINE
  5
1F8
330
17
100
AcDbEntity
  8
TEXT
 62
7
370
15
100
AcDbPolyline
 90
2
 70
0
 10
7640.000000000001
 20
8297.249999999995
 10
7640.000000000001
 20
8213.499999999993
  0
TEXT
  5
1F9
330
17
100
AcDbEntity
  8
TEXT
 62
7
100
AcDbText
 10
7660.000000000001
 20
8238.499999999993
 30
0.0
 40
33.75
  1
8010
  7
GOST
 11
7660.000000000001
 21
8238.499999999993
 31
0.0
100
AcDbText
  0
LWPOLYLINE
  5
1FA
330
17
100
AcDbEntity
  8
TEXT
 62
7
370
15
100
AcDbPolyline
 90
2
 70
0
 10
8065.000000000001
 20
8297.249999999995
 10
8065.000000000001
 20
8213.499999999993
  0
TEXT
  5
1FB
330
17
100
AcDbEntity
  8
TEXT
 62
7
100
AcDbText
 10
8085.000000000001
 20
8238.499999999993
 30
0.0
 40
33.75
  1
750
  7
GOST
 11
8085.000000000001
 21
8238.499999999993
 31
0.0
100
AcDbText
  0
LWPOLYLINE
  5
1FC
330
17
100
AcDbEntity
  8
TEXT
 62
7
370
15
100
AcDbPolyline
 90
2
 70
0
 10
8490.0
 20
8297.249999999995
 10
8490.0
 20
8213.499999999993
  0
LWPOLYLINE
  5
1FD
330
17
100
AcDbEntity
  8
TEXT
 62
7
370
15
100
AcDbPolyline
 90
4
 70
1
 10
6090.0
 20
8129.749999999993
 10
8490.0
 20
8129.749999999993
 10
8490.0
 20
8213.499999999993
 10
6090.0
 20
8213.499999999993
  0
LWPOLYLINE
  5
1FE
330
17
100
AcDbEntity
  8
TEXT
 62
7
370
15
100
AcDbPolyline
 90
2
 70
0
 10
6090.0
 20
8213.499999999993
 10
6090.0
 20
8129.749999999993
  0
TEXT
  5
1FF
330
17
100
AcDbEntity
  8
TEXT
 62
7
100
AcDbText
 10
6110.0
 20
8154.749999999993
 30
0.0
 40
33.75
  1
20
  7
GOST
 11
6110.0
 21
8154.749999999993
 31
0.0
100
AcDbText
  0
LWPOLYLINE
  5
200
330
17
100
AcDbEntity
  8
TEXT
 62
7
370
15
100
AcDbPolyline
 90
2
 70
0
 10
6240.0
 20
8213.499999999993
 10
6240.0
 20
8129.749999999993
  0
TEXT
  5
201
330
17
100
AcDbEntity
  8
TEXT
 62
7
100
AcDbText
 10
6260.0
 20
8154.749999999993
 30
0.0
 40
33.75
  1
P-R01 + USB
  7
GOST
 11
6260.0
 21
8154.749999999993
 31
0.0
100
AcDbText
  0
LWPOLYLINE
  5
202
330
17
100
AcDbEntity
  8
TEXT
 62
7
370
15
100
AcDbPolyline
 90
2
 70
0
 10
7640.000000000001
 20
8213.499999999993
 10
7640.000000000001
 20
8129.749999999993
  0
TEXT
  5
203
330
17
100
AcDbEntity
  8
TEXT
 62
7
100
AcDbText
 10
7660.000000000001
 20
8154.749999999993
 30
0.0
 40
33.75
  1
5550
  7
GOST
 11
7660.000000000001
 21
8154.749999999993
 31
0.0
100
AcDbText
  0
LWPOLYLINE
  5
204
330
17
100
AcDbEntity
  8
TEXT
 62
7
370
15
100
AcDbPolyline
 90
2
 70
0
 10
8065.000000000001
 20
8213.499999999993
 10
8065.000000000001
 20
8129.749999999993
  0
TEXT
  5
205
330
17
100
AcDbEntity
  8
TEXT
 62
7
100
AcDbText
 10
8085.000000000001
 20
8154.749999999993
 30
0.0
 40
33.75
  1
750
  7
GOST
 11
8085.000000000001
 21
8154.749999999993
 31
0.0
100
AcDbText
  0
LWPOLYLINE
  5
206
330
17
100
AcDbEntity
  8
TEXT
 62
7
370
15
100
AcDbPolyline
 90
2
 70
0
 10
8490.0
 20
8213.499999999993
 10
8490.0
 20
8129.749999999993
  0
LWPOLYLINE
  5
207
330
17
100
AcDbEntity
  8
TEXT
 62
7
370
15
100
AcDbPolyline
 90
4
 70
1
 10
6090.0
 20
8045.999999999993
 10
8490.0
 20
8045.999999999993
 10
8490.0
 20
8129.749999999993
 10
6090.0
 20
8129.749999999993
  0
LWPOLYLINE
  5
208
330
17
100
AcDbEntity
  8
TEXT
 62
7
370
15
100
AcDbPolyline
 90
2
 70
0
 10
6090.0
 20
8129.749999999993
 10
6090.0
 20
8045.999999999993
  0
TEXT
  5
209
330
17
100
AcDbEntity
  8
TEXT
 62
7
100
AcDbText
 10
6110.0
 20
8070.999999999993
 30
0.0
 40
33.75
  1
21
  7
GOST
 11
6110.0
 21
8070.999999999993
 31
0.0
100
AcDbText
  0
LWPOLYLINE
  5
20A
330
17
100
AcDbEntity
  8
TEXT
 62
7
370
15
100
AcDbPolyline
 90
2
 70
0
 10
6240.0
 20
8129.749999999993
 10
6240.0
 20
8045.999999999993
  0
TEXT
  5
20B
330
17
100
AcDbEntity
  8
TEXT
 62
7
100
AcDbText
 10
6260.0
 20
8070.999999999993
 30
0.0
 40
33.75
  1
P-R02 + USB
  7
GOST
 11
6260.0
 21
8070.999999999993
 31
0.0
100
AcDbText
  0
LWPOLYLINE
  5
20C
330
17
100
AcDbEntity
  8
TEXT
 62
7
370
15
100
AcDbPolyline
 90
2
 70
0
 10
7640.000000000001
 20
8129.749999999993
 10
7640.000000000001
 20
8045.999999999993
  0
TEXT
  5
20D
330
17
100
AcDbEntity
  8
TEXT
 62
7
100
AcDbText
 10
7660.000000000001
 20
8070.999999999993
 30
0.0
 40
33.75
  1
7700
  7
GOST
 11
7660.000000000001
 21
8070.999999999993
 31
0.0
100
AcDbText
  0
LWPOLYLINE
  5
20E
330
17
100
AcDbEntity
  8
TEXT
 62
7
370
15
100
AcDbPolyline
 90
2
 70
0
 10
8065.000000000001
 20
8129.749999999993
 10
8065.000000000001
 20
8045.999999999993
  0
TEXT
  5
20F
330
17
100
AcDbEntity
  8
TEXT
 62
7
100
AcDbText
 10
8085.000000000001
 20
8070.999999999993
 30
0.0
 40
33.75
  1
750
  7
GOST
 11
8085.000000000001
 21
8070.999999999993
 31
0.0
100
AcDbText
  0
LWPOLYLINE
  5
210
330
17
100
AcDbEntity
  8
TEXT
 62
7
370
15
100
AcDbPolyline
 90
2
 70
0
 10
8490.0
 20
8129.749999999993
 10
8490.0
 20
8045.999999999993
  0
LWPOLYLINE
  5
211
330
17
100
AcDbEntity
  8
TEXT
 62
7
370
15
100
AcDbPolyline
 90
4
 70
1
 10
6090.0
 20
7962.249999999992
 10
8490.0
 20
7962.249999999992
 10
8490.0
 20
8045.999999999993
 10
6090.0
 20
8045.999999999993
  0
LWPOLYLINE
  5
212
330
17
100
AcDbEntity
  8
TEXT
 62
7
370
15
100
AcDbPolyline
 90
2
 70
0
 10
6090.0
 20
8045.999999999993
 10
6090.0
 20
7962.249999999992
  0
TEXT
  5
213
330
17
100
AcDbEntity
  8
TEXT
 62
7
100
AcDbText
 10
6110.0
 20
7987.249999999992
 30
0.0
 40
33.75
  1
22
  7
GOST
 11
6110.0
 21
7987.249999999992
 31
0.0
100
AcDbText
  0
LWPOLYLINE
  5
214
330
17
100
AcDbEntity
  8
TEXT
 62
7
370
15
100
AcDbPolyline
 90
2
 70
0
 10
6240.0
 20
8045.999999999993
 10
6240.0
 20
7962.249999999992
  0
TEXT
  5
215
330
17
100
AcDbEntity
  8
TEXT
 62
7
100
AcDbText
 10
6260.0
 20
7987.249999999992
 30
0.0
 40
33.75
  1
P-R10 БП LED (съёмный ящик у карниза)
  7
GOST
 11
6260.0
 21
7987.249999999992
 31
0.0
100
AcDbText
  0
LWPOLYLINE
  5
216
330
17
100
AcDbEntity
  8
TEXT
 62
7
370
15
100
AcDbPolyline
 90
2
 70
0
 10
7640.000000000001
 20
8045.999999999993
 10
7640.000000000001
 20
7962.249999999992
  0
TEXT
  5
217
330
17
100
AcDbEntity
  8
TEXT
 62
7
100
AcDbText
 10
7660.000000000001
 20
7987.249999999992
 30
0.0
 40
33.75
  1
6616
  7
GOST
 11
7660.000000000001
 21
7987.249999999992
 31
0.0
100
AcDbText
  0
LWPOLYLINE
  5
218
330
17
100
AcDbEntity
  8
TEXT
 62
7
370
15
100
AcDbPolyline
 90
2
 70
0
 10
8065.000000000001
 20
8045.999999999993
 10
8065.000000000001
 20
7962.249999999992
  0
TEXT
  5
219
330
17
100
AcDbEntity
  8
TEXT
 62
7
100
AcDbText
 10
8085.000000000001
 20
7987.249999999992
 30
0.0
 40
33.75
  1
2600
  7
GOST
 11
8085.000000000001
 21
7987.249999999992
 31
0.0
100
AcDbText
  0
LWPOLYLINE
  5
21A
330
17
100
AcDbEntity
  8
TEXT
 62
7
370
15
100
AcDbPolyline
 90
2
 70
0
 10
8490.0
 20
8045.999999999993
 10
8490.0
 20
7962.249999999992
  0
LWPOLYLINE
  5
21B
330
17
100
AcDbEntity
  8
TEXT
 62
7
370
35
100
AcDbPolyline
 90
4
 70
1
 10
6090.0
 20
7962.249999999992
 10
8490.0
 20
7962.249999999992
 10
8490.0
 20
10300.0
 10
6090.0
 20
10300.0
  0
TEXT
  5
21C
330
17
100
AcDbEntity
  8
TEXT
 62
7
100
AcDbText
 10
750.0
 20
6950.0
 30
0.0
 40
35.0
  1
Отделка: буазери M06 C3; стены C2; ось композиции y=6616 = ось кровати = ось ТВ
  7
GOST
 11
750.0
 21
6950.0
 31
0.0
100
AcDbText
  0
TEXT
  5
21D
330
17
100
AcDbEntity
  8
TEXT
 62
7
100
AcDbText
 10
800.0
 20
6728.187499999998
 30
0.0
 40
50.0
  1
Спальня — W7: ТВ-зона по оси y=6616
  7
GOST
 11
800.0
 21
6728.187499999998
 31
0.0
100
AcDbText
  0
TEXT
  5
21E
330
17
100
AcDbEntity
  8
TEXT
 62
7
100
AcDbText
 10
800.0
 20
6653.187499999998
 30
0.0
 40
37.5
  1
из спальни на восток: слева y=3721, справа y=8911 М 1:25
  7
GOST
 11
800.0
 21
6653.187499999998
 31
0.0
100
AcDbText
  0
HATCH
  5
21F
330
17
100
AcDbEntity
  8
AR-WALLS
 62
7
420
16513783
100
AcDbHatch
 10
0.0
 20
0.0
 30
0.0
210
0.0
220
0.0
230
1.0
  2
SOLID
 70
1
 71
0
 91
1
 92
3
 72
0
 73
1
 93
4
 10
800.0
 20
3753.1874999999986
 10
5990.0
 20
3753.1874999999986
 10
5990.0
 20
6453.187499999998
 10
800.0
 20
6453.187499999998
 97
0
 75
1
 76
1
 98
0
  0
LWPOLYLINE
  5
220
330
17
100
AcDbEntity
  8
AR-WALLS
 62
7
370
50
100
AcDbPolyline
 90
4
 70
1
 10
800.0
 20
3753.1874999999986
 10
5990.0
 20
3753.1874999999986
 10
5990.0
 20
6453.187499999998
 10
800.0
 20
6453.187499999998
  0
HATCH
  5
221
330
17
100
AcDbEntity
  8
AR-FIN
 62
7
420
14214896
100
AcDbHatch
 10
0.0
 20
0.0
 30
0.0
210
0.0
220
0.0
230
1.0
  2
SOLID
 70
1
 71
0
 91
1
 92
3
 72
0
 73
1
 93
4
 10
1899.0000000000002
 20
3753.1874999999986
 10
5990.0
 20
3753.1874999999986
 10
5990.0
 20
6453.187499999998
 10
1899.0000000000002
 20
6453.187499999998
 97
0
 75
1
 76
1
 98
0
  0
LWPOLYLINE
  5
222
330
17
100
AcDbEntity
  8
AR-FIN
370
20
420
4473924
100
AcDbPolyline
 90
4
 70
1
 10
1899.0000000000002
 20
3753.1874999999986
 10
5990.0
 20
3753.1874999999986
 10
5990.0
 20
6453.187499999998
 10
1899.0000000000002
 20
6453.187499999998
  0
HATCH
  5
223
330
17
100
AcDbEntity
  8
AR-FIN
 62
7
420
10066329
100
AcDbHatch
 10
0.0
 20
0.0
 30
0.0
210
0.0
220
0.0
230
1.0
  2
LINE
 70
0
 71
0
 91
1
 92
3
 72
0
 73
1
 93
4
 10
1700.0
 20
3753.1874999999986
 10
1899.0000000000002
 20
3753.1874999999986
 10
1899.0000000000002
 20
6453.187499999998
 10
1700.0
 20
6453.187499999998
 97
0
 75
1
 76
1
 52
0.0
 41
6.875000000000001
 77
0
 78
1
 53
0.0
 43
0.0
 44
0.0
 45
0.0
 46
21.828125
 79
0
 98
0
  0
HATCH
  5
224
330
17
100
AcDbEntity
  8
AR-FIN
 62
7
420
15985368
440
33554559
100
AcDbHatch
 10
0.0
 20
0.0
 30
0.0
210
0.0
220
0.0
230
1.0
  2
SOLID
 70
1
 71
0
 91
1
 92
3
 72
0
 73
1
 93
4
 10
1700.0
 20
3753.1874999999986
 10
1899.0000000000002
 20
3753.1874999999986
 10
1899.0000000000002
 20
6453.187499999998
 10
1700.0
 20
6453.187499999998
 97
0
 75
1
 76
1
 98
0
  0
LWPOLYLINE
  5
225
330
17
100
AcDbEntity
  8
AR-FIN
  6
DASHED
370
20
 48
75.0
420
4473924
100
AcDbPolyline
 90
4
 70
1
 10
1700.0
 20
3753.1874999999986
 10
1899.0000000000002
 20
3753.1874999999986
 10
1899.0000000000002
 20
6453.187499999998
 10
1700.0
 20
6453.187499999998
  0
HATCH
  5
226
330
17
100
AcDbEntity
  8
AR-FIN
 62
7
420
14274496
100
AcDbHatch
 10
0.0
 20
0.0
 30
0.0
210
0.0
220
0.0
230
1.0
  2
SOLID
 70
1
 71
0
 91
1
 92
3
 72
0
 73
1
 93
4
 10
2795.0
 20
4303.187499999998
 10
4595.0
 20
4303.187499999998
 10
4595.0
 20
6103.187499999998
 10
2795.0
 20
6103.187499999998
 97
0
 75
1
 76
1
 98
0
  0
LWPOLYLINE
  5
227
330
17
100
AcDbEntity
  8
AR-FIN
370
20
420
4473924
100
AcDbPolyline
 90
4
 70
1
 10
2795.0
 20
4303.187499999998
 10
4595.0
 20
4303.187499999998
 10
4595.0
 20
6103.187499999998
 10
2795.0
 20
6103.187499999998
  0
HATCH
  5
228
330
17
100
AcDbEntity
  8
AR-FIN
 62
7
420
15854818
100
AcDbHatch
 10
0.0
 20
0.0
 30
0.0
210
0.0
220
0.0
230
1.0
  2
SOLID
 70
1
 71
0
 91
1
 92
3
 72
0
 73
1
 93
4
 10
800.0
 20
3753.1874999999986
 10
1700.0
 20
3753.1874999999986
 10
1700.0
 20
5878.187499999998
 10
800.0
 20
5878.187499999998
 97
0
 75
1
 76
1
 98
0
  0
LWPOLYLINE
  5
229
330
17
100
AcDbEntity
  8
AR-FIN
370
20
420
4473924
100
AcDbPolyline
 90
4
 70
1
 10
800.0
 20
3753.1874999999986
 10
1700.0
 20
3753.1874999999986
 10
1700.0
 20
5878.187499999998
 10
800.0
 20
5878.187499999998
  0
HATCH
  5
22A
330
17
100
AcDbEntity
  8
FURN
 62
7
420
14930872
100
AcDbHatch
 10
0.0
 20
0.0
 30
0.0
210
0.0
220
0.0
230
1.0
  2
SOLID
 70
1
 71
0
 91
1
 92
3
 72
0
 73
1
 93
4
 10
2895.0
 20
4003.1874999999986
 10
4495.0
 20
4003.1874999999986
 10
4495.0
 20
4203.187499999998
 10
2895.0
 20
4203.187499999998
 97
0
 75
1
 76
1
 98
0
  0
LWPOLYLINE
  5
22B
330
17
100
AcDbEntity
  8
FURN
370
20
420
4473924
100
AcDbPolyline
 90
4
 70
1
 10
2895.0
 20
4003.1874999999986
 10
4495.0
 20
4003.1874999999986
 10
4495.0
 20
4203.187499999998
 10
2895.0
 20
4203.187499999998
  0
HATCH
  5
22C
330
17
100
AcDbEntity
  8
FURN
 62
7
420
15658734
100
AcDbHatch
 10
0.0
 20
0.0
 30
0.0
210
0.0
220
0.0
230
1.0
  2
SOLID
 70
1
 71
0
 91
1
 92
3
 72
0
 73
1
 93
4
 10
2975.0
 20
4498.187499999999
 10
4415.0
 20
4498.187499999999
 10
4415.0
 20
5308.187499999998
 10
2975.0
 20
5308.187499999998
 97
0
 75
1
 76
1
 98
0
  0
LWPOLYLINE
  5
22D
330
17
100
AcDbEntity
  8
FURN
370
20
420
4473924
100
AcDbPolyline
 90
4
 70
1
 10
2975.0
 20
4498.187499999999
 10
4415.0
 20
4498.187499999999
 10
4415.0
 20
5308.187499999998
 10
2975.0
 20
5308.187499999998
  0
HATCH
  5
22E
330
17
100
AcDbEntity
  8
EL-SOCKET
 62
7
420
9323693
100
AcDbHatch
 10
0.0
 20
0.0
 30
0.0
210
0.0
220
0.0
230
1.0
  2
SOLID
 70
1
 71
0
 91
1
 92
1
 93
1
 72
2
 10
3695.0000000000005
 20
4903.187499999998
 40
20.0
 50
0
 51
360
 73
1
 97
0
 75
1
 76
1
 98
0
  0
CIRCLE
  5
22F
330
17
100
AcDbEntity
  8
EL-SOCKET
370
13
420
9323693
100
AcDbCircle
 10
3695.0000000000005
 20
4903.187499999998
 30
0.0
 40
20.0
  0
HATCH
  5
230
330
17
100
AcDbEntity
  8
VK
 62
7
420
1998130
100
AcDbHatch
 10
0.0
 20
0.0
 30
0.0
210
0.0
220
0.0
230
1.0
  2
SOLID
 70
1
 71
0
 91
1
 92
1
 93
1
 72
2
 10
3695.0000000000005
 20
4903.187499999998
 40
20.0
 50
0
 51
360
 73
1
 97
0
 75
1
 76
1
 98
0
  0
CIRCLE
  5
231
330
17
100
AcDbEntity
  8
VK
370
13
420
1998130
100
AcDbCircle
 10
3695.0000000000005
 20
4903.187499999998
 30
0.0
 40
20.0
  0
HATCH
  5
232
330
17
100
AcDbEntity
  8
EL-SOCKET
 62
7
420
9323693
100
AcDbHatch
 10
0.0
 20
0.0
 30
0.0
210
0.0
220
0.0
230
1.0
  2
SOLID
 70
1
 71
0
 91
1
 92
1
 93
1
 72
2
 10
3379.0
 20
4103.187499999998
 40
20.0
 50
0
 51
360
 73
1
 97
0
 75
1
 76
1
 98
0
  0
CIRCLE
  5
233
330
17
100
AcDbEntity
  8
EL-SOCKET
370
13
420
9323693
100
AcDbCircle
 10
3379.0
 20
4103.187499999998
 30
0.0
 40
20.0
  0
HATCH
  5
234
330
17
100
AcDbEntity
  8
EL-SOCKET
 62
7
420
9323693
100
AcDbHatch
 10
0.0
 20
0.0
 30
0.0
210
0.0
220
0.0
230
1.0
  2
SOLID
 70
1
 71
0
 91
1
 92
1
 93
1
 72
2
 10
3979.0
 20
4103.187499999998
 40
20.0
 50
0
 51
360
 73
1
 97
0
 75
1
 76
1
 98
0
  0
CIRCLE
  5
235
330
17
100
AcDbEntity
  8
EL-SOCKET
370
13
420
9323693
100
AcDbCircle
 10
3979.0
 20
4103.187499999998
 30
0.0
 40
20.0
  0
HATCH
  5
236
330
17
100
AcDbEntity
  8
VK
 62
7
420
12092939
100
AcDbHatch
 10
0.0
 20
0.0
 30
0.0
210
0.0
220
0.0
230
1.0
  2
SOLID
 70
1
 71
0
 91
1
 92
1
 93
1
 72
2
 10
1999.0000000000002
 20
4653.187499999998
 40
20.0
 50
0
 51
360
 73
1
 97
0
 75
1
 76
1
 98
0
  0
CIRCLE
  5
237
330
17
100
AcDbEntity
  8
VK
370
13
420
12092939
100
AcDbCircle
 10
1999.0000000000002
 20
4653.187499999998
 30
0.0
 40
20.0
  0
HATCH
  5
238
330
17
100
AcDbEntity
  8
EL-SOCKET
 62
7
420
9323693
100
AcDbHatch
 10
0.0
 20
0.0
 30
0.0
210
0.0
220
0.0
230
1.0
  2
SOLID
 70
1
 71
0
 91
1
 92
1
 93
1
 72
2
 10
2129.0
 20
4053.1874999999986
 40
20.0
 50
0
 51
360
 73
1
 97
0
 75
1
 76
1
 98
0
  0
CIRCLE
  5
239
330
17
100
AcDbEntity
  8
EL-SOCKET
370
13
420
9323693
100
AcDbCircle
 10
2129.0
 20
4053.1874999999986
 30
0.0
 40
20.0
  0
HATCH
  5
23A
330
17
100
AcDbEntity
  8
EL-SOCKET
 62
7
420
9323693
100
AcDbHatch
 10
0.0
 20
0.0
 30
0.0
210
0.0
220
0.0
230
1.0
  2
SOLID
 70
1
 71
0
 91
1
 92
1
 93
1
 72
2
 10
5829.0
 20
6353.187499999998
 40
20.0
 50
0
 51
360
 73
1
 97
0
 75
1
 76
1
 98
0
  0
CIRCLE
  5
23B
330
17
100
AcDbEntity
  8
EL-SOCKET
370
13
420
9323693
100
AcDbCircle
 10
5829.0
 20
6353.187499999998
 30
0.0
 40
20.0
  0
HATCH
  5
23C
330
17
100
AcDbEntity
  8
VK
 62
7
420
12092939
100
AcDbHatch
 10
0.0
 20
0.0
 30
0.0
210
0.0
220
0.0
230
1.0
  2
SOLID
 70
1
 71
0
 91
1
 92
1
 93
1
 72
2
 10
3695.0000000000005
 20
4003.1874999999986
 40
20.0
 50
0
 51
360
 73
1
 97
0
 75
1
 76
1
 98
0
  0
CIRCLE
  5
23D
330
17
100
AcDbEntity
  8
VK
370
13
420
12092939
100
AcDbCircle
 10
3695.0000000000005
 20
4003.1874999999986
 30
0.0
 40
20.0
  0
TEXT
  5
23E
330
17
100
AcDbEntity
  8
TEXT
420
9323693
100
AcDbText
 10
3770.0000000000005
 20
4978.187499999998
 30
0.0
 40
37.5
  1
7
  7
GOST
 11
3770.0000000000005
 21
4978.187499999998
 31
0.0
100
AcDbText
  0
LWPOLYLINE
  5
23F
330
17
100
AcDbEntity
  8
TEXT
370
15
420
9323693
100
AcDbPolyline
 90
2
 70
0
 10
3695.0000000000005
 20
4903.187499999998
 10
3770.0000000000005
 20
4978.187499999998
  0
TEXT
  5
240
330
17
100
AcDbEntity
  8
TEXT
420
1998130
100
AcDbText
 10
3770.0000000000005
 20
4978.187499999998
 30
0.0
 40
37.5
  1
8
  7
GOST
 11
3770.0000000000005
 21
4978.187499999998
 31
0.0
100
AcDbText
  0
LWPOLYLINE
  5
241
330
17
100
AcDbEntity
  8
TEXT
370
15
420
1998130
100
AcDbPolyline
 90
2
 70
0
 10
3695.0000000000005
 20
4903.187499999998
 10
3770.0000000000005
 20
4978.187499999998
  0
TEXT
  5
242
330
17
100
AcDbEntity
  8
TEXT
420
9323693
100
AcDbText
 10
3454.0
 20
4178.187499999998
 30
0.0
 40
37.5
  1
9
  7
GOST
 11
3454.0
 21
4178.187499999998
 31
0.0
100
AcDbText
  0
LWPOLYLINE
  5
243
330
17
100
AcDbEntity
  8
TEXT
370
15
420
9323693
100
AcDbPolyline
 90
2
 70
0
 10
3379.0
 20
4103.187499999998
 10
3454.0
 20
4178.187499999998
  0
TEXT
  5
244
330
17
100
AcDbEntity
  8
TEXT
420
9323693
100
AcDbText
 10
4054.0
 20
4178.187499999998
 30
0.0
 40
37.5
  1
10
  7
GOST
 11
4054.0
 21
4178.187499999998
 31
0.0
100
AcDbText
  0
LWPOLYLINE
  5
245
330
17
100
AcDbEntity
  8
TEXT
370
15
420
9323693
100
AcDbPolyline
 90
2
 70
0
 10
3979.0
 20
4103.187499999998
 10
4054.0
 20
4178.187499999998
  0
TEXT
  5
246
330
17
100
AcDbEntity
  8
TEXT
420
12092939
100
AcDbText
 10
2074.0
 20
4728.187499999998
 30
0.0
 40
37.5
  1
11
  7
GOST
 11
2074.0
 21
4728.187499999998
 31
0.0
100
AcDbText
  0
LWPOLYLINE
  5
247
330
17
100
AcDbEntity
  8
TEXT
370
15
420
12092939
100
AcDbPolyline
 90
2
 70
0
 10
1999.0000000000002
 20
4653.187499999998
 10
2074.0
 20
4728.187499999998
  0
TEXT
  5
248
330
17
100
AcDbEntity
  8
TEXT
420
9323693
100
AcDbText
 10
2204.0
 20
4128.187499999998
 30
0.0
 40
37.5
  1
12
  7
GOST
 11
2204.0
 21
4128.187499999998
 31
0.0
100
AcDbText
  0
LWPOLYLINE
  5
249
330
17
100
AcDbEntity
  8
TEXT
370
15
420
9323693
100
AcDbPolyline
 90
2
 70
0
 10
2129.0
 20
4053.1874999999986
 10
2204.0
 20
4128.187499999998
  0
TEXT
  5
24A
330
17
100
AcDbEntity
  8
TEXT
420
9323693
100
AcDbText
 10
5797.046714248971
 20
6490.687499999998
 30
0.0
 40
37.5
  1
13
  7
GOST
 11
5797.046714248971
 21
6490.687499999998
 31
0.0
100
AcDbText
  0
LWPOLYLINE
  5
24B
330
17
100
AcDbEntity
  8
TEXT
370
15
420
9323693
100
AcDbPolyline
 90
2
 70
0
 10
5829.0
 20
6353.187499999998
 10
5829.0
 20
6483.187499999998
  0
HATCH
  5
24C
330
17
100
AcDbEntity
  8
TEXT
 62
7
420
9323693
100
AcDbHatch
 10
0.0
 20
0.0
 30
0.0
210
0.0
220
0.0
230
1.0
  2
SOLID
 70
1
 71
0
 91
1
 92
1
 93
1
 72
2
 10
5829.0
 20
6353.187499999998
 40
6.25
 50
0
 51
360
 73
1
 97
0
 75
1
 76
1
 98
0
  0
CIRCLE
  5
24D
330
17
100
AcDbEntity
  8
TEXT
370
13
420
9323693
100
AcDbCircle
 10
5829.0
 20
6353.187499999998
 30
0.0
 40
6.25
  0
TEXT
  5
24E
330
17
100
AcDbEntity
  8
TEXT
420
12092939
100
AcDbText
 10
3662.427822788066
 20
3690.6874999999986
 30
0.0
 40
37.5
  1
14
  7
GOST
 11
3662.427822788066
 21
3690.6874999999986
 31
0.0
100
AcDbText
  0
LWPOLYLINE
  5
24F
330
17
100
AcDbEntity
  8
TEXT
370
15
420
12092939
100
AcDbPolyline
 90
2
 70
0
 10
3695.0000000000005
 20
4003.1874999999986
 10
3695.0000000000005
 20
3735.6874999999986
  0
HATCH
  5
250
330
17
100
AcDbEntity
  8
TEXT
 62
7
420
12092939
100
AcDbHatch
 10
0.0
 20
0.0
 30
0.0
210
0.0
220
0.0
230
1.0
  2
SOLID
 70
1
 71
0
 91
1
 92
1
 93
1
 72
2
 10
3695.0000000000005
 20
4003.1874999999986
 40
6.25
 50
0
 51
360
 73
1
 97
0
 75
1
 76
1
 98
0
  0
CIRCLE
  5
251
330
17
100
AcDbEntity
  8
TEXT
370
13
420
12092939
100
AcDbCircle
 10
3695.0000000000005
 20
4003.1874999999986
 30
0.0
 40
6.25
  0
TEXT
  5
252
330
17
100
AcDbEntity
  8
TEXT
420
3355443
100
AcDbText
 10
4019.5
 20
5178.187499999998
 30
0.0
 40
37.5
  1
1
  7
GOST
 11
4019.5
 21
5178.187499999998
 31
0.0
100
AcDbText
  0
LWPOLYLINE
  5
253
330
17
100
AcDbEntity
  8
TEXT
370
15
420
7829367
100
AcDbPolyline
 90
2
 70
0
 10
3944.5
 20
5103.187499999998
 10
4019.5
 20
5178.187499999998
  0
TEXT
  5
254
330
17
100
AcDbEntity
  8
TEXT
420
3355443
100
AcDbText
 10
1874.5
 20
5178.187499999998
 30
0.0
 40
37.5
  1
2
  7
GOST
 11
1874.5
 21
5178.187499999998
 31
0.0
100
AcDbText
  0
LWPOLYLINE
  5
255
330
17
100
AcDbEntity
  8
TEXT
370
15
420
7829367
100
AcDbPolyline
 90
2
 70
0
 10
1799.5
 20
5103.187499999998
 10
1874.5
 20
5178.187499999998
  0
TEXT
  5
256
330
17
100
AcDbEntity
  8
TEXT
420
3355443
100
AcDbText
 10
3770.0000000000005
 20
5278.187499999998
 30
0.0
 40
37.5
  1
3
  7
GOST
 11
3770.0000000000005
 21
5278.187499999998
 31
0.0
100
AcDbText
  0
LWPOLYLINE
  5
257
330
17
100
AcDbEntity
  8
TEXT
370
15
420
7829367
100
AcDbPolyline
 90
2
 70
0
 10
3695.0000000000005
 20
5203.187499999998
 10
3770.0000000000005
 20
5278.187499999998
  0
TEXT
  5
258
330
17
100
AcDbEntity
  8
TEXT
420
3355443
100
AcDbText
 10
1325.0
 20
4890.687499999998
 30
0.0
 40
37.5
  1
4
  7
GOST
 11
1325.0
 21
4890.687499999998
 31
0.0
100
AcDbText
  0
LWPOLYLINE
  5
259
330
17
100
AcDbEntity
  8
TEXT
370
15
420
7829367
100
AcDbPolyline
 90
2
 70
0
 10
1250.0
 20
4815.687499999998
 10
1325.0
 20
4890.687499999998
  0
TEXT
  5
25A
330
17
100
AcDbEntity
  8
TEXT
420
3355443
100
AcDbText
 10
3770.0000000000005
 20
4178.187499999998
 30
0.0
 40
37.5
  1
5
  7
GOST
 11
3770.0000000000005
 21
4178.187499999998
 31
0.0
100
AcDbText
  0
LWPOLYLINE
  5
25B
330
17
100
AcDbEntity
  8
TEXT
370
15
420
7829367
100
AcDbPolyline
 90
2
 70
0
 10
3695.0000000000005
 20
4103.187499999998
 10
3770.0000000000005
 20
4178.187499999998
  0
TEXT
  5
25C
330
17
100
AcDbEntity
  8
TEXT
420
3355443
100
AcDbText
 10
3770.0000000000005
 20
4978.187499999998
 30
0.0
 40
37.5
  1
6
  7
GOST
 11
3770.0000000000005
 21
4978.187499999998
 31
0.0
100
AcDbText
  0
LWPOLYLINE
  5
25D
330
17
100
AcDbEntity
  8
TEXT
370
15
420
7829367
100
AcDbPolyline
 90
2
 70
0
 10
3695.0000000000005
 20
4903.187499999998
 10
3770.0000000000005
 20
4978.187499999998
  0
LWPOLYLINE
  5
25E
330
17
100
AcDbEntity
  8
DIM
 62
7
370
15
100
AcDbPolyline
 90
2
 70
0
 10
775.0
 20
3653.1874999999986
 10
6015.0
 20
3653.1874999999986
  0
LWPOLYLINE
  5
25F
330
17
100
AcDbEntity
  8
DIM
 62
7
370
30
100
AcDbPolyline
 90
2
 70
0
 10
782.5
 20
3635.6874999999986
 10
817.5000000000001
 20
3670.687499999998
  0
LWPOLYLINE
  5
260
330
17
100
AcDbEntity
  8
DIM
 62
7
370
13
100
AcDbPolyline
 90
2
 70
0
 10
800.0
 20
3653.1874999999986
 10
800.0
 20
3715.6874999999986
  0
LWPOLYLINE
  5
261
330
17
100
AcDbEntity
  8
DIM
 62
7
370
30
100
AcDbPolyline
 90
2
 70
0
 10
1981.5000000000002
 20
3635.6874999999986
 10
2016.5000000000002
 20
3670.687499999998
  0
LWPOLYLINE
  5
262
330
17
100
AcDbEntity
  8
DIM
 62
7
370
13
100
AcDbPolyline
 90
2
 70
0
 10
1999.0000000000002
 20
3653.1874999999986
 10
1999.0000000000002
 20
3715.6874999999986
  0
LWPOLYLINE
  5
263
330
17
100
AcDbEntity
  8
DIM
 62
7
370
30
100
AcDbPolyline
 90
2
 70
0
 10
2111.5
 20
3635.6874999999986
 10
2146.5
 20
3670.687499999998
  0
LWPOLYLINE
  5
264
330
17
100
AcDbEntity
  8
DIM
 62
7
370
13
100
AcDbPolyline
 90
2
 70
0
 10
2129.0
 20
3653.1874999999986
 10
2129.0
 20
3715.6874999999986
  0
LWPOLYLINE
  5
265
330
17
100
AcDbEntity
  8
DIM
 62
7
370
30
100
AcDbPolyline
 90
2
 70
0
 10
3361.5
 20
3635.6874999999986
 10
3396.4999999999995
 20
3670.687499999998
  0
LWPOLYLINE
  5
266
330
17
100
AcDbEntity
  8
DIM
 62
7
370
13
100
AcDbPolyline
 90
2
 70
0
 10
3379.0
 20
3653.1874999999986
 10
3379.0
 20
3715.6874999999986
  0
LWPOLYLINE
  5
267
330
17
100
AcDbEntity
  8
DIM
 62
7
370
30
100
AcDbPolyline
 90
2
 70
0
 10
3677.5000000000005
 20
3635.6874999999986
 10
3712.5
 20
3670.687499999998
  0
LWPOLYLINE
  5
268
330
17
100
AcDbEntity
  8
DIM
 62
7
370
13
100
AcDbPolyline
 90
2
 70
0
 10
3695.0000000000005
 20
3653.1874999999986
 10
3695.0000000000005
 20
3715.6874999999986
  0
LWPOLYLINE
  5
269
330
17
100
AcDbEntity
  8
DIM
 62
7
370
30
100
AcDbPolyline
 90
2
 70
0
 10
3961.5
 20
3635.6874999999986
 10
3996.4999999999995
 20
3670.687499999998
  0
LWPOLYLINE
  5
26A
330
17
100
AcDbEntity
  8
DIM
 62
7
370
13
100
AcDbPolyline
 90
2
 70
0
 10
3979.0
 20
3653.1874999999986
 10
3979.0
 20
3715.6874999999986
  0
LWPOLYLINE
  5
26B
330
17
100
AcDbEntity
  8
DIM
 62
7
370
30
100
AcDbPolyline
 90
2
 70
0
 10
5811.5
 20
3635.6874999999986
 10
5846.5
 20
3670.687499999998
  0
LWPOLYLINE
  5
26C
330
17
100
AcDbEntity
  8
DIM
 62
7
370
13
100
AcDbPolyline
 90
2
 70
0
 10
5829.0
 20
3653.1874999999986
 10
5829.0
 20
3715.6874999999986
  0
LWPOLYLINE
  5
26D
330
17
100
AcDbEntity
  8
DIM
 62
7
370
30
100
AcDbPolyline
 90
2
 70
0
 10
5972.5
 20
3635.6874999999986
 10
6007.5
 20
3670.687499999998
  0
LWPOLYLINE
  5
26E
330
17
100
AcDbEntity
  8
DIM
 62
7
370
13
100
AcDbPolyline
 90
2
 70
0
 10
5990.0
 20
3653.1874999999986
 10
5990.0
 20
3715.6874999999986
  0
TEXT
  5
26F
330
17
100
AcDbEntity
  8
DIM
 62
7
100
AcDbText
 10
1399.5
 20
3665.6874999999986
 30
0.0
 40
35.0
  1
1199
  7
GOST
 72
1
 11
1399.5
 21
3665.6874999999986
 31
0.0
100
AcDbText
  0
TEXT
  5
270
330
17
100
AcDbEntity
  8
DIM
 62
7
100
AcDbText
 10
2064.0
 20
3665.6874999999986
 30
0.0
 40
35.0
  1
130
  7
GOST
 72
1
 11
2064.0
 21
3665.6874999999986
 31
0.0
100
AcDbText
  0
TEXT
  5
271
330
17
100
AcDbEntity
  8
DIM
 62
7
100
AcDbText
 10
2754.0
 20
3665.6874999999986
 30
0.0
 40
35.0
  1
1250
  7
GOST
 72
1
 11
2754.0
 21
3665.6874999999986
 31
0.0
100
AcDbText
  0
TEXT
  5
272
330
17
100
AcDbEntity
  8
DIM
 62
7
100
AcDbText
 10
3537.0000000000005
 20
3665.6874999999986
 30
0.0
 40
35.0
  1
316
  7
GOST
 72
1
 11
3537.0000000000005
 21
3665.6874999999986
 31
0.0
100
AcDbText
  0
TEXT
  5
273
330
17
100
AcDbEntity
  8
DIM
 62
7
100
AcDbText
 10
3837.0000000000005
 20
3665.6874999999986
 30
0.0
 40
35.0
  1
284
  7
GOST
 72
1
 11
3837.0000000000005
 21
3665.6874999999986
 31
0.0
100
AcDbText
  0
TEXT
  5
274
330
17
100
AcDbEntity
  8
DIM
 62
7
100
AcDbText
 10
4904.0
 20
3665.6874999999986
 30
0.0
 40
35.0
  1
1850
  7
GOST
 72
1
 11
4904.0
 21
3665.6874999999986
 31
0.0
100
AcDbText
  0
TEXT
  5
275
330
17
100
AcDbEntity
  8
DIM
 62
7
100
AcDbText
 10
5909.5
 20
3665.6874999999986
 30
0.0
 40
35.0
  1
161
  7
GOST
 72
1
 11
5909.5
 21
3665.6874999999986
 31
0.0
100
AcDbText
  0
LWPOLYLINE
  5
276
330
17
100
AcDbEntity
  8
DIM
 62
7
370
15
100
AcDbPolyline
 90
2
 70
0
 10
775.0
 20
3540.6874999999986
 10
6015.0
 20
3540.6874999999986
  0
LWPOLYLINE
  5
277
330
17
100
AcDbEntity
  8
DIM
 62
7
370
30
100
AcDbPolyline
 90
2
 70
0
 10
782.5
 20
3523.1874999999986
 10
817.5000000000001
 20
3558.187499999998
  0
LWPOLYLINE
  5
278
330
17
100
AcDbEntity
  8
DIM
 62
7
370
13
100
AcDbPolyline
 90
2
 70
0
 10
800.0
 20
3540.6874999999986
 10
800.0
 20
3603.1874999999986
  0
LWPOLYLINE
  5
279
330
17
100
AcDbEntity
  8
DIM
 62
7
370
30
100
AcDbPolyline
 90
2
 70
0
 10
5972.5
 20
3523.1874999999986
 10
6007.5
 20
3558.187499999998
  0
LWPOLYLINE
  5
27A
330
17
100
AcDbEntity
  8
DIM
 62
7
370
13
100
AcDbPolyline
 90
2
 70
0
 10
5990.0
 20
3540.6874999999986
 10
5990.0
 20
3603.1874999999986
  0
TEXT
  5
27B
330
17
100
AcDbEntity
  8
DIM
 62
7
100
AcDbText
 10
3395.0000000000005
 20
3553.1874999999986
 30
0.0
 40
40.0
  1
5190
  7
GOST
 72
1
 11
3395.0000000000005
 21
3553.1874999999986
 31
0.0
100
AcDbText
  0
LWPOLYLINE
  5
27C
330
17
100
AcDbEntity
  8
DIM
 62
7
370
15
100
AcDbPolyline
 90
2
 70
0
 10
700.0
 20
3728.1874999999986
 10
700.0
 20
6478.187499999998
  0
LWPOLYLINE
  5
27D
330
17
100
AcDbEntity
  8
DIM
 62
7
370
30
100
AcDbPolyline
 90
2
 70
0
 10
682.5
 20
3735.6874999999986
 10
717.5
 20
3770.687499999998
  0
LWPOLYLINE
  5
27E
330
17
100
AcDbEntity
  8
DIM
 62
7
370
13
100
AcDbPolyline
 90
2
 70
0
 10
700.0
 20
3753.1874999999986
 10
762.5
 20
3753.1874999999986
  0
LWPOLYLINE
  5
27F
330
17
100
AcDbEntity
  8
DIM
 62
7
370
30
100
AcDbPolyline
 90
2
 70
0
 10
682.5
 20
3985.6874999999986
 10
717.5
 20
4020.687499999998
  0
LWPOLYLINE
  5
280
330
17
100
AcDbEntity
  8
DIM
 62
7
370
13
100
AcDbPolyline
 90
2
 70
0
 10
700.0
 20
4003.1874999999986
 10
762.5
 20
4003.1874999999986
  0
LWPOLYLINE
  5
281
330
17
100
AcDbEntity
  8
DIM
 62
7
370
30
100
AcDbPolyline
 90
2
 70
0
 10
682.5
 20
4035.6874999999986
 10
717.5
 20
4070.687499999998
  0
LWPOLYLINE
  5
282
330
17
100
AcDbEntity
  8
DIM
 62
7
370
13
100
AcDbPolyline
 90
2
 70
0
 10
700.0
 20
4053.1874999999986
 10
762.5
 20
4053.1874999999986
  0
LWPOLYLINE
  5
283
330
17
100
AcDbEntity
  8
DIM
 62
7
370
30
100
AcDbPolyline
 90
2
 70
0
 10
682.5
 20
4085.6874999999986
 10
717.5
 20
4120.687499999998
  0
LWPOLYLINE
  5
284
330
17
100
AcDbEntity
  8
DIM
 62
7
370
13
100
AcDbPolyline
 90
2
 70
0
 10
700.0
 20
4103.187499999998
 10
762.5
 20
4103.187499999998
  0
LWPOLYLINE
  5
285
330
17
100
AcDbEntity
  8
DIM
 62
7
370
30
100
AcDbPolyline
 90
2
 70
0
 10
682.5
 20
4635.687499999999
 10
717.5
 20
4670.687499999998
  0
LWPOLYLINE
  5
286
330
17
100
AcDbEntity
  8
DIM
 62
7
370
13
100
AcDbPolyline
 90
2
 70
0
 10
700.0
 20
4653.187499999998
 10
762.5
 20
4653.187499999998
  0
LWPOLYLINE
  5
287
330
17
100
AcDbEntity
  8
DIM
 62
7
370
30
100
AcDbPolyline
 90
2
 70
0
 10
682.5
 20
4885.687499999999
 10
717.5
 20
4920.687499999998
  0
LWPOLYLINE
  5
288
330
17
100
AcDbEntity
  8
DIM
 62
7
370
13
100
AcDbPolyline
 90
2
 70
0
 10
700.0
 20
4903.187499999998
 10
762.5
 20
4903.187499999998
  0
LWPOLYLINE
  5
289
330
17
100
AcDbEntity
  8
DIM
 62
7
370
30
100
AcDbPolyline
 90
2
 70
0
 10
682.5
 20
6335.687499999999
 10
717.5
 20
6370.687499999998
  0
LWPOLYLINE
  5
28A
330
17
100
AcDbEntity
  8
DIM
 62
7
370
13
100
AcDbPolyline
 90
2
 70
0
 10
700.0
 20
6353.187499999998
 10
762.5
 20
6353.187499999998
  0
LWPOLYLINE
  5
28B
330
17
100
AcDbEntity
  8
DIM
 62
7
370
30
100
AcDbPolyline
 90
2
 70
0
 10
682.5
 20
6435.687499999999
 10
717.5
 20
6470.687499999998
  0
LWPOLYLINE
  5
28C
330
17
100
AcDbEntity
  8
DIM
 62
7
370
13
100
AcDbPolyline
 90
2
 70
0
 10
700.0
 20
6453.187499999998
 10
762.5
 20
6453.187499999998
  0
TEXT
  5
28D
330
17
100
AcDbEntity
  8
DIM
 62
7
100
AcDbText
 10
687.5
 20
3878.1874999999986
 30
0.0
 40
35.0
  1
250
 50
90.0
  7
GOST
 72
1
 11
687.5
 21
3878.1874999999986
 31
0.0
100
AcDbText
  0
TEXT
  5
28E
330
17
100
AcDbEntity
  8
DIM
 62
7
100
AcDbText
 10
627.5
 20
4028.1874999999986
 30
0.0
 40
35.0
  1
50
 50
90.0
  7
GOST
 72
1
 11
627.5
 21
4028.1874999999986
 31
0.0
100
AcDbText
  0
TEXT
  5
28F
330
17
100
AcDbEntity
  8
DIM
 62
7
100
AcDbText
 10
567.5
 20
4078.1874999999986
 30
0.0
 40
35.0
  1
50
 50
90.0
  7
GOST
 72
1
 11
567.5
 21
4078.1874999999986
 31
0.0
100
AcDbText
  0
TEXT
  5
290
330
17
100
AcDbEntity
  8
DIM
 62
7
100
AcDbText
 10
687.5
 20
4378.187499999998
 30
0.0
 40
35.0
  1
550
 50
90.0
  7
GOST
 72
1
 11
687.5
 21
4378.187499999998
 31
0.0
100
AcDbText
  0
TEXT
  5
291
330
17
100
AcDbEntity
  8
DIM
 62
7
100
AcDbText
 10
687.5
 20
4778.187499999998
 30
0.0
 40
35.0
  1
250
 50
90.0
  7
GOST
 72
1
 11
687.5
 21
4778.187499999998
 31
0.0
100
AcDbText
  0
TEXT
  5
292
330
17
100
AcDbEntity
  8
DIM
 62
7
100
AcDbText
 10
687.5
 20
5628.187499999998
 30
0.0
 40
35.0
  1
1450
 50
90.0
  7
GOST
 72
1
 11
687.5
 21
5628.187499999998
 31
0.0
100
AcDbText
  0
TEXT
  5
293
330
17
100
AcDbEntity
  8
DIM
 62
7
100
AcDbText
 10
627.5
 20
6403.187499999998
 30
0.0
 40
35.0
  1
100
 50
90.0
  7
GOST
 72
1
 11
627.5
 21
6403.187499999998
 31
0.0
100
AcDbText
  0
TEXT
  5
294
330
17
100
AcDbEntity
  8
TEXT
 62
7
100
AcDbText
 10
6015.0
 20
3735.6874999999986
 30
0.0
 40
37.5
  1
±0.000
  7
GOST
 11
6015.0
 21
3735.6874999999986
 31
0.0
100
AcDbText
  0
TEXT
  5
295
330
17
100
AcDbEntity
  8
TEXT
 62
7
100
AcDbText
 10
6015.0
 20
6435.687499999999
 30
0.0
 40
37.5
  1
+2.700
  7
GOST
 11
6015.0
 21
6435.687499999999
 31
0.0
100
AcDbText
  0
HATCH
  5
296
330
17
100
AcDbEntity
  8
TEXT
 62
7
420
15132390
100
AcDbHatch
 10
0.0
 20
0.0
 30
0.0
210
0.0
220
0.0
230
1.0
  2
SOLID
 70
1
 71
0
 91
1
 92
3
 72
0
 73
1
 93
4
 10
6090.0
 20
6674.437499999999
 10
8490.0
 20
6674.437499999999
 10
8490.0
 20
6778.187499999998
 10
6090.0
 20
6778.187499999998
 97
0
 75
1
 76
1
 98
0
  0
LWPOLYLINE
  5
297
330
17
100
AcDbEntity
  8
TEXT
 62
7
370
25
100
AcDbPolyline
 90
4
 70
1
 10
6090.0
 20
6674.437499999999
 10
8490.0
 20
6674.437499999999
 10
8490.0
 20
6778.187499999998
 10
6090.0
 20
6778.187499999998
  0
LWPOLYLINE
  5
298
330
17
100
AcDbEntity
  8
TEXT
 62
7
370
15
100
AcDbPolyline
 90
2
 70
0
 10
6090.0
 20
6778.187499999998
 10
6090.0
 20
6674.437499999999
  0
TEXT
  5
299
330
17
100
AcDbEntity
  8
TEXT
 62
7
100
AcDbText
 10
6110.0
 20
6719.437499999998
 30
0.0
 40
33.75
  1
№
  7
GOST
 11
6110.0
 21
6719.437499999998
 31
0.0
100
AcDbText
  0
LWPOLYLINE
  5
29A
330
17
100
AcDbEntity
  8
TEXT
 62
7
370
15
100
AcDbPolyline
 90
2
 70
0
 10
6240.0
 20
6778.187499999998
 10
6240.0
 20
6674.437499999999
  0
TEXT
  5
29B
330
17
100
AcDbEntity
  8
TEXT
 62
7
100
AcDbText
 10
6260.0
 20
6719.437499999998
 30
0.0
 40
33.75
  1
Элемент
  7
GOST
 11
6260.0
 21
6719.437499999998
 31
0.0
100
AcDbText
  0
LWPOLYLINE
  5
29C
330
17
100
AcDbEntity
  8
TEXT
 62
7
370
15
100
AcDbPolyline
 90
2
 70
0
 10
7640.000000000001
 20
6778.187499999998
 10
7640.000000000001
 20
6674.437499999999
  0
TEXT
  5
29D
330
17
100
AcDbEntity
  8
TEXT
 62
7
100
AcDbText
 10
7660.000000000001
 20
6719.437499999998
 30
0.0
 40
33.75
  1
s, мм
  7
GOST
 11
7660.000000000001
 21
6719.437499999998
 31
0.0
100
AcDbText
  0
LWPOLYLINE
  5
29E
330
17
100
AcDbEntity
  8
TEXT
 62
7
370
15
100
AcDbPolyline
 90
2
 70
0
 10
8065.000000000001
 20
6778.187499999998
 10
8065.000000000001
 20
6674.437499999999
  0
TEXT
  5
29F
330
17
100
AcDbEntity
  8
TEXT
 62
7
100
AcDbText
 10
8085.000000000001
 20
6719.437499999998
 30
0.0
 40
33.75
  1
z, мм
  7
GOST
 11
8085.000000000001
 21
6719.437499999998
 31
0.0
100
AcDbText
  0
LWPOLYLINE
  5
2A0
330
17
100
AcDbEntity
  8
TEXT
 62
7
370
15
100
AcDbPolyline
 90
2
 70
0
 10
8490.0
 20
6778.187499999998
 10
8490.0
 20
6674.437499999999
  0
LWPOLYLINE
  5
2A1
330
17
100
AcDbEntity
  8
TEXT
 62
7
370
15
100
AcDbPolyline
 90
4
 70
1
 10
6090.0
 20
6541.749999999999
 10
8490.0
 20
6541.749999999999
 10
8490.0
 20
6674.437499999999
 10
6090.0
 20
6674.437499999999
  0
LWPOLYLINE
  5
2A2
330
17
100
AcDbEntity
  8
TEXT
 62
7
370
15
100
AcDbPolyline
 90
2
 70
0
 10
6090.0
 20
6674.437499999999
 10
6090.0
 20
6541.749999999999
  0
TEXT
  5
2A3
330
17
100
AcDbEntity
  8
TEXT
 62
7
100
AcDbText
 10
6110.0
 20
6615.687499999998
 30
0.0
 40
33.75
  1
1
  7
GOST
 11
6110.0
 21
6615.687499999998
 31
0.0
100
AcDbText
  0
LWPOLYLINE
  5
2A4
330
17
100
AcDbEntity
  8
TEXT
 62
7
370
15
100
AcDbPolyline
 90
2
 70
0
 10
6240.0
 20
6674.437499999999
 10
6240.0
 20
6541.749999999999
  0
TEXT
  5
2A5
330
17
100
AcDbEntity
  8
TEXT
 62
7
100
AcDbText
 10
6260.0
 20
6615.687499999998
 30
0.0
 40
33.75
  1
облицовка W7 ГКЛ 12,5 на клею/профиле (−40) y
  7
GOST
 11
6260.0
 21
6615.687499999998
 31
0.0
100
AcDbText
  0
TEXT
  5
2A6
330
17
100
AcDbEntity
  8
TEXT
 62
7
100
AcDbText
 10
6260.0
 20
6566.749999999999
 30
0.0
 40
33.75
  1
4820..8911 — кабели ТВ/S5 без штроб (№57), D23
  7
GOST
 11
6260.0
 21
6566.749999999999
 31
0.0
100
AcDbText
  0
LWPOLYLINE
  5
2A7
330
17
100
AcDbEntity
  8
TEXT
 62
7
370
15
100
AcDbPolyline
 90
2
 70
0
 10
7640.000000000001
 20
6674.437499999999
 10
7640.000000000001
 20
6541.749999999999
  0
TEXT
  5
2A8
330
17
100
AcDbEntity
  8
TEXT
 62
7
100
AcDbText
 10
7660.000000000001
 20
6615.687499999998
 30
0.0
 40
33.75
  1
4820..8911
  7
GOST
 11
7660.000000000001
 21
6615.687499999998
 31
0.0
100
AcDbText
  0
LWPOLYLINE
  5
2A9
330
17
100
AcDbEntity
  8
TEXT
 62
7
370
15
100
AcDbPolyline
 90
2
 70
0
 10
8065.000000000001
 20
6674.437499999999
 10
8065.000000000001
 20
6541.749999999999
  0
TEXT
  5
2AA
330
17
100
AcDbEntity
  8
TEXT
 62
7
100
AcDbText
 10
8085.000000000001
 20
6615.687499999998
 30
0.0
 40
33.75
  1
0..2700
  7
GOST
 11
8085.000000000001
 21
6615.687499999998
 31
0.0
100
AcDbText
  0
LWPOLYLINE
  5
2AB
330
17
100
AcDbEntity
  8
TEXT
 62
7
370
15
100
AcDbPolyline
 90
2
 70
0
 10
8490.0
 20
6674.437499999999
 10
8490.0
 20
6541.749999999999
  0
LWPOLYLINE
  5
2AC
330
17
100
AcDbEntity
  8
TEXT
 62
7
370
15
100
AcDbPolyline
 90
4
 70
1
 10
6090.0
 20
6457.999999999998
 10
8490.0
 20
6457.999999999998
 10
8490.0
 20
6541.749999999999
 10
6090.0
 20
6541.749999999999
  0
LWPOLYLINE
  5
2AD
330
17
100
AcDbEntity
  8
TEXT
 62
7
370
15
100
AcDbPolyline
 90
2
 70
0
 10
6090.0
 20
6541.749999999999
 10
6090.0
 20
6457.999999999998
  0
TEXT
  5
2AE
330
17
100
AcDbEntity
  8
TEXT
 62
7
100
AcDbText
 10
6110.0
 20
6482.999999999998
 30
0.0
 40
33.75
  1
2
  7
GOST
 11
6110.0
 21
6482.999999999998
 31
0.0
100
AcDbText
  0
LWPOLYLINE
  5
2AF
330
17
100
AcDbEntity
  8
TEXT
 62
7
370
15
100
AcDbPolyline
 90
2
 70
0
 10
6240.0
 20
6541.749999999999
 10
6240.0
 20
6457.999999999998
  0
TEXT
  5
2B0
330
17
100
AcDbEntity
  8
TEXT
 62
7
100
AcDbText
 10
6260.0
 20
6482.999999999998
 30
0.0
 40
33.75
  1
добор ПГП 199 (y 4621..4820)
  7
GOST
 11
6260.0
 21
6482.999999999998
 31
0.0
100
AcDbText
  0
LWPOLYLINE
  5
2B1
330
17
100
AcDbEntity
  8
TEXT
 62
7
370
15
100
AcDbPolyline
 90
2
 70
0
 10
7640.000000000001
 20
6541.749999999999
 10
7640.000000000001
 20
6457.999999999998
  0
TEXT
  5
2B2
330
17
100
AcDbEntity
  8
TEXT
 62
7
100
AcDbText
 10
7660.000000000001
 20
6482.999999999998
 30
0.0
 40
33.75
  1
4621..4820
  7
GOST
 11
7660.000000000001
 21
6482.999999999998
 31
0.0
100
AcDbText
  0
LWPOLYLINE
  5
2B3
330
17
100
AcDbEntity
  8
TEXT
 62
7
370
15
100
AcDbPolyline
 90
2
 70
0
 10
8065.000000000001
 20
6541.749999999999
 10
8065.000000000001
 20
6457.999999999998
  0
TEXT
  5
2B4
330
17
100
AcDbEntity
  8
TEXT
 62
7
100
AcDbText
 10
8085.000000000001
 20
6482.999999999998
 30
0.0
 40
33.75
  1
0..2700
  7
GOST
 11
8085.000000000001
 21
6482.999999999998
 31
0.0
100
AcDbText
  0
LWPOLYLINE
  5
2B5
330
17
100
AcDbEntity
  8
TEXT
 62
7
370
15
100
AcDbPolyline
 90
2
 70
0
 10
8490.0
 20
6541.749999999999
 10
8490.0
 20
6457.999999999998
  0
LWPOLYLINE
  5
2B6
330
17
100
AcDbEntity
  8
TEXT
 62
7
370
15
100
AcDbPolyline
 90
4
 70
1
 10
6090.0
 20
6325.312499999998
 10
8490.0
 20
6325.312499999998
 10
8490.0
 20
6457.999999999998
 10
6090.0
 20
6457.999999999998
  0
LWPOLYLINE
  5
2B7
330
17
100
AcDbEntity
  8
TEXT
 62
7
370
15
100
AcDbPolyline
 90
2
 70
0
 10
6090.0
 20
6457.999999999998
 10
6090.0
 20
6325.312499999998
  0
TEXT
  5
2B8
330
17
100
AcDbEntity
  8
TEXT
 62
7
100
AcDbText
 10
6110.0
 20
6399.249999999998
 30
0.0
 40
33.75
  1
3
  7
GOST
 11
6110.0
 21
6399.249999999998
 31
0.0
100
AcDbText
  0
LWPOLYLINE
  5
2B9
330
17
100
AcDbEntity
  8
TEXT
 62
7
370
15
100
AcDbPolyline
 90
2
 70
0
 10
6240.0
 20
6457.999999999998
 10
6240.0
 20
6325.312499999998
  0
TEXT
  5
2BA
330
17
100
AcDbEntity
  8
TEXT
 62
7
100
AcDbText
 10
6260.0
 20
6399.249999999998
 30
0.0
 40
33.75
  1
рамка-молдинг 30 тон-в-тон C2 вокруг ТВ-зоны
  7
GOST
 11
6260.0
 21
6399.249999999998
 31
0.0
100
AcDbText
  0
TEXT
  5
2BB
330
17
100
AcDbEntity
  8
TEXT
 62
7
100
AcDbText
 10
6260.0
 20
6350.312499999997
 30
0.0
 40
33.75
  1
1800×1800
  7
GOST
 11
6260.0
 21
6350.312499999997
 31
0.0
100
AcDbText
  0
LWPOLYLINE
  5
2BC
330
17
100
AcDbEntity
  8
TEXT
 62
7
370
15
100
AcDbPolyline
 90
2
 70
0
 10
7640.000000000001
 20
6457.999999999998
 10
7640.000000000001
 20
6325.312499999998
  0
TEXT
  5
2BD
330
17
100
AcDbEntity
  8
TEXT
 62
7
100
AcDbText
 10
7660.000000000001
 20
6399.249999999998
 30
0.0
 40
33.75
  1
5716..7516
  7
GOST
 11
7660.000000000001
 21
6399.249999999998
 31
0.0
100
AcDbText
  0
LWPOLYLINE
  5
2BE
330
17
100
AcDbEntity
  8
TEXT
 62
7
370
15
100
AcDbPolyline
 90
2
 70
0
 10
8065.000000000001
 20
6457.999999999998
 10
8065.000000000001
 20
6325.312499999998
  0
TEXT
  5
2BF
330
17
100
AcDbEntity
  8
TEXT
 62
7
100
AcDbText
 10
8085.000000000001
 20
6399.249999999998
 30
0.0
 40
33.75
  1
550..2350
  7
GOST
 11
8085.000000000001
 21
6399.249999999998
 31
0.0
100
AcDbText
  0
LWPOLYLINE
  5
2C0
330
17
100
AcDbEntity
  8
TEXT
 62
7
370
15
100
AcDbPolyline
 90
2
 70
0
 10
8490.0
 20
6457.999999999998
 10
8490.0
 20
6325.312499999998
  0
LWPOLYLINE
  5
2C1
330
17
100
AcDbEntity
  8
TEXT
 62
7
370
15
100
AcDbPolyline
 90
4
 70
1
 10
6090.0
 20
6192.624999999998
 10
8490.0
 20
6192.624999999998
 10
8490.0
 20
6325.312499999998
 10
6090.0
 20
6325.312499999998
  0
LWPOLYLINE
  5
2C2
330
17
100
AcDbEntity
  8
TEXT
 62
7
370
15
100
AcDbPolyline
 90
2
 70
0
 10
6090.0
 20
6325.312499999998
 10
6090.0
 20
6192.624999999998
  0
TEXT
  5
2C3
330
17
100
AcDbEntity
  8
TEXT
 62
7
100
AcDbText
 10
6110.0
 20
6266.562499999998
 30
0.0
 40
33.75
  1
4
  7
GOST
 11
6110.0
 21
6266.562499999998
 31
0.0
100
AcDbText
  0
LWPOLYLINE
  5
2C4
330
17
100
AcDbEntity
  8
TEXT
 62
7
370
15
100
AcDbPolyline
 90
2
 70
0
 10
6240.0
 20
6325.312499999998
 10
6240.0
 20
6192.624999999998
  0
TEXT
  5
2C5
330
17
100
AcDbEntity
  8
TEXT
 62
7
100
AcDbText
 10
6260.0
 20
6266.562499999998
 30
0.0
 40
33.75
  1
D1 800×2100, коробка 900, верх +2125; над дверью
  7
GOST
 11
6260.0
 21
6266.562499999998
 31
0.0
100
AcDbText
  0
TEXT
  5
2C6
330
17
100
AcDbEntity
  8
TEXT
 62
7
100
AcDbText
 10
6260.0
 20
6217.624999999998
 30
0.0
 40
33.75
  1
закладка O8 и стена до +2700
  7
GOST
 11
6260.0
 21
6217.624999999998
 31
0.0
100
AcDbText
  0
LWPOLYLINE
  5
2C7
330
17
100
AcDbEntity
  8
TEXT
 62
7
370
15
100
AcDbPolyline
 90
2
 70
0
 10
7640.000000000001
 20
6325.312499999998
 10
7640.000000000001
 20
6192.624999999998
  0
TEXT
  5
2C8
330
17
100
AcDbEntity
  8
TEXT
 62
7
100
AcDbText
 10
7660.000000000001
 20
6266.562499999998
 30
0.0
 40
33.75
  1
3721..4621
  7
GOST
 11
7660.000000000001
 21
6266.562499999998
 31
0.0
100
AcDbText
  0
LWPOLYLINE
  5
2C9
330
17
100
AcDbEntity
  8
TEXT
 62
7
370
15
100
AcDbPolyline
 90
2
 70
0
 10
8065.000000000001
 20
6325.312499999998
 10
8065.000000000001
 20
6192.624999999998
  0
TEXT
  5
2CA
330
17
100
AcDbEntity
  8
TEXT
 62
7
100
AcDbText
 10
8085.000000000001
 20
6266.562499999998
 30
0.0
 40
33.75
  1
0..2125
  7
GOST
 11
8085.000000000001
 21
6266.562499999998
 31
0.0
100
AcDbText
  0
LWPOLYLINE
  5
2CB
330
17
100
AcDbEntity
  8
TEXT
 62
7
370
15
100
AcDbPolyline
 90
2
 70
0
 10
8490.0
 20
6325.312499999998
 10
8490.0
 20
6192.624999999998
  0
LWPOLYLINE
  5
2CC
330
17
100
AcDbEntity
  8
TEXT
 62
7
370
15
100
AcDbPolyline
 90
4
 70
1
 10
6090.0
 20
6108.874999999998
 10
8490.0
 20
6108.874999999998
 10
8490.0
 20
6192.624999999998
 10
6090.0
 20
6192.624999999998
  0
LWPOLYLINE
  5
2CD
330
17
100
AcDbEntity
  8
TEXT
 62
7
370
15
100
AcDbPolyline
 90
2
 70
0
 10
6090.0
 20
6192.624999999998
 10
6090.0
 20
6108.874999999998
  0
TEXT
  5
2CE
330
17
100
AcDbEntity
  8
TEXT
 62
7
100
AcDbText
 10
6110.0
 20
6133.874999999998
 30
0.0
 40
33.75
  1
5
  7
GOST
 11
6110.0
 21
6133.874999999998
 31
0.0
100
AcDbText
  0
LWPOLYLINE
  5
2CF
330
17
100
AcDbEntity
  8
TEXT
 62
7
370
15
100
AcDbPolyline
 90
2
 70
0
 10
6240.0
 20
6192.624999999998
 10
6240.0
 20
6108.874999999998
  0
TEXT
  5
2D0
330
17
100
AcDbEntity
  8
TEXT
 62
7
100
AcDbText
 10
6260.0
 20
6133.874999999998
 30
0.0
 40
33.75
  1
консоль подвесная F47 1600×300, +250..+450
  7
GOST
 11
6260.0
 21
6133.874999999998
 31
0.0
100
AcDbText
  0
LWPOLYLINE
  5
2D1
330
17
100
AcDbEntity
  8
TEXT
 62
7
370
15
100
AcDbPolyline
 90
2
 70
0
 10
7640.000000000001
 20
6192.624999999998
 10
7640.000000000001
 20
6108.874999999998
  0
TEXT
  5
2D2
330
17
100
AcDbEntity
  8
TEXT
 62
7
100
AcDbText
 10
7660.000000000001
 20
6133.874999999998
 30
0.0
 40
33.75
  1
5816..7416
  7
GOST
 11
7660.000000000001
 21
6133.874999999998
 31
0.0
100
AcDbText
  0
LWPOLYLINE
  5
2D3
330
17
100
AcDbEntity
  8
TEXT
 62
7
370
15
100
AcDbPolyline
 90
2
 70
0
 10
8065.000000000001
 20
6192.624999999998
 10
8065.000000000001
 20
6108.874999999998
  0
TEXT
  5
2D4
330
17
100
AcDbEntity
  8
TEXT
 62
7
100
AcDbText
 10
8085.000000000001
 20
6133.874999999998
 30
0.0
 40
33.75
  1
250..450
  7
GOST
 11
8085.000000000001
 21
6133.874999999998
 31
0.0
100
AcDbText
  0
LWPOLYLINE
  5
2D5
330
17
100
AcDbEntity
  8
TEXT
 62
7
370
15
100
AcDbPolyline
 90
2
 70
0
 10
8490.0
 20
6192.624999999998
 10
8490.0
 20
6108.874999999998
  0
LWPOLYLINE
  5
2D6
330
17
100
AcDbEntity
  8
TEXT
 62
7
370
15
100
AcDbPolyline
 90
4
 70
1
 10
6090.0
 20
6025.124999999998
 10
8490.0
 20
6025.124999999998
 10
8490.0
 20
6108.874999999998
 10
6090.0
 20
6108.874999999998
  0
LWPOLYLINE
  5
2D7
330
17
100
AcDbEntity
  8
TEXT
 62
7
370
15
100
AcDbPolyline
 90
2
 70
0
 10
6090.0
 20
6108.874999999998
 10
6090.0
 20
6025.124999999998
  0
TEXT
  5
2D8
330
17
100
AcDbEntity
  8
TEXT
 62
7
100
AcDbText
 10
6110.0
 20
6050.124999999998
 30
0.0
 40
33.75
  1
6
  7
GOST
 11
6110.0
 21
6050.124999999998
 31
0.0
100
AcDbText
  0
LWPOLYLINE
  5
2D9
330
17
100
AcDbEntity
  8
TEXT
 62
7
370
15
100
AcDbPolyline
 90
2
 70
0
 10
6240.0
 20
6108.874999999998
 10
6240.0
 20
6025.124999999998
  0
TEXT
  5
2DA
330
17
100
AcDbEntity
  8
TEXT
 62
7
100
AcDbText
 10
6260.0
 20
6050.124999999998
 30
0.0
 40
33.75
  1
ТВ 65″ F48, центр +1150
  7
GOST
 11
6260.0
 21
6050.124999999998
 31
0.0
100
AcDbText
  0
LWPOLYLINE
  5
2DB
330
17
100
AcDbEntity
  8
TEXT
 62
7
370
15
100
AcDbPolyline
 90
2
 70
0
 10
7640.000000000001
 20
6108.874999999998
 10
7640.000000000001
 20
6025.124999999998
  0
TEXT
  5
2DC
330
17
100
AcDbEntity
  8
TEXT
 62
7
100
AcDbText
 10
7660.000000000001
 20
6050.124999999998
 30
0.0
 40
33.75
  1
5896..7336
  7
GOST
 11
7660.000000000001
 21
6050.124999999998
 31
0.0
100
AcDbText
  0
LWPOLYLINE
  5
2DD
330
17
100
AcDbEntity
  8
TEXT
 62
7
370
15
100
AcDbPolyline
 90
2
 70
0
 10
8065.000000000001
 20
6108.874999999998
 10
8065.000000000001
 20
6025.124999999998
  0
TEXT
  5
2DE
330
17
100
AcDbEntity
  8
TEXT
 62
7
100
AcDbText
 10
8085.000000000001
 20
6050.124999999998
 30
0.0
 40
33.75
  1
745..1555
  7
GOST
 11
8085.000000000001
 21
6050.124999999998
 31
0.0
100
AcDbText
  0
LWPOLYLINE
  5
2DF
330
17
100
AcDbEntity
  8
TEXT
 62
7
370
15
100
AcDbPolyline
 90
2
 70
0
 10
8490.0
 20
6108.874999999998
 10
8490.0
 20
6025.124999999998
  0
LWPOLYLINE
  5
2E0
330
17
100
AcDbEntity
  8
TEXT
 62
7
370
15
100
AcDbPolyline
 90
4
 70
1
 10
6090.0
 20
5941.374999999998
 10
8490.0
 20
5941.374999999998
 10
8490.0
 20
6025.124999999998
 10
6090.0
 20
6025.124999999998
  0
LWPOLYLINE
  5
2E1
330
17
100
AcDbEntity
  8
TEXT
 62
7
370
15
100
AcDbPolyline
 90
2
 70
0
 10
6090.0
 20
6025.124999999998
 10
6090.0
 20
5941.374999999998
  0
TEXT
  5
2E2
330
17
100
AcDbEntity
  8
TEXT
 62
7
100
AcDbText
 10
6110.0
 20
5966.374999999998
 30
0.0
 40
33.75
  1
7
  7
GOST
 11
6110.0
 21
5966.374999999998
 31
0.0
100
AcDbText
  0
LWPOLYLINE
  5
2E3
330
17
100
AcDbEntity
  8
TEXT
 62
7
370
15
100
AcDbPolyline
 90
2
 70
0
 10
6240.0
 20
6025.124999999998
 10
6240.0
 20
5941.374999999998
  0
TEXT
  5
2E4
330
17
100
AcDbEntity
  8
TEXT
 62
7
100
AcDbText
 10
6260.0
 20
5966.374999999998
 30
0.0
 40
33.75
  1
P-R03 ×2 за ТВ (ниша/закладная)
  7
GOST
 11
6260.0
 21
5966.374999999998
 31
0.0
100
AcDbText
  0
LWPOLYLINE
  5
2E5
330
17
100
AcDbEntity
  8
TEXT
 62
7
370
15
100
AcDbPolyline
 90
2
 70
0
 10
7640.000000000001
 20
6025.124999999998
 10
7640.000000000001
 20
5941.374999999998
  0
TEXT
  5
2E6
330
17
100
AcDbEntity
  8
TEXT
 62
7
100
AcDbText
 10
7660.000000000001
 20
5966.374999999998
 30
0.0
 40
33.75
  1
6616
  7
GOST
 11
7660.000000000001
 21
5966.374999999998
 31
0.0
100
AcDbText
  0
LWPOLYLINE
  5
2E7
330
17
100
AcDbEntity
  8
TEXT
 62
7
370
15
100
AcDbPolyline
 90
2
 70
0
 10
8065.000000000001
 20
6025.124999999998
 10
8065.000000000001
 20
5941.374999999998
  0
TEXT
  5
2E8
330
17
100
AcDbEntity
  8
TEXT
 62
7
100
AcDbText
 10
8085.000000000001
 20
5966.374999999998
 30
0.0
 40
33.75
  1
1150
  7
GOST
 11
8085.000000000001
 21
5966.374999999998
 31
0.0
100
AcDbText
  0
LWPOLYLINE
  5
2E9
330
17
100
AcDbEntity
  8
TEXT
 62
7
370
15
100
AcDbPolyline
 90
2
 70
0
 10
8490.0
 20
6025.124999999998
 10
8490.0
 20
5941.374999999998
  0
LWPOLYLINE
  5
2EA
330
17
100
AcDbEntity
  8
TEXT
 62
7
370
15
100
AcDbPolyline
 90
4
 70
1
 10
6090.0
 20
5857.624999999999
 10
8490.0
 20
5857.624999999999
 10
8490.0
 20
5941.374999999998
 10
6090.0
 20
5941.374999999998
  0
LWPOLYLINE
  5
2EB
330
17
100
AcDbEntity
  8
TEXT
 62
7
370
15
100
AcDbPolyline
 90
2
 70
0
 10
6090.0
 20
5941.374999999998
 10
6090.0
 20
5857.624999999999
  0
TEXT
  5
2EC
330
17
100
AcDbEntity
  8
TEXT
 62
7
100
AcDbText
 10
6110.0
 20
5882.624999999999
 30
0.0
 40
33.75
  1
8
  7
GOST
 11
6110.0
 21
5882.624999999999
 31
0.0
100
AcDbText
  0
LWPOLYLINE
  5
2ED
330
17
100
AcDbEntity
  8
TEXT
 62
7
370
15
100
AcDbPolyline
 90
2
 70
0
 10
6240.0
 20
5941.374999999998
 10
6240.0
 20
5857.624999999999
  0
TEXT
  5
2EE
330
17
100
AcDbEntity
  8
TEXT
 62
7
100
AcDbText
 10
6260.0
 20
5882.624999999999
 30
0.0
 40
33.75
  1
LV02/LV03/LV04 RJ45, ТВ, HDMI-гофра
  7
GOST
 11
6260.0
 21
5882.624999999999
 31
0.0
100
AcDbText
  0
LWPOLYLINE
  5
2EF
330
17
100
AcDbEntity
  8
TEXT
 62
7
370
15
100
AcDbPolyline
 90
2
 70
0
 10
7640.000000000001
 20
5941.374999999998
 10
7640.000000000001
 20
5857.624999999999
  0
TEXT
  5
2F0
330
17
100
AcDbEntity
  8
TEXT
 62
7
100
AcDbText
 10
7660.000000000001
 20
5882.624999999999
 30
0.0
 40
33.75
  1
6616
  7
GOST
 11
7660.000000000001
 21
5882.624999999999
 31
0.0
100
AcDbText
  0
LWPOLYLINE
  5
2F1
330
17
100
AcDbEntity
  8
TEXT
 62
7
370
15
100
AcDbPolyline
 90
2
 70
0
 10
8065.000000000001
 20
5941.374999999998
 10
8065.000000000001
 20
5857.624999999999
  0
TEXT
  5
2F2
330
17
100
AcDbEntity
  8
TEXT
 62
7
100
AcDbText
 10
8085.000000000001
 20
5882.624999999999
 30
0.0
 40
33.75
  1
1150
  7
GOST
 11
8085.000000000001
 21
5882.624999999999
 31
0.0
100
AcDbText
  0
LWPOLYLINE
  5
2F3
330
17
100
AcDbEntity
  8
TEXT
 62
7
370
15
100
AcDbPolyline
 90
2
 70
0
 10
8490.0
 20
5941.374999999998
 10
8490.0
 20
5857.624999999999
  0
LWPOLYLINE
  5
2F4
330
17
100
AcDbEntity
  8
TEXT
 62
7
370
15
100
AcDbPolyline
 90
4
 70
1
 10
6090.0
 20
5773.874999999999
 10
8490.0
 20
5773.874999999999
 10
8490.0
 20
5857.624999999999
 10
6090.0
 20
5857.624999999999
  0
LWPOLYLINE
  5
2F5
330
17
100
AcDbEntity
  8
TEXT
 62
7
370
15
100
AcDbPolyline
 90
2
 70
0
 10
6090.0
 20
5857.624999999999
 10
6090.0
 20
5773.874999999999
  0
TEXT
  5
2F6
330
17
100
AcDbEntity
  8
TEXT
 62
7
100
AcDbText
 10
6110.0
 20
5798.874999999999
 30
0.0
 40
33.75
  1
9
  7
GOST
 11
6110.0
 21
5798.874999999999
 31
0.0
100
AcDbText
  0
LWPOLYLINE
  5
2F7
330
17
100
AcDbEntity
  8
TEXT
 62
7
370
15
100
AcDbPolyline
 90
2
 70
0
 10
6240.0
 20
5857.624999999999
 10
6240.0
 20
5773.874999999999
  0
TEXT
  5
2F8
330
17
100
AcDbEntity
  8
TEXT
 62
7
100
AcDbText
 10
6260.0
 20
5798.874999999999
 30
0.0
 40
33.75
  1
P-R04 в консоли
  7
GOST
 11
6260.0
 21
5798.874999999999
 31
0.0
100
AcDbText
  0
LWPOLYLINE
  5
2F9
330
17
100
AcDbEntity
  8
TEXT
 62
7
370
15
100
AcDbPolyline
 90
2
 70
0
 10
7640.000000000001
 20
5857.624999999999
 10
7640.000000000001
 20
5773.874999999999
  0
TEXT
  5
2FA
330
17
100
AcDbEntity
  8
TEXT
 62
7
100
AcDbText
 10
7660.000000000001
 20
5798.874999999999
 30
0.0
 40
33.75
  1
6300
  7
GOST
 11
7660.000000000001
 21
5798.874999999999
 31
0.0
100
AcDbText
  0
LWPOLYLINE
  5
2FB
330
17
100
AcDbEntity
  8
TEXT
 62
7
370
15
100
AcDbPolyline
 90
2
 70
0
 10
8065.000000000001
 20
5857.624999999999
 10
8065.000000000001
 20
5773.874999999999
  0
TEXT
  5
2FC
330
17
100
AcDbEntity
  8
TEXT
 62
7
100
AcDbText
 10
8085.000000000001
 20
5798.874999999999
 30
0.0
 40
33.75
  1
350
  7
GOST
 11
8085.000000000001
 21
5798.874999999999
 31
0.0
100
AcDbText
  0
LWPOLYLINE
  5
2FD
330
17
100
AcDbEntity
  8
TEXT
 62
7
370
15
100
AcDbPolyline
 90
2
 70
0
 10
8490.0
 20
5857.624999999999
 10
8490.0
 20
5773.874999999999
  0
LWPOLYLINE
  5
2FE
330
17
100
AcDbEntity
  8
TEXT
 62
7
370
15
100
AcDbPolyline
 90
4
 70
1
 10
6090.0
 20
5690.124999999999
 10
8490.0
 20
5690.124999999999
 10
8490.0
 20
5773.874999999999
 10
6090.0
 20
5773.874999999999
  0
LWPOLYLINE
  5
2FF
330
17
100
AcDbEntity
  8
TEXT
 62
7
370
15
100
AcDbPolyline
 90
2
 70
0
 10
6090.0
 20
5773.874999999999
 10
6090.0
 20
5690.124999999999
  0
TEXT
  5
300
330
17
100
AcDbEntity
  8
TEXT
 62
7
100
AcDbText
 10
6110.0
 20
5715.124999999999
 30
0.0
 40
33.75
  1
10
  7
GOST
 11
6110.0
 21
5715.124999999999
 31
0.0
100
AcDbText
  0
LWPOLYLINE
  5
301
330
17
100
AcDbEntity
  8
TEXT
 62
7
370
15
100
AcDbPolyline
 90
2
 70
0
 10
6240.0
 20
5773.874999999999
 10
6240.0
 20
5690.124999999999
  0
TEXT
  5
302
330
17
100
AcDbEntity
  8
TEXT
 62
7
100
AcDbText
 10
6260.0
 20
5715.124999999999
 30
0.0
 40
33.75
  1
P-R12 БП подсветки консоли
  7
GOST
 11
6260.0
 21
5715.124999999999
 31
0.0
100
AcDbText
  0
LWPOLYLINE
  5
303
330
17
100
AcDbEntity
  8
TEXT
 62
7
370
15
100
AcDbPolyline
 90
2
 70
0
 10
7640.000000000001
 20
5773.874999999999
 10
7640.000000000001
 20
5690.124999999999
  0
TEXT
  5
304
330
17
100
AcDbEntity
  8
TEXT
 62
7
100
AcDbText
 10
7660.000000000001
 20
5715.124999999999
 30
0.0
 40
33.75
  1
6900
  7
GOST
 11
7660.000000000001
 21
5715.124999999999
 31
0.0
100
AcDbText
  0
LWPOLYLINE
  5
305
330
17
100
AcDbEntity
  8
TEXT
 62
7
370
15
100
AcDbPolyline
 90
2
 70
0
 10
8065.000000000001
 20
5773.874999999999
 10
8065.000000000001
 20
5690.124999999999
  0
TEXT
  5
306
330
17
100
AcDbEntity
  8
TEXT
 62
7
100
AcDbText
 10
8085.000000000001
 20
5715.124999999999
 30
0.0
 40
33.75
  1
350
  7
GOST
 11
8085.000000000001
 21
5715.124999999999
 31
0.0
100
AcDbText
  0
LWPOLYLINE
  5
307
330
17
100
AcDbEntity
  8
TEXT
 62
7
370
15
100
AcDbPolyline
 90
2
 70
0
 10
8490.0
 20
5773.874999999999
 10
8490.0
 20
5690.124999999999
  0
LWPOLYLINE
  5
308
330
17
100
AcDbEntity
  8
TEXT
 62
7
370
15
100
AcDbPolyline
 90
4
 70
1
 10
6090.0
 20
5606.374999999999
 10
8490.0
 20
5606.374999999999
 10
8490.0
 20
5690.124999999999
 10
6090.0
 20
5690.124999999999
  0
LWPOLYLINE
  5
309
330
17
100
AcDbEntity
  8
TEXT
 62
7
370
15
100
AcDbPolyline
 90
2
 70
0
 10
6090.0
 20
5690.124999999999
 10
6090.0
 20
5606.374999999999
  0
TEXT
  5
30A
330
17
100
AcDbEntity
  8
TEXT
 62
7
100
AcDbText
 10
6110.0
 20
5631.374999999999
 30
0.0
 40
33.75
  1
11
  7
GOST
 11
6110.0
 21
5631.374999999999
 31
0.0
100
AcDbText
  0
LWPOLYLINE
  5
30B
330
17
100
AcDbEntity
  8
TEXT
 62
7
370
15
100
AcDbPolyline
 90
2
 70
0
 10
6240.0
 20
5690.124999999999
 10
6240.0
 20
5606.374999999999
  0
TEXT
  5
30C
330
17
100
AcDbEntity
  8
TEXT
 62
7
100
AcDbText
 10
6260.0
 20
5631.374999999999
 30
0.0
 40
33.75
  1
S5 проходной 2-кл.
  7
GOST
 11
6260.0
 21
5631.374999999999
 31
0.0
100
AcDbText
  0
LWPOLYLINE
  5
30D
330
17
100
AcDbEntity
  8
TEXT
 62
7
370
15
100
AcDbPolyline
 90
2
 70
0
 10
7640.000000000001
 20
5690.124999999999
 10
7640.000000000001
 20
5606.374999999999
  0
TEXT
  5
30E
330
17
100
AcDbEntity
  8
TEXT
 62
7
100
AcDbText
 10
7660.000000000001
 20
5631.374999999999
 30
0.0
 40
33.75
  1
4920
  7
GOST
 11
7660.000000000001
 21
5631.374999999999
 31
0.0
100
AcDbText
  0
LWPOLYLINE
  5
30F
330
17
100
AcDbEntity
  8
TEXT
 62
7
370
15
100
AcDbPolyline
 90
2
 70
0
 10
8065.000000000001
 20
5690.124999999999
 10
8065.000000000001
 20
5606.374999999999
  0
TEXT
  5
310
330
17
100
AcDbEntity
  8
TEXT
 62
7
100
AcDbText
 10
8085.000000000001
 20
5631.374999999999
 30
0.0
 40
33.75
  1
900
  7
GOST
 11
8085.000000000001
 21
5631.374999999999
 31
0.0
100
AcDbText
  0
LWPOLYLINE
  5
311
330
17
100
AcDbEntity
  8
TEXT
 62
7
370
15
100
AcDbPolyline
 90
2
 70
0
 10
8490.0
 20
5690.124999999999
 10
8490.0
 20
5606.374999999999
  0
LWPOLYLINE
  5
312
330
17
100
AcDbEntity
  8
TEXT
 62
7
370
15
100
AcDbPolyline
 90
4
 70
1
 10
6090.0
 20
5522.624999999999
 10
8490.0
 20
5522.624999999999
 10
8490.0
 20
5606.374999999999
 10
6090.0
 20
5606.374999999999
  0
LWPOLYLINE
  5
313
330
17
100
AcDbEntity
  8
TEXT
 62
7
370
15
100
AcDbPolyline
 90
2
 70
0
 10
6090.0
 20
5606.374999999999
 10
6090.0
 20
5522.624999999999
  0
TEXT
  5
314
330
17
100
AcDbEntity
  8
TEXT
 62
7
100
AcDbText
 10
6110.0
 20
5547.624999999999
 30
0.0
 40
33.75
  1
12
  7
GOST
 11
6110.0
 21
5547.624999999999
 31
0.0
100
AcDbText
  0
LWPOLYLINE
  5
315
330
17
100
AcDbEntity
  8
TEXT
 62
7
370
15
100
AcDbPolyline
 90
2
 70
0
 10
6240.0
 20
5606.374999999999
 10
6240.0
 20
5522.624999999999
  0
TEXT
  5
316
330
17
100
AcDbEntity
  8
TEXT
 62
7
100
AcDbText
 10
6260.0
 20
5547.624999999999
 30
0.0
 40
33.75
  1
P-R07
  7
GOST
 11
6260.0
 21
5547.624999999999
 31
0.0
100
AcDbText
  0
LWPOLYLINE
  5
317
330
17
100
AcDbEntity
  8
TEXT
 62
7
370
15
100
AcDbPolyline
 90
2
 70
0
 10
7640.000000000001
 20
5606.374999999999
 10
7640.000000000001
 20
5522.624999999999
  0
TEXT
  5
318
330
17
100
AcDbEntity
  8
TEXT
 62
7
100
AcDbText
 10
7660.000000000001
 20
5547.624999999999
 30
0.0
 40
33.75
  1
5050
  7
GOST
 11
7660.000000000001
 21
5547.624999999999
 31
0.0
100
AcDbText
  0
LWPOLYLINE
  5
319
330
17
100
AcDbEntity
  8
TEXT
 62
7
370
15
100
AcDbPolyline
 90
2
 70
0
 10
8065.000000000001
 20
5606.374999999999
 10
8065.000000000001
 20
5522.624999999999
  0
TEXT
  5
31A
330
17
100
AcDbEntity
  8
TEXT
 62
7
100
AcDbText
 10
8085.000000000001
 20
5547.624999999999
 30
0.0
 40
33.75
  1
300
  7
GOST
 11
8085.000000000001
 21
5547.624999999999
 31
0.0
100
AcDbText
  0
LWPOLYLINE
  5
31B
330
17
100
AcDbEntity
  8
TEXT
 62
7
370
15
100
AcDbPolyline
 90
2
 70
0
 10
8490.0
 20
5606.374999999999
 10
8490.0
 20
5522.624999999999
  0
LWPOLYLINE
  5
31C
330
17
100
AcDbEntity
  8
TEXT
 62
7
370
15
100
AcDbPolyline
 90
4
 70
1
 10
6090.0
 20
5438.874999999999
 10
8490.0
 20
5438.874999999999
 10
8490.0
 20
5522.624999999999
 10
6090.0
 20
5522.624999999999
  0
LWPOLYLINE
  5
31D
330
17
100
AcDbEntity
  8
TEXT
 62
7
370
15
100
AcDbPolyline
 90
2
 70
0
 10
6090.0
 20
5522.624999999999
 10
6090.0
 20
5438.874999999999
  0
TEXT
  5
31E
330
17
100
AcDbEntity
  8
TEXT
 62
7
100
AcDbText
 10
6110.0
 20
5463.874999999999
 30
0.0
 40
33.75
  1
13
  7
GOST
 11
6110.0
 21
5463.874999999999
 31
0.0
100
AcDbText
  0
LWPOLYLINE
  5
31F
330
17
100
AcDbEntity
  8
TEXT
 62
7
370
15
100
AcDbPolyline
 90
2
 70
0
 10
6240.0
 20
5522.624999999999
 10
6240.0
 20
5438.874999999999
  0
TEXT
  5
320
330
17
100
AcDbEntity
  8
TEXT
 62
7
100
AcDbText
 10
6260.0
 20
5463.874999999999
 30
0.0
 40
33.75
  1
P-R11 БП LED карниза
  7
GOST
 11
6260.0
 21
5463.874999999999
 31
0.0
100
AcDbText
  0
LWPOLYLINE
  5
321
330
17
100
AcDbEntity
  8
TEXT
 62
7
370
15
100
AcDbPolyline
 90
2
 70
0
 10
7640.000000000001
 20
5522.624999999999
 10
7640.000000000001
 20
5438.874999999999
  0
TEXT
  5
322
330
17
100
AcDbEntity
  8
TEXT
 62
7
100
AcDbText
 10
7660.000000000001
 20
5463.874999999999
 30
0.0
 40
33.75
  1
8750
  7
GOST
 11
7660.000000000001
 21
5463.874999999999
 31
0.0
100
AcDbText
  0
LWPOLYLINE
  5
323
330
17
100
AcDbEntity
  8
TEXT
 62
7
370
15
100
AcDbPolyline
 90
2
 70
0
 10
8065.000000000001
 20
5522.624999999999
 10
8065.000000000001
 20
5438.874999999999
  0
TEXT
  5
324
330
17
100
AcDbEntity
  8
TEXT
 62
7
100
AcDbText
 10
8085.000000000001
 20
5463.874999999999
 30
0.0
 40
33.75
  1
2600
  7
GOST
 11
8085.000000000001
 21
5463.874999999999
 31
0.0
100
AcDbText
  0
LWPOLYLINE
  5
325
330
17
100
AcDbEntity
  8
TEXT
 62
7
370
15
100
AcDbPolyline
 90
2
 70
0
 10
8490.0
 20
5522.624999999999
 10
8490.0
 20
5438.874999999999
  0
LWPOLYLINE
  5
326
330
17
100
AcDbEntity
  8
TEXT
 62
7
370
15
100
AcDbPolyline
 90
4
 70
1
 10
6090.0
 20
5355.125
 10
8490.0
 20
5355.125
 10
8490.0
 20
5438.874999999999
 10
6090.0
 20
5438.874999999999
  0
LWPOLYLINE
  5
327
330
17
100
AcDbEntity
  8
TEXT
 62
7
370
15
100
AcDbPolyline
 90
2
 70
0
 10
6090.0
 20
5438.874999999999
 10
6090.0
 20
5355.125
  0
TEXT
  5
328
330
17
100
AcDbEntity
  8
TEXT
 62
7
100
AcDbText
 10
6110.0
 20
5380.125
 30
0.0
 40
33.75
  1
14
  7
GOST
 11
6110.0
 21
5380.125
 31
0.0
100
AcDbText
  0
LWPOLYLINE
  5
329
330
17
100
AcDbEntity
  8
TEXT
 62
7
370
15
100
AcDbPolyline
 90
2
 70
0
 10
6240.0
 20
5438.874999999999
 10
6240.0
 20
5355.125
  0
TEXT
  5
32A
330
17
100
AcDbEntity
  8
TEXT
 62
7
100
AcDbText
 10
6260.0
 20
5380.125
 30
0.0
 40
33.75
  1
L12 подсветка под консолью
  7
GOST
 11
6260.0
 21
5380.125
 31
0.0
100
AcDbText
  0
LWPOLYLINE
  5
32B
330
17
100
AcDbEntity
  8
TEXT
 62
7
370
15
100
AcDbPolyline
 90
2
 70
0
 10
7640.000000000001
 20
5438.874999999999
 10
7640.000000000001
 20
5355.125
  0
TEXT
  5
32C
330
17
100
AcDbEntity
  8
TEXT
 62
7
100
AcDbText
 10
7660.000000000001
 20
5380.125
 30
0.0
 40
33.75
  1
6616
  7
GOST
 11
7660.000000000001
 21
5380.125
 31
0.0
100
AcDbText
  0
LWPOLYLINE
  5
32D
330
17
100
AcDbEntity
  8
TEXT
 62
7
370
15
100
AcDbPolyline
 90
2
 70
0
 10
8065.000000000001
 20
5438.874999999999
 10
8065.000000000001
 20
5355.125
  0
TEXT
  5
32E
330
17
100
AcDbEntity
  8
TEXT
 62
7
100
AcDbText
 10
8085.000000000001
 20
5380.125
 30
0.0
 40
33.75
  1
250
  7
GOST
 11
8085.000000000001
 21
5380.125
 31
0.0
100
AcDbText
  0
LWPOLYLINE
  5
32F
330
17
100
AcDbEntity
  8
TEXT
 62
7
370
15
100
AcDbPolyline
 90
2
 70
0
 10
8490.0
 20
5438.874999999999
 10
8490.0
 20
5355.125
  0
LWPOLYLINE
  5
330
330
17
100
AcDbEntity
  8
TEXT
 62
7
370
35
100
AcDbPolyline
 90
4
 70
1
 10
6090.0
 20
5355.125
 10
8490.0
 20
5355.125
 10
8490.0
 20
6778.187499999998
 10
6090.0
 20
6778.187499999998
  0
TEXT
  5
331
330
17
100
AcDbEntity
  8
TEXT
 62
7
100
AcDbText
 10
750.0
 20
3428.1874999999986
 30
0.0
 40
35.0
  1
Отделка: ГКЛ-облицовка + Q4 + C2; рамка тон-в-тон
  7
GOST
 11
750.0
 21
3428.1874999999986
 31
0.0
100
AcDbText
  0
LWPOLYLINE
  5
332
330
17
100
AcDbEntity
  8
FRAME
 62
7
370
50
100
AcDbPolyline
 90
4
 70
1
 10
500.0
 20
125.0
 10
14725.0
 20
125.0
 10
14725.0
 20
10375.0
 10
500.0
 20
10375.0
  0
TEXT
  5
333
330
17
100
AcDbEntity
  8
FRAME
 62
7
100
AcDbText
 10
14725.0
 20
40.0
 30
0.0
 40
50.0
  1
Формат A2
  7
GOST
 72
2
 11
14725.0
 21
40.0
 31
0.0
100
AcDbText
  0
HATCH
  5
334
330
17
100
AcDbEntity
  8
FRAME
 62
7
420
16777215
100
AcDbHatch
 10
0.0
 20
0.0
 30
0.0
210
0.0
220
0.0
230
1.0
  2
SOLID
 70
1
 71
0
 91
1
 92
3
 72
0
 73
1
 93
4
 10
10100.0
 20
125.0
 10
14725.0
 20
125.0
 10
14725.0
 20
1500.0
 10
10100.0
 20
1500.0
 97
0
 75
1
 76
1
 98
0
  0
LWPOLYLINE
  5
335
330
17
100
AcDbEntity
  8
FRAME
 62
7
370
50
100
AcDbPolyline
 90
4
 70
1
 10
10100.0
 20
125.0
 10
14725.0
 20
125.0
 10
14725.0
 20
1500.0
 10
10100.0
 20
1500.0
  0
LWPOLYLINE
  5
336
330
17
100
AcDbEntity
  8
FRAME
 62
7
370
50
100
AcDbPolyline
 90
2
 70
0
 10
11725.0
 20
1125.0
 10
14725.0
 20
1125.0
  0
LWPOLYLINE
  5
337
330
17
100
AcDbEntity
  8
FRAME
 62
7
370
50
100
AcDbPolyline
 90
2
 70
0
 10
11725.0
 20
875.0
 10
14725.0
 20
875.0
  0
LWPOLYLINE
  5
338
330
17
100
AcDbEntity
  8
FRAME
 62
7
370
50
100
AcDbPolyline
 90
2
 70
0
 10
11725.0
 20
500.0
 10
14725.0
 20
500.0
  0
LWPOLYLINE
  5
339
330
17
100
AcDbEntity
  8
FRAME
 62
7
370
50
100
AcDbPolyline
 90
2
 70
0
 10
11725.0
 20
125.0
 10
11725.0
 20
1500.0
  0
LWPOLYLINE
  5
33A
330
17
100
AcDbEntity
  8
FRAME
 62
7
370
50
100
AcDbPolyline
 90
2
 70
0
 10
13475.0
 20
125.0
 10
13475.0
 20
875.0
  0
LWPOLYLINE
  5
33B
330
17
100
AcDbEntity
  8
FRAME
 62
7
370
20
100
AcDbPolyline
 90
2
 70
0
 10
13475.0
 20
750.0
 10
14725.0
 20
750.0
  0
LWPOLYLINE
  5
33C
330
17
100
AcDbEntity
  8
FRAME
 62
7
370
20
100
AcDbPolyline
 90
2
 70
0
 10
13850.0
 20
500.0
 10
13850.0
 20
875.0
  0
LWPOLYLINE
  5
33D
330
17
100
AcDbEntity
  8
FRAME
 62
7
370
20
100
AcDbPolyline
 90
2
 70
0
 10
14225.0
 20
500.0
 10
14225.0
 20
875.0
  0
TEXT
  5
33E
330
17
100
AcDbEntity
  8
FRAME
 62
7
100
AcDbText
 10
13662.5
 20
780.0
 30
0.0
 40
50.0
  1
Стадия
  7
GOST
 72
1
 11
13662.5
 21
780.0
 31
0.0
100
AcDbText
  0
TEXT
  5
33F
330
17
100
AcDbEntity
  8
FRAME
 62
7
100
AcDbText
 10
14037.5
 20
780.0
 30
0.0
 40
50.0
  1
Лист
  7
GOST
 72
1
 11
14037.5
 21
780.0
 31
0.0
100
AcDbText
  0
TEXT
  5
340
330
17
100
AcDbEntity
  8
FRAME
 62
7
100
AcDbText
 10
14475.0
 20
780.0
 30
0.0
 40
50.0
  1
Листов
  7
GOST
 72
1
 11
14475.0
 21
780.0
 31
0.0
100
AcDbText
  0
TEXT
  5
341
330
17
100
AcDbEntity
  8
FRAME
 62
7
100
AcDbText
 10
13662.5
 20
585.0
 30
0.0
 40
87.5
  1
Р
  7
GOST
 72
1
 11
13662.5
 21
585.0
 31
0.0
100
AcDbText
  0
TEXT
  5
342
330
17
100
AcDbEntity
  8
FRAME
 62
7
100
AcDbText
 10
14037.5
 20
585.0
 30
0.0
 40
87.5
  1
19
  7
GOST
 72
1
 11
14037.5
 21
585.0
 31
0.0
100
AcDbText
  0
TEXT
  5
343
330
17
100
AcDbEntity
  8
FRAME
 62
7
100
AcDbText
 10
14475.0
 20
585.0
 30
0.0
 40
87.5
  1
51
  7
GOST
 72
1
 11
14475.0
 21
585.0
 31
0.0
100
AcDbText
  0
LWPOLYLINE
  5
344
330
17
100
AcDbEntity
  8
FRAME
 62
7
370
20
100
AcDbPolyline
 90
2
 70
0
 10
10100.0
 20
250.0
 10
11725.0
 20
250.0
  0
LWPOLYLINE
  5
345
330
17
100
AcDbEntity
  8
FRAME
 62
7
370
20
100
AcDbPolyline
 90
2
 70
0
 10
10100.0
 20
375.0
 10
11725.0
 20
375.0
  0
LWPOLYLINE
  5
346
330
17
100
AcDbEntity
  8
FRAME
 62
7
370
20
100
AcDbPolyline
 90
2
 70
0
 10
10100.0
 20
500.0
 10
11725.0
 20
500.0
  0
LWPOLYLINE
  5
347
330
17
100
AcDbEntity
  8
FRAME
 62
7
370
20
100
AcDbPolyline
 90
2
 70
0
 10
10100.0
 20
625.0
 10
11725.0
 20
625.0
  0
LWPOLYLINE
  5
348
330
17
100
AcDbEntity
  8
FRAME
 62
7
370
50
100
AcDbPolyline
 90
2
 70
0
 10
10100.0
 20
750.0
 10
11725.0
 20
750.0
  0
LWPOLYLINE
  5
349
330
17
100
AcDbEntity
  8
FRAME
 62
7
370
50
100
AcDbPolyline
 90
2
 70
0
 10
10100.0
 20
875.0
 10
11725.0
 20
875.0
  0
LWPOLYLINE
  5
34A
330
17
100
AcDbEntity
  8
FRAME
 62
7
370
20
100
AcDbPolyline
 90
2
 70
0
 10
10100.0
 20
1000.0
 10
11725.0
 20
1000.0
  0
LWPOLYLINE
  5
34B
330
17
100
AcDbEntity
  8
FRAME
 62
7
370
20
100
AcDbPolyline
 90
2
 70
0
 10
10100.0
 20
1125.0
 10
11725.0
 20
1125.0
  0
LWPOLYLINE
  5
34C
330
17
100
AcDbEntity
  8
FRAME
 62
7
370
20
100
AcDbPolyline
 90
2
 70
0
 10
10100.0
 20
1250.0
 10
11725.0
 20
1250.0
  0
LWPOLYLINE
  5
34D
330
17
100
AcDbEntity
  8
FRAME
 62
7
370
20
100
AcDbPolyline
 90
2
 70
0
 10
10100.0
 20
1375.0
 10
11725.0
 20
1375.0
  0
LWPOLYLINE
  5
34E
330
17
100
AcDbEntity
  8
FRAME
 62
7
370
50
100
AcDbPolyline
 90
2
 70
0
 10
10350.0
 20
750.0
 10
10350.0
 20
1500.0
  0
LWPOLYLINE
  5
34F
330
17
100
AcDbEntity
  8
FRAME
 62
7
370
50
100
AcDbPolyline
 90
2
 70
0
 10
10600.0
 20
125.0
 10
10600.0
 20
1500.0
  0
LWPOLYLINE
  5
350
330
17
100
AcDbEntity
  8
FRAME
 62
7
370
50
100
AcDbPolyline
 90
2
 70
0
 10
10850.0
 20
750.0
 10
10850.0
 20
1500.0
  0
LWPOLYLINE
  5
351
330
17
100
AcDbEntity
  8
FRAME
 62
7
370
50
100
AcDbPolyline
 90
2
 70
0
 10
11100.0
 20
125.0
 10
11100.0
 20
1500.0
  0
LWPOLYLINE
  5
352
330
17
100
AcDbEntity
  8
FRAME
 62
7
370
50
100
AcDbPolyline
 90
2
 70
0
 10
11475.0
 20
125.0
 10
11475.0
 20
1500.0
  0
TEXT
  5
353
330
17
100
AcDbEntity
  8
FRAME
 62
7
100
AcDbText
 10
10225.0
 20
782.5
 30
0.0
 40
45.0
  1
Изм.
  7
GOST
 72
1
 11
10225.0
 21
782.5
 31
0.0
100
AcDbText
  0
TEXT
  5
354
330
17
100
AcDbEntity
  8
FRAME
 62
7
100
AcDbText
 10
10475.0
 20
782.5
 30
0.0
 40
45.0
  1
Кол.уч
  7
GOST
 72
1
 11
10475.0
 21
782.5
 31
0.0
100
AcDbText
  0
TEXT
  5
355
330
17
100
AcDbEntity
  8
FRAME
 62
7
100
AcDbText
 10
10725.0
 20
782.5
 30
0.0
 40
45.0
  1
Лист
  7
GOST
 72
1
 11
10725.0
 21
782.5
 31
0.0
100
AcDbText
  0
TEXT
  5
356
330
17
100
AcDbEntity
  8
FRAME
 62
7
100
AcDbText
 10
10975.0
 20
782.5
 30
0.0
 40
45.0
  1
№док.
  7
GOST
 72
1
 11
10975.0
 21
782.5
 31
0.0
100
AcDbText
  0
TEXT
  5
357
330
17
100
AcDbEntity
  8
FRAME
 62
7
100
AcDbText
 10
11287.5
 20
782.5
 30
0.0
 40
45.0
  1
Подп.
  7
GOST
 72
1
 11
11287.5
 21
782.5
 31
0.0
100
AcDbText
  0
TEXT
  5
358
330
17
100
AcDbEntity
  8
FRAME
 62
7
100
AcDbText
 10
11600.0
 20
782.5
 30
0.0
 40
45.0
  1
Дата
  7
GOST
 72
1
 11
11600.0
 21
782.5
 31
0.0
100
AcDbText
  0
TEXT
  5
359
330
17
100
AcDbEntity
  8
FRAME
 62
7
100
AcDbText
 10
10125.0
 20
657.5
 30
0.0
 40
50.0
  1
Разраб.
  7
GOST
 11
10125.0
 21
657.5
 31
0.0
100
AcDbText
  0
TEXT
  5
35A
330
17
100
AcDbEntity
  8
FRAME
 62
7
100
AcDbText
 10
10125.0
 20
532.5
 30
0.0
 40
50.0
  1
Пров.
  7
GOST
 11
10125.0
 21
532.5
 31
0.0
100
AcDbText
  0
TEXT
  5
35B
330
17
100
AcDbEntity
  8
FRAME
 62
7
100
AcDbText
 10
10125.0
 20
407.5
 30
0.0
 40
50.0
  1
ГИП
  7
GOST
 11
10125.0
 21
407.5
 31
0.0
100
AcDbText
  0
TEXT
  5
35C
330
17
100
AcDbEntity
  8
FRAME
 62
7
100
AcDbText
 10
10125.0
 20
282.5
 30
0.0
 40
50.0
  1
Н.контр.
  7
GOST
 11
10125.0
 21
282.5
 31
0.0
100
AcDbText
  0
TEXT
  5
35D
330
17
100
AcDbEntity
  8
FRAME
 62
7
100
AcDbText
 10
10125.0
 20
157.5
 30
0.0
 40
50.0
  1
Утв.
  7
GOST
 11
10125.0
 21
157.5
 31
0.0
100
AcDbText
  0
TEXT
  5
35E
330
17
100
AcDbEntity
  8
FRAME
 62
7
100
AcDbText
 10
10620.0
 20
657.5
 30
0.0
 40
50.0
  1
pib-агенты
  7
GOST
 11
10620.0
 21
657.5
 31
0.0
100
AcDbText
  0
TEXT
  5
35F
330
17
100
AcDbEntity
  8
FRAME
 62
7
100
AcDbText
 10
11600.0
 20
657.5
 30
0.0
 40
45.0
  1
10.2026
  7
GOST
 72
1
 11
11600.0
 21
657.5
 31
0.0
100
AcDbText
  0
TEXT
  5
360
330
17
100
AcDbEntity
  8
FRAME
 62
7
100
AcDbText
 10
13225.0
 20
1250.0
 30
0.0
 40
125.0
  1
КВ108-ДП-АР-15
  7
GOST
 72
1
 11
13225.0
 21
1250.0
 31
0.0
100
AcDbText
  0
TEXT
  5
361
330
17
100
AcDbEntity
  8
FRAME
 62
7
100
AcDbText
 10
13225.0
 20
956.25
 30
0.0
 40
87.5
  1
Квартира №108, СПб, дизайн-проект
  7
GOST
 72
1
 11
13225.0
 21
956.25
 31
0.0
100
AcDbText
  0
TEXT
  5
362
330
17
100
AcDbEntity
  8
FRAME
 62
7
100
AcDbText
 10
12600.0
 20
650.0
 30
0.0
 40
75.0
  1
Архитектурные решения
  7
GOST
 72
1
 11
12600.0
 21
650.0
 31
0.0
100
AcDbText
  0
TEXT
  5
363
330
17
100
AcDbEntity
  8
FRAME
 62
7
100
AcDbText
 10
12600.0
 20
371.875
 30
0.0
 40
62.5
  1
Развертки стен. Родительская
  7
GOST
 72
1
 11
12600.0
 21
371.875
 31
0.0
100
AcDbText
  0
TEXT
  5
364
330
17
100
AcDbEntity
  8
FRAME
 62
7
100
AcDbText
 10
12600.0
 20
281.25
 30
0.0
 40
62.5
  1
спальня
  7
GOST
 72
1
 11
12600.0
 21
281.25
 31
0.0
100
AcDbText
  0
TEXT
  5
365
330
17
100
AcDbEntity
  8
FRAME
 62
7
100
AcDbText
 10
12600.0
 20
190.625
 30
0.0
 40
62.5
  1
Масштаб 1:25
  7
GOST
 72
1
 11
12600.0
 21
190.625
 31
0.0
100
AcDbText
  0
TEXT
  5
366
330
17
100
AcDbEntity
  8
FRAME
 62
7
100
AcDbText
 10
14100.0
 20
329.375
 30
0.0
 40
75.0
  1
ПИБ
  7
GOST
 72
1
 11
14100.0
 21
329.375
 31
0.0
100
AcDbText
  0
TEXT
  5
367
330
17
100
AcDbEntity
  8
FRAME
 62
7
100
AcDbText
 10
14100.0
 20
220.62500000000003
 30
0.0
 40
75.0
  1
агенты pib-*
  7
GOST
 72
1
 11
14100.0
 21
220.62500000000003
 31
0.0
100
AcDbText
  0
ENDSEC
  0
SECTION
  2
OBJECTS
  0
DICTIONARY
  5
A
330
0
100
AcDbDictionary
281
1
  3
ACAD_COLOR
350
B
  3
ACAD_GROUP
350
C
  3
ACAD_LAYOUT
350
D
  3
ACAD_MATERIAL
350
E
  3
ACAD_MLEADERSTYLE
350
F
  3
ACAD_MLINESTYLE
350
10
  3
ACAD_PLOTSETTINGS
350
11
  3
ACAD_PLOTSTYLENAME
350
12
  3
ACAD_SCALELIST
350
14
  3
ACAD_TABLESTYLE
350
15
  3
ACAD_VISUALSTYLE
350
16
  3
EZDXF_META
350
2D
  0
DICTIONARY
  5
B
330
A
100
AcDbDictionary
281
1
  0
DICTIONARY
  5
C
330
A
100
AcDbDictionary
281
1
  0
DICTIONARY
  5
D
330
A
100
AcDbDictionary
281
1
  3
Model
350
1A
  3
Layout1
350
1E
  0
DICTIONARY
  5
E
330
A
100
AcDbDictionary
281
1
  3
ByBlock
350
1F
  3
ByLayer
350
20
  3
Global
350
21
  0
DICTIONARY
  5
F
330
A
100
AcDbDictionary
281
1
  3
Standard
350
2C
  0
DICTIONARY
  5
10
330
A
100
AcDbDictionary
281
1
  3
Standard
350
22
  0
DICTIONARY
  5
11
330
A
100
AcDbDictionary
281
1
  0
ACDBDICTIONARYWDFLT
  5
12
330
A
100
AcDbDictionary
281
1
  3
Normal
350
13
100
AcDbDictionaryWithDefault
340
13
  0
ACDBPLACEHOLDER
  5
13
330
12
  0
DICTIONARY
  5
14
330
A
100
AcDbDictionary
281
1
  0
DICTIONARY
  5
15
330
A
100
AcDbDictionary
281
1
  0
DICTIONARY
  5
16
330
A
100
AcDbDictionary
281
1
  3
2dWireframe
350
5A
  3
Basic
350
5B
  3
Brighten
350
5C
  3
ColorChange
350
5D
  3
Conceptual
350
5E
  3
Dim
350
5F
  3
EdgeColorOff
350
60
  3
Facepattern
350
61
  3
Flat
350
62
  3
FlatWithEdges
350
63
  3
Gouraud
350
64
  3
GouraudWithEdges
350
65
  3
Hidden
350
66
  3
JitterOff
350
67
  3
Linepattern
350
68
  3
Modeling
350
69
  3
OverhangOff
350
6A
  3
Realistic
350
6B
  3
Shaded
350
6C
  3
Shaded with edges
350
6D
  3
Shades of Gray
350
6E
  3
Sketchy
350
6F
  3
Thicken
350
70
  3
Wireframe
350
71
  3
X-Ray
350
72
  0
LAYOUT
  5
1A
330
D
100
AcDbPlotSettings
  1

  4
A3
  6

 40
7.5
 41
20.0
 42
7.5
 43
20.0
 44
420.0
 45
297.0
 46
0.0
 47
0.0
 48
0.0
 49
0.0
140
0.0
141
0.0
142
1.0
143
1.0
 70
1024
 72
1
 73
0
 74
5
  7

 75
16
 76
0
 77
2
 78
300
147
1.0
148
0.0
149
0.0
100
AcDbLayout
  1
Model
 70
1
 71
0
 10
0.0
 20
0.0
 11
420.0
 21
297.0
 12
0.0
 22
0.0
 32
0.0
 14
1e+20
 24
1e+20
 34
1e+20
 15
-1e+20
 25
-1e+20
 35
-1e+20
146
0.0
 13
0.0
 23
0.0
 33
0.0
 16
1.0
 26
0.0
 36
0.0
 17
0.0
 27
1.0
 37
0.0
 76
1
330
17
  0
LAYOUT
  5
1E
330
D
100
AcDbPlotSettings
  1

  4
A3
  6

 40
7.5
 41
20.0
 42
7.5
 43
20.0
 44
420.0
 45
297.0
 46
0.0
 47
0.0
 48
0.0
 49
0.0
140
0.0
141
0.0
142
1.0
143
1.0
 70
0
 72
1
 73
0
 74
5
  7

 75
16
 76
0
 77
2
 78
300
147
1.0
148
0.0
149
0.0
100
AcDbLayout
  1
Layout1
 70
1
 71
1
 10
0.0
 20
0.0
 11
420.0
 21
297.0
 12
0.0
 22
0.0
 32
0.0
 14
1e+20
 24
1e+20
 34
1e+20
 15
-1e+20
 25
-1e+20
 35
-1e+20
146
0.0
 13
0.0
 23
0.0
 33
0.0
 16
1.0
 26
0.0
 36
0.0
 17
0.0
 27
1.0
 37
0.0
 76
1
330
1B
  0
MATERIAL
  5
1F
102
{ACAD_REACTORS
330
E
102
}
330
E
100
AcDbMaterial
  1
ByBlock
  2

 70
0
 40
1.0
 71
1
 41
1.0
 91
-1023410177
 42
1.0
 72
1
  3

 73
1
 74
1
 75
1
 44
0.5
 73
0
 45
1.0
 46
1.0
 77
1
  4

 78
1
 79
1
170
1
 48
1.0
171
1
  6

172
1
173
1
174
1
140
1.0
141
1.0
175
1
  7

176
1
177
1
178
1
143
1.0
179
1
  8

270
1
271
1
272
1
145
1.0
146
1.0
273
1
  9

274
1
275
1
276
1
 42
1.0
 72
1
  3

 73
1
 74
1
 75
1
 94
63
  0
MATERIAL
  5
20
102
{ACAD_REACTORS
330
E
102
}
330
E
100
AcDbMaterial
  1
ByLayer
  2

 70
0
 40
1.0
 71
1
 41
1.0
 91
-1023410177
 42
1.0
 72
1
  3

 73
1
 74
1
 75
1
 44
0.5
 73
0
 45
1.0
 46
1.0
 77
1
  4

 78
1
 79
1
170
1
 48
1.0
171
1
  6

172
1
173
1
174
1
140
1.0
141
1.0
175
1
  7

176
1
177
1
178
1
143
1.0
179
1
  8

270
1
271
1
272
1
145
1.0
146
1.0
273
1
  9

274
1
275
1
276
1
 42
1.0
 72
1
  3

 73
1
 74
1
 75
1
 94
63
  0
MATERIAL
  5
21
102
{ACAD_REACTORS
330
E
102
}
330
E
100
AcDbMaterial
  1
Global
  2

 70
0
 40
1.0
 71
1
 41
1.0
 91
-1023410177
 42
1.0
 72
1
  3

 73
1
 74
1
 75
1
 44
0.5
 73
0
 45
1.0
 46
1.0
 77
1
  4

 78
1
 79
1
170
1
 48
1.0
171
1
  6

172
1
173
1
174
1
140
1.0
141
1.0
175
1
  7

176
1
177
1
178
1
143
1.0
179
1
  8

270
1
271
1
272
1
145
1.0
146
1.0
273
1
  9

274
1
275
1
276
1
 42
1.0
 72
1
  3

 73
1
 74
1
 75
1
 94
63
  0
MLINESTYLE
  5
22
102
{ACAD_REACTORS
330
10
102
}
330
10
100
AcDbMlineStyle
  2
Standard
 70
0
  3

 62
256
 51
90.0
 52
90.0
 71
2
 49
0.5
 62
256
  6
BYLAYER
 49
-0.5
 62
256
  6
BYLAYER
  0
MLEADERSTYLE
  5
2C
102
{ACAD_REACTORS
330
F
102
}
330
F
100
AcDbMLeaderStyle
179
2
170
2
171
1
172
0
 90
2
 40
0.0
 41
0.0
173
1
 91
-1056964608
 92
-2
290
1
 42
2.0
291
1
 43
8.0
  3
Standard
 44
4.0
300

342
29
174
1
175
1
176
0
178
1
 93
-1056964608
 45
4.0
292
0
297
0
 46
4.0
 94
-1056964608
 47
1.0
 49
1.0
140
1.0
294
1
141
0.0
177
0
142
1.0
295
0
296
0
143
3.75
271
0
272
9
273
9
  0
DICTIONARY
  5
2D
330
A
100
AcDbDictionary
280
1
281
1
  3
CREATED_BY_EZDXF
350
2E
  3
WRITTEN_BY_EZDXF
350
36A
  0
DICTIONARYVAR
  5
2E
330
2D
100
DictionaryVariables
280
0
  1
1.4.4 @ 2026-10-08T17:36:55.420320+00:00
  0
VISUALSTYLE
  5
5A
102
{ACAD_REACTORS
330
16
102
}
330
16
100
AcDbVisualStyle
  2
2dWireframe
 70
4
177
3
291
0
 70
58
 90
2
176
1
 90
2
176
1
 90
0
176
1
 90
0
176
1
 40
0.6
176
1
 40
30.0
176
1
 62
7
420
16777215
176
1
 90
1
176
1
 90
4
176
1
 62
7
176
1
 62
257
176
1
 90
1
176
1
 90
1
176
1
 40
1.0
176
1
 90
8
176
1
 62
7
176
1
 40
1.0
176
1
 90
1
176
1
 90
6
176
1
 90
2
176
1
 62
7
176
1
 90
5
176
1
 90
0
176
1
 90
0
176
1
290
0
176
1
 90
1
176
1
 40
0.0
176
1
 90
0
176
1
290
1
176
1
290
1
176
1
290
0
176
1
290
0
176
1
290
0
176
1
290
0
176
1
290
0
176
1
290
0
176
1
290
0
176
1
 90
50
176
1
 40
0.0
176
1
 40
1.0
176
1
 90
0
176
1
 62
18
420
0
176
1
 90
50
176
1
 90
3
176
1
 62
5
420
255
176
1
290
0
176
1
 90
50
176
1
 90
50
176
1
 90
50
176
1
290
0
176
1
 90
50
176
1
 62
256
176
0
 40
1.0
176
0
 90
2
176
1
  1
strokes_ogs.tif
176
1
290
0
176
1
 40
1.0
176
1
 40
1.0
176
1
  0
VISUALSTYLE
  5
5B
102
{ACAD_REACTORS
330
16
102
}
330
16
100
AcDbVisualStyle
  2
Basic
 70
7
177
3
291
1
 70
58
 90
2
176
1
 90
2
176
1
 90
0
176
1
 90
1
176
1
 40
0.6
176
1
 40
30.0
176
1
 62
7
420
16777215
176
1
 90
1
176
1
 90
4
176
1
 62
7
176
1
 62
257
176
1
 90
1
176
1
 90
1
176
1
 40
1.0
176
1
 90
8
176
1
 62
7
176
1
 40
1.0
176
1
 90
1
176
1
 90
6
176
1
 90
2
176
1
 62
7
176
1
 90
5
176
1
 90
0
176
1
 90
0
176
1
290
0
176
1
 90
1
176
1
 40
0.0
176
1
 90
0
176
1
290
0
176
1
290
1
176
1
290
1
176
1
290
0
176
1
290
0
176
1
290
0
176
1
290
0
176
1
290
0
176
1
290
0
176
1
 90
50
176
1
 40
0.0
176
1
 40
1.0
176
1
 90
0
176
1
 62
18
420
0
176
1
 90
50
176
1
 90
3
176
1
 62
5
420
255
176
1
290
0
176
1
 90
50
176
1
 90
50
176
1
 90
50
176
1
290
0
176
1
 90
50
176
1
 62
256
176
0
 40
1.0
176
0
 90
2
176
1
  1
strokes_ogs.tif
176
1
290
0
176
1
 40
1.0
176
1
 40
1.0
176
1
  0
VISUALSTYLE
  5
5C
102
{ACAD_REACTORS
330
16
102
}
330
16
100
AcDbVisualStyle
  2
Brighten
 70
12
177
3
291
1
 70
58
 90
2
176
1
 90
2
176
1
 90
0
176
1
 90
2
176
1
 40
0.6
176
1
 40
30.0
176
1
 62
7
420
16777215
176
1
 90
1
176
1
 90
4
176
1
 62
7
176
1
 62
257
176
1
 90
1
176
1
 90
1
176
1
 40
1.0
176
1
 90
8
176
1
 62
7
176
1
 40
1.0
176
1
 90
1
176
1
 90
6
176
1
 90
2
176
1
 62
7
176
1
 90
5
176
1
 90
0
176
1
 90
0
176
1
290
0
176
1
 90
1
176
1
 40
0.0
176
1
 90
0
176
1
290
0
176
1
290
1
176
1
290
1
176
1
290
0
176
1
290
0
176
1
290
0
176
1
290
0
176
1
290
0
176
1
290
0
176
1
 90
50
176
1
 40
0.0
176
1
 40
1.0
176
1
 90
0
176
1
 62
18
420
0
176
1
 90
50
176
1
 90
3
176
1
 62
5
420
255
176
1
290
0
176
1
 90
50
176
1
 90
50
176
1
 90
50
176
1
290
0
176
1
 90
50
176
1
 62
256
176
0
 40
1.0
176
0
 90
2
176
1
  1
strokes_ogs.tif
176
1
290
0
176
1
 40
1.0
176
1
 40
1.0
176
1
  0
VISUALSTYLE
  5
5D
102
{ACAD_REACTORS
330
16
102
}
330
16
100
AcDbVisualStyle
  2
ColorChange
 70
16
177
3
291
1
 70
58
 90
2
176
1
 90
2
176
1
 90
0
176
1
 90
2
176
1
 40
0.6
176
1
 40
30.0
176
1
 62
7
420
16777215
176
1
 90
1
176
1
 90
4
176
1
 62
7
176
1
 62
257
176
1
 90
1
176
1
 90
1
176
1
 40
1.0
176
1
 90
8
176
1
 62
7
176
1
 40
1.0
176
1
 90
1
176
1
 90
6
176
1
 90
2
176
1
 62
7
176
1
 90
5
176
1
 90
0
176
1
 90
0
176
1
290
0
176
1
 90
1
176
1
 40
0.0
176
1
 90
0
176
1
290
0
176
1
290
1
176
1
290
1
176
1
290
0
176
1
290
0
176
1
290
0
176
1
290
0
176
1
290
0
176
1
290
0
176
1
 90
50
176
1
 40
0.0
176
1
 40
1.0
176
1
 90
0
176
1
 62
18
420
0
176
1
 90
50
176
1
 90
3
176
1
 62
5
420
255
176
1
290
0
176
1
 90
50
176
1
 90
50
176
1
 90
50
176
1
290
0
176
1
 90
50
176
1
 62
256
176
0
 40
1.0
176
0
 90
2
176
1
  1
strokes_ogs.tif
176
1
290
0
176
1
 40
1.0
176
1
 40
1.0
176
1
  0
VISUALSTYLE
  5
5E
102
{ACAD_REACTORS
330
16
102
}
330
16
100
AcDbVisualStyle
  2
Conceptual
 70
9
177
3
291
0
 70
58
 90
2
176
1
 90
2
176
1
 90
0
176
1
 90
3
176
1
 40
0.6
176
1
 40
30.0
176
1
 62
7
420
16777215
176
1
 90
1
176
1
 90
4
176
1
 62
7
176
1
 62
257
176
1
 90
1
176
1
 90
1
176
1
 40
1.0
176
1
 90
8
176
1
 62
7
176
1
 40
1.0
176
1
 90
1
176
1
 90
6
176
1
 90
2
176
1
 62
7
176
1
 90
5
176
1
 90
0
176
1
 90
0
176
1
290
0
176
1
 90
1
176
1
 40
0.0
176
1
 90
0
176
1
290
0
176
1
290
1
176
1
290
1
176
1
290
0
176
1
290
0
176
1
290
0
176
1
290
0
176
1
290
0
176
1
290
0
176
1
 90
50
176
1
 40
0.0
176
1
 40
1.0
176
1
 90
0
176
1
 62
18
420
0
176
1
 90
50
176
1
 90
3
176
1
 62
5
420
255
176
1
290
0
176
1
 90
50
176
1
 90
50
176
1
 90
50
176
1
290
0
176
1
 90
50
176
1
 62
256
176
0
 40
1.0
176
0
 90
2
176
1
  1
strokes_ogs.tif
176
1
290
0
176
1
 40
1.0
176
1
 40
1.0
176
1
  0
VISUALSTYLE
  5
5F
102
{ACAD_REACTORS
330
16
102
}
330
16
100
AcDbVisualStyle
  2
Dim
 70
11
177
3
291
1
 70
58
 90
2
176
1
 90
2
176
1
 90
0
176
1
 90
2
176
1
 40
0.6
176
1
 40
30.0
176
1
 62
7
420
16777215
176
1
 90
1
176
1
 90
4
176
1
 62
7
176
1
 62
257
176
1
 90
1
176
1
 90
1
176
1
 40
1.0
176
1
 90
8
176
1
 62
7
176
1
 40
1.0
176
1
 90
1
176
1
 90
6
176
1
 90
2
176
1
 62
7
176
1
 90
5
176
1
 90
0
176
1
 90
0
176
1
290
0
176
1
 90
1
176
1
 40
0.0
176
1
 90
0
176
1
290
0
176
1
290
1
176
1
290
1
176
1
290
0
176
1
290
0
176
1
290
0
176
1
290
0
176
1
290
0
176
1
290
0
176
1
 90
50
176
1
 40
0.0
176
1
 40
1.0
176
1
 90
0
176
1
 62
18
420
0
176
1
 90
50
176
1
 90
3
176
1
 62
5
420
255
176
1
290
0
176
1
 90
50
176
1
 90
50
176
1
 90
50
176
1
290
0
176
1
 90
50
176
1
 62
256
176
0
 40
1.0
176
0
 90
2
176
1
  1
strokes_ogs.tif
176
1
290
0
176
1
 40
1.0
176
1
 40
1.0
176
1
  0
VISUALSTYLE
  5
60
102
{ACAD_REACTORS
330
16
102
}
330
16
100
AcDbVisualStyle
  2
EdgeColorOff
 70
22
177
3
291
1
 70
58
 90
2
176
1
 90
2
176
1
 90
0
176
1
 90
2
176
1
 40
0.6
176
1
 40
30.0
176
1
 62
7
420
16777215
176
1
 90
1
176
1
 90
4
176
1
 62
7
176
1
 62
257
176
1
 90
1
176
1
 90
1
176
1
 40
1.0
176
1
 90
8
176
1
 62
7
176
1
 40
1.0
176
1
 90
1
176
1
 90
6
176
1
 90
2
176
1
 62
7
176
1
 90
5
176
1
 90
0
176
1
 90
0
176
1
290
0
176
1
 90
1
176
1
 40
0.0
176
1
 90
0
176
1
290
0
176
1
290
1
176
1
290
1
176
1
290
0
176
1
290
0
176
1
290
0
176
1
290
0
176
1
290
0
176
1
290
0
176
1
 90
50
176
1
 40
0.0
176
1
 40
1.0
176
1
 90
0
176
1
 62
18
420
0
176
1
 90
50
176
1
 90
3
176
1
 62
5
420
255
176
1
290
0
176
1
 90
50
176
1
 90
50
176
1
 90
50
176
1
290
0
176
1
 90
50
176
1
 62
256
176
0
 40
1.0
176
0
 90
2
176
1
  1
strokes_ogs.tif
176
1
290
0
176
1
 40
1.0
176
1
 40
1.0
176
1
  0
VISUALSTYLE
  5
61
102
{ACAD_REACTORS
330
16
102
}
330
16
100
AcDbVisualStyle
  2
Facepattern
 70
15
177
3
291
1
 70
58
 90
2
176
1
 90
2
176
1
 90
0
176
1
 90
2
176
1
 40
0.6
176
1
 40
30.0
176
1
 62
7
420
16777215
176
1
 90
1
176
1
 90
4
176
1
 62
7
176
1
 62
257
176
1
 90
1
176
1
 90
1
176
1
 40
1.0
176
1
 90
8
176
1
 62
7
176
1
 40
1.0
176
1
 90
1
176
1
 90
6
176
1
 90
2
176
1
 62
7
176
1
 90
5
176
1
 90
0
176
1
 90
0
176
1
290
0
176
1
 90
1
176
1
 40
0.0
176
1
 90
0
176
1
290
0
176
1
290
1
176
1
290
1
176
1
290
0
176
1
290
0
176
1
290
0
176
1
290
0
176
1
290
0
176
1
290
0
176
1
 90
50
176
1
 40
0.0
176
1
 40
1.0
176
1
 90
0
176
1
 62
18
420
0
176
1
 90
50
176
1
 90
3
176
1
 62
5
420
255
176
1
290
0
176
1
 90
50
176
1
 90
50
176
1
 90
50
176
1
290
0
176
1
 90
50
176
1
 62
256
176
0
 40
1.0
176
0
 90
2
176
1
  1
strokes_ogs.tif
176
1
290
0
176
1
 40
1.0
176
1
 40
1.0
176
1
  0
VISUALSTYLE
  5
62
102
{ACAD_REACTORS
330
16
102
}
330
16
100
AcDbVisualStyle
  2
Flat
 70
0
177
3
291
1
 70
58
 90
2
176
1
 90
2
176
1
 90
0
176
1
 90
2
176
1
 40
0.6
176
1
 40
30.0
176
1
 62
7
420
16777215
176
1
 90
1
176
1
 90
4
176
1
 62
7
176
1
 62
257
176
1
 90
1
176
1
 90
1
176
1
 40
1.0
176
1
 90
8
176
1
 62
7
176
1
 40
1.0
176
1
 90
1
176
1
 90
6
176
1
 90
2
176
1
 62
7
176
1
 90
5
176
1
 90
0
176
1
 90
0
176
1
290
0
176
1
 90
1
176
1
 40
0.0
176
1
 90
0
176
1
290
0
176
1
290
1
176
1
290
1
176
1
290
0
176
1
290
0
176
1
290
0
176
1
290
0
176
1
290
0
176
1
290
0
176
1
 90
50
176
1
 40
0.0
176
1
 40
1.0
176
1
 90
0
176
1
 62
18
420
0
176
1
 90
50
176
1
 90
3
176
1
 62
5
420
255
176
1
290
0
176
1
 90
50
176
1
 90
50
176
1
 90
50
176
1
290
0
176
1
 90
50
176
1
 62
256
176
0
 40
1.0
176
0
 90
2
176
1
  1
strokes_ogs.tif
176
1
290
0
176
1
 40
1.0
176
1
 40
1.0
176
1
  0
VISUALSTYLE
  5
63
102
{ACAD_REACTORS
330
16
102
}
330
16
100
AcDbVisualStyle
  2
FlatWithEdges
 70
1
177
3
291
1
 70
58
 90
2
176
1
 90
2
176
1
 90
0
176
1
 90
2
176
1
 40
0.6
176
1
 40
30.0
176
1
 62
7
420
16777215
176
1
 90
1
176
1
 90
4
176
1
 62
7
176
1
 62
257
176
1
 90
1
176
1
 90
1
176
1
 40
1.0
176
1
 90
8
176
1
 62
7
176
1
 40
1.0
176
1
 90
1
176
1
 90
6
176
1
 90
2
176
1
 62
7
176
1
 90
5
176
1
 90
0
176
1
 90
0
176
1
290
0
176
1
 90
1
176
1
 40
0.0
176
1
 90
0
176
1
290
0
176
1
290
1
176
1
290
1
176
1
290
0
176
1
290
0
176
1
290
0
176
1
290
0
176
1
290
0
176
1
290
0
176
1
 90
50
176
1
 40
0.0
176
1
 40
1.0
176
1
 90
0
176
1
 62
18
420
0
176
1
 90
50
176
1
 90
3
176
1
 62
5
420
255
176
1
290
0
176
1
 90
50
176
1
 90
50
176
1
 90
50
176
1
290
0
176
1
 90
50
176
1
 62
256
176
0
 40
1.0
176
0
 90
2
176
1
  1
strokes_ogs.tif
176
1
290
0
176
1
 40
1.0
176
1
 40
1.0
176
1
  0
VISUALSTYLE
  5
64
102
{ACAD_REACTORS
330
16
102
}
330
16
100
AcDbVisualStyle
  2
Gouraud
 70
2
177
3
291
1
 70
58
 90
2
176
1
 90
2
176
1
 90
0
176
1
 90
2
176
1
 40
0.6
176
1
 40
30.0
176
1
 62
7
420
16777215
176
1
 90
1
176
1
 90
4
176
1
 62
7
176
1
 62
257
176
1
 90
1
176
1
 90
1
176
1
 40
1.0
176
1
 90
8
176
1
 62
7
176
1
 40
1.0
176
1
 90
1
176
1
 90
6
176
1
 90
2
176
1
 62
7
176
1
 90
5
176
1
 90
0
176
1
 90
0
176
1
290
0
176
1
 90
1
176
1
 40
0.0
176
1
 90
0
176
1
290
0
176
1
290
1
176
1
290
1
176
1
290
0
176
1
290
0
176
1
290
0
176
1
290
0
176
1
290
0
176
1
290
0
176
1
 90
50
176
1
 40
0.0
176
1
 40
1.0
176
1
 90
0
176
1
 62
18
420
0
176
1
 90
50
176
1
 90
3
176
1
 62
5
420
255
176
1
290
0
176
1
 90
50
176
1
 90
50
176
1
 90
50
176
1
290
0
176
1
 90
50
176
1
 62
256
176
0
 40
1.0
176
0
 90
2
176
1
  1
strokes_ogs.tif
176
1
290
0
176
1
 40
1.0
176
1
 40
1.0
176
1
  0
VISUALSTYLE
  5
65
102
{ACAD_REACTORS
330
16
102
}
330
16
100
AcDbVisualStyle
  2
GouraudWithEdges
 70
3
177
3
291
1
 70
58
 90
2
176
1
 90
2
176
1
 90
0
176
1
 90
2
176
1
 40
0.6
176
1
 40
30.0
176
1
 62
7
420
16777215
176
1
 90
1
176
1
 90
4
176
1
 62
7
176
1
 62
257
176
1
 90
1
176
1
 90
1
176
1
 40
1.0
176
1
 90
8
176
1
 62
7
176
1
 40
1.0
176
1
 90
1
176
1
 90
6
176
1
 90
2
176
1
 62
7
176
1
 90
5
176
1
 90
0
176
1
 90
0
176
1
290
0
176
1
 90
1
176
1
 40
0.0
176
1
 90
0
176
1
290
0
176
1
290
1
176
1
290
1
176
1
290
0
176
1
290
0
176
1
290
0
176
1
290
0
176
1
290
0
176
1
290
0
176
1
 90
50
176
1
 40
0.0
176
1
 40
1.0
176
1
 90
0
176
1
 62
18
420
0
176
1
 90
50
176
1
 90
3
176
1
 62
5
420
255
176
1
290
0
176
1
 90
50
176
1
 90
50
176
1
 90
50
176
1
290
0
176
1
 90
50
176
1
 62
256
176
0
 40
1.0
176
0
 90
2
176
1
  1
strokes_ogs.tif
176
1
290
0
176
1
 40
1.0
176
1
 40
1.0
176
1
  0
VISUALSTYLE
  5
66
102
{ACAD_REACTORS
330
16
102
}
330
16
100
AcDbVisualStyle
  2
Hidden
 70
6
177
3
291
0
 70
58
 90
2
176
1
 90
2
176
1
 90
0
176
1
 90
1
176
1
 40
0.6
176
1
 40
30.0
176
1
 62
7
420
16777215
176
1
 90
1
176
1
 90
4
176
1
 62
7
176
1
 62
257
176
1
 90
1
176
1
 90
1
176
1
 40
1.0
176
1
 90
8
176
1
 62
7
176
1
 40
1.0
176
1
 90
1
176
1
 90
6
176
1
 90
2
176
1
 62
7
176
1
 90
5
176
1
 90
0
176
1
 90
0
176
1
290
0
176
1
 90
1
176
1
 40
0.0
176
1
 90
0
176
1
290
0
176
1
290
1
176
1
290
1
176
1
290
0
176
1
290
0
176
1
290
0
176
1
290
0
176
1
290
0
176
1
290
0
176
1
 90
50
176
1
 40
0.0
176
1
 40
1.0
176
1
 90
0
176
1
 62
18
420
0
176
1
 90
50
176
1
 90
3
176
1
 62
5
420
255
176
1
290
0
176
1
 90
50
176
1
 90
50
176
1
 90
50
176
1
290
0
176
1
 90
50
176
1
 62
256
176
0
 40
1.0
176
0
 90
2
176
1
  1
strokes_ogs.tif
176
1
290
0
176
1
 40
1.0
176
1
 40
1.0
176
1
  0
VISUALSTYLE
  5
67
102
{ACAD_REACTORS
330
16
102
}
330
16
100
AcDbVisualStyle
  2
JitterOff
 70
20
177
3
291
1
 70
58
 90
2
176
1
 90
2
176
1
 90
0
176
1
 90
2
176
1
 40
0.6
176
1
 40
30.0
176
1
 62
7
420
16777215
176
1
 90
1
176
1
 90
4
176
1
 62
7
176
1
 62
257
176
1
 90
1
176
1
 90
1
176
1
 40
1.0
176
1
 90
8
176
1
 62
7
176
1
 40
1.0
176
1
 90
1
176
1
 90
6
176
1
 90
2
176
1
 62
7
176
1
 90
5
176
1
 90
0
176
1
 90
0
176
1
290
0
176
1
 90
1
176
1
 40
0.0
176
1
 90
0
176
1
290
0
176
1
290
1
176
1
290
1
176
1
290
0
176
1
290
0
176
1
290
0
176
1
290
0
176
1
290
0
176
1
290
0
176
1
 90
50
176
1
 40
0.0
176
1
 40
1.0
176
1
 90
0
176
1
 62
18
420
0
176
1
 90
50
176
1
 90
3
176
1
 62
5
420
255
176
1
290
0
176
1
 90
50
176
1
 90
50
176
1
 90
50
176
1
290
0
176
1
 90
50
176
1
 62
256
176
0
 40
1.0
176
0
 90
2
176
1
  1
strokes_ogs.tif
176
1
290
0
176
1
 40
1.0
176
1
 40
1.0
176
1
  0
VISUALSTYLE
  5
68
102
{ACAD_REACTORS
330
16
102
}
330
16
100
AcDbVisualStyle
  2
Linepattern
 70
14
177
3
291
1
 70
58
 90
2
176
1
 90
2
176
1
 90
0
176
1
 90
2
176
1
 40
0.6
176
1
 40
30.0
176
1
 62
7
420
16777215
176
1
 90
1
176
1
 90
4
176
1
 62
7
176
1
 62
257
176
1
 90
1
176
1
 90
1
176
1
 40
1.0
176
1
 90
8
176
1
 62
7
176
1
 40
1.0
176
1
 90
1
176
1
 90
6
176
1
 90
2
176
1
 62
7
176
1
 90
5
176
1
 90
0
176
1
 90
0
176
1
290
0
176
1
 90
1
176
1
 40
0.0
176
1
 90
0
176
1
290
0
176
1
290
1
176
1
290
1
176
1
290
0
176
1
290
0
176
1
290
0
176
1
290
0
176
1
290
0
176
1
290
0
176
1
 90
50
176
1
 40
0.0
176
1
 40
1.0
176
1
 90
0
176
1
 62
18
420
0
176
1
 90
50
176
1
 90
3
176
1
 62
5
420
255
176
1
290
0
176
1
 90
50
176
1
 90
50
176
1
 90
50
176
1
290
0
176
1
 90
50
176
1
 62
256
176
0
 40
1.0
176
0
 90
2
176
1
  1
strokes_ogs.tif
176
1
290
0
176
1
 40
1.0
176
1
 40
1.0
176
1
  0
VISUALSTYLE
  5
69
102
{ACAD_REACTORS
330
16
102
}
330
16
100
AcDbVisualStyle
  2
Modeling
 70
10
177
3
291
0
 70
58
 90
2
176
1
 90
2
176
1
 90
0
176
1
 90
2
176
1
 40
0.6
176
1
 40
30.0
176
1
 62
7
420
16777215
176
1
 90
1
176
1
 90
4
176
1
 62
7
176
1
 62
257
176
1
 90
1
176
1
 90
1
176
1
 40
1.0
176
1
 90
8
176
1
 62
7
176
1
 40
1.0
176
1
 90
1
176
1
 90
6
176
1
 90
2
176
1
 62
7
176
1
 90
5
176
1
 90
0
176
1
 90
0
176
1
290
0
176
1
 90
1
176
1
 40
0.0
176
1
 90
0
176
1
290
0
176
1
290
1
176
1
290
1
176
1
290
0
176
1
290
0
176
1
290
0
176
1
290
0
176
1
290
0
176
1
290
0
176
1
 90
50
176
1
 40
0.0
176
1
 40
1.0
176
1
 90
0
176
1
 62
18
420
0
176
1
 90
50
176
1
 90
3
176
1
 62
5
420
255
176
1
290
0
176
1
 90
50
176
1
 90
50
176
1
 90
50
176
1
290
0
176
1
 90
50
176
1
 62
256
176
0
 40
1.0
176
0
 90
2
176
1
  1
strokes_ogs.tif
176
1
290
0
176
1
 40
1.0
176
1
 40
1.0
176
1
  0
VISUALSTYLE
  5
6A
102
{ACAD_REACTORS
330
16
102
}
330
16
100
AcDbVisualStyle
  2
OverhangOff
 70
21
177
3
291
1
 70
58
 90
2
176
1
 90
2
176
1
 90
0
176
1
 90
2
176
1
 40
0.6
176
1
 40
30.0
176
1
 62
7
420
16777215
176
1
 90
1
176
1
 90
4
176
1
 62
7
176
1
 62
257
176
1
 90
1
176
1
 90
1
176
1
 40
1.0
176
1
 90
8
176
1
 62
7
176
1
 40
1.0
176
1
 90
1
176
1
 90
6
176
1
 90
2
176
1
 62
7
176
1
 90
5
176
1
 90
0
176
1
 90
0
176
1
290
0
176
1
 90
1
176
1
 40
0.0
176
1
 90
0
176
1
290
0
176
1
290
1
176
1
290
1
176
1
290
0
176
1
290
0
176
1
290
0
176
1
290
0
176
1
290
0
176
1
290
0
176
1
 90
50
176
1
 40
0.0
176
1
 40
1.0
176
1
 90
0
176
1
 62
18
420
0
176
1
 90
50
176
1
 90
3
176
1
 62
5
420
255
176
1
290
0
176
1
 90
50
176
1
 90
50
176
1
 90
50
176
1
290
0
176
1
 90
50
176
1
 62
256
176
0
 40
1.0
176
0
 90
2
176
1
  1
strokes_ogs.tif
176
1
290
0
176
1
 40
1.0
176
1
 40
1.0
176
1
  0
VISUALSTYLE
  5
6B
102
{ACAD_REACTORS
330
16
102
}
330
16
100
AcDbVisualStyle
  2
Realistic
 70
8
177
3
291
0
 70
58
 90
2
176
1
 90
2
176
1
 90
0
176
1
 90
2
176
1
 40
0.6
176
1
 40
30.0
176
1
 62
7
420
16777215
176
1
 90
1
176
1
 90
4
176
1
 62
7
176
1
 62
257
176
1
 90
1
176
1
 90
1
176
1
 40
1.0
176
1
 90
8
176
1
 62
7
176
1
 40
1.0
176
1
 90
1
176
1
 90
6
176
1
 90
2
176
1
 62
7
176
1
 90
5
176
1
 90
0
176
1
 90
0
176
1
290
0
176
1
 90
1
176
1
 40
0.0
176
1
 90
0
176
1
290
0
176
1
290
1
176
1
290
1
176
1
290
0
176
1
290
0
176
1
290
0
176
1
290
0
176
1
290
0
176
1
290
0
176
1
 90
50
176
1
 40
0.0
176
1
 40
1.0
176
1
 90
0
176
1
 62
18
420
0
176
1
 90
50
176
1
 90
3
176
1
 62
5
420
255
176
1
290
0
176
1
 90
50
176
1
 90
50
176
1
 90
50
176
1
290
0
176
1
 90
50
176
1
 62
256
176
0
 40
1.0
176
0
 90
2
176
1
  1
strokes_ogs.tif
176
1
290
0
176
1
 40
1.0
176
1
 40
1.0
176
1
  0
VISUALSTYLE
  5
6C
102
{ACAD_REACTORS
330
16
102
}
330
16
100
AcDbVisualStyle
  2
Shaded
 70
27
177
3
291
0
 70
58
 90
2
176
1
 90
2
176
1
 90
0
176
1
 90
2
176
1
 40
0.6
176
1
 40
30.0
176
1
 62
7
420
16777215
176
1
 90
1
176
1
 90
4
176
1
 62
7
176
1
 62
257
176
1
 90
1
176
1
 90
1
176
1
 40
1.0
176
1
 90
8
176
1
 62
7
176
1
 40
1.0
176
1
 90
1
176
1
 90
6
176
1
 90
2
176
1
 62
7
176
1
 90
5
176
1
 90
0
176
1
 90
0
176
1
290
0
176
1
 90
1
176
1
 40
0.0
176
1
 90
0
176
1
290
0
176
1
290
1
176
1
290
1
176
1
290
0
176
1
290
0
176
1
290
0
176
1
290
0
176
1
290
0
176
1
290
0
176
1
 90
50
176
1
 40
0.0
176
1
 40
1.0
176
1
 90
0
176
1
 62
18
420
0
176
1
 90
50
176
1
 90
3
176
1
 62
5
420
255
176
1
290
0
176
1
 90
50
176
1
 90
50
176
1
 90
50
176
1
290
0
176
1
 90
50
176
1
 62
256
176
0
 40
1.0
176
0
 90
2
176
1
  1
strokes_ogs.tif
176
1
290
0
176
1
 40
1.0
176
1
 40
1.0
176
1
  0
VISUALSTYLE
  5
6D
102
{ACAD_REACTORS
330
16
102
}
330
16
100
AcDbVisualStyle
  2
Shaded with edges
 70
26
177
3
291
0
 70
58
 90
2
176
1
 90
2
176
1
 90
0
176
1
 90
2
176
1
 40
0.6
176
1
 40
30.0
176
1
 62
7
420
16777215
176
1
 90
1
176
1
 90
4
176
1
 62
7
176
1
 62
257
176
1
 90
1
176
1
 90
1
176
1
 40
1.0
176
1
 90
8
176
1
 62
7
176
1
 40
1.0
176
1
 90
1
176
1
 90
6
176
1
 90
2
176
1
 62
7
176
1
 90
5
176
1
 90
0
176
1
 90
0
176
1
290
0
176
1
 90
1
176
1
 40
0.0
176
1
 90
0
176
1
290
0
176
1
290
1
176
1
290
1
176
1
290
0
176
1
290
0
176
1
290
0
176
1
290
0
176
1
290
0
176
1
290
0
176
1
 90
50
176
1
 40
0.0
176
1
 40
1.0
176
1
 90
0
176
1
 62
18
420
0
176
1
 90
50
176
1
 90
3
176
1
 62
5
420
255
176
1
290
0
176
1
 90
50
176
1
 90
50
176
1
 90
50
176
1
290
0
176
1
 90
50
176
1
 62
256
176
0
 40
1.0
176
0
 90
2
176
1
  1
strokes_ogs.tif
176
1
290
0
176
1
 40
1.0
176
1
 40
1.0
176
1
  0
VISUALSTYLE
  5
6E
102
{ACAD_REACTORS
330
16
102
}
330
16
100
AcDbVisualStyle
  2
Shades of Gray
 70
23
177
3
291
0
 70
58
 90
2
176
1
 90
2
176
1
 90
0
176
1
 90
2
176
1
 40
0.6
176
1
 40
30.0
176
1
 62
7
420
16777215
176
1
 90
1
176
1
 90
4
176
1
 62
7
176
1
 62
257
176
1
 90
1
176
1
 90
1
176
1
 40
1.0
176
1
 90
8
176
1
 62
7
176
1
 40
1.0
176
1
 90
1
176
1
 90
6
176
1
 90
2
176
1
 62
7
176
1
 90
5
176
1
 90
0
176
1
 90
0
176
1
290
0
176
1
 90
1
176
1
 40
0.0
176
1
 90
0
176
1
290
0
176
1
290
1
176
1
290
1
176
1
290
0
176
1
290
0
176
1
290
0
176
1
290
0
176
1
290
0
176
1
290
0
176
1
 90
50
176
1
 40
0.0
176
1
 40
1.0
176
1
 90
0
176
1
 62
18
420
0
176
1
 90
50
176
1
 90
3
176
1
 62
5
420
255
176
1
290
0
176
1
 90
50
176
1
 90
50
176
1
 90
50
176
1
290
0
176
1
 90
50
176
1
 62
256
176
0
 40
1.0
176
0
 90
2
176
1
  1
strokes_ogs.tif
176
1
290
0
176
1
 40
1.0
176
1
 40
1.0
176
1
  0
VISUALSTYLE
  5
6F
102
{ACAD_REACTORS
330
16
102
}
330
16
100
AcDbVisualStyle
  2
Sketchy
 70
24
177
3
291
0
 70
58
 90
2
176
1
 90
2
176
1
 90
0
176
1
 90
1
176
1
 40
0.6
176
1
 40
30.0
176
1
 62
7
420
16777215
176
1
 90
1
176
1
 90
4
176
1
 62
7
176
1
 62
257
176
1
 90
1
176
1
 90
1
176
1
 40
1.0
176
1
 90
8
176
1
 62
7
176
1
 40
1.0
176
1
 90
1
176
1
 90
6
176
1
 90
2
176
1
 62
7
176
1
 90
5
176
1
 90
0
176
1
 90
0
176
1
290
0
176
1
 90
1
176
1
 40
0.0
176
1
 90
0
176
1
290
0
176
1
290
1
176
1
290
1
176
1
290
0
176
1
290
0
176
1
290
0
176
1
290
0
176
1
290
0
176
1
290
0
176
1
 90
50
176
1
 40
0.0
176
1
 40
1.0
176
1
 90
0
176
1
 62
18
420
0
176
1
 90
50
176
1
 90
3
176
1
 62
5
420
255
176
1
290
0
176
1
 90
50
176
1
 90
50
176
1
 90
50
176
1
290
0
176
1
 90
50
176
1
 62
256
176
0
 40
1.0
176
0
 90
2
176
1
  1
strokes_ogs.tif
176
1
290
0
176
1
 40
1.0
176
1
 40
1.0
176
1
  0
VISUALSTYLE
  5
70
102
{ACAD_REACTORS
330
16
102
}
330
16
100
AcDbVisualStyle
  2
Thicken
 70
13
177
3
291
1
 70
58
 90
2
176
1
 90
2
176
1
 90
0
176
1
 90
2
176
1
 40
0.6
176
1
 40
30.0
176
1
 62
7
420
16777215
176
1
 90
1
176
1
 90
4
176
1
 62
7
176
1
 62
257
176
1
 90
1
176
1
 90
1
176
1
 40
1.0
176
1
 90
8
176
1
 62
7
176
1
 40
1.0
176
1
 90
1
176
1
 90
6
176
1
 90
2
176
1
 62
7
176
1
 90
5
176
1
 90
0
176
1
 90
0
176
1
290
0
176
1
 90
1
176
1
 40
0.0
176
1
 90
0
176
1
290
0
176
1
290
1
176
1
290
1
176
1
290
0
176
1
290
0
176
1
290
0
176
1
290
0
176
1
290
0
176
1
290
0
176
1
 90
50
176
1
 40
0.0
176
1
 40
1.0
176
1
 90
0
176
1
 62
18
420
0
176
1
 90
50
176
1
 90
3
176
1
 62
5
420
255
176
1
290
0
176
1
 90
50
176
1
 90
50
176
1
 90
50
176
1
290
0
176
1
 90
50
176
1
 62
256
176
0
 40
1.0
176
0
 90
2
176
1
  1
strokes_ogs.tif
176
1
290
0
176
1
 40
1.0
176
1
 40
1.0
176
1
  0
VISUALSTYLE
  5
71
102
{ACAD_REACTORS
330
16
102
}
330
16
100
AcDbVisualStyle
  2
Wireframe
 70
5
177
3
291
0
 70
58
 90
2
176
1
 90
2
176
1
 90
0
176
1
 90
0
176
1
 40
0.6
176
1
 40
30.0
176
1
 62
7
420
16777215
176
1
 90
1
176
1
 90
4
176
1
 62
7
176
1
 62
257
176
1
 90
1
176
1
 90
1
176
1
 40
1.0
176
1
 90
8
176
1
 62
7
176
1
 40
1.0
176
1
 90
1
176
1
 90
6
176
1
 90
2
176
1
 62
7
176
1
 90
5
176
1
 90
0
176
1
 90
0
176
1
290
0
176
1
 90
1
176
1
 40
0.0
176
1
 90
0
176
1
290
0
176
1
290
1
176
1
290
1
176
1
290
0
176
1
290
0
176
1
290
0
176
1
290
0
176
1
290
0
176
1
290
0
176
1
 90
50
176
1
 40
0.0
176
1
 40
1.0
176
1
 90
0
176
1
 62
18
420
0
176
1
 90
50
176
1
 90
3
176
1
 62
5
420
255
176
1
290
0
176
1
 90
50
176
1
 90
50
176
1
 90
50
176
1
290
0
176
1
 90
50
176
1
 62
256
176
0
 40
1.0
176
0
 90
2
176
1
  1
strokes_ogs.tif
176
1
290
0
176
1
 40
1.0
176
1
 40
1.0
176
1
  0
VISUALSTYLE
  5
72
102
{ACAD_REACTORS
330
16
102
}
330
16
100
AcDbVisualStyle
  2
X-Ray
 70
25
177
3
291
0
 70
58
 90
2
176
1
 90
2
176
1
 90
0
176
1
 90
2
176
1
 40
0.5
176
1
 40
30.0
176
1
 62
7
420
16777215
176
1
 90
1
176
1
 90
4
176
1
 62
7
176
1
 62
257
176
1
 90
1
176
1
 90
1
176
1
 40
1.0
176
1
 90
8
176
1
 62
7
176
1
 40
1.0
176
1
 90
1
176
1
 90
6
176
1
 90
2
176
1
 62
7
176
1
 90
5
176
1
 90
0
176
1
 90
0
176
1
290
0
176
1
 90
1
176
1
 40
0.0
176
1
 90
0
176
1
290
0
176
1
290
1
176
1
290
1
176
1
290
0
176
1
290
0
176
1
290
0
176
1
290
0
176
1
290
0
176
1
290
0
176
1
 90
50
176
1
 40
0.0
176
1
 40
1.0
176
1
 90
0
176
1
 62
18
420
0
176
1
 90
50
176
1
 90
3
176
1
 62
5
420
255
176
1
290
0
176
1
 90
50
176
1
 90
50
176
1
 90
50
176
1
290
0
176
1
 90
50
176
1
 62
256
176
0
 40
1.0
176
0
 90
2
176
1
  1
strokes_ogs.tif
176
1
290
0
176
1
 40
1.0
176
1
 40
1.0
176
1
  0
DICTIONARYVAR
  5
36A
330
2D
100
DictionaryVariables
280
0
  1
1.4.4 @ 2026-10-08T17:36:55.453186+00:00
  0
ENDSEC
  0
EOF
